<svg preserveAspectRatio="none" width="100%" height="100%" overflow="visible" style="display: block;" viewBox="0 0 26 26" fill="none" xmlns="http://www.w3.org/2000/svg">
<g id="Group">
<g id="Vector">
</g>
<path id="Vector_2" d="M12.8322 2.13815C18.7368 2.13815 23.5231 6.92447 23.5231 12.8291C23.5231 18.7337 18.7368 23.52 12.8322 23.52C6.92757 23.52 2.14124 18.7337 2.14124 12.8291C2.14124 6.92447 6.92757 2.13815 12.8322 2.13815ZM12.8322 4.27633C10.5638 4.27633 8.38841 5.17742 6.78446 6.78137C5.18051 8.38532 4.27942 10.5607 4.27942 12.8291C4.27942 15.0974 5.18051 17.2728 6.78446 18.8768C8.38841 20.4807 10.5638 21.3818 12.8322 21.3818C15.1005 21.3818 17.2759 20.4807 18.8799 18.8768C20.4838 17.2728 21.3849 15.0974 21.3849 12.8291C21.3849 10.5607 20.4838 8.38532 18.8799 6.78137C17.2759 5.17742 15.1005 4.27633 12.8322 4.27633ZM12.8322 16.0363C13.1157 16.0363 13.3876 16.149 13.5881 16.3495C13.7886 16.55 13.9012 16.8219 13.9012 17.1054C13.9012 17.389 13.7886 17.6609 13.5881 17.8614C13.3876 18.0619 13.1157 18.1745 12.8322 18.1745C12.5486 18.1745 12.2767 18.0619 12.0762 17.8614C11.8757 17.6609 11.7631 17.389 11.7631 17.1054C11.7631 16.8219 11.8757 16.55 12.0762 16.3495C12.2767 16.149 12.5486 16.0363 12.8322 16.0363ZM12.8322 6.41451C13.1157 6.41451 13.3876 6.52715 13.5881 6.72764C13.7886 6.92814 13.9012 7.20006 13.9012 7.48361V13.8982C13.9012 14.1817 13.7886 14.4536 13.5881 14.6541C13.3876 14.8546 13.1157 14.9672 12.8322 14.9672C12.5486 14.9672 12.2767 14.8546 12.0762 14.6541C11.8757 14.4536 11.7631 14.1817 11.7631 13.8982V7.48361C11.7631 7.20006 11.8757 6.92814 12.0762 6.72764C12.2767 6.52715 12.5486 6.41451 12.8322 6.41451Z" fill="var(--fill-0, #1B1F2B)"/>
</g>
</svg>
