<svg preserveAspectRatio="none" width="100%" height="100%" overflow="visible" style="display: block;" viewBox="0 0 32 32" fill="none" xmlns="http://www.w3.org/2000/svg">
<g id="Group">
<g id="Vector">
</g>
<path id="Vector_2" d="M13.4891 5.98875C13.5905 4.92875 14.6971 4.05542 15.8131 4.69275C18.1331 6.05142 20.3225 7.59942 22.4398 9.25408C25.0531 11.3181 27.1505 13.2634 28.6358 14.8168C29.2798 15.4928 29.2198 16.5608 28.6038 17.2061C27.1329 18.7275 25.5771 20.1645 23.9438 21.5101C21.3598 23.6261 18.6838 25.6768 15.7705 27.3208C14.7825 27.8781 13.7118 27.2408 13.5211 26.2528L13.4985 26.1021L13.1958 21.3368C10.7745 21.3874 8.43048 22.2194 6.55581 23.7674L6.20248 24.0634L6.03181 24.2021L5.70248 24.4581C5.64915 24.4981 5.59581 24.5381 5.54248 24.5754L5.23581 24.7888C5.14057 24.8514 5.04365 24.9114 4.94515 24.9688L4.67048 25.1168C3.38248 25.7528 2.67048 25.1901 2.67048 22.6674C2.67048 16.7954 6.99715 11.5701 12.8465 10.7781L13.1918 10.7368L13.4891 5.98875ZM16.0345 7.95408L15.7785 12.5834C15.7698 12.7417 15.7051 12.8917 15.5959 13.0065C15.4867 13.1213 15.3401 13.1935 15.1825 13.2101L13.3678 13.3994C9.28115 13.8874 6.03848 17.0821 5.43715 21.2581C7.43586 19.7844 9.80801 18.9011 12.2838 18.7088L12.8131 18.6781L15.0851 18.6301C15.258 18.6264 15.4255 18.6899 15.5523 18.8073C15.6792 18.9247 15.7555 19.0868 15.7651 19.2594L16.0278 24.0541C18.1651 22.6928 20.2025 21.1261 22.2465 19.4541C23.5666 18.3574 24.8376 17.2029 26.0558 15.9941L25.7118 15.6528L24.9705 14.9421C23.6296 13.686 22.2354 12.488 20.7918 11.3514C19.2607 10.1443 17.6732 9.01056 16.0345 7.95408Z" fill="var(--fill-0, #5B7DDF)"/>
</g>
</svg>
