<svg preserveAspectRatio="none" width="100%" height="100%" overflow="visible" style="display: block;" viewBox="0 0 20 20" fill="none" xmlns="http://www.w3.org/2000/svg">
<g id="Group">
<g id="Vector">
</g>
<path id="Vector_2" d="M11.6667 2.5C12.3297 2.5 12.9656 2.76339 13.4344 3.23223C13.9033 3.70107 14.1667 4.33696 14.1667 5H16.6667C17.1087 5 17.5326 5.17559 17.8452 5.48816C18.1577 5.80072 18.3333 6.22464 18.3333 6.66667V15.8333C18.3333 16.2754 18.1577 16.6993 17.8452 17.0118C17.5326 17.3244 17.1087 17.5 16.6667 17.5H3.33333C2.89131 17.5 2.46738 17.3244 2.15482 17.0118C1.84226 16.6993 1.66667 16.2754 1.66667 15.8333V6.66667C1.66667 6.22464 1.84226 5.80072 2.15482 5.48816C2.46738 5.17559 2.89131 5 3.33333 5H5.83333C5.83333 4.33696 6.09673 3.70107 6.56557 3.23223C7.03441 2.76339 7.67029 2.5 8.33333 2.5H11.6667ZM9.16667 10H3.33333V15.8333H16.6667V10H10.8333V10.8333C10.8331 11.0457 10.7518 11.25 10.606 11.4045C10.4602 11.5589 10.2609 11.6519 10.0488 11.6643C9.8368 11.6768 9.62802 11.6078 9.46514 11.4714C9.30226 11.3351 9.19759 11.1417 9.1725 10.9308L9.16667 10.8333V10ZM16.6667 6.66667H3.33333V8.33333H16.6667V6.66667ZM11.6667 4.16667H8.33333C8.12922 4.16669 7.93222 4.24163 7.77969 4.37726C7.62716 4.5129 7.52971 4.69979 7.50583 4.9025L7.5 5H12.5C12.5 4.79589 12.425 4.59889 12.2894 4.44636C12.1538 4.29383 11.9669 4.19638 11.7642 4.1725L11.6667 4.16667Z" fill="var(--fill-0, #464646)"/>
</g>
</svg>
