<svg preserveAspectRatio="none" width="100%" height="100%" overflow="visible" style="display: block;" viewBox="0 0 392 203" fill="none" xmlns="http://www.w3.org/2000/svg">
<g id="CAP ">
<path id="Vector" d="M9.78516 173.374C9.78516 169.297 12.3807 166.613 16.2862 166.613C19.5539 166.613 21.8991 168.482 22.3064 171.416H19.2889C18.8964 170.111 17.7875 169.365 16.2126 169.365C14.093 169.365 12.8075 170.867 12.8075 173.359C12.8075 175.852 14.1126 177.348 16.2126 177.348C17.8219 177.348 19.0043 176.553 19.3576 175.268H22.3015C21.8403 178.182 19.4018 180.105 16.139 180.105C12.2384 180.105 9.78516 177.52 9.78516 173.374Z" fill="var(--fill-0, white)"/>
<path id="Vector_2" d="M29.8862 180.106C26.1033 180.106 23.5078 177.348 23.5078 173.359C23.5078 169.37 26.1229 166.593 29.8862 166.593C33.6494 166.593 36.2989 169.351 36.2989 173.34C36.2989 177.329 33.6837 180.106 29.8862 180.106ZM29.9205 169.351C27.8009 169.351 26.5302 170.852 26.5302 173.34C26.5302 175.827 27.8009 177.348 29.9205 177.348C32.0401 177.348 33.2912 175.812 33.2912 173.34C33.2912 170.867 32.0057 169.351 29.9205 169.351Z" fill="var(--fill-0, white)"/>
<path id="Vector_3" d="M38.3105 179.895V166.824H41.0827L44.9686 176.573L48.8937 166.824H51.7002V179.895H48.9281V177.157C48.9281 174.331 48.9281 173.723 49.0703 172.741L46.2982 179.895H43.6831L40.9257 172.741C41.0777 173.901 41.1368 175.071 41.1023 176.24V179.895H38.3105Z" fill="var(--fill-0, white)"/>
<path id="Vector_4" d="M54.4043 179.895V166.824H57.1764L61.0623 176.573L64.9629 166.824H67.7743V179.895H64.9973V177.157C64.9973 174.331 64.9973 173.723 65.1396 172.741L62.3674 179.895H59.7523L56.9998 172.741C57.1494 173.901 57.2084 175.071 57.1764 176.24V179.895H54.4043Z" fill="var(--fill-0, white)"/>
<path id="Vector_5" d="M70.4043 166.824H73.2647V174.787C73.2647 176.431 74.1675 177.334 75.7719 177.334C77.3763 177.334 78.3184 176.397 78.3184 174.787V166.824H81.1788V174.984C81.1788 178.094 79.0592 180.106 75.7817 180.106C72.5043 180.106 70.4141 178.109 70.4141 174.984L70.4043 166.824Z" fill="var(--fill-0, white)"/>
<path id="Vector_6" d="M83.8125 179.895V166.824H86.6386L92.1485 175.141V166.824H94.9746V179.895H92.1485L86.6386 171.593V179.895H83.8125Z" fill="var(--fill-0, white)"/>
<path id="Vector_7" d="M100.554 179.895H97.6934V166.824H100.554V179.895Z" fill="var(--fill-0, white)"/>
<path id="Vector_8" d="M102.271 166.824H112.575V169.474H108.841V179.895H105.981V169.474H102.271V166.824Z" fill="var(--fill-0, white)"/>
<path id="Vector_9" d="M113.258 166.824H116.452L118.645 171.063C118.856 171.471 118.998 171.79 119.136 172.123C119.298 171.804 119.44 171.471 119.651 171.044L121.839 166.824H124.95L120.534 174.93V179.895H117.674V174.93L113.258 166.824Z" fill="var(--fill-0, white)"/>
<path id="Vector_10" d="M129.963 179.895L134.629 166.824H137.416L142.062 179.895H139.025L138.108 177.138H133.888L132.951 179.895H129.963ZM134.717 174.738H137.293L136.356 171.947C136.216 171.529 136.098 171.105 136.003 170.676C135.915 171.107 135.797 171.532 135.649 171.947L134.717 174.738Z" fill="var(--fill-0, white)"/>
<path id="Vector_11" d="M143.584 179.895V166.824H146.356L150.252 176.573L154.152 166.824H156.964V179.895H154.177V177.157C154.177 174.331 154.177 173.723 154.314 172.741L151.542 179.895H148.932L146.175 172.741C146.324 173.901 146.383 175.071 146.351 176.24V179.895H143.584Z" fill="var(--fill-0, white)"/>
<path id="Vector_12" d="M159.672 166.824H165.113C167.743 166.824 169.333 168.203 169.333 170.445C169.379 171.065 169.229 171.683 168.903 172.212C168.577 172.741 168.092 173.153 167.517 173.389C168.803 173.816 169.48 174.822 169.48 176.303C169.48 178.619 167.924 179.91 165.098 179.91H159.672V166.824ZM162.537 169.331V172.177H164.814C165.839 172.177 166.403 171.662 166.403 170.705C166.403 169.748 165.854 169.312 164.814 169.312L162.537 169.331ZM162.518 174.576V177.388H164.971C166.031 177.388 166.575 176.897 166.575 175.916C166.575 175.033 166.011 174.557 164.971 174.557L162.518 174.576Z" fill="var(--fill-0, white)"/>
<path id="Vector_13" d="M170.043 179.895L174.704 166.824H177.496L182.142 179.895H179.1L178.183 177.138H173.963L173.026 179.895H170.043ZM174.783 174.738H177.358L176.426 171.947C176.284 171.53 176.166 171.106 176.073 170.676C175.981 171.106 175.863 171.53 175.72 171.947L174.783 174.738Z" fill="var(--fill-0, white)"/>
<path id="Vector_14" d="M187.741 166.579C190.547 166.579 192.314 168.13 192.314 170.602H189.473C189.473 169.685 188.781 169.13 187.707 169.13C186.539 169.13 185.798 169.66 185.798 170.524C185.798 171.387 186.205 171.706 187.123 171.903L189.085 172.31C191.416 172.8 192.52 173.899 192.52 175.965C192.52 178.492 190.557 180.131 187.54 180.131C184.625 180.131 182.736 178.561 182.736 176.107H185.577C185.577 177.059 186.284 177.579 187.54 177.579C188.796 177.579 189.64 177.089 189.64 176.24C189.64 175.514 189.306 175.141 188.438 174.964L186.446 174.562C184.11 174.071 182.913 172.756 182.913 170.637C182.937 168.257 184.93 166.579 187.741 166.579Z" fill="var(--fill-0, white)"/>
<path id="Vector_15" d="M198.674 166.579C201.48 166.579 203.246 168.13 203.246 170.602H200.405C200.405 169.685 199.714 169.13 198.639 169.13C197.471 169.13 196.731 169.66 196.731 170.524C196.731 171.387 197.138 171.706 198.055 171.903L200.018 172.31C202.348 172.8 203.452 173.899 203.452 175.965C203.452 178.492 201.49 180.131 198.467 180.131C195.553 180.131 193.664 178.561 193.664 176.107H196.51C196.51 177.059 197.216 177.579 198.472 177.579C199.728 177.579 200.572 177.089 200.572 176.24C200.572 175.514 200.239 175.141 199.375 174.964L197.403 174.577C195.072 174.086 193.87 172.771 193.87 170.651C193.87 168.257 195.882 166.579 198.674 166.579Z" fill="var(--fill-0, white)"/>
<path id="Vector_16" d="M204.148 179.895L208.81 166.824H211.582L216.228 179.895H213.191L212.273 177.138H208.049L207.117 179.895H204.148ZM208.898 174.738H211.479L210.542 171.947C210.399 171.53 210.281 171.106 210.188 170.676C210.098 171.107 209.98 171.531 209.835 171.947L208.898 174.738Z" fill="var(--fill-0, white)"/>
<path id="Vector_17" d="M217.768 179.895V166.824H222.713C226.545 166.824 229.209 169.508 229.209 173.394C229.209 177.28 226.614 179.895 222.89 179.895H217.768ZM220.628 169.474V177.245H222.591C224.852 177.245 226.177 175.813 226.177 173.394C226.177 170.975 224.779 169.469 222.414 169.469L220.628 169.474Z" fill="var(--fill-0, white)"/>
<path id="Vector_18" d="M236.859 180.106C233.081 180.106 230.48 177.348 230.48 173.359C230.48 169.37 233.091 166.593 236.859 166.593C240.627 166.593 243.267 169.351 243.267 173.34C243.267 177.329 240.656 180.106 236.859 180.106ZM236.893 169.351C234.774 169.351 233.503 170.852 233.503 173.34C233.503 175.827 234.774 177.348 236.893 177.348C239.013 177.348 240.269 175.812 240.269 173.34C240.269 170.867 238.998 169.351 236.893 169.351Z" fill="var(--fill-0, white)"/>
<path id="Vector_19" d="M245.283 179.895V166.824H250.342C253.521 166.824 255.322 168.36 255.322 171.063C255.364 171.817 255.18 172.566 254.792 173.214C254.405 173.863 253.832 174.38 253.148 174.699L255.444 179.895H252.304L250.342 175.317H248.134V179.895H245.283ZM248.149 172.81H250.342C251.598 172.81 252.304 172.177 252.304 171.063C252.304 169.95 251.617 169.366 250.342 169.366H248.153L248.149 172.81Z" fill="var(--fill-0, white)"/>
<path id="Vector_20" d="M264.978 175.558V179.905H262.117V166.824H267.416C270.085 166.824 271.866 168.571 271.866 171.186C271.866 173.801 270.085 175.558 267.416 175.558H264.978ZM264.978 169.376V173.016H266.778C268.157 173.016 268.849 172.413 268.849 171.196C268.849 169.979 268.157 169.376 266.778 169.376H264.978Z" fill="var(--fill-0, white)"/>
<path id="Vector_21" d="M273.672 179.895V166.824H278.721C281.9 166.824 283.701 168.36 283.701 171.063C283.744 171.817 283.56 172.567 283.172 173.215C282.785 173.863 282.212 174.38 281.527 174.699L283.823 179.895H280.698L278.735 175.317H276.527V179.895H273.672ZM276.532 172.81H278.701C279.957 172.81 280.664 172.177 280.664 171.063C280.664 169.95 279.972 169.366 278.701 169.366H276.513L276.532 172.81Z" fill="var(--fill-0, white)"/>
<path id="Vector_22" d="M291.472 180.106C287.694 180.106 285.094 177.348 285.094 173.359C285.094 169.37 287.704 166.593 291.472 166.593C295.24 166.593 297.88 169.351 297.88 173.34C297.88 177.329 295.27 180.106 291.472 180.106ZM291.506 169.351C289.387 169.351 288.116 170.852 288.116 173.34C288.116 175.827 289.387 177.348 291.506 177.348C293.626 177.348 294.882 175.812 294.882 173.34C294.882 170.867 293.611 169.351 291.506 169.351Z" fill="var(--fill-0, white)"/>
<path id="Vector_23" d="M302.199 173.482C302.199 176.112 303.671 177.407 305.766 177.407C307.861 177.407 308.872 176.24 308.995 174.881H305.56V172.374H311.673V179.88H309.22L309.063 178.698C308.357 179.527 306.944 180.072 305.388 180.072C301.733 180.072 299.172 177.388 299.172 173.379C299.172 169.371 301.802 166.599 305.85 166.599C308.975 166.599 311.374 168.434 311.673 171.26H308.681C308.342 169.881 307.14 169.297 305.781 169.297C303.416 169.297 302.199 170.956 302.199 173.482Z" fill="var(--fill-0, white)"/>
<path id="Vector_24" d="M314.047 179.895V166.824H319.1C322.28 166.824 324.08 168.36 324.08 171.063C324.123 171.817 323.939 172.566 323.551 173.214C323.164 173.863 322.591 174.38 321.907 174.699L324.203 179.895H321.078L319.115 175.317H316.907V179.895H314.047ZM316.907 172.81H319.081C320.337 172.81 321.043 172.177 321.043 171.063C321.043 169.95 320.357 169.366 319.081 169.366H316.888L316.907 172.81Z" fill="var(--fill-0, white)"/>
<path id="Vector_25" d="M325 179.895L329.661 166.824H332.453L337.099 179.895H334.062L333.145 177.138H328.92L327.983 179.895H325ZM329.749 174.738H332.33L331.393 171.947C331.251 171.53 331.133 171.106 331.04 170.676C330.95 171.107 330.832 171.531 330.687 171.947L329.749 174.738Z" fill="var(--fill-0, white)"/>
<path id="Vector_26" d="M338.619 179.895V166.824H341.391L345.277 176.573L349.202 166.824H352.009V179.895H349.237V177.157C349.237 174.331 349.237 173.723 349.379 172.741L346.607 179.895H343.992L341.239 172.741C341.389 173.901 341.448 175.071 341.416 176.24V179.895H338.619Z" fill="var(--fill-0, white)"/>
<path id="Vector_27" d="M309 37.52H261.241C266.263 46.2372 272.575 54.1443 279.964 60.9728H307.44C311.84 61.048 316.034 62.8487 319.119 65.9869C322.204 69.1251 323.933 73.3497 323.933 77.7503C323.933 82.1509 322.204 86.3754 319.119 89.5136C316.034 92.6519 311.84 94.4526 307.44 94.5278H275.003C269.205 100.7 264.216 107.585 260.156 115.017V158.051H286.543V117.981H309.019C333.615 117.981 350.067 101.858 350.067 77.7478C350.067 53.6376 333.596 37.52 309 37.52Z" fill="var(--fill-0, white)"/>
<path id="Vector_28" d="M5.83008 97.9424C5.83008 60.315 29.7735 35.5571 65.767 35.5571C95.9023 35.5571 117.564 52.8229 121.308 79.8622H93.4589C89.8723 67.8071 79.613 60.9675 65.1145 60.9675C45.5722 60.9675 33.679 74.8135 33.679 97.7657C33.679 120.404 45.7341 134.564 65.1145 134.564C79.9368 134.564 90.8536 127.234 94.1115 115.345H121.475C117.235 142.223 94.7591 159.994 64.6287 159.994C28.4683 159.999 5.83008 136.056 5.83008 97.9424Z" fill="var(--fill-0, white)"/>
<path id="Vector_29" d="M200.709 37.5151H174.975L131.975 158.046H159.5L168.135 132.636H168.204L175.789 110.484L175.858 110.282L184.419 84.769C185.891 80.3532 187.192 75.8098 187.677 73.0426C188.168 75.9865 189.64 80.6966 190.935 84.769L199.57 110.503L215.953 158.066H243.547L200.709 37.5151Z" fill="var(--fill-0, white)"/>
<path id="Vector_30" d="M362.209 22.879C359.285 22.8647 356.475 24.0116 354.397 26.0679C352.319 28.1241 351.142 30.9214 351.125 33.8449C351.125 39.7326 356.066 44.6832 362.209 44.6832C368.096 44.6832 373.292 39.7473 373.292 33.8449C373.302 27.8198 368.121 22.879 362.209 22.879Z" fill="var(--fill-0, #FCDE2F)"/>
<path id="Vector_31" d="M260.155 48.6431C266.307 59.8889 275.554 69.1349 286.801 75.285C275.554 81.4364 266.306 90.6842 260.155 101.932L259.374 100.514C253.734 90.1932 245.25 81.7078 234.931 76.0651L233.508 75.2899C244.755 69.1385 254.003 59.8907 260.155 48.6431Z" fill="var(--fill-0, #FCDE2F)"/>
<path id="Vector_32" d="M170.656 158.046H206.714L187.76 101.932L170.656 158.046Z" fill="var(--fill-0, #FCDE2F)"/>
</g>
</svg>
