<svg preserveAspectRatio="none" width="100%" height="100%" overflow="visible" style="display: block;" viewBox="0 0 24 24" fill="none" xmlns="http://www.w3.org/2000/svg">
<g id="Group">
<g id="Vector">
</g>
<path id="Vector_2" fill-rule="evenodd" clip-rule="evenodd" d="M9.87914 17.9504C9.69167 17.7628 9.58635 17.5085 9.58635 17.2434C9.58635 16.9782 9.69167 16.7239 9.87914 16.5364L12.0001 14.4154L9.87914 12.2944C9.6915 12.1069 9.58603 11.8525 9.58594 11.5872C9.58584 11.322 9.69113 11.0675 9.87864 10.8799C10.0661 10.6922 10.3205 10.5868 10.5858 10.5867C10.8511 10.5866 11.1055 10.6919 11.2931 10.8794L14.1221 13.7084C14.3096 13.8959 14.4149 14.1502 14.4149 14.4154C14.4149 14.6805 14.3096 14.9348 14.1221 15.1224L11.2931 17.9504C11.1056 18.1378 10.8513 18.2432 10.5861 18.2432C10.321 18.2432 10.0667 18.1378 9.87914 17.9504Z" fill="var(--fill-0, #393939)"/>
</g>
</svg>
