<svg preserveAspectRatio="none" width="100%" height="100%" overflow="visible" style="display: block;" viewBox="0 0 36 36" fill="none" xmlns="http://www.w3.org/2000/svg">
<g id="Group">
<g id="Vector">
</g>
<path id="Vector_2" d="M15.7475 19.55L17.6492 21.4516L19.5508 19.55C19.8281 19.2821 20.1996 19.1338 20.5852 19.1372C20.9709 19.1405 21.3397 19.2952 21.6124 19.5679C21.8851 19.8406 22.0398 20.2094 22.0431 20.595C22.0465 20.9807 21.8982 21.3522 21.6303 21.6295L18.6889 24.5709C18.4131 24.8466 18.0391 25.0015 17.6492 25.0015C17.2592 25.0015 16.8852 24.8466 16.6094 24.5709L13.668 21.6295C13.5275 21.4939 13.4155 21.3316 13.3384 21.1521C13.2613 20.9727 13.2208 20.7797 13.2191 20.5845C13.2174 20.3892 13.2546 20.1955 13.3285 20.0148C13.4025 19.834 13.5117 19.6698 13.6498 19.5317C13.7878 19.3937 13.9521 19.2844 14.1328 19.2105C14.3135 19.1366 14.5072 19.0993 14.7025 19.101C14.8978 19.1027 15.0907 19.1433 15.2702 19.2204C15.4496 19.2975 15.6119 19.4095 15.7475 19.55ZM15.7475 15.7468L17.6492 13.8451L19.5508 15.7468C19.8281 16.0147 20.1996 16.1629 20.5852 16.1595C20.9709 16.1562 21.3397 16.0015 21.6124 15.7288C21.8851 15.4562 22.0398 15.0873 22.0431 14.7017C22.0465 14.3161 21.8982 13.9446 21.6303 13.6672L18.6889 10.7258C18.4131 10.4501 18.0391 10.2952 17.6492 10.2952C17.2592 10.2952 16.8852 10.4501 16.6094 10.7258L13.668 13.6672C13.4001 13.9446 13.2519 14.3161 13.2552 14.7017C13.2586 15.0873 13.4132 15.4562 13.6859 15.7288C13.9586 16.0015 14.3274 16.1562 14.7131 16.1595C15.0987 16.1629 15.4702 16.0147 15.7475 15.7468Z" fill="var(--fill-0, #131313)"/>
</g>
</svg>
