<svg preserveAspectRatio="none" width="100%" height="100%" overflow="visible" style="display: block;" viewBox="0 0 32 32" fill="none" xmlns="http://www.w3.org/2000/svg">
<g id="Group">
<g id="Vector">
</g>
<path id="Vector_2" fill-rule="evenodd" clip-rule="evenodd" d="M16.9427 20.9427C16.6926 21.1926 16.3536 21.333 16 21.333C15.6464 21.333 15.3074 21.1926 15.0573 20.9427L7.51467 13.4C7.38732 13.277 7.28574 13.1299 7.21587 12.9672C7.14599 12.8045 7.1092 12.6296 7.10767 12.4525C7.10613 12.2755 7.13986 12.0999 7.20691 11.9361C7.27395 11.7722 7.37295 11.6233 7.49814 11.4981C7.62333 11.3729 7.7722 11.2739 7.93606 11.2069C8.09992 11.1399 8.2755 11.1061 8.45254 11.1077C8.62957 11.1092 8.80453 11.146 8.96721 11.2159C9.12988 11.2857 9.277 11.3873 9.4 11.5147L16 18.1147L22.6 11.5147C22.8515 11.2718 23.1883 11.1374 23.5379 11.1404C23.8875 11.1435 24.2219 11.2837 24.4691 11.5309C24.7163 11.7781 24.8565 12.1125 24.8596 12.4621C24.8626 12.8117 24.7282 13.1485 24.4853 13.4L16.9427 20.9427Z" fill="var(--fill-0, #131313)"/>
</g>
</svg>
