<svg preserveAspectRatio="none" width="100%" height="100%" overflow="visible" style="display: block;" viewBox="0 0 14 14" fill="none" xmlns="http://www.w3.org/2000/svg">
<g id="Group">
<g id="Vector">
</g>
<path id="Vector_2" d="M7.0003 1.16661C10.222 1.16661 12.8336 3.77819 12.8336 6.99994C12.8336 10.2217 10.222 12.8333 7.0003 12.8333C3.77855 12.8333 1.16697 10.2217 1.16697 6.99994C1.16697 3.77819 3.77855 1.16661 7.0003 1.16661ZM7.0003 2.33328C5.76262 2.33328 4.57564 2.82494 3.70047 3.70011C2.8253 4.57528 2.33363 5.76227 2.33363 6.99994C2.33363 8.23762 2.8253 9.42461 3.70047 10.2998C4.57564 11.1749 5.76262 11.6666 7.0003 11.6666C8.23798 11.6666 9.42496 11.1749 10.3001 10.2998C11.1753 9.42461 11.667 8.23762 11.667 6.99994C11.667 5.76227 11.1753 4.57528 10.3001 3.70011C9.42496 2.82494 8.23798 2.33328 7.0003 2.33328ZM7.0003 3.49994C7.14318 3.49996 7.28108 3.55242 7.38785 3.64736C7.49462 3.7423 7.56283 3.87313 7.57955 4.01503L7.58363 4.08328V6.75844L9.16272 8.33753C9.26734 8.4425 9.32808 8.58336 9.3326 8.7315C9.33712 8.87964 9.28509 9.02394 9.18707 9.13511C9.08905 9.24627 8.9524 9.31596 8.80486 9.33001C8.65732 9.34406 8.50996 9.30143 8.39272 9.21078L8.33788 9.16236L6.58788 7.41236C6.49722 7.32162 6.43899 7.20353 6.42222 7.07636L6.41697 6.99994V4.08328C6.41697 3.92857 6.47842 3.78019 6.58782 3.6708C6.69722 3.5614 6.84559 3.49994 7.0003 3.49994Z" fill="var(--fill-0, #737373)"/>
</g>
</svg>
