<svg preserveAspectRatio="none" width="100%" height="100%" overflow="visible" style="display: block;" viewBox="0 0 52 52" fill="none" xmlns="http://www.w3.org/2000/svg">
<g id="Group">
<g id="Vector">
</g>
<path id="Vector_2" d="M10.8333 19.5C10.8333 15.4776 12.4312 11.6198 15.2755 8.77555C18.1198 5.93125 21.9776 4.33333 26 4.33333C30.0225 4.33333 33.8802 5.93125 36.7245 8.77555C39.5688 11.6198 41.1667 15.4776 41.1667 19.5V21.7425C44.8413 22.269 47.6667 25.4302 47.6667 29.25V29.7917C47.6667 33.6375 44.3495 37.0088 40.4473 36.829C38.844 41.4223 34.7663 44.5185 30.3658 45.3028C29.3475 45.6755 28.1428 45.5 27.0833 45.5C26.2214 45.5 25.3947 45.1576 24.7852 44.5481C24.1757 43.9386 23.8333 43.112 23.8333 42.25C23.8333 41.388 24.1757 40.5614 24.7852 39.9519C25.3947 39.3424 26.2214 39 27.0833 39C28.8015 39 30.7038 38.7508 31.8652 40.3195C34.6732 38.9827 36.8333 36.1595 36.8333 32.5V19.5C36.8333 16.6268 35.692 13.8713 33.6603 11.8397C31.6287 9.80803 28.8732 8.66667 26 8.66667C23.1268 8.66667 20.3713 9.80803 18.3397 11.8397C16.308 13.8713 15.1667 16.6268 15.1667 19.5V33.0417C15.1667 34.0473 14.7672 35.0117 14.0561 35.7228C13.345 36.4339 12.3806 36.8333 11.375 36.8333C9.50743 36.8333 7.71636 36.0914 6.39579 34.7709C5.07522 33.4503 4.33333 31.6592 4.33333 29.7917V29.25C4.33287 27.4261 4.98975 25.6632 6.18357 24.2843C7.37739 22.9055 9.02817 22.0031 10.8333 21.7425V19.5Z" fill="var(--fill-0, white)"/>
</g>
</svg>
