<svg preserveAspectRatio="none" width="100%" height="100%" overflow="visible" style="display: block;" viewBox="0 0 32 32" fill="none" xmlns="http://www.w3.org/2000/svg">
<g id="Group">
<g id="Vector">
</g>
<path id="Vector_2" d="M21.3313 3.99993C21.6579 3.99997 21.9731 4.11987 22.2172 4.33689C22.4612 4.5539 22.6171 4.85293 22.6553 5.17726L22.6647 5.33326V6.6666H25.3313C26.0041 6.66639 26.6521 6.92047 27.1454 7.37793C27.6387 7.83538 27.9409 8.46239 27.9913 9.13326L27.998 9.33327V25.3333C27.9982 26.006 27.7441 26.654 27.2867 27.1473C26.8292 27.6406 26.2022 27.9428 25.5313 27.9933L25.3313 27.9999H6.66467C5.9919 28.0001 5.34391 27.7461 4.8506 27.2886C4.3573 26.8311 4.05513 26.2041 4.00467 25.5333L3.998 25.3333V9.33327C3.99779 8.6605 4.25188 8.01251 4.70933 7.5192C5.16679 7.02589 5.7938 6.72372 6.46467 6.67327L6.66467 6.6666H9.33134V5.33326C9.33171 4.99343 9.46184 4.66656 9.69513 4.41944C9.92843 4.17233 10.2473 4.02362 10.5865 4.0037C10.9258 3.98379 11.2598 4.09416 11.5204 4.31228C11.781 4.53041 11.9485 4.8398 11.9887 5.17726L11.998 5.33326V6.6666H19.998V5.33326C19.998 4.97964 20.1385 4.6405 20.3885 4.39046C20.6386 4.14041 20.9777 3.99993 21.3313 3.99993ZM25.3313 15.9999H6.66467V25.3333H25.3313V15.9999ZM25.3313 9.33327H6.66467V13.3333H25.3313V9.33327Z" fill="var(--fill-0, white)"/>
</g>
</svg>
