<svg width="433" height="413" viewBox="0 0 433 413" fill="none" xmlns="http://www.w3.org/2000/svg">
<path fill-rule="evenodd" clip-rule="evenodd" d="M212.084 5.82951C273.139 0.792285 343.8 -13.2684 384.5 35.0845C426.447 84.9173 410.505 159.824 396.432 224.837C382.37 289.799 365.933 364.616 307.657 390.085C251.182 414.767 194.379 367.82 140.931 336.503C93.1716 308.52 40.5027 280.902 26.2458 225.197C11.4552 167.407 32.6312 105.602 70.4185 60.9973C105.734 19.3103 159.297 10.1847 212.084 5.82951Z" fill="#FAF8E0"/>
<g opacity="0.3">
<path d="M404.978 199.798H311.393V242.125H404.978V199.798Z" fill="#E6E6E6"/>
</g>
<path d="M394.056 186.43H300.471V228.758H394.056V186.43Z" fill="#6584DB"/>
<path d="M369.12 215.92H385.503L377.311 199.797L369.12 215.92Z" fill="#FCDE2F"/>
<path d="M359.761 203.696H317.375V212.013H359.761V203.696Z" fill="white"/>
<path d="M197.11 259.634H68.3639V329.123H197.11V259.634Z" fill="#A5A5A5"/>
<path d="M197.11 251.089H68.3639V320.579H197.11V251.089Z" fill="#E6E6E6"/>
<path d="M190.607 277.503H188.523V291.996H190.607V277.503Z" fill="#E6E6E6"/>
<path d="M180.76 259.911H87.8807V311.757H180.76V259.911Z" fill="white"/>
<path d="M134.257 271.849H117.379V300.221H134.257V271.849Z" fill="#6584DB"/>
<path d="M78.4961 291.778C81.6652 291.778 84.2344 289.209 84.2344 286.04C84.2344 282.871 81.6652 280.302 78.4961 280.302C75.3269 280.302 72.7578 282.871 72.7578 286.04C72.7578 289.209 75.3269 291.778 78.4961 291.778Z" fill="#A5A5A5"/>
<g opacity="0.1">
<path d="M68.3303 251.089V276.832C68.3303 276.832 78.4962 289.745 88.8721 286.032C99.2481 282.318 96.8032 272.765 105.348 276.017C113.892 279.268 117.345 289.745 125.789 286.032C134.232 282.318 123.041 268.086 123.041 268.086L106.566 250.594L68.3303 251.089Z" fill="#000001"/>
</g>
<path d="M159.739 300.23C167.576 300.23 173.93 293.876 173.93 286.039C173.93 278.202 167.576 271.849 159.739 271.849C151.902 271.849 145.549 278.202 145.549 286.039C145.549 293.876 151.902 300.23 159.739 300.23Z" fill="#FCDE2F"/>
<path d="M153.253 284.78H153.816C153.848 284.088 154.08 283.42 154.484 282.858C154.888 282.295 155.447 281.863 156.093 281.612C156.555 281.444 156.807 281.612 156.933 282.041L157.479 283.561C157.664 284.057 157.614 284.276 157.135 284.519C156.656 284.763 156.295 285.242 156.295 286.158C156.295 287.073 156.48 287.745 157.084 287.745C157.689 287.745 157.807 287.04 157.925 286.124C158.168 284.326 158.471 281.646 161.512 281.646C163.26 281.646 164.402 282.721 164.763 284.78H165.326C165.805 284.78 165.956 284.931 165.956 285.41V287.09C165.956 287.569 165.805 287.737 165.326 287.737H164.763C164.699 288.343 164.479 288.923 164.126 289.42C163.773 289.917 163.298 290.316 162.747 290.577C162.285 290.812 162.05 290.678 161.84 290.199L161.126 288.594C160.924 288.149 160.991 287.964 161.47 287.754C161.752 287.631 161.987 287.419 162.139 287.151C162.29 286.883 162.35 286.572 162.31 286.267C162.31 285.275 162.075 284.897 161.571 284.897C161.067 284.897 160.865 285.637 160.731 286.578C160.495 288.376 160.218 290.938 157.143 290.938C155.328 290.938 154.186 289.795 153.783 287.754H153.186C152.724 287.754 152.556 287.586 152.556 287.107V285.427C152.556 284.948 152.724 284.797 153.186 284.797L153.253 284.78Z" fill="white"/>
<path d="M123.823 255.046C123.823 255.046 120.933 269.799 110.02 265.229C99.1061 260.658 87.8984 246.644 94.5608 237.504C101.223 228.363 125.403 237.999 123.823 255.046Z" fill="#F4A28C"/>
<g opacity="0.09">
<path d="M123.823 255.046C123.823 255.046 120.933 269.799 110.02 265.229C99.1061 260.659 87.8984 246.645 94.5608 237.504C101.223 228.363 125.403 237.999 123.823 255.046Z" fill="#000001"/>
</g>
<path d="M66.2812 232.295L25.5 216.567L45.941 174.257L84.1009 195.412L66.2812 232.295Z" fill="#6584DB"/>
<g opacity="0.1">
<path d="M32.5153 202.04L73.0445 218.289L66.2812 232.294L25.5 216.567L32.5153 202.04Z" fill="#000001"/>
</g>
<path d="M81.9249 199.924L114.145 220.23C118.853 223.195 122.787 227.239 125.621 232.027C128.455 236.815 130.109 242.208 130.444 247.762L132.628 283.805C133.057 290.862 123.219 293.047 120.648 286.468C120.606 286.367 120.572 286.267 120.53 286.157C116.682 275.731 121.11 255.408 113.414 247.687C105.718 239.965 96.09 246.132 98.8205 258.844C101.551 271.555 88.1673 274.319 85.8568 264.002C83.5464 253.685 78.2954 246.09 68.6252 227.43L81.9249 199.924Z" fill="#F4A28C"/>
<path d="M366.737 259.633H237.992V329.122H366.737V259.633Z" fill="#A5A5A5"/>
<path d="M366.737 251.089H237.992V320.578H366.737V251.089Z" fill="#E6E6E6"/>
<path d="M359.621 277.503H357.538V291.996H359.621V277.503Z" fill="#E6E6E6"/>
<path d="M350.388 259.91H257.509V311.756H350.388V259.91Z" fill="white"/>
<path d="M305.784 302.523C315.236 302.523 322.898 294.86 322.898 285.409C322.898 275.957 315.236 268.295 305.784 268.295C296.332 268.295 288.67 275.957 288.67 285.409C288.67 294.86 296.332 302.523 305.784 302.523Z" fill="#FCDE2F"/>
<path d="M247.511 291.777C250.68 291.777 253.249 289.208 253.249 286.039C253.249 282.87 250.68 280.301 247.511 280.301C244.342 280.301 241.772 282.87 241.772 286.039C241.772 289.208 244.342 291.777 247.511 291.777Z" fill="#A5A5A5"/>
<path d="M320.176 302.717C323.804 302.717 326.746 299.775 326.746 296.147C326.746 292.518 323.804 289.577 320.176 289.577C316.547 289.577 313.606 292.518 313.606 296.147C313.606 299.775 316.547 302.717 320.176 302.717Z" fill="#6584DB"/>
<path d="M298.701 283.939H299.373C299.676 281.931 300.592 280.671 302.121 280.116C302.675 279.914 302.961 280.116 303.179 280.637L303.835 282.468C304.053 283.065 303.994 283.309 303.415 283.628C302.835 283.947 302.44 284.468 302.44 285.602C302.44 286.837 302.658 287.518 303.398 287.518C304.137 287.518 304.238 286.678 304.414 285.569C304.717 283.401 305.07 280.175 308.733 280.175C310.842 280.175 312.219 281.469 312.656 283.956H313.337C313.917 283.956 314.093 284.132 314.093 284.712V286.762C314.093 287.341 313.917 287.535 313.337 287.535H312.656C312.577 288.265 312.312 288.964 311.887 289.564C311.462 290.164 310.891 290.645 310.228 290.962C309.674 291.24 309.388 291.08 309.136 290.5L308.296 288.568C308.061 288.03 308.136 287.812 308.716 287.509C309.052 287.359 309.329 287.103 309.505 286.779C309.682 286.456 309.747 286.084 309.691 285.72C309.691 284.527 309.413 284.04 308.792 284.04C308.17 284.04 307.951 284.939 307.775 286.09C307.498 288.257 307.162 291.349 303.457 291.349C301.264 291.349 299.894 289.971 299.432 287.501H298.718C298.164 287.501 297.962 287.299 297.962 286.728V284.678C297.962 284.098 298.164 283.922 298.718 283.922L298.701 283.939Z" fill="white"/>
<path d="M317.193 296.029C317.182 295.887 317.205 295.745 317.259 295.613C317.313 295.482 317.397 295.365 317.504 295.272L319.319 293.718C319.501 293.563 319.736 293.487 319.974 293.506C320.212 293.525 320.433 293.637 320.588 293.819C320.742 294.001 320.819 294.236 320.8 294.474C320.781 294.712 320.668 294.933 320.487 295.088L319.647 295.835L322.503 297.583C322.61 297.641 322.704 297.721 322.78 297.817C322.855 297.913 322.91 298.023 322.942 298.141C322.973 298.259 322.98 298.382 322.963 298.503C322.945 298.624 322.903 298.739 322.839 298.843C322.775 298.947 322.69 299.037 322.59 299.107C322.491 299.178 322.378 299.227 322.258 299.252C322.139 299.277 322.015 299.278 321.896 299.254C321.776 299.229 321.663 299.181 321.562 299.112L317.655 296.717C317.538 296.645 317.439 296.547 317.366 296.431C317.294 296.314 317.249 296.182 317.235 296.045L317.193 296.029Z" fill="white"/>
<g opacity="0.25">
<path d="M356.551 195.722C355.844 195.721 355.159 195.477 354.611 195.03C354.063 194.583 353.686 193.961 353.543 193.269L353.367 192.429C353.245 191.649 353.427 190.852 353.877 190.202C354.327 189.553 355.009 189.102 355.782 188.942C356.556 188.782 357.361 188.926 358.031 189.344C358.701 189.761 359.185 190.421 359.382 191.186L359.559 192.026C359.64 192.421 359.642 192.828 359.565 193.224C359.489 193.62 359.335 193.996 359.112 194.333C358.89 194.669 358.603 194.958 358.269 195.184C357.935 195.409 357.559 195.567 357.164 195.647C356.959 195.687 356.751 195.707 356.542 195.706L356.551 195.722ZM92.1955 194.378C91.7349 194.38 91.2797 194.278 90.8636 194.08C90.4474 193.883 90.0808 193.594 89.7907 193.237C89.5005 192.879 89.2943 192.461 89.187 192.013C89.0798 191.565 89.0743 191.098 89.171 190.648C89.171 190.648 89.2382 190.329 89.3894 189.715C89.6087 188.954 90.113 188.307 90.7973 187.909C91.4817 187.511 92.2933 187.392 93.0632 187.577C93.8331 187.762 94.5019 188.237 94.9302 188.903C95.3586 189.569 95.5136 190.375 95.3629 191.152C95.2369 191.673 95.1781 191.992 95.1697 191.992C95.019 192.674 94.6407 193.284 94.0971 193.722C93.5535 194.16 92.877 194.401 92.1787 194.403L92.1955 194.378ZM352.199 177.844C351.532 177.842 350.885 177.624 350.353 177.223C349.821 176.821 349.434 176.258 349.25 175.617L349.015 174.777C348.854 174.378 348.779 173.949 348.794 173.518C348.81 173.087 348.916 172.665 349.105 172.278C349.294 171.891 349.563 171.548 349.893 171.271C350.223 170.995 350.608 170.791 351.022 170.672C351.437 170.554 351.871 170.524 352.298 170.584C352.724 170.645 353.134 170.794 353.499 171.022C353.864 171.251 354.177 171.554 354.418 171.911C354.658 172.269 354.821 172.673 354.896 173.097L355.139 173.937C355.362 174.72 355.266 175.56 354.87 176.272C354.475 176.984 353.813 177.51 353.031 177.735C352.758 177.814 352.475 177.854 352.19 177.852L352.199 177.844ZM97.3373 176.626C96.851 176.625 96.3717 176.51 95.939 176.288C95.5062 176.066 95.1325 175.744 94.8485 175.35C94.5645 174.955 94.3785 174.498 94.3058 174.018C94.2331 173.537 94.2758 173.046 94.4303 172.584L94.7076 171.744C94.9672 170.973 95.5224 170.337 96.2511 169.975C96.9798 169.614 97.8223 169.557 98.5933 169.816C99.3643 170.076 100.001 170.631 100.362 171.36C100.724 172.088 100.781 172.931 100.521 173.702L100.244 174.542C100.039 175.15 99.6474 175.678 99.126 176.051C98.6045 176.425 97.9789 176.626 97.3373 176.626ZM346.351 160.419C345.733 160.417 345.129 160.229 344.618 159.88C344.108 159.531 343.713 159.037 343.486 158.461L343.176 157.621C342.876 156.865 342.889 156.02 343.212 155.273C343.535 154.527 344.141 153.939 344.898 153.639C345.654 153.339 346.499 153.352 347.246 153.675C347.993 153.998 348.581 154.605 348.88 155.361L349.208 156.201C349.502 156.96 349.483 157.805 349.155 158.549C348.828 159.294 348.218 159.879 347.46 160.175C347.108 160.32 346.732 160.397 346.351 160.402V160.419ZM103.874 159.36C103.461 159.362 103.052 159.279 102.672 159.117C101.923 158.798 101.331 158.196 101.026 157.441C100.72 156.687 100.726 155.842 101.042 155.092L101.387 154.252C101.536 153.868 101.762 153.519 102.049 153.224C102.337 152.928 102.68 152.694 103.06 152.535C103.44 152.375 103.848 152.293 104.26 152.294C104.672 152.295 105.079 152.379 105.458 152.541C105.837 152.702 106.179 152.938 106.465 153.235C106.751 153.531 106.975 153.882 107.122 154.267C107.27 154.651 107.339 155.062 107.325 155.473C107.311 155.885 107.214 156.29 107.041 156.663L106.697 157.462C106.461 158.017 106.066 158.491 105.563 158.825C105.059 159.158 104.469 159.335 103.865 159.335L103.874 159.36ZM338.748 143.658C338.188 143.658 337.639 143.505 337.16 143.216C336.68 142.928 336.288 142.514 336.026 142.02L335.623 141.255C335.24 140.536 335.159 139.695 335.397 138.917C335.635 138.139 336.173 137.487 336.891 137.105C337.61 136.722 338.451 136.641 339.229 136.879C340.007 137.117 340.659 137.655 341.042 138.373L341.462 139.163C341.841 139.884 341.918 140.726 341.677 141.504C341.436 142.282 340.897 142.933 340.176 143.313C339.737 143.547 339.246 143.668 338.748 143.666V143.658ZM111.78 142.7C111.278 142.7 110.785 142.576 110.343 142.339C109.987 142.15 109.672 141.892 109.415 141.581C109.159 141.271 108.966 140.912 108.848 140.527C108.73 140.141 108.69 139.736 108.728 139.335C108.767 138.934 108.885 138.544 109.074 138.188L109.494 137.407C109.675 137.035 109.93 136.704 110.242 136.432C110.554 136.161 110.918 135.955 111.311 135.828C111.705 135.7 112.12 135.654 112.532 135.69C112.944 135.727 113.345 135.847 113.709 136.042C114.074 136.237 114.396 136.504 114.655 136.826C114.914 137.148 115.106 137.52 115.218 137.918C115.331 138.316 115.362 138.732 115.309 139.143C115.257 139.553 115.122 139.949 114.913 140.306L114.502 141.07C114.24 141.563 113.85 141.975 113.371 142.262C112.893 142.55 112.346 142.701 111.788 142.7H111.78ZM329.153 127.964C328.66 127.966 328.174 127.85 327.735 127.624C327.297 127.399 326.919 127.072 326.633 126.67L326.137 125.973C325.661 125.312 325.468 124.489 325.598 123.686C325.729 122.882 326.174 122.163 326.835 121.688C327.495 121.212 328.318 121.018 329.121 121.149C329.925 121.28 330.644 121.724 331.119 122.385L331.64 123.116C331.966 123.576 332.159 124.117 332.197 124.68C332.236 125.243 332.118 125.805 331.858 126.305C331.597 126.806 331.204 127.224 330.721 127.515C330.238 127.806 329.684 127.959 329.12 127.955L329.153 127.964ZM121.248 126.888C120.648 126.884 120.063 126.699 119.568 126.359C119.233 126.135 118.945 125.847 118.721 125.511C118.498 125.176 118.342 124.799 118.264 124.403C118.186 124.008 118.187 123.601 118.266 123.205C118.346 122.81 118.503 122.434 118.728 122.099L119.232 121.36C119.714 120.75 120.411 120.346 121.181 120.23C121.95 120.114 122.735 120.295 123.376 120.736C124.017 121.177 124.466 121.846 124.633 122.606C124.799 123.366 124.671 124.161 124.273 124.83L123.794 125.536C123.514 125.948 123.139 126.286 122.7 126.522C122.261 126.758 121.771 126.883 121.273 126.888H121.248ZM317.433 113.799C317.021 113.8 316.613 113.718 316.233 113.557C315.854 113.397 315.51 113.162 315.224 112.866L314.627 112.253C314.322 111.97 314.078 111.628 313.909 111.248C313.739 110.868 313.649 110.457 313.643 110.041C313.638 109.625 313.716 109.212 313.875 108.828C314.033 108.443 314.268 108.094 314.565 107.803C314.862 107.512 315.215 107.284 315.603 107.133C315.99 106.982 316.405 106.911 316.821 106.925C317.236 106.939 317.645 107.037 318.022 107.213C318.399 107.39 318.736 107.641 319.013 107.951L319.643 108.598C320.061 109.032 320.343 109.58 320.453 110.173C320.562 110.766 320.495 111.378 320.26 111.933C320.024 112.488 319.631 112.962 319.128 113.295C318.626 113.628 318.036 113.806 317.433 113.807V113.799ZM132.599 112.362C132.006 112.361 131.426 112.188 130.929 111.865C130.431 111.541 130.038 111.081 129.797 110.539C129.555 109.998 129.476 109.398 129.567 108.812C129.659 108.226 129.918 107.679 130.313 107.237L130.918 106.565C131.469 105.966 132.235 105.609 133.048 105.575C133.861 105.54 134.654 105.83 135.254 106.38C135.853 106.93 136.209 107.696 136.244 108.509C136.278 109.322 135.989 110.116 135.438 110.715L134.867 111.345C134.58 111.665 134.229 111.92 133.837 112.096C133.444 112.271 133.02 112.361 132.59 112.362H132.599ZM303.663 101.675C303.005 101.678 302.365 101.466 301.84 101.07L301.151 100.566C300.494 100.087 300.054 99.3665 299.927 98.563C299.801 97.7594 300 96.9387 300.479 96.2814C300.958 95.6241 301.678 95.184 302.482 95.0579C303.286 94.9319 304.106 95.1302 304.764 95.6093L305.495 96.147C306.016 96.5305 306.403 97.0692 306.599 97.6859C306.796 98.3026 306.792 98.9657 306.589 99.5802C306.385 100.195 305.993 100.729 305.467 101.107C304.942 101.485 304.31 101.687 303.663 101.684V101.675ZM146.058 99.8185C145.417 99.8203 144.792 99.6214 144.27 99.2496C143.748 98.8778 143.356 98.3518 143.148 97.7455C142.94 97.1393 142.928 96.4832 143.112 95.8695C143.297 95.2558 143.669 94.7152 144.176 94.3238L144.899 93.7693C145.219 93.5038 145.589 93.306 145.988 93.1879C146.387 93.0697 146.805 93.0337 147.219 93.082C147.632 93.1303 148.031 93.2619 148.391 93.4688C148.752 93.6757 149.067 93.9537 149.318 94.2858C149.568 94.618 149.748 94.9975 149.847 95.4013C149.947 95.8052 149.963 96.225 149.896 96.6354C149.828 97.0458 149.678 97.4382 149.455 97.7889C149.231 98.1396 148.939 98.4414 148.595 98.6758L147.923 99.1883C147.386 99.6024 146.728 99.827 146.05 99.8269L146.058 99.8185ZM288.044 92.0134C287.562 92.0128 287.087 91.8977 286.658 91.6773L285.894 91.2909C285.533 91.111 285.211 90.8619 284.947 90.5577C284.682 90.2535 284.48 89.9001 284.352 89.5178C284.224 89.1356 284.173 88.7318 284.201 88.3297C284.229 87.9275 284.336 87.5349 284.516 87.1741C284.696 86.8133 284.945 86.4915 285.249 86.227C285.553 85.9625 285.907 85.7605 286.289 85.6326C286.671 85.5046 287.075 85.4532 287.477 85.4813C287.879 85.5094 288.272 85.6164 288.633 85.7962L289.473 86.1995C290.09 86.5101 290.584 87.0199 290.875 87.6463C291.166 88.2726 291.237 88.9789 291.076 89.6507C290.916 90.3224 290.533 90.9204 289.991 91.3477C289.448 91.775 288.777 92.0066 288.087 92.005L288.044 92.0134ZM161.786 90.3331C161.081 90.3357 160.397 90.096 159.847 89.6543C159.298 89.2125 158.917 88.5955 158.769 87.9065C158.62 87.2175 158.713 86.4984 159.031 85.8695C159.349 85.2406 159.874 84.7402 160.517 84.452L161.357 84.0823C161.726 83.9207 162.124 83.8333 162.526 83.8252C162.929 83.8171 163.33 83.8884 163.705 84.0351C164.08 84.1818 164.423 84.4009 164.713 84.68C165.004 84.9591 165.237 85.2928 165.398 85.6618C165.56 86.0309 165.647 86.4281 165.655 86.831C165.664 87.2338 165.592 87.6343 165.446 88.0095C165.299 88.3848 165.08 88.7275 164.801 89.018C164.522 89.3086 164.188 89.5413 163.819 89.703L163.054 90.0474C162.635 90.2358 162.178 90.3277 161.719 90.3163L161.786 90.3331ZM271.006 85.0401C270.686 85.0392 270.369 84.9881 270.065 84.8889L269.225 84.6284C268.839 84.5076 268.48 84.3119 268.17 84.0525C267.859 83.7931 267.603 83.4751 267.415 83.1166C267.228 82.7582 267.112 82.3662 267.076 81.9632C267.04 81.5602 267.084 81.1541 267.204 80.7679C267.325 80.3817 267.521 80.0232 267.78 79.7126C268.04 79.4021 268.358 79.1457 268.716 78.9581C269.075 78.7704 269.467 78.6553 269.87 78.6191C270.273 78.5829 270.679 78.6265 271.065 78.7473L271.905 79.0162C272.6 79.2426 273.192 79.7092 273.574 80.3323C273.956 80.9554 274.104 81.6943 273.991 82.4165C273.877 83.1386 273.51 83.7968 272.956 84.273C272.401 84.7491 271.695 85.0122 270.964 85.0149L271.006 85.0401ZM179.236 84.662C178.483 84.6665 177.755 84.394 177.19 83.8963C176.625 83.3987 176.263 82.7107 176.173 81.9634C176.083 81.2161 176.271 80.4616 176.7 79.8438C177.13 79.2259 177.773 78.7878 178.505 78.6129L179.345 78.4029C179.745 78.2826 180.164 78.2449 180.579 78.2921C180.994 78.3393 181.394 78.4704 181.757 78.6774C182.119 78.8844 182.435 79.163 182.686 79.4962C182.938 79.8293 183.118 80.2102 183.218 80.6154C183.317 81.0207 183.333 81.442 183.264 81.8536C183.196 82.2651 183.044 82.6584 182.818 83.0095C182.593 83.3605 182.298 83.662 181.952 83.8956C181.606 84.1291 181.217 84.2899 180.807 84.368L179.967 84.578C179.725 84.6372 179.477 84.6682 179.227 84.6704L179.236 84.662ZM197.274 80.9737C196.498 80.9806 195.747 80.6926 195.175 80.1681C194.603 79.6435 194.251 78.9213 194.19 78.1473C194.129 77.3733 194.364 76.605 194.848 75.9975C195.331 75.3901 196.027 74.9886 196.795 74.8742L197.635 74.7398C198.034 74.678 198.44 74.6953 198.832 74.7906C199.223 74.8859 199.592 75.0575 199.918 75.2954C200.243 75.5334 200.518 75.8331 200.728 76.1774C200.937 76.5217 201.077 76.904 201.139 77.3022C201.2 77.7005 201.183 78.1071 201.088 78.4987C200.993 78.8904 200.821 79.2594 200.583 79.5847C200.345 79.91 200.045 80.1853 199.701 80.3948C199.357 80.6043 198.974 80.7439 198.576 80.8057L197.736 80.9401C197.574 80.9522 197.411 80.9522 197.249 80.9401L197.274 80.9737ZM253.144 80.6713C252.971 80.6838 252.797 80.6838 252.623 80.6713L251.783 80.5285C250.98 80.3959 250.262 79.9496 249.788 79.2879C249.314 78.6261 249.122 77.8031 249.254 76.9998C249.387 76.1965 249.833 75.4788 250.495 75.0045C251.157 74.5303 251.98 74.3383 252.783 74.4709L253.665 74.6221C254.417 74.7598 255.091 75.1727 255.555 75.7803C256.02 76.388 256.241 77.1467 256.176 77.9085C256.11 78.6704 255.764 79.3806 255.204 79.9008C254.643 80.4209 253.909 80.7136 253.144 80.7217V80.6713ZM215.564 78.907C214.751 78.9326 213.961 78.6341 213.367 78.0771C212.774 77.5201 212.427 76.7503 212.401 75.937C212.375 75.1237 212.674 74.3335 213.231 73.7403C213.788 73.1471 214.558 72.7994 215.371 72.7738L216.261 72.715C217.054 72.7013 217.821 72.9942 218.403 73.5326C218.985 74.071 219.336 74.8133 219.384 75.6045C219.432 76.3957 219.172 77.1748 218.659 77.7792C218.146 78.3836 217.42 78.7665 216.631 78.8481L215.791 78.8985H215.581L215.564 78.907ZM234.888 78.7053H234.745H233.905C233.502 78.6888 233.107 78.5931 232.741 78.4237C232.375 78.2543 232.046 78.0145 231.773 77.718C231.5 77.4216 231.288 77.0742 231.149 76.6958C231.011 76.3174 230.948 75.9154 230.964 75.5127C230.981 75.11 231.076 74.7145 231.246 74.3488C231.415 73.9831 231.655 73.6543 231.952 73.3812C232.248 73.1082 232.595 72.8962 232.974 72.7574C233.352 72.6185 233.754 72.5556 234.157 72.5722H235.047C235.861 72.5911 236.633 72.9324 237.195 73.5208C237.757 74.1093 238.061 74.8968 238.043 75.7102C238.024 76.5235 237.682 77.2959 237.094 77.8576C236.505 78.4193 235.718 78.7242 234.905 78.7053H234.888Z" fill="#A5A5A5"/>
</g>
<path d="M224.362 128.37C249.732 128.37 270.298 107.803 270.298 82.4331C270.298 57.0631 249.732 36.4966 224.362 36.4966C198.992 36.4966 178.425 57.0631 178.425 82.4331C178.425 107.803 198.992 128.37 224.362 128.37Z" fill="#6584DB"/>
<path d="M205.921 74.9721V90.9375H202.425V74.9721H205.921ZM212.587 78.2083H202.749V74.9721H212.587V78.2083ZM211.53 84.7024H202.663V81.5524H211.53V84.7024ZM218.756 91.218C217.678 91.218 216.714 90.9735 215.865 90.4844C215.031 89.9954 214.37 89.3266 213.881 88.478C213.406 87.615 213.169 86.6297 213.169 85.5222C213.169 84.4003 213.399 83.4151 213.859 82.5664C214.334 81.7035 214.988 81.0274 215.822 80.5384C216.656 80.0494 217.613 79.8049 218.692 79.8049C219.828 79.8049 220.806 80.0422 221.626 80.5168C222.446 80.9771 223.079 81.6387 223.524 82.5017C223.97 83.3503 224.193 84.3644 224.193 85.5438V86.3852L214.916 86.4284L214.959 84.3787H220.892C220.892 83.8034 220.698 83.3503 220.31 83.0195C219.921 82.6743 219.389 82.5017 218.713 82.5017C218.152 82.5017 217.692 82.6096 217.332 82.8253C216.987 83.0411 216.728 83.3791 216.556 83.8394C216.383 84.2852 216.297 84.8606 216.297 85.5654C216.297 86.5722 216.498 87.3201 216.901 87.8091C217.318 88.2838 217.958 88.5211 218.821 88.5211C219.454 88.5211 219.979 88.4132 220.396 88.1975C220.813 87.9817 221.079 87.6797 221.194 87.2913H224.236C224.049 88.4852 223.46 89.4416 222.467 90.1608C221.475 90.8656 220.238 91.218 218.756 91.218ZM231.166 91.218C230.087 91.218 229.124 90.9735 228.275 90.4844C227.441 89.9954 226.779 89.3266 226.29 88.478C225.816 87.615 225.578 86.6297 225.578 85.5222C225.578 84.4003 225.808 83.4151 226.269 82.5664C226.743 81.7035 227.398 81.0274 228.232 80.5384C229.066 80.0494 230.023 79.8049 231.101 79.8049C232.238 79.8049 233.216 80.0422 234.036 80.5168C234.855 80.9771 235.488 81.6387 235.934 82.5017C236.38 83.3503 236.603 84.3644 236.603 85.5438V86.3852L227.326 86.4284L227.369 84.3787H233.302C233.302 83.8034 233.108 83.3503 232.72 83.0195C232.331 82.6743 231.799 82.5017 231.123 82.5017C230.562 82.5017 230.102 82.6096 229.742 82.8253C229.397 83.0411 229.138 83.3791 228.966 83.8394C228.793 84.2852 228.707 84.8606 228.707 85.5654C228.707 86.5722 228.908 87.3201 229.311 87.8091C229.728 88.2838 230.368 88.5211 231.231 88.5211C231.864 88.5211 232.389 88.4132 232.806 88.1975C233.223 87.9817 233.489 87.6797 233.604 87.2913H236.646C236.459 88.4852 235.87 89.4416 234.877 90.1608C233.885 90.8656 232.648 91.218 231.166 91.218ZM237.794 87.5287H240.944C240.973 87.9026 241.124 88.1975 241.397 88.4132C241.67 88.629 242.059 88.7369 242.562 88.7369C243.08 88.7369 243.461 88.6506 243.705 88.478C243.95 88.3054 244.072 88.0824 244.072 87.8091C244.072 87.6509 244.007 87.4927 243.878 87.3345C243.763 87.1763 243.504 87.054 243.101 86.9677L241.116 86.5362C240.124 86.3205 239.383 85.9753 238.894 85.5006C238.405 85.0116 238.161 84.2924 238.161 83.3431C238.161 82.5952 238.355 81.9624 238.743 81.4446C239.146 80.9124 239.685 80.5096 240.361 80.2364C241.037 79.9487 241.807 79.8049 242.67 79.8049C243.504 79.8049 244.238 79.9559 244.87 80.2579C245.518 80.56 246.021 80.9843 246.381 81.5309C246.74 82.0774 246.92 82.7175 246.92 83.451H243.77C243.77 83.0771 243.662 82.7822 243.447 82.5664C243.231 82.3363 242.922 82.2213 242.519 82.2213C242.145 82.2213 241.843 82.3147 241.613 82.5017C241.397 82.6743 241.289 82.9045 241.289 83.1921C241.289 83.6524 241.677 83.9688 242.454 84.1414L244.461 84.5729C245.352 84.7599 246.028 85.0835 246.489 85.5438C246.963 85.9897 247.201 86.6441 247.201 87.5071C247.201 88.2694 246.999 88.931 246.596 89.492C246.194 90.0529 245.633 90.4844 244.914 90.7865C244.194 91.0741 243.367 91.218 242.432 91.218C241.009 91.218 239.879 90.88 239.045 90.204C238.211 89.5136 237.794 88.6218 237.794 87.5287Z" fill="white"/>
<path d="M200.764 84.465H247.675V85.5438H200.764V84.465Z" fill="white"/>
</svg>
