<svg preserveAspectRatio="none" width="100%" height="100%" overflow="visible" style="display: block;" viewBox="0 0 20 20" fill="none" xmlns="http://www.w3.org/2000/svg">
<g id="Group">
<g id="Vector">
</g>
<path id="Vector_2" d="M10.5026 3.23172C10.5026 3.01744 10.4174 2.81194 10.2659 2.66042C10.1144 2.5089 9.90889 2.42378 9.69462 2.42378C9.48034 2.42378 9.27483 2.5089 9.12332 2.66042C8.9718 2.81194 8.88668 3.01744 8.88668 3.23172V4.03966H7.67477C6.81765 4.03966 5.99564 4.38014 5.38957 4.98622C4.7835 5.59229 4.44301 6.4143 4.44301 7.27142C4.44301 8.12853 4.7835 8.95054 5.38957 9.55661C5.99564 10.1627 6.81765 10.5032 7.67477 10.5032H11.7145C12.143 10.5032 12.554 10.6734 12.8571 10.9765C13.1601 11.2795 13.3303 11.6905 13.3303 12.1191C13.3303 12.5476 13.1601 12.9586 12.8571 13.2617C12.554 13.5647 12.143 13.7349 11.7145 13.7349H5.65492C5.44064 13.7349 5.23514 13.8201 5.08362 13.9716C4.9321 14.1231 4.84698 14.3286 4.84698 14.5429C4.84698 14.7572 4.9321 14.9627 5.08362 15.1142C5.23514 15.2657 5.44064 15.3508 5.65492 15.3508H8.88668V16.1588C8.88668 16.373 8.9718 16.5785 9.12332 16.7301C9.27483 16.8816 9.48034 16.9667 9.69462 16.9667C9.90889 16.9667 10.1144 16.8816 10.2659 16.7301C10.4174 16.5785 10.5026 16.373 10.5026 16.1588V15.3508H11.7145C12.5716 15.3508 13.3936 15.0103 13.9997 14.4043C14.6057 13.7982 14.9462 12.9762 14.9462 12.1191C14.9462 11.2619 14.6057 10.4399 13.9997 9.83386C13.3936 9.22778 12.5716 8.8873 11.7145 8.8873H7.67477C7.24621 8.8873 6.8352 8.71705 6.53217 8.41401C6.22913 8.11098 6.05889 7.69997 6.05889 7.27142C6.05889 6.84286 6.22913 6.43185 6.53217 6.12882C6.8352 5.82578 7.24621 5.65554 7.67477 5.65554H13.7343C13.9486 5.65554 14.1541 5.57041 14.3056 5.4189C14.4571 5.26738 14.5423 5.06188 14.5423 4.8476C14.5423 4.63332 14.4571 4.42782 14.3056 4.2763C14.1541 4.12478 13.9486 4.03966 13.7343 4.03966H10.5026V3.23172Z" fill="var(--fill-0, #5B7DDF)"/>
</g>
</svg>
