<svg preserveAspectRatio="none" width="100%" height="100%" overflow="visible" style="display: block;" viewBox="0 0 26 26" fill="none" xmlns="http://www.w3.org/2000/svg">
<g id="Group">
<g id="Vector">
</g>
<path id="Vector_2" d="M13.8973 4.27631C13.8973 3.99277 13.7847 3.72084 13.5842 3.52035C13.3837 3.31986 13.1118 3.20722 12.8282 3.20722C12.5447 3.20722 12.2728 3.31986 12.0723 3.52035C11.8718 3.72084 11.7591 3.99277 11.7591 4.27631V5.3454H10.1555C9.02133 5.3454 7.93362 5.79595 7.13165 6.59792C6.32967 7.3999 5.87913 8.48761 5.87913 9.62177C5.87913 10.7559 6.32967 11.8436 7.13165 12.6456C7.93362 13.4476 9.02133 13.8981 10.1555 13.8981H15.501C16.068 13.8981 16.6119 14.1234 17.0129 14.5244C17.4139 14.9254 17.6391 15.4692 17.6391 16.0363C17.6391 16.6034 17.4139 17.1473 17.0129 17.5482C16.6119 17.9492 16.068 18.1745 15.501 18.1745H7.48277C7.19923 18.1745 6.9273 18.2871 6.72681 18.4876C6.52631 18.6881 6.41368 18.9601 6.41368 19.2436C6.41368 19.5271 6.52631 19.7991 6.72681 19.9996C6.9273 20.2001 7.19923 20.3127 7.48277 20.3127H11.7591V21.3818C11.7591 21.6653 11.8718 21.9373 12.0723 22.1377C12.2728 22.3382 12.5447 22.4509 12.8282 22.4509C13.1118 22.4509 13.3837 22.3382 13.5842 22.1377C13.7847 21.9373 13.8973 21.6653 13.8973 21.3818V20.3127H15.501C16.6351 20.3127 17.7228 19.8621 18.5248 19.0602C19.3268 18.2582 19.7773 17.1705 19.7773 16.0363C19.7773 14.9022 19.3268 13.8144 18.5248 13.0125C17.7228 12.2105 16.6351 11.76 15.501 11.76H10.1555C9.58842 11.76 9.04456 11.5347 8.64357 11.1337C8.24259 10.7327 8.01731 10.1889 8.01731 9.62177C8.01731 9.05469 8.24259 8.51083 8.64357 8.10985C9.04456 7.70886 9.58842 7.48359 10.1555 7.48359H18.1737C18.4572 7.48359 18.7292 7.37095 18.9296 7.17046C19.1301 6.96996 19.2428 6.69804 19.2428 6.4145C19.2428 6.13095 19.1301 5.85903 18.9296 5.65853C18.7292 5.45804 18.4572 5.3454 18.1737 5.3454H13.8973V4.27631Z" fill="var(--fill-0, #1B1F2B)"/>
</g>
</svg>
