<svg width="156" height="168" viewBox="0 0 156 168" fill="none" xmlns="http://www.w3.org/2000/svg">
<g clip-path="url(#clip0_10077_7737)">
<path d="M132.314 145.198C162.213 115.236 162.213 66.6583 132.314 36.6964C102.415 6.73446 53.9387 6.73447 24.0395 36.6964C-5.85961 66.6583 -5.85961 115.236 24.0395 145.198C53.9387 175.16 102.415 175.16 132.314 145.198Z" fill="#D5F2F6"/>
<mask id="mask0_10077_7737" style="mask-type:luminance" maskUnits="userSpaceOnUse" x="1" y="14" width="154" height="154">
<path d="M132.308 145.198C162.207 115.236 162.207 66.6583 132.308 36.6964C102.409 6.73446 53.9328 6.73448 24.0337 36.6964C-5.86547 66.6583 -5.86547 115.236 24.0337 145.198C53.9328 175.16 102.409 175.16 132.308 145.198Z" fill="white"/>
</mask>
<g mask="url(#mask0_10077_7737)">
<path fill-rule="evenodd" clip-rule="evenodd" d="M35.9048 26.9663L116.689 140.344L87.6751 187.732L-24.082 156.303L35.9048 26.9663Z" fill="#B9D0D8"/>
</g>
<path fill-rule="evenodd" clip-rule="evenodd" d="M115.598 43.0166C115.581 39.7038 112.892 37.0533 109.579 37.0545L48.3595 37.0775C45.0465 37.0788 42.3615 39.7649 42.3617 43.0779L42.368 138.634C42.3682 141.689 44.6414 144.119 47.6956 144.163C62.4819 144.377 102.401 144.212 112.901 144.036C114.556 144.008 115.614 143.053 115.685 141.399C116.258 127.996 115.713 66.5336 115.598 43.0166Z" fill="white"/>
<path fill-rule="evenodd" clip-rule="evenodd" d="M73.3206 71.3035C79.2025 70.4559 85.8381 73.5642 88.4643 77.306C89.3312 78.5416 89.0563 77.6824 90.1911 79.7451C91.2694 81.7049 92.0727 83.5829 92.3834 86.0783C93.6709 96.4188 86.2466 104.457 77.5809 105.521C72.3393 106.165 67.9954 104.616 64.2801 101.545C63.3079 100.741 62.8799 100.332 62.1107 99.3261C61.5324 98.5699 60.7915 97.8791 60.3115 96.9608C56.9677 90.5626 57.5018 82.3948 62.1215 77.3306C65.3076 73.8368 68.2234 72.038 73.3206 71.3035ZM88.4597 105.624C89.8783 105.845 113.858 105.675 114.257 105.535C114.57 105.352 115.546 102.97 116.008 102.154C117.841 98.9117 120.815 96.9249 124.504 95.5805C124.588 92.3922 124.908 83.9005 124.411 81.1863C118.846 79.3474 116.518 76.2092 114.379 71.1184L88.4851 71.1555C88.6785 71.702 88.5533 71.4727 89.1386 72.0155C91.2922 74.0127 92.6875 75.2896 94.1789 78.1644C95.743 81.18 96.8467 84.4404 96.7847 88.4324C96.6046 99.951 88.8919 104.701 88.4597 105.624ZM42.3852 109.789L118.022 109.887C118.433 108.078 118.331 107.349 119.014 105.605C119.891 103.367 122.136 101.186 124.35 100.198C126.28 99.3365 126.735 99.5441 128.754 99.1589L128.795 77.6983C127.18 77.3544 126.111 77.3377 124.538 76.6932C123.393 76.2238 121.894 75.1729 121.231 74.5259C119.55 72.8851 118.328 70.3371 118.085 66.9317L42.2754 66.9121L42.3565 71.0775C45.3172 71.4235 60.1563 70.9349 61.5757 71.1713L62.1257 71.3201C61.4002 72.5145 48.2949 81.4197 56.5167 98.7796C57.2689 100.368 58.1487 101.38 59.1213 102.539C59.7416 103.278 59.9217 103.459 60.6235 104.115C61.1518 104.608 62.0246 105.216 62.1535 105.644L42.3615 105.678L42.3852 109.789Z" fill="#5E74B7"/>
<path fill-rule="evenodd" clip-rule="evenodd" d="M113.517 89.5302C111.616 96.6333 101.79 94.0554 103.145 87.2508C103.643 84.7499 106.203 82.5234 109.495 83.1725C111.952 83.6569 114.315 86.5529 113.517 89.5302ZM88.4609 105.624C89.8795 105.845 113.859 105.674 114.258 105.534C114.571 105.351 115.547 102.97 116.009 102.154C117.843 98.9115 120.816 96.9247 124.505 95.5803C124.589 92.3921 124.91 83.9003 124.412 81.1861C118.848 79.3472 116.519 76.209 114.38 71.1182L88.4863 71.1553C88.6798 71.7018 88.5545 71.4725 89.1398 72.0153C91.2935 74.0125 92.6888 75.2894 94.1801 78.1642C95.7443 81.1798 96.8479 84.4402 96.7859 88.4322C96.6058 99.9508 88.8932 104.701 88.4609 105.624Z" fill="white"/>
<path fill-rule="evenodd" clip-rule="evenodd" d="M106.237 125.51C106.245 118.098 107.17 118.39 104.072 118.428C96.5378 118.521 43.9828 118.649 42.3492 118.378C42.536 120.198 42.3733 122.935 42.3301 125.018L105.821 124.938C105.858 126.193 105.741 124.962 106.237 125.51Z" fill="#CCD1CF"/>
<path fill-rule="evenodd" clip-rule="evenodd" d="M77.0498 96.051L77.0165 89.7754C81.3325 90.2131 81.0891 95.7579 77.0498 96.051ZM73.5558 80.7917L73.6352 86.3916C69.8546 86.104 70.1017 80.9493 73.5558 80.7917ZM73.5903 102.67L77.0589 102.797C77.0419 102.185 77.0152 101.574 76.9832 100.932C76.9429 100.111 76.7486 99.6694 77.3718 99.378C84.8127 99.2455 86.3856 87.1649 77.0223 86.3878L77.0556 80.7175C78.1959 80.8322 79.141 81.247 79.5279 82.2908L79.9256 83.5002L83.1666 83.5548C83.5123 80.1381 80.181 77.4701 76.9524 77.4013L77.0082 74.1063L73.7118 74.0088L73.6199 77.2992C66.9593 78.2655 65.9858 84.5265 69.1262 87.9107C70.7024 89.609 71.3156 89.0917 73.4946 89.9138L73.6278 96.0426C71.2774 95.9909 71.1184 94.5044 70.3559 92.9257L67.2264 92.934C66.6918 95.7304 69.3475 99.0725 73.5928 99.456L73.5903 102.67Z" fill="#060204"/>
<path fill-rule="evenodd" clip-rule="evenodd" d="M113.516 89.5312C114.313 86.5539 111.951 83.6579 109.494 83.1735C106.201 82.5244 103.641 84.751 103.143 87.2518C101.789 94.0564 111.615 96.6344 113.516 89.5312Z" fill="#D1D9EE"/>
<path fill-rule="evenodd" clip-rule="evenodd" d="M41.5068 84.2036C35.5089 85.7861 38.1027 93.8851 43.3809 92.594C45.2363 92.1405 47.1087 89.8352 46.463 87.3827C45.9613 85.4768 44.1035 83.5187 41.5068 84.2036Z" fill="#D8DDEF"/>
<path fill-rule="evenodd" clip-rule="evenodd" d="M77.0489 96.0505C81.0883 95.7575 81.3316 90.213 77.0156 89.7749L77.0489 96.0505Z" fill="white"/>
<path fill-rule="evenodd" clip-rule="evenodd" d="M126.036 66.9846C123.69 67.727 124.265 71.6185 127.223 71.0541C129.868 70.5497 128.858 66.0916 126.036 66.9846Z" fill="#D8DDEF"/>
<path fill-rule="evenodd" clip-rule="evenodd" d="M125.742 105.928C123.311 107.08 124.999 110.715 127.538 109.744C129.791 108.883 128.734 104.509 125.742 105.928Z" fill="#D8DDEF"/>
<path fill-rule="evenodd" clip-rule="evenodd" d="M73.5545 80.7925C70.1004 80.9501 69.8533 86.1047 73.6339 86.3923L73.5545 80.7925Z" fill="white"/>
<path fill-rule="evenodd" clip-rule="evenodd" d="M73.5898 102.67C73.7592 102.783 73.6922 102.816 74.0803 102.921C74.1548 102.941 74.411 102.976 74.498 102.986C74.7675 103.016 75.117 102.997 75.3886 102.988C75.9303 102.973 76.6895 102.906 77.058 102.829C77.2007 102.447 77.1866 101.815 77.1446 100.935C77.103 100.064 77.0547 99.9499 77.3713 99.3779C76.7481 99.6693 76.9424 100.111 76.9827 100.932C77.0144 101.574 77.0414 102.185 77.0585 102.797L73.5898 102.67Z" fill="#53846E"/>
</g>
<defs>
<clipPath id="clip0_10077_7737">
<rect width="156" height="168" fill="white"/>
</clipPath>
</defs>
</svg>
