<svg preserveAspectRatio="none" width="100%" height="100%" overflow="visible" style="display: block;" viewBox="0 0 20 20" fill="none" xmlns="http://www.w3.org/2000/svg">
<g id="Group">
<g id="Vector">
</g>
<path id="Vector_2" d="M16.1576 12.1191C16.3719 12.1191 16.5774 12.2042 16.7289 12.3557C16.8804 12.5072 16.9655 12.7127 16.9655 12.927V16.1588C16.9655 16.5873 16.7953 16.9983 16.4922 17.3014C16.1892 17.6044 15.7782 17.7746 15.3496 17.7746H4.03849C3.60993 17.7746 3.19892 17.6044 2.89589 17.3014C2.59285 16.9983 2.42261 16.5873 2.42261 16.1588V12.927C2.42261 12.7127 2.50773 12.5072 2.65925 12.3557C2.81077 12.2042 3.01627 12.1191 3.23055 12.1191C3.44483 12.1191 3.65033 12.2042 3.80185 12.3557C3.95337 12.5072 4.03849 12.7127 4.03849 12.927V16.1588H15.3496V12.927C15.3496 12.7127 15.4348 12.5072 15.5863 12.3557C15.7378 12.2042 15.9433 12.1191 16.1576 12.1191ZM9.69407 1.61585C9.90834 1.61585 10.1138 1.70097 10.2654 1.85249C10.4169 2.00401 10.502 2.20951 10.502 2.42379V10.6995L12.5509 8.65058C12.6255 8.57342 12.7146 8.51187 12.8132 8.46952C12.9118 8.42718 13.0178 8.40489 13.1251 8.40396C13.2323 8.40303 13.3387 8.42347 13.438 8.46409C13.5373 8.50472 13.6275 8.56471 13.7034 8.64057C13.7792 8.71643 13.8392 8.80664 13.8799 8.90593C13.9205 9.00522 13.9409 9.11161 13.94 9.21889C13.9391 9.32617 13.9168 9.43218 13.8744 9.53076C13.8321 9.62933 13.7705 9.71848 13.6934 9.79301L10.4083 13.0781C10.3145 13.1719 10.2032 13.2463 10.0806 13.2971C9.95806 13.3479 9.82671 13.374 9.69407 13.374C9.56142 13.374 9.43007 13.3479 9.30752 13.2971C9.18498 13.2463 9.07363 13.1719 8.97985 13.0781L5.69476 9.79301C5.6176 9.71848 5.55605 9.62933 5.5137 9.53076C5.47136 9.43218 5.44907 9.32617 5.44814 9.21889C5.44721 9.11161 5.46765 9.00522 5.50827 8.90593C5.5489 8.80664 5.60889 8.71643 5.68475 8.64057C5.76061 8.56471 5.85082 8.50472 5.95011 8.46409C6.0494 8.42347 6.15579 8.40303 6.26307 8.40396C6.37035 8.40489 6.47637 8.42718 6.57494 8.46952C6.67351 8.51187 6.76266 8.57342 6.83719 8.65058L8.88613 10.6995V2.42379C8.88613 2.20951 8.97125 2.00401 9.12277 1.85249C9.27428 1.70097 9.47979 1.61585 9.69407 1.61585Z" fill="var(--fill-0, #5B7DDF)"/>
</g>
</svg>
