<svg width="49" height="61" viewBox="0 0 49 61" fill="none" xmlns="http://www.w3.org/2000/svg">
<path d="M21.4026 44.6926H16.7427C16.3286 44.6926 15.9719 44.5328 15.6552 44.203L15.5926 44.1405C15.2672 43.8071 15.0897 43.3679 15.0897 42.9044V39.3627C15.0897 38.4686 14.3589 37.7412 13.4645 37.7412H9.91476C9.45189 37.7412 9.00995 37.5641 8.67234 37.2394L8.6184 37.1856C8.61318 37.1804 8.61318 37.1804 8.6097 37.1769C8.28083 36.861 8.11899 36.5051 8.11899 36.0919V11.6163H33.8386V20.5936C33.8386 20.9009 34.0875 21.1544 34.4007 21.1544C34.7121 21.1544 34.9627 20.9061 34.9627 20.5936V11.0608C34.9627 10.9149 34.9053 10.7726 34.7974 10.6649C34.6913 10.559 34.5486 10.5 34.4007 10.5H7.56203C7.25404 10.5 7 10.7483 7 11.0608V36.0919C7 36.8037 7.28537 37.4512 7.82828 37.9756L14.8495 44.9809C15.375 45.5226 16.0258 45.8073 16.7375 45.8073H21.3921C21.7 45.8073 21.9541 45.559 21.9541 45.2465C21.9541 44.9375 21.7106 44.6926 21.4026 44.6926ZM13.4646 38.8521C13.7448 38.8521 13.9727 39.0795 13.9727 39.359V42.524L10.2925 38.8521H13.4646ZM29.8489 14.9179H12.1194C11.8114 14.9179 11.5573 15.1662 11.5573 15.4786V18.4214C11.5573 18.7286 11.8062 18.9821 12.1194 18.9821H29.8489C30.1569 18.9821 30.4109 18.7338 30.4109 18.4214V15.4786C30.4092 15.1679 30.1604 14.9179 29.8489 14.9179ZM29.2921 17.8606H12.6797V16.0342H29.2903L29.2921 17.8606ZM25.7006 22.1193C22.4711 22.1193 19.8438 24.7408 19.8438 27.9628C19.8438 31.1849 22.4712 33.8064 25.7006 33.8064C28.93 33.8064 31.5574 31.1849 31.5574 27.9628C31.5592 24.7406 28.93 22.1193 25.7006 22.1193ZM25.7006 32.6922C23.0853 32.6922 20.9605 30.5724 20.9605 27.9628C20.9605 25.3534 23.0851 23.2335 25.7006 23.2335C28.3161 23.2335 30.4407 25.3533 30.4407 27.9628C30.4407 30.5722 28.3161 32.6922 25.7006 32.6922ZM27.8478 29.3623C27.7765 29.8727 27.4476 30.3171 26.9743 30.5533C26.7603 30.6592 26.515 30.7304 26.2609 30.7703V31.1922C26.2609 31.4994 26.0121 31.7529 25.6989 31.7529C25.3909 31.7529 25.1368 31.5046 25.1368 31.1922V30.7477C24.4861 30.6227 23.8892 30.2946 23.6039 29.7703C23.4577 29.4995 23.5551 29.1609 23.8266 29.0151C24.098 28.8693 24.4373 28.9665 24.5835 29.2373C24.8149 29.6592 25.8938 29.8415 26.4715 29.5568C26.6176 29.4856 26.7168 29.3571 26.7342 29.2095C26.7429 29.1384 26.7429 29.0047 26.6281 28.8988C26.5341 28.8102 26.334 28.6818 25.9286 28.5706C25.812 28.5394 25.6832 28.5081 25.5458 28.4769C25.0916 28.371 24.5696 28.246 24.1833 27.9474C23.8179 27.6627 23.5952 27.2755 23.5691 26.8589C23.5377 26.4491 23.6891 26.0498 23.9919 25.7391C24.2633 25.4596 24.6688 25.2634 25.1316 25.1749L25.1351 24.7321C25.1351 24.4249 25.3839 24.1714 25.6971 24.1714C26.0051 24.1714 26.2592 24.4197 26.2592 24.7321V25.1714C26.9221 25.2964 27.4442 25.6332 27.6982 26.1054C27.8444 26.3763 27.7434 26.7148 27.4703 26.8606C27.1988 27.0065 26.8595 26.9058 26.7133 26.6332C26.6159 26.4457 26.3218 26.3051 25.9564 26.2512C25.4936 26.1887 25.0081 26.2964 24.808 26.5047C24.728 26.5898 24.6879 26.6818 24.6914 26.7721C24.7001 26.8971 24.7976 26.9995 24.8793 27.0603C25.076 27.2113 25.4675 27.3051 25.8103 27.3849C25.9529 27.4196 26.0991 27.4509 26.2383 27.4908C26.7325 27.6332 27.1205 27.8294 27.3867 28.0724C27.7504 28.4023 27.9191 28.8745 27.8478 29.3623ZM35.5457 34.1192C32.3162 34.1192 29.6889 36.7407 29.6889 39.9627C29.6889 43.1848 32.3164 45.8063 35.5457 45.8063C38.7751 45.8063 41.4026 43.1848 41.4026 39.9627C41.4026 36.7407 38.7751 34.1192 35.5457 34.1192ZM35.5457 44.6921C32.9304 44.6921 30.8056 42.5723 30.8056 39.9627C30.8056 37.3534 32.9302 35.2334 35.5457 35.2334C38.161 35.2334 40.2858 37.3532 40.2858 39.9627C40.2858 42.5721 38.1612 44.6921 35.5457 44.6921ZM38.3524 42.0028C38.57 42.2198 38.5665 42.5758 38.3472 42.7945C37.719 43.4125 36.9047 43.7546 36.0573 43.7546C34.6444 43.7546 33.4246 42.8084 32.8991 41.4664H32.2971C31.9891 41.4664 31.735 41.2181 31.735 40.9056C31.735 40.5949 31.9839 40.3449 32.2971 40.3449H32.6312C32.6172 40.2199 32.6138 40.0914 32.6138 39.9629C32.6138 39.8344 32.619 39.706 32.6312 39.581H32.2971C31.9891 39.581 31.735 39.3327 31.735 39.0202C31.735 38.7095 31.9839 38.4595 32.2971 38.4595H32.8991C33.4299 37.1123 34.6462 36.1713 36.0573 36.1713C36.903 36.1713 37.7139 36.5133 38.3472 37.1314C38.5647 37.3484 38.57 37.7008 38.3524 37.923C38.1349 38.14 37.7817 38.1452 37.559 37.9282C37.1397 37.515 36.6055 37.2876 36.0539 37.2876C35.2569 37.2876 34.5522 37.7546 34.1346 38.4612H35.9477C36.2557 38.4612 36.5097 38.7095 36.5097 39.022C36.5097 39.3327 36.2609 39.5827 35.9477 39.5827H33.7552C33.7413 39.7042 33.7326 39.8345 33.7326 39.9629C33.7326 40.0914 33.7413 40.2199 33.7552 40.3449H35.9477C36.2557 40.3449 36.5097 40.5931 36.5097 40.9056C36.5097 41.2164 36.2609 41.4664 35.9477 41.4664L34.1328 41.4647C34.5522 42.1712 35.2552 42.6383 36.0521 42.6383C36.6037 42.6383 37.1344 42.4108 37.5573 41.9976C37.7817 41.7806 38.1332 41.7858 38.3524 42.0028ZM42.6156 30.0028C42.539 29.732 42.3215 29.5271 42.0501 29.4646L41.3506 29.3136C41.4967 27.3483 40.611 25.3397 38.918 23.8465C36.7621 21.9437 33.7815 21.317 30.9399 22.1712C30.6824 22.2476 30.5171 22.4993 30.5432 22.7666C30.5745 23.034 30.792 23.2423 31.06 23.2597C34.5523 23.4993 36.3426 25.2597 37.0999 26.2857C37.7281 27.1399 38.0221 27.9785 38.0674 28.6017L37.5767 28.4958C37.3052 28.4385 37.0199 28.5305 36.8424 28.7441C36.6597 28.9576 36.6144 29.251 36.7171 29.508L38.2188 33.2371C38.3127 33.4732 38.5076 33.6364 38.753 33.6902C38.8104 33.7041 38.8643 33.7076 38.9218 33.7076C39.1097 33.7076 39.2906 33.6364 39.4333 33.5027L42.4001 30.7388C42.6072 30.5583 42.6904 30.2736 42.6156 30.0028ZM39.0606 32.3362L38.0131 29.7354L38.4638 29.8327C38.7631 29.8952 39.0554 29.7129 39.1267 29.4143C39.3808 28.3604 38.9493 26.9073 38.0044 25.6278C37.4528 24.8813 36.4314 23.7962 34.761 23.0324C36.0173 23.2598 37.1971 23.8188 38.1785 24.6816C39.7323 26.0549 40.4858 27.9125 40.183 29.6554C40.1343 29.9488 40.3257 30.2336 40.6145 30.296L41.1314 30.4072L39.0606 32.3362ZM29.772 44.3415C26.2797 44.1019 24.4894 42.3415 23.7321 41.3154C23.1039 40.4613 22.8099 39.6227 22.7646 38.9995L23.2553 39.1054C23.5268 39.1627 23.8121 39.0707 23.9896 38.8571C24.1723 38.6436 24.2176 38.3502 24.1149 38.0932L22.6132 34.3641C22.5193 34.128 22.3244 33.9648 22.079 33.911C21.8337 33.8571 21.5849 33.9248 21.4022 34.0932L18.4354 36.8536C18.2213 37.0429 18.1413 37.3311 18.2178 37.6036C18.2944 37.8745 18.5119 38.0793 18.7833 38.1418L19.4828 38.2929C19.3367 40.2582 20.2224 42.2668 21.9154 43.76C23.4397 45.102 25.3677 45.8086 27.3722 45.8086C28.2092 45.8086 29.0566 45.6836 29.8936 45.4353C30.1511 45.3589 30.3164 45.1072 30.2903 44.8399C30.2573 44.5673 30.04 44.3589 29.772 44.3415ZM22.6586 42.9179C21.1047 41.5446 20.3512 39.687 20.654 37.9441C20.7027 37.6507 20.5113 37.366 20.2225 37.3035L19.7057 37.1924L21.7728 35.2688L22.8204 37.8695L22.3697 37.7723C22.0704 37.7063 21.7781 37.8921 21.7067 38.1907C21.4527 39.2445 21.8842 40.6976 22.829 41.9771C23.3807 42.7236 24.402 43.8087 26.0725 44.5726C24.8144 44.3417 23.6382 43.786 22.6586 42.9179ZM34.4056 33.265C34.0976 33.265 33.8436 33.0167 33.8436 32.7042V25.6469C33.8436 25.3396 34.0924 25.0862 34.4056 25.0862C34.7171 25.0862 34.9677 25.3344 34.9677 25.6469V32.7042C34.9624 33.0167 34.7119 33.265 34.4056 33.265Z" fill="white"/>
</svg>
