<svg width="119" height="147" viewBox="0 0 119 147" fill="none" xmlns="http://www.w3.org/2000/svg">
<path fill-rule="evenodd" clip-rule="evenodd" d="M63.8351 52.5644C63.862 52.5047 63.9003 52.4489 63.9483 52.4046C64.4681 51.6553 64.8651 50.8868 64.8651 50.2915C64.8651 48.6293 63.5225 47.2809 61.8671 47.2809C60.2118 47.2809 58.8691 48.6273 58.8691 50.2915C58.8691 51.0196 59.4637 52.0078 60.1485 52.9015C60.1945 52.9419 60.2329 52.9901 60.2598 53.046C60.8524 53.801 61.4912 54.4771 61.8652 54.8546C62.3179 54.3981 63.158 53.5063 63.8351 52.5644ZM65.0934 52.3121C66.2193 52.3814 67.3184 52.5567 68.3791 52.8302C68.4002 52.8341 68.4232 52.8399 68.4443 52.8476C70.9436 53.5005 73.228 54.689 75.167 56.2858C77.3038 56.3956 79.243 56.7384 80.9023 57.299L83.7124 56.9099C84.0749 56.8579 84.353 57.2238 84.211 57.559L83.743 58.6569C87.0518 60.8508 87.8746 64.3374 86.0505 68.1007C85.0799 70.1039 83.3939 72.138 81.1497 74.0485C80.3863 77.296 78.7329 80.1969 76.46 82.4794C73.2721 85.6807 68.8661 87.6609 64.002 87.6609C59.763 87.6609 55.8749 86.1566 52.8349 83.6526C51.7147 83.5948 50.6482 83.4734 49.647 83.2904C48.6342 83.1036 47.6905 82.8551 46.8293 82.547L43.9905 82.7916V82.7896C43.6338 82.8185 43.371 82.4449 43.5321 82.1155L44.0193 81.1178C42.7744 80.2356 41.8116 79.0953 41.3282 77.6565C40.254 74.4609 41.8729 70.7206 45.36 67.257C45.8242 66.7948 46.3229 66.3382 46.8542 65.8876C47.4469 63.3739 48.5728 61.0664 50.1054 59.0922C52.3822 56.1644 55.5146 54.0187 59.0668 52.9802C58.4338 52.0653 57.9274 51.0869 57.9274 50.2913C57.9274 48.109 59.6901 46.3389 61.8634 46.3389C64.0366 46.3389 65.7993 48.109 65.7993 50.2913C65.8031 50.8942 65.5115 51.6052 65.0934 52.3121ZM59.8398 53.9975C60.7049 55.0569 61.5373 55.8505 61.545 55.8562C61.7253 56.0277 62.0092 56.0296 62.1914 55.8562C62.1972 55.8505 63.4612 54.6466 64.4931 53.2232C65.5539 53.254 66.5915 53.3831 67.5947 53.6046C66.8582 54.7583 66.6836 55.8698 66.7431 56.906C65.176 57.1949 63.5686 57.5802 61.944 58.0637C61.5642 57.8614 61.171 57.7169 60.8008 57.5802C59.6615 57.1622 58.7715 56.8348 59.836 54.0187C59.8341 54.0129 59.8379 54.0052 59.8398 53.9975ZM61.8653 51.2527H61.8557V51.2547C61.0098 51.2547 60.1889 50.6884 60.2023 49.8774H60.2004C60.2004 49.186 60.7701 48.687 61.4261 48.5407L61.428 48.3866C61.4357 47.7683 62.3698 47.7798 62.3621 48.3982L62.3602 48.5542C62.9835 48.716 63.5225 49.2052 63.5283 49.8698C63.534 50.4881 62.598 50.4958 62.5942 49.8775C62.5904 49.5173 61.7809 49.2418 61.3014 49.6059C61.1978 49.6849 61.1384 49.7792 61.1384 49.8775H61.1364C61.1403 50.1394 61.5373 50.3128 61.8557 50.3128V50.3147H61.8749L61.8768 50.3109C62.7208 50.3109 63.5436 50.8771 63.5302 51.6881H63.5321C63.5321 52.3795 62.9624 52.8785 62.3065 53.0248L62.3046 53.1789C62.2969 53.7972 61.3628 53.7857 61.3705 53.1673L61.3724 53.0113C60.749 52.8495 60.21 52.3603 60.2043 51.6957C60.1985 51.0775 61.1345 51.0698 61.1384 51.688C61.1422 52.0482 61.9516 52.3237 62.4311 51.9596C62.5347 51.8807 62.5942 51.7863 62.5942 51.688H62.5961C62.5923 51.4261 62.1952 51.2527 61.8768 51.2527V51.2508L61.8653 51.2527ZM60.5591 71.1867C58.3859 71.1867 56.6232 72.9568 56.6232 75.1391C56.6232 75.6496 56.8322 76.2371 57.1487 76.8342C55.4608 77.1462 54.5209 77.6759 54.1219 78.2614C52.9768 79.9449 55.7389 81.8518 58.4626 81.3876C59.6269 82.4624 61.2879 83.6104 62.7073 83.2617C63.9694 82.9516 64.4604 81.638 64.5947 80.3051C64.7098 79.1744 64.3972 78.1497 63.6222 77.4274C64.1248 76.6338 64.495 75.8191 64.495 75.1372C64.4969 72.9568 62.7342 71.1867 60.5591 71.1867ZM63.0814 78.2133C62.0705 79.5732 60.889 80.7 60.8832 80.7058C60.701 80.8791 60.4171 80.8772 60.2368 80.7058C60.2311 80.7 58.7369 79.2785 57.6723 77.699C55.8961 77.9706 53.9109 78.6737 55.244 79.7619C55.9518 80.3417 57.2542 80.7019 58.4932 80.4246C58.6448 80.386 58.8097 80.4246 58.9306 80.5401C59.9529 81.5167 62.3083 83.3986 63.2578 81.7112C63.4573 81.3568 63.5973 80.8599 63.6625 80.2107C63.7431 79.4326 63.5686 78.7315 63.0814 78.2133ZM62.6786 73.0106C61.5085 71.8357 59.6096 71.8357 58.4396 73.0106C57.8967 73.5558 57.5611 74.3089 57.5611 75.139C57.5611 75.6302 57.8315 76.2389 58.217 76.8572C58.265 76.9054 58.3034 76.9631 58.3283 77.0306C59.0341 78.1073 60.0469 79.184 60.5591 79.7021C61.3244 78.9259 63.5571 76.549 63.5571 75.1372C63.5571 74.3089 63.2214 73.5558 62.6786 73.0106ZM60.5591 76.1002H60.5687V76.1021C60.8871 76.1021 61.2841 76.2755 61.2879 76.5374H61.286C61.286 76.6376 61.2266 76.73 61.123 76.809C60.6435 77.1731 59.834 76.8995 59.8302 76.5374C59.8244 75.9191 58.8903 75.9268 58.8961 76.5451C58.9018 77.2097 59.4408 77.6989 60.0642 77.8607L60.0623 78.0167C60.0546 78.635 60.9906 78.6466 60.9964 78.0283L60.9983 77.8742C61.6562 77.7259 62.224 77.2289 62.224 76.5375H62.2221C62.2336 75.7266 61.4126 75.1602 60.5686 75.1602V75.1622H60.5495V75.1602C60.2311 75.1602 59.834 74.9869 59.8302 74.7249H59.8321C59.8321 74.6248 59.8916 74.5323 59.9952 74.4534C60.4747 74.0893 61.2841 74.3628 61.2879 74.7249C61.2937 75.3432 62.2278 75.3355 62.222 74.7172C62.2163 74.0527 61.6773 73.5635 61.0539 73.4016L61.0558 73.2456C61.0635 72.6273 60.1294 72.6158 60.1217 73.2341L60.1198 73.3882C59.4619 73.5365 58.8942 74.0334 58.8942 74.7249H58.8961C58.8846 75.5358 59.7055 76.1021 60.5495 76.1021V76.1002H60.5591ZM73.6711 67.8236C73.8035 67.8236 73.9339 67.8293 74.0624 67.8428C75.4531 66.2672 78.1077 65.5603 80.1277 65.674C79.3758 62.8155 77.8912 60.2578 75.8868 58.2139C75.5434 57.8633 75.1828 57.5263 74.8088 57.2065C73.7654 57.1641 72.672 57.1776 71.5404 57.2489C70.3262 57.3259 69.0679 57.4685 67.779 57.6784C67.8576 58.1407 67.9708 58.5837 68.0782 58.9998C68.3832 60.1902 68.6402 61.1956 68.0629 62.0258C67.194 63.2739 66.0259 63.5782 64.8059 62.7192C63.9255 62.1009 63.1717 60.9721 62.721 60.1053C62.4812 59.645 62.1628 59.3233 61.8098 59.0845C59.5638 59.774 57.3618 60.6331 55.3228 61.6097C55.5779 62.5978 56.3586 62.7172 57.2179 62.8482C58.5932 63.0582 60.1142 63.2893 60.7587 65.6739C60.8488 66.0129 62.1455 67.2784 62.2836 68.411C62.3872 69.2604 61.9613 69.9596 60.3693 70.1561C59.7536 70.2312 59.6577 70.2736 59.3681 70.4277C58.9634 70.6415 58.5913 70.838 56.9609 70.7532C54.8836 70.6453 55.6086 73.3092 55.085 74.7654C54.7551 75.6842 54.0761 76.158 52.4745 75.5782C52.461 75.5744 52.4476 75.5686 52.4361 75.5628V75.5647C51.2354 75.0062 49.4669 75.5705 48.6613 73.6752C48.5155 73.3304 47.9708 73.2091 47.6312 73.1821C49.1389 80.9597 55.9538 86.7132 64.0023 86.7132C66.3558 86.7132 68.5962 86.2239 70.6273 85.3398C69.2271 84.1302 65.5309 82.9822 67.7118 79.9078C68.2393 79.1643 66.1562 76.7797 65.7841 75.2041C65.5424 74.1871 65.8206 73.3801 67.2419 73.0391C68.3505 72.7733 69.2022 72.6501 69.8735 72.5692C69.7853 72.2899 69.7354 72.0221 69.7354 71.7717C69.7354 69.5932 71.4962 67.8231 73.6714 67.8231L73.6711 67.8236ZM75.1289 68.1048C76.602 68.6961 77.6052 70.135 77.6052 71.778C77.6052 73.9025 74.0011 77.3332 73.9915 77.3426C73.8093 77.5159 73.5254 77.514 73.3451 77.3426C73.3374 77.3349 71.2601 75.3586 70.2589 73.4768C69.5741 73.5557 68.6783 73.6694 67.4527 73.9622C66.7276 74.1355 66.5781 74.5188 66.6912 74.9926C67.0633 76.5644 69.4897 79.0203 68.4693 80.4571C66.8312 82.7685 70.2761 83.5236 71.5268 84.9181C78.1425 81.5512 81.8517 74.1316 80.3462 66.6371C78.7254 66.4637 76.4467 66.9702 75.1289 68.1048ZM75.7907 69.6476C74.6207 68.4727 72.7217 68.4727 71.5517 69.6476C71.0089 70.1927 70.6732 70.9459 70.6732 71.776C70.6732 72.0495 70.7576 72.3597 70.8995 72.6891C70.9379 72.7411 70.9667 72.8027 70.982 72.8682C71.6092 74.1703 73.0325 75.692 73.6712 76.3391C74.5056 75.4936 76.6692 73.1648 76.6692 71.7741C76.6692 70.9459 76.3335 70.1927 75.7907 69.6476ZM73.6712 72.7372H73.6808V72.7391C73.9992 72.7391 74.3962 72.9125 74.4001 73.1744H74.3981C74.3981 73.2746 74.3387 73.367 74.2351 73.446C73.7556 73.81 72.9461 73.5365 72.9423 73.1744C72.9366 72.5561 72.0024 72.5638 72.0082 73.1821C72.014 73.8467 72.553 74.3359 73.1763 74.4977L73.1744 74.6537C73.1667 75.272 74.1028 75.2836 74.1085 74.6653L74.1104 74.5112C74.7683 74.3629 75.3361 73.8659 75.3361 73.1744H75.3342C75.3457 72.3636 74.5248 71.7972 73.6808 71.7972V71.7992H73.6616V71.7972C73.3432 71.7972 72.9461 71.6239 72.9423 71.3619H72.9442C72.9442 71.2618 73.0037 71.1693 73.1073 71.0903C73.5868 70.7263 74.3962 71.0017 74.4001 71.3619C74.4058 71.9802 75.34 71.9725 75.3342 71.3542C75.3284 70.6897 74.7894 70.2005 74.166 70.0386L74.168 69.8826C74.1756 69.2643 73.2396 69.2528 73.2339 69.871L73.2319 70.0251C72.5741 70.1735 72.0063 70.6704 72.0063 71.3619H72.0082C71.9967 72.1728 72.8176 72.7391 73.6616 72.7391V72.7372L73.6712 72.7372ZM47.1996 81.6785C48.6055 82.1793 50.1439 82.4759 51.6917 82.6262C47.7385 78.7507 45.734 73.1494 46.5683 67.4018C46.3822 67.5752 46.1981 67.7505 46.0216 67.9277C42.7896 71.1366 41.2667 74.5342 42.2161 77.3581C42.617 78.5485 43.4168 79.5097 44.4392 80.2609L44.8612 79.3979C45.03 79.0204 45.498 79.0243 45.6879 79.3228L47.1996 81.6785ZM45.0532 81.1334L44.7367 81.7806L46.0756 81.665L45.3486 80.5305L45.0532 81.1334ZM80.5648 58.1753C79.3065 57.7534 77.8737 57.4626 76.3085 57.3104C80.2655 61.1917 82.2662 66.7892 81.4354 72.5368C84.1859 69.9731 86.9767 66.1206 85.7876 62.5787C85.3598 61.3094 84.4833 60.3077 83.3688 59.5353L83.014 60.3674C82.8739 60.6968 82.4194 60.7585 82.2045 60.458L80.5648 58.1753ZM82.715 58.6761L83.0238 57.9538L81.6926 58.1387L82.4772 59.2347L82.715 58.6761ZM62.8973 58.7666C63.1371 59.0112 63.3577 59.3079 63.5476 59.6738C63.9561 60.4577 65.3832 62.798 66.6069 62.1566C66.8314 62.0391 67.0615 61.8253 67.2955 61.4902C67.6273 61.0144 67.4183 60.1977 67.1708 59.2327C67.0577 58.7936 66.9387 58.3274 66.8524 57.8401C65.5596 58.0828 64.2362 58.3891 62.8973 58.7666ZM54.4349 62.0487C51.8569 63.3566 49.5821 64.8378 47.7003 66.4038C47.4529 67.5518 47.3225 68.7441 47.3225 69.9672C47.3225 70.7377 47.3743 71.4966 47.474 72.2382C48.2374 72.2516 49.183 72.5097 49.5206 73.3091C49.862 74.1123 50.5813 74.2202 51.3351 74.3319C51.8242 74.4051 52.3268 74.4802 52.8159 74.7056C53.7116 75.0234 54.0608 74.8423 54.2008 74.4494C54.6995 73.0606 53.7845 69.6475 57.005 69.8131C59.4161 69.9383 58.4014 69.4279 60.2255 69.2237C61.1059 69.114 61.3879 68.852 61.3476 68.5226C61.244 67.6712 60.0145 66.5329 59.8476 65.9146C59.3643 64.1252 58.1616 63.9441 57.0741 63.7785C55.8906 63.6032 54.8089 63.4375 54.4349 62.0487ZM48.1049 64.8802C49.9003 63.5107 51.9852 62.2183 54.3003 61.0645C54.2984 60.9874 54.2965 60.9065 54.2965 60.8237C54.2965 58.6606 54.5823 57.7707 54.8757 56.8596C54.9851 56.5168 55.0963 56.172 55.1922 55.7406C51.8375 57.8401 49.3099 61.0799 48.1049 64.8802ZM55.2362 60.6138C55.265 57.4722 55.9363 57.4491 56.2509 55.132C57.0719 54.6986 57.9331 54.3327 58.8269 54.0399C57.6396 57.4242 58.8921 57.8826 60.4784 58.4662L60.5647 58.4971C58.7099 59.1096 56.9129 59.826 55.2362 60.6138ZM67.679 56.7441C69.6489 56.4244 71.6303 56.2472 73.5675 56.2452C72.0599 55.1839 70.3719 54.3672 68.5555 53.8491C68.5478 53.8626 68.5382 53.876 68.5287 53.8895C67.8401 54.8623 67.6502 55.8292 67.679 56.7441Z" fill="white"/>
</svg>
