<svg width="737" height="795" viewBox="0 0 737 795" fill="none" xmlns="http://www.w3.org/2000/svg">
<path d="M210.659 631.141C209.981 635.453 221.177 643.574 225.842 646.482C231.556 650.05 233.684 649.669 239.603 652.987C242.967 654.845 247.176 657.716 257.787 669.433C267.079 679.654 278.35 693.165 278.35 693.165C280.859 696.166 283.925 699.948 289.417 702.252C295.187 704.696 296.627 702.55 301.19 704.315C311.411 708.292 309.385 721.245 320.703 726.69C324.04 728.161 327.649 728.915 331.296 728.901C341.108 729.301 345.586 725.185 350.437 727.796C353.912 729.654 353.587 732.869 356.012 736.651C361.903 745.72 375.321 745.172 390.392 747.327C402.602 749.074 410.992 752.652 428.349 758.004C446.106 763.486 454.134 769.033 473.108 773.503C478.171 774.751 483.307 775.682 488.486 776.29C499.386 777.526 502.424 775.918 516.362 776.411C527.15 776.792 532.641 777.024 537.603 779.375C542.974 781.921 547.23 785.777 553.26 791.241C557.042 794.669 559.969 797.745 561.92 799.808C564.726 800.434 567.586 800.789 570.459 800.867C575.682 801.016 576.797 800.152 577.178 799.808C579.222 797.949 578.59 794.465 578.441 792.189C578.116 787.143 580.439 782.609 585.085 773.521C589.108 765.66 595.594 760.726 612.961 746.956C612.961 746.956 656.112 712.65 666.538 713.161C666.538 713.161 666.696 713.161 666.733 713.105C667.132 712.436 657.199 706.294 649.255 700.617C634.992 690.396 627.883 685.304 623.711 677.043C620.533 670.716 621.741 668.578 616.752 658.701C614.424 653.861 611.56 649.298 608.212 645.098C602.87 638.51 601.048 638.993 592.416 630.547C586.609 624.879 586.925 624.163 577.865 614.751C576.639 613.468 572.522 609.175 567.588 604.474C554.58 592.032 548.131 585.816 540.856 582.489C533.868 579.293 532.01 580.779 515.87 578.689C489.732 575.306 492.212 571.097 475.376 570.149C453.939 568.951 441.813 575.334 431.09 571.079C427.192 569.471 422.938 568.926 418.76 569.499C416.093 569.908 413.789 570.224 412.432 572.026C409.942 575.334 413.25 579.804 412.748 587.683C412.389 590.925 411.605 594.105 410.416 597.142C403.679 615.373 213.316 614.314 210.659 631.141Z" fill="black" stroke="black" stroke-width="0.929189" stroke-miterlimit="10"/>
<path d="M457.387 591.447C457.247 594.234 457.387 600.098 461.345 604.734C461.877 605.359 462.458 605.94 463.082 606.472" stroke="#FADE2A" stroke-width="0.929189" stroke-miterlimit="10"/>
<path d="M301.757 703.581L294.797 692.199L291.954 659.612" stroke="#FADE2A" stroke-width="0.929189" stroke-miterlimit="10"/>
<path d="M324.652 676.737C324.652 676.737 326.789 690.015 325.841 693.462" stroke="#FADE2A" stroke-width="0.929189" stroke-miterlimit="10"/>
<path d="M333.786 690.489C337.577 696.993 337.502 697.727 337.502 697.727" stroke="#FADE2A" stroke-width="0.929189" stroke-miterlimit="10"/>
<path d="M348.374 681.596C348.374 681.596 340.309 703.302 343.152 711.256C345.995 719.21 352.648 732.627 352.648 732.627" stroke="#FADE2A" stroke-width="0.929189" stroke-miterlimit="10"/>
<path d="M377.671 691.557C377.671 691.557 378.601 702.475 376.25 708.171C373.899 713.866 369.848 714.573 369.848 714.573" stroke="#FADE2A" stroke-width="0.929189" stroke-miterlimit="10"/>
<path d="M377.857 710.541L389.769 713.384L411.596 714.573" stroke="#FADE2A" stroke-width="0.929189" stroke-miterlimit="10"/>
<path d="M417.534 706.034C417.534 706.034 420.619 720.269 422.04 722.88" stroke="#FADE2A" stroke-width="0.929189" stroke-miterlimit="10"/>
<path d="M389.063 718.848L390.011 725.482" stroke="#FADE2A" stroke-width="0.929189" stroke-miterlimit="10"/>
<path d="M502.703 611.136C502.461 621.357 504.125 620.623 504.125 620.623" stroke="#FADE2A" stroke-width="0.929189" stroke-miterlimit="10"/>
<path d="M665.209 711.804C665.209 711.804 667.067 708.645 688.299 719.711C709.531 730.778 737.964 747.587 737.964 747.587" stroke="black" stroke-width="0.929189" stroke-miterlimit="10"/>
<path d="M398.532 699.353C405.227 702.037 412.326 703.58 419.531 703.916C426.374 704.169 433.215 703.369 439.816 701.546C453.261 698.015 489.406 684.821 536.962 664.983L547.063 660.764C548.484 659.835 546.524 660.95 547.945 659.984C547.685 654.994 548.568 650.413 548.308 645.432C465.21 618.635 384.362 589.319 301.264 562.521C291.687 557.428 280.589 555.978 270.025 558.442C267.73 558.981 266.066 559.547 265.676 559.678C261.179 561.192 231.752 569.22 149.091 591.075C149.37 596.511 149.016 602.885 149.686 604.548C152.241 610.932 180.655 619.415 188.386 622.416C294.137 663.189 383.981 693.722 398.532 699.353Z" fill="#4C61A2" stroke="#231F20" stroke-width="0.232297" stroke-miterlimit="10"/>
<path d="M399.024 685.099C412.16 690.396 426.685 691.167 440.308 687.292L542.788 648.499C550.045 646.008 545.725 645.061 545.037 644.717C539.031 641.624 532.608 639.418 525.97 638.166C484.008 622.639 458.26 608.06 418.407 591.446C384.798 577.434 337.122 561.368 301.757 548.267C296.336 545.38 290.38 543.638 284.258 543.149C278.136 542.66 271.979 543.434 266.169 545.424L159.414 583.381C155.539 584.803 149.044 587.051 149.091 590.526C149.147 594.327 156.989 597.031 159.73 597.96C175.294 603.451 269.161 638.027 399.024 685.099Z" fill="#6581D8" stroke="#231F20" stroke-width="0.232297" stroke-miterlimit="10"/>
<path d="M210.987 620.265L195.224 614.674C193.744 614.149 192.118 614.923 191.593 616.403L191.273 617.305C190.748 618.785 191.523 620.41 193.003 620.935L208.766 626.526C210.246 627.051 211.871 626.277 212.396 624.797L212.716 623.895C213.241 622.415 212.467 620.79 210.987 620.265Z" stroke="#FFD61F" stroke-width="0.929189" stroke-miterlimit="10"/>
<path d="M235.004 628.79L219.241 623.199C217.761 622.674 216.135 623.448 215.61 624.928L215.29 625.83C214.765 627.31 215.54 628.935 217.02 629.46L232.783 635.051C234.263 635.576 235.888 634.802 236.413 633.322L236.733 632.42C237.258 630.94 236.484 629.315 235.004 628.79Z" stroke="#FFD61F" stroke-width="0.929189" stroke-miterlimit="10"/>
<path d="M423.536 689.727V703.07" stroke="#FFD61F" stroke-width="0.929189" stroke-miterlimit="10"/>
<path d="M427.253 689.652C427.253 689.652 436.424 689.216 449.553 683.798C455.129 681.522 548.977 645.451 548.977 645.451L548.159 659.389C548.142 659.71 548.033 660.021 547.843 660.281C547.653 660.542 547.392 660.742 547.09 660.857C536.247 665.057 457.024 699.799 434.705 702.772C427.792 703.655 427.253 689.652 427.253 689.652Z" fill="#FADE2A" stroke="#231F20" stroke-width="0.232297" stroke-miterlimit="10"/>
<path d="M214.162 617.789L399.071 685.099C399.071 685.099 419.085 692.728 435.941 688.379C450.232 684.662 548.986 645.451 548.986 645.451C548.986 645.451 537.668 642.579 514.021 632.721C482.428 619.563 418.453 591.446 418.453 591.446C418.453 591.446 309.534 578.177 214.162 617.789Z" fill="#FADE2A" stroke="#231F20" stroke-width="0.232297" stroke-miterlimit="10"/>
<path d="M347.073 632.721C370.259 632.721 389.054 625.162 389.054 615.838C389.054 606.514 370.259 598.955 347.073 598.955C323.888 598.955 305.092 606.514 305.092 615.838C305.092 625.162 323.888 632.721 347.073 632.721Z" stroke="black" stroke-width="0.929189" stroke-miterlimit="10"/>
<path d="M457.359 415.886L389.063 615.838" stroke="black" stroke-width="0.929189" stroke-miterlimit="10"/>
<path d="M255.26 466.962L305.092 615.837" stroke="black" stroke-width="0.929189" stroke-miterlimit="10"/>
<path d="M198.933 594.262C199.63 594.262 200.196 593.696 200.196 592.998C200.196 592.3 199.63 591.734 198.933 591.734C198.235 591.734 197.669 592.3 197.669 592.998C197.669 593.696 198.235 594.262 198.933 594.262Z" fill="white"/>
<path d="M204.238 598.713C204.623 598.713 204.935 598.401 204.935 598.016C204.935 597.631 204.623 597.319 204.238 597.319C203.853 597.319 203.541 597.631 203.541 598.016C203.541 598.401 203.853 598.713 204.238 598.713Z" fill="white"/>
<path d="M220.741 576.022C221.331 576.022 221.809 575.544 221.809 574.953C221.809 574.363 221.331 573.885 220.741 573.885C220.15 573.885 219.672 574.363 219.672 574.953C219.672 575.544 220.15 576.022 220.741 576.022Z" fill="white"/>
<path d="M247.464 569.22C248.054 569.22 248.533 568.742 248.533 568.152C248.533 567.561 248.054 567.083 247.464 567.083C246.874 567.083 246.395 567.561 246.395 568.152C246.395 568.742 246.874 569.22 247.464 569.22Z" fill="white"/>
<path d="M256.44 556.5C257.097 556.5 257.629 555.967 257.629 555.31C257.629 554.654 257.097 554.121 256.44 554.121C255.783 554.121 255.251 554.654 255.251 555.31C255.251 555.967 255.783 556.5 256.44 556.5Z" fill="white"/>
<path d="M243.06 595.451C243.758 595.451 244.323 594.885 244.323 594.187C244.323 593.489 243.758 592.923 243.06 592.923C242.362 592.923 241.796 593.489 241.796 594.187C241.796 594.885 242.362 595.451 243.06 595.451Z" fill="white"/>
<path d="M248.365 599.893C248.75 599.893 249.062 599.581 249.062 599.196C249.062 598.811 248.75 598.499 248.365 598.499C247.981 598.499 247.669 598.811 247.669 599.196C247.669 599.581 247.981 599.893 248.365 599.893Z" fill="white"/>
<path d="M264.868 577.211C265.458 577.211 265.936 576.733 265.936 576.143C265.936 575.553 265.458 575.074 264.868 575.074C264.278 575.074 263.799 575.553 263.799 576.143C263.799 576.733 264.278 577.211 264.868 577.211Z" fill="white"/>
<path d="M291.591 570.41C292.181 570.41 292.66 569.932 292.66 569.342C292.66 568.751 292.181 568.273 291.591 568.273C291.001 568.273 290.523 568.751 290.523 569.342C290.523 569.932 291.001 570.41 291.591 570.41Z" fill="white"/>
<path d="M300.567 557.68C301.224 557.68 301.757 557.148 301.757 556.491C301.757 555.834 301.224 555.301 300.567 555.301C299.91 555.301 299.378 555.834 299.378 556.491C299.378 557.148 299.91 557.68 300.567 557.68Z" fill="white"/>
<path d="M223.277 604.623C223.975 604.623 224.541 604.057 224.541 603.359C224.541 602.661 223.975 602.095 223.277 602.095C222.579 602.095 222.014 602.661 222.014 603.359C222.014 604.057 222.579 604.623 223.277 604.623Z" fill="white"/>
<path d="M228.583 609.073C228.968 609.073 229.28 608.761 229.28 608.376C229.28 607.991 228.968 607.679 228.583 607.679C228.198 607.679 227.886 607.991 227.886 608.376C227.886 608.761 228.198 609.073 228.583 609.073Z" fill="white"/>
<path d="M245.085 586.382C245.676 586.382 246.154 585.904 246.154 585.314C246.154 584.724 245.676 584.245 245.085 584.245C244.495 584.245 244.017 584.724 244.017 585.314C244.017 585.904 244.495 586.382 245.085 586.382Z" fill="white"/>
<path d="M271.809 579.58C272.399 579.58 272.877 579.102 272.877 578.512C272.877 577.922 272.399 577.443 271.809 577.443C271.219 577.443 270.74 577.922 270.74 578.512C270.74 579.102 271.219 579.58 271.809 579.58Z" fill="white"/>
<path d="M280.794 566.85C281.451 566.85 281.983 566.318 281.983 565.661C281.983 565.004 281.451 564.472 280.794 564.472C280.137 564.472 279.605 565.004 279.605 565.661C279.605 566.318 280.137 566.85 280.794 566.85Z" fill="white"/>
<path d="M240.161 652.893C238.73 650.468 241.322 646.594 241.545 646.278C245.931 639.885 256.821 639.355 263.688 640.591C277.997 643.174 292.344 656.638 289.705 665.502C287.8 671.849 276.929 676.653 269.718 673.967C260.947 670.65 261.932 657.79 252.064 654.891C246.711 653.349 241.777 655.681 240.161 652.893Z" fill="black"/>
<path d="M295.41 688.547L291.108 651.035C291.108 651.035 294.49 647.04 296.953 646.724C299.415 646.408 312.331 647.653 317.255 652.299C322.18 656.945 326.176 668.913 326.176 668.913V692.849L295.41 688.547Z" fill="black"/>
<path d="M345.717 700.7C345.238 700.43 344.858 700.013 344.633 699.512C344.407 699.011 344.347 698.45 344.462 697.913C345.252 692.784 347.9 685.146 349.814 678.326C351.106 673.763 356.319 669.712 360.881 670.892H361.048C366.725 672.388 376.268 677.461 376.844 684.328C377.42 691.195 377.774 707.01 374.456 710.587C371.697 713.607 351.728 703.767 345.717 700.7Z" fill="black"/>
<path d="M354.897 674.72C354.897 674.72 369.132 675.9 368.426 680.053C367.72 684.207 361.671 693.462 361.671 693.462L351.217 692.867" stroke="#FADE2A" stroke-width="0.929189" stroke-miterlimit="10"/>
<path d="M296.85 657.4C296.85 657.4 311.875 657.716 313.148 664.044C314.421 670.372 308.716 677.322 308.716 677.322L296.85 675.464" stroke="#FADE2A" stroke-width="0.929189" stroke-miterlimit="10"/>
<path d="M242.8 648.499C242.8 648.499 248.969 650.515 250.753 650.515C252.537 650.515 261.188 663.115 261.188 663.115L257.629 666.674" stroke="#FADE2A" stroke-width="0.929189" stroke-miterlimit="10"/>
<path d="M266.159 773.874C266.345 773.874 266.512 773.874 266.485 773.976C266.289 773.976 266.187 773.939 266.159 773.874Z" fill="#9E9E9E"/>
<path d="M79.6804 445.741L78.1844 443.882C80.6653 435.789 77.4503 423.821 69.2177 413.405C60.9851 402.989 50.0857 397.089 41.6394 397.609L40.1341 395.75L34.8098 399.96L34.308 400.322C25.9453 406.919 28.0546 423.477 38.954 437.313C49.8534 451.149 65.5102 457.012 73.8544 450.415C74.0867 450.229 74.3097 450.034 74.5234 449.839L79.6804 445.741Z" fill="#6581D8"/>
<path d="M79.6804 445.74L74.5605 449.782C74.3468 449.977 74.1331 450.173 73.9008 450.358C65.5381 456.956 49.9277 451.083 38.9912 437.257C35.6371 433.073 32.9968 428.363 31.1767 423.319C30.4828 421.363 29.9574 419.352 29.6064 417.307C29.6064 417.224 29.6064 417.14 29.6064 417.056C28.4727 409.948 29.9873 403.76 34.3545 400.331C34.5125 400.201 34.689 400.089 34.8563 399.968L40.1805 395.759L40.4779 396.14L41.6765 397.664C50.1229 397.116 61.0223 403.016 69.2549 413.46C77.4875 423.904 80.7118 435.854 78.2308 443.938L79.6804 445.74Z" fill="#6581D8" stroke="#231F20" stroke-width="0.232297" stroke-miterlimit="10"/>
<path d="M46.6012 414.371L31.2975 423.282C30.5988 421.298 30.0642 419.259 29.6993 417.187C29.6993 417.103 29.6993 417.019 29.6993 416.936L42.2619 409.735L43.5535 408.982L46.6012 414.371Z" fill="white"/>
<path d="M42.2248 409.994L29.625 416.982C29.625 416.898 29.625 416.814 29.625 416.731C28.4914 409.622 29.9874 403.722 34.3546 400.265C34.5125 400.135 34.6891 400.024 34.8563 399.903L40.1806 395.694L40.4779 396.075L42.2248 409.734V409.994Z" fill="#1A2446"/>
<path d="M80.3105 445.25C88.6568 438.654 86.5622 422.095 75.6321 408.265C64.7021 394.435 49.0755 388.571 40.7293 395.167C32.383 401.764 34.4776 418.322 45.4076 432.152C56.3377 445.982 71.9642 451.846 80.3105 445.25Z" fill="#F9DB2F" stroke="#231F20" stroke-width="0.232297" stroke-miterlimit="10"/>
<path d="M529.696 423.532L531.192 421.674C528.711 413.581 531.926 401.613 540.159 391.187C548.391 380.762 559.3 374.871 567.737 375.391L569.242 373.533L574.567 377.742L575.068 378.104C583.431 384.692 581.322 401.26 570.422 415.086C559.523 428.912 543.866 434.785 535.522 428.188C535.288 428.008 535.065 427.816 534.853 427.612L529.696 423.532Z" fill="#6581D8"/>
<path d="M529.705 423.533L534.825 427.575C535.039 427.77 535.253 427.965 535.485 428.151C543.848 434.748 559.458 428.876 570.394 415.049C573.749 410.865 576.389 406.156 578.209 401.112C578.903 399.156 579.428 397.145 579.779 395.1C579.779 395.016 579.779 394.932 579.779 394.849C580.913 387.74 579.398 381.552 575.031 378.123C574.873 377.993 574.697 377.882 574.529 377.761L569.205 373.552L568.908 373.933L567.709 375.457C559.263 374.908 548.363 380.809 540.131 391.253C531.898 401.697 528.674 413.646 531.155 421.73L529.705 423.533Z" fill="#6581D8" stroke="#231F20" stroke-width="0.232297" stroke-miterlimit="10"/>
<path d="M562.784 392.163L578.079 401.083C578.778 399.101 579.312 397.066 579.677 394.997C579.677 394.913 579.677 394.83 579.677 394.746L567.114 387.535L565.823 386.783L562.784 392.163Z" fill="white"/>
<path d="M567.161 387.787L579.761 394.783C579.761 394.7 579.761 394.616 579.761 394.532C580.894 387.424 579.398 381.524 575.031 378.058C574.873 377.928 574.697 377.816 574.529 377.696L569.205 373.486L568.908 373.867L567.161 387.526V387.787Z" fill="#1A2446"/>
<path d="M564.003 410.065C574.933 396.235 577.028 379.676 568.682 373.08C560.335 366.484 544.709 372.348 533.779 386.178C522.849 400.008 520.754 416.567 529.1 423.163C537.447 429.759 553.073 423.895 564.003 410.065Z" fill="#F9DB2F" stroke="#231F20" stroke-width="0.232297" stroke-miterlimit="10"/>
<path d="M510.462 683.873L508.966 682.014C511.456 673.921 508.232 661.953 499.999 651.537C491.766 641.121 480.867 635.22 472.421 635.741L470.916 633.882L465.591 638.027C465.424 638.147 465.257 638.259 465.099 638.389C456.736 644.986 458.845 661.544 469.745 675.371C480.644 689.197 496.301 695.069 504.654 688.472C504.877 688.296 505.1 688.101 505.314 687.905L510.462 683.873Z" fill="#6581D8"/>
<path d="M510.462 683.873L505.342 687.915C505.128 688.11 504.915 688.305 504.682 688.491C496.32 695.088 480.709 689.216 469.773 675.389C466.419 671.205 463.778 666.496 461.958 661.451C461.264 659.496 460.739 657.485 460.388 655.44C460.388 655.356 460.388 655.272 460.388 655.189C459.254 648.08 460.769 641.892 465.136 638.463C465.294 638.333 465.47 638.222 465.638 638.101L470.962 633.892L471.259 634.273L472.458 635.796C480.904 635.248 491.804 641.149 500.036 651.593C508.269 662.037 511.493 673.986 509.012 682.07L510.462 683.873Z" fill="#6581D8" stroke="#231F20" stroke-width="0.232297" stroke-miterlimit="10"/>
<path d="M477.429 652.503L462.135 661.414C461.427 659.435 460.893 657.399 460.536 655.328C460.536 655.244 460.536 655.16 460.536 655.077L473.09 647.866L474.381 647.114L477.429 652.503Z" fill="white"/>
<path d="M473.006 648.127L460.406 655.124C460.406 655.04 460.406 654.956 460.406 654.873C459.273 647.765 460.769 641.864 465.136 638.398C465.294 638.268 465.47 638.157 465.638 638.036L470.962 633.827L471.259 634.208L473.006 647.867V648.127Z" fill="#1A2446"/>
<path d="M511.086 683.366C519.432 676.769 517.337 660.211 506.407 646.381C495.477 632.551 479.851 626.687 471.504 633.283C463.158 639.879 465.253 656.438 476.183 670.268C487.113 684.098 502.739 689.962 511.086 683.366Z" fill="#F9DB2F" stroke="#231F20" stroke-width="0.232297" stroke-miterlimit="10"/>
<path d="M315.927 445.973C433.583 445.973 528.962 350.594 528.962 232.938C528.962 115.281 433.583 19.9023 315.927 19.9023C198.271 19.9023 102.892 115.281 102.892 232.938C102.892 350.594 198.271 445.973 315.927 445.973Z" fill="#F9DB2F" stroke="#231F20" stroke-width="0.232297" stroke-miterlimit="10"/>
<mask id="mask0_7530_4107" style="mask-type:luminance" maskUnits="userSpaceOnUse" x="102" y="19" width="427" height="427">
<path d="M315.927 445.973C433.583 445.973 528.962 350.594 528.962 232.938C528.962 115.281 433.583 19.9023 315.927 19.9023C198.271 19.9023 102.892 115.281 102.892 232.938C102.892 350.594 198.271 445.973 315.927 445.973Z" fill="white"/>
</mask>
<g mask="url(#mask0_7530_4107)">
<path d="M260.621 145.882C264.264 145.455 266.986 143.912 268.296 140.214C269.504 136.804 272.877 136.953 275.618 136.497C278.545 135.986 279.688 134.974 278.35 132.019C277.927 131.142 277.727 130.174 277.769 129.201C277.811 128.228 278.094 127.281 278.592 126.444C278.962 125.718 279.513 125.101 280.192 124.652C280.871 124.202 281.654 123.936 282.467 123.879C284.409 123.749 283.879 125.691 284.567 126.667C285.254 127.642 285.133 129.64 287.122 128.599C288.794 127.726 288.544 126.248 287.772 124.883C285.97 121.556 284.371 118.778 279.828 122.197C276.418 124.762 272.627 122.662 271.642 118.434C269.458 109.142 272.246 105.37 281.863 104.71C282.634 104.663 283.953 104.552 284.065 104.19C285.617 99.079 291.238 96.533 292.27 91.2273C292.595 89.5083 293.793 89.2296 294.89 88.8022C302.24 85.9031 309.608 83.7752 317.739 83.4129C323.016 83.1713 327.151 84.342 331.816 86.2004C337.772 88.5699 344.239 89.6384 350.465 91.3296C351.979 91.7384 353.986 91.9149 354.079 93.9592C354.172 96.2171 352.016 96.5795 350.418 97.2206C348.244 98.1034 345.967 97.648 343.709 97.5644C342.567 97.518 340.968 96.2264 340.318 97.9733C339.667 99.7201 340.82 101.086 342.288 101.978C343.505 102.703 344.843 103.242 346.255 103.929C346.441 102.619 344.397 100.213 346.841 100.724C350.725 101.532 352.583 99.014 354.971 97.2949C356.542 96.1613 358.242 96.3007 360.268 96.0963C359.886 95.3746 359.623 94.5967 359.487 93.7919C359.487 92.4818 356.96 90.6791 359.887 89.9265C361.745 89.4433 364.254 89.5827 364.681 91.9521C365.192 94.7397 365.945 94.433 368.119 93.4853C372.765 91.4782 377.021 87.9659 382.986 89.9265C384.194 90.326 390.587 91.9428 389.491 85.5221C389.295 84.3792 390.94 84.6673 391.814 85.0575C398.318 87.9659 405.863 86.7115 412.256 90.5583C410.128 87.3898 404.701 86.3584 407.229 81.0527C408.093 79.1943 408.214 76.1094 410.676 76.4068C413.919 76.7413 417.329 77.9028 418.11 81.9819C421.501 80.8855 418.528 78.5718 419.541 76.89C422.328 76.8342 422.049 79.7797 423.917 81.2293C425.171 78.8412 427.29 78.0236 430.003 78.7483C430.596 78.7748 431.189 78.6897 431.75 78.4974C430.514 72.9873 434.844 75.9236 436.731 75.3382C438.041 74.9294 439.611 75.5148 439.834 73.2661C439.992 71.7515 441.692 71.5007 442.882 71.3148C448.262 70.5064 453.456 68.2392 459.087 69.1777C459.882 69.3166 460.7 69.2671 461.473 69.0331C462.245 68.7991 462.953 68.3872 463.538 67.8304C467.905 64.0671 471.668 63.6583 476.639 66.4366C477.917 67.1171 479.345 67.4654 480.793 67.4494C482.568 67.4494 484.361 67.3844 486.126 67.5702C488.979 67.8582 492.556 67.5702 493.941 70.4135C495.539 73.6843 490.605 73.452 489.676 76.3603C497.462 71.7144 504.636 75.9887 511.976 76.7506C515.198 77.2143 518.484 76.8956 521.556 75.8214C526.081 74.186 531.341 76.1838 535.819 78.609C537.799 79.6868 539.61 81.0713 541.617 82.0655C543.151 82.8275 544.916 84.5837 546.263 81.4244C546.867 79.9563 548.624 81.3315 549.822 81.1085C553.093 80.4952 557.163 83.162 559.569 78.674C559.839 78.1722 561.428 78.1908 562.357 78.2559C567.663 78.6275 573.163 78.3488 578.228 79.7054C585.111 81.4144 592.164 82.3494 599.255 82.493C603.678 82.6602 608.333 82.8646 612.134 85.9403C613.602 87.1389 615.525 86.7951 617.281 86.8694C622.596 87.0367 627.939 86.5814 633.217 87.7986C634.462 88.0867 636.005 88.6442 636.608 86.3677C637.212 84.0912 639.322 85.3827 640.781 85.5128C652.86 86.6 664.614 89.5362 676.294 92.7977C680.791 94.0428 685.447 94.7583 690.018 95.7432C691.442 96.0218 692.85 96.3753 694.237 96.8025C697.024 97.7317 697.024 100.519 696.625 102.378C696.225 104.236 693.893 103.26 692.369 103.093C688.652 102.684 685.865 99.6737 681.925 99.4692C679.825 99.3577 678.478 99.6644 677.734 101.644C676.805 104.106 679.054 104.19 680.299 104.886C682.287 105.992 684.945 106.076 686.924 109.207C680.42 107.628 676.703 110.136 674.547 115.108C674.073 116.167 673.116 116.789 672.234 116.241C668.731 114.048 665.386 117.486 661.92 116.362C661.683 116.288 661.432 116.269 661.187 116.307C660.942 116.344 660.709 116.438 660.505 116.579C660.302 116.721 660.133 116.907 660.013 117.124C659.892 117.341 659.823 117.582 659.81 117.83C659.727 119.27 659.81 120.85 661.278 121.686C662.951 122.615 664.419 123.888 665.924 124.948C669.957 127.735 670.505 131.275 670.264 135.67C670.118 137.215 670.077 138.767 670.143 140.316C670.282 142.035 671.351 144.182 669.214 144.962C667.355 145.65 666.027 143.745 664.754 142.602C660.544 138.885 656.27 135.169 652.33 131.099C649.738 128.451 648.112 125.737 650.249 121.305C651.903 117.914 654.969 113.472 650.407 108.854C649.757 110.982 649.905 113.407 647.768 114.16C645.371 115.015 644.507 112.608 643.038 111.539C641.31 110.294 639.22 109.681 637.686 111.093C636.153 112.506 635.428 114.661 637.445 116.594C639.721 118.787 637.668 119.131 636.107 119.614C633.486 120.441 631.043 119.131 628.543 119.001C622.912 118.694 617.244 119.001 611.595 119.122C610.693 119.081 609.807 119.369 609.103 119.934C608.399 120.498 607.923 121.299 607.766 122.188C607.432 123.433 606.531 124.976 606.977 125.905C608.305 128.544 600.584 131.777 607.163 133.245C609.736 133.821 611.65 137.297 615.311 135.057C617.17 133.886 619.957 135.986 621.816 137.408C629.9 143.281 633.784 162.812 628.608 171.203C627.317 173.303 625.43 174.399 622.875 173.739C622.492 173.593 622.084 173.528 621.674 173.548C621.265 173.568 620.865 173.673 620.498 173.855C620.132 174.038 619.807 174.294 619.544 174.608C619.281 174.923 619.087 175.288 618.973 175.681C617.96 178.469 617.82 181.517 616.111 184.258C614.977 186.116 617.699 187.148 619.047 188.03C622.42 190.214 625.161 192.816 626.034 196.885C626.964 201.113 623.451 201.531 620.849 202.461C617.969 203.473 617.542 201.531 616.975 199.162C616.111 195.538 615.274 191.589 610.582 190.623C608.919 190.27 608.547 188.764 608.212 187.306C607.581 184.453 604.96 183.236 603.121 184.657C597.61 188.932 596.914 185.642 596.83 180.662C593.643 182.018 592.658 185.131 590.223 186.609C590.092 186.707 589.987 186.838 589.919 186.988C589.851 187.138 589.822 187.303 589.835 187.467C589.848 187.631 589.902 187.789 589.993 187.927C590.084 188.064 590.208 188.177 590.353 188.253C592.491 189.182 593.977 191.654 596.793 191.041C599.441 190.428 602.098 189.879 604.505 191.654C604.236 193.512 602.647 193.568 601.717 194.377C598.094 197.564 598.326 199.236 601.652 202.739C604.979 206.242 607.441 210.47 610.015 214.652C613.351 220.134 610.777 223.943 609.941 228.413C608.937 233.802 605.369 237.788 601.402 241.003C597.685 243.995 592.964 245.594 588.328 246.978C585.392 247.852 583.468 249.069 585.54 252.423C585.785 252.842 585.926 253.313 585.954 253.798C585.981 254.282 585.894 254.767 585.698 255.211C585.476 255.905 585.075 256.528 584.535 257.017C583.995 257.507 583.335 257.845 582.623 257.998C582.156 258.139 581.657 258.125 581.199 257.957C580.742 257.789 580.351 257.478 580.086 257.069C579.866 256.773 579.71 256.435 579.626 256.076C579.542 255.717 579.532 255.344 579.598 254.981C579.663 254.618 579.802 254.273 580.006 253.965C580.209 253.658 580.474 253.396 580.783 253.194C583.422 251.187 581.591 249.208 580.458 247.852C579.129 246.235 577.233 247.173 575.691 248.288C570.831 251.801 570.292 254.95 574.037 259.531C576.183 262.142 578.683 264.456 580.866 267.049C586.349 273.553 585.577 280.382 578.924 285.484C578.293 285.976 577.837 286.682 577.196 287.147C574.929 288.801 573.535 294.692 569.939 287.305C568.322 283.978 564.819 279.49 559.718 278.459C558.789 278.282 558.157 277.056 557.367 276.294C553.418 285.93 554.106 290.919 562.106 297.312C568.452 302.386 568.713 309.866 571.584 316.323C571.69 316.498 571.755 316.695 571.772 316.899C571.79 317.103 571.759 317.309 571.683 317.499C571.608 317.689 571.489 317.859 571.336 317.995C571.183 318.131 571.001 318.23 570.803 318.284C570.497 318.298 570.191 318.25 569.904 318.143C569.616 318.036 569.354 317.872 569.131 317.661C564.541 313.443 558.315 310.711 558.427 302.664C558.427 299.877 556.262 296.16 552.851 294.655C550.566 293.614 550.937 291.709 551.235 290.12C552.712 282.315 550.194 275.151 548.066 267.885C547.137 264.828 546.347 263.239 542.9 265.664C539.183 268.275 536.934 267.225 536.897 262.876C536.86 258.528 534.333 256.112 532.158 253.185C531.719 252.713 531.254 252.267 530.765 251.847C528.451 249.348 521.984 246.978 518.49 246.616C515.461 246.3 514.615 247.489 513.203 249.979C511.094 253.572 508.315 256.727 505.017 259.271C501.95 261.678 500.231 265.367 496.654 267.16C495.028 267.959 495.79 269.669 495.92 271.1C496.375 275.913 496.793 280.81 495.279 285.465C494.545 287.751 496.041 287.165 497.007 287.779C500.306 289.869 502.731 292.601 501.653 296.922C501.235 298.529 500.231 300.025 498.41 300.109C496.403 300.193 495.827 298.483 495.418 296.866C495.289 296.235 495.202 295.595 495.158 294.952C494.545 289.442 494.526 289.377 490.122 292.341C487.641 293.995 485.913 292.824 485.179 290.613C480.7 277.028 472.309 264.819 470.869 250.174C470.674 248.158 470.07 247.628 468.147 248.623C464.086 250.713 461.893 247.833 460.564 244.906C459.143 241.524 456.675 238.688 453.522 236.813C450.37 234.938 446.699 234.124 443.049 234.49C436.851 235.038 430.886 233.43 424.911 232.083C424.287 231.897 423.713 231.574 423.23 231.137C422.748 230.699 422.369 230.159 422.124 229.556C421.371 228.19 420.312 228.134 418.834 228.524C416.074 229.191 413.175 228.987 410.535 227.94C407.894 226.894 405.643 225.056 404.088 222.68C403.382 221.611 402.843 220.422 402.165 219.325C401.115 217.653 399.73 216.594 397.751 217.811C395.772 219.028 394.852 221.174 396.636 222.633C399.898 225.309 399.647 231.433 405.473 231.553C405.919 231.553 406.458 232.743 406.764 233.412C408.623 237.77 410.044 238.244 413.956 235.67C414.644 235.244 415.269 234.725 415.815 234.127C418.537 230.931 420.674 229.955 421.826 235.289C422.3 237.5 424.502 237.779 426.287 238.532C431.518 240.715 432.113 242.917 429.892 248.047C426.612 255.582 421.854 261.38 413.77 264.084C410.983 265.014 409.44 267.69 406.839 269.149C400.752 272.568 394.211 274.724 387.744 277.102C385.644 277.874 384.185 278.961 385.012 281.339C385.839 283.718 387.53 284.387 390.03 283.709C394.676 282.454 399.461 281.497 404.135 280.252C407.024 279.49 408.028 280.615 407.944 283.346C408.025 285.286 407.709 287.221 407.015 289.033C402.369 299.143 397.435 308.955 388.682 316.519C383.184 321.268 378.479 326.864 374.744 333.095C371.334 338.782 370.925 344.543 373.025 350.703C375.266 356.937 376.3 363.54 376.073 370.161C375.859 374.807 374.215 378.003 370.173 379.796C365.861 381.655 363.064 385.279 359.701 388.252C357.842 389.925 357.954 391.848 358.558 394.004C360.24 399.923 360.1 405.219 353.503 408.295C352.814 408.571 352.218 409.038 351.784 409.64C351.35 410.242 351.095 410.954 351.05 411.695C351.143 421.359 343.096 426.014 338.106 432.426C333.823 437.917 327.681 440.147 320.536 439.599C318.361 439.432 316.094 440.249 313.873 440.668C309.552 441.494 305.576 439.19 305.975 434.934C306.533 429.034 303.188 424.843 301.097 420.123C299.006 415.403 296.971 411.156 296.869 405.944C296.748 399.439 293.366 393.939 290.588 388.289C287.689 382.454 286.759 376.47 289.77 370.635C296.451 357.626 291.749 346.085 285.905 334.563C285.233 333.274 284.423 332.062 283.489 330.949C280.19 326.981 279.205 323.237 281.091 317.764C283.489 310.767 282.179 305.368 273.574 306.669C271.66 306.967 270.285 306.047 269.133 304.393C265.843 299.682 261.597 298.223 256.291 300.741C250.986 303.259 245.671 305.127 239.64 303.817C238.216 303.44 236.705 303.558 235.357 304.151C229.967 307.403 225.907 304.783 221.865 301.559C218.009 298.483 213.149 296.457 211.792 290.947C211.123 288.243 209.655 285.558 207.342 284.183C202.436 281.256 201.218 276.749 200.586 271.676C200.369 270.597 200.503 269.477 200.967 268.479C204.052 262.245 204.099 255.768 202.147 249.236C200.912 245.092 204.006 242.165 205.372 238.968C206.706 236.095 208.355 233.377 210.287 230.866C212.508 227.865 214.617 224.668 218.371 222.782C221.902 220.998 224.727 218.136 224.875 213.323C224.978 209.764 227.394 207.172 230.451 205.304C232.959 203.78 235.245 202.042 236.258 199.069C237.271 196.096 236.128 193.856 233.378 192.918C229.122 191.459 226.817 188.476 228.072 184.369C229.168 180.792 230.097 177.382 229.782 173.526C229.549 170.738 232.16 169.865 234.558 169.958C237.605 170.06 240.644 170.664 243.701 170.887C246.488 171.063 249.889 172.02 251.227 168.369C252.565 164.717 251.46 161.39 248.672 158.668C248.328 158.343 247.845 158.166 247.473 157.859C246.089 156.735 243.032 156.679 243.849 154.143C244.556 151.95 248.114 153.502 248.858 152.563C251.71 148.949 258.205 152.563 259.655 146.858L260.621 145.882ZM307.304 182.595C304.024 181.814 302.732 182.111 302.844 185.735C302.983 190.381 296.209 194.479 292.678 192.546C291.749 192.044 290.17 191.84 290.551 190.381C290.932 188.922 292.409 189.359 293.468 189.387C295.745 189.443 297.761 189.062 298.532 186.599C299.303 184.137 297.231 183.189 295.968 181.814C295.556 181.314 295.055 180.895 294.49 180.578C289.445 178.153 285.022 175.068 282.411 169.883C282.151 169.372 281.203 168.647 280.98 168.759C276.065 171.398 269.83 170.673 265.583 173.284C263.205 174.734 259.581 177.605 258.15 180.597C254.526 187.9 250.633 194.312 241.657 195.566C241.176 195.697 240.759 195.998 240.484 196.413C240.208 196.829 240.094 197.33 240.161 197.824C240.337 199.013 241.48 199.078 242.446 199.134C245.745 199.32 249.072 200.268 251.831 197.118C252.697 196.248 253.736 195.57 254.88 195.127C256.025 194.683 257.249 194.485 258.475 194.544C265.314 194.618 271.79 192.314 278.545 191.924C283.749 191.617 286.852 194.544 285.254 199.571C283.656 204.598 286.555 205.954 290.197 206.837C292.27 207.339 294.546 207.59 295.912 209.16C299.146 212.877 303.754 213.314 307.926 214.837C309.906 215.562 310.714 215.358 311.039 212.933C311.717 207.924 315.685 205.685 320.48 207.357C323.274 208.17 325.969 209.289 328.517 210.693C335.691 215.163 343.384 211.622 350.734 212.347C351.213 212.297 351.676 212.141 352.088 211.893C352.501 211.644 352.854 211.307 353.122 210.907C355.631 207.097 357.619 203.074 357.461 198.316C357.359 195.306 356.021 193.959 353.169 195.464C350.511 196.858 348.114 197.322 345.531 195.38C345.105 194.986 344.546 194.767 343.965 194.767C343.384 194.767 342.825 194.986 342.399 195.38C340.913 196.885 339.612 195.854 338.032 195.547C331.723 194.349 330.255 189.489 328.926 184.397C328.554 182.985 327.885 181.21 326.231 181.452C324.509 181.746 322.914 182.548 321.65 183.756C320.266 185.122 322.282 185.893 322.979 186.757C324.633 188.802 323.862 190.214 322.134 191.654C320.842 192.732 319.253 195.427 318.008 193.512C315.546 189.796 310.24 187.566 309.998 183.189C309.692 177.614 306.189 175.849 302.416 173.767C298.962 171.981 295.995 169.378 293.775 166.185C293.143 165.256 292.427 163.453 290.866 164.429C289.305 165.405 289.993 167.086 290.866 168.276C292.901 171.138 294.862 173.916 298.096 175.886C301.004 177.716 305.102 178.218 307.304 182.595ZM363.984 178.785C366.019 178.738 368.63 179.5 369.68 177.252C370.925 174.659 367.878 173.925 366.688 172.42C364.96 170.227 362.544 168.898 360.054 167.681C357.787 166.585 354.683 165.739 357.982 162.366C358.279 162.081 358.452 161.691 358.466 161.28C358.48 160.869 358.333 160.468 358.056 160.164C357.744 159.9 357.354 159.745 356.946 159.725C356.538 159.705 356.134 159.82 355.798 160.052C354.191 160.87 351.645 161.279 353.243 164.02C354.172 165.6 353.243 165.813 352.174 166.445C348.987 168.369 346.664 167.551 345.178 164.345C343.319 160.275 340.783 161.065 338.562 163.676C336.857 165.807 335.436 168.149 334.334 170.645C332.355 174.808 333.488 176.815 337.902 178.079C340.114 178.72 341.981 178.079 343.96 177.335C348.262 175.644 352.509 174.641 356.904 177.41C358.957 178.748 361.503 178.859 363.966 178.785H363.984ZM290.002 131.777C292.79 135.243 295.401 135.494 298.504 133.951C300.196 133.097 301.794 132.093 303.968 132.781C308.54 134.174 309.999 133.05 310.194 128.441C310.333 125.152 311.383 122.941 315.258 124.474C317.293 125.282 318.603 124.288 317.534 122.662C314.208 117.626 318.668 118.388 321.009 117.598C321.8 117.452 322.606 117.415 323.407 117.486C324.856 117.421 327.309 118.527 327.216 116.204C327.151 114.476 324.875 115.498 323.5 115.684C320.954 116.046 318.417 116.613 315.862 116.854C312.507 117.217 310.426 115.972 309.683 112.339C308.874 108.362 309.59 105.444 313.399 103.428C315.016 102.573 316.809 101.569 317.683 99.1905C314.775 98.9303 311.801 98.1219 310.5 101.402C309.571 103.827 307.787 104.691 305.761 105.769C301.273 108.157 299.852 112.273 302.769 115.061C305.362 117.551 304.823 118.908 302.249 120.636C301.434 121.155 300.844 121.961 300.595 122.894C299.75 128.664 297.241 132.548 289.984 131.777H290.002ZM403.02 193.875C406.17 194.014 407.517 192.286 406.736 188.523C406.29 186.413 404.757 185.308 403.54 183.877C402.75 182.948 401.682 181.833 403.382 180.69C404.311 180.114 406.513 181.201 405.928 178.961C405.538 177.447 404.07 177.465 402.713 178.032C402.567 178.105 402.406 178.144 402.243 178.145C402.079 178.145 401.918 178.108 401.771 178.036C401.625 177.964 401.497 177.859 401.397 177.73C401.298 177.6 401.23 177.449 401.198 177.289C400.706 173.823 397.76 172.383 395.512 170.45C392.724 168.025 393.653 166.25 396.348 165.014C398.011 164.243 400.26 163.89 398.941 161.604C398.667 161.145 398.302 160.746 397.869 160.433C397.436 160.119 396.943 159.897 396.421 159.781C395.899 159.664 395.359 159.655 394.834 159.755C394.308 159.854 393.809 160.06 393.365 160.359C391.433 161.483 389.571 162.724 387.79 164.076C385.932 165.432 385.003 166.417 386.192 169.484C387.599 173.188 390.057 176.401 393.263 178.729C395.558 180.467 396.051 182.26 395.261 184.945C394.713 186.906 391.684 189.526 395.447 191.004C397.76 191.859 399.517 194.219 403.02 193.875ZM383.265 275.894C382.41 272.048 381.918 268.823 379.548 266.194C378.74 265.311 377.17 263.889 378.508 262.997C381.035 261.325 379.009 260.591 378.294 259.392C375.506 254.746 370.563 251.373 368.891 246.179C366.577 238.95 362.498 232.947 357.926 227.131C357.099 226.071 356.272 224.204 354.562 225.384C353.187 226.313 354.562 227.725 354.85 228.887C357.424 237.853 363.789 244.98 366.279 254.244C368.602 262.941 375.692 269.427 383.265 275.857V275.894Z" fill="#6581D8"/>
<path d="M104.759 145.324C96.7775 150.853 87.244 147.777 78.5654 150.091C80.0428 151.698 82.6166 150.741 83.3321 152.702C84.0476 154.662 82.4494 156.019 81.6038 157.533C80.9255 158.732 80.4237 159.894 81.5388 161.055C82.2113 161.764 83.0721 162.266 84.02 162.503C84.968 162.74 85.9639 162.702 86.8909 162.393C87.7551 162.151 88.4426 161.287 89.2325 160.739C90.0223 160.191 91.1837 159.132 92.1315 160.47C93.0793 161.808 92.1315 162.709 90.9979 163.582C86.6121 166.825 81.1671 167.531 76.4003 169.836C75.8242 170.115 74.384 169.836 74.2168 169.473C73.3805 167.615 72.8137 166.045 70.1655 167.392C66.2629 169.39 60.7807 169.436 59.6378 174.826C59.0988 177.353 58.2719 178.542 55.921 178.895C48.2459 179.945 43.8415 185.688 38.9261 190.715C38.3602 191.282 37.9976 192.02 37.8947 192.815C37.5509 197.814 34.1036 200.378 30.359 202.785C27.4531 204.529 24.6429 206.427 21.9406 208.472C17.5176 212.03 14.0425 216.007 16.096 222.512C16.7929 224.695 16.3747 227.316 16.096 229.694C15.9101 231.2 15.5477 233.207 13.5593 233.411C11.5708 233.615 10.9947 231.673 10.2514 230.308C9.19319 228.118 8.84558 225.652 9.25713 223.255C9.58234 220.309 8.71822 218.079 5.0665 218.377C2.13956 218.618 -0.229904 216.267 -3.35197 216.788C-5.59132 217.159 -7.77492 217.113 -9.6147 218.776C-10.2882 219.492 -11.1762 219.97 -12.1449 220.138C-13.1136 220.305 -14.1105 220.154 -14.9854 219.705C-18.4513 217.977 -21.2574 219.52 -24.5375 220.858C-35.4462 225.308 -35.8085 235.725 -38.1315 244.673C-39.2466 248.993 -36.4961 253.677 -32.4542 256.26C-28.7374 258.648 -25.0206 255.804 -21.3875 254.875C-19.8265 254.476 -19.5292 252.738 -19.0553 251.382C-18.4606 249.625 -17.615 248.148 -15.7195 247.525C-13.3872 246.763 -10.7576 245.834 -8.82489 247.655C-7.17093 249.207 -8.96428 251.289 -9.53108 253.026C-10.6368 256.39 -11.9749 259.679 -13.2478 262.978C-14.0748 265.106 -13.3036 266.007 -11.12 266.007C-8.9364 266.007 -6.92006 265.905 -4.82939 266.063C-0.183441 266.407 1.42407 268.59 0.466995 273.19C-0.0254669 275.55 -0.843155 277.891 -0.982529 280.27C-1.36349 286.951 2.24174 289.924 8.76465 288.633C11.0319 288.177 13.3642 287.954 15.1668 289.757C18.3074 292.907 20.6211 290.686 21.4109 288.094C23.3901 281.589 29.6528 280.855 34.2616 279.034C38.2385 277.455 33.128 282.147 35.8505 283.16C38.1642 280.028 40.5708 281.004 44.2132 282.444C48.534 284.154 53.5887 285.799 58.6807 283.959C60.4369 283.327 61.6169 283.541 63.3266 285.557C67.1549 290.203 72.4141 293.492 76.6605 297.878C78.7233 300.015 81.8826 300.852 85.1161 300.982C91.6205 301.251 95.0306 304.587 97.4837 310.497C99.054 314.288 99.6301 318.757 103.44 321.554C104.737 322.638 106.329 323.308 108.011 323.477C110.715 323.747 113.791 324.806 115.333 326.869C118.39 330.957 122.535 330.92 126.558 330.521C127.978 330.323 129.424 330.454 130.785 330.903C132.147 331.353 133.387 332.109 134.41 333.113C136.976 335.566 139.813 337.72 142.865 339.534C146.275 341.392 147.595 346.038 146.071 349.606C145.555 351.139 144.829 352.593 143.915 353.927C136.129 363.563 135.051 375.298 133.694 386.857C132.765 394.588 129.42 400.173 121.289 402.235C117.833 403.1 115.148 405.738 112.202 407.708C110.149 409.074 110.074 411.026 110.251 413.283C110.65 418.459 109.814 423.216 105.094 426.506C102.929 428.02 103.05 430.789 102.13 433.01C98.5894 441.447 96.8332 442.664 88.9537 440.88C88.6006 442.33 89.5391 443.231 90.2917 444.253C93.739 448.899 91.9828 453.759 86.2312 455.199C83.0162 455.998 79.4016 455.822 79.5968 460.867C79.6618 462.558 77.4224 462.958 75.7499 463.125C74.0774 463.292 73.1482 464.668 74.5234 465.634C79.8755 469.351 75.2946 473.142 74.5884 476.719C74.2353 478.513 73.2132 480.436 74.7464 481.579C78.4632 484.366 77.757 487.423 76.6884 491.261C74.8951 497.765 77.8406 502.644 84.1219 505.71C85.7944 506.518 89.3068 506.295 88.3126 509.148C87.3834 511.843 84.3263 511.592 81.5666 511.266C67.7124 509.622 59.9351 500.116 54.3321 488.966C52.7339 485.779 49.5561 482.062 50.7919 477.351C51.1822 475.864 50.9963 474.331 52.1949 473.04C53.0126 472.175 53.3843 470.577 51.8976 470.252C48.4132 469.583 48.1809 466.693 47.9021 464.361C46.9729 456.342 45.226 448.565 44.9101 440.286C44.2876 423.793 44.2132 407.169 41.5929 390.769C41.3801 388.933 40.7332 387.174 39.7055 385.637C38.6779 384.1 37.2991 382.831 35.6833 381.933C28.129 377.491 22.8883 371.293 18.9579 363.256C15.6 356.298 11.6094 349.663 7.03638 343.436C4.8342 340.491 3.05945 336.988 6.05144 333.28C6.7762 332.351 7.31511 331.357 6.60893 330.177C3.43111 324.834 6.8877 320.95 9.77747 317.168C16.7185 308.164 18.6048 303.472 13.9217 294.078C12.2491 290.733 10.4651 290.24 8.75536 294.078C8.25359 295.211 7.5567 296.326 6.29301 295.704C0.206818 292.703 -6.44617 290.482 -9.12224 283.123C-10.5625 279.192 -12.7182 275.689 -17.6522 274.946C-19.9829 274.67 -22.2352 273.932 -24.2774 272.775C-26.3196 271.619 -28.1106 270.066 -29.5458 268.209C-30.1803 267.346 -31.0755 266.709 -32.0993 266.393C-33.1232 266.076 -34.2215 266.098 -35.2325 266.453C-38.782 267.577 -41.9133 266.499 -45.0168 264.985C-50.3695 262.359 -55.4973 259.298 -60.3484 255.832C-62.9781 253.974 -64.344 251.809 -62.8387 248.399C-61.3334 244.989 -63.136 242.517 -65.3568 240.176C-71.5452 233.671 -73.9518 225.243 -76.9716 217.132C-77.5477 215.598 -77.2597 212.904 -79.7592 213.582C-81.8406 214.14 -81.5061 216.472 -80.9114 218.228C-78.6813 224.612 -76.3398 230.967 -74.0261 237.323C-73.4965 238.8 -72.1677 240.621 -74.0261 241.653C-75.8845 242.684 -75.9681 240.157 -76.8973 239.274C-80.7349 235.678 -81.9149 230.317 -84.4051 225.977C-86.152 222.948 -86.5887 217.159 -86.375 212.495C-86.1799 208.286 -87.3042 204.848 -91.3369 202.841C-91.912 202.543 -92.4209 202.132 -92.8329 201.633C-95.5461 198.39 -94.9422 183.225 -93.344 179.23C-90.194 171.323 -83.0671 166.063 -80.168 158.063C-79.1366 155.21 -78.5141 152.98 -81.0972 150.704C-82.3516 149.58 -82.9556 148.084 -81.5618 146.439C-78.2911 142.573 -78.2539 136.478 -81.4968 132.928C-83.4109 130.819 -82.5003 128.283 -82.5096 125.997C-82.5096 119.362 -83.5131 119.492 -89.3577 116.937C-96.8656 113.666 -103.128 117.253 -109.902 118.331C-110.71 118.461 -111.928 119.344 -112.262 117.885C-112.374 117.392 -111.454 116.658 -110.255 115.004C-128.374 124.687 -146.261 131.73 -165.83 133.82L-134.173 121.741C-135.185 119.883 -136.514 120.412 -137.499 120.003C-138.495 119.593 -139.399 118.988 -140.159 118.224C-140.918 117.459 -141.518 116.551 -141.922 115.553C-142.61 113.527 -140.603 111.715 -138.902 110.47C-134.321 107.116 -128.839 106.279 -123.459 105.201C-122.084 104.923 -120.495 105.294 -119.417 103.622C-120.709 101.968 -122.651 102.786 -124.221 102.395C-125.327 102.126 -126.553 102.014 -126.748 100.593C-126.856 100.023 -126.742 99.433 -126.429 98.9442C-126.116 98.4555 -125.629 98.1046 -125.066 97.9631C-121.35 97.0339 -117.81 94.618 -113.916 95.668C-111.129 96.4113 -110.692 95.3892 -110.878 93.1871C-111.036 91.2729 -110.385 90.0371 -108.406 89.7305C-99.7461 88.4017 -91.7643 84.6571 -83.1972 82.8545C-76.0796 81.3492 -69.9098 84.7128 -63.2568 85.3633C-56.6038 86.0137 -49.9137 86.9243 -43.2792 88.1508C-36.6448 89.3774 -29.0719 86.7942 -21.9079 85.9858C-13.3686 85.0567 -4.91301 87.1566 3.459 89.1544C5.60542 89.6654 4.38817 94.3392 6.86909 92.2021C9.35004 90.065 5.34525 89.2752 4.41606 87.7513C2.8736 85.2239 6.20938 83.858 6.08859 81.1634C3.47757 81.8788 1.02451 82.7058 -1.49361 83.1797C-3.24977 83.5049 -5.41478 83.4677 -6.01875 81.377C-6.78998 78.7196 -4.08603 78.9333 -2.67366 78.255C-0.936081 77.4187 0.89444 76.8891 2.39043 75.5232C4.76743 73.4011 7.85379 72.2477 11.0399 72.2907C14.226 72.3337 17.2802 73.57 19.599 75.7555C22.3866 78.2922 29.5228 78.9798 33.2488 77.1214C34.3917 76.5546 35.6926 75.7183 36.8912 76.5732C38.0899 77.428 37.6532 78.9147 37.4301 80.1691C37.3094 80.801 36.9191 81.3771 36.8262 82.0275C35.6089 90.0278 35.6182 90.0278 27.4599 88.8849L24.0684 88.411C26.9953 92.4902 36.1479 93.4472 39.4372 89.9442C40.4779 88.8477 41.5 87.6584 42.9217 87.5283C50.6897 86.8314 55.2799 80.9589 60.8085 76.694C64.005 74.2316 66.6439 73.5904 72.2376 75.1608C70.1982 77.0317 67.712 78.3468 65.0178 78.9798C60.1488 80.197 59.0617 83.7186 62.2767 87.6305C64.135 89.8698 64.135 89.8698 62.7413 93.3078C65.8169 92.8711 67.7775 90.8362 69.989 89.4424C71.8473 88.2995 72.5535 86.8035 69.6358 85.7907C65.9841 84.5177 66.8483 82.5292 68.8832 80.3828C71.4199 77.7067 74.8672 74.9192 78.0543 75.7369C84.252 77.2514 90.1338 74.6683 96.0899 75.5789C96.8797 75.6997 97.9482 75.6347 98.4035 76.0993C102.167 79.7417 106.766 81.981 111.412 84.1553C112.453 84.6385 113.419 85.8836 112.852 86.9429C111.068 90.2508 112.732 91.0778 115.538 92.2671C117.201 92.9733 120.918 93.6516 119.255 97.0339C117.972 99.6449 111.923 101.15 109.963 99.8215C108.838 99.0781 108.03 96.8295 106.506 97.9631C104.648 99.329 106.506 100.797 107.352 102.07C108.197 103.343 107.77 104.254 107.352 105.601C106.255 109.485 100.225 105.713 100.076 110.572C96.4894 109.745 92.466 109.541 90.0223 106.456C87.5785 103.371 85.5993 100.881 81.3158 103.259C80.1636 103.891 78.4074 103.557 78.4445 101.838C78.4817 100.119 80.3029 99.3476 81.6781 99.6263C86.6121 100.63 89.7807 97.2941 93.4696 95.2498C94.6032 94.618 96.0527 93.7167 95.1235 92.2857C94.1943 90.8548 92.847 91.9791 91.7784 92.6481C91.0225 93.2412 90.2138 93.7637 89.3625 94.2091C88.2103 94.6552 86.9559 94.4229 86.575 93.0941C86.2962 92.0442 87.2347 91.4681 88.1546 90.9756C89.3718 90.3252 92.1501 91.1428 91.4439 88.6154C90.8214 86.3761 88.4612 86.9801 86.5006 86.8128C81.7989 86.4133 78.8255 88.03 76.6512 92.3879C74.7928 96.1047 69.8867 97.9631 64.7111 98.0374C64.4603 98.8365 65.1479 99.0967 65.5753 99.5055C67.0248 100.89 69.9425 101.745 69.1248 104.151C68.1956 106.874 65.8633 104.737 64.1443 104.449C62.4253 104.161 61.5426 105.638 60.186 105.973C57.1754 106.707 55.3821 106.047 56.7108 102.256C47.7256 104.941 39.9854 109.875 31.8643 114.094C29.7272 115.2 27.1069 116.77 27.2184 119.725C27.367 123.07 29.5599 124.742 32.7285 126.006C37.0027 127.706 40.3571 131.423 45.3097 131.841C46.6198 131.953 47.5118 133.198 46.6849 134.285C45.1331 136.311 47.4282 138.708 45.7557 140.641C44.9937 141.505 45.542 142.499 46.2946 143.187C47.2238 144.023 48.088 143.465 48.9521 143.01C49.6763 142.635 50.2978 142.088 50.7625 141.417C51.2273 140.747 51.5213 139.973 51.6189 139.163C52.1764 135.093 54.1834 132.798 58.2254 131.33C62.2674 129.862 67.1177 127.79 64.5996 121.555C68.3164 117.764 69.0505 111.074 73.6685 109.03C78.7605 106.772 84.6051 108.342 89.0373 112.812C90.301 114.085 89.9665 114.921 89.4554 116.166C88.8608 117.597 88.8422 119.084 90.1709 120.134C91.4997 121.184 92.9585 120.505 94.2408 119.818C95.6827 119.094 97.0545 118.239 98.3385 117.262C101.553 114.642 102.836 116.082 103.3 119.455C103.561 121.369 104.174 123.349 103.914 125.198C103.458 128.44 104.964 130.355 107.314 132.092C111.598 135.27 112.183 138.327 110.325 143.187C109.266 145.974 107.537 149.059 112.258 151.141C114.794 152.246 114.116 155.721 113.187 158.007C112.258 160.293 110.474 159.643 108.383 158.788C105.911 157.775 103.05 157.673 100.336 157.31C96.731 156.837 96.6195 155.294 98.9796 153.073C101.2 150.983 103.561 149.05 105.865 147.043L104.759 145.324Z" fill="#6581D8"/>
<path d="M137.346 56.9023C149.825 55.3506 162.36 54.4957 174.857 53.3528C184.437 52.4701 193.98 51.2343 203.662 50.9648C211.69 50.7511 219.403 51.894 226.743 55.1648C228.261 55.7459 229.924 55.8273 231.491 55.397C234.181 54.8374 236.953 54.7932 239.659 55.2669C234.743 57.8594 230.897 60.0151 226.483 60.9629C224.718 61.3346 222.952 61.6505 223.891 64.4009C224.745 66.919 221.345 74.4454 218.91 75.6348C215.937 77.0843 213.837 78.8591 213.911 82.548C213.911 84.8895 212.257 85.5678 210.092 86.0324C200.94 87.993 191.861 90.2138 183.945 95.6031C182.657 96.5967 181.133 97.2373 179.522 97.4614C168.762 97.926 162.694 105.211 156.905 112.83C154.917 115.46 152.761 117.941 149.379 116.547C145.727 115.079 141.063 114.837 139.678 109.727C138.42 104.717 138.015 99.5305 138.479 94.3858C138.74 90.5483 141.732 88.6992 144.677 86.8873C143.999 85.605 141.89 87.1939 141.685 85.2984C141.583 84.1647 142.382 83.5886 143.311 83.1705C144.24 82.7524 145.848 82.2413 143.794 81.1449C142.373 80.3644 142.865 79.4073 143.163 78.2737C144.454 72.968 143.033 70.8402 137.327 69.7809C133.527 69.0561 129.689 68.5451 125.898 67.7831C123.873 67.3743 121.197 66.854 121.522 64.2336C121.801 61.9014 124.551 62.2638 126.344 61.9292C129.197 61.3834 132.079 61.008 134.976 60.8049C137.81 60.6098 138.033 59.0488 137.457 56.8559L137.346 56.9023Z" fill="#6581D8"/>
<path d="M137.439 56.8656C129.069 57.3751 120.895 59.6085 113.429 63.4256C107.658 66.4269 101.721 68.5455 94.9656 67.7743C91.8621 67.4212 88.5449 67.2446 84.7445 69.0844C88.9259 69.3446 92.3081 69.4932 95.6717 69.7999C96.5545 69.8742 97.8089 70.218 97.5301 71.4724C97.3929 71.8339 97.1654 72.1544 96.8694 72.4032C96.5734 72.652 96.2187 72.821 95.839 72.8941C88.6657 72.4666 81.1114 76.3506 74.3747 71.0914C73.8358 70.6733 73.2039 70.0972 72.7301 70.7198C69.227 75.3657 64.6368 71.9649 60.5856 72.3366C59.0617 72.476 56.4879 72.3923 57.1569 69.6326C57.3631 68.663 57.94 67.8123 58.7645 67.262C59.5891 66.7118 60.596 66.5054 61.5705 66.6871C62.2125 66.7488 62.8315 66.9578 63.3795 67.2978C63.9274 67.6379 64.3895 68.0998 64.7298 68.6477C66.1886 70.7755 67.6474 70.5804 68.5859 68.276C69.766 65.3955 72.0425 65.2097 74.1146 66.4176C77.8313 68.6384 81.1485 67.6627 84.6423 66.0552C84.4936 64.2619 82.4122 64.2991 81.8547 63.0168C80.9255 61.0005 80.3773 59.5602 83.3972 58.1943C88.1082 56.0758 92.9771 55.8992 97.8832 55.3231C113.252 53.4647 128.639 52.1546 144.138 52.8607C144.9 52.8607 145.671 53.0559 147.511 53.2975C143.794 55.6669 140.078 54.9886 137.364 56.8749L137.439 56.8656Z" fill="#6581D8"/>
<path d="M385.579 387.963C385.319 386.374 384.956 384.795 384.817 383.197C384.547 380.232 385.514 377.306 388.218 376.302C393.44 374.379 396.655 370.597 399.619 366.295C400.474 365.05 401.273 363.033 403.233 363.786C404.85 364.399 405.027 366.332 405.324 367.911C406.151 372.158 403.679 375.67 402.639 379.489C400.604 386.923 398.29 394.356 396.255 401.79C395.177 405.739 393.607 409.093 389.212 410.152C386.629 410.775 384.742 409.493 383.386 407.597C380.784 403.88 381.026 399.903 383.023 396.149C384.408 393.52 385.82 391.058 385.579 387.963Z" fill="#6581D8"/>
<path d="M260.621 145.881L259.599 146.811C253.632 146.56 247.67 147.395 242 149.273C244.361 144.46 243.571 139.396 247.966 136.413C248.83 135.828 247.78 134.35 246.711 133.774C245.178 132.938 243.617 132.167 242.066 131.377H242.121C240.709 123.943 242.121 122.159 251.487 119.297C251.255 126.211 252.974 132.798 258.057 137.333C261.179 140.186 260.928 142.769 260.621 145.881Z" fill="#6581D8"/>
<path d="M212.963 105.787C209.637 105.415 207.695 100.788 203.755 99.478C203.67 99.2847 203.626 99.0758 203.626 98.8647C203.626 98.6535 203.67 98.4447 203.755 98.2514C204.768 97.1085 206.375 96.1607 207.583 96.8298C212.304 99.4408 217.024 97.3408 221.726 97.2107C224.002 97.1457 226.214 97.2665 226.65 99.8032C227.087 102.34 224.792 102.869 222.98 103.52C219.769 104.76 216.395 105.524 212.963 105.787Z" fill="#6581D8"/>
<path d="M242.056 131.424C243.794 137.984 240.272 143.373 233.693 143.94C230.032 144.246 228.973 142.918 231.259 139.489C232.123 138.188 229.503 135.614 232.188 134.536C235.403 133.254 237.977 129.714 242.131 131.47L242.056 131.424Z" fill="#6581D8"/>
</g>
<path d="M61.0687 360.385L131.613 437.889C131.613 437.889 144.38 443.064 154.554 444.495C184.158 448.639 240.393 407.328 240.393 407.328L192.075 340.603C192.075 340.603 168.78 350.824 142.029 359.539C100.178 373.106 61.0687 360.385 61.0687 360.385Z" fill="#6581D8" stroke="#231F20" stroke-width="0.232297" stroke-miterlimit="10"/>
<path d="M108.327 392.721C108.327 392.721 151.646 382.119 205.641 349.625C251.887 321.75 281.751 295.732 281.751 295.732L342.91 374.964C342.91 374.964 336.917 393.019 253.95 438.911C197.622 470.067 176.827 470.504 176.827 470.504L108.327 392.721Z" fill="#6581D8" stroke="#231F20" stroke-width="0.232297" stroke-miterlimit="10"/>
<path d="M200.707 367.921C200.707 367.921 231.566 351.354 287.977 303.807C334.157 264.893 369.81 219.901 369.81 219.901L431.053 295.742C431.053 295.742 425.144 326.321 352.853 386.616C297.547 432.76 267.888 447.674 267.888 447.674L200.707 367.921Z" fill="#6581D8" stroke="#231F20" stroke-width="0.232297" stroke-miterlimit="10"/>
<path d="M315.88 298.427C315.88 298.427 342.827 273.339 390.215 216.863C429.316 170.292 436.786 137.445 436.786 137.445L505.072 219.892C505.072 219.892 504.692 234.062 462.33 290.687C419.178 348.361 386.22 374.62 386.22 374.62L315.88 298.427Z" fill="#6581D8" stroke="#231F20" stroke-width="0.232297" stroke-miterlimit="10"/>
<path d="M424.279 194.274C424.279 194.274 439.602 182.268 460.248 132.761C473.081 101.968 464.894 72.2896 464.894 72.2896L533.19 144.766C533.19 144.766 543.104 173.088 529.018 205.758C500.538 271.926 493.086 273.505 493.086 273.505L424.279 194.274Z" fill="#6581D8" stroke="#231F20" stroke-width="0.232297" stroke-miterlimit="10"/>
<path d="M76.9485 280.456L145.355 358.443L142.791 359.372L128.054 344.059C128.054 344.059 101.684 348.445 85.3112 328.635C68.9389 308.824 76.9485 280.456 76.9485 280.456Z" fill="#263769" stroke="#231F20" stroke-width="0.232297" stroke-miterlimit="10"/>
<path d="M87.69 332.24L117.48 364.892L142.763 359.419L127.524 343.576L87.69 332.24Z" fill="#6581D8" stroke="#231F20" stroke-width="0.232297" stroke-miterlimit="10"/>
<path d="M443.049 28.7568L494.656 92.0997C494.656 92.0997 504.301 58.4723 485.801 43.6146C467.301 28.7569 443.049 28.7568 443.049 28.7568Z" fill="#263769" stroke="#231F20" stroke-width="0.232297" stroke-miterlimit="10"/>
<path d="M493.616 53.9106L557.209 124.938C557.089 124.009 565.015 132.715 565.572 151.522C565.765 157.883 565.417 164.249 564.531 170.552L494.675 92.1003C494.675 92.1003 497.63 85.2336 497.723 73.5909C497.797 59.2442 493.616 53.9106 493.616 53.9106Z" fill="#6581D8" stroke="#231F20" stroke-width="0.232297" stroke-miterlimit="10"/>
<path d="M491.283 193.085C503.728 193.085 513.816 182.996 513.816 170.552C513.816 158.107 503.728 148.019 491.283 148.019C478.839 148.019 468.75 158.107 468.75 170.552C468.75 182.996 478.839 193.085 491.283 193.085Z" fill="#F9DB2F" stroke="#231F20" stroke-width="0.232297" stroke-miterlimit="10"/>
<path d="M401.747 302.989C414.191 302.989 424.279 292.901 424.279 280.456C424.279 268.012 414.191 257.923 401.747 257.923C389.302 257.923 379.214 268.012 379.214 280.456C379.214 292.901 389.302 302.989 401.747 302.989Z" fill="#F9DB2F" stroke="#231F20" stroke-width="0.232297" stroke-miterlimit="10"/>
<path d="M320.387 371.098C332.831 371.098 342.92 361.01 342.92 348.566C342.92 336.121 332.831 326.033 320.387 326.033C307.942 326.033 297.854 336.121 297.854 348.566C297.854 361.01 307.942 371.098 320.387 371.098Z" fill="#F9DB2F" stroke="#231F20" stroke-width="0.232297" stroke-miterlimit="10"/>
<path d="M216.169 386.328C212.052 390.273 209.583 395.632 209.262 401.325C208.941 407.017 210.791 412.62 214.439 417.002C218.087 421.385 223.261 424.22 228.918 424.938C234.574 425.655 240.292 424.2 244.918 420.866L216.169 386.328Z" fill="#F9DB2F" stroke="#231F20" stroke-width="0.232297" stroke-miterlimit="10"/>
</svg>
