<svg width="434" height="415" viewBox="0 0 434 415" fill="none" xmlns="http://www.w3.org/2000/svg">
<path fill-rule="evenodd" clip-rule="evenodd" d="M198.42 8.50703C263.07 2.89888 306.046 69.6493 345.081 121.624C382.216 171.07 425.802 227.637 407.358 286.707C389.676 343.336 320.291 356.294 265.11 377.743C217.943 396.077 169.086 416.638 122.22 397.543C72.0678 377.109 31.7426 332.609 22.904 279.059C14.5468 228.425 52.5581 187.6 80.4677 144.578C114.85 91.5788 135.597 13.9568 198.42 8.50703Z" fill="#FAF8E0"/>
<g opacity="0.3">
<path d="M123.968 292.326C172.643 292.326 212.102 252.867 212.102 204.191C212.102 155.516 172.643 116.057 123.968 116.057C75.2922 116.057 35.8329 155.516 35.8329 204.191C35.8329 252.867 75.2922 292.326 123.968 292.326Z" fill="#E6E6E6"/>
</g>
<g opacity="0.3">
<path d="M316.42 292.326C364.629 292.326 403.71 253.245 403.71 205.036C403.71 156.828 364.629 117.747 316.42 117.747C268.212 117.747 229.131 156.828 229.131 205.036C229.131 253.245 268.212 292.326 316.42 292.326Z" fill="#E6E6E6"/>
</g>
<path d="M248.38 131.918C248.174 131.919 247.972 131.866 247.792 131.765L246.762 131.194C246.501 131.033 246.311 130.777 246.233 130.48C246.154 130.183 246.193 129.867 246.34 129.597C246.488 129.328 246.733 129.125 247.026 129.031C247.319 128.938 247.636 128.96 247.913 129.094C248.267 129.287 248.621 129.48 248.975 129.689C249.203 129.821 249.381 130.023 249.482 130.266C249.583 130.508 249.602 130.778 249.535 131.032C249.468 131.286 249.32 131.511 249.113 131.673C248.905 131.834 248.651 131.923 248.388 131.926L248.38 131.918ZM192.66 131.564C192.406 131.567 192.157 131.489 191.951 131.34C191.744 131.192 191.591 130.982 191.512 130.74C191.434 130.498 191.435 130.237 191.516 129.996C191.596 129.755 191.752 129.546 191.96 129.399C191.96 129.399 192.33 129.134 193.038 128.699C193.172 128.609 193.323 128.546 193.481 128.515C193.64 128.484 193.803 128.485 193.961 128.519C194.119 128.552 194.268 128.618 194.401 128.711C194.533 128.803 194.645 128.922 194.73 129.059C194.815 129.197 194.872 129.35 194.896 129.509C194.921 129.669 194.913 129.832 194.873 129.989C194.833 130.145 194.762 130.292 194.664 130.42C194.565 130.548 194.442 130.656 194.302 130.735C193.706 131.105 193.384 131.331 193.368 131.347C193.165 131.495 192.92 131.574 192.668 131.572L192.66 131.564ZM241.974 128.699C241.811 128.699 241.65 128.666 241.499 128.603L240.421 128.144C240.129 128.023 239.896 127.792 239.775 127.5C239.653 127.207 239.653 126.879 239.773 126.587C239.894 126.294 240.126 126.062 240.418 125.94C240.71 125.819 241.038 125.818 241.33 125.939L242.449 126.414C242.699 126.526 242.903 126.72 243.028 126.964C243.152 127.208 243.189 127.487 243.133 127.755C243.076 128.023 242.93 128.264 242.717 128.437C242.505 128.61 242.24 128.706 241.966 128.707L241.974 128.699ZM198.985 128.168C198.753 128.169 198.525 128.101 198.331 127.974C198.136 127.846 197.983 127.665 197.891 127.452C197.823 127.306 197.785 127.148 197.78 126.987C197.774 126.826 197.801 126.666 197.859 126.516C197.917 126.365 198.004 126.228 198.116 126.113C198.228 125.997 198.362 125.905 198.51 125.842C198.873 125.681 199.251 125.529 199.645 125.368C199.792 125.303 199.95 125.268 200.111 125.265C200.271 125.263 200.431 125.293 200.58 125.353C200.729 125.413 200.864 125.503 200.977 125.616C201.091 125.729 201.181 125.865 201.241 126.013C201.301 126.162 201.331 126.322 201.329 126.482C201.326 126.643 201.292 126.801 201.227 126.948C201.162 127.095 201.069 127.227 200.952 127.337C200.835 127.447 200.697 127.533 200.546 127.589C200.176 127.742 199.814 127.886 199.468 128.039C199.318 128.103 199.156 128.136 198.993 128.136L198.985 128.168ZM235.271 126.229C235.154 126.228 235.037 126.212 234.925 126.18C234.547 126.068 234.176 125.955 233.798 125.858C233.647 125.816 233.506 125.745 233.382 125.648C233.259 125.551 233.156 125.431 233.079 125.294C233.002 125.157 232.952 125.007 232.934 124.851C232.915 124.695 232.927 124.537 232.969 124.386C233.012 124.235 233.083 124.093 233.18 123.97C233.277 123.846 233.397 123.743 233.534 123.666C233.671 123.589 233.821 123.54 233.977 123.521C234.133 123.503 234.291 123.515 234.442 123.557L235.609 123.895C235.88 123.981 236.111 124.16 236.262 124.401C236.413 124.641 236.474 124.928 236.433 125.209C236.393 125.49 236.253 125.748 236.041 125.936C235.828 126.124 235.555 126.231 235.271 126.237V126.229ZM205.769 125.778C205.482 125.775 205.205 125.668 204.99 125.478C204.775 125.288 204.635 125.026 204.596 124.742C204.557 124.457 204.621 124.168 204.778 123.927C204.934 123.686 205.171 123.509 205.447 123.428L206.63 123.114C206.782 123.076 206.941 123.069 207.096 123.092C207.251 123.115 207.4 123.168 207.534 123.249C207.669 123.33 207.786 123.436 207.88 123.562C207.973 123.688 208.041 123.831 208.079 123.983C208.117 124.136 208.124 124.294 208.101 124.449C208.078 124.604 208.025 124.753 207.944 124.888C207.863 125.022 207.757 125.14 207.631 125.233C207.505 125.326 207.362 125.394 207.21 125.432L206.083 125.73C205.979 125.761 205.87 125.778 205.761 125.778H205.769ZM228.302 124.595C228.238 124.603 228.173 124.603 228.109 124.595L226.95 124.418C226.779 124.423 226.609 124.39 226.452 124.324C226.295 124.257 226.154 124.157 226.039 124.031C225.924 123.905 225.837 123.756 225.785 123.593C225.732 123.431 225.715 123.259 225.735 123.089C225.755 122.92 225.811 122.756 225.899 122.61C225.988 122.464 226.107 122.339 226.248 122.243C226.389 122.147 226.549 122.082 226.718 122.053C226.886 122.025 227.058 122.032 227.223 122.076L228.431 122.261C228.589 122.274 228.743 122.318 228.885 122.39C229.027 122.463 229.153 122.562 229.256 122.683C229.359 122.804 229.437 122.944 229.486 123.096C229.535 123.247 229.554 123.406 229.541 123.565C229.528 123.724 229.485 123.878 229.412 124.02C229.34 124.161 229.24 124.287 229.119 124.39C228.998 124.493 228.858 124.572 228.707 124.621C228.555 124.67 228.396 124.688 228.237 124.676L228.302 124.595ZM212.738 124.338C212.58 124.348 212.421 124.326 212.27 124.275C212.12 124.224 211.981 124.143 211.862 124.038C211.743 123.933 211.646 123.806 211.576 123.663C211.506 123.52 211.465 123.365 211.455 123.207C211.445 123.048 211.466 122.889 211.517 122.739C211.569 122.589 211.649 122.45 211.754 122.331C211.859 122.212 211.987 122.114 212.129 122.044C212.272 121.975 212.427 121.933 212.585 121.923C212.988 121.867 213.39 121.819 213.8 121.778C213.959 121.762 214.119 121.776 214.272 121.821C214.425 121.866 214.568 121.941 214.692 122.041C214.816 122.141 214.919 122.265 214.995 122.405C215.071 122.545 215.119 122.698 215.136 122.857C215.153 123.015 215.139 123.176 215.094 123.329C215.049 123.481 214.974 123.624 214.874 123.748C214.774 123.872 214.65 123.975 214.51 124.052C214.37 124.128 214.216 124.176 214.058 124.193L212.899 124.329L212.738 124.338ZM221.091 123.903H219.924C219.604 123.903 219.297 123.776 219.071 123.549C218.845 123.323 218.717 123.016 218.717 122.696C218.717 122.376 218.845 122.069 219.071 121.842C219.297 121.616 219.604 121.489 219.924 121.489H221.148C221.305 121.493 221.46 121.528 221.604 121.592C221.748 121.656 221.878 121.748 221.986 121.863C222.095 121.977 222.179 122.112 222.236 122.259C222.292 122.406 222.319 122.563 222.315 122.72C222.308 123.031 222.18 123.327 221.957 123.544C221.734 123.761 221.435 123.881 221.124 123.879L221.091 123.903Z" fill="#A5A5A5"/>
<path d="M67.1211 210.597C67.1211 210.597 77.0676 163.786 102.103 163.786C127.138 163.786 140.457 237.371 79.5703 245.378L67.0808 210.597H67.1211Z" fill="#F4A28C"/>
<g opacity="0.1">
<path d="M67.1211 210.597C67.1211 210.597 77.0676 163.786 102.103 163.786C127.138 163.786 140.457 237.371 79.5703 245.378L67.0808 210.597H67.1211Z" fill="#000001"/>
</g>
<path d="M184.838 78.6201H89.026V248.902H184.838V78.6201Z" fill="#E6E6E6"/>
<path d="M177.056 92.4619H96.8159V219.852H177.056V92.4619Z" fill="white"/>
<path d="M159.44 182.721H113.007V201.986H159.44V182.721Z" fill="#6584DB"/>
<g opacity="0.1">
<path d="M117.98 178.005C117.98 178.005 128.635 184.403 124.547 193.891C120.459 203.379 107.986 209.181 107.8 221.622C107.615 234.063 107.8 248.911 107.8 248.911H89.034V219.852L118.004 178.005H117.98Z" fill="#000001"/>
</g>
<path d="M86.7323 193.191C86.7323 193.191 106.046 173.426 114.407 175.181C121.296 176.629 121.304 190.334 106.295 201.737C103.249 204.029 100.73 206.949 98.9095 210.299C97.0893 213.649 96.0102 217.352 95.7454 221.155C95.3188 227.537 93.2185 235.125 86.7404 240.855C73.1242 252.926 63.0248 242.408 64.3365 226.136C65.6482 209.865 66.5334 205.036 86.7404 193.142L86.7323 193.191Z" fill="#F4A28C"/>
<path d="M94.2487 238.272L86.9819 338.808L27.3912 339.999L57.3596 227.086L94.2487 238.272Z" fill="#6584DB"/>
<g opacity="0.1">
<path d="M60.8199 339.998L76.6329 232.928L94.2486 238.272L86.9818 338.807L60.8199 339.998Z" fill="#000001"/>
</g>
<path d="M115.92 88.253C117.534 88.253 118.841 86.9452 118.841 85.3318C118.841 83.7185 117.534 82.4106 115.92 82.4106C114.307 82.4106 112.999 83.7185 112.999 85.3318C112.999 86.9452 114.307 88.253 115.92 88.253Z" fill="#A5A5A5"/>
<path d="M154.515 84.3179H125.424C124.94 84.3179 124.547 84.7106 124.547 85.195V86.0963C124.547 86.5808 124.94 86.9735 125.424 86.9735H154.515C155 86.9735 155.393 86.5808 155.393 86.0963V85.195C155.393 84.7106 155 84.3179 154.515 84.3179Z" fill="#A5A5A5"/>
<path d="M136.932 167.439C151.425 167.439 163.174 155.69 163.174 141.197C163.174 126.703 151.425 114.954 136.932 114.954C122.439 114.954 110.689 126.703 110.689 141.197C110.689 155.69 122.439 167.439 136.932 167.439Z" fill="#FCDE2F"/>
<path d="M134.671 243.084C139.817 243.084 143.989 238.912 143.989 233.765C143.989 228.618 139.817 224.446 134.671 224.446C129.524 224.446 125.352 228.618 125.352 233.765C125.352 238.912 129.524 243.084 134.671 243.084Z" fill="#A5A5A5"/>
<path d="M133.142 152.954V151.771C129.625 151.248 127.436 149.646 126.462 146.942C126.116 145.968 126.39 145.445 127.364 145.099L130.583 143.949C131.629 143.562 132.079 143.667 132.603 144.681C133.126 145.695 134.132 146.387 136.047 146.387C138.203 146.387 139.386 146.001 139.386 144.713C139.386 143.425 137.89 143.184 135.974 142.935C132.184 142.412 126.543 141.784 126.543 135.378C126.543 131.684 128.804 129.286 133.158 128.522V127.339C133.158 126.333 133.472 126.019 134.478 126.019H138.059C139.073 126.019 139.419 126.333 139.419 127.339V128.514C142.412 129.037 144.247 130.429 145.406 132.763C145.897 133.736 145.615 134.227 144.601 134.678L141.221 136.175C140.28 136.593 139.901 136.456 139.378 135.443C138.751 134.292 138.018 133.736 136.248 133.736C134.156 133.736 133.359 134.227 133.359 135.306C133.359 136.384 134.968 136.803 136.948 137.084C140.738 137.575 146.138 138.163 146.138 144.641C146.138 148.471 143.724 150.869 139.419 151.674V152.929C139.419 153.903 139.073 154.249 138.059 154.249H134.478C133.472 154.249 133.158 153.903 133.158 152.929L133.142 152.954Z" fill="white"/>
<path d="M372.615 197.762C372.615 197.762 376.848 144.931 349.68 140.464C322.512 135.998 319.1 212.971 342.437 214.122C365.775 215.273 372.615 197.762 372.615 197.762Z" fill="#F4A28C"/>
<g opacity="0.1">
<path d="M342.405 214.122C365.686 215.281 372.615 197.762 372.615 197.762C372.615 197.762 376.848 144.931 349.68 140.464" fill="#000001"/>
</g>
<path d="M349.672 78.6362H253.86V248.918H349.672V78.6362Z" fill="#E6E6E6"/>
<path d="M341.89 92.478H261.65V219.868H341.89V92.478Z" fill="white"/>
<path d="M280.763 88.2687C282.376 88.2687 283.684 86.9608 283.684 85.3475C283.684 83.7341 282.376 82.4263 280.763 82.4263C279.149 82.4263 277.841 83.7341 277.841 85.3475C277.841 86.9608 279.149 88.2687 280.763 88.2687Z" fill="#A5A5A5"/>
<path d="M319.35 84.3418H290.258C289.774 84.3418 289.381 84.7345 289.381 85.219V86.1203C289.381 86.6047 289.774 86.9974 290.258 86.9974H319.35C319.834 86.9974 320.227 86.6047 320.227 86.1203V85.219C320.227 84.7345 319.834 84.3418 319.35 84.3418Z" fill="#A5A5A5"/>
<g opacity="0.1">
<path d="M342.872 162.643C342.872 162.643 330.696 165.419 334.825 177.321C338.953 189.223 334.406 205.599 332.217 209.076C322.56 224.462 326.946 248.926 326.946 248.926H349.712C349.712 248.926 355.836 171.052 342.912 162.643H342.872Z" fill="#000001"/>
</g>
<path d="M301.774 180.902C316.268 180.902 328.017 169.153 328.017 154.659C328.017 140.166 316.268 128.417 301.774 128.417C287.281 128.417 275.532 140.166 275.532 154.659C275.532 169.153 287.281 180.902 301.774 180.902Z" fill="#FCDE2F"/>
<path d="M299.505 243.101C304.651 243.101 308.823 238.928 308.823 233.782C308.823 228.635 304.651 224.463 299.505 224.463C294.358 224.463 290.186 228.635 290.186 233.782C290.186 238.928 294.358 243.101 299.505 243.101Z" fill="#A5A5A5"/>
<path d="M297.984 166.417V165.234C294.467 164.711 292.27 163.11 291.296 160.406C290.95 159.432 291.224 158.909 292.198 158.563L295.417 157.412C296.463 157.026 296.913 157.131 297.437 158.145C297.96 159.159 298.966 159.851 300.881 159.851C303.038 159.851 304.22 159.464 304.22 158.177C304.22 156.889 302.724 156.648 300.808 156.398C297.018 155.875 291.377 155.247 291.377 148.842C291.377 145.148 293.638 142.75 297.992 141.985V140.827C297.992 139.821 298.306 139.507 299.312 139.507H302.869C303.883 139.507 304.229 139.821 304.229 140.827V142.01C307.222 142.533 309.057 143.925 310.216 146.259C310.707 147.232 310.425 147.723 309.411 148.174L306.031 149.671C305.09 150.089 304.711 149.952 304.188 148.938C303.561 147.788 302.828 147.232 301.058 147.232C298.966 147.232 298.169 147.723 298.169 148.842C298.169 149.96 299.738 150.339 301.758 150.62C305.548 151.111 310.948 151.699 310.948 158.177C310.948 162.007 308.534 164.405 304.229 165.21V166.466C304.229 167.439 303.883 167.785 302.869 167.785H299.287C298.282 167.785 297.968 167.439 297.968 166.466L297.984 166.417Z" fill="white"/>
<path d="M366.443 186.036C366.443 186.036 359.087 159.392 350.927 156.889C344.2 154.829 337.561 166.819 345.182 184.065C346.741 187.544 347.534 191.318 347.507 195.13C347.481 198.943 346.636 202.705 345.029 206.163C342.317 211.957 340.49 219.61 343.419 227.762C349.503 244.903 366.185 242.996 372.897 228.116C379.608 213.236 378.425 206.179 366.459 186.028L366.443 186.036Z" fill="#F4A28C"/>
<path d="M339.581 229.556L347.556 339.998H406.132L376.47 218.371L339.581 229.556Z" fill="#6584DB"/>
<g opacity="0.1">
<path d="M371.931 339.999L357.188 224.221L339.581 229.557L347.556 339.999H371.931Z" fill="#000001"/>
</g>
<path d="M323.526 143.683C331.215 143.683 337.448 137.45 337.448 129.761C337.448 122.072 331.215 115.839 323.526 115.839C315.837 115.839 309.604 122.072 309.604 129.761C309.604 137.45 315.837 143.683 323.526 143.683Z" fill="#6584DB"/>
<path d="M322.335 135.933C322.14 135.933 321.948 135.885 321.775 135.794C321.603 135.703 321.455 135.571 321.345 135.41L317.684 130.026C317.53 129.764 317.482 129.453 317.549 129.156C317.616 128.86 317.794 128.6 318.045 128.429C318.297 128.258 318.604 128.189 318.904 128.236C319.205 128.283 319.476 128.443 319.663 128.682L322.255 132.489L326.898 124.441C326.97 124.295 327.072 124.164 327.197 124.059C327.322 123.953 327.467 123.873 327.624 123.826C327.78 123.778 327.945 123.763 328.108 123.782C328.27 123.8 328.427 123.851 328.569 123.933C328.711 124.014 328.835 124.124 328.933 124.255C329.031 124.386 329.101 124.536 329.139 124.695C329.177 124.854 329.182 125.02 329.154 125.181C329.125 125.342 329.064 125.496 328.974 125.632L323.341 135.346C323.239 135.52 323.095 135.665 322.922 135.769C322.749 135.873 322.553 135.933 322.351 135.941L322.335 135.933Z" fill="white"/>
</svg>
