<svg width="34" height="36" viewBox="0 0 34 36" fill="none" xmlns="http://www.w3.org/2000/svg">
<rect width="34" height="36" fill="#505051"/>
<g id="Designs">
<path d="M-1145 -1881C-1145 -1882.1 -1144.1 -1883 -1143 -1883H30940C30941.1 -1883 30942 -1882.1 30942 -1881V28051C30942 28052.1 30941.1 28053 30940 28053H-1143C-1144.1 28053 -1145 28052.1 -1145 28051V-1881Z" fill="black"/>
<path d="M-1143 -1883V-1882H30940V-1883V-1884H-1143V-1883ZM30942 -1881H30941V28051H30942H30943V-1881H30942ZM30940 28053V28052H-1143V28053V28054H30940V28053ZM-1145 28051H-1144V-1881H-1145H-1146V28051H-1145ZM-1143 28053V28052C-1143.55 28052 -1144 28051.6 -1144 28051H-1145H-1146C-1146 28052.7 -1144.66 28054 -1143 28054V28053ZM30942 28051H30941C30941 28051.6 30940.6 28052 30940 28052V28053V28054C30941.7 28054 30943 28052.7 30943 28051H30942ZM30940 -1883V-1882C30940.6 -1882 30941 -1881.55 30941 -1881H30942H30943C30943 -1882.66 30941.7 -1884 30940 -1884V-1883ZM-1143 -1883V-1884C-1144.66 -1884 -1146 -1882.66 -1146 -1881H-1145H-1144C-1144 -1881.55 -1143.55 -1882 -1143 -1882V-1883Z" fill="white" fill-opacity="0.1"/>
<g id="homepage" clip-path="url(#clip0_5638_54334)">
<rect width="1440" height="7398" transform="translate(-152.133 -91)" fill="#F8F9FB"/>
<g id="web containers">
<g id="container 1">
<g id="Frame 1000010232">
<g clip-path="url(#clip1_5638_54334)">
<rect x="-128.133" y="-64" width="1392" height="791" rx="16" fill="url(#paint0_linear_5638_54334)"/>
<path id="Vector 8" d="M-198.953 221.542C-198.953 221.542 25.9561 -52.2559 185.526 12.1938C381.714 91.4332 -60.4266 323.531 34.0153 502.189C174.292 767.554 530.103 12.9733 778.536 197.27C1058.8 405.179 170.864 837.449 170.864 837.449" stroke="#67686D" stroke-opacity="0.07" stroke-width="30"/>
<g id="Web-nav-bar">
<g clip-path="url(#clip2_5638_54334)">
<rect x="-40" y="-24" width="1216" height="84" rx="12" fill="white"/>
<g id="logo">
<g id="ICON">
<path id="Vector" d="M22.2598 0.253906L19.8298 7.95885H2.0648L0.306497 4.44225C0.085433 4.00128 -0.0190935 3.51106 0.00286584 3.01827C0.0248252 2.52548 0.17254 2.0465 0.431951 1.62694C0.691361 1.20737 1.05383 0.861183 1.48487 0.621316C1.9159 0.381448 2.40116 0.255887 2.89444 0.256583L22.2598 0.253906Z" fill="#FCDE2F"/>
<path id="Vector_2" d="M13.0137 29.8672L14.9433 23.752H25.5359L20.3359 34.1492C20.0953 34.6298 19.7256 35.034 19.2683 35.3164C18.811 35.5989 18.2841 35.7485 17.7466 35.7485C17.2091 35.7485 16.6823 35.5989 16.225 35.3164C15.7677 35.034 15.398 34.6298 15.1574 34.1492L13.0137 29.8672Z" fill="#FCDE2F"/>
<path id="Vector_3" d="M17.4347 15.8513L14.9431 23.7436H9.95725L6.00977 15.8513H17.3437L19.83 7.95898H33.428L29.4805 15.8513H17.4347Z" fill="#6584DB"/>
</g>
</g>
</g>
</g>
</g>
</g>
</g>
</g>
</g>
</g>
<defs>
<linearGradient id="paint0_linear_5638_54334" x1="-128.133" y1="-57.064" x2="1220.1" y2="789.751" gradientUnits="userSpaceOnUse">
<stop stop-color="#F0F3FB"/>
<stop offset="1" stop-color="#D1DAF4"/>
</linearGradient>
<clipPath id="clip0_5638_54334">
<rect width="1440" height="7398" fill="white" transform="translate(-152.133 -91)"/>
</clipPath>
<clipPath id="clip1_5638_54334">
<rect x="-128.133" y="-64" width="1392" height="791" rx="16" fill="white"/>
</clipPath>
<clipPath id="clip2_5638_54334">
<rect x="-40" y="-24" width="1216" height="84" rx="12" fill="white"/>
</clipPath>
</defs>
</svg>
