<svg preserveAspectRatio="none" width="100%" height="100%" overflow="visible" style="display: block;" viewBox="0 0 20 20" fill="none" xmlns="http://www.w3.org/2000/svg">
<g id="instagram-fill">
<path id="Vector" d="M10.8568 1.66728C11.7946 1.66883 12.2698 1.67379 12.6805 1.68602L12.8422 1.6913C13.0291 1.69794 13.2134 1.70628 13.4357 1.71669C14.3224 1.75767 14.9273 1.89794 15.4586 2.10419C16.0078 2.316 16.4717 2.60211 16.9349 3.06531C17.3974 3.5285 17.6836 3.99377 17.8961 4.54169C18.1016 5.07225 18.2419 5.67781 18.2836 6.56461C18.2935 6.78683 18.3015 6.97117 18.3081 7.15803L18.3133 7.31977C18.3255 7.73039 18.3311 8.20572 18.3328 9.14358L18.3335 9.76492C18.3336 9.84083 18.3336 9.91917 18.3336 10L18.3335 10.2351L18.333 10.8565C18.3314 11.7943 18.3265 12.2697 18.3143 12.6803L18.3089 12.842C18.3023 13.0289 18.294 13.2132 18.2836 13.4354C18.2426 14.3222 18.1016 14.9271 17.8961 15.4583C17.6843 16.0077 17.3974 16.4716 16.9349 16.9347C16.4717 17.3972 16.0058 17.6833 15.4586 17.8958C14.9273 18.1014 14.3224 18.2417 13.4357 18.2833C13.2134 18.2932 13.0291 18.3013 12.8422 18.3078L12.6805 18.3131C12.2698 18.3253 11.7946 18.3308 10.8568 18.3327L10.2353 18.3333C10.1594 18.3333 10.0811 18.3333 10.0003 18.3333H9.76517L9.14375 18.3327C8.20592 18.3312 7.7306 18.3263 7.31998 18.314L7.15824 18.3088C6.97137 18.3021 6.78703 18.2937 6.56482 18.2833C5.67801 18.2424 5.07384 18.1014 4.5419 17.8958C3.99328 17.6841 3.5287 17.3972 3.06551 16.9347C2.60232 16.4716 2.3169 16.0056 2.1044 15.4583C1.89815 14.9271 1.75857 14.3222 1.7169 13.4354C1.707 13.2132 1.69892 13.0289 1.69238 12.842L1.68714 12.6803C1.67495 12.2697 1.66939 11.7943 1.66759 10.8565L1.66748 9.14358C1.66903 8.20572 1.67399 7.73039 1.68622 7.31977L1.69151 7.15803C1.69815 6.97117 1.70648 6.78683 1.7169 6.56461C1.75787 5.67711 1.89815 5.07294 2.1044 4.54169C2.3162 3.99308 2.60232 3.5285 3.06551 3.06531C3.5287 2.60211 3.99398 2.31669 4.5419 2.10419C5.07315 1.89794 5.67732 1.75836 6.56482 1.71669C6.78703 1.7068 6.97137 1.69873 7.15824 1.69218L7.31998 1.68694C7.7306 1.67474 8.20592 1.66918 9.14375 1.66738L10.8568 1.66728ZM10.0003 5.83336C7.69782 5.83336 5.83357 7.69963 5.83357 10C5.83357 12.3024 7.69984 14.1667 10.0003 14.1667C12.3027 14.1667 14.1669 12.3004 14.1669 10C14.1669 7.69761 12.3006 5.83336 10.0003 5.83336ZM10.0003 7.50002C11.381 7.50002 12.5003 8.61892 12.5003 10C12.5003 11.3807 11.3813 12.5 10.0003 12.5C8.6195 12.5 7.50023 11.3812 7.50023 10C7.50023 8.61925 8.61908 7.50002 10.0003 7.50002ZM14.3752 4.58336C13.8008 4.58336 13.3336 5.04995 13.3336 5.62432C13.3336 6.19869 13.8002 6.666 14.3752 6.666C14.9496 6.666 15.4169 6.19942 15.4169 5.62432C15.4169 5.04995 14.9488 4.58264 14.3752 4.58336Z" fill="var(--fill-0, black)"/>
</g>
</svg>
