<svg width="156" height="154" viewBox="0 0 156 154" fill="none" xmlns="http://www.w3.org/2000/svg">
<path d="M78 153.951C121.078 153.951 156 119.498 156 76.9986C156 34.4988 121.078 0.0458984 78 0.0458984C34.9218 0.0458984 0 34.4988 0 76.9986C0 119.498 34.9218 153.951 78 153.951Z" fill="#D8DDEF"/>
<mask id="mask0_10077_7671" style="mask-type:luminance" maskUnits="userSpaceOnUse" x="0" y="0" width="156" height="154">
<path d="M78 153.954C121.078 153.954 156 119.501 156 77.0016C156 34.5017 121.078 0.0488281 78 0.0488281C34.9218 0.0488281 0 34.5017 0 77.0016C0 119.501 34.9218 153.954 78 153.954Z" fill="white"/>
</mask>
<g mask="url(#mask0_10077_7671)">
<path fill-rule="evenodd" clip-rule="evenodd" d="M34.937 12.8291L117.238 126.546L87.6794 174.076L-26.1758 142.553L34.937 12.8291Z" fill="#C8CBD9"/>
</g>
<rect x="44.5" y="24" width="67" height="106" rx="6" fill="white"/>
<path fill-rule="evenodd" clip-rule="evenodd" d="M97.1226 105.787C96.777 100.936 100.482 97.0782 104.937 96.7333C109.821 96.3555 113.79 100.065 114.123 104.444C114.49 109.281 110.715 113.152 106.295 113.491C101.393 113.865 97.4287 110.082 97.1226 105.787ZM108.309 80.3156C108.834 79.9312 108.942 80.3144 109.343 80.6636L111.24 82.322C111.568 82.6066 111.852 82.7527 112.172 83.0396L117.858 87.9301C120.63 90.8657 118.334 93.7471 116.064 93.9543C113.695 94.1697 112.779 92.381 111.77 91.3072C111.485 91.0037 111.174 90.7036 110.923 90.3812L108.472 87.6413C107.943 87.0481 107.39 86.2942 106.841 85.7138C104.566 83.3114 104.777 83.7078 106.53 81.979C107.136 81.3812 107.64 80.8043 108.309 80.3156ZM103.527 79.968C103.817 80.5151 104.759 81.2846 105.208 81.752C105.603 81.5896 105.699 81.4091 106.032 81.08C106.349 80.7668 106.529 80.6381 106.759 80.2676C106.577 79.821 105.515 78.7817 105.071 78.598C104.454 79.0814 104.285 79.6192 103.527 79.968ZM91.4049 54.7379C83.314 55.9999 78.1864 63.1934 79.3399 70.7685C80.4106 77.7957 87.1344 83.9301 95.7352 82.6019C102.664 81.5316 108.892 75.021 107.648 66.5995C106.61 59.5727 99.8916 53.4136 91.4049 54.7379ZM98.1158 111.107C97.9782 110.383 96.6578 109.572 96.1848 106.561C95.3668 101.348 99.0878 96.1301 105.065 95.7152C105.279 93.6365 105.101 90.595 105.101 88.4127C105.101 87.3919 105.365 85.6956 104.842 84.9714C104.179 84.0534 103.634 83.857 104.471 82.4762L102.76 80.7877C101.353 81.3623 99.5392 83.4522 94.4799 83.7689C85.2434 84.3477 76.9146 76.5928 78.2852 66.6038C79.7823 55.6867 92.3945 49.9282 101.948 56.0634C103.677 57.1742 104.214 58.0172 105.08 58.6857L105.073 56.7849C105.06 53.8946 105.081 52.5726 103.565 51.077C102.051 49.5833 100.707 49.5987 97.7787 49.5899H61.4556C58.5275 49.5991 57.1836 49.5833 55.67 51.077C54.1548 52.5714 54.1728 53.8953 54.1618 56.7849L54.1622 106.466L54.1379 108.502C54.2112 110.596 55.1487 111.996 56.404 112.807C58.0591 113.877 59.9239 113.683 62.1434 113.683C67.9419 113.683 100.036 113.913 101.175 113.487C98.1753 111.508 99.6905 112.424 98.1158 111.107ZM53.0625 54.613V108.638C53.0625 111.97 55.8765 114.746 59.2541 114.746H99.9802L101.881 114.449C101.971 114.421 102.448 114.203 102.457 114.203C103.974 114.203 108.241 115.907 112.33 111.863C113.073 111.129 113.887 110.11 114.33 109.085C115.751 105.806 115.51 102.96 113.682 100.007C112.763 98.522 111.521 97.5387 110.021 96.6969C105.284 94.0367 106.172 99.755 106.172 86.6479L107.743 88.3555C107.984 88.6625 108.09 88.7247 108.34 88.9888L109.357 90.1577C109.747 90.636 110.091 90.9523 110.437 91.3989C110.786 91.8493 111.069 92.0666 111.458 92.5635L112.547 93.7969C114.143 95.3962 117.009 95.5164 118.869 93.7459C120.935 91.7805 120.58 88.6663 118.163 86.7639L111.227 80.8472C108.468 78.1974 108.557 79.1521 107.41 79.4541C106.724 78.443 106.172 78.8814 106.172 77.4179C106.172 77.2068 106.879 76.1605 107.046 75.8365C108.441 73.1237 108.629 71.8844 108.887 68.8282C108.927 68.3561 108.815 68.2695 108.788 67.78C108.526 62.8767 106.492 61.0018 106.229 60.1225C105.948 59.1829 106.495 54.9378 105.902 52.8436C105.266 50.599 102.898 48.5049 99.9802 48.5049H59.2541C55.8765 48.5045 53.0625 51.2807 53.0625 54.613Z" fill="#000001"/>
<path fill-rule="evenodd" clip-rule="evenodd" d="M92.183 57.971C98.5914 57.2055 103.619 61.811 104.338 67.2772C104.831 71.0263 103.461 73.4491 101.891 75.6458C100.758 77.2326 97.8275 79.0708 94.8634 79.4134C88.352 80.1655 83.3294 75.6067 82.6177 69.9935C82.0698 65.6695 84.3057 61.3501 88.0631 59.2838C89.3016 58.6025 90.5734 58.1632 92.183 57.971ZM91.4023 54.7378C83.3114 55.9998 78.1839 63.1933 79.3373 70.7684C80.408 77.7956 87.1319 83.93 95.7327 82.6018C102.662 81.5315 108.889 75.0209 107.645 66.5994C106.607 59.5726 99.889 53.4135 91.4023 54.7378Z" fill="#6484C2"/>
<path fill-rule="evenodd" clip-rule="evenodd" d="M91.0562 68.3141C88.2038 66.4832 89.2804 61.237 93.3768 61.1457C97.5108 61.0541 98.9672 66.293 95.9251 68.258L97.967 69.0905C98.9241 69.4953 100.591 70.6043 101.257 71.2724C101.724 71.7395 101.944 72.1668 102.457 72.6644C103.245 71.5817 103.521 69.1883 103.336 67.5898C102.804 63.0064 98.9802 58.912 93.5132 58.8946C88.1427 58.8776 84.1697 62.9317 83.6379 67.5361C83.5042 68.6903 83.6332 71.7569 84.5997 72.7116C85.253 71.3702 87.5274 69.7192 89.1342 69.029C89.7288 68.7738 90.5726 68.6547 91.0562 68.3141Z" fill="#F0F3F6"/>
<path fill-rule="evenodd" clip-rule="evenodd" d="M104.438 99.5193C107.906 98.7231 110.654 101.199 111.283 103.848C112.117 107.363 109.611 110.109 106.911 110.718C99.5092 112.386 96.6885 101.298 104.438 99.5193ZM97.12 105.786C97.4261 110.082 101.39 113.865 106.293 113.49C110.712 113.152 114.487 109.28 114.12 104.443C113.788 100.064 109.819 96.3548 104.935 96.7326C100.48 97.0779 96.7744 100.936 97.12 105.786Z" fill="#FBDD09"/>
<path fill-rule="evenodd" clip-rule="evenodd" d="M85.1056 73.752C87.9141 69.1646 94.2884 67.7916 98.6438 70.591C99.7526 71.3036 101.462 72.6689 101.885 73.9113C101.026 74.7654 100.712 75.7557 98.6274 77.0274C95.5018 78.9344 91.4775 78.9023 88.3684 77.058C87.3286 76.4412 85.4454 74.8714 85.1056 73.752ZM92.5718 62.3145C88.709 63.5159 90.665 69.177 94.4103 67.9772C98.1045 66.7936 96.4957 61.0946 92.5718 62.3145ZM91.0574 68.3113C88.2049 66.4804 89.2815 61.2342 93.3779 61.1429C97.512 61.0513 98.9684 66.2902 95.9262 68.2552L97.9682 69.0877C98.9252 69.4925 100.592 70.6015 101.258 71.2696C101.725 71.7367 101.945 72.164 102.458 72.6616C103.246 71.5789 103.523 69.1855 103.337 67.587C102.805 63.0036 98.9813 58.9092 93.5143 58.8918C88.1438 58.8748 84.1709 62.9289 83.639 67.5333C83.5054 68.6875 83.6343 71.7541 84.6008 72.7088C85.2541 71.3674 87.5285 69.7164 89.1354 69.0262C89.7299 68.771 90.5737 68.6519 91.0574 68.3113ZM92.1865 57.9708C90.5769 58.1629 89.3051 58.6026 88.0666 59.2839C84.3092 61.3502 82.0733 65.6696 82.6212 69.9936C83.3329 75.6068 88.355 80.1656 94.8669 79.4135C97.831 79.0709 100.761 77.2327 101.895 75.6459C103.464 73.4492 104.834 71.0264 104.341 67.2773C103.622 61.8107 98.5952 57.2052 92.1865 57.9708Z" fill="#000001"/>
<path fill-rule="evenodd" clip-rule="evenodd" d="M108.31 80.3151C107.642 80.8039 107.138 81.3808 106.531 81.9785C104.778 83.7073 104.567 83.311 106.842 85.7133C107.392 86.2937 107.944 87.0481 108.473 87.6408L110.924 90.3807C111.176 90.7028 111.486 91.0029 111.771 91.3068C112.78 92.3801 113.696 94.1692 116.065 93.9539C118.335 93.7466 120.631 90.8656 117.859 87.9297L112.173 83.0392C111.854 82.7523 111.569 82.6061 111.241 82.3215L109.344 80.6631C108.943 80.314 108.835 79.9308 108.31 80.3151Z" fill="#FBDD09"/>
<path fill-rule="evenodd" clip-rule="evenodd" d="M98.1181 111.108L98.5182 111.728C98.657 111.868 98.7624 111.949 98.8823 112.017C95.6035 112.177 91.8951 112.028 88.5626 112.028C83.5177 112.028 59.4151 112.362 57.8804 111.664L57.6052 111.488C56.8445 111.314 56.1398 110.797 55.6425 110.303C54.7117 109.378 55.1283 109.906 54.5228 108.966L54.1406 108.502C54.2139 110.596 55.1514 111.995 56.4067 112.806C58.0618 113.877 59.9266 113.682 62.1461 113.682C67.9446 113.682 100.039 113.912 101.178 113.486C98.1776 111.509 99.6928 112.425 98.1181 111.108Z" fill="#EBEFF8"/>
<path fill-rule="evenodd" clip-rule="evenodd" d="M104.873 100.475C107.722 99.9508 109.902 102.009 110.328 104.262C110.857 107.065 108.794 109.337 106.477 109.767C100.464 110.881 98.3146 101.68 104.873 100.475ZM104.439 99.5201C96.6896 101.299 99.5103 112.387 106.912 110.719C109.612 110.11 112.119 107.364 111.285 103.849C110.655 101.2 107.907 98.7239 104.439 99.5201Z" fill="#000001"/>
<path fill-rule="evenodd" clip-rule="evenodd" d="M103.66 79.9772C103.675 79.9884 104.739 81.3035 105.361 81.6449L106.653 80.2703C106.449 79.7997 105.541 78.9092 105.069 78.7051C104.511 79.2681 104.421 79.6447 103.66 79.9772Z" fill="#F0F3F6"/>
<path fill-rule="evenodd" clip-rule="evenodd" d="M103.658 79.9751C104.419 79.6425 104.509 79.2659 105.067 78.7029C105.539 78.9071 106.447 79.7976 106.651 80.2681L105.359 81.6427C104.737 81.3013 103.673 79.9863 103.658 79.9751ZM103.523 79.9681C103.813 80.5152 104.756 81.2847 105.205 81.7521C105.599 81.5897 105.695 81.4092 106.028 81.0801C106.345 80.7669 106.525 80.6382 106.755 80.2678C106.573 79.8212 105.511 78.7818 105.067 78.5981C104.45 79.0815 104.281 79.6193 103.523 79.9681Z" fill="#9B9D9F"/>
<path fill-rule="evenodd" clip-rule="evenodd" d="M66.9927 100.092C66.7246 99.6855 66.959 99.8424 66.3672 99.6572C66.4569 99.7775 66.4001 99.796 66.6529 100.003C66.8873 100.194 66.7756 100.172 66.9927 100.092ZM67.1718 100.412C66.9661 100.278 66.7728 100.525 67.0915 100.149L67.1718 100.412Z" fill="#F3CBD3"/>
<path fill-rule="evenodd" clip-rule="evenodd" d="M60.6973 85.377H67.9401C68.2078 85.377 68.4265 85.5927 68.4265 85.8568V93.0023C68.4265 93.2664 68.2078 93.4822 67.9401 93.4822H60.6973C60.4296 93.4822 60.2109 93.266 60.2109 93.0023V85.8568C60.2109 85.5927 60.4296 85.377 60.6973 85.377Z" fill="#000001"/>
<path fill-rule="evenodd" clip-rule="evenodd" d="M58.168 56.1973C58.168 56.6779 58.4709 56.9018 58.8679 56.9018H75.4119C76.4187 56.9018 76.2341 55.4932 75.5388 55.4932H58.7406C58.4262 55.4932 58.168 55.8106 58.168 56.1973Z" fill="#000001"/>
<path fill-rule="evenodd" clip-rule="evenodd" d="M58.168 61.1704C58.168 61.651 58.4709 61.8749 58.8679 61.8749H75.4119C76.4187 61.8749 76.2341 60.4663 75.5388 60.4663H58.7406C58.4262 60.4663 58.168 60.7838 58.168 61.1704Z" fill="#000001"/>
<path fill-rule="evenodd" clip-rule="evenodd" d="M58.168 66.1441C58.168 66.6247 58.4709 66.8482 58.8679 66.8482H75.4119C76.4187 66.8482 76.2341 65.4399 75.5388 65.4399H58.7406C58.4262 65.4399 58.168 65.7574 58.168 66.1441Z" fill="#000001"/>
<path fill-rule="evenodd" clip-rule="evenodd" d="M58.168 71.1172C58.168 71.5978 58.4709 71.8213 58.8679 71.8213H75.4119C76.4187 71.8213 76.2341 70.4131 75.5388 70.4131H58.7406C58.4262 70.4135 58.168 70.7305 58.168 71.1172Z" fill="#000001"/>
<path fill-rule="evenodd" clip-rule="evenodd" d="M58.168 76.0943C58.168 76.575 58.4709 76.7988 58.8679 76.7988H75.4119C76.4187 76.7988 76.2341 75.3906 75.5388 75.3906H58.7406C58.4262 75.3902 58.168 75.7077 58.168 76.0943Z" fill="#000001"/>
<path fill-rule="evenodd" clip-rule="evenodd" d="M71.3984 87.0763C71.3984 87.5569 71.7978 87.7808 72.3214 87.7808H94.1336C95.461 87.7808 95.2176 86.3726 94.3013 86.3726H72.1533C71.7386 86.3722 71.3984 86.6896 71.3984 87.0763Z" fill="#000001"/>
<path fill-rule="evenodd" clip-rule="evenodd" d="M71.3984 90.5606C71.3984 91.0412 71.6794 91.2647 72.0479 91.2647H87.4007C88.3347 91.2647 88.1638 89.8564 87.5187 89.8564H71.9295C71.6379 89.8564 71.3984 90.1739 71.3984 90.5606Z" fill="#000001"/>
<path fill-rule="evenodd" clip-rule="evenodd" d="M71.3984 97.568C71.3984 98.0486 71.7978 98.2725 72.3214 98.2725H94.1336C95.461 98.2725 95.2176 96.8643 94.3013 96.8643H72.1533C71.7386 96.8639 71.3984 97.1813 71.3984 97.568Z" fill="#000001"/>
<path fill-rule="evenodd" clip-rule="evenodd" d="M71.3984 101.048C71.3984 101.529 71.6794 101.753 72.0479 101.753H87.4007C88.3347 101.753 88.1638 100.344 87.5187 100.344H71.9295C71.6379 100.344 71.3984 100.662 71.3984 101.048Z" fill="#000001"/>
<path fill-rule="evenodd" clip-rule="evenodd" d="M61.2795 86.0249H67.359C67.584 86.0249 67.7674 86.2059 67.7674 86.4278V92.4257C67.7674 92.6473 67.584 92.8286 67.359 92.8286H61.2795C61.0545 92.8286 60.8711 92.6477 60.8711 92.4257V86.4278C60.8711 86.2059 61.0545 86.0249 61.2795 86.0249Z" fill="#FBDD09"/>
<path fill-rule="evenodd" clip-rule="evenodd" d="M60.6973 95.3672H67.9401C68.2078 95.3672 68.4265 95.5833 68.4265 95.847V102.993C68.4265 103.257 68.2078 103.472 67.9401 103.472H60.6973C60.4296 103.472 60.2109 103.257 60.2109 102.993V95.847C60.2109 95.5833 60.4296 95.3672 60.6973 95.3672Z" fill="#000001"/>
<path fill-rule="evenodd" clip-rule="evenodd" d="M61.2795 96.019H67.359C67.584 96.019 67.7674 96.2 67.7674 96.4219V102.42C67.7674 102.642 67.584 102.823 67.359 102.823H61.2795C61.0545 102.823 60.8711 102.642 60.8711 102.42V96.4219C60.8711 96.2 61.0545 96.019 61.2795 96.019Z" fill="#6484C2"/>
</svg>
