<svg preserveAspectRatio="none" width="100%" height="100%" overflow="visible" style="display: block;" viewBox="0 0 20 20" fill="none" xmlns="http://www.w3.org/2000/svg">
<g id="linkedin-fill">
<path id="Vector" d="M5.78373 4.16661C5.78343 4.8452 5.37173 5.45585 4.74278 5.71061C4.11383 5.96537 3.39322 5.81338 2.92075 5.32629C2.44828 4.8392 2.31829 4.11429 2.59208 3.49339C2.86588 2.87249 3.48878 2.47958 4.16707 2.49994C5.06796 2.52698 5.78414 3.26531 5.78373 4.16661ZM5.83373 7.06661H2.5004V17.4999H5.83373V7.06661ZM11.1004 7.06661H7.78373V17.4999H11.0671V12.0249C11.0671 8.97492 15.0421 8.69158 15.0421 12.0249V17.4999H18.3337V10.8916C18.3337 5.74994 12.4504 5.94161 11.0671 8.46658L11.1004 7.06661Z" fill="var(--fill-0, black)"/>
</g>
</svg>
