<svg preserveAspectRatio="none" width="100%" height="100%" overflow="visible" style="display: block;" viewBox="0 0 32 32" fill="none" xmlns="http://www.w3.org/2000/svg">
<g id="Group">
<g id="Vector">
</g>
<path id="Vector_2" d="M23.998 3.99993C25.0589 3.99993 26.0763 4.42136 26.8264 5.1715C27.5766 5.92165 27.998 6.93907 27.998 7.99993V23.9999C27.998 25.0608 27.5766 26.0782 26.8264 26.8284C26.0763 27.5785 25.0589 27.9999 23.998 27.9999H7.998C6.93714 27.9999 5.91972 27.5785 5.16958 26.8284C4.41943 26.0782 3.998 25.0608 3.998 23.9999V7.99993C3.998 6.93907 4.41943 5.92165 5.16958 5.1715C5.91972 4.42136 6.93714 3.99993 7.998 3.99993H23.998ZM23.998 6.6666H7.998C7.64438 6.6666 7.30524 6.80707 7.05519 7.05712C6.80514 7.30717 6.66467 7.64631 6.66467 7.99993V23.9999C6.66467 24.3536 6.80514 24.6927 7.05519 24.9427C7.30524 25.1928 7.64438 25.3333 7.998 25.3333H23.998C24.3516 25.3333 24.6908 25.1928 24.9408 24.9427C25.1909 24.6927 25.3313 24.3536 25.3313 23.9999V7.99993C25.3313 7.64631 25.1909 7.30717 24.9408 7.05712C24.6908 6.80707 24.3516 6.6666 23.998 6.6666ZM10.6647 13.3333C10.9912 13.3333 11.3065 13.4532 11.5505 13.6702C11.7945 13.8872 11.9505 14.1863 11.9887 14.5106L11.998 14.6666V21.3333C11.9976 21.6731 11.8675 22 11.6342 22.2471C11.4009 22.4942 11.0821 22.6429 10.7428 22.6628C10.4036 22.6827 10.0695 22.5724 9.80889 22.3542C9.54829 22.1361 9.38081 21.8267 9.34067 21.4893L9.33134 21.3333V14.6666C9.33134 14.313 9.47181 13.9738 9.72186 13.7238C9.97191 13.4737 10.311 13.3333 10.6647 13.3333ZM14.6647 11.9999C14.9769 11.9999 15.2793 12.1094 15.5191 12.3095C15.7588 12.5095 15.9208 12.7874 15.9767 13.0946C16.245 12.939 16.5224 12.7997 16.8073 12.6773C17.6967 12.2973 19.0287 12.0879 20.2313 12.4653C20.862 12.6653 21.4953 13.0386 21.9647 13.6746C22.3847 14.2413 22.6113 14.9306 22.6567 15.7053L22.6647 15.9999V21.3333C22.6643 21.6731 22.5342 22 22.3009 22.2471C22.0676 22.4942 21.7487 22.6429 21.4095 22.6628C21.0702 22.6827 20.7362 22.5724 20.4756 22.3542C20.215 22.1361 20.0475 21.8267 20.0073 21.4893L19.998 21.3333V15.9999C19.998 15.5599 19.8913 15.3546 19.822 15.2599C19.7225 15.1361 19.5853 15.0481 19.4313 15.0093C18.9673 14.8626 18.2993 14.9399 17.8553 15.1293C17.1887 15.4146 16.578 15.8626 16.162 16.2773L15.998 16.4533V21.3333C15.9976 21.6731 15.8675 22 15.6342 22.2471C15.4009 22.4942 15.0821 22.6429 14.7428 22.6628C14.4036 22.6827 14.0695 22.5724 13.8089 22.3542C13.5483 22.1361 13.3808 21.8267 13.3407 21.4893L13.3313 21.3333V13.3333C13.3313 12.9796 13.4718 12.6405 13.7219 12.3905C13.9719 12.1404 14.311 11.9999 14.6647 11.9999ZM10.6647 9.33327C11.0183 9.33327 11.3574 9.47374 11.6075 9.72379C11.8575 9.97384 11.998 10.313 11.998 10.6666C11.998 11.0202 11.8575 11.3594 11.6075 11.6094C11.3574 11.8595 11.0183 11.9999 10.6647 11.9999C10.311 11.9999 9.97191 11.8595 9.72186 11.6094C9.47181 11.3594 9.33134 11.0202 9.33134 10.6666C9.33134 10.313 9.47181 9.97384 9.72186 9.72379C9.97191 9.47374 10.311 9.33327 10.6647 9.33327Z" fill="var(--fill-0, white)"/>
</g>
</svg>
