<svg preserveAspectRatio="none" width="100%" height="100%" overflow="visible" style="display: block;" viewBox="0 0 20 20" fill="none" xmlns="http://www.w3.org/2000/svg">
<g id="Group">
<g id="Vector">
</g>
<path id="Vector_2" d="M5.6 13.8667C5.81217 13.8048 6.04024 13.8297 6.23403 13.936C6.42781 14.0423 6.57145 14.2212 6.63333 14.4333C6.69522 14.6455 6.67028 14.8736 6.56401 15.0674C6.45774 15.2611 6.27884 15.4048 6.06667 15.4667C5.65 15.5883 5.35 15.7167 5.1575 15.8333C5.35583 15.9525 5.66917 16.0858 6.10417 16.21C7.06667 16.485 8.44417 16.6667 10 16.6667C11.5558 16.6667 12.9333 16.485 13.8958 16.21C14.3317 16.0858 14.6442 15.9525 14.8425 15.8333C14.6508 15.7167 14.3508 15.5883 13.9342 15.4667C13.7253 15.4021 13.5502 15.258 13.4467 15.0655C13.3431 14.873 13.3192 14.6475 13.3804 14.4376C13.4415 14.2277 13.5826 14.0503 13.7733 13.9435C13.9641 13.8367 14.1891 13.8091 14.4 13.8667C14.9567 14.0292 15.4667 14.2375 15.8583 14.505C16.2208 14.7542 16.6667 15.1883 16.6667 15.8333C16.6667 16.4858 16.21 16.9233 15.8417 17.1725C15.4433 17.4408 14.9225 17.65 14.3533 17.8125C13.205 18.1417 11.6667 18.3333 10 18.3333C8.33333 18.3333 6.795 18.1417 5.64667 17.8125C5.0775 17.65 4.55667 17.4408 4.15833 17.1725C3.79 16.9225 3.33333 16.4858 3.33333 15.8333C3.33333 15.1883 3.77917 14.7542 4.14167 14.505C4.53333 14.2375 5.04333 14.0292 5.6 13.8667ZM10 1.66667C11.6576 1.66667 13.2473 2.32515 14.4194 3.49725C15.5915 4.66935 16.25 6.25906 16.25 7.91667C16.25 10.0567 15.0833 11.7967 13.875 13.0333C13.3625 13.5567 12.825 14.0075 12.3308 14.3792C11.8358 14.7508 10.7042 15.4475 10.7042 15.4475C10.4895 15.5695 10.2469 15.6336 10 15.6336C9.75312 15.6336 9.51047 15.5695 9.29583 15.4475C8.73397 15.1222 8.19089 14.7656 7.66917 14.3792C7.12128 13.9701 6.60509 13.5202 6.125 13.0333C4.91667 11.7967 3.75 10.0567 3.75 7.91667C3.75 6.25906 4.40848 4.66935 5.58058 3.49725C6.75268 2.32515 8.3424 1.66667 10 1.66667ZM10 3.33333C8.78442 3.33333 7.61864 3.81622 6.75909 4.67576C5.89955 5.5353 5.41667 6.70109 5.41667 7.91667C5.41667 9.43 6.24667 10.7733 7.31667 11.8667C8.12167 12.69 9.00833 13.3167 9.6225 13.7017L10 13.93L10.3775 13.7017C10.9908 13.3167 11.8783 12.69 12.6833 11.8675C13.7533 10.7733 14.5833 9.43083 14.5833 7.91667C14.5833 6.70109 14.1004 5.5353 13.2409 4.67576C12.3814 3.81622 11.2156 3.33333 10 3.33333ZM10 5.41667C10.3283 5.41667 10.6534 5.48133 10.9567 5.60697C11.26 5.7326 11.5356 5.91675 11.7678 6.1489C11.9999 6.38105 12.1841 6.65664 12.3097 6.95996C12.4353 7.26327 12.5 7.58836 12.5 7.91667C12.5 8.24497 12.4353 8.57006 12.3097 8.87338C12.1841 9.17669 11.9999 9.45229 11.7678 9.68443C11.5356 9.91658 11.26 10.1007 10.9567 10.2264C10.6534 10.352 10.3283 10.4167 10 10.4167C9.33696 10.4167 8.70107 10.1533 8.23223 9.68443C7.76339 9.21559 7.5 8.57971 7.5 7.91667C7.5 7.25363 7.76339 6.61774 8.23223 6.1489C8.70107 5.68006 9.33696 5.41667 10 5.41667ZM10 7.08333C9.77899 7.08333 9.56702 7.17113 9.41074 7.32741C9.25446 7.48369 9.16667 7.69565 9.16667 7.91667C9.16667 8.13768 9.25446 8.34964 9.41074 8.50592C9.56702 8.6622 9.77899 8.75 10 8.75C10.221 8.75 10.433 8.6622 10.5893 8.50592C10.7455 8.34964 10.8333 8.13768 10.8333 7.91667C10.8333 7.69565 10.7455 7.48369 10.5893 7.32741C10.433 7.17113 10.221 7.08333 10 7.08333Z" fill="var(--fill-0, #464646)"/>
</g>
</svg>
