<svg width="116" height="41" viewBox="0 0 116 41" fill="none" xmlns="http://www.w3.org/2000/svg">
<path d="M20.6578 4.03027L18.4027 11.1807H1.9162L0.284439 7.91719C0.0792846 7.50795 -0.0177194 7.05302 0.00265959 6.59569C0.0230386 6.13836 0.160123 5.69386 0.400864 5.30449C0.641605 4.91512 0.977992 4.59385 1.37801 4.37124C1.77802 4.14864 2.22835 4.03211 2.68613 4.03276L20.6578 4.03027Z" fill="black"/>
<path d="M12.0768 31.5121L13.8676 25.8369H23.6979L18.8721 35.4859C18.6488 35.9319 18.3057 36.307 17.8813 36.5691C17.457 36.8312 16.968 36.9701 16.4692 36.9701C15.9704 36.9701 15.4814 36.8312 15.057 36.5691C14.6326 36.307 14.2896 35.9319 14.0662 35.4859L12.0768 31.5121Z" fill="black"/>
<path d="M16.1799 18.505L13.8676 25.8292H9.24054L5.57715 18.505H16.0954L18.4027 11.1807H31.0222L27.3588 18.505H16.1799Z" fill="black"/>
<path d="M39.4666 16.5908H43.423L46.0383 23.4979C46.6766 25.2935 47.1957 26.8433 47.377 27.6654C47.7553 26.248 48.2231 24.856 48.7778 23.4979L51.5098 16.5908H55.3445L49.0758 31.6219H45.4248L39.4666 16.5908Z" fill="black"/>
<path d="M55.8687 24.1063C55.8687 19.3874 58.9409 16.1338 63.3519 16.1338C67.8572 16.1338 70.7159 19.1465 70.7159 23.8331V24.9582L59.3979 24.988C59.6711 27.6356 61.0719 28.9743 63.5357 28.9743C65.5748 28.9743 66.9135 28.182 67.3382 26.7539H70.778C70.1372 30.0398 67.4003 32.0167 63.4736 32.0167C59.0005 32.0118 55.8687 28.7607 55.8687 24.1063ZM59.4873 22.6161H67.0352C67.0352 20.5472 65.6046 19.1787 63.3842 19.1787C61.1638 19.1787 59.8524 20.3634 59.4873 22.6136V22.6161Z" fill="black"/>
<path d="M73.7584 31.6219V8.9834H77.4416V31.6219H73.7584Z" fill="black"/>
<path d="M88.479 16.1636C93.1334 16.1636 96.5112 19.3923 96.5112 24.0765C96.5112 28.7607 93.1408 31.9869 88.479 31.9869C83.8172 31.9869 80.4469 28.7582 80.4469 24.0765C80.4469 19.3948 83.8296 16.1636 88.479 16.1636ZM88.479 28.6688C91.0347 28.6688 92.8006 26.8135 92.8006 24.0765C92.8006 21.3395 91.0347 19.4817 88.479 19.4817C85.9234 19.4817 84.1575 21.337 84.1575 24.0765C84.1575 26.816 85.9308 28.6688 88.479 28.6688Z" fill="black"/>
<path d="M97.1891 31.6219L102.363 24.2579L97.1891 16.5908H101.511L104.826 21.7022L108.02 16.5908H112.19L107.079 24.1982L112.046 31.6219H107.777L104.583 26.6546L101.419 31.6219H97.1891Z" fill="black"/>
</svg>
