<svg preserveAspectRatio="none" width="100%" height="100%" overflow="visible" style="display: block;" viewBox="0 0 24 24" fill="none" xmlns="http://www.w3.org/2000/svg">
<g id="Group">
<g id="Vector">
</g>
<path id="Vector_2" d="M20 4C20.5046 3.99984 20.9906 4.19041 21.3605 4.5335C21.7305 4.87659 21.9572 5.34684 21.995 5.85L22 6V18C22.0002 18.5046 21.8096 18.9906 21.4665 19.3605C21.1234 19.7305 20.6532 19.9572 20.15 19.995L20 20H4C3.49542 20.0002 3.00943 19.8096 2.63945 19.4665C2.26947 19.1234 2.04284 18.6532 2.005 18.15L2 18V6C1.99984 5.49542 2.19041 5.00943 2.5335 4.63945C2.87659 4.26947 3.34684 4.04284 3.85 4.005L4 4H20ZM20 7.414L13.06 14.354C12.7787 14.6349 12.3975 14.7927 12 14.7927C11.6025 14.7927 11.2213 14.6349 10.94 14.354L4 7.414V18H20V7.414ZM18.586 6H5.414L12 12.586L18.586 6Z" fill="var(--fill-0, #6584DB)"/>
</g>
</svg>
