<svg preserveAspectRatio="none" width="100%" height="100%" overflow="visible" style="display: block;" viewBox="0 0 32 32" fill="none" xmlns="http://www.w3.org/2000/svg">
<g id="Group">
<g id="Vector">
</g>
<path id="Vector_2" fill-rule="evenodd" clip-rule="evenodd" d="M12.5623 2.66662C13.0323 2.66677 13.494 2.79116 13.9004 3.02718C14.3069 3.26321 14.6438 3.60248 14.8769 4.01062L16.0023 5.97862L17.1276 4.01062C17.3607 3.60248 17.6976 3.26321 18.1041 3.02718C18.5106 2.79116 18.9722 2.66677 19.4423 2.66662H25.5196C25.87 2.6665 26.2142 2.75841 26.5178 2.93316C26.8215 3.10791 27.0739 3.35935 27.2499 3.66233C27.4258 3.96531 27.519 4.30918 27.5203 4.65953C27.5215 5.00988 27.4307 5.3544 27.2569 5.65862L22.7476 13.5493C24.0112 14.8706 24.8589 16.5338 25.1855 18.3327C25.5121 20.1315 25.3032 21.9866 24.5847 23.6677C23.8663 25.3489 22.67 26.782 21.1442 27.7892C19.6184 28.7964 17.8305 29.3333 16.0023 29.3333C14.174 29.3333 12.3861 28.7964 10.8603 27.7892C9.33458 26.782 8.13823 25.3489 7.41979 23.6677C6.70136 21.9866 6.49247 20.1315 6.81907 18.3327C7.14567 16.5338 7.99337 14.8706 9.25693 13.5493L4.7476 5.65862C4.57383 5.3544 4.48302 5.00988 4.48426 4.65953C4.4855 4.30918 4.57875 3.96531 4.75468 3.66233C4.9306 3.35935 5.18303 3.10791 5.48669 2.93316C5.79035 2.75841 6.13458 2.6665 6.48493 2.66662H12.5623ZM16.0023 13.3333C14.2342 13.3333 12.5385 14.0357 11.2882 15.2859C10.038 16.5362 9.3356 18.2318 9.3356 20C9.3356 21.7681 10.038 23.4638 11.2882 24.714C12.5385 25.9642 14.2342 26.6666 16.0023 26.6666C17.7704 26.6666 19.4661 25.9642 20.7163 24.714C21.9666 23.4638 22.6689 21.7681 22.6689 20C22.6689 18.2318 21.9666 16.5362 20.7163 15.2859C19.4661 14.0357 17.7704 13.3333 16.0023 13.3333ZM16.0023 17.3333C16.7095 17.3333 17.3878 17.6142 17.8879 18.1143C18.388 18.6144 18.6689 19.2927 18.6689 20C18.6689 20.7072 18.388 21.3855 17.8879 21.8856C17.3878 22.3857 16.7095 22.6666 16.0023 22.6666C15.295 22.6666 14.6167 22.3857 14.1166 21.8856C13.6166 21.3855 13.3356 20.7072 13.3356 20C13.3356 19.2927 13.6166 18.6144 14.1166 18.1143C14.6167 17.6142 15.295 17.3333 16.0023 17.3333ZM24.3716 5.33329H19.4423L17.5383 8.66662L18.9516 11.1426C19.5383 11.3373 20.0983 11.5893 20.6249 11.8893L24.3716 5.33329ZM12.5623 5.33329H7.63293L11.3796 11.8893C12.6732 11.1504 14.1257 10.7338 15.6143 10.6746L12.5623 5.33329Z" fill="var(--fill-0, white)"/>
</g>
</svg>
