<svg preserveAspectRatio="none" width="100%" height="100%" overflow="visible" style="display: block;" viewBox="0 0 66 66" fill="none" xmlns="http://www.w3.org/2000/svg">
<g id="Group">
<g id="Vector">
</g>
<path id="Vector_2" d="M51.945 8.20184C54.0371 8.20173 56.0501 9.00104 57.5722 10.4363C59.0943 11.8715 60.0104 13.8341 60.1332 15.9225L60.1469 16.4037V43.7432C60.147 45.8352 59.3476 47.8482 57.9124 49.3703C56.4772 50.8925 54.5146 51.8086 52.4262 51.9313L51.945 51.945H41.8376L34.702 56.7021C34.1986 57.0373 33.6152 57.2329 33.0114 57.2689C32.4077 57.305 31.8052 57.1801 31.2654 56.9071L30.91 56.7021L23.7799 51.945H13.6697C11.5777 51.9451 9.56468 51.1458 8.04256 49.7106C6.52045 48.2754 5.6043 46.3128 5.48157 44.2243L5.4679 43.7432V16.4037C5.46778 14.3116 6.2671 12.2986 7.70231 10.7765C9.13752 9.25439 11.1001 8.33825 13.1886 8.21551L13.6697 8.20184H51.945ZM51.945 13.6697H13.6697C13.0001 13.6698 12.3538 13.9157 11.8534 14.3606C11.353 14.8056 11.0333 15.4188 10.9549 16.0838L10.9358 16.4037V43.7432C10.9359 44.4128 11.1817 45.0591 11.6267 45.5595C12.0717 46.0599 12.6848 46.3796 13.3499 46.458L13.6697 46.4771H23.7771C24.6997 46.4769 25.6073 46.7102 26.4154 47.1551L26.8118 47.3957L32.8074 51.3928L38.8029 47.3957C39.5708 46.8836 40.4558 46.5741 41.3756 46.4962L41.8376 46.4771H51.945C52.6146 46.477 53.261 46.2312 53.7614 45.7862C54.2618 45.3412 54.5815 44.7281 54.6598 44.063L54.679 43.7432V16.4037C54.6789 15.7341 54.433 15.0877 53.988 14.5873C53.5431 14.0869 52.9299 13.7672 52.2649 13.6889L51.945 13.6697ZM23.2386 27.3395C24.3262 27.3395 25.3693 27.7715 26.1383 28.5406C26.9074 29.3097 27.3395 30.3528 27.3395 31.4404C27.3395 32.528 26.9074 33.5711 26.1383 34.3402C25.3693 35.1093 24.3262 35.5413 23.2386 35.5413C22.1509 35.5413 21.1078 35.1093 20.3388 34.3402C19.5697 33.5711 19.1376 32.528 19.1376 31.4404C19.1376 30.3528 19.5697 29.3097 20.3388 28.5406C21.1078 27.7715 22.1509 27.3395 23.2386 27.3395ZM42.3762 27.3395C43.4638 27.3395 44.5069 27.7715 45.276 28.5406C46.045 29.3097 46.4771 30.3528 46.4771 31.4404C46.4771 32.528 46.045 33.5711 45.276 34.3402C44.5069 35.1093 43.4638 35.5413 42.3762 35.5413C41.2886 35.5413 40.2455 35.1093 39.4764 34.3402C38.7073 33.5711 38.2753 32.528 38.2753 31.4404C38.2753 30.3528 38.7073 29.3097 39.4764 28.5406C40.2455 27.7715 41.2886 27.3395 42.3762 27.3395Z" fill="var(--fill-0, #6584DB)"/>
</g>
</svg>
