<svg width="912" height="758" viewBox="0 0 912 758" fill="none" xmlns="http://www.w3.org/2000/svg">
<g clip-path="url(#clip0_10116_107253)">
<g clip-path="url(#clip1_10116_107253)">
<rect width="912" height="758" rx="16" fill="url(#paint0_linear_10116_107253)"/>
<g opacity="0.36" clip-path="url(#clip2_10116_107253)">
<path d="M493.699 743.265C492.985 747.805 504.775 756.356 509.686 759.419C515.703 763.176 517.944 762.775 524.176 766.268C527.718 768.224 532.151 771.248 543.324 783.585C553.108 794.348 564.976 808.574 564.976 808.574C567.618 811.734 570.847 815.716 576.629 818.143C582.705 820.716 584.222 818.456 589.025 820.315C599.788 824.502 597.655 838.142 609.572 843.875C613.086 845.424 616.886 846.218 620.726 846.204C631.058 846.624 635.774 842.29 640.881 845.039C644.54 846.996 644.198 850.381 646.752 854.364C652.955 863.913 667.083 863.336 682.953 865.606C695.809 867.445 704.644 871.212 722.921 876.847C741.618 882.62 750.072 888.461 770.051 893.167C775.382 894.482 780.79 895.463 786.244 896.103C797.72 897.404 800.92 895.711 815.596 896.23C826.955 896.631 832.738 896.876 837.962 899.351C843.617 902.032 848.099 906.092 854.448 911.845C858.431 915.456 861.513 918.694 863.567 920.866C866.522 921.525 869.533 921.899 872.559 921.982C878.057 922.138 879.232 921.228 879.633 920.866C881.785 918.909 881.12 915.24 880.963 912.843C880.621 907.53 883.067 902.756 887.959 893.187C892.196 884.91 899.025 879.714 917.311 865.214C917.311 865.214 962.749 829.091 973.726 829.629C973.726 829.629 973.893 829.629 973.932 829.571C974.353 828.866 963.893 822.399 955.528 816.421C940.509 805.658 933.025 800.297 928.632 791.599C925.285 784.936 926.557 782.685 921.303 772.285C918.853 767.188 915.836 762.383 912.312 757.961C906.686 751.024 904.768 751.533 895.679 742.639C889.564 736.671 889.896 735.917 880.357 726.006C879.065 724.656 874.731 720.136 869.536 715.185C855.838 702.084 849.048 695.538 841.387 692.036C834.029 688.67 832.072 690.235 815.077 688.034C787.555 684.473 790.167 680.04 772.438 679.042C749.866 677.78 737.098 684.502 725.807 680.021C721.703 678.328 717.222 677.754 712.824 678.357C710.016 678.788 707.589 679.121 706.161 681.019C703.539 684.502 707.022 689.208 706.493 697.505C706.115 700.918 705.29 704.267 704.038 707.465C696.944 726.662 496.497 725.546 493.699 743.265Z" fill="black" stroke="black" stroke-width="0.97841" stroke-miterlimit="10"/>
<path d="M753.495 701.468C753.348 704.403 753.495 710.577 757.663 715.459C758.223 716.117 758.835 716.729 759.493 717.289" stroke="#FADE2A" stroke-width="0.97841" stroke-miterlimit="10"/>
<path d="M801.213 722.2C800.958 732.963 802.71 732.19 802.71 732.19" stroke="#FADE2A" stroke-width="0.97841" stroke-miterlimit="10"/>
<path d="M691.523 815.09C698.574 817.916 706.048 819.54 713.635 819.894C720.841 820.16 728.044 819.319 734.994 817.399C749.152 813.681 787.212 799.788 837.287 778.899L847.922 774.457C849.419 773.478 847.355 774.652 848.852 773.635C848.578 768.381 849.507 763.557 849.233 758.313C761.734 730.096 676.602 699.227 589.103 671.009C579.019 665.646 567.332 664.12 556.209 666.714C553.792 667.282 552.041 667.879 551.63 668.016C546.895 669.61 515.908 678.064 428.869 701.076C429.163 706.8 428.791 713.512 429.495 715.263C432.186 721.985 462.106 730.918 470.246 734.078C581.599 777.01 676.201 809.161 691.523 815.09Z" fill="#4C61A2" stroke="#231F20" stroke-width="0.244602" stroke-miterlimit="10"/>
<path d="M692.04 800.082C705.872 805.659 721.166 806.471 735.511 802.391L843.42 761.542C851.061 758.92 846.512 757.922 845.788 757.56C839.463 754.304 832.701 751.98 825.711 750.662C781.526 734.313 754.414 718.962 712.45 701.468C677.061 686.713 626.858 669.797 589.62 656.001C583.912 652.962 577.641 651.127 571.195 650.612C564.748 650.097 558.265 650.912 552.147 653.007L439.738 692.975C435.658 694.472 428.819 696.84 428.867 700.499C428.926 704.501 437.184 707.348 440.07 708.326C456.459 714.109 555.298 750.516 692.04 800.082Z" fill="#6581D8" stroke="#231F20" stroke-width="0.244602" stroke-miterlimit="10"/>
<path d="M494.043 731.813L477.445 725.926C475.886 725.373 474.175 726.188 473.622 727.746L473.285 728.696C472.733 730.255 473.548 731.966 475.106 732.519L491.704 738.406C493.263 738.959 494.974 738.144 495.527 736.585L495.864 735.636C496.416 734.077 495.601 732.366 494.043 731.813Z" stroke="#FFD61F" stroke-width="0.97841" stroke-miterlimit="10"/>
<path d="M519.332 740.79L502.734 734.902C501.175 734.349 499.464 735.165 498.911 736.723L498.574 737.673C498.022 739.231 498.837 740.943 500.395 741.495L516.993 747.383C518.552 747.936 520.263 747.12 520.816 745.562L521.153 744.612C521.705 743.054 520.89 741.342 519.332 740.79Z" stroke="#FFD61F" stroke-width="0.97841" stroke-miterlimit="10"/>
<path d="M497.387 729.205L692.09 800.081C692.09 800.081 713.165 808.114 730.914 803.535C745.962 799.621 849.947 758.333 849.947 758.333C849.947 758.333 838.03 755.309 813.129 744.928C779.863 731.074 712.5 701.467 712.5 701.467C712.5 701.467 597.811 687.496 497.387 729.205Z" fill="#FADE2A" stroke="#231F20" stroke-width="0.244602" stroke-miterlimit="10"/>
<path d="M637.339 744.928C661.753 744.928 681.544 736.969 681.544 727.151C681.544 717.332 661.753 709.373 637.339 709.373C612.926 709.373 593.135 717.332 593.135 727.151C593.135 736.969 612.926 744.928 637.339 744.928Z" stroke="black" stroke-width="0.97841" stroke-miterlimit="10"/>
<path d="M753.466 516.607L681.553 727.151" stroke="black" stroke-width="0.97841" stroke-miterlimit="10"/>
<path d="M540.662 570.39L593.134 727.151" stroke="black" stroke-width="0.97841" stroke-miterlimit="10"/>
<path d="M481.35 704.432C482.085 704.432 482.681 703.837 482.681 703.102C482.681 702.367 482.085 701.771 481.35 701.771C480.615 701.771 480.02 702.367 480.02 703.102C480.02 703.837 480.615 704.432 481.35 704.432Z" fill="white"/>
<path d="M486.937 709.118C487.342 709.118 487.671 708.79 487.671 708.385C487.671 707.979 487.342 707.651 486.937 707.651C486.532 707.651 486.203 707.979 486.203 708.385C486.203 708.79 486.532 709.118 486.937 709.118Z" fill="white"/>
<path d="M504.315 685.226C504.936 685.226 505.44 684.723 505.44 684.101C505.44 683.48 504.936 682.976 504.315 682.976C503.693 682.976 503.189 683.48 503.189 684.101C503.189 684.723 503.693 685.226 504.315 685.226Z" fill="white"/>
<path d="M532.453 678.064C533.075 678.064 533.578 677.56 533.578 676.939C533.578 676.317 533.075 675.813 532.453 675.813C531.832 675.813 531.328 676.317 531.328 676.939C531.328 677.56 531.832 678.064 532.453 678.064Z" fill="white"/>
<path d="M541.905 664.67C542.596 664.67 543.157 664.109 543.157 663.417C543.157 662.726 542.596 662.165 541.905 662.165C541.213 662.165 540.652 662.726 540.652 663.417C540.652 664.109 541.213 664.67 541.905 664.67Z" fill="white"/>
<path d="M527.815 705.685C528.55 705.685 529.146 705.089 529.146 704.354C529.146 703.619 528.55 703.023 527.815 703.023C527.08 703.023 526.484 703.619 526.484 704.354C526.484 705.089 527.08 705.685 527.815 705.685Z" fill="white"/>
<path d="M533.402 710.362C533.807 710.362 534.136 710.033 534.136 709.628C534.136 709.223 533.807 708.894 533.402 708.894C532.997 708.894 532.668 709.223 532.668 709.628C532.668 710.033 532.997 710.362 533.402 710.362Z" fill="white"/>
<path d="M550.779 686.479C551.401 686.479 551.905 685.975 551.905 685.354C551.905 684.732 551.401 684.229 550.779 684.229C550.158 684.229 549.654 684.732 549.654 685.354C549.654 685.975 550.158 686.479 550.779 686.479Z" fill="white"/>
<path d="M578.918 679.317C579.54 679.317 580.043 678.813 580.043 678.192C580.043 677.57 579.54 677.066 578.918 677.066C578.297 677.066 577.793 677.57 577.793 678.192C577.793 678.813 578.297 679.317 578.918 679.317Z" fill="white"/>
<path d="M588.37 665.912C589.061 665.912 589.622 665.351 589.622 664.66C589.622 663.968 589.061 663.407 588.37 663.407C587.678 663.407 587.117 663.968 587.117 664.66C587.117 665.351 587.678 665.912 588.37 665.912Z" fill="white"/>
<path d="M506.985 715.341C507.72 715.341 508.316 714.746 508.316 714.011C508.316 713.276 507.72 712.68 506.985 712.68C506.25 712.68 505.654 713.276 505.654 714.011C505.654 714.746 506.25 715.341 506.985 715.341Z" fill="white"/>
<path d="M512.572 720.029C512.977 720.029 513.306 719.7 513.306 719.295C513.306 718.89 512.977 718.561 512.572 718.561C512.166 718.561 511.838 718.89 511.838 719.295C511.838 719.7 512.166 720.029 512.572 720.029Z" fill="white"/>
<path d="M529.947 696.135C530.569 696.135 531.073 695.631 531.073 695.01C531.073 694.389 530.569 693.885 529.947 693.885C529.326 693.885 528.822 694.389 528.822 695.01C528.822 695.631 529.326 696.135 529.947 696.135Z" fill="white"/>
<path d="M558.088 688.973C558.71 688.973 559.213 688.47 559.213 687.848C559.213 687.227 558.71 686.723 558.088 686.723C557.467 686.723 556.963 687.227 556.963 687.848C556.963 688.47 557.467 688.973 558.088 688.973Z" fill="white"/>
<path d="M567.549 675.569C568.241 675.569 568.802 675.008 568.802 674.317C568.802 673.625 568.241 673.064 567.549 673.064C566.858 673.064 566.297 673.625 566.297 674.317C566.297 675.008 566.858 675.569 567.549 675.569Z" fill="white"/>
<path d="M524.762 766.17C523.255 763.616 525.985 759.536 526.22 759.203C530.838 752.472 542.305 751.914 549.535 753.215C564.603 755.935 579.709 770.113 576.931 779.447C574.925 786.129 563.477 791.188 555.885 788.36C546.649 784.867 547.686 771.326 537.295 768.273C531.66 766.649 526.464 769.105 524.762 766.17Z" fill="black"/>
<path d="M809.383 798.79L807.808 796.833C810.43 788.312 807.035 775.71 798.366 764.742C789.698 753.774 778.221 747.561 769.327 748.109L767.742 746.152L762.136 750.516C761.96 750.643 761.784 750.76 761.617 750.897C752.811 757.844 755.032 775.279 766.509 789.838C777.986 804.397 794.472 810.58 803.268 803.633C803.503 803.448 803.738 803.242 803.963 803.037L809.383 798.79Z" fill="#6581D8"/>
<path d="M809.383 798.79L803.992 803.046C803.767 803.251 803.542 803.457 803.297 803.653C794.492 810.599 778.054 804.416 766.539 789.857C763.007 785.451 760.227 780.492 758.31 775.181C757.579 773.122 757.026 771.004 756.657 768.85C756.657 768.762 756.657 768.674 756.657 768.586C755.463 761.101 757.058 754.585 761.656 750.975C761.823 750.838 762.008 750.721 762.185 750.593L767.791 746.161L768.104 746.562L769.366 748.167C778.26 747.59 789.737 753.803 798.405 764.8C807.074 775.797 810.469 788.38 807.857 796.892L809.383 798.79Z" fill="#6581D8" stroke="#231F20" stroke-width="0.244602" stroke-miterlimit="10"/>
<path d="M769.942 761.15L756.674 768.517C756.674 768.429 756.674 768.341 756.674 768.253C755.481 760.768 757.056 754.556 761.655 750.906C761.821 750.769 762.007 750.652 762.183 750.525L767.789 746.092L768.102 746.493L769.942 760.876V761.15Z" fill="#1A2446"/>
<path d="M810.04 798.256C818.828 791.31 816.623 773.875 805.114 759.312C793.605 744.75 777.15 738.575 768.362 745.521C759.574 752.466 761.779 769.902 773.288 784.464C784.797 799.027 801.252 805.202 810.04 798.256Z" fill="#F9DB2F" stroke="#231F20" stroke-width="0.244602" stroke-miterlimit="10"/>
<path d="M604.543 548.288C728.431 548.288 828.863 447.857 828.863 323.968C828.863 200.079 728.431 99.6479 604.543 99.6479C480.654 99.6479 380.223 200.079 380.223 323.968C380.223 447.857 480.654 548.288 604.543 548.288Z" fill="#F9DB2F" stroke="#231F20" stroke-width="0.244602" stroke-miterlimit="10"/>
<mask id="mask0_10116_107253" style="mask-type:luminance" maskUnits="userSpaceOnUse" x="380" y="99" width="449" height="450">
<path d="M604.543 548.288C728.431 548.288 828.863 447.857 828.863 323.968C828.863 200.079 728.431 99.6479 604.543 99.6479C480.654 99.6479 380.223 200.079 380.223 323.968C380.223 447.857 480.654 548.288 604.543 548.288Z" fill="white"/>
</mask>
<g mask="url(#mask0_10116_107253)">
<path d="M546.308 232.3C550.144 231.85 553.01 230.226 554.39 226.332C555.662 222.741 559.214 222.898 562.1 222.418C565.182 221.88 566.385 220.814 564.976 217.702C564.53 216.779 564.32 215.76 564.364 214.735C564.409 213.711 564.706 212.713 565.231 211.832C565.62 211.068 566.201 210.418 566.915 209.945C567.63 209.472 568.456 209.192 569.311 209.132C571.356 208.995 570.798 211.04 571.522 212.067C572.246 213.094 572.119 215.198 574.213 214.102C575.974 213.182 575.71 211.627 574.897 210.188C572.999 206.686 571.317 203.76 566.532 207.361C562.941 210.061 558.949 207.85 557.912 203.398C555.613 193.614 558.548 189.642 568.675 188.947C569.487 188.898 570.876 188.781 570.994 188.399C572.628 183.018 578.547 180.337 579.633 174.75C579.975 172.94 581.238 172.647 582.392 172.197C590.131 169.144 597.89 166.903 606.451 166.522C612.009 166.267 616.362 167.5 621.274 169.457C627.546 171.952 634.355 173.077 640.911 174.858C642.506 175.288 644.619 175.474 644.717 177.627C644.815 180.004 642.545 180.386 640.862 181.061C638.572 181.991 636.175 181.511 633.798 181.423C632.594 181.374 630.911 180.014 630.227 181.854C629.542 183.693 630.755 185.131 632.301 186.071C633.582 186.834 634.991 187.401 636.479 188.125C636.674 186.746 634.522 184.212 637.095 184.75C641.185 185.601 643.142 182.949 645.656 181.139C647.31 179.946 649.1 180.092 651.233 179.877C650.832 179.117 650.554 178.298 650.411 177.451C650.411 176.071 647.75 174.173 650.832 173.381C652.789 172.872 655.43 173.019 655.88 175.513C656.419 178.449 657.211 178.126 659.501 177.128C664.393 175.014 668.874 171.316 675.155 173.381C676.427 173.801 683.158 175.504 682.004 168.743C681.799 167.539 683.53 167.843 684.45 168.254C691.299 171.316 699.244 169.995 705.975 174.046C703.734 170.709 698.021 169.623 700.682 164.037C701.592 162.08 701.719 158.832 704.312 159.145C707.726 159.497 711.317 160.72 712.139 165.015C715.71 163.861 712.579 161.424 713.646 159.653C716.581 159.595 716.287 162.696 718.254 164.223C719.575 161.708 721.806 160.847 724.663 161.61C725.287 161.638 725.911 161.549 726.502 161.346C725.201 155.544 729.76 158.636 731.746 158.019C733.126 157.589 734.779 158.205 735.014 155.838C735.181 154.243 736.971 153.979 738.223 153.783C743.888 152.932 749.358 150.544 755.287 151.533C756.125 151.679 756.985 151.627 757.799 151.38C758.613 151.134 759.358 150.7 759.973 150.114C764.572 146.151 768.535 145.721 773.769 148.646C775.114 149.363 776.618 149.73 778.143 149.713C780.011 149.713 781.9 149.644 783.759 149.84C786.762 150.143 790.529 149.84 791.987 152.834C793.67 156.278 788.475 156.033 787.496 159.096C795.695 154.204 803.249 158.704 810.978 159.507C814.37 159.995 817.83 159.659 821.065 158.528C825.83 156.806 831.368 158.91 836.084 161.464C838.168 162.598 840.076 164.056 842.189 165.103C843.804 165.905 845.663 167.755 847.081 164.428C847.717 162.882 849.566 164.33 850.829 164.095C854.273 163.45 858.558 166.258 861.092 161.532C861.376 161.004 863.049 161.023 864.027 161.092C869.614 161.483 875.406 161.19 880.739 162.618C887.987 164.418 895.413 165.402 902.88 165.553C907.537 165.729 912.439 165.945 916.441 169.183C917.987 170.445 920.012 170.083 921.861 170.162C927.458 170.338 933.084 169.858 938.641 171.14C939.952 171.443 941.576 172.03 942.212 169.633C942.848 167.236 945.069 168.596 946.605 168.733C959.325 169.878 971.701 172.97 984 176.404C988.736 177.715 993.637 178.468 998.451 179.505C999.95 179.799 1001.43 180.171 1002.89 180.621C1005.83 181.599 1005.83 184.534 1005.41 186.491C1004.99 188.448 1002.53 187.421 1000.93 187.245C997.013 186.814 994.078 183.644 989.929 183.429C987.718 183.311 986.299 183.634 985.516 185.718C984.538 188.311 986.906 188.399 988.217 189.133C990.311 190.297 993.109 190.385 995.193 193.683C988.344 192.019 984.43 194.661 982.161 199.895C981.662 201.011 980.654 201.666 979.724 201.089C976.036 198.78 972.514 202.4 968.864 201.216C968.615 201.138 968.351 201.118 968.093 201.158C967.835 201.198 967.589 201.296 967.375 201.445C967.16 201.594 966.983 201.791 966.856 202.019C966.729 202.247 966.656 202.501 966.643 202.762C966.555 204.279 966.643 205.942 968.189 206.823C969.95 207.801 971.496 209.141 973.081 210.257C977.327 213.192 977.905 216.92 977.65 221.548C977.496 223.174 977.454 224.808 977.523 226.44C977.67 228.25 978.795 230.51 976.545 231.332C974.588 232.056 973.189 230.05 971.848 228.847C967.416 224.933 962.915 221.019 958.767 216.734C956.037 213.945 954.325 211.088 956.575 206.421C958.317 202.85 961.546 198.173 956.742 193.311C956.057 195.551 956.213 198.105 953.963 198.897C951.438 199.798 950.529 197.264 948.983 196.138C947.163 194.827 944.961 194.182 943.347 195.669C941.733 197.156 940.97 199.426 943.093 201.461C945.49 203.77 943.328 204.132 941.684 204.641C938.925 205.511 936.351 204.132 933.72 203.995C927.79 203.672 921.822 203.995 915.873 204.122C914.924 204.079 913.991 204.383 913.25 204.977C912.508 205.571 912.008 206.415 911.842 207.351C911.49 208.662 910.541 210.286 911.011 211.265C912.41 214.043 904.279 217.448 911.206 218.994C913.917 219.601 915.932 223.26 919.787 220.902C921.744 219.669 924.679 221.88 926.636 223.377C935.148 229.561 939.238 250.127 933.788 258.962C932.428 261.173 930.442 262.328 927.751 261.633C927.348 261.479 926.918 261.411 926.487 261.432C926.056 261.453 925.635 261.563 925.248 261.755C924.862 261.947 924.52 262.217 924.244 262.548C923.967 262.879 923.762 263.264 923.642 263.678C922.575 266.613 922.429 269.822 920.628 272.709C919.435 274.666 922.301 275.752 923.72 276.681C927.272 278.98 930.158 281.72 931.078 286.005C932.056 290.457 928.358 290.897 925.618 291.876C922.585 292.942 922.135 290.897 921.538 288.402C920.628 284.587 919.748 280.428 914.807 279.411C913.055 279.039 912.664 277.454 912.312 275.918C911.647 272.914 908.887 271.632 906.95 273.129C901.148 277.63 900.414 274.167 900.326 268.922C896.97 270.351 895.933 273.628 893.37 275.184C893.231 275.288 893.121 275.425 893.049 275.583C892.978 275.741 892.947 275.915 892.961 276.088C892.975 276.261 893.032 276.427 893.127 276.572C893.223 276.717 893.353 276.835 893.507 276.916C895.757 277.894 897.323 280.497 900.287 279.851C903.076 279.205 905.874 278.628 908.408 280.497C908.124 282.454 906.451 282.512 905.473 283.364C901.657 286.72 901.902 288.481 905.404 292.169C908.907 295.858 911.5 300.31 914.21 304.712C917.723 310.485 915.012 314.497 914.132 319.203C913.075 324.878 909.318 329.075 905.14 332.46C901.227 335.611 896.256 337.294 891.374 338.751C888.282 339.671 886.257 340.953 888.439 344.485C888.696 344.926 888.845 345.422 888.874 345.933C888.903 346.443 888.811 346.952 888.605 347.42C888.371 348.151 887.948 348.807 887.38 349.322C886.811 349.838 886.117 350.194 885.367 350.355C884.875 350.504 884.349 350.488 883.868 350.312C883.386 350.135 882.975 349.807 882.695 349.377C882.464 349.065 882.3 348.709 882.211 348.331C882.123 347.953 882.113 347.561 882.181 347.178C882.25 346.796 882.396 346.432 882.611 346.109C882.825 345.785 883.104 345.509 883.429 345.297C886.208 343.184 884.28 341.1 883.087 339.671C881.688 337.969 879.692 338.957 878.068 340.131C872.95 343.829 872.383 347.146 876.326 351.97C878.586 354.719 881.218 357.155 883.517 359.885C889.29 366.734 888.478 373.925 881.472 379.297C880.807 379.815 880.328 380.559 879.653 381.048C877.265 382.79 875.798 388.993 872.011 381.214C870.309 377.712 866.62 372.986 861.249 371.9C860.27 371.714 859.605 370.423 858.773 369.62C854.615 379.766 855.339 385.02 863.763 391.752C870.446 397.094 870.72 404.97 873.743 411.77C873.855 411.954 873.923 412.162 873.941 412.376C873.96 412.591 873.928 412.807 873.848 413.008C873.768 413.208 873.643 413.387 873.482 413.53C873.321 413.674 873.129 413.778 872.921 413.835C872.599 413.849 872.276 413.798 871.974 413.686C871.671 413.573 871.395 413.401 871.16 413.179C866.327 408.737 859.771 405.861 859.889 397.387C859.889 394.452 857.609 390.539 854.018 388.954C851.611 387.858 852.003 385.852 852.316 384.179C853.871 375.96 851.22 368.417 848.979 360.766C848.001 357.547 847.169 355.874 843.539 358.427C839.626 361.177 837.258 360.071 837.219 355.492C837.18 350.913 834.519 348.369 832.229 345.287C831.766 344.791 831.276 344.32 830.761 343.878C828.325 341.246 821.515 338.751 817.837 338.37C814.647 338.037 813.757 339.289 812.27 341.912C810.049 345.695 807.123 349.017 803.65 351.696C800.421 354.23 798.611 358.114 794.844 360.002C793.132 360.844 793.934 362.644 794.071 364.151C794.551 369.219 794.991 374.375 793.396 379.277C792.623 381.684 794.198 381.068 795.216 381.713C798.689 383.915 801.243 386.791 800.108 391.341C799.668 393.034 798.611 394.609 796.693 394.697C794.58 394.785 793.973 392.985 793.543 391.282C793.407 390.617 793.315 389.944 793.269 389.267C792.623 383.465 792.603 383.396 787.966 386.517C785.353 388.259 783.534 387.026 782.761 384.697C778.045 370.393 769.21 357.537 767.693 342.117C767.488 339.994 766.852 339.436 764.826 340.483C760.551 342.685 758.242 339.652 756.843 336.57C755.346 333.009 752.747 330.022 749.428 328.048C746.108 326.074 742.243 325.216 738.4 325.602C731.874 326.179 725.592 324.486 719.301 323.067C718.644 322.872 718.039 322.531 717.531 322.071C717.023 321.61 716.624 321.041 716.366 320.406C715.573 318.968 714.458 318.909 712.902 319.32C709.995 320.022 706.943 319.807 704.163 318.705C701.383 317.604 699.012 315.669 697.375 313.166C696.631 312.041 696.064 310.788 695.35 309.634C694.244 307.873 692.786 306.757 690.702 308.039C688.618 309.321 687.649 311.581 689.528 313.117C692.962 315.935 692.698 322.383 698.833 322.51C699.302 322.51 699.87 323.762 700.193 324.467C702.149 329.055 703.646 329.554 707.766 326.844C708.489 326.395 709.148 325.849 709.722 325.22C712.589 321.854 714.839 320.827 716.053 326.443C716.552 328.772 718.87 329.065 720.749 329.858C726.257 332.157 726.884 334.476 724.545 339.877C721.091 347.811 716.082 353.917 707.57 356.764C704.635 357.742 703.01 360.56 700.271 362.096C693.862 365.697 686.974 367.967 680.165 370.471C677.953 371.284 676.417 372.428 677.288 374.933C678.159 377.438 679.94 378.142 682.571 377.428C687.464 376.107 692.502 375.099 697.424 373.788C700.467 372.986 701.523 374.17 701.435 377.046C701.521 379.088 701.188 381.126 700.457 383.034C695.565 393.679 690.369 404.011 681.153 411.976C675.363 416.976 670.409 422.869 666.477 429.43C662.886 435.418 662.455 441.484 664.667 447.971C667.026 454.535 668.115 461.488 667.876 468.459C667.651 473.351 665.919 476.717 661.663 478.605C657.123 480.562 654.178 484.378 650.636 487.509C648.679 489.27 648.797 491.295 649.433 493.565C651.204 499.798 651.057 505.375 644.11 508.613C643.385 508.904 642.757 509.395 642.3 510.029C641.843 510.663 641.575 511.414 641.527 512.194C641.625 522.37 633.152 527.271 627.898 534.022C623.387 539.805 616.92 542.153 609.396 541.576C607.107 541.4 604.719 542.261 602.381 542.701C597.831 543.572 593.644 541.145 594.064 536.664C594.652 530.451 591.129 526.039 588.928 521.068C586.726 516.098 584.584 511.627 584.476 506.138C584.349 499.289 580.787 493.497 577.862 487.548C574.809 481.404 573.831 475.103 577.001 468.958C584.036 455.26 579.085 443.109 572.931 430.976C572.224 429.619 571.371 428.342 570.387 427.17C566.914 422.992 565.877 419.049 567.863 413.287C570.387 405.919 569.007 400.235 559.947 401.604C557.932 401.918 556.484 400.949 555.271 399.207C551.807 394.247 547.336 392.711 541.749 395.362C536.162 398.014 530.566 399.98 524.216 398.601C522.716 398.204 521.126 398.328 519.705 398.953C514.031 402.377 509.755 399.618 505.499 396.223C501.438 392.985 496.321 390.852 494.893 385.05C494.188 382.203 492.643 379.375 490.206 377.927C485.04 374.845 483.759 370.1 483.093 364.757C482.864 363.622 483.005 362.442 483.494 361.392C486.743 354.827 486.792 348.007 484.737 341.129C483.436 336.765 486.694 333.683 488.132 330.318C489.537 327.291 491.273 324.43 493.308 321.786C495.646 318.625 497.867 315.26 501.82 313.274C505.538 311.395 508.512 308.382 508.669 303.313C508.777 299.566 511.32 296.836 514.539 294.87C517.181 293.265 519.588 291.436 520.654 288.305C521.721 285.174 520.517 282.816 517.621 281.827C513.14 280.291 510.714 277.151 512.035 272.826C513.189 269.059 514.168 265.468 513.835 261.408C513.59 258.473 516.34 257.553 518.864 257.651C522.073 257.759 525.273 258.395 528.492 258.629C531.427 258.815 535.008 259.823 536.417 255.978C537.826 252.133 536.661 248.63 533.726 245.763C533.364 245.421 532.855 245.235 532.464 244.912C531.006 243.728 527.787 243.669 528.648 240.998C529.392 238.689 533.139 240.323 533.922 239.335C536.925 235.529 543.764 239.335 545.291 233.328L546.308 232.3ZM595.464 270.957C592.01 270.135 590.65 270.449 590.767 274.264C590.914 279.156 583.781 283.471 580.063 281.436C579.085 280.908 577.422 280.693 577.823 279.156C578.224 277.62 579.78 278.08 580.895 278.11C583.292 278.168 585.415 277.767 586.227 275.174C587.04 272.582 584.858 271.584 583.527 270.135C583.094 269.609 582.566 269.168 581.971 268.834C576.659 266.281 572.001 263.032 569.252 257.573C568.978 257.035 567.98 256.271 567.745 256.389C562.57 259.168 556.004 258.404 551.533 261.154C549.028 262.68 545.213 265.703 543.706 268.854C539.89 276.544 535.79 283.295 526.339 284.616C525.833 284.754 525.394 285.071 525.104 285.508C524.814 285.946 524.693 286.474 524.764 286.993C524.95 288.246 526.153 288.314 527.171 288.373C530.644 288.569 534.147 289.567 537.053 286.25C537.965 285.334 539.058 284.62 540.263 284.153C541.468 283.687 542.757 283.477 544.048 283.54C551.249 283.618 558.069 281.192 565.182 280.781C570.661 280.458 573.929 283.54 572.246 288.833C570.563 294.126 573.616 295.555 577.451 296.484C579.633 297.012 582.03 297.277 583.468 298.93C586.873 302.844 591.726 303.304 596.119 304.908C598.203 305.671 599.054 305.456 599.397 302.902C600.111 297.629 604.289 295.271 609.338 297.032C612.279 297.888 615.118 299.065 617.801 300.544C625.354 305.251 633.455 301.523 641.195 302.286C641.699 302.233 642.186 302.069 642.62 301.807C643.055 301.545 643.427 301.191 643.709 300.77C646.351 296.758 648.445 292.522 648.278 287.512C648.171 284.342 646.762 282.923 643.758 284.508C640.96 285.976 638.435 286.465 635.715 284.42C635.267 284.005 634.678 283.774 634.067 283.774C633.455 283.774 632.867 284.005 632.418 284.42C630.853 286.005 629.483 284.919 627.82 284.596C621.176 283.334 619.63 278.217 618.231 272.855C617.84 271.368 617.135 269.5 615.394 269.754C613.58 270.064 611.9 270.909 610.57 272.18C609.112 273.619 611.236 274.431 611.969 275.341C613.711 277.493 612.899 278.98 611.079 280.497C609.719 281.632 608.046 284.469 606.735 282.454C604.142 278.54 598.555 276.192 598.301 271.584C597.978 265.713 594.29 263.854 590.317 261.662C586.68 259.781 583.556 257.041 581.218 253.679C580.553 252.7 579.799 250.802 578.156 251.829C576.512 252.857 577.236 254.628 578.156 255.88C580.298 258.894 582.363 261.819 585.768 263.893C588.83 265.821 593.145 266.349 595.464 270.957ZM655.147 266.946C657.289 266.897 660.039 267.699 661.144 265.331C662.455 262.602 659.246 261.829 657.994 260.244C656.174 257.935 653.63 256.536 651.008 255.254C648.621 254.099 645.353 253.209 648.826 249.657C649.139 249.357 649.322 248.947 649.336 248.514C649.351 248.081 649.196 247.659 648.904 247.339C648.576 247.06 648.165 246.898 647.736 246.877C647.306 246.856 646.881 246.977 646.527 247.221C644.834 248.082 642.153 248.513 643.836 251.399C644.815 253.062 643.836 253.287 642.711 253.953C639.355 255.978 636.909 255.117 635.344 251.741C633.387 247.456 630.716 248.288 628.377 251.037C626.583 253.28 625.086 255.747 623.926 258.375C621.842 262.758 623.035 264.872 627.683 266.202C630.011 266.877 631.978 266.202 634.062 265.42C638.592 263.639 643.063 262.582 647.691 265.498C649.853 266.907 652.534 267.024 655.127 266.946H655.147ZM577.246 217.448C580.181 221.098 582.93 221.362 586.198 219.738C587.979 218.837 589.662 217.781 591.951 218.505C596.765 219.972 598.301 218.789 598.507 213.936C598.653 210.472 599.759 208.143 603.839 209.758C605.982 210.609 607.361 209.562 606.236 207.85C602.733 202.547 607.43 203.349 609.895 202.518C610.727 202.364 611.577 202.325 612.419 202.4C613.946 202.332 616.529 203.496 616.431 201.05C616.363 199.23 613.965 200.306 612.517 200.502C609.837 200.884 607.165 201.48 604.475 201.735C600.943 202.116 598.751 200.805 597.968 196.98C597.117 192.792 597.871 189.72 601.882 187.597C603.584 186.697 605.473 185.64 606.392 183.135C603.33 182.861 600.199 182.01 598.829 185.464C597.851 188.018 595.972 188.927 593.839 190.062C589.114 192.577 587.617 196.911 590.689 199.847C593.419 202.469 592.851 203.897 590.141 205.717C589.283 206.263 588.662 207.112 588.4 208.094C587.509 214.17 584.867 218.26 577.226 217.448H577.246ZM696.25 282.835C699.566 282.982 700.985 281.162 700.163 277.2C699.694 274.979 698.079 273.814 696.798 272.308C695.966 271.329 694.841 270.155 696.631 268.952C697.61 268.345 699.928 269.49 699.312 267.132C698.901 265.537 697.355 265.557 695.927 266.153C695.773 266.231 695.604 266.271 695.431 266.272C695.259 266.273 695.09 266.233 694.935 266.158C694.781 266.082 694.646 265.971 694.541 265.835C694.437 265.698 694.365 265.539 694.332 265.371C693.813 261.721 690.712 260.205 688.344 258.17C685.409 255.616 686.387 253.747 689.225 252.446C690.976 251.634 693.344 251.262 691.954 248.855C691.666 248.371 691.282 247.952 690.826 247.622C690.37 247.291 689.851 247.058 689.302 246.935C688.752 246.812 688.183 246.803 687.63 246.908C687.077 247.012 686.551 247.229 686.084 247.544C684.049 248.727 682.089 250.034 680.214 251.458C678.257 252.886 677.278 253.923 678.531 257.152C680.012 261.052 682.6 264.436 685.976 266.887C688.393 268.717 688.912 270.605 688.08 273.433C687.503 275.497 684.313 278.256 688.276 279.812C690.712 280.712 692.561 283.197 696.25 282.835ZM675.449 369.199C674.548 365.149 674.03 361.754 671.535 358.985C670.684 358.055 669.03 356.558 670.439 355.619C673.1 353.858 670.968 353.085 670.214 351.823C667.279 346.931 662.074 343.379 660.313 337.91C657.876 330.298 653.581 323.977 648.767 317.853C647.897 316.737 647.026 314.771 645.226 316.013C643.778 316.992 645.226 318.479 645.529 319.702C648.239 329.143 654.941 336.648 657.563 346.403C660.009 355.56 667.475 362.39 675.449 369.16V369.199Z" fill="#6581D8"/>
<path d="M382.19 231.713C373.786 237.535 363.747 234.296 354.609 236.732C356.165 238.425 358.875 237.417 359.628 239.482C360.382 241.546 358.699 242.975 357.808 244.569C357.094 245.832 356.566 247.055 357.74 248.278C358.448 249.024 359.354 249.553 360.353 249.803C361.351 250.052 362.399 250.012 363.376 249.687C364.285 249.432 365.009 248.522 365.841 247.945C366.673 247.368 367.896 246.252 368.894 247.661C369.892 249.07 368.894 250.019 367.7 250.939C363.082 254.354 357.349 255.097 352.329 257.524C351.723 257.817 350.206 257.524 350.03 257.142C349.149 255.185 348.553 253.532 345.764 254.95C341.655 257.054 335.882 257.103 334.679 262.778C334.111 265.439 333.24 266.691 330.765 267.063C322.683 268.169 318.046 274.215 312.87 279.508C312.274 280.106 311.892 280.883 311.784 281.72C311.422 286.983 307.792 289.684 303.849 292.218C300.789 294.054 297.83 296.053 294.985 298.206C290.327 301.953 286.668 306.141 288.83 312.99C289.564 315.289 289.124 318.048 288.83 320.553C288.635 322.138 288.253 324.251 286.159 324.466C284.066 324.682 283.459 322.637 282.676 321.199C281.562 318.893 281.196 316.296 281.629 313.772C281.972 310.671 281.062 308.323 277.217 308.636C274.135 308.89 271.64 306.415 268.352 306.963C265.994 307.354 263.695 307.305 261.758 309.056C261.049 309.811 260.114 310.314 259.094 310.49C258.074 310.667 257.024 310.507 256.103 310.035C252.453 308.215 249.498 309.839 246.045 311.248C234.558 315.935 234.176 326.903 231.73 336.325C230.556 340.874 233.452 345.806 237.709 348.526C241.622 351.04 245.536 348.046 249.361 347.068C251.005 346.647 251.318 344.817 251.817 343.389C252.443 341.54 253.334 339.984 255.33 339.328C257.786 338.526 260.554 337.548 262.59 339.465C264.331 341.099 262.443 343.291 261.846 345.121C260.682 348.662 259.273 352.126 257.932 355.599C257.061 357.84 257.874 358.789 260.173 358.789C262.472 358.789 264.595 358.681 266.797 358.848C271.689 359.21 273.381 361.509 272.374 366.352C271.855 368.837 270.994 371.303 270.847 373.808C270.446 380.842 274.242 383.973 281.111 382.613C283.498 382.134 285.954 381.899 287.852 383.797C291.159 387.114 293.595 384.776 294.427 382.046C296.511 375.197 303.105 374.424 307.958 372.506C312.146 370.843 306.765 375.784 309.631 376.85C312.068 373.553 314.602 374.581 318.437 376.097C322.987 377.897 328.309 379.629 333.671 377.692C335.52 377.027 336.763 377.252 338.563 379.375C342.594 384.267 348.132 387.73 352.603 392.348C354.775 394.599 358.102 395.479 361.507 395.616C368.356 395.9 371.946 399.413 374.529 405.635C376.183 409.627 376.79 414.333 380.801 417.278C382.167 418.42 383.844 419.125 385.615 419.304C388.462 419.587 391.7 420.703 393.325 422.875C396.544 427.18 400.907 427.141 405.144 426.72C406.639 426.512 408.162 426.65 409.595 427.123C411.029 427.596 412.334 428.392 413.411 429.45C416.114 432.033 419.101 434.301 422.315 436.211C425.906 438.167 427.295 443.059 425.69 446.817C425.147 448.43 424.383 449.961 423.421 451.366C415.221 461.512 414.087 473.87 412.658 486.041C411.68 494.181 408.157 500.062 399.596 502.234C395.957 503.144 393.129 505.922 390.027 507.997C387.865 509.435 387.787 511.489 387.973 513.867C388.393 519.317 387.513 524.326 382.543 527.79C380.263 529.385 380.39 532.3 379.421 534.639C375.694 543.523 373.845 544.804 365.548 542.926C365.176 544.452 366.164 545.401 366.956 546.477C370.586 551.369 368.737 556.487 362.681 558.003C359.296 558.844 355.49 558.659 355.695 563.971C355.763 565.752 353.406 566.173 351.644 566.349C349.883 566.525 348.905 567.973 350.353 568.991C355.989 572.904 351.165 576.896 350.421 580.663C350.05 582.551 348.973 584.577 350.588 585.78C354.501 588.715 353.758 591.934 352.633 595.975C350.744 602.824 353.846 607.961 360.46 611.189C362.221 612.041 365.919 611.806 364.872 614.81C363.894 617.647 360.675 617.383 357.769 617.04C343.181 615.309 334.992 605.299 329.092 593.559C327.409 590.203 324.063 586.289 325.364 581.328C325.775 579.763 325.58 578.149 326.842 576.789C327.703 575.879 328.094 574.196 326.529 573.853C322.86 573.149 322.615 570.106 322.321 567.65C321.343 559.206 319.504 551.017 319.171 542.3C318.515 524.933 318.437 507.429 315.678 490.16C315.454 488.227 314.773 486.374 313.691 484.756C312.609 483.138 311.157 481.801 309.455 480.855C301.501 476.179 295.983 469.653 291.844 461.189C288.308 453.863 284.106 446.877 279.291 440.32C276.972 437.218 275.103 433.53 278.254 429.626C279.017 428.648 279.584 427.601 278.841 426.358C275.495 420.732 279.134 416.642 282.177 412.66C289.486 403.179 291.472 398.239 286.541 388.347C284.78 384.825 282.901 384.306 281.101 388.347C280.573 389.54 279.839 390.715 278.508 390.059C272.1 386.899 265.094 384.56 262.276 376.811C260.76 372.673 258.49 368.984 253.295 368.201C250.84 367.911 248.469 367.134 246.318 365.916C244.168 364.698 242.282 363.063 240.771 361.108C240.103 360.199 239.16 359.528 238.082 359.195C237.004 358.862 235.848 358.884 234.783 359.259C231.046 360.443 227.748 359.308 224.48 357.713C218.844 354.948 213.445 351.725 208.337 348.075C205.568 346.119 204.13 343.839 205.715 340.248C207.3 336.657 205.401 334.055 203.063 331.589C196.547 324.74 194.013 315.866 190.833 307.325C190.226 305.71 190.53 302.873 187.898 303.587C185.706 304.174 186.058 306.63 186.684 308.479C189.033 315.201 191.498 321.893 193.934 328.586C194.492 330.141 195.891 332.059 193.934 333.145C191.978 334.231 191.89 331.57 190.911 330.64C186.87 326.854 185.628 321.208 183.006 316.639C181.166 313.449 180.706 307.354 180.931 302.442C181.137 298.01 179.953 294.39 175.707 292.277C175.101 291.963 174.565 291.531 174.131 291.005C171.275 287.59 171.91 271.622 173.593 267.415C176.91 259.089 184.415 253.551 187.467 245.127C188.553 242.123 189.209 239.775 186.489 237.378C185.168 236.194 184.532 234.619 186 232.887C189.444 228.817 189.483 222.399 186.068 218.661C184.053 216.44 185.011 213.769 185.002 211.362C185.002 204.376 183.945 204.513 177.791 201.823C169.885 198.379 163.291 202.155 156.158 203.29C155.307 203.427 154.025 204.357 153.673 202.821C153.555 202.302 154.524 201.529 155.786 199.788C136.707 209.983 117.873 217.399 97.2676 219.6L130.602 206.881C129.536 204.924 128.136 205.482 127.099 205.051C126.05 204.619 125.098 203.982 124.299 203.177C123.499 202.373 122.868 201.416 122.442 200.365C121.718 198.232 123.831 196.324 125.622 195.013C130.445 191.481 136.218 190.6 141.883 189.465C143.331 189.172 145.004 189.563 146.139 187.802C144.779 186.061 142.734 186.921 141.081 186.511C139.916 186.227 138.625 186.109 138.419 184.612C138.306 184.012 138.427 183.391 138.756 182.877C139.085 182.362 139.598 181.993 140.19 181.844C144.104 180.865 147.832 178.321 151.931 179.427C154.867 180.21 155.326 179.133 155.131 176.815C154.964 174.799 155.649 173.498 157.733 173.175C166.852 171.776 175.257 167.833 184.278 165.935C191.772 164.35 198.269 167.891 205.274 168.576C212.28 169.261 219.324 170.22 226.31 171.512C233.296 172.803 241.27 170.083 248.813 169.232C257.805 168.253 266.709 170.465 275.524 172.568C277.784 173.106 276.502 178.028 279.115 175.777C281.727 173.527 277.51 172.695 276.532 171.091C274.908 168.43 278.42 166.991 278.293 164.154C275.544 164.907 272.961 165.778 270.309 166.277C268.46 166.619 266.18 166.58 265.544 164.379C264.732 161.581 267.579 161.806 269.067 161.091C270.896 160.211 272.824 159.653 274.399 158.215C276.902 155.981 280.152 154.766 283.507 154.811C286.861 154.857 290.077 156.158 292.519 158.46C295.454 161.131 302.968 161.855 306.892 159.898C308.095 159.301 309.465 158.42 310.727 159.321C311.989 160.221 311.53 161.786 311.295 163.107C311.168 163.772 310.757 164.379 310.659 165.064C309.377 173.488 309.387 173.488 300.796 172.285L297.225 171.786C300.307 176.081 309.945 177.088 313.408 173.4C314.504 172.245 315.58 170.993 317.077 170.856C325.257 170.122 330.09 163.939 335.912 159.448C339.277 156.855 342.056 156.18 347.946 157.833C345.799 159.803 343.181 161.188 340.344 161.855C335.217 163.136 334.072 166.845 337.457 170.964C339.414 173.322 339.414 173.322 337.947 176.942C341.185 176.482 343.25 174.339 345.578 172.872C347.535 171.668 348.279 170.093 345.206 169.026C341.361 167.686 342.271 165.592 344.414 163.332C347.085 160.514 350.715 157.579 354.071 158.44C360.597 160.035 366.79 157.315 373.062 158.274C373.893 158.401 375.019 158.332 375.498 158.822C379.461 162.657 384.304 165.015 389.196 167.304C390.292 167.813 391.309 169.124 390.712 170.24C388.834 173.723 390.585 174.594 393.54 175.846C395.291 176.589 399.205 177.304 397.454 180.865C396.103 183.614 389.734 185.2 387.669 183.8C386.486 183.018 385.634 180.65 384.03 181.844C382.073 183.282 384.03 184.828 384.92 186.168C385.81 187.509 385.36 188.467 384.92 189.886C383.766 193.976 377.416 190.004 377.259 195.121C373.483 194.25 369.246 194.035 366.673 190.786C364.1 187.538 362.016 184.916 357.505 187.421C356.292 188.086 354.443 187.734 354.482 185.924C354.521 184.113 356.439 183.301 357.887 183.595C363.082 184.652 366.418 181.139 370.303 178.987C371.496 178.321 373.023 177.372 372.044 175.865C371.066 174.359 369.647 175.543 368.522 176.247C367.726 176.872 366.874 177.422 365.978 177.891C364.765 178.36 363.444 178.116 363.043 176.717C362.749 175.611 363.738 175.004 364.706 174.486C365.988 173.801 368.913 174.662 368.17 172.001C367.514 169.643 365.029 170.279 362.965 170.103C358.014 169.682 354.883 171.384 352.593 175.973C350.637 179.887 345.471 181.844 340.021 181.922C339.757 182.763 340.481 183.037 340.931 183.468C342.457 184.926 345.529 185.826 344.668 188.36C343.69 191.227 341.234 188.976 339.424 188.673C337.614 188.37 336.684 189.925 335.256 190.277C332.086 191.05 330.198 190.356 331.597 186.364C322.136 189.191 313.985 194.387 305.434 198.829C303.184 199.993 300.425 201.647 300.542 204.758C300.699 208.28 303.008 210.041 306.344 211.372C310.845 213.162 314.377 217.076 319.592 217.516C320.971 217.634 321.91 218.945 321.04 220.09C319.406 222.223 321.822 224.747 320.061 226.782C319.259 227.692 319.836 228.739 320.629 229.463C321.607 230.343 322.517 229.756 323.427 229.277C324.19 228.881 324.844 228.306 325.333 227.6C325.823 226.894 326.132 226.079 326.235 225.226C326.822 220.941 328.935 218.524 333.192 216.978C337.448 215.432 342.555 213.251 339.903 206.685C343.817 202.693 344.59 195.649 349.453 193.496C354.814 191.119 360.969 192.772 365.636 197.479C366.966 198.819 366.614 199.7 366.076 201.011C365.45 202.517 365.43 204.083 366.829 205.188C368.228 206.294 369.765 205.58 371.115 204.856C372.633 204.094 374.077 203.193 375.43 202.165C378.815 199.406 380.165 200.923 380.654 204.474C380.928 206.49 381.574 208.574 381.3 210.521C380.821 213.935 382.406 215.951 384.881 217.781C389.391 221.127 390.008 224.346 388.051 229.463C386.936 232.398 385.116 235.646 390.086 237.838C392.757 239.002 392.043 242.662 391.065 245.068C390.086 247.475 388.208 246.79 386.006 245.89C383.404 244.824 380.39 244.716 377.533 244.335C373.737 243.836 373.619 242.211 376.105 239.873C378.443 237.672 380.928 235.637 383.355 233.523L382.19 231.713Z" fill="#6581D8"/>
<path d="M416.503 138.607C429.643 136.973 442.842 136.073 456.002 134.87C466.089 133.94 476.137 132.639 486.332 132.355C494.786 132.13 502.907 133.334 510.636 136.778C512.234 137.39 513.986 137.475 515.636 137.022C518.468 136.433 521.386 136.387 524.236 136.885C519.06 139.615 515.01 141.885 510.362 142.883C508.503 143.274 506.644 143.607 507.632 146.503C508.533 149.155 504.952 157.08 502.388 158.332C499.257 159.858 497.046 161.727 497.124 165.611C497.124 168.077 495.383 168.791 493.103 169.28C483.466 171.345 473.907 173.683 465.571 179.358C464.215 180.404 462.61 181.079 460.913 181.315C449.583 181.804 443.194 189.475 437.099 197.498C435.005 200.267 432.735 202.879 429.174 201.411C425.329 199.866 420.417 199.611 418.959 194.23C417.634 188.954 417.208 183.494 417.697 178.076C417.971 174.036 421.121 172.089 424.223 170.181C423.509 168.83 421.288 170.503 421.072 168.508C420.965 167.314 421.806 166.707 422.785 166.267C423.763 165.827 425.456 165.289 423.293 164.134C421.796 163.312 422.315 162.304 422.628 161.111C423.988 155.524 422.491 153.283 416.484 152.168C412.482 151.405 408.441 150.867 404.449 150.065C402.316 149.634 399.499 149.086 399.841 146.327C400.134 143.871 403.031 144.253 404.919 143.901C407.923 143.326 410.958 142.93 414.008 142.717C416.993 142.511 417.227 140.867 416.621 138.558L416.503 138.607Z" fill="#6581D8"/>
<path d="M416.6 138.568C407.787 139.105 399.18 141.457 391.318 145.476C385.242 148.636 378.99 150.867 371.877 150.055C368.609 149.683 365.116 149.497 361.115 151.435C365.518 151.709 369.079 151.865 372.621 152.188C373.55 152.266 374.871 152.628 374.578 153.949C374.433 154.33 374.194 154.667 373.882 154.929C373.57 155.191 373.197 155.369 372.797 155.446C365.244 154.996 357.289 159.086 350.196 153.548C349.628 153.108 348.963 152.501 348.464 153.157C344.775 158.049 339.942 154.468 335.676 154.859C334.071 155.006 331.361 154.918 332.066 152.012C332.283 150.991 332.89 150.095 333.759 149.516C334.627 148.936 335.687 148.719 336.713 148.91C337.389 148.975 338.041 149.195 338.618 149.553C339.195 149.911 339.682 150.398 340.04 150.975C341.576 153.215 343.112 153.01 344.1 150.583C345.343 147.55 347.74 147.355 349.922 148.627C353.835 150.965 357.328 149.938 361.007 148.245C360.851 146.357 358.659 146.396 358.072 145.046C357.093 142.922 356.516 141.406 359.696 139.968C364.657 137.737 369.783 137.551 374.949 136.944C391.132 134.987 407.335 133.608 423.655 134.352C424.457 134.352 425.269 134.557 427.206 134.811C423.293 137.306 419.379 136.592 416.522 138.578L416.6 138.568Z" fill="#6581D8"/>
<path d="M677.887 487.206C677.613 485.533 677.231 483.869 677.084 482.187C676.801 479.065 677.818 475.983 680.665 474.927C686.164 472.902 689.549 468.919 692.67 464.389C693.571 463.078 694.412 460.955 696.476 461.748C698.179 462.393 698.365 464.428 698.678 466.092C699.549 470.563 696.946 474.261 695.85 478.283C693.708 486.11 691.271 493.937 689.129 501.765C687.994 505.923 686.34 509.455 681.712 510.57C678.992 511.226 677.006 509.876 675.578 507.88C672.838 503.966 673.092 499.778 675.196 495.826C676.654 493.057 678.141 490.464 677.887 487.206Z" fill="#6581D8"/>
<path d="M546.309 232.3L545.233 233.278C538.95 233.015 532.672 233.893 526.702 235.871C529.187 230.803 528.356 225.471 532.984 222.33C533.893 221.714 532.788 220.158 531.663 219.551C530.048 218.671 528.405 217.859 526.771 217.027H526.829C525.342 209.2 526.829 207.321 536.692 204.308C536.447 211.587 538.257 218.524 543.609 223.299C546.896 226.302 546.632 229.022 546.309 232.3Z" fill="#6581D8"/>
<path d="M496.127 190.082C492.624 189.691 490.579 184.818 486.431 183.439C486.341 183.235 486.295 183.015 486.295 182.793C486.295 182.571 486.341 182.351 486.431 182.147C487.497 180.944 489.19 179.946 490.462 180.65C495.432 183.399 500.402 181.188 505.353 181.051C507.75 180.983 510.079 181.11 510.539 183.781C510.998 186.452 508.582 187.01 506.674 187.695C503.293 189 499.74 189.805 496.127 190.082Z" fill="#6581D8"/>
<path d="M526.761 217.076C528.59 223.983 524.882 229.658 517.955 230.255C514.1 230.578 512.985 229.179 515.392 225.568C516.302 224.199 513.542 221.489 516.37 220.354C519.755 219.003 522.466 215.276 526.839 217.125L526.761 217.076Z" fill="#6581D8"/>
</g>
<path d="M336.184 458.167L410.464 539.776C410.464 539.776 423.908 545.226 434.621 546.732C465.794 551.096 525.007 507.596 525.007 507.596L474.13 437.336C474.13 437.336 449.601 448.099 421.432 457.276C377.365 471.561 336.184 458.167 336.184 458.167Z" fill="#6581D8" stroke="#231F20" stroke-width="0.244602" stroke-miterlimit="10"/>
<path d="M385.945 492.216C385.945 492.216 431.559 481.052 488.414 446.837C537.11 417.485 568.556 390.089 568.556 390.089L632.955 473.518C632.955 473.518 626.644 492.529 539.282 540.853C479.971 573.659 458.074 574.119 458.074 574.119L385.945 492.216Z" fill="#6581D8" stroke="#231F20" stroke-width="0.244602" stroke-miterlimit="10"/>
<path d="M483.219 466.102C483.219 466.102 515.712 448.657 575.111 398.592C623.738 357.616 661.28 310.241 661.28 310.241L725.767 390.099C725.767 390.099 719.544 422.298 643.424 485.787C585.189 534.375 553.958 550.079 553.958 550.079L483.219 466.102Z" fill="#6581D8" stroke="#231F20" stroke-width="0.244602" stroke-miterlimit="10"/>
<path d="M604.494 392.926C604.494 392.926 632.868 366.509 682.767 307.041C723.938 258.003 731.805 223.417 731.805 223.417L803.708 310.231C803.708 310.231 803.307 325.152 758.701 384.776C713.264 445.506 678.56 473.156 678.56 473.156L604.494 392.926Z" fill="#6581D8" stroke="#231F20" stroke-width="0.244602" stroke-miterlimit="10"/>
<path d="M718.635 283.257C718.635 283.257 734.769 270.616 756.509 218.486C770.021 186.061 761.401 154.811 761.401 154.811L833.314 231.127C833.314 231.127 843.754 260.949 828.921 295.35C798.933 365.022 791.086 366.686 791.086 366.686L718.635 283.257Z" fill="#6581D8" stroke="#231F20" stroke-width="0.244602" stroke-miterlimit="10"/>
<path d="M352.905 374.004L424.935 456.122L422.235 457.1L406.717 440.976C406.717 440.976 378.95 445.594 361.71 424.734C344.471 403.875 352.905 374.004 352.905 374.004Z" fill="#263769" stroke="#231F20" stroke-width="0.244602" stroke-miterlimit="10"/>
<path d="M364.215 428.531L395.583 462.912L422.205 457.149L406.159 440.467L364.215 428.531Z" fill="#6581D8" stroke="#231F20" stroke-width="0.244602" stroke-miterlimit="10"/>
<path d="M738.398 108.972L792.739 175.67C792.739 175.67 802.895 140.261 783.415 124.616C763.935 108.972 738.398 108.972 738.398 108.972Z" fill="#263769" stroke="#231F20" stroke-width="0.244602" stroke-miterlimit="10"/>
<path d="M791.645 135.458L858.607 210.247C858.48 209.269 866.826 218.436 867.413 238.239C867.616 244.938 867.249 251.641 866.317 258.277L792.76 175.67C792.76 175.67 795.871 168.44 795.969 156.18C796.047 141.074 791.645 135.458 791.645 135.458Z" fill="#6581D8" stroke="#231F20" stroke-width="0.244602" stroke-miterlimit="10"/>
<path d="M789.187 282.004C802.291 282.004 812.914 271.381 812.914 258.277C812.914 245.173 802.291 234.551 789.187 234.551C776.084 234.551 765.461 245.173 765.461 258.277C765.461 271.381 776.084 282.004 789.187 282.004Z" fill="#F9DB2F" stroke="#231F20" stroke-width="0.244602" stroke-miterlimit="10"/>
<path d="M694.908 397.73C708.012 397.73 718.635 387.107 718.635 374.003C718.635 360.9 708.012 350.277 694.908 350.277C681.804 350.277 671.182 360.9 671.182 374.003C671.182 387.107 681.804 397.73 694.908 397.73Z" fill="#F9DB2F" stroke="#231F20" stroke-width="0.244602" stroke-miterlimit="10"/>
<path d="M609.238 469.447C622.342 469.447 632.965 458.824 632.965 445.721C632.965 432.617 622.342 421.994 609.238 421.994C596.134 421.994 585.512 432.617 585.512 445.721C585.512 458.824 596.134 469.447 609.238 469.447Z" fill="#F9DB2F" stroke="#231F20" stroke-width="0.244602" stroke-miterlimit="10"/>
<path d="M499.5 485.484C495.164 489.637 492.565 495.28 492.227 501.275C491.889 507.269 493.837 513.169 497.678 517.783C501.519 522.397 506.967 525.383 512.924 526.138C518.88 526.894 524.901 525.361 529.772 521.851L499.5 485.484Z" fill="#F9DB2F" stroke="#231F20" stroke-width="0.244602" stroke-miterlimit="10"/>
</g>
</g>
</g>
<defs>
<linearGradient id="paint0_linear_10116_107253" x1="904.985" y1="758" x2="-121.22" y2="269.249" gradientUnits="userSpaceOnUse">
<stop stop-color="#E0ECFE"/>
<stop offset="1" stop-color="#FCFDFF"/>
</linearGradient>
<clipPath id="clip0_10116_107253">
<rect width="912" height="758" fill="white"/>
</clipPath>
<clipPath id="clip1_10116_107253">
<rect width="912" height="758" rx="16" fill="white"/>
</clipPath>
<clipPath id="clip2_10116_107253">
<rect width="831.848" height="815" fill="white" transform="translate(272.076 79)"/>
</clipPath>
</defs>
</svg>
