<svg width="231" height="222" viewBox="0 0 231 222" fill="none" xmlns="http://www.w3.org/2000/svg">
<g opacity="0.03">
<path d="M103.83 216.379C157.894 216.379 201.722 207.945 201.722 197.542C201.722 187.139 157.894 178.705 103.83 178.705C49.7653 178.705 5.93744 187.139 5.93744 197.542C5.93744 207.945 49.7653 216.379 103.83 216.379Z" fill="#000001"/>
</g>
<path d="M141.64 176.26V183.337C141.64 186.543 150.584 189.131 161.608 189.11C172.632 189.09 181.561 186.477 181.556 183.271V176.194L141.635 176.26H141.64Z" fill="#FFD200"/>
<path d="M141.655 184.788V191.865C141.655 195.071 150.599 197.659 161.623 197.638C172.647 197.618 181.576 195.005 181.571 191.799V184.722L141.65 184.788H141.655Z" fill="#FFD200"/>
<g opacity="0.08">
<path d="M141.655 184.788V191.865C141.655 195.071 150.599 197.659 161.623 197.638C172.647 197.618 181.576 195.005 181.571 191.799V184.722L141.65 184.788H141.655Z" fill="#000001"/>
</g>
<path d="M161.838 190.264C172.76 190.245 181.609 187.654 181.603 184.476C181.598 181.299 172.74 178.739 161.818 178.758C150.897 178.777 142.047 181.368 142.053 184.545C142.058 187.723 150.917 190.283 161.838 190.264Z" fill="#FFD200"/>
<g opacity="0.08">
<path d="M141.64 176.26V183.337C141.64 186.543 150.584 189.131 161.608 189.11C172.632 189.09 181.561 186.477 181.556 183.271V176.194L141.635 176.26H141.64Z" fill="#000001"/>
</g>
<path d="M143.081 167.803V174.905C143.081 178.112 152.025 180.699 163.049 180.679C174.073 180.658 183.002 178.046 182.997 174.839V167.762L143.076 167.828L143.081 167.803Z" fill="#FFD200"/>
<path d="M141.615 159.275V166.377C141.615 169.584 150.559 172.171 161.583 172.151C172.607 172.13 181.536 169.518 181.531 166.311V159.209L141.61 159.275H141.615Z" fill="#FFD200"/>
<path d="M161.824 181.817C172.745 181.798 181.594 179.207 181.589 176.029C181.583 172.852 172.725 170.292 161.803 170.311C150.882 170.33 142.033 172.921 142.038 176.098C142.044 179.276 150.902 181.836 161.824 181.817Z" fill="#FFD200"/>
<g opacity="0.08">
<path d="M143.081 167.803V174.905C143.081 178.112 152.025 180.699 163.049 180.679C174.073 180.658 183.002 178.046 182.997 174.839V167.762L143.076 167.828L143.081 167.803Z" fill="#000001"/>
</g>
<path d="M163.24 173.434C174.161 173.415 183.01 170.823 183.005 167.646C182.999 164.469 174.141 161.909 163.219 161.928C152.298 161.947 143.449 164.538 143.454 167.715C143.46 170.892 152.318 173.453 163.24 173.434Z" fill="#FFD200"/>
<g opacity="0.08">
<path d="M141.615 159.275V166.377C141.615 169.584 150.559 172.171 161.583 172.151C172.607 172.13 181.536 169.518 181.531 166.311V159.209L141.61 159.275H141.615Z" fill="#000001"/>
</g>
<path d="M161.596 164.99C172.624 164.97 181.56 162.379 181.554 159.202C181.549 156.025 172.604 153.464 161.576 153.484C150.548 153.503 141.613 156.094 141.618 159.272C141.624 162.449 150.568 165.009 161.596 164.99Z" fill="#FFD200"/>
<path d="M80.6198 101.151C80.6198 101.151 65.1618 125.655 59.8705 152.66C54.5792 179.664 61.499 199.125 107.878 199.566C154.257 200.008 166.869 181.977 160.36 156.211C153.851 130.444 119.267 97.3314 119.267 97.3314L80.6198 101.151Z" fill="#6584DB"/>
<path d="M80.6198 101.151C80.6198 101.151 58.1101 84.4708 65.1618 74.1672C72.2135 63.8635 87.1287 67.6583 95.2661 64.4013C103.403 61.1443 145.998 57.5728 119.267 97.3313L80.6198 101.151Z" fill="#6584DB"/>
<path d="M78.7225 101.912C78.6225 101.922 78.5217 101.911 78.4258 101.882C78.3299 101.852 78.2408 101.804 78.1636 101.74C78.0863 101.676 78.0224 101.597 77.9756 101.508C77.9287 101.42 77.8998 101.322 77.8905 101.223C77.8811 101.123 77.8916 101.022 77.9212 100.926C77.9508 100.83 77.999 100.741 78.0631 100.664C78.1272 100.586 78.2058 100.522 78.2946 100.476C78.3834 100.429 78.4805 100.4 78.5804 100.391C78.8188 100.345 102.754 95.8551 122.687 96.5552C122.787 96.5585 122.885 96.5815 122.976 96.6228C123.067 96.6641 123.149 96.723 123.217 96.796C123.286 96.869 123.339 96.9548 123.374 97.0484C123.409 97.142 123.426 97.2416 123.422 97.3415C123.419 97.4415 123.396 97.5398 123.355 97.6308C123.313 97.7219 123.254 97.8039 123.181 97.8722C123.108 97.9405 123.023 97.9938 122.929 98.0289C122.836 98.0641 122.736 98.0805 122.636 98.0771C102.886 97.3872 79.1029 101.841 78.8645 101.887C78.8173 101.892 78.7697 101.892 78.7225 101.887V101.912Z" fill="#FCDE2F"/>
<path d="M132.691 127.532C131.485 127.538 130.295 127.254 129.221 126.705C119.912 121.967 119.729 98.2648 119.724 97.2806C119.724 97.176 119.744 97.0725 119.785 96.9762C120.064 96.337 126.705 81.3051 136.339 79.4737C140.123 78.7584 143.817 80.1738 147.327 83.6844C150.285 86.6421 151.294 89.2649 150.331 91.5073C147.911 97.0878 133.406 98.0416 125.802 98.143C132.534 100.817 145.171 106.767 146.363 114.377C146.916 117.898 144.973 121.292 140.585 124.463C137.708 126.538 135.065 127.583 132.681 127.583L132.691 127.532ZM121.261 98.0669C121.378 102.288 122.332 121.485 129.911 125.34C132.554 126.685 135.847 125.954 139.702 123.174C143.558 120.394 145.323 117.472 144.867 114.55C143.451 105.565 122.545 98.488 121.261 98.0568V98.0669ZM121.647 96.545C128.653 96.7428 146.668 96.1036 148.94 90.8478C149.635 89.2447 148.732 87.1799 146.257 84.7092C143.122 81.5791 139.885 80.3006 136.618 80.9195C129.109 82.3451 123.28 93.1916 121.637 96.545H121.647Z" fill="#FCDE2F"/>
<path d="M116.979 180.714C129.843 180.714 140.27 170.287 140.27 157.423C140.27 144.56 129.843 134.132 116.979 134.132C104.116 134.132 93.6884 144.56 93.6884 157.423C93.6884 170.287 104.116 180.714 116.979 180.714Z" fill="#C1CEF1"/>
<path d="M115.975 143.655C116.721 143.543 116.99 143.771 117.101 144.517L117.334 146.11C120.378 146.11 122.337 147.333 123.991 149.748C124.498 150.473 124.396 150.919 123.575 151.437L122.093 152.391C121.398 152.857 121.018 152.751 120.475 152.03C119.349 150.468 118.151 149.814 115.939 150.138C113.174 150.549 112.023 151.549 112.297 153.4C112.474 154.603 113.692 155.191 114.864 155.247C115.661 155.3 116.461 155.3 117.258 155.247C118.745 155.099 120.246 155.169 121.713 155.455C122.445 155.577 123.149 155.833 123.788 156.211C124.454 156.732 125.009 157.381 125.421 158.12C125.833 158.859 126.094 159.672 126.187 160.513C126.695 164.064 124.691 166.819 120.607 168.057L120.855 169.751C120.967 170.497 120.774 170.791 120.028 170.903L118.238 171.167C117.487 171.278 117.192 171.055 117.081 170.309L116.837 168.65C113.519 168.706 111.094 167.372 109.588 164.592C109.222 163.917 109.41 163.389 110.095 162.983L111.617 162.162C112.388 161.751 112.774 161.893 113.251 162.669C114.235 164.384 115.833 165.079 118.045 164.754C121.038 164.313 122.398 163.146 122.103 161.228C122.061 160.781 121.871 160.36 121.563 160.032C121.255 159.704 120.848 159.488 120.404 159.417C119.313 159.206 118.196 159.158 117.091 159.275C115.585 159.409 114.066 159.308 112.591 158.976C111.873 158.832 111.186 158.563 110.562 158.179C109.894 157.689 109.336 157.066 108.921 156.349C108.506 155.632 108.245 154.837 108.152 154.014C107.645 150.498 109.501 147.83 113.58 146.663L113.347 145.07C113.235 144.319 113.459 144.025 114.209 143.913L116 143.65L115.975 143.655Z" fill="white"/>
<path d="M65.1618 73.7157C65.1618 73.7157 60.0074 81.919 69.4994 83.8164C78.9913 85.7138 87.5346 77.5155 94.9921 80.0572C102.45 82.5988 124.325 87.8851 127.968 77.5814C131.61 67.2778 118.445 61.2509 109.385 61.8546C100.324 62.4583 68.3934 63.8838 65.1567 73.7207L65.1618 73.7157Z" fill="#C1CEF1"/>
<path d="M37.3709 177.305V185.224C37.3709 188.816 47.3854 191.708 59.7234 191.688C72.0614 191.667 82.0454 188.74 82.0454 185.148V177.229L37.3608 177.305H37.3709Z" fill="#FFD200"/>
<path d="M37.3709 186.848V194.767C37.3709 198.359 47.3854 201.25 59.7234 201.23C72.0614 201.21 82.0454 198.283 82.0454 194.691V186.772L37.3709 186.848Z" fill="#FFD200"/>
<g opacity="0.08">
<path d="M37.3709 186.848V194.767C37.3709 198.359 47.3854 201.25 59.7234 201.23C72.0614 201.21 82.0454 198.283 82.0454 194.691V186.772L37.3709 186.848Z" fill="#000001"/>
</g>
<path d="M59.9786 192.983C72.2031 192.962 82.1079 190.062 82.1017 186.507C82.0955 182.951 72.1806 180.086 59.9562 180.107C47.7317 180.129 37.8269 183.028 37.8331 186.584C37.8393 190.139 47.7542 193.005 59.9786 192.983Z" fill="#FFD200"/>
<g opacity="0.08">
<path d="M37.3709 177.305V185.224C37.3709 188.816 47.3854 191.708 59.7234 191.688C72.0614 191.667 82.0454 188.74 82.0454 185.148V177.229L37.3608 177.305H37.3709Z" fill="#000001"/>
</g>
<path d="M38.9842 167.838V175.758C38.9842 179.35 48.9987 182.241 61.3367 182.221C73.6747 182.201 83.6587 179.273 83.6587 175.682V167.762L38.9741 167.838H38.9842Z" fill="#FFD200"/>
<path d="M37.3405 158.296V166.215C37.3405 169.807 47.3549 172.699 59.6929 172.678C72.0309 172.658 82.015 169.731 82.015 166.139V158.22L37.3303 158.296H37.3405Z" fill="#FFD200"/>
<path d="M59.957 183.527C72.1815 183.506 82.0863 180.606 82.0801 177.05C82.0739 173.495 72.159 170.63 59.9346 170.651C47.7101 170.672 37.8053 173.572 37.8115 177.128C37.8177 180.683 47.7326 183.548 59.957 183.527Z" fill="#FFD200"/>
<g opacity="0.08">
<path d="M38.9842 167.838V175.758C38.9842 179.35 48.9987 182.241 61.3367 182.221C73.6747 182.201 83.6587 179.273 83.6587 175.682V167.762L38.9741 167.838H38.9842Z" fill="#000001"/>
</g>
<path d="M61.5489 174.144C73.7733 174.122 83.6782 171.223 83.6719 167.667C83.6657 164.112 73.7509 161.247 61.5264 161.268C49.302 161.289 39.3972 164.189 39.4034 167.745C39.4096 171.3 49.3245 174.165 61.5489 174.144Z" fill="#FFD200"/>
<g opacity="0.08">
<path d="M37.3405 158.296V166.215C37.3405 169.807 47.3549 172.699 59.6929 172.678C72.0309 172.658 82.015 169.731 82.015 166.139V158.22L37.3303 158.296H37.3405Z" fill="#000001"/>
</g>
<g opacity="0.08">
<path d="M38.2232 202.717C47.3825 202.717 54.8075 195.292 54.8075 186.132C54.8075 176.973 47.3825 169.548 38.2232 169.548C29.064 169.548 21.639 176.973 21.639 186.132C21.639 195.292 29.064 202.717 38.2232 202.717Z" fill="#000001"/>
</g>
<g opacity="0.08">
<path d="M49.2574 169.528C49.2574 169.528 66.6178 174.829 63.8326 201.124C63.8326 201.124 52.5144 201.504 47.1419 200.109C42.3375 198.876 49.2625 169.513 49.2625 169.513L49.2574 169.528Z" fill="#000001"/>
</g>
<path d="M59.7162 164.686C72.0583 164.664 82.0585 161.764 82.0523 158.209C82.0461 154.653 72.0358 151.788 59.6937 151.81C47.3516 151.831 37.3514 154.731 37.3576 158.287C37.3638 161.842 47.3741 164.707 59.7162 164.686Z" fill="#FCDE2F"/>
<path d="M69.5086 65.5577L67.4514 67.7829C66.5183 68.7921 68.5616 72.1882 72.0097 75.3655C75.4579 78.5429 79.0043 80.2961 79.9374 79.2869L81.9946 77.0617L69.5057 65.5551L69.5086 65.5577Z" fill="#EBC200"/>
<path d="M74.0925 73.1262C77.542 76.3044 81.0857 78.0696 82.0076 77.0689C82.9295 76.0682 80.8804 72.6806 77.4309 69.5025C73.9814 66.3243 70.4377 64.5591 69.5159 65.5598C68.594 66.5604 70.643 69.948 74.0925 73.1262Z" fill="#FCDE2F"/>
<path d="M73.098 35.0039L70.2059 34.0986C68.8942 33.6879 66.7012 36.9894 65.3078 41.4664C63.9144 45.9434 63.8499 49.899 65.1616 50.3096L68.0536 51.215L73.0991 35.0002L73.098 35.0039Z" fill="#EBC200"/>
<path d="M68.2236 42.3887C66.83 46.8673 66.7535 50.8256 68.0527 51.2298C69.3518 51.634 71.5347 48.331 72.9283 43.8524C74.3218 39.3738 74.3984 35.4155 73.0992 35.0114C71.8 34.6072 69.6171 37.9101 68.2236 42.3887Z" fill="#FCDE2F"/>
<path d="M102.243 25.1553L101.822 22.1543C101.63 20.7931 97.7078 20.2263 93.0656 20.8856C88.4234 21.5449 84.8216 23.1815 85.0126 24.5427L85.4338 27.5437L102.247 25.1548L102.243 25.1553Z" fill="#EBC200"/>
<path d="M93.4815 23.9154C88.8378 24.5752 85.2285 26.2022 85.42 27.5492C85.6115 28.8962 89.5312 29.4533 94.1749 28.7935C98.8187 28.1336 102.428 26.5067 102.236 25.1596C102.045 23.8126 98.1253 23.2555 93.4815 23.9154Z" fill="#FCDE2F"/>
<path d="M123.629 47.269L126.161 45.6025C127.309 44.8467 126.14 41.0595 123.555 37.1475C120.97 33.2355 117.948 30.6825 116.8 31.4383L114.269 33.1047L123.632 47.2722L123.629 47.269Z" fill="#EBC200"/>
<path d="M120.996 38.8216C118.41 34.9085 115.393 32.3444 114.258 33.0946C113.123 33.8448 114.299 37.6252 116.885 41.5383C119.471 45.4514 122.488 48.0154 123.623 47.2652C124.758 46.515 123.582 42.7347 120.996 38.8216Z" fill="#FCDE2F"/>
<path d="M112.813 76.0684L115.403 77.6413C116.578 78.3547 119.499 75.6761 121.926 71.6643C124.353 67.6525 125.365 63.828 124.19 63.1146L121.6 61.5416L112.811 76.0717L112.813 76.0684Z" fill="#EBC200"/>
<path d="M119.317 70.0691C121.744 66.0559 122.769 62.2316 121.604 61.5275C120.44 60.8233 117.529 63.5059 115.101 67.5192C112.673 71.5325 111.649 75.3567 112.813 76.0609C113.977 76.765 116.889 74.0824 119.317 70.0691Z" fill="#FCDE2F"/>
<path d="M38.2232 202.717C47.3825 202.717 54.8075 195.292 54.8075 186.132C54.8075 176.973 47.3825 169.548 38.2232 169.548C29.064 169.548 21.639 176.973 21.639 186.132C21.639 195.292 29.064 202.717 38.2232 202.717Z" fill="#FFD200"/>
<g opacity="0.08">
<path d="M38.2232 202.717C47.3825 202.717 54.8075 195.292 54.8075 186.132C54.8075 176.973 47.3825 169.548 38.2232 169.548C29.064 169.548 21.639 176.973 21.639 186.132C21.639 195.292 29.064 202.717 38.2232 202.717Z" fill="#000001"/>
</g>
<g opacity="0.08">
<path d="M37.4166 197.72C46.5758 197.72 54.0008 190.295 54.0008 181.135C54.0008 171.976 46.5758 164.551 37.4166 164.551C28.2574 164.551 20.8323 171.976 20.8323 181.135C20.8323 190.295 28.2574 197.72 37.4166 197.72Z" fill="#000001"/>
</g>
<path d="M37.4166 197.72C46.5758 197.72 54.0008 190.295 54.0008 181.135C54.0008 171.976 46.5758 164.551 37.4166 164.551C28.2574 164.551 20.8323 171.976 20.8323 181.135C20.8323 190.295 28.2574 197.72 37.4166 197.72Z" fill="#FCDE2F"/>
<path d="M38.1015 172.425C38.5682 172.425 38.7153 172.587 38.7153 173.059V174.073C40.5924 174.337 41.673 175.276 42.4695 176.909C42.713 177.417 42.6116 177.665 42.0637 177.924L41.049 178.37C40.5772 178.594 40.354 178.492 40.0902 178.005C39.8841 177.495 39.5178 177.066 39.0466 176.782C38.5753 176.499 38.0246 176.376 37.4775 176.432C35.7425 176.432 34.9409 176.94 34.9409 178.107C34.9409 178.863 35.6359 179.329 36.3462 179.471C36.8296 179.577 37.3193 179.652 37.8123 179.695C38.7383 179.738 39.6528 179.917 40.5265 180.227C40.9657 180.366 41.3739 180.588 41.7288 180.882C42.0901 181.262 42.3718 181.71 42.5573 182.201C42.7429 182.691 42.8286 183.214 42.8094 183.738C42.8094 185.96 41.323 187.472 38.69 187.857V188.877C38.69 189.344 38.5479 189.511 38.0761 189.511H36.955C36.4831 189.511 36.3208 189.349 36.3208 188.877V187.862C34.2915 187.599 32.9167 186.559 32.2623 184.722C32.2186 184.631 32.1964 184.53 32.1974 184.429C32.1985 184.328 32.2227 184.228 32.2682 184.137C32.3137 184.047 32.3794 183.968 32.4601 183.906C32.5409 183.845 32.6346 183.803 32.7341 183.784L33.7487 183.418C34.256 183.236 34.4843 183.357 34.7075 183.865C35.154 185.008 36.0722 185.579 37.4623 185.579C39.3393 185.579 40.2779 184.986 40.2779 183.784C40.2946 183.505 40.2171 183.229 40.0579 183C39.8987 182.771 39.6671 182.602 39.4002 182.52C38.7466 182.292 38.0627 182.162 37.371 182.135C36.434 182.081 35.5113 181.881 34.6365 181.541C34.2046 181.39 33.804 181.162 33.4545 180.866C33.0884 180.506 32.8015 180.073 32.612 179.595C32.4225 179.117 32.3345 178.605 32.3536 178.091C32.3536 175.89 33.7385 174.418 36.3512 174.073V173.059C36.3512 172.587 36.5136 172.425 36.9854 172.425H38.1015Z" fill="white"/>
</svg>
