<svg width="824" height="693" viewBox="0 0 824 693" fill="none" xmlns="http://www.w3.org/2000/svg">
<g opacity="0.36" clip-path="url(#clip0_12618_18156)">
<path d="M221.699 664.765C220.985 669.305 232.775 677.856 237.686 680.918C243.703 684.675 245.944 684.274 252.176 687.767C255.718 689.724 260.151 692.747 271.324 705.085C281.108 715.847 292.976 730.073 292.976 730.073C295.618 733.234 298.847 737.216 304.629 739.642C310.705 742.216 312.222 739.955 317.025 741.814C327.788 746.002 325.655 759.641 337.572 765.375C341.086 766.924 344.886 767.717 348.726 767.703C359.058 768.124 363.774 763.79 368.881 766.539C372.54 768.496 372.198 771.881 374.752 775.863C380.955 785.412 395.083 784.835 410.953 787.105C423.809 788.944 432.644 792.711 450.921 798.347C469.618 804.12 478.072 809.961 498.051 814.667C503.382 815.982 508.79 816.962 514.244 817.602C525.72 818.903 528.92 817.211 543.596 817.729C554.955 818.13 560.738 818.375 565.962 820.85C571.617 823.531 576.099 827.592 582.448 833.345C586.431 836.955 589.513 840.194 591.567 842.366C594.522 843.025 597.533 843.398 600.559 843.481C606.057 843.638 607.232 842.728 607.633 842.366C609.785 840.409 609.12 836.74 608.963 834.343C608.621 829.03 611.067 824.255 615.959 814.686C620.196 806.409 627.025 801.214 645.311 786.714C645.311 786.714 690.749 750.591 701.726 751.129C701.726 751.129 701.893 751.129 701.932 751.07C702.353 750.366 691.893 743.898 683.528 737.92C668.509 727.158 661.025 721.796 656.632 713.098C653.285 706.435 654.557 704.185 649.303 693.784C646.853 688.688 643.836 683.883 640.312 679.46C634.686 672.523 632.768 673.032 623.679 664.138C617.564 658.17 617.896 657.417 608.357 647.506C607.065 646.155 602.731 641.635 597.536 636.684C583.838 623.583 577.048 617.038 569.387 613.535C562.029 610.169 560.072 611.735 543.077 609.533C515.555 605.972 518.167 601.54 500.438 600.542C477.866 599.28 465.098 606.001 453.807 601.52C449.703 599.828 445.222 599.254 440.824 599.857C438.016 600.287 435.589 600.62 434.161 602.518C431.539 606.001 435.022 610.708 434.493 619.004C434.115 622.418 433.29 625.767 432.038 628.965C424.944 648.161 224.497 647.046 221.699 664.765Z" fill="black" stroke="black" stroke-width="0.97841" stroke-miterlimit="10"/>
<path d="M481.499 622.968C481.352 625.903 481.499 632.077 485.667 636.959C486.227 637.617 486.839 638.229 487.497 638.789" stroke="#FADE2A" stroke-width="0.97841" stroke-miterlimit="10"/>
<path d="M529.213 643.7C528.958 654.463 530.71 653.69 530.71 653.69" stroke="#FADE2A" stroke-width="0.97841" stroke-miterlimit="10"/>
<path d="M419.525 736.59C426.576 739.416 434.05 741.04 441.637 741.394C448.843 741.66 456.046 740.819 462.996 738.899C477.154 735.181 515.214 721.288 565.289 700.399L575.924 695.957C577.421 694.978 575.357 696.152 576.854 695.135C576.58 689.881 577.509 685.057 577.235 679.813C489.736 651.596 404.604 620.727 317.105 592.509C307.021 587.146 295.334 585.62 284.211 588.214C281.794 588.782 280.043 589.379 279.632 589.516C274.897 591.11 243.91 599.564 156.871 622.576C157.165 628.3 156.793 635.012 157.497 636.763C160.188 643.485 190.108 652.418 198.248 655.578C309.601 698.51 404.203 730.661 419.525 736.59Z" fill="#4C61A2" stroke="#231F20" stroke-width="0.244602" stroke-miterlimit="10"/>
<path d="M420.044 721.581C433.876 727.158 449.17 727.971 463.515 723.89L571.424 683.042C579.065 680.42 574.515 679.422 573.791 679.06C567.467 675.803 560.705 673.48 553.714 672.162C509.529 655.813 482.418 640.461 440.454 622.967C405.065 608.213 354.862 591.296 317.624 577.501C311.916 574.461 305.645 572.627 299.198 572.112C292.752 571.597 286.269 572.412 280.151 574.507L167.741 614.475C163.662 615.972 156.822 618.339 156.871 621.999C156.93 626 165.188 628.848 168.074 629.826C184.462 635.608 283.301 672.015 420.044 721.581Z" fill="#6581D8" stroke="#231F20" stroke-width="0.244602" stroke-miterlimit="10"/>
<path d="M222.045 653.313L205.447 647.426C203.888 646.873 202.177 647.688 201.624 649.246L201.287 650.196C200.734 651.755 201.55 653.466 203.108 654.019L219.706 659.906C221.265 660.459 222.976 659.644 223.529 658.085L223.866 657.136C224.418 655.577 223.603 653.866 222.045 653.313Z" stroke="#FFD61F" stroke-width="0.97841" stroke-miterlimit="10"/>
<path d="M247.334 662.29L230.736 656.402C229.177 655.849 227.466 656.665 226.913 658.223L226.576 659.173C226.024 660.731 226.839 662.443 228.397 662.995L244.995 668.883C246.554 669.436 248.265 668.62 248.818 667.062L249.155 666.112C249.707 664.554 248.892 662.842 247.334 662.29Z" stroke="#FFD61F" stroke-width="0.97841" stroke-miterlimit="10"/>
<path d="M449.766 726.376C449.766 726.376 459.423 725.916 473.247 720.212C479.118 717.815 577.937 679.833 577.937 679.833L577.076 694.509C577.059 694.848 576.943 695.175 576.743 695.449C576.544 695.724 576.268 695.934 575.951 696.055C564.533 700.477 481.114 737.06 457.612 740.191C450.333 741.121 449.766 726.376 449.766 726.376Z" fill="#FADE2A" stroke="#231F20" stroke-width="0.244602" stroke-miterlimit="10"/>
<path d="M225.387 650.705L420.09 721.581C420.09 721.581 441.165 729.614 458.914 725.035C473.962 721.121 577.947 679.833 577.947 679.833C577.947 679.833 566.03 676.809 541.129 666.428C507.863 652.574 440.5 622.967 440.5 622.967C440.5 622.967 325.811 608.996 225.387 650.705Z" fill="#FADE2A" stroke="#231F20" stroke-width="0.244602" stroke-miterlimit="10"/>
<path d="M365.341 666.428C389.755 666.428 409.546 658.469 409.546 648.651C409.546 638.832 389.755 630.873 365.341 630.873C340.928 630.873 321.137 638.832 321.137 648.651C321.137 658.469 340.928 666.428 365.341 666.428Z" stroke="black" stroke-width="0.97841" stroke-miterlimit="10"/>
<path d="M481.468 438.107L409.555 648.651" stroke="black" stroke-width="0.97841" stroke-miterlimit="10"/>
<path d="M268.664 491.891L321.136 648.651" stroke="black" stroke-width="0.97841" stroke-miterlimit="10"/>
<path d="M209.354 625.932C210.089 625.932 210.685 625.336 210.685 624.601C210.685 623.866 210.089 623.271 209.354 623.271C208.619 623.271 208.023 623.866 208.023 624.601C208.023 625.336 208.619 625.932 209.354 625.932Z" fill="white"/>
<path d="M214.941 630.618C215.346 630.618 215.675 630.289 215.675 629.884C215.675 629.479 215.346 629.15 214.941 629.15C214.536 629.15 214.207 629.479 214.207 629.884C214.207 630.289 214.536 630.618 214.941 630.618Z" fill="white"/>
<path d="M232.317 606.726C232.938 606.726 233.442 606.222 233.442 605.601C233.442 604.979 232.938 604.476 232.317 604.476C231.695 604.476 231.191 604.979 231.191 605.601C231.191 606.222 231.695 606.726 232.317 606.726Z" fill="white"/>
<path d="M260.453 599.564C261.075 599.564 261.578 599.06 261.578 598.439C261.578 597.817 261.075 597.313 260.453 597.313C259.832 597.313 259.328 597.817 259.328 598.439C259.328 599.06 259.832 599.564 260.453 599.564Z" fill="white"/>
<path d="M269.905 586.17C270.596 586.17 271.157 585.609 271.157 584.917C271.157 584.226 270.596 583.665 269.905 583.665C269.213 583.665 268.652 584.226 268.652 584.917C268.652 585.609 269.213 586.17 269.905 586.17Z" fill="white"/>
<path d="M255.819 627.185C256.554 627.185 257.15 626.589 257.15 625.854C257.15 625.119 256.554 624.523 255.819 624.523C255.084 624.523 254.488 625.119 254.488 625.854C254.488 626.589 255.084 627.185 255.819 627.185Z" fill="white"/>
<path d="M261.406 631.861C261.811 631.861 262.139 631.533 262.139 631.127C262.139 630.722 261.811 630.394 261.406 630.394C261 630.394 260.672 630.722 260.672 631.127C260.672 631.533 261 631.861 261.406 631.861Z" fill="white"/>
<path d="M278.781 607.979C279.403 607.979 279.907 607.475 279.907 606.854C279.907 606.232 279.403 605.729 278.781 605.729C278.16 605.729 277.656 606.232 277.656 606.854C277.656 607.475 278.16 607.979 278.781 607.979Z" fill="white"/>
<path d="M306.922 600.817C307.543 600.817 308.047 600.313 308.047 599.692C308.047 599.07 307.543 598.566 306.922 598.566C306.301 598.566 305.797 599.07 305.797 599.692C305.797 600.313 306.301 600.817 306.922 600.817Z" fill="white"/>
<path d="M316.37 587.412C317.061 587.412 317.622 586.851 317.622 586.16C317.622 585.468 317.061 584.907 316.37 584.907C315.678 584.907 315.117 585.468 315.117 586.16C315.117 586.851 315.678 587.412 316.37 587.412Z" fill="white"/>
<path d="M234.987 636.841C235.722 636.841 236.318 636.245 236.318 635.51C236.318 634.775 235.722 634.18 234.987 634.18C234.252 634.18 233.656 634.775 233.656 635.51C233.656 636.245 234.252 636.841 234.987 636.841Z" fill="white"/>
<path d="M240.574 641.528C240.979 641.528 241.307 641.2 241.307 640.794C241.307 640.389 240.979 640.061 240.574 640.061C240.168 640.061 239.84 640.389 239.84 640.794C239.84 641.2 240.168 641.528 240.574 641.528Z" fill="white"/>
<path d="M257.949 617.635C258.571 617.635 259.075 617.131 259.075 616.51C259.075 615.889 258.571 615.385 257.949 615.385C257.328 615.385 256.824 615.889 256.824 616.51C256.824 617.131 257.328 617.635 257.949 617.635Z" fill="white"/>
<path d="M286.09 610.473C286.711 610.473 287.215 609.969 287.215 609.348C287.215 608.726 286.711 608.223 286.09 608.223C285.469 608.223 284.965 608.726 284.965 609.348C284.965 609.969 285.469 610.473 286.09 610.473Z" fill="white"/>
<path d="M295.549 597.069C296.241 597.069 296.802 596.508 296.802 595.817C296.802 595.125 296.241 594.564 295.549 594.564C294.858 594.564 294.297 595.125 294.297 595.817C294.297 596.508 294.858 597.069 295.549 597.069Z" fill="white"/>
<path d="M252.764 687.67C251.257 685.116 253.987 681.036 254.222 680.704C258.84 673.972 270.307 673.415 277.537 674.716C292.605 677.436 307.711 691.613 304.933 700.947C302.927 707.63 291.479 712.688 283.887 709.86C274.651 706.368 275.688 692.826 265.297 689.774C259.662 688.15 254.466 690.605 252.764 687.67Z" fill="black"/>
<path d="M310.94 725.212L306.41 685.713C306.41 685.713 309.972 681.506 312.564 681.174C315.157 680.841 328.757 682.152 333.943 687.044C339.128 691.936 343.335 704.538 343.335 704.538V729.742L310.94 725.212Z" fill="black"/>
<path d="M312.457 692.416C312.457 692.416 328.278 692.749 329.618 699.412C330.959 706.075 324.951 713.393 324.951 713.393L312.457 711.436" stroke="#FADE2A" stroke-width="0.97841" stroke-miterlimit="10"/>
<path d="M255.543 683.043C255.543 683.043 262.04 685.166 263.918 685.166C265.797 685.166 274.906 698.433 274.906 698.433L271.158 702.181" stroke="#FADE2A" stroke-width="0.97841" stroke-miterlimit="10"/>
<path d="M537.385 720.291L535.81 718.334C538.432 709.812 535.037 697.21 526.368 686.242C517.699 675.274 506.223 669.061 497.329 669.609L495.744 667.652L490.138 672.016C489.962 672.143 489.785 672.261 489.619 672.398C480.813 679.344 483.034 696.78 494.511 711.338C505.988 725.897 522.474 732.081 531.27 725.134C531.505 724.948 531.74 724.743 531.965 724.537L537.385 720.291Z" fill="#6581D8"/>
<path d="M537.385 720.29L531.994 724.546C531.769 724.751 531.544 724.957 531.299 725.153C522.494 732.099 506.056 725.916 494.54 711.357C491.009 706.951 488.229 701.992 486.312 696.681C485.581 694.622 485.028 692.504 484.658 690.35C484.658 690.262 484.658 690.174 484.658 690.086C483.465 682.601 485.06 676.085 489.658 672.475C489.825 672.338 490.01 672.221 490.187 672.093L495.793 667.661L496.106 668.062L497.368 669.667C506.262 669.09 517.739 675.303 526.407 686.3C535.076 697.297 538.471 709.88 535.859 718.392L537.385 720.29Z" fill="#6581D8" stroke="#231F20" stroke-width="0.244602" stroke-miterlimit="10"/>
<path d="M502.6 687.258L486.495 696.641C485.751 694.557 485.188 692.413 484.812 690.232C484.812 690.144 484.812 690.056 484.812 689.968L498.031 682.376L499.391 681.583L502.6 687.258Z" fill="white"/>
<path d="M497.944 682.651L484.676 690.018C484.676 689.93 484.676 689.842 484.676 689.754C483.483 682.269 485.058 676.056 489.657 672.407C489.823 672.27 490.009 672.152 490.185 672.025L495.791 667.593L496.104 667.994L497.944 682.377V682.651Z" fill="#1A2446"/>
<path d="M538.04 719.756C546.828 712.81 544.623 695.375 533.114 680.812C521.605 666.25 505.15 660.075 496.362 667.021C487.574 673.966 489.779 691.402 501.288 705.964C512.797 720.527 529.252 726.702 538.04 719.756Z" fill="#F9DB2F" stroke="#231F20" stroke-width="0.244602" stroke-miterlimit="10"/>
<path d="M332.543 469.789C456.431 469.789 556.863 369.357 556.863 245.468C556.863 121.58 456.431 21.1484 332.543 21.1484C208.654 21.1484 108.223 121.58 108.223 245.468C108.223 369.357 208.654 469.789 332.543 469.789Z" fill="#F9DB2F" stroke="#231F20" stroke-width="0.244602" stroke-miterlimit="10"/>
<mask id="mask0_12618_18156" style="mask-type:luminance" maskUnits="userSpaceOnUse" x="108" y="21" width="449" height="449">
<path d="M332.543 469.789C456.431 469.789 556.863 369.357 556.863 245.468C556.863 121.58 456.431 21.1484 332.543 21.1484C208.654 21.1484 108.223 121.58 108.223 245.468C108.223 369.357 208.654 469.789 332.543 469.789Z" fill="white"/>
</mask>
<g mask="url(#mask0_12618_18156)">
<path d="M274.306 153.801C278.142 153.351 281.008 151.727 282.388 147.833C283.66 144.242 287.212 144.399 290.098 143.919C293.18 143.381 294.383 142.315 292.974 139.203C292.528 138.28 292.318 137.261 292.362 136.236C292.407 135.212 292.705 134.214 293.229 133.333C293.618 132.569 294.199 131.919 294.914 131.446C295.628 130.973 296.454 130.693 297.309 130.633C299.354 130.496 298.796 132.541 299.52 133.568C300.244 134.595 300.117 136.699 302.211 135.603C303.972 134.683 303.708 133.128 302.896 131.689C300.997 128.187 299.315 125.261 294.53 128.862C290.939 131.562 286.947 129.351 285.91 124.899C283.611 115.115 286.546 111.143 296.673 110.448C297.485 110.399 298.874 110.282 298.992 109.9C300.626 104.519 306.545 101.838 307.631 96.2513C307.973 94.4412 309.236 94.1477 310.39 93.6976C318.129 90.645 325.888 88.4044 334.449 88.0228C340.007 87.7685 344.361 89.0013 349.272 90.9581C355.544 93.453 362.353 94.5782 368.909 96.3589C370.504 96.7894 372.617 96.9753 372.715 99.1278C372.813 101.505 370.543 101.887 368.86 102.562C366.57 103.492 364.173 103.012 361.796 102.924C360.592 102.875 358.909 101.515 358.225 103.355C357.54 105.194 358.753 106.632 360.299 107.571C361.581 108.335 362.989 108.902 364.477 109.626C364.672 108.247 362.52 105.713 365.093 106.251C369.183 107.102 371.14 104.45 373.654 102.64C375.308 101.447 377.098 101.593 379.231 101.378C378.83 100.618 378.552 99.7991 378.409 98.9517C378.409 97.5721 375.748 95.674 378.83 94.8815C380.787 94.3727 383.428 94.5195 383.878 97.0144C384.417 99.9497 385.209 99.6268 387.499 98.6288C392.391 96.5154 396.872 92.8171 403.153 94.8815C404.425 95.3022 411.157 97.0047 410.002 90.2439C409.797 89.0404 411.528 89.3437 412.448 89.7547C419.297 92.8171 427.242 91.4962 433.973 95.5468C431.732 92.2104 426.019 91.1244 428.68 85.5377C429.59 83.5809 429.717 80.3325 432.31 80.6456C435.724 80.9979 439.315 82.2209 440.137 86.5161C443.708 85.3616 440.577 82.9253 441.644 81.1544C444.579 81.0957 444.285 84.1973 446.252 85.7236C447.573 83.2091 449.804 82.3481 452.661 83.1112C453.285 83.1391 453.909 83.0495 454.5 82.8471C453.199 77.0451 457.758 80.1369 459.744 79.5205C461.124 79.09 462.777 79.7064 463.012 77.3386C463.179 75.7438 464.969 75.4796 466.221 75.284C471.886 74.4327 477.356 72.0454 483.285 73.0336C484.123 73.1799 484.983 73.1278 485.797 72.8814C486.611 72.635 487.356 72.2013 487.972 71.6149C492.57 67.6524 496.533 67.2219 501.767 70.1473C503.112 70.8639 504.616 71.2306 506.141 71.2138C508.009 71.2138 509.898 71.1453 511.757 71.341C514.76 71.6443 518.527 71.341 519.985 74.3349C521.668 77.7789 516.473 77.5343 515.494 80.5967C523.693 75.7047 531.247 80.2054 538.976 81.0077C542.368 81.4959 545.828 81.1604 549.063 80.0293C553.828 78.3073 559.366 80.4108 564.082 82.9645C566.166 84.0994 568.074 85.5573 570.187 86.6042C571.802 87.4065 573.661 89.2557 575.079 85.9291C575.715 84.3832 577.564 85.8312 578.827 85.5964C582.271 84.9507 586.556 87.7587 589.09 83.033C589.374 82.5046 591.047 82.5242 592.025 82.5927C597.612 82.9841 603.404 82.6905 608.737 84.119C615.985 85.9185 623.411 86.9031 630.878 87.0542C635.535 87.2303 640.437 87.4456 644.439 90.6841C645.985 91.9463 648.01 91.5843 649.859 91.6625C655.456 91.8386 661.082 91.3592 666.639 92.6409C667.95 92.9443 669.574 93.5313 670.21 91.1342C670.846 88.7371 673.067 90.0971 674.603 90.2341C687.323 91.3788 699.699 94.4706 711.998 97.9048C716.734 99.2159 721.635 99.9693 726.449 101.006C727.948 101.3 729.431 101.672 730.891 102.122C733.826 103.1 733.826 106.035 733.406 107.992C732.985 109.949 730.529 108.922 728.924 108.746C725.011 108.315 722.076 105.145 717.927 104.93C715.716 104.812 714.297 105.135 713.515 107.219C712.536 109.812 714.904 109.9 716.215 110.634C718.309 111.798 721.107 111.886 723.191 115.184C716.342 113.52 712.429 116.162 710.159 121.396C709.66 122.512 708.652 123.167 707.722 122.59C704.034 120.281 700.512 123.901 696.862 122.717C696.613 122.639 696.349 122.619 696.091 122.659C695.833 122.699 695.587 122.797 695.373 122.946C695.159 123.095 694.981 123.292 694.854 123.52C694.727 123.748 694.655 124.002 694.641 124.263C694.553 125.78 694.641 127.443 696.187 128.324C697.948 129.302 699.494 130.642 701.079 131.758C705.325 134.693 705.903 138.421 705.648 143.049C705.494 144.674 705.452 146.309 705.521 147.941C705.668 149.751 706.793 152.011 704.543 152.833C702.586 153.557 701.187 151.551 699.846 150.348C695.414 146.434 690.913 142.52 686.765 138.235C684.035 135.446 682.323 132.589 684.573 127.922C686.315 124.351 689.544 119.674 684.74 114.812C684.055 117.052 684.211 119.606 681.961 120.398C679.436 121.299 678.527 118.765 676.981 117.639C675.161 116.328 672.959 115.683 671.345 117.17C669.731 118.657 668.968 120.927 671.091 122.962C673.488 125.271 671.326 125.633 669.682 126.142C666.923 127.012 664.349 125.633 661.718 125.496C655.788 125.173 649.82 125.496 643.871 125.623C642.922 125.58 641.989 125.884 641.248 126.478C640.506 127.072 640.006 127.916 639.84 128.852C639.488 130.163 638.539 131.787 639.009 132.766C640.408 135.544 632.277 138.949 639.204 140.495C641.915 141.102 643.93 144.761 647.785 142.403C649.742 141.17 652.677 143.381 654.634 144.878C663.146 151.062 667.236 171.628 661.786 180.463C660.426 182.674 658.44 183.829 655.749 183.134C655.346 182.98 654.916 182.912 654.485 182.933C654.054 182.954 653.633 183.064 653.246 183.256C652.86 183.448 652.518 183.718 652.242 184.049C651.965 184.38 651.76 184.765 651.64 185.179C650.573 188.114 650.427 191.323 648.626 194.21C647.433 196.166 650.299 197.253 651.718 198.182C655.27 200.481 658.156 203.221 659.076 207.506C660.054 211.958 656.356 212.398 653.616 213.377C650.583 214.443 650.133 212.398 649.536 209.903C648.626 206.088 647.746 201.929 642.805 200.912C641.054 200.54 640.662 198.955 640.31 197.419C639.645 194.415 636.886 193.133 634.948 194.63C629.146 199.131 628.413 195.668 628.324 190.423C624.969 191.852 623.931 195.129 621.368 196.685C621.229 196.789 621.119 196.926 621.047 197.084C620.976 197.242 620.946 197.416 620.959 197.589C620.973 197.762 621.03 197.928 621.125 198.073C621.221 198.218 621.351 198.336 621.505 198.417C623.755 199.395 625.321 201.998 628.285 201.352C631.074 200.706 633.872 200.129 636.406 201.998C636.122 203.955 634.449 204.013 633.471 204.865C629.655 208.22 629.9 209.982 633.402 213.67C636.905 217.359 639.498 221.811 642.208 226.213C645.721 231.986 643.01 235.998 642.13 240.704C641.073 246.378 637.316 250.576 633.138 253.961C629.225 257.112 624.254 258.795 619.372 260.252C616.28 261.172 614.255 262.454 616.437 265.986C616.694 266.427 616.843 266.923 616.872 267.434C616.901 267.944 616.809 268.453 616.603 268.921C616.369 269.652 615.946 270.308 615.378 270.823C614.809 271.339 614.115 271.695 613.365 271.856C612.873 272.005 612.347 271.989 611.866 271.813C611.384 271.636 610.973 271.308 610.693 270.878C610.462 270.566 610.298 270.21 610.209 269.832C610.121 269.454 610.111 269.062 610.179 268.679C610.248 268.297 610.394 267.933 610.609 267.61C610.823 267.286 611.102 267.01 611.427 266.798C614.206 264.685 612.279 262.601 611.085 261.172C609.686 259.47 607.69 260.458 606.066 261.632C600.949 265.33 600.381 268.647 604.324 273.471C606.584 276.22 609.216 278.656 611.515 281.386C617.288 288.235 616.476 295.426 609.47 300.798C608.805 301.316 608.326 302.06 607.651 302.549C605.263 304.291 603.796 310.494 600.009 302.715C598.307 299.213 594.618 294.487 589.247 293.401C588.268 293.215 587.603 291.923 586.771 291.121C582.613 301.267 583.337 306.521 591.761 313.253C598.444 318.595 598.718 326.471 601.741 333.271C601.853 333.455 601.921 333.663 601.939 333.877C601.958 334.092 601.926 334.308 601.846 334.509C601.766 334.709 601.641 334.888 601.48 335.031C601.319 335.175 601.127 335.279 600.919 335.336C600.597 335.35 600.275 335.299 599.972 335.187C599.669 335.074 599.393 334.902 599.158 334.68C594.325 330.238 587.769 327.361 587.887 318.888C587.887 315.953 585.607 312.04 582.016 310.455C579.609 309.359 580.001 307.353 580.314 305.68C581.87 297.461 579.218 289.918 576.977 282.267C575.999 279.048 575.167 277.375 571.538 279.928C567.624 282.678 565.256 281.572 565.217 276.993C565.178 272.414 562.517 269.87 560.227 266.788C559.764 266.292 559.275 265.821 558.76 265.379C556.323 262.747 549.513 260.252 545.835 259.871C542.645 259.538 541.755 260.79 540.268 263.413C538.047 267.196 535.121 270.518 531.648 273.197C528.419 275.731 526.609 279.615 522.842 281.503C521.13 282.345 521.932 284.145 522.069 285.652C522.549 290.72 522.989 295.876 521.394 300.778C520.621 303.185 522.196 302.569 523.214 303.214C526.687 305.416 529.241 308.292 528.106 312.842C527.666 314.535 526.609 316.11 524.691 316.198C522.578 316.286 521.971 314.486 521.541 312.783C521.405 312.118 521.314 311.445 521.267 310.768C520.621 304.966 520.601 304.897 515.964 308.018C513.351 309.76 511.532 308.527 510.759 306.198C506.043 291.894 497.208 279.038 495.691 263.618C495.486 261.495 494.85 260.937 492.824 261.984C488.549 264.186 486.24 261.152 484.841 258.07C483.344 254.51 480.745 251.523 477.426 249.549C474.106 247.575 470.241 246.717 466.398 247.103C459.872 247.68 453.59 245.987 447.299 244.568C446.642 244.373 446.037 244.032 445.529 243.572C445.021 243.111 444.623 242.542 444.364 241.907C443.571 240.469 442.456 240.41 440.9 240.821C437.993 241.523 434.941 241.308 432.161 240.206C429.381 239.104 427.01 237.17 425.373 234.667C424.629 233.542 424.062 232.289 423.348 231.135C422.242 229.374 420.784 228.258 418.7 229.54C416.616 230.822 415.647 233.082 417.526 234.618C420.96 237.436 420.696 243.884 426.831 244.011C427.3 244.011 427.868 245.263 428.191 245.968C430.148 250.556 431.644 251.055 435.764 248.345C436.488 247.896 437.146 247.35 437.72 246.721C440.587 243.355 442.837 242.328 444.051 247.944C444.55 250.273 446.869 250.566 448.747 251.359C454.256 253.658 454.882 255.977 452.543 261.378C449.09 269.312 444.08 275.418 435.568 278.265C432.633 279.243 431.009 282.061 428.269 283.597C421.86 287.198 414.972 289.468 408.163 291.972C405.951 292.784 404.415 293.929 405.286 296.434C406.157 298.939 407.938 299.643 410.57 298.929C415.462 297.608 420.5 296.6 425.422 295.289C428.465 294.487 429.521 295.671 429.433 298.547C429.519 300.589 429.186 302.627 428.455 304.535C423.563 315.18 418.367 325.512 409.151 333.477C403.361 338.477 398.407 344.37 394.475 350.931C390.884 356.919 390.453 362.985 392.665 369.472C395.024 376.036 396.113 382.989 395.874 389.96C395.649 394.852 393.917 398.218 389.661 400.106C385.121 402.063 382.176 405.879 378.634 409.01C376.677 410.771 376.795 412.796 377.431 415.066C379.202 421.299 379.055 426.876 372.108 430.114C371.383 430.405 370.755 430.896 370.298 431.53C369.841 432.164 369.573 432.915 369.525 433.695C369.623 443.871 361.15 448.772 355.896 455.523C351.386 461.306 344.918 463.654 337.394 463.077C335.105 462.901 332.717 463.762 330.379 464.202C325.829 465.073 321.642 462.646 322.063 458.165C322.65 451.952 319.127 447.54 316.926 442.569C314.724 437.599 312.582 433.128 312.474 427.639C312.347 420.79 308.786 414.998 305.86 409.049C302.807 402.904 301.829 396.604 304.999 390.459C312.034 376.761 307.083 364.609 300.929 352.477C300.222 351.12 299.369 349.843 298.385 348.671C294.912 344.493 293.875 340.55 295.861 334.788C298.385 327.42 297.005 321.736 287.945 323.105C285.93 323.419 284.482 322.45 283.269 320.708C279.805 315.748 275.334 314.212 269.747 316.863C264.16 319.515 258.564 321.481 252.214 320.102C250.714 319.705 249.124 319.829 247.703 320.454C242.029 323.878 237.753 321.119 233.497 317.724C229.437 314.486 224.319 312.353 222.891 306.551C222.186 303.703 220.641 300.876 218.204 299.428C213.038 296.346 211.757 291.601 211.091 286.258C210.862 285.122 211.003 283.943 211.492 282.893C214.741 276.328 214.79 269.508 212.735 262.63C211.434 258.266 214.692 255.184 216.13 251.818C217.535 248.792 219.271 245.931 221.306 243.287C223.644 240.126 225.865 236.761 229.818 234.775C233.536 232.896 236.51 229.882 236.667 224.814C236.775 221.067 239.318 218.337 242.537 216.371C245.179 214.766 247.586 212.936 248.652 209.806C249.719 206.675 248.515 204.317 245.619 203.328C241.138 201.792 238.712 198.652 240.033 194.327C241.187 190.56 242.166 186.969 241.833 182.909C241.588 179.974 244.338 179.054 246.862 179.152C250.071 179.26 253.271 179.896 256.49 180.13C259.425 180.316 263.006 181.324 264.415 177.479C265.824 173.634 264.659 170.131 261.724 167.264C261.362 166.922 260.853 166.736 260.462 166.413C259.004 165.229 255.785 165.17 256.646 162.499C257.39 160.19 261.137 161.824 261.92 160.836C264.923 157.03 271.763 160.836 273.289 154.829L274.306 153.801ZM323.462 192.458C320.008 191.636 318.648 191.95 318.765 195.765C318.912 200.657 311.779 204.972 308.062 202.937C307.083 202.409 305.42 202.193 305.821 200.657C306.222 199.121 307.778 199.581 308.893 199.61C311.29 199.669 313.413 199.268 314.225 196.675C315.038 194.083 312.856 193.084 311.525 191.636C311.092 191.11 310.564 190.669 309.969 190.335C304.657 187.782 299.999 184.533 297.25 179.074C296.976 178.536 295.978 177.772 295.743 177.89C290.568 180.668 284.002 179.905 279.531 182.655C277.026 184.181 273.211 187.204 271.704 190.355C267.888 198.045 263.788 204.796 254.337 206.117C253.831 206.255 253.392 206.572 253.102 207.009C252.812 207.447 252.691 207.975 252.762 208.494C252.948 209.747 254.151 209.815 255.169 209.874C258.642 210.07 262.145 211.068 265.051 207.751C265.963 206.835 267.056 206.121 268.261 205.654C269.466 205.188 270.756 204.978 272.046 205.041C279.247 205.119 286.067 202.693 293.18 202.282C298.659 201.959 301.927 205.041 300.244 210.334C298.561 215.627 301.614 217.056 305.449 217.985C307.631 218.513 310.028 218.778 311.466 220.431C314.871 224.345 319.724 224.805 324.117 226.409C326.201 227.172 327.052 226.957 327.395 224.403C328.109 219.13 332.287 216.772 337.336 218.533C340.277 219.389 343.116 220.566 345.799 222.045C353.352 226.752 361.453 223.024 369.193 223.787C369.697 223.734 370.184 223.57 370.618 223.308C371.053 223.046 371.425 222.692 371.707 222.27C374.349 218.259 376.443 214.023 376.276 209.013C376.169 205.843 374.76 204.424 371.756 206.009C368.958 207.477 366.433 207.966 363.713 205.921C363.265 205.506 362.676 205.275 362.065 205.275C361.454 205.275 360.865 205.506 360.416 205.921C358.851 207.506 357.481 206.42 355.818 206.097C349.174 204.835 347.628 199.718 346.229 194.356C345.838 192.869 345.133 191 343.392 191.255C341.578 191.565 339.898 192.41 338.568 193.681C337.11 195.12 339.234 195.932 339.967 196.842C341.709 198.994 340.897 200.481 339.077 201.998C337.717 203.133 336.044 205.97 334.733 203.955C332.14 200.041 326.553 197.693 326.299 193.085C325.976 187.214 322.288 185.355 318.315 183.163C314.678 181.282 311.554 178.542 309.216 175.18C308.551 174.201 307.797 172.303 306.154 173.33C304.51 174.358 305.234 176.129 306.154 177.381C308.296 180.395 310.361 183.32 313.766 185.394C316.828 187.322 321.143 187.85 323.462 192.458ZM383.145 188.447C385.287 188.398 388.037 189.2 389.142 186.832C390.453 184.103 387.244 183.33 385.992 181.745C384.172 179.436 381.628 178.037 379.006 176.755C376.619 175.6 373.351 174.71 376.824 171.158C377.137 170.858 377.32 170.448 377.334 170.015C377.349 169.582 377.194 169.16 376.902 168.84C376.574 168.561 376.163 168.399 375.734 168.378C375.304 168.356 374.879 168.478 374.525 168.722C372.832 169.583 370.151 170.014 371.834 172.9C372.813 174.563 371.834 174.788 370.709 175.454C367.353 177.479 364.907 176.618 363.342 173.242C361.385 168.957 358.714 169.789 356.375 172.538C354.581 174.781 353.084 177.248 351.924 179.876C349.84 184.259 351.033 186.373 355.681 187.703C358.009 188.378 359.976 187.703 362.06 186.921C366.59 185.14 371.061 184.083 375.689 186.999C377.851 188.408 380.532 188.525 383.125 188.447H383.145ZM305.244 138.949C308.179 142.599 310.928 142.863 314.196 141.239C315.977 140.338 317.66 139.282 319.949 140.006C324.763 141.473 326.299 140.289 326.505 135.437C326.651 131.973 327.757 129.644 331.837 131.259C333.98 132.11 335.359 131.063 334.234 129.351C330.731 124.048 335.428 124.85 337.893 124.019C338.725 123.865 339.575 123.826 340.418 123.901C341.944 123.833 344.527 124.997 344.429 122.551C344.361 120.731 341.963 121.807 340.515 122.003C337.835 122.385 335.163 122.981 332.473 123.236C328.941 123.617 326.749 122.306 325.966 118.481C325.115 114.293 325.869 111.221 329.88 109.098C331.582 108.198 333.471 107.141 334.391 104.636C331.328 104.362 328.197 103.511 326.827 106.965C325.849 109.519 323.97 110.428 321.838 111.563C317.112 114.078 315.615 118.412 318.687 121.347C321.417 123.97 320.849 125.398 318.139 127.218C317.281 127.764 316.66 128.613 316.398 129.595C315.507 135.671 312.866 139.761 305.224 138.949H305.244ZM424.248 204.336C427.564 204.483 428.983 202.663 428.161 198.701C427.692 196.48 426.077 195.315 424.796 193.809C423.964 192.83 422.839 191.656 424.629 190.453C425.608 189.846 427.926 190.991 427.31 188.633C426.899 187.038 425.353 187.058 423.925 187.654C423.771 187.731 423.602 187.772 423.43 187.773C423.258 187.774 423.088 187.734 422.933 187.659C422.779 187.583 422.644 187.472 422.539 187.336C422.435 187.199 422.363 187.04 422.33 186.872C421.811 183.222 418.71 181.706 416.342 179.671C413.407 177.117 414.385 175.248 417.223 173.947C418.974 173.135 421.342 172.763 419.952 170.356C419.664 169.872 419.28 169.453 418.824 169.123C418.368 168.792 417.849 168.559 417.3 168.436C416.75 168.313 416.181 168.304 415.628 168.409C415.075 168.513 414.549 168.73 414.082 169.045C412.047 170.228 410.087 171.535 408.212 172.959C406.255 174.387 405.276 175.424 406.529 178.653C408.01 182.553 410.598 185.937 413.974 188.388C416.391 190.218 416.91 192.106 416.078 194.934C415.501 196.998 412.311 199.757 416.274 201.313C418.71 202.213 420.559 204.698 424.248 204.336ZM403.447 290.7C402.547 286.65 402.028 283.255 399.533 280.486C398.682 279.556 397.028 278.059 398.437 277.12C401.098 275.359 398.966 274.586 398.212 273.324C395.277 268.432 390.072 264.88 388.311 259.411C385.874 251.799 381.579 245.478 376.765 239.353C375.895 238.238 375.024 236.271 373.224 237.514C371.776 238.492 373.224 239.98 373.527 241.203C376.237 250.644 382.939 258.149 385.561 267.903C388.007 277.061 395.473 283.891 403.447 290.661V290.7Z" fill="#6581D8"/>
<path d="M110.188 153.214C101.784 159.035 91.7454 155.797 82.607 158.233C84.1627 159.926 86.8729 158.918 87.6263 160.982C88.3796 163.047 86.6968 164.475 85.8064 166.07C85.0922 167.332 84.5638 168.555 85.7379 169.778C86.4461 170.524 87.3524 171.053 88.3506 171.303C89.3488 171.553 90.3975 171.512 91.3736 171.187C92.2835 170.933 93.0075 170.023 93.8391 169.445C94.6708 168.868 95.8938 167.753 96.8918 169.162C97.8898 170.571 96.8918 171.52 95.6981 172.439C91.08 175.854 85.3466 176.598 80.3273 179.024C79.7207 179.318 78.2042 179.024 78.028 178.642C77.1475 176.686 76.5507 175.032 73.7622 176.451C69.6529 178.554 63.8802 178.603 62.6768 184.278C62.1093 186.939 61.2385 188.192 58.7632 188.564C50.6815 189.669 46.0438 195.716 40.868 201.009C40.2721 201.606 39.8903 202.383 39.782 203.22C39.42 208.484 35.7901 211.184 31.8471 213.719C28.7873 215.554 25.8282 217.553 22.9827 219.706C18.3255 223.454 14.6662 227.641 16.8285 234.49C17.5623 236.789 17.122 239.548 16.8285 242.053C16.6328 243.638 16.2513 245.752 14.1574 245.967C12.0636 246.182 11.457 244.137 10.6743 242.699C9.56009 240.393 9.19406 237.797 9.62741 235.273C9.96985 232.171 9.05995 229.823 5.2148 230.136C2.1328 230.391 -0.362167 227.915 -3.64963 228.463C-6.0076 228.854 -8.30685 228.806 -10.2441 230.557C-10.9533 231.311 -11.8883 231.814 -12.9083 231.991C-13.9283 232.167 -14.978 232.007 -15.8993 231.535C-19.5488 229.715 -22.5036 231.34 -25.9574 232.749C-37.4439 237.435 -37.8255 248.403 -40.2715 257.825C-41.4456 262.375 -38.5495 267.306 -34.2934 270.026C-30.3798 272.541 -26.4661 269.547 -22.6405 268.568C-20.9968 268.147 -20.6837 266.318 -20.1848 264.889C-19.5586 263.04 -18.6682 261.484 -16.6723 260.829C-14.2164 260.027 -11.4475 259.048 -9.41245 260.966C-7.67088 262.6 -9.55922 264.791 -10.1561 266.621C-11.3204 270.163 -12.7293 273.627 -14.0697 277.1C-14.9405 279.34 -14.1284 280.29 -11.8291 280.29C-9.52986 280.29 -7.40672 280.182 -5.20529 280.348C-0.313248 280.71 1.37941 283.009 0.371658 287.853C-0.146896 290.338 -1.0079 292.803 -1.15466 295.308C-1.55582 302.343 2.24042 305.474 9.10884 304.114C11.4962 303.634 13.952 303.4 15.8501 305.298C19.1571 308.614 21.5934 306.276 22.425 303.546C24.509 296.697 31.1035 295.925 35.9564 294.007C40.144 292.344 34.7628 297.285 37.6295 298.351C40.0657 295.054 42.5998 296.081 46.4352 297.598C50.9848 299.398 56.3073 301.13 61.669 299.192C63.5182 298.527 64.7608 298.752 66.5611 300.875C70.5921 305.767 76.1299 309.231 80.6013 313.849C82.7733 316.099 86.0999 316.98 89.5048 317.117C96.3537 317.401 99.9444 320.913 102.527 327.136C104.181 331.128 104.788 335.834 108.799 338.779C110.165 339.92 111.842 340.626 113.613 340.804C116.46 341.088 119.699 342.203 121.323 344.375C124.542 348.68 128.905 348.641 133.142 348.221C134.637 348.012 136.16 348.15 137.593 348.624C139.027 349.097 140.332 349.893 141.409 350.95C144.112 353.533 147.099 355.802 150.313 357.711C153.904 359.668 155.293 364.56 153.689 368.317C153.145 369.931 152.381 371.462 151.419 372.867C143.22 383.013 142.085 395.37 140.656 407.542C139.678 415.682 136.155 421.562 127.594 423.734C123.955 424.644 121.127 427.423 118.025 429.497C115.863 430.935 115.785 432.99 115.971 435.367C116.392 440.817 115.511 445.827 110.541 449.29C108.261 450.885 108.388 453.801 107.419 456.139C103.692 465.023 101.843 466.305 93.5457 464.426C93.1739 465.953 94.162 466.902 94.9545 467.978C98.5844 472.87 96.7352 477.987 90.6789 479.504C87.2936 480.345 83.4876 480.159 83.6931 485.472C83.7615 487.253 81.4036 487.673 79.6424 487.849C77.8813 488.026 76.9029 489.474 78.3509 490.491C83.9866 494.405 79.163 498.397 78.4194 502.164C78.0476 504.052 76.9714 506.077 78.5858 507.281C82.4994 510.216 81.7558 513.435 80.6306 517.476C78.7423 524.325 81.8438 529.461 88.4579 532.69C90.219 533.541 93.9174 533.306 92.8705 536.31C91.8921 539.147 88.6732 538.883 85.7673 538.541C71.1792 536.809 62.9899 526.8 57.0901 515.059C55.4072 511.703 52.0611 507.789 53.3623 502.829C53.7733 501.263 53.5776 499.649 54.8397 498.289C55.7007 497.379 56.0921 495.696 54.5267 495.354C50.8576 494.649 50.613 491.606 50.3195 489.151C49.3411 480.707 47.5016 472.518 47.169 463.8C46.5135 446.433 46.4352 428.93 43.6761 411.661C43.452 409.727 42.7708 407.875 41.6887 406.257C40.6066 404.639 39.1548 403.302 37.4534 402.356C29.4989 397.679 23.9807 391.153 19.842 382.69C16.3063 375.363 12.1043 368.377 7.28902 361.82C4.97018 358.719 3.10143 355.03 6.25191 351.126C7.01506 350.148 7.58252 349.101 6.83893 347.858C3.49277 342.233 7.13246 338.143 10.1753 334.161C17.484 324.68 19.4702 319.739 14.539 309.847C12.7779 306.325 10.8993 305.806 9.09906 309.847C8.57071 311.041 7.83691 312.215 6.50627 311.56C0.0976868 308.399 -6.90773 306.061 -9.72554 298.312C-11.2421 294.173 -13.512 290.485 -18.7073 289.702C-21.1615 289.411 -23.5332 288.634 -25.6835 287.416C-27.8339 286.198 -29.7198 284.564 -31.231 282.608C-31.899 281.699 -32.8417 281.028 -33.9198 280.696C-34.9978 280.363 -36.1544 280.385 -37.2189 280.759C-40.9564 281.943 -44.2536 280.808 -47.5215 279.213C-53.1577 276.449 -58.5572 273.225 -63.6653 269.576C-66.4342 267.619 -67.8724 265.339 -66.2874 261.749C-64.7024 258.158 -66.6005 255.555 -68.9389 253.09C-75.4551 246.241 -77.9892 237.367 -81.169 228.825C-81.7756 227.211 -81.4723 224.373 -84.1043 225.088C-86.2959 225.675 -85.9437 228.13 -85.3175 229.98C-82.9693 236.701 -80.5037 243.394 -78.0675 250.086C-77.5098 251.642 -76.1107 253.559 -78.0675 254.645C-80.0243 255.731 -80.1124 253.07 -81.0908 252.141C-85.1316 248.354 -86.3742 242.709 -88.9963 238.14C-90.8357 234.95 -91.2956 228.854 -91.0705 223.943C-90.8651 219.511 -92.049 215.891 -96.2952 213.777C-96.9008 213.464 -97.4367 213.031 -97.8705 212.505C-100.727 209.091 -100.091 193.123 -98.4086 188.916C-95.0918 180.59 -87.5874 175.052 -84.5348 166.628C-83.4487 163.624 -82.7932 161.276 -85.5132 158.879C-86.834 157.695 -87.47 156.119 -86.0024 154.388C-82.5584 150.318 -82.5192 143.899 -85.9339 140.162C-87.9494 137.941 -86.9906 135.27 -87.0004 132.863C-87.0004 125.877 -88.057 126.014 -94.2112 123.323C-102.117 119.879 -108.711 123.656 -115.844 124.791C-116.695 124.928 -117.977 125.857 -118.329 124.321C-118.446 123.803 -117.478 123.03 -116.216 121.288C-135.295 131.483 -154.129 138.899 -174.734 141.101L-141.4 128.382C-142.466 126.425 -143.866 126.982 -144.903 126.552C-145.952 126.12 -146.904 125.482 -147.703 124.678C-148.503 123.873 -149.134 122.917 -149.56 121.865C-150.284 119.732 -148.171 117.825 -146.38 116.513C-141.556 112.981 -135.784 112.101 -130.119 110.966C-128.671 110.672 -126.998 111.064 -125.863 109.303C-127.223 107.561 -129.268 108.422 -130.921 108.011C-132.085 107.727 -133.377 107.61 -133.582 106.113C-133.696 105.513 -133.575 104.892 -133.246 104.377C-132.917 103.863 -132.404 103.493 -131.812 103.344C-127.898 102.366 -124.17 99.8218 -120.071 100.927C-117.135 101.71 -116.676 100.634 -116.871 98.315C-117.038 96.2995 -116.353 94.9982 -114.269 94.6754C-105.15 93.2762 -96.7453 89.3332 -87.7244 87.4351C-80.2298 85.8501 -73.7331 89.3919 -66.7277 90.0768C-59.7223 90.7617 -52.6777 91.7205 -45.6919 93.012C-38.7061 94.3035 -30.732 91.5836 -23.1885 90.7324C-14.1969 89.7539 -5.29333 91.9651 3.52214 94.0687C5.78226 94.6068 4.50053 99.5282 7.11288 97.2779C9.72523 95.0276 5.5083 94.1959 4.52989 92.5913C2.90573 89.9301 6.41821 88.4918 6.29102 85.6544C3.54169 86.4078 0.958679 87.2786 -1.69281 87.7775C-3.54201 88.12 -5.82169 88.0808 -6.45766 85.8794C-7.26974 83.0812 -4.42256 83.3062 -2.93538 82.592C-1.10574 81.7114 0.821732 81.1537 2.39697 79.7155C4.89989 77.481 8.14973 76.2665 11.5046 76.3118C14.8595 76.3571 18.0754 77.6589 20.5171 79.9601C23.4523 82.6311 30.9665 83.3551 34.89 81.3983C36.0934 80.8015 37.4632 79.9209 38.7253 80.8211C39.9875 81.7212 39.5276 83.2866 39.2928 84.6075C39.1656 85.2728 38.7547 85.8794 38.6568 86.5643C37.3751 94.9884 37.3849 94.9884 28.7944 93.785L25.2233 93.286C28.3053 97.5812 37.9426 98.589 41.4062 94.9004C42.502 93.7458 43.5782 92.4935 45.0752 92.3565C53.2547 91.6227 58.0881 85.4392 63.9096 80.9483C67.2753 78.3555 70.054 77.6803 75.944 79.3339C73.7966 81.3039 71.1787 82.6887 68.3418 83.3551C63.2149 84.6369 62.0702 88.345 65.4555 92.4641C67.4123 94.8221 67.4123 94.8221 65.9447 98.4422C69.1832 97.9824 71.2477 95.8396 73.5763 94.372C75.5331 93.1686 76.2767 91.5933 73.2045 90.5269C69.3593 89.1864 70.2693 87.0926 72.412 84.8325C75.083 82.0147 78.7129 79.0795 82.0689 79.9405C88.5949 81.5353 94.7882 78.8153 101.06 79.7742C101.891 79.9013 103.017 79.8329 103.496 80.3221C107.459 84.1574 112.302 86.5154 117.194 88.8049C118.29 89.3137 119.307 90.6247 118.71 91.7401C116.832 95.2233 118.583 96.094 121.538 97.3464C123.289 98.09 127.203 98.8042 125.452 102.366C124.101 105.115 117.732 106.7 115.667 105.301C114.484 104.518 113.632 102.15 112.028 103.344C110.071 104.782 112.028 106.328 112.918 107.669C113.809 109.009 113.358 109.968 112.918 111.387C111.764 115.476 105.414 111.504 105.257 116.621C101.481 115.75 97.244 115.535 94.6708 112.287C92.0976 109.038 90.0136 106.416 85.5031 108.921C84.2899 109.586 82.4407 109.234 82.4798 107.424C82.519 105.614 84.4366 104.802 85.8847 105.095C91.08 106.152 94.4164 102.64 98.3007 100.487C99.4944 99.8218 101.021 98.8727 100.042 97.366C99.0639 95.8592 97.6452 97.0431 96.52 97.7475C95.724 98.372 94.8725 98.9222 93.9761 99.3913C92.7629 99.8609 91.442 99.6163 91.0409 98.2172C90.7474 97.1116 91.7356 96.505 92.7042 95.9864C93.9859 95.3015 96.9114 96.1625 96.1678 93.5012C95.5122 91.1433 93.0271 91.7792 90.9626 91.6031C86.0119 91.1824 82.881 92.8848 80.5915 97.4736C78.6347 101.387 73.4686 103.344 68.0189 103.422C67.7547 104.264 68.4788 104.538 68.9288 104.968C70.4552 106.426 73.5273 107.326 72.6664 109.86C71.6879 112.727 69.2321 110.477 67.4221 110.173C65.612 109.87 64.6825 111.426 63.254 111.778C60.084 112.551 58.1957 111.856 59.5948 107.864C50.1336 110.692 41.9834 115.887 33.4321 120.329C31.1818 121.494 28.4227 123.147 28.5401 126.258C28.6966 129.781 31.0057 131.542 34.3421 132.872C38.8427 134.663 42.3748 138.577 47.5897 139.017C48.9693 139.134 49.9085 140.445 49.0378 141.59C47.4038 143.723 49.8205 146.247 48.0593 148.282C47.257 149.192 47.8343 150.239 48.6268 150.963C49.6053 151.844 50.5152 151.257 51.4251 150.777C52.1876 150.382 52.8421 149.806 53.3314 149.1C53.8208 148.394 54.1303 147.58 54.2331 146.727C54.8202 142.441 56.9335 140.025 61.1896 138.479C65.4457 136.933 70.553 134.751 67.9015 128.186C71.8151 124.194 72.5881 117.149 77.4508 114.997C82.8125 112.619 88.9667 114.273 93.6337 118.979C94.9643 120.319 94.6121 121.2 94.074 122.511C93.4478 124.018 93.4282 125.583 94.8274 126.689C96.2265 127.795 97.7626 127.08 99.1128 126.356C100.631 125.595 102.076 124.694 103.428 123.666C106.813 120.906 108.163 122.423 108.652 125.975C108.926 127.99 109.572 130.074 109.298 132.021C108.819 135.436 110.404 137.451 112.879 139.281C117.389 142.627 118.006 145.846 116.049 150.963C114.934 153.899 113.114 157.147 118.084 159.338C120.755 160.503 120.041 164.162 119.063 166.569C118.084 168.976 116.206 168.291 114.004 167.391C111.402 166.324 108.388 166.217 105.531 165.835C101.735 165.336 101.617 163.712 104.103 161.374C106.441 159.172 108.926 157.137 111.353 155.024L110.188 153.214Z" fill="#6581D8"/>
<path d="M144.503 60.1083C157.643 58.4744 170.842 57.5742 184.002 56.3708C194.089 55.4413 204.137 54.14 214.332 53.8563C222.786 53.6312 230.907 54.8347 238.636 58.2787C240.234 58.8907 241.986 58.9764 243.636 58.5233C246.468 57.934 249.386 57.8875 252.236 58.3863C247.06 61.1161 243.01 63.386 238.362 64.384C236.503 64.7753 234.644 65.108 235.632 68.0041C236.533 70.6556 232.952 78.5807 230.388 79.8331C227.257 81.3594 225.046 83.2281 225.124 87.1124C225.124 89.578 223.383 90.2923 221.103 90.7815C211.466 92.8459 201.907 95.1843 193.571 100.859C192.215 101.905 190.61 102.58 188.913 102.816C177.583 103.305 171.194 110.976 165.099 118.999C163.005 121.768 160.735 124.38 157.174 122.912C153.329 121.367 148.417 121.112 146.959 115.731C145.634 110.455 145.208 104.995 145.697 99.5774C145.971 95.5365 149.121 93.5895 152.223 91.6816C151.509 90.3314 149.288 92.0045 149.072 90.0085C148.965 88.8148 149.806 88.2082 150.785 87.7679C151.763 87.3277 153.456 86.7895 151.293 85.635C149.796 84.8132 150.315 83.8054 150.628 82.6117C151.988 77.025 150.491 74.7845 144.484 73.6691C140.482 72.9059 136.441 72.3678 132.449 71.5655C130.316 71.135 127.499 70.5871 127.841 67.828C128.134 65.3722 131.031 65.7537 132.919 65.4015C135.923 64.8267 138.958 64.4314 142.008 64.2176C144.993 64.0122 145.227 62.3684 144.621 60.0594L144.503 60.1083Z" fill="#6581D8"/>
<path d="M144.598 60.0699C135.785 60.6065 127.178 62.9582 119.316 66.9775C113.24 70.1378 106.988 72.3685 99.8753 71.5565C96.6074 71.1847 93.1145 70.9988 89.1128 72.936C93.5156 73.21 97.077 73.3665 100.619 73.6894C101.548 73.7677 102.869 74.1297 102.576 75.4505C102.431 75.8312 102.192 76.1686 101.88 76.4306C101.568 76.6926 101.195 76.8705 100.795 76.9475C93.2416 76.4974 85.2872 80.5872 78.1937 75.0494C77.6262 74.6091 76.9609 74.0025 76.4619 74.658C72.7733 79.5501 67.94 75.9691 63.6741 76.3605C62.0695 76.5072 59.3593 76.4192 60.0638 73.5133C60.2809 72.4923 60.8884 71.5966 61.7566 71.0171C62.6248 70.4377 63.6851 70.2204 64.7112 70.4117C65.3872 70.4767 66.039 70.6967 66.616 71.0548C67.193 71.4129 67.6796 71.8993 68.0378 72.4762C69.5739 74.7167 71.11 74.5112 72.0982 72.0848C73.3408 69.0517 75.7379 68.856 77.9198 70.128C81.8334 72.4664 85.3263 71.4391 89.0051 69.7464C88.8486 67.8581 86.6569 67.8972 86.0699 66.547C85.0915 64.4239 84.5142 62.9073 87.6941 61.4691C92.6546 59.2383 97.7815 59.0524 102.947 58.4458C119.13 56.489 135.333 55.1094 151.653 55.853C152.455 55.853 153.267 56.0584 155.204 56.3128C151.291 58.8078 147.377 58.0935 144.52 60.0797L144.598 60.0699Z" fill="#6581D8"/>
<path d="M405.883 408.707C405.609 407.034 405.227 405.37 405.08 403.688C404.797 400.566 405.814 397.484 408.661 396.428C414.16 394.402 417.545 390.42 420.667 385.89C421.567 384.579 422.408 382.456 424.473 383.249C426.175 383.894 426.361 385.929 426.674 387.593C427.545 392.064 424.942 395.762 423.846 399.784C421.704 407.611 419.267 415.438 417.125 423.266C415.99 427.424 414.336 430.956 409.708 432.071C406.988 432.727 405.002 431.377 403.574 429.381C400.834 425.467 401.089 421.279 403.192 417.327C404.65 414.558 406.137 411.965 405.883 408.707Z" fill="#6581D8"/>
<path d="M274.306 153.801L273.229 154.779C266.946 154.516 260.668 155.394 254.698 157.372C257.183 152.304 256.352 146.972 260.98 143.831C261.89 143.215 260.784 141.659 259.659 141.052C258.044 140.172 256.401 139.36 254.767 138.528H254.825C253.338 130.701 254.825 128.822 264.688 125.809C264.443 133.088 266.253 140.025 271.605 144.8C274.893 147.803 274.628 150.523 274.306 153.801Z" fill="#6581D8"/>
<path d="M224.125 111.583C220.622 111.192 218.577 106.319 214.429 104.94C214.339 104.736 214.293 104.516 214.293 104.294C214.293 104.071 214.339 103.852 214.429 103.648C215.495 102.445 217.188 101.447 218.46 102.151C223.43 104.9 228.4 102.689 233.351 102.552C235.748 102.484 238.077 102.611 238.537 105.282C238.996 107.953 236.58 108.511 234.672 109.196C231.291 110.501 227.738 111.305 224.125 111.583Z" fill="#6581D8"/>
<path d="M254.757 138.577C256.587 145.484 252.878 151.159 245.951 151.756C242.096 152.079 240.981 150.68 243.388 147.069C244.298 145.7 241.539 142.989 244.366 141.855C247.751 140.504 250.462 136.777 254.835 138.626L254.757 138.577Z" fill="#6581D8"/>
</g>
<path d="M64.1875 379.666L138.468 461.275C138.468 461.275 151.912 466.725 162.625 468.232C193.797 472.596 253.011 429.096 253.011 429.096L202.134 358.836C202.134 358.836 177.605 369.598 149.436 378.776C105.369 393.061 64.1875 379.666 64.1875 379.666Z" fill="#6581D8" stroke="#231F20" stroke-width="0.244602" stroke-miterlimit="10"/>
<path d="M113.949 413.715C113.949 413.715 159.563 402.552 216.418 368.337C265.114 338.984 296.56 311.589 296.56 311.589L360.959 395.018C360.959 395.018 354.648 414.028 267.286 462.352C207.974 495.158 186.078 495.618 186.078 495.618L113.949 413.715Z" fill="#6581D8" stroke="#231F20" stroke-width="0.244602" stroke-miterlimit="10"/>
<path d="M211.223 387.602C211.223 387.602 243.716 370.157 303.115 320.092C351.742 279.116 389.283 231.741 389.283 231.741L453.77 311.599C453.77 311.599 447.548 343.798 371.427 407.287C313.193 455.875 281.962 471.579 281.962 471.579L211.223 387.602Z" fill="#6581D8" stroke="#231F20" stroke-width="0.244602" stroke-miterlimit="10"/>
<path d="M332.496 314.426C332.496 314.426 360.87 288.008 410.769 228.541C451.94 179.503 459.807 144.916 459.807 144.916L531.71 231.73C531.71 231.73 531.309 246.651 486.703 306.275C441.266 367.005 406.562 394.655 406.562 394.655L332.496 314.426Z" fill="#6581D8" stroke="#231F20" stroke-width="0.244602" stroke-miterlimit="10"/>
<path d="M446.637 204.756C446.637 204.756 462.771 192.115 484.511 139.985C498.023 107.561 489.403 76.3105 489.403 76.3105L561.316 152.627C561.316 152.627 571.756 182.448 556.923 216.849C526.935 286.522 519.088 288.185 519.088 288.185L446.637 204.756Z" fill="#6581D8" stroke="#231F20" stroke-width="0.244602" stroke-miterlimit="10"/>
<path d="M80.9065 295.504L152.937 377.622L150.237 378.6L134.719 362.476C134.719 362.476 106.952 367.094 89.7122 346.234C72.4726 325.375 80.9065 295.504 80.9065 295.504Z" fill="#263769" stroke="#231F20" stroke-width="0.244602" stroke-miterlimit="10"/>
<path d="M92.2188 350.031L123.587 384.413L150.209 378.65L134.163 361.968L92.2188 350.031Z" fill="#6581D8" stroke="#231F20" stroke-width="0.244602" stroke-miterlimit="10"/>
<path d="M466.402 30.4717L520.743 97.1699C520.743 97.1699 530.899 61.7612 511.419 46.1165C491.939 30.4717 466.402 30.4717 466.402 30.4717Z" fill="#263769" stroke="#231F20" stroke-width="0.244602" stroke-miterlimit="10"/>
<path d="M519.645 56.957L586.607 131.747C586.48 130.768 594.826 139.936 595.413 159.739C595.616 166.437 595.249 173.141 594.317 179.777L520.76 97.1697C520.76 97.1697 523.871 89.9392 523.969 77.6797C524.047 62.5731 519.645 56.957 519.645 56.957Z" fill="#6581D8" stroke="#231F20" stroke-width="0.244602" stroke-miterlimit="10"/>
<path d="M517.191 203.504C530.295 203.504 540.918 192.881 540.918 179.777C540.918 166.673 530.295 156.051 517.191 156.051C504.088 156.051 493.465 166.673 493.465 179.777C493.465 192.881 504.088 203.504 517.191 203.504Z" fill="#F9DB2F" stroke="#231F20" stroke-width="0.244602" stroke-miterlimit="10"/>
<path d="M422.91 319.23C436.014 319.23 446.636 308.608 446.636 295.504C446.636 282.4 436.014 271.777 422.91 271.777C409.806 271.777 399.184 282.4 399.184 295.504C399.184 308.608 409.806 319.23 422.91 319.23Z" fill="#F9DB2F" stroke="#231F20" stroke-width="0.244602" stroke-miterlimit="10"/>
<path d="M337.242 390.947C350.346 390.947 360.969 380.324 360.969 367.221C360.969 354.117 350.346 343.494 337.242 343.494C324.138 343.494 313.516 354.117 313.516 367.221C313.516 380.324 324.138 390.947 337.242 390.947Z" fill="#F9DB2F" stroke="#231F20" stroke-width="0.244602" stroke-miterlimit="10"/>
<path d="M227.502 406.984C223.166 411.138 220.567 416.781 220.229 422.775C219.891 428.77 221.839 434.669 225.68 439.283C229.521 443.898 234.969 446.884 240.926 447.639C246.882 448.394 252.903 446.862 257.774 443.352L227.502 406.984Z" fill="#F9DB2F" stroke="#231F20" stroke-width="0.244602" stroke-miterlimit="10"/>
</g>
<defs>
<clipPath id="clip0_12618_18156">
<rect width="831.848" height="815" fill="white" transform="translate(0.078125 0.5)"/>
</clipPath>
</defs>
</svg>
