<svg width="390" height="771" viewBox="0 0 390 771" fill="none" xmlns="http://www.w3.org/2000/svg">
<g opacity="0.36" clip-path="url(#clip0_12633_18355)">
<path d="M202.699 664.265C201.985 668.805 213.775 677.356 218.686 680.418C224.703 684.175 226.944 683.774 233.176 687.267C236.718 689.224 241.151 692.247 252.324 704.585C262.108 715.347 273.976 729.573 273.976 729.573C276.618 732.734 279.847 736.716 285.629 739.142C291.705 741.716 293.222 739.455 298.025 741.314C308.788 745.502 306.655 759.141 318.572 764.875C322.086 766.424 325.886 767.217 329.726 767.203C340.058 767.624 344.774 763.29 349.881 766.039C353.54 767.996 353.198 771.381 355.752 775.363C361.955 784.912 376.083 784.335 391.953 786.605C404.809 788.444 413.644 792.211 431.921 797.847C450.618 803.62 459.072 809.461 479.051 814.167C484.382 815.482 489.79 816.462 495.244 817.102C506.72 818.403 509.92 816.711 524.596 817.229C535.955 817.63 541.738 817.875 546.962 820.35C552.617 823.031 557.099 827.092 563.448 832.845C567.431 836.455 570.513 839.694 572.567 841.866C575.522 842.525 578.533 842.898 581.559 842.981C587.057 843.138 588.232 842.228 588.633 841.866C590.785 839.909 590.12 836.24 589.963 833.843C589.621 828.53 592.067 823.755 596.959 814.186C601.196 805.909 608.025 800.714 626.311 786.214C626.311 786.214 671.749 750.091 682.726 750.629C682.726 750.629 682.893 750.629 682.932 750.57C683.353 749.866 672.893 743.398 664.528 737.42C649.509 726.658 642.025 721.296 637.632 712.598C634.285 705.935 635.557 703.685 630.303 693.284C627.853 688.188 624.836 683.383 621.312 678.96C615.686 672.023 613.768 672.532 604.679 663.638C598.564 657.67 598.896 656.917 589.357 647.006C588.065 645.655 583.731 641.135 578.536 636.184C564.838 623.083 558.048 616.538 550.387 613.035C543.029 609.669 541.072 611.235 524.077 609.033C496.555 605.472 499.167 601.04 481.438 600.042C458.866 598.78 446.098 605.501 434.807 601.02C430.703 599.328 426.222 598.754 421.824 599.357C419.016 599.787 416.589 600.12 415.161 602.018C412.539 605.501 416.022 610.208 415.493 618.504C415.115 621.918 414.29 625.267 413.038 628.465C405.944 647.661 205.497 646.546 202.699 664.265Z" fill="black" stroke="black" stroke-width="0.97841" stroke-miterlimit="10"/>
<path d="M298.623 740.543L291.295 728.557L288.301 694.244" stroke="#FADE2A" stroke-width="0.97841" stroke-miterlimit="10"/>
<path d="M322.73 712.276C322.73 712.276 324.981 726.258 323.983 729.888" stroke="#FADE2A" stroke-width="0.97841" stroke-miterlimit="10"/>
<path d="M332.348 726.756C336.34 733.605 336.261 734.378 336.261 734.378" stroke="#FADE2A" stroke-width="0.97841" stroke-miterlimit="10"/>
<path d="M347.708 717.393C347.708 717.393 339.216 740.248 342.21 748.623C345.204 756.999 352.209 771.127 352.209 771.127" stroke="#FADE2A" stroke-width="0.97841" stroke-miterlimit="10"/>
<path d="M378.559 727.881C378.559 727.881 379.537 739.377 377.062 745.375C374.586 751.372 370.32 752.116 370.32 752.116" stroke="#FADE2A" stroke-width="0.97841" stroke-miterlimit="10"/>
<path d="M378.754 747.871L391.297 750.865L414.28 752.117" stroke="#FADE2A" stroke-width="0.97841" stroke-miterlimit="10"/>
<path d="M400.525 736.09C407.576 738.916 415.05 740.54 422.637 740.894C429.843 741.16 437.046 740.319 443.996 738.399C458.154 734.681 496.214 720.788 546.289 699.899L556.924 695.457C558.421 694.478 556.357 695.652 557.854 694.635C557.58 689.381 558.509 684.557 558.235 679.313C470.736 651.096 385.604 620.227 298.105 592.009C288.021 586.646 276.334 585.12 265.211 587.714C262.794 588.282 261.043 588.879 260.632 589.016C255.897 590.61 224.91 599.064 137.871 622.076C138.165 627.8 137.793 634.512 138.497 636.263C141.188 642.985 171.108 651.918 179.248 655.078C290.601 698.01 385.203 730.161 400.525 736.09Z" fill="#4C61A2" stroke="#231F20" stroke-width="0.244602" stroke-miterlimit="10"/>
<path d="M401.044 721.081C414.876 726.658 430.17 727.471 444.515 723.39L552.424 682.542C560.065 679.92 555.515 678.922 554.791 678.56C548.467 675.303 541.705 672.98 534.714 671.662C490.529 655.313 463.418 639.961 421.454 622.467C386.065 607.713 335.862 590.796 298.624 577.001C292.916 573.961 286.645 572.127 280.198 571.612C273.752 571.097 267.269 571.912 261.151 574.007L148.741 613.975C144.662 615.472 137.822 617.839 137.871 621.499C137.93 625.5 146.188 628.348 149.074 629.326C165.462 635.108 264.301 671.515 401.044 721.081Z" fill="#6581D8" stroke="#231F20" stroke-width="0.244602" stroke-miterlimit="10"/>
<path d="M203.045 652.813L186.447 646.926C184.888 646.373 183.177 647.188 182.624 648.746L182.287 649.696C181.734 651.255 182.55 652.966 184.108 653.519L200.706 659.406C202.265 659.959 203.976 659.144 204.529 657.585L204.866 656.636C205.418 655.077 204.603 653.366 203.045 652.813Z" stroke="#FFD61F" stroke-width="0.97841" stroke-miterlimit="10"/>
<path d="M228.334 661.79L211.736 655.902C210.177 655.349 208.466 656.165 207.913 657.723L207.576 658.673C207.024 660.231 207.839 661.943 209.397 662.495L225.995 668.383C227.554 668.936 229.265 668.12 229.818 666.562L230.155 665.612C230.707 664.054 229.892 662.342 228.334 661.79Z" stroke="#FFD61F" stroke-width="0.97841" stroke-miterlimit="10"/>
<path d="M206.387 650.205L401.09 721.081C401.09 721.081 422.165 729.114 439.914 724.535C454.962 720.621 558.947 679.333 558.947 679.333C558.947 679.333 547.03 676.309 522.129 665.928C488.863 652.074 421.5 622.467 421.5 622.467C421.5 622.467 306.811 608.496 206.387 650.205Z" fill="#FADE2A" stroke="#231F20" stroke-width="0.244602" stroke-miterlimit="10"/>
<path d="M346.341 665.928C370.755 665.928 390.546 657.969 390.546 648.151C390.546 638.332 370.755 630.373 346.341 630.373C321.928 630.373 302.137 638.332 302.137 648.151C302.137 657.969 321.928 665.928 346.341 665.928Z" stroke="black" stroke-width="0.97841" stroke-miterlimit="10"/>
<path d="M249.664 491.391L302.136 648.151" stroke="black" stroke-width="0.97841" stroke-miterlimit="10"/>
<path d="M190.354 625.432C191.089 625.432 191.685 624.836 191.685 624.101C191.685 623.366 191.089 622.771 190.354 622.771C189.619 622.771 189.023 623.366 189.023 624.101C189.023 624.836 189.619 625.432 190.354 625.432Z" fill="white"/>
<path d="M195.941 630.118C196.346 630.118 196.675 629.789 196.675 629.384C196.675 628.979 196.346 628.65 195.941 628.65C195.536 628.65 195.207 628.979 195.207 629.384C195.207 629.789 195.536 630.118 195.941 630.118Z" fill="white"/>
<path d="M213.317 606.226C213.938 606.226 214.442 605.722 214.442 605.101C214.442 604.479 213.938 603.976 213.317 603.976C212.695 603.976 212.191 604.479 212.191 605.101C212.191 605.722 212.695 606.226 213.317 606.226Z" fill="white"/>
<path d="M241.453 599.064C242.075 599.064 242.578 598.56 242.578 597.939C242.578 597.317 242.075 596.813 241.453 596.813C240.832 596.813 240.328 597.317 240.328 597.939C240.328 598.56 240.832 599.064 241.453 599.064Z" fill="white"/>
<path d="M250.905 585.67C251.596 585.67 252.157 585.109 252.157 584.417C252.157 583.726 251.596 583.165 250.905 583.165C250.213 583.165 249.652 583.726 249.652 584.417C249.652 585.109 250.213 585.67 250.905 585.67Z" fill="white"/>
<path d="M236.819 626.685C237.554 626.685 238.15 626.089 238.15 625.354C238.15 624.619 237.554 624.023 236.819 624.023C236.084 624.023 235.488 624.619 235.488 625.354C235.488 626.089 236.084 626.685 236.819 626.685Z" fill="white"/>
<path d="M242.406 631.361C242.811 631.361 243.139 631.033 243.139 630.627C243.139 630.222 242.811 629.894 242.406 629.894C242 629.894 241.672 630.222 241.672 630.627C241.672 631.033 242 631.361 242.406 631.361Z" fill="white"/>
<path d="M259.781 607.479C260.403 607.479 260.907 606.975 260.907 606.354C260.907 605.732 260.403 605.229 259.781 605.229C259.16 605.229 258.656 605.732 258.656 606.354C258.656 606.975 259.16 607.479 259.781 607.479Z" fill="white"/>
<path d="M287.922 600.317C288.543 600.317 289.047 599.813 289.047 599.192C289.047 598.57 288.543 598.066 287.922 598.066C287.301 598.066 286.797 598.57 286.797 599.192C286.797 599.813 287.301 600.317 287.922 600.317Z" fill="white"/>
<path d="M297.37 586.912C298.061 586.912 298.622 586.351 298.622 585.66C298.622 584.968 298.061 584.407 297.37 584.407C296.678 584.407 296.117 584.968 296.117 585.66C296.117 586.351 296.678 586.912 297.37 586.912Z" fill="white"/>
<path d="M215.987 636.341C216.722 636.341 217.318 635.745 217.318 635.01C217.318 634.275 216.722 633.68 215.987 633.68C215.252 633.68 214.656 634.275 214.656 635.01C214.656 635.745 215.252 636.341 215.987 636.341Z" fill="white"/>
<path d="M221.574 641.028C221.979 641.028 222.307 640.7 222.307 640.294C222.307 639.889 221.979 639.561 221.574 639.561C221.168 639.561 220.84 639.889 220.84 640.294C220.84 640.7 221.168 641.028 221.574 641.028Z" fill="white"/>
<path d="M238.949 617.135C239.571 617.135 240.075 616.631 240.075 616.01C240.075 615.389 239.571 614.885 238.949 614.885C238.328 614.885 237.824 615.389 237.824 616.01C237.824 616.631 238.328 617.135 238.949 617.135Z" fill="white"/>
<path d="M267.09 609.973C267.711 609.973 268.215 609.469 268.215 608.848C268.215 608.226 267.711 607.723 267.09 607.723C266.469 607.723 265.965 608.226 265.965 608.848C265.965 609.469 266.469 609.973 267.09 609.973Z" fill="white"/>
<path d="M276.549 596.569C277.241 596.569 277.802 596.008 277.802 595.317C277.802 594.625 277.241 594.064 276.549 594.064C275.858 594.064 275.297 594.625 275.297 595.317C275.297 596.008 275.858 596.569 276.549 596.569Z" fill="white"/>
<path d="M233.764 687.17C232.257 684.616 234.987 680.536 235.222 680.204C239.84 673.472 251.307 672.915 258.537 674.216C273.605 676.936 288.711 691.113 285.933 700.447C283.927 707.13 272.479 712.188 264.887 709.36C255.651 705.868 256.688 692.326 246.297 689.274C240.662 687.65 235.466 690.105 233.764 687.17Z" fill="black"/>
<path d="M291.94 724.712L287.41 685.213C287.41 685.213 290.972 681.006 293.564 680.674C296.157 680.341 309.757 681.652 314.943 686.544C320.128 691.436 324.335 704.038 324.335 704.038V729.242L291.94 724.712Z" fill="black"/>
<path d="M344.912 737.509C344.408 737.224 344.008 736.785 343.771 736.257C343.533 735.73 343.47 735.14 343.591 734.573C344.423 729.173 347.211 721.13 349.227 713.949C350.587 709.145 356.076 704.879 360.88 706.121H361.056C367.034 707.697 377.082 713.039 377.689 720.269C378.295 727.5 378.667 744.152 375.174 747.919C372.268 751.099 351.242 740.737 344.912 737.509Z" fill="black"/>
<path d="M354.578 710.152C354.578 710.152 369.567 711.395 368.823 715.768C368.08 720.142 361.71 729.887 361.71 729.887L350.703 729.261" stroke="#FADE2A" stroke-width="0.97841" stroke-miterlimit="10"/>
<path d="M293.457 691.916C293.457 691.916 309.278 692.249 310.618 698.912C311.959 705.575 305.951 712.893 305.951 712.893L293.457 710.936" stroke="#FADE2A" stroke-width="0.97841" stroke-miterlimit="10"/>
<path d="M236.543 682.543C236.543 682.543 243.04 684.666 244.918 684.666C246.797 684.666 255.906 697.933 255.906 697.933L252.158 701.681" stroke="#FADE2A" stroke-width="0.97841" stroke-miterlimit="10"/>
<path d="M313.543 469.289C437.431 469.289 537.863 368.857 537.863 244.968C537.863 121.08 437.431 20.6484 313.543 20.6484C189.654 20.6484 89.2227 121.08 89.2227 244.968C89.2227 368.857 189.654 469.289 313.543 469.289Z" fill="#F9DB2F" stroke="#231F20" stroke-width="0.244602" stroke-miterlimit="10"/>
<mask id="mask0_12633_18355" style="mask-type:luminance" maskUnits="userSpaceOnUse" x="89" y="20" width="449" height="450">
<path d="M313.543 469.289C437.431 469.289 537.863 368.857 537.863 244.968C537.863 121.08 437.431 20.6484 313.543 20.6484C189.654 20.6484 89.2227 121.08 89.2227 244.968C89.2227 368.857 189.654 469.289 313.543 469.289Z" fill="white"/>
</mask>
<g mask="url(#mask0_12633_18355)">
<path d="M255.306 153.301C259.142 152.851 262.008 151.227 263.388 147.333C264.66 143.742 268.212 143.899 271.098 143.419C274.18 142.881 275.383 141.815 273.974 138.703C273.528 137.78 273.318 136.761 273.362 135.736C273.407 134.712 273.705 133.714 274.229 132.833C274.618 132.069 275.199 131.419 275.914 130.946C276.628 130.473 277.454 130.193 278.309 130.133C280.354 129.996 279.796 132.041 280.52 133.068C281.244 134.095 281.117 136.199 283.211 135.103C284.972 134.183 284.708 132.628 283.896 131.189C281.997 127.687 280.315 124.761 275.53 128.362C271.939 131.062 267.947 128.851 266.91 124.399C264.611 114.615 267.546 110.643 277.673 109.948C278.485 109.899 279.874 109.782 279.992 109.4C281.626 104.019 287.545 101.338 288.631 95.7513C288.973 93.9412 290.236 93.6477 291.39 93.1976C299.129 90.145 306.888 87.9044 315.449 87.5228C321.007 87.2685 325.361 88.5013 330.272 90.4581C336.544 92.953 343.353 94.0782 349.909 95.8589C351.504 96.2894 353.617 96.4753 353.715 98.6278C353.813 101.005 351.543 101.387 349.86 102.062C347.57 102.992 345.173 102.512 342.796 102.424C341.592 102.375 339.909 101.015 339.225 102.855C338.54 104.694 339.753 106.132 341.299 107.071C342.581 107.835 343.989 108.402 345.477 109.126C345.672 107.747 343.52 105.213 346.093 105.751C350.183 106.602 352.14 103.95 354.654 102.14C356.308 100.947 358.098 101.093 360.231 100.878C359.83 100.118 359.552 99.2991 359.409 98.4517C359.409 97.0721 356.748 95.174 359.83 94.3815C361.787 93.8727 364.428 94.0195 364.878 96.5144C365.417 99.4497 366.209 99.1268 368.499 98.1288C373.391 96.0154 377.872 92.3171 384.153 94.3815C385.425 94.8022 392.157 96.5047 391.002 89.7439C390.797 88.5404 392.528 88.8437 393.448 89.2547C400.297 92.3171 408.242 90.9962 414.973 95.0468C412.732 91.7104 407.019 90.6244 409.68 85.0377C410.59 83.0809 410.717 79.8325 413.31 80.1456C416.724 80.4979 420.315 81.7209 421.137 86.0161C424.708 84.8616 421.577 82.4253 422.644 80.6544C425.579 80.5957 425.285 83.6973 427.252 85.2236C428.573 82.7091 430.804 81.8481 433.661 82.6112C434.285 82.6391 434.909 82.5495 435.5 82.3471C434.199 76.5451 438.758 79.6369 440.744 79.0205C442.124 78.59 443.777 79.2064 444.012 76.8386C444.179 75.2438 445.969 74.9796 447.221 74.784C452.886 73.9327 458.356 71.5454 464.285 72.5336C465.123 72.6799 465.983 72.6278 466.797 72.3814C467.611 72.135 468.356 71.7013 468.972 71.1149C473.57 67.1524 477.533 66.7219 482.767 69.6473C484.112 70.3639 485.616 70.7306 487.141 70.7138C489.009 70.7138 490.898 70.6453 492.757 70.841C495.76 71.1443 499.527 70.841 500.985 73.8349C502.668 77.2789 497.473 77.0343 496.494 80.0967C504.693 75.2047 512.247 79.7054 519.976 80.5077C523.368 80.9959 526.828 80.6604 530.063 79.5293C534.828 77.8073 540.366 79.9108 545.082 82.4645C547.166 83.5994 549.074 85.0573 551.187 86.1042C552.802 86.9065 554.661 88.7557 556.079 85.4291C556.715 83.8832 558.564 85.3312 559.827 85.0964C563.271 84.4507 567.556 87.2587 570.09 82.533C570.374 82.0046 572.047 82.0242 573.025 82.0927C578.612 82.4841 584.404 82.1905 589.737 83.619C596.985 85.4185 604.411 86.4031 611.878 86.5542C616.535 86.7303 621.437 86.9456 625.439 90.1841C626.985 91.4463 629.01 91.0843 630.859 91.1625C636.456 91.3386 642.082 90.8592 647.639 92.1409C648.95 92.4443 650.574 93.0313 651.21 90.6342C651.846 88.2371 654.067 89.5971 655.603 89.7341C668.323 90.8788 680.699 93.9706 692.998 97.4048C697.734 98.7159 702.635 99.4693 707.449 100.506C708.948 100.8 710.431 101.172 711.891 101.622C714.826 102.6 714.826 105.535 714.406 107.492C713.985 109.449 711.529 108.422 709.924 108.246C706.011 107.815 703.076 104.645 698.927 104.43C696.716 104.312 695.297 104.635 694.515 106.719C693.536 109.312 695.904 109.4 697.215 110.134C699.309 111.298 702.107 111.386 704.191 114.684C697.342 113.02 693.429 115.662 691.159 120.896C690.66 122.012 689.652 122.667 688.722 122.09C685.034 119.781 681.512 123.401 677.862 122.217C677.613 122.139 677.349 122.119 677.091 122.159C676.833 122.199 676.587 122.297 676.373 122.446C676.159 122.595 675.981 122.792 675.854 123.02C675.727 123.248 675.655 123.502 675.641 123.763C675.553 125.28 675.641 126.943 677.187 127.824C678.948 128.802 680.494 130.142 682.079 131.258C686.325 134.193 686.903 137.921 686.648 142.549C686.494 144.174 686.452 145.809 686.521 147.441C686.668 149.251 687.793 151.511 685.543 152.333C683.586 153.057 682.187 151.051 680.846 149.848C676.414 145.934 671.913 142.02 667.765 137.735C665.035 134.946 663.323 132.089 665.573 127.422C667.315 123.851 670.544 119.174 665.74 114.312C665.055 116.552 665.211 119.106 662.961 119.898C660.436 120.799 659.527 118.265 657.981 117.139C656.161 115.828 653.959 115.183 652.345 116.67C650.731 118.157 649.968 120.427 652.091 122.462C654.488 124.771 652.326 125.133 650.682 125.642C647.923 126.512 645.349 125.133 642.718 124.996C636.788 124.673 630.82 124.996 624.871 125.123C623.922 125.08 622.989 125.384 622.248 125.978C621.506 126.572 621.006 127.416 620.84 128.352C620.488 129.663 619.539 131.287 620.009 132.266C621.408 135.044 613.277 138.449 620.204 139.995C622.915 140.602 624.93 144.261 628.785 141.903C630.742 140.67 633.677 142.881 635.634 144.378C644.146 150.562 648.236 171.128 642.786 179.963C641.426 182.174 639.44 183.329 636.749 182.634C636.346 182.48 635.916 182.412 635.485 182.433C635.054 182.454 634.633 182.564 634.246 182.756C633.86 182.948 633.518 183.218 633.242 183.549C632.965 183.88 632.76 184.265 632.64 184.679C631.573 187.614 631.427 190.823 629.626 193.71C628.433 195.666 631.299 196.753 632.718 197.682C636.27 199.981 639.156 202.721 640.076 207.006C641.054 211.458 637.356 211.898 634.616 212.877C631.583 213.943 631.133 211.898 630.536 209.403C629.626 205.588 628.746 201.429 623.805 200.412C622.054 200.04 621.662 198.455 621.31 196.919C620.645 193.915 617.886 192.633 615.948 194.13C610.146 198.631 609.413 195.168 609.324 189.923C605.969 191.352 604.931 194.629 602.368 196.185C602.229 196.289 602.119 196.426 602.047 196.584C601.976 196.742 601.946 196.916 601.959 197.089C601.973 197.262 602.03 197.428 602.125 197.573C602.221 197.718 602.351 197.836 602.505 197.917C604.755 198.895 606.321 201.498 609.285 200.852C612.074 200.206 614.872 199.629 617.406 201.498C617.122 203.455 615.449 203.513 614.471 204.365C610.655 207.72 610.9 209.482 614.402 213.17C617.905 216.859 620.498 221.311 623.208 225.713C626.721 231.486 624.01 235.498 623.13 240.204C622.073 245.878 618.316 250.076 614.138 253.461C610.225 256.612 605.254 258.295 600.372 259.752C597.28 260.672 595.255 261.954 597.437 265.486C597.694 265.927 597.843 266.423 597.872 266.934C597.901 267.444 597.809 267.953 597.603 268.421C597.369 269.152 596.946 269.808 596.378 270.323C595.809 270.839 595.115 271.195 594.365 271.356C593.873 271.505 593.347 271.489 592.866 271.313C592.384 271.136 591.973 270.808 591.693 270.378C591.462 270.066 591.298 269.71 591.209 269.332C591.121 268.954 591.111 268.562 591.179 268.179C591.248 267.797 591.394 267.433 591.609 267.11C591.823 266.786 592.102 266.51 592.427 266.298C595.206 264.185 593.279 262.101 592.085 260.672C590.686 258.97 588.69 259.958 587.066 261.132C581.949 264.83 581.381 268.147 585.324 272.971C587.584 275.72 590.216 278.156 592.515 280.886C598.288 287.735 597.476 294.926 590.47 300.298C589.805 300.816 589.326 301.56 588.651 302.049C586.263 303.791 584.796 309.994 581.009 302.215C579.307 298.713 575.618 293.987 570.247 292.901C569.268 292.715 568.603 291.423 567.771 290.621C563.613 300.767 564.337 306.021 572.761 312.753C579.444 318.095 579.718 325.971 582.741 332.771C582.853 332.955 582.921 333.163 582.939 333.377C582.958 333.592 582.926 333.808 582.846 334.009C582.766 334.209 582.641 334.388 582.48 334.531C582.319 334.675 582.127 334.779 581.919 334.836C581.597 334.85 581.275 334.799 580.972 334.687C580.669 334.574 580.393 334.402 580.158 334.18C575.325 329.738 568.769 326.861 568.887 318.388C568.887 315.453 566.607 311.54 563.016 309.955C560.609 308.859 561.001 306.853 561.314 305.18C562.87 296.961 560.218 289.418 557.977 281.767C556.999 278.548 556.167 276.875 552.538 279.428C548.624 282.178 546.256 281.072 546.217 276.493C546.178 271.914 543.517 269.37 541.227 266.288C540.764 265.792 540.275 265.321 539.76 264.879C537.323 262.247 530.513 259.752 526.835 259.371C523.645 259.038 522.755 260.29 521.268 262.913C519.047 266.696 516.121 270.018 512.648 272.697C509.419 275.231 507.609 279.115 503.842 281.003C502.13 281.845 502.932 283.645 503.069 285.152C503.549 290.22 503.989 295.376 502.394 300.278C501.621 302.685 503.196 302.069 504.214 302.714C507.687 304.916 510.241 307.792 509.106 312.342C508.666 314.035 507.609 315.61 505.691 315.698C503.578 315.786 502.971 313.986 502.541 312.283C502.405 311.618 502.314 310.945 502.267 310.268C501.621 304.466 501.601 304.397 496.964 307.518C494.351 309.26 492.532 308.027 491.759 305.698C487.043 291.394 478.208 278.538 476.691 263.118C476.486 260.995 475.85 260.437 473.824 261.484C469.549 263.686 467.24 260.652 465.841 257.57C464.344 254.01 461.745 251.023 458.426 249.049C455.106 247.075 451.241 246.217 447.398 246.603C440.872 247.18 434.59 245.487 428.299 244.068C427.642 243.873 427.037 243.532 426.529 243.072C426.021 242.611 425.623 242.042 425.364 241.407C424.571 239.969 423.456 239.91 421.9 240.321C418.993 241.023 415.941 240.808 413.161 239.706C410.381 238.604 408.01 236.67 406.373 234.167C405.629 233.042 405.062 231.789 404.348 230.635C403.242 228.874 401.784 227.758 399.7 229.04C397.616 230.322 396.647 232.582 398.526 234.118C401.96 236.936 401.696 243.384 407.831 243.511C408.3 243.511 408.868 244.763 409.191 245.468C411.148 250.056 412.644 250.555 416.764 247.845C417.488 247.396 418.146 246.85 418.72 246.221C421.587 242.855 423.837 241.828 425.051 247.444C425.55 249.773 427.869 250.066 429.747 250.859C435.256 253.158 435.882 255.477 433.543 260.878C430.09 268.812 425.08 274.918 416.568 277.765C413.633 278.743 412.009 281.561 409.269 283.097C402.86 286.698 395.972 288.968 389.163 291.472C386.951 292.284 385.415 293.429 386.286 295.934C387.157 298.439 388.938 299.143 391.57 298.429C396.462 297.108 401.5 296.1 406.422 294.789C409.465 293.987 410.521 295.171 410.433 298.047C410.519 300.089 410.186 302.127 409.455 304.035C404.563 314.68 399.367 325.012 390.151 332.977C384.361 337.977 379.407 343.87 375.475 350.431C371.884 356.419 371.453 362.485 373.665 368.972C376.024 375.536 377.113 382.489 376.874 389.46C376.649 394.352 374.917 397.718 370.661 399.606C366.121 401.563 363.176 405.379 359.634 408.51C357.677 410.271 357.795 412.296 358.431 414.566C360.202 420.799 360.055 426.376 353.108 429.614C352.383 429.905 351.755 430.396 351.298 431.03C350.841 431.664 350.573 432.415 350.525 433.195C350.623 443.371 342.15 448.272 336.896 455.023C332.386 460.806 325.918 463.154 318.394 462.577C316.105 462.401 313.717 463.262 311.379 463.702C306.829 464.573 302.642 462.146 303.063 457.665C303.65 451.452 300.127 447.04 297.926 442.069C295.724 437.099 293.582 432.628 293.474 427.139C293.347 420.29 289.786 414.498 286.86 408.549C283.807 402.404 282.829 396.104 285.999 389.959C293.034 376.261 288.083 364.109 281.929 351.977C281.222 350.62 280.369 349.343 279.385 348.171C275.912 343.993 274.875 340.05 276.861 334.288C279.385 326.92 278.005 321.236 268.945 322.605C266.93 322.919 265.482 321.95 264.269 320.208C260.805 315.248 256.334 313.712 250.747 316.363C245.16 319.015 239.564 320.981 233.214 319.602C231.714 319.205 230.124 319.329 228.703 319.954C223.029 323.378 218.753 320.619 214.497 317.224C210.437 313.986 205.319 311.853 203.891 306.051C203.186 303.203 201.641 300.376 199.204 298.928C194.038 295.846 192.757 291.101 192.091 285.758C191.862 284.622 192.003 283.443 192.492 282.393C195.741 275.828 195.79 269.008 193.735 262.13C192.434 257.766 195.692 254.684 197.13 251.318C198.535 248.292 200.271 245.431 202.306 242.787C204.644 239.626 206.865 236.261 210.818 234.275C214.536 232.396 217.51 229.382 217.667 224.314C217.775 220.567 220.318 217.837 223.537 215.871C226.179 214.266 228.586 212.436 229.652 209.306C230.719 206.175 229.515 203.817 226.619 202.828C222.138 201.292 219.712 198.152 221.033 193.827C222.187 190.06 223.166 186.469 222.833 182.409C222.588 179.474 225.338 178.554 227.862 178.652C231.071 178.76 234.271 179.396 237.49 179.63C240.425 179.816 244.006 180.824 245.415 176.979C246.824 173.134 245.659 169.631 242.724 166.764C242.362 166.422 241.853 166.236 241.462 165.913C240.004 164.729 236.785 164.67 237.646 161.999C238.39 159.69 242.137 161.324 242.92 160.336C245.923 156.53 252.763 160.336 254.289 154.329L255.306 153.301ZM304.462 191.958C301.008 191.136 299.648 191.45 299.765 195.265C299.912 200.157 292.779 204.472 289.062 202.437C288.083 201.909 286.42 201.693 286.821 200.157C287.222 198.621 288.778 199.081 289.893 199.11C292.29 199.169 294.413 198.768 295.225 196.175C296.038 193.583 293.856 192.584 292.525 191.136C292.092 190.61 291.564 190.169 290.969 189.835C285.657 187.282 280.999 184.033 278.25 178.574C277.976 178.036 276.978 177.272 276.743 177.39C271.568 180.168 265.002 179.405 260.531 182.155C258.026 183.681 254.211 186.704 252.704 189.855C248.888 197.545 244.788 204.296 235.337 205.617C234.831 205.755 234.392 206.072 234.102 206.509C233.812 206.947 233.691 207.475 233.762 207.994C233.948 209.247 235.151 209.315 236.169 209.374C239.642 209.57 243.145 210.568 246.051 207.251C246.963 206.335 248.056 205.621 249.261 205.154C250.466 204.688 251.756 204.478 253.046 204.541C260.247 204.619 267.067 202.193 274.18 201.782C279.659 201.459 282.927 204.541 281.244 209.834C279.561 215.127 282.614 216.556 286.449 217.485C288.631 218.013 291.028 218.278 292.466 219.931C295.871 223.845 300.724 224.305 305.117 225.909C307.201 226.672 308.052 226.457 308.395 223.903C309.109 218.63 313.287 216.272 318.336 218.033C321.277 218.889 324.116 220.066 326.799 221.545C334.352 226.252 342.453 222.524 350.193 223.287C350.697 223.234 351.184 223.07 351.618 222.808C352.053 222.546 352.425 222.192 352.707 221.77C355.349 217.759 357.443 213.523 357.276 208.513C357.169 205.343 355.76 203.924 352.756 205.509C349.958 206.977 347.433 207.466 344.713 205.421C344.265 205.006 343.676 204.775 343.065 204.775C342.454 204.775 341.865 205.006 341.416 205.421C339.851 207.006 338.481 205.92 336.818 205.597C330.174 204.335 328.628 199.218 327.229 193.856C326.838 192.369 326.133 190.5 324.392 190.755C322.578 191.065 320.898 191.91 319.568 193.181C318.11 194.62 320.234 195.432 320.967 196.342C322.709 198.494 321.897 199.981 320.077 201.498C318.717 202.633 317.044 205.47 315.733 203.455C313.14 199.541 307.553 197.193 307.299 192.585C306.976 186.714 303.288 184.855 299.315 182.663C295.678 180.782 292.554 178.042 290.216 174.68C289.551 173.701 288.797 171.803 287.154 172.83C285.51 173.858 286.234 175.629 287.154 176.881C289.296 179.895 291.361 182.82 294.766 184.894C297.828 186.822 302.143 187.35 304.462 191.958ZM364.145 187.947C366.287 187.898 369.037 188.7 370.142 186.332C371.453 183.603 368.244 182.83 366.992 181.245C365.172 178.936 362.628 177.537 360.006 176.255C357.619 175.1 354.351 174.21 357.824 170.658C358.137 170.358 358.32 169.948 358.334 169.515C358.349 169.082 358.194 168.66 357.902 168.34C357.574 168.061 357.163 167.899 356.734 167.878C356.304 167.856 355.879 167.978 355.525 168.222C353.832 169.083 351.151 169.514 352.834 172.4C353.813 174.063 352.834 174.288 351.709 174.954C348.353 176.979 345.907 176.118 344.342 172.742C342.385 168.457 339.714 169.289 337.375 172.038C335.581 174.281 334.084 176.748 332.924 179.376C330.84 183.759 332.033 185.873 336.681 187.203C339.009 187.878 340.976 187.203 343.06 186.421C347.59 184.64 352.061 183.583 356.689 186.499C358.851 187.908 361.532 188.025 364.125 187.947H364.145ZM286.244 138.449C289.179 142.099 291.928 142.363 295.196 140.739C296.977 139.838 298.66 138.782 300.949 139.506C305.763 140.973 307.299 139.789 307.505 134.937C307.651 131.473 308.757 129.144 312.837 130.759C314.98 131.61 316.359 130.563 315.234 128.851C311.731 123.548 316.428 124.35 318.893 123.519C319.725 123.365 320.575 123.326 321.418 123.401C322.944 123.333 325.527 124.497 325.429 122.051C325.361 120.231 322.963 121.307 321.515 121.503C318.835 121.885 316.163 122.481 313.473 122.736C309.941 123.117 307.749 121.806 306.966 117.981C306.115 113.793 306.869 110.721 310.88 108.598C312.582 107.698 314.471 106.641 315.391 104.136C312.328 103.862 309.197 103.011 307.827 106.465C306.849 109.019 304.97 109.928 302.838 111.063C298.112 113.578 296.615 117.912 299.687 120.847C302.417 123.47 301.849 124.898 299.139 126.718C298.281 127.264 297.66 128.113 297.398 129.095C296.507 135.171 293.866 139.261 286.224 138.449H286.244ZM405.248 203.836C408.564 203.983 409.983 202.163 409.161 198.201C408.692 195.98 407.077 194.815 405.796 193.309C404.964 192.33 403.839 191.156 405.629 189.953C406.608 189.346 408.926 190.491 408.31 188.133C407.899 186.538 406.353 186.558 404.925 187.154C404.771 187.231 404.602 187.272 404.43 187.273C404.258 187.274 404.088 187.234 403.933 187.159C403.779 187.083 403.644 186.972 403.539 186.836C403.435 186.699 403.363 186.54 403.33 186.372C402.811 182.722 399.71 181.206 397.342 179.171C394.407 176.617 395.385 174.748 398.223 173.447C399.974 172.635 402.342 172.263 400.952 169.856C400.664 169.372 400.28 168.953 399.824 168.623C399.368 168.292 398.849 168.059 398.3 167.936C397.75 167.813 397.181 167.804 396.628 167.909C396.075 168.013 395.549 168.23 395.082 168.545C393.047 169.728 391.087 171.035 389.212 172.459C387.255 173.887 386.276 174.924 387.529 178.153C389.01 182.053 391.598 185.437 394.974 187.888C397.391 189.718 397.91 191.606 397.078 194.434C396.501 196.498 393.311 199.257 397.274 200.813C399.71 201.713 401.559 204.198 405.248 203.836ZM384.447 290.2C383.547 286.15 383.028 282.755 380.533 279.986C379.682 279.056 378.028 277.559 379.437 276.62C382.098 274.859 379.966 274.086 379.212 272.824C376.277 267.932 371.072 264.38 369.311 258.911C366.874 251.299 362.579 244.978 357.765 238.853C356.895 237.738 356.024 235.771 354.224 237.014C352.776 237.992 354.224 239.48 354.527 240.703C357.237 250.144 363.939 257.649 366.561 267.403C369.007 276.561 376.473 283.391 384.447 290.161V290.2Z" fill="#6581D8"/>
<path d="M91.1884 152.714C82.7838 158.535 72.7454 155.297 63.607 157.733C65.1627 159.426 67.8729 158.418 68.6263 160.482C69.3796 162.547 67.6968 163.975 66.8064 165.57C66.0922 166.832 65.5638 168.055 66.7379 169.278C67.4461 170.024 68.3524 170.553 69.3506 170.803C70.3488 171.053 71.3975 171.012 72.3736 170.687C73.2835 170.433 74.0075 169.523 74.8391 168.945C75.6708 168.368 76.8938 167.253 77.8918 168.662C78.8898 170.071 77.8918 171.02 76.6981 171.939C72.08 175.354 66.3466 176.098 61.3273 178.524C60.7207 178.818 59.2042 178.524 59.028 178.142C58.1475 176.186 57.5507 174.532 54.7622 175.951C50.6529 178.054 44.8802 178.103 43.6768 183.778C43.1093 186.439 42.2385 187.692 39.7632 188.064C31.6815 189.169 27.0438 195.216 21.868 200.509C21.2721 201.106 20.8903 201.883 20.782 202.72C20.42 207.984 16.7901 210.684 12.8471 213.219C9.78728 215.054 6.82823 217.053 3.9827 219.206C-0.674545 222.954 -4.33377 227.141 -2.17148 233.99C-1.43768 236.289 -1.87796 239.048 -2.17148 241.553C-2.36717 243.138 -2.74875 245.252 -4.84256 245.467C-6.93636 245.682 -7.54297 243.637 -8.32568 242.199C-9.43991 239.893 -9.80594 237.297 -9.37259 234.773C-9.03015 231.671 -9.94005 229.323 -13.7852 229.636C-16.8672 229.891 -19.3622 227.415 -22.6496 227.963C-25.0076 228.354 -27.3069 228.306 -29.2441 230.057C-29.9533 230.811 -30.8883 231.314 -31.9083 231.491C-32.9283 231.667 -33.978 231.507 -34.8993 231.035C-38.5488 229.215 -41.5036 230.84 -44.9574 232.249C-56.4439 236.935 -56.8255 247.903 -59.2715 257.325C-60.4456 261.875 -57.5495 266.806 -53.2934 269.526C-49.3798 272.041 -45.4661 269.047 -41.6405 268.068C-39.9968 267.647 -39.6837 265.818 -39.1848 264.389C-38.5586 262.54 -37.6682 260.984 -35.6723 260.329C-33.2164 259.527 -30.4475 258.548 -28.4124 260.466C-26.6709 262.1 -28.5592 264.291 -29.1561 266.121C-30.3204 269.663 -31.7293 273.127 -33.0697 276.6C-33.9405 278.84 -33.1284 279.79 -30.8291 279.79C-28.5299 279.79 -26.4067 279.682 -24.2053 279.848C-19.3132 280.21 -17.6206 282.509 -18.6283 287.353C-19.1469 289.838 -20.0079 292.303 -20.1547 294.808C-20.5558 301.843 -16.7596 304.974 -9.89116 303.614C-7.50383 303.134 -5.048 302.9 -3.14989 304.798C0.157135 308.114 2.59337 305.776 3.42502 303.046C5.50903 296.197 12.1035 295.425 16.9564 293.507C21.144 291.844 15.7628 296.785 18.6295 297.851C21.0657 294.554 23.5998 295.581 27.4352 297.098C31.9848 298.898 37.3073 300.63 42.669 298.692C44.5182 298.027 45.7608 298.252 47.5611 300.375C51.5921 305.267 57.1299 308.731 61.6013 313.349C63.7733 315.599 67.0999 316.48 70.5048 316.617C77.3537 316.901 80.9444 320.413 83.5274 326.636C85.1809 330.628 85.7876 335.334 89.799 338.279C91.1648 339.42 92.8417 340.126 94.6128 340.304C97.46 340.588 100.699 341.703 102.323 343.875C105.542 348.18 109.905 348.141 114.142 347.721C115.637 347.512 117.16 347.65 118.593 348.124C120.027 348.597 121.332 349.393 122.409 350.45C125.112 353.033 128.099 355.302 131.313 357.211C134.904 359.168 136.293 364.06 134.689 367.817C134.145 369.431 133.381 370.962 132.419 372.367C124.22 382.513 123.085 394.87 121.656 407.042C120.678 415.182 117.155 421.062 108.594 423.234C104.955 424.144 102.127 426.923 99.0255 428.997C96.8632 430.435 96.7849 432.49 96.9708 434.867C97.3915 440.317 96.511 445.327 91.5406 448.79C89.2609 450.385 89.3881 453.301 88.4195 455.639C84.6917 464.523 82.8426 465.805 74.5457 463.926C74.1739 465.453 75.162 466.402 75.9545 467.478C79.5844 472.37 77.7352 477.487 71.6789 479.004C68.2936 479.845 64.4876 479.659 64.6931 484.972C64.7615 486.753 62.4036 487.173 60.6424 487.349C58.8813 487.526 57.9029 488.974 59.3509 489.991C64.9866 493.905 60.163 497.897 59.4194 501.664C59.0476 503.552 57.9714 505.577 59.5858 506.781C63.4994 509.716 62.7558 512.935 61.6306 516.976C59.7423 523.825 62.8438 528.961 69.4579 532.19C71.219 533.041 74.9174 532.806 73.8705 535.81C72.8921 538.647 69.6732 538.383 66.7673 538.041C52.1792 536.309 43.9899 526.3 38.0901 514.559C36.4072 511.203 33.0611 507.289 34.3623 502.329C34.7733 500.763 34.5776 499.149 35.8397 497.789C36.7007 496.879 37.0921 495.196 35.5267 494.854C31.8576 494.149 31.613 491.106 31.3195 488.651C30.3411 480.207 28.5016 472.018 28.169 463.3C27.5135 445.933 27.4352 428.43 24.6761 411.161C24.452 409.227 23.7708 407.375 22.6887 405.757C21.6066 404.139 20.1548 402.802 18.4534 401.856C10.4989 397.179 4.98068 390.653 0.84201 382.19C-2.6937 374.863 -6.89571 367.877 -11.711 361.32C-14.0298 358.219 -15.8986 354.53 -12.7481 350.626C-11.9849 349.648 -11.4175 348.601 -12.1611 347.358C-15.5072 341.733 -11.8675 337.643 -8.82469 333.661C-1.51596 324.18 0.47023 319.239 -4.46095 309.347C-6.22209 305.825 -8.10068 305.306 -9.90094 309.347C-10.4293 310.541 -11.1631 311.715 -12.4937 311.06C-18.9023 307.899 -25.9077 305.561 -28.7255 297.812C-30.2421 293.673 -32.512 289.985 -37.7073 289.202C-40.1615 288.911 -42.5332 288.134 -44.6835 286.916C-46.8339 285.698 -48.7198 284.064 -50.231 282.108C-50.899 281.199 -51.8417 280.528 -52.9198 280.196C-53.9978 279.863 -55.1544 279.885 -56.2189 280.259C-59.9564 281.443 -63.2536 280.308 -66.5215 278.713C-72.1577 275.949 -77.5572 272.725 -82.6653 269.076C-85.4342 267.119 -86.8724 264.839 -85.2874 261.249C-83.7024 257.658 -85.6005 255.055 -87.9389 252.59C-94.4551 245.741 -96.9892 236.867 -100.169 228.325C-100.776 226.711 -100.472 223.873 -103.104 224.588C-105.296 225.175 -104.944 227.63 -104.317 229.48C-101.969 236.201 -99.5037 242.894 -97.0675 249.586C-96.5098 251.142 -95.1107 253.059 -97.0675 254.145C-99.0243 255.231 -99.1124 252.57 -100.091 251.641C-104.132 247.854 -105.374 242.209 -107.996 237.64C-109.836 234.45 -110.296 228.354 -110.071 223.443C-109.865 219.011 -111.049 215.391 -115.295 213.277C-115.901 212.964 -116.437 212.531 -116.87 212.005C-119.727 208.591 -119.091 192.623 -117.409 188.416C-114.092 180.09 -106.587 174.552 -103.535 166.128C-102.449 163.124 -101.793 160.776 -104.513 158.379C-105.834 157.195 -106.47 155.619 -105.002 153.888C-101.558 149.818 -101.519 143.399 -104.934 139.662C-106.949 137.441 -105.991 134.77 -106 132.363C-106 125.377 -107.057 125.514 -113.211 122.823C-121.117 119.379 -127.711 123.156 -134.844 124.291C-135.695 124.428 -136.977 125.357 -137.329 123.821C-137.446 123.303 -136.478 122.53 -135.216 120.788C-154.295 130.983 -173.129 138.399 -193.734 140.601L-160.4 127.882C-161.466 125.925 -162.866 126.482 -163.903 126.052C-164.952 125.62 -165.904 124.982 -166.703 124.178C-167.503 123.373 -168.134 122.417 -168.56 121.365C-169.284 119.232 -167.171 117.325 -165.38 116.013C-160.556 112.481 -154.784 111.601 -149.119 110.466C-147.671 110.172 -145.998 110.564 -144.863 108.803C-146.223 107.061 -148.268 107.922 -149.921 107.511C-151.085 107.227 -152.377 107.11 -152.582 105.613C-152.696 105.013 -152.575 104.392 -152.246 103.877C-151.917 103.363 -151.404 102.993 -150.812 102.844C-146.898 101.866 -143.17 99.3218 -139.071 100.427C-136.135 101.21 -135.676 100.134 -135.871 97.815C-136.038 95.7995 -135.353 94.4982 -133.269 94.1754C-124.15 92.7762 -115.745 88.8332 -106.724 86.9351C-99.2298 85.3501 -92.7331 88.8919 -85.7277 89.5768C-78.7223 90.2617 -71.6777 91.2205 -64.6919 92.512C-57.7061 93.8035 -49.732 91.0836 -42.1885 90.2324C-33.1969 89.2539 -24.2933 91.4651 -15.4779 93.5687C-13.2177 94.1068 -14.4995 99.0282 -11.8871 96.7779C-9.27477 94.5276 -13.4917 93.6959 -14.4701 92.0913C-16.0943 89.4301 -12.5818 87.9918 -12.709 85.1544C-15.4583 85.9078 -18.0413 86.7786 -20.6928 87.2775C-22.542 87.62 -24.8217 87.5808 -25.4577 85.3794C-26.2697 82.5812 -23.4226 82.8062 -21.9354 82.092C-20.1057 81.2114 -18.1783 80.6537 -16.603 79.2155C-14.1001 76.981 -10.8503 75.7665 -7.49538 75.8118C-4.1405 75.8571 -0.924576 77.1589 1.51711 79.4601C4.45235 82.1311 11.9665 82.8551 15.89 80.8983C17.0934 80.3015 18.4632 79.4209 19.7253 80.3211C20.9875 81.2212 20.5276 82.7866 20.2928 84.1075C20.1656 84.7728 19.7547 85.3794 19.6568 86.0643C18.3751 94.4884 18.3849 94.4884 9.79445 93.285L6.22327 92.786C9.30525 97.0812 18.9426 98.089 22.4062 94.4004C23.502 93.2458 24.5782 91.9935 26.0752 91.8565C34.2547 91.1227 39.0881 84.9392 44.9096 80.4483C48.2753 77.8555 51.054 77.1803 56.944 78.8339C54.7966 80.8039 52.1787 82.1887 49.3418 82.8551C44.2149 84.1369 43.0702 87.845 46.4555 91.9641C48.4123 94.3221 48.4123 94.3221 46.9447 97.9422C50.1832 97.4824 52.2477 95.3396 54.5763 93.872C56.5331 92.6686 57.2767 91.0933 54.2045 90.0269C50.3593 88.6864 51.2693 86.5926 53.412 84.3325C56.083 81.5147 59.7129 78.5795 63.0689 79.4405C69.5949 81.0353 75.7882 78.3153 82.0598 79.2742C82.8915 79.4013 84.0166 79.3329 84.4961 79.8221C88.4586 83.6574 93.3018 86.0154 98.1938 88.3049C99.2896 88.8137 100.307 90.1247 99.7104 91.2401C97.8318 94.7233 99.5831 95.594 102.538 96.8464C104.289 97.59 108.203 98.3042 106.452 101.866C105.101 104.615 98.7319 106.2 96.6675 104.801C95.4836 104.018 94.6324 101.65 93.0278 102.844C91.071 104.282 93.0278 105.828 93.9182 107.169C94.8085 108.509 94.3584 109.468 93.9182 110.887C92.7636 114.976 86.4138 111.004 86.2572 116.121C82.4806 115.25 78.244 115.035 75.6708 111.787C73.0976 108.538 71.0136 105.916 66.5031 108.421C65.2899 109.086 63.4407 108.734 63.4798 106.924C63.519 105.114 65.4366 104.302 66.8847 104.595C72.08 105.652 75.4164 102.14 79.3007 99.9871C80.4944 99.3218 82.0207 98.3727 81.0423 96.866C80.0639 95.3592 78.6452 96.5431 77.52 97.2475C76.724 97.872 75.8725 98.4222 74.9761 98.8913C73.7629 99.3609 72.442 99.1163 72.0409 97.7172C71.7474 96.6116 72.7356 96.005 73.7042 95.4864C74.9859 94.8015 77.9114 95.6625 77.1678 93.0012C76.5122 90.6433 74.0271 91.2792 71.9626 91.1031C67.0119 90.6824 63.881 92.3848 61.5915 96.9736C59.6347 100.887 54.4686 102.844 49.0189 102.922C48.7547 103.764 49.4788 104.038 49.9288 104.468C51.4552 105.926 54.5273 106.826 53.6664 109.36C52.6879 112.227 50.2321 109.977 48.4221 109.673C46.612 109.37 45.6825 110.926 44.254 111.278C41.084 112.051 39.1957 111.356 40.5948 107.364C31.1336 110.192 22.9834 115.387 14.4321 119.829C12.1818 120.994 9.42267 122.647 9.54008 125.758C9.69662 129.281 12.0057 131.042 15.3421 132.372C19.8427 134.163 23.3748 138.077 28.5897 138.517C29.9693 138.634 30.9085 139.945 30.0378 141.09C28.4038 143.223 30.8205 145.747 29.0593 147.782C28.257 148.692 28.8343 149.739 29.6268 150.463C30.6053 151.344 31.5152 150.757 32.4251 150.277C33.1876 149.882 33.8421 149.306 34.3314 148.6C34.8208 147.894 35.1303 147.08 35.2331 146.227C35.8202 141.941 37.9335 139.525 42.1896 137.979C46.4457 136.433 51.553 134.251 48.9015 127.686C52.8151 123.694 53.5881 116.649 58.4508 114.497C63.8125 112.119 69.9667 113.773 74.6337 118.479C75.9643 119.819 75.6121 120.7 75.074 122.011C74.4478 123.518 74.4282 125.083 75.8274 126.189C77.2265 127.295 78.7626 126.58 80.1128 125.856C81.6311 125.095 83.0755 124.194 84.4276 123.166C87.8129 120.406 89.1631 121.923 89.6523 125.475C89.9262 127.49 90.572 129.574 90.298 131.521C89.8186 134.936 91.4036 136.951 93.879 138.781C98.3895 142.127 99.0059 145.346 97.0491 150.463C95.9337 153.399 94.1138 156.647 99.0842 158.838C101.755 160.003 101.041 163.662 100.063 166.069C99.0842 168.476 97.2056 167.791 95.0042 166.891C92.4016 165.824 89.3881 165.717 86.5312 165.335C82.7349 164.836 82.6175 163.212 85.1027 160.874C87.4411 158.672 89.9262 156.637 92.3527 154.524L91.1884 152.714Z" fill="#6581D8"/>
<path d="M125.503 59.6083C138.643 57.9744 151.842 57.0742 165.002 55.8708C175.089 54.9413 185.137 53.64 195.332 53.3563C203.786 53.1312 211.907 54.3347 219.636 57.7787C221.234 58.3907 222.986 58.4764 224.636 58.0233C227.468 57.434 230.386 57.3875 233.236 57.8863C228.06 60.6161 224.01 62.886 219.362 63.884C217.503 64.2753 215.644 64.608 216.632 67.5041C217.533 70.1556 213.952 78.0807 211.388 79.3331C208.257 80.8594 206.046 82.7281 206.124 86.6124C206.124 89.078 204.383 89.7923 202.103 90.2815C192.466 92.3459 182.907 94.6843 174.571 100.359C173.215 101.405 171.61 102.08 169.913 102.316C158.583 102.805 152.194 110.476 146.099 118.499C144.005 121.268 141.735 123.88 138.174 122.412C134.329 120.867 129.417 120.612 127.959 115.231C126.634 109.955 126.208 104.495 126.697 99.0774C126.971 95.0365 130.121 93.0895 133.223 91.1816C132.509 89.8314 130.288 91.5045 130.072 89.5085C129.965 88.3148 130.806 87.7082 131.785 87.2679C132.763 86.8277 134.456 86.2895 132.293 85.135C130.796 84.3132 131.315 83.3054 131.628 82.1117C132.988 76.525 131.491 74.2845 125.484 73.1691C121.482 72.4059 117.441 71.8678 113.449 71.0655C111.316 70.635 108.499 70.0871 108.841 67.328C109.134 64.8722 112.031 65.2537 113.919 64.9015C116.923 64.3267 119.958 63.9314 123.008 63.7176C125.993 63.5122 126.227 61.8684 125.621 59.5594L125.503 59.6083Z" fill="#6581D8"/>
<path d="M125.598 59.5699C116.785 60.1065 108.178 62.4582 100.316 66.4775C94.2403 69.6378 87.9883 71.8685 80.8753 71.0565C77.6074 70.6847 74.1145 70.4988 70.1128 72.436C74.5156 72.71 78.077 72.8665 81.6188 73.1894C82.5483 73.2677 83.8692 73.6297 83.5757 74.9505C83.4311 75.3312 83.1917 75.6686 82.88 75.9306C82.5683 76.1926 82.1948 76.3705 81.7949 76.4475C74.2416 75.9974 66.2872 80.0872 59.1937 74.5494C58.6262 74.1091 57.9609 73.5025 57.4619 74.158C53.7733 79.0501 48.94 75.4691 44.6741 75.8605C43.0695 76.0072 40.3593 75.9192 41.0638 73.0133C41.2809 71.9923 41.8884 71.0966 42.7566 70.5171C43.6248 69.9377 44.6851 69.7204 45.7112 69.9117C46.3872 69.9767 47.039 70.1967 47.616 70.5548C48.193 70.9129 48.6796 71.3993 49.0378 71.9762C50.5739 74.2167 52.11 74.0112 53.0982 71.5848C54.3408 68.5517 56.7379 68.356 58.9198 69.628C62.8334 71.9664 66.3263 70.9391 70.0051 69.2464C69.8486 67.3581 67.6569 67.3972 67.0699 66.047C66.0915 63.9239 65.5142 62.4073 68.6941 60.9691C73.6546 58.7383 78.7815 58.5524 83.9475 57.9458C100.13 55.989 116.333 54.6094 132.653 55.353C133.455 55.353 134.267 55.5584 136.204 55.8128C132.291 58.3078 128.377 57.5935 125.52 59.5797L125.598 59.5699Z" fill="#6581D8"/>
<path d="M386.883 408.207C386.609 406.534 386.227 404.87 386.08 403.188C385.797 400.066 386.814 396.984 389.661 395.928C395.16 393.902 398.545 389.92 401.667 385.39C402.567 384.079 403.408 381.956 405.473 382.749C407.175 383.394 407.361 385.429 407.674 387.093C408.545 391.564 405.942 395.262 404.846 399.284C402.704 407.111 400.267 414.938 398.125 422.766C396.99 426.924 395.336 430.456 390.708 431.571C387.988 432.227 386.002 430.877 384.574 428.881C381.834 424.967 382.089 420.779 384.192 416.827C385.65 414.058 387.137 411.465 386.883 408.207Z" fill="#6581D8"/>
<path d="M255.306 153.301L254.229 154.279C247.946 154.016 241.668 154.894 235.698 156.872C238.183 151.804 237.352 146.472 241.98 143.331C242.89 142.715 241.784 141.159 240.659 140.552C239.044 139.672 237.401 138.86 235.767 138.028H235.825C234.338 130.201 235.825 128.322 245.688 125.309C245.443 132.588 247.253 139.525 252.605 144.3C255.893 147.303 255.628 150.023 255.306 153.301Z" fill="#6581D8"/>
<path d="M205.125 111.083C201.622 110.692 199.577 105.819 195.429 104.44C195.339 104.236 195.293 104.016 195.293 103.794C195.293 103.571 195.339 103.352 195.429 103.148C196.495 101.945 198.188 100.947 199.46 101.651C204.43 104.4 209.4 102.189 214.351 102.052C216.748 101.984 219.077 102.111 219.537 104.782C219.996 107.453 217.58 108.011 215.672 108.696C212.291 110.001 208.738 110.805 205.125 111.083Z" fill="#6581D8"/>
<path d="M235.757 138.077C237.587 144.984 233.878 150.659 226.951 151.256C223.096 151.579 221.981 150.18 224.388 146.569C225.298 145.2 222.539 142.489 225.366 141.355C228.751 140.004 231.462 136.277 235.835 138.126L235.757 138.077Z" fill="#6581D8"/>
</g>
<path d="M45.1875 379.166L119.468 460.775C119.468 460.775 132.912 466.225 143.625 467.732C174.797 472.096 234.011 428.596 234.011 428.596L183.134 358.336C183.134 358.336 158.605 369.098 130.436 378.276C86.3688 392.561 45.1875 379.166 45.1875 379.166Z" fill="#6581D8" stroke="#231F20" stroke-width="0.244602" stroke-miterlimit="10"/>
<path d="M94.9492 413.215C94.9492 413.215 140.563 402.052 197.418 367.837C246.114 338.484 277.56 311.089 277.56 311.089L341.959 394.518C341.959 394.518 335.648 413.528 248.286 461.852C188.974 494.658 167.078 495.118 167.078 495.118L94.9492 413.215Z" fill="#6581D8" stroke="#231F20" stroke-width="0.244602" stroke-miterlimit="10"/>
<path d="M192.223 387.102C192.223 387.102 224.716 369.657 284.115 319.592C332.742 278.616 370.283 231.241 370.283 231.241L434.77 311.099C434.77 311.099 428.548 343.298 352.427 406.787C294.193 455.375 262.962 471.079 262.962 471.079L192.223 387.102Z" fill="#6581D8" stroke="#231F20" stroke-width="0.244602" stroke-miterlimit="10"/>
<path d="M313.496 313.926C313.496 313.926 341.87 287.508 391.769 228.041C432.94 179.003 440.807 144.416 440.807 144.416L512.71 231.23C512.71 231.23 512.309 246.151 467.703 305.775C422.266 366.505 387.562 394.155 387.562 394.155L313.496 313.926Z" fill="#6581D8" stroke="#231F20" stroke-width="0.244602" stroke-miterlimit="10"/>
<path d="M61.9065 295.004L133.937 377.122L131.237 378.1L115.719 361.976C115.719 361.976 87.9518 366.594 70.7122 345.734C53.4726 324.875 61.9065 295.004 61.9065 295.004Z" fill="#263769" stroke="#231F20" stroke-width="0.244602" stroke-miterlimit="10"/>
<path d="M73.2188 349.531L104.587 383.913L131.209 378.15L115.163 361.468L73.2188 349.531Z" fill="#6581D8" stroke="#231F20" stroke-width="0.244602" stroke-miterlimit="10"/>
<path d="M403.91 318.73C417.014 318.73 427.636 308.108 427.636 295.004C427.636 281.9 417.014 271.277 403.91 271.277C390.806 271.277 380.184 281.9 380.184 295.004C380.184 308.108 390.806 318.73 403.91 318.73Z" fill="#F9DB2F" stroke="#231F20" stroke-width="0.244602" stroke-miterlimit="10"/>
<path d="M318.242 390.447C331.346 390.447 341.969 379.824 341.969 366.721C341.969 353.617 331.346 342.994 318.242 342.994C305.138 342.994 294.516 353.617 294.516 366.721C294.516 379.824 305.138 390.447 318.242 390.447Z" fill="#F9DB2F" stroke="#231F20" stroke-width="0.244602" stroke-miterlimit="10"/>
<path d="M208.502 406.484C204.166 410.638 201.567 416.281 201.229 422.275C200.891 428.27 202.839 434.169 206.68 438.783C210.521 443.398 215.969 446.384 221.926 447.139C227.882 447.894 233.903 446.362 238.774 442.852L208.502 406.484Z" fill="#F9DB2F" stroke="#231F20" stroke-width="0.244602" stroke-miterlimit="10"/>
</g>
<defs>
<clipPath id="clip0_12633_18355">
<rect width="831.848" height="815" fill="white" transform="translate(-18.9219)"/>
</clipPath>
</defs>
</svg>
