<svg preserveAspectRatio="none" width="100%" height="100%" overflow="visible" style="display: block;" viewBox="0 0 32 32" fill="none" xmlns="http://www.w3.org/2000/svg">
<g id="Group">
<g id="Vector">
</g>
<path id="Vector_2" fill-rule="evenodd" clip-rule="evenodd" d="M21.3313 18.6666C23.0994 18.6666 24.7951 19.369 26.0454 20.6192C27.2956 21.8695 27.998 23.5652 27.998 25.3333V28C27.998 28.3536 27.8575 28.6927 27.6075 28.9428C27.3574 29.1928 27.0183 29.3333 26.6647 29.3333C26.311 29.3333 25.9719 29.1928 25.7219 28.9428C25.4718 28.6927 25.3313 28.3536 25.3313 28V25.3333C25.3313 24.2724 24.9099 23.255 24.1598 22.5049C23.4096 21.7547 22.3922 21.3333 21.3313 21.3333H10.6647C9.6038 21.3333 8.58639 21.7547 7.83624 22.5049C7.0861 23.255 6.66467 24.2724 6.66467 25.3333V28C6.66467 28.3536 6.52419 28.6927 6.27414 28.9428C6.0241 29.1928 5.68496 29.3333 5.33134 29.3333C4.97771 29.3333 4.63857 29.1928 4.38853 28.9428C4.13848 28.6927 3.998 28.3536 3.998 28V25.3333C3.998 23.5652 4.70038 21.8695 5.95062 20.6192C7.20087 19.369 8.89656 18.6666 10.6647 18.6666H21.3313ZM28.55 12.108C28.7894 11.8663 29.1121 11.7252 29.4521 11.7137C29.792 11.7022 30.1236 11.821 30.3788 12.0459C30.634 12.2708 30.7936 12.5847 30.8249 12.9235C30.8563 13.2622 30.757 13.6001 30.5473 13.868L30.4353 13.9946L26.6647 17.7653C26.4351 17.9949 26.1296 18.1328 25.8056 18.1531C25.4815 18.1735 25.1612 18.075 24.9047 17.876L24.7793 17.7653L22.894 15.88C22.6523 15.6406 22.5113 15.3179 22.4998 14.9779C22.4882 14.6379 22.6071 14.3064 22.832 14.0512C23.0568 13.796 23.3708 13.6364 23.7095 13.605C24.0482 13.5737 24.3861 13.673 24.654 13.8826L24.7793 13.9933L25.722 14.9373L28.55 12.108ZM15.998 2.66662C17.7661 2.66662 19.4618 3.369 20.712 4.61924C21.9623 5.86948 22.6647 7.56518 22.6647 9.33329C22.6647 11.1014 21.9623 12.7971 20.712 14.0473C19.4618 15.2976 17.7661 16 15.998 16C14.2299 16 12.5342 15.2976 11.284 14.0473C10.0337 12.7971 9.33134 11.1014 9.33134 9.33329C9.33134 7.56518 10.0337 5.86948 11.284 4.61924C12.5342 3.369 14.2299 2.66662 15.998 2.66662ZM15.998 5.33329C15.4727 5.33329 14.9526 5.43675 14.4673 5.63777C13.982 5.83879 13.541 6.13343 13.1696 6.50486C12.7981 6.87629 12.5035 7.31725 12.3025 7.80255C12.1015 8.28786 11.998 8.808 11.998 9.33329C11.998 9.85857 12.1015 10.3787 12.3025 10.864C12.5035 11.3493 12.7981 11.7903 13.1696 12.1617C13.541 12.5331 13.982 12.8278 14.4673 13.0288C14.9526 13.2298 15.4727 13.3333 15.998 13.3333C17.0589 13.3333 18.0763 12.9119 18.8264 12.1617C19.5766 11.4116 19.998 10.3942 19.998 9.33329C19.998 8.27242 19.5766 7.25501 18.8264 6.50486C18.0763 5.75471 17.0589 5.33329 15.998 5.33329Z" fill="var(--fill-0, #5B7DDF)"/>
</g>
</svg>
