<svg preserveAspectRatio="none" width="100%" height="100%" overflow="visible" style="display: block;" viewBox="0 0 24 24" fill="none" xmlns="http://www.w3.org/2000/svg">
<g id="Group">
<g id="Vector">
</g>
<path id="Vector_2" d="M6.857 2.445C8.12 3.366 9.076 4.66 9.89 5.849L10.528 6.787C10.7261 7.07656 10.8168 7.42628 10.7843 7.77563C10.7518 8.12497 10.5981 8.45196 10.35 8.7L8.994 10.056L9.137 10.36C9.487 11.069 10.091 12.09 11 13C11.7 13.7 12.465 14.218 13.104 14.58L13.471 14.777L13.798 14.939L13.944 15.006L15.299 13.65C15.548 13.4013 15.8765 13.248 16.227 13.2167C16.5775 13.1855 16.9279 13.2783 17.217 13.479L18.231 14.182C19.383 14.992 20.586 15.915 21.521 17.113C21.6826 17.3209 21.7854 17.5684 21.8187 17.8296C21.8519 18.0909 21.8144 18.3562 21.71 18.598C20.873 20.551 18.755 22.214 16.552 22.132L16.252 22.116L16.019 22.096L15.761 22.066L15.48 22.028L15.175 21.977L14.849 21.913L14.503 21.836L14.137 21.742L13.752 21.632L13.35 21.502C11.504 20.876 9.161 19.646 6.757 17.242C4.354 14.839 3.124 12.496 2.498 10.65L2.368 10.248L2.258 9.863L2.164 9.497L2.086 9.151C2.06347 9.04263 2.04247 8.93396 2.023 8.825L1.973 8.52L1.933 8.239L1.904 7.981L1.884 7.748L1.868 7.448C1.787 5.252 3.468 3.119 5.412 2.286C5.64598 2.18497 5.9022 2.1465 6.15553 2.17438C6.40886 2.20225 6.65059 2.29551 6.857 2.445ZM5.93 4.253C4.858 4.813 3.82 6.093 3.867 7.374L3.887 7.702L3.909 7.907L3.938 8.137L3.978 8.39L4.029 8.667L4.094 8.965L4.174 9.285L4.27 9.624L4.384 9.982C4.426 10.104 4.47 10.229 4.518 10.357L4.672 10.749L4.848 11.156C5.476 12.538 6.5 14.156 8.173 15.828C9.845 17.5 11.463 18.525 12.845 19.153L13.252 19.329L13.644 19.483C13.772 19.531 13.897 19.575 14.019 19.617L14.377 19.731L14.717 19.827L15.036 19.907L15.334 19.972L15.611 20.023L15.865 20.063L16.095 20.093L16.299 20.113L16.627 20.133C17.891 20.18 19.181 19.148 19.739 18.09C19.027 17.255 18.143 16.57 17.168 15.88L16.42 15.359L16.23 15.558L15.824 16.001L15.609 16.227C15.023 16.824 14.339 17.331 13.519 17L13.293 16.905L13.017 16.781L12.863 16.708L12.525 16.539L12.154 16.339C11.2151 15.8165 10.3516 15.1689 9.587 14.414C8.83208 13.6494 8.1845 12.7859 7.662 11.847L7.462 11.477L7.292 11.138L7.096 10.708L7 10.48C6.689 9.711 7.117 9.062 7.664 8.5L7.888 8.28L8.445 7.767L8.645 7.577L8.172 6.884C7.469 5.864 6.782 4.944 5.929 4.252L5.93 4.253ZM14.993 6.04L15.109 6.053C15.8369 6.1814 16.5055 6.53694 17.0189 7.06868C17.5323 7.60041 17.8642 8.28104 17.967 9.013C18.0037 9.26618 17.9419 9.52378 17.7944 9.7328C17.6469 9.94183 17.4249 10.0864 17.1741 10.1367C16.9233 10.1871 16.6627 10.1394 16.446 10.0034C16.2293 9.86753 16.0729 9.65371 16.009 9.406L15.986 9.291C15.9458 9.0041 15.8233 8.73499 15.6334 8.51618C15.4436 8.29738 15.1944 8.13824 14.916 8.058L14.761 8.023C14.5099 7.97849 14.2853 7.83974 14.1331 7.63511C13.9809 7.43047 13.9127 7.17543 13.9423 6.92214C13.9719 6.66886 14.0972 6.43646 14.2925 6.27248C14.4878 6.10851 14.7384 6.02534 14.993 6.04ZM15 3C16.5913 3 18.1174 3.63214 19.2426 4.75736C20.3679 5.88258 21 7.4087 21 9C20.9997 9.25488 20.9021 9.50003 20.7272 9.68537C20.5522 9.8707 20.313 9.98224 20.0586 9.99717C19.8042 10.0121 19.5536 9.92933 19.3582 9.76574C19.1627 9.60215 19.0371 9.3701 19.007 9.117L19 9C19.0004 7.98442 18.6142 7.00676 17.92 6.26553C17.2257 5.52429 16.2754 5.07505 15.262 5.009L15 5C14.7348 5 14.4804 4.89464 14.2929 4.70711C14.1054 4.51957 14 4.26522 14 4C14 3.73478 14.1054 3.48043 14.2929 3.29289C14.4804 3.10536 14.7348 3 15 3Z" fill="var(--fill-0, #6584DB)"/>
</g>
</svg>
