<svg width="324" height="323" viewBox="0 0 324 323" fill="none" xmlns="http://www.w3.org/2000/svg">
<g filter="url(#filter0_dd_10116_107349)">
<g clip-path="url(#clip0_10116_107349)">
<path d="M317.841 1.97217H6.15625V313.656H317.841V1.97217Z" fill="white"/>
<path d="M38.8051 25.4937H29.6797V34.6191H38.8051V25.4937Z" fill="black"/>
<path d="M47.9306 25.4937H38.8051V34.6191H47.9306V25.4937Z" fill="black"/>
<path d="M57.056 25.4937H47.9306V34.6191H57.056V25.4937Z" fill="black"/>
<path d="M66.1814 25.4937H57.056V34.6191H66.1814V25.4937Z" fill="black"/>
<path d="M75.3069 25.4937H66.1814V34.6191H75.3069V25.4937Z" fill="black"/>
<path d="M84.4323 25.4937H75.3069V34.6191H84.4323V25.4937Z" fill="black"/>
<path d="M93.5577 25.4937H84.4323V34.6191H93.5577V25.4937Z" fill="black"/>
<path d="M111.809 25.4937H102.683V34.6191H111.809V25.4937Z" fill="black"/>
<path d="M120.934 25.4937H111.809V34.6191H120.934V25.4937Z" fill="black"/>
<path d="M130.059 25.4937H120.934V34.6191H130.059V25.4937Z" fill="black"/>
<path d="M148.31 25.4937H139.185V34.6191H148.31V25.4937Z" fill="black"/>
<path d="M166.561 25.4937H157.436V34.6191H166.561V25.4937Z" fill="black"/>
<path d="M175.687 25.4937H166.561V34.6191H175.687V25.4937Z" fill="black"/>
<path d="M203.063 25.4937H193.937V34.6191H203.063V25.4937Z" fill="black"/>
<path d="M221.314 25.4937H212.188V34.6191H221.314V25.4937Z" fill="black"/>
<path d="M239.565 25.4937H230.439V34.6191H239.565V25.4937Z" fill="black"/>
<path d="M248.69 25.4937H239.565V34.6191H248.69V25.4937Z" fill="black"/>
<path d="M257.816 25.4937H248.69V34.6191H257.816V25.4937Z" fill="black"/>
<path d="M266.941 25.4937H257.816V34.6191H266.941V25.4937Z" fill="black"/>
<path d="M276.066 25.4937H266.941V34.6191H276.066V25.4937Z" fill="black"/>
<path d="M285.192 25.4937H276.066V34.6191H285.192V25.4937Z" fill="black"/>
<path d="M294.317 25.4937H285.192V34.6191H294.317V25.4937Z" fill="black"/>
<path d="M38.8051 34.6191H29.6797V43.7445H38.8051V34.6191Z" fill="black"/>
<path d="M93.5577 34.6191H84.4323V43.7445H93.5577V34.6191Z" fill="black"/>
<path d="M120.934 34.6191H111.809V43.7445H120.934V34.6191Z" fill="black"/>
<path d="M130.059 34.6191H120.934V43.7445H130.059V34.6191Z" fill="black"/>
<path d="M157.436 34.6191H148.31V43.7445H157.436V34.6191Z" fill="black"/>
<path d="M175.687 34.6191H166.561V43.7445H175.687V34.6191Z" fill="black"/>
<path d="M184.812 34.6191H175.687V43.7445H184.812V34.6191Z" fill="black"/>
<path d="M239.565 34.6191H230.439V43.7445H239.565V34.6191Z" fill="black"/>
<path d="M294.317 34.6191H285.192V43.7445H294.317V34.6191Z" fill="black"/>
<path d="M38.8051 43.7445H29.6797V52.87H38.8051V43.7445Z" fill="black"/>
<path d="M57.056 43.7445H47.9306V52.87H57.056V43.7445Z" fill="black"/>
<path d="M66.1814 43.7445H57.056V52.87H66.1814V43.7445Z" fill="black"/>
<path d="M75.3069 43.7445H66.1814V52.87H75.3069V43.7445Z" fill="black"/>
<path d="M93.5577 43.7445H84.4323V52.87H93.5577V43.7445Z" fill="black"/>
<path d="M139.185 43.7445H130.059V52.87H139.185V43.7445Z" fill="black"/>
<path d="M157.436 43.7445H148.31V52.87H157.436V43.7445Z" fill="black"/>
<path d="M166.561 43.7445H157.436V52.87H166.561V43.7445Z" fill="black"/>
<path d="M193.937 43.7445H184.812V52.87H193.937V43.7445Z" fill="black"/>
<path d="M212.188 43.7445H203.063V52.87H212.188V43.7445Z" fill="black"/>
<path d="M239.565 43.7445H230.439V52.87H239.565V43.7445Z" fill="black"/>
<path d="M257.816 43.7445H248.69V52.87H257.816V43.7445Z" fill="black"/>
<path d="M266.941 43.7445H257.816V52.87H266.941V43.7445Z" fill="black"/>
<path d="M276.066 43.7445H266.941V52.87H276.066V43.7445Z" fill="black"/>
<path d="M294.317 43.7445H285.192V52.87H294.317V43.7445Z" fill="black"/>
<path d="M38.8051 52.87H29.6797V61.9954H38.8051V52.87Z" fill="black"/>
<path d="M57.056 52.87H47.9306V61.9954H57.056V52.87Z" fill="black"/>
<path d="M66.1814 52.87H57.056V61.9954H66.1814V52.87Z" fill="black"/>
<path d="M75.3069 52.87H66.1814V61.9954H75.3069V52.87Z" fill="black"/>
<path d="M93.5577 52.87H84.4323V61.9954H93.5577V52.87Z" fill="black"/>
<path d="M111.809 52.87H102.683V61.9954H111.809V52.87Z" fill="black"/>
<path d="M120.934 52.87H111.809V61.9954H120.934V52.87Z" fill="black"/>
<path d="M139.185 52.87H130.059V61.9954H139.185V52.87Z" fill="black"/>
<path d="M148.31 52.87H139.185V61.9954H148.31V52.87Z" fill="black"/>
<path d="M157.436 52.87H148.31V61.9954H157.436V52.87Z" fill="black"/>
<path d="M193.937 52.87H184.812V61.9954H193.937V52.87Z" fill="black"/>
<path d="M212.188 52.87H203.063V61.9954H212.188V52.87Z" fill="black"/>
<path d="M239.565 52.87H230.439V61.9954H239.565V52.87Z" fill="black"/>
<path d="M257.816 52.87H248.69V61.9954H257.816V52.87Z" fill="black"/>
<path d="M266.941 52.87H257.816V61.9954H266.941V52.87Z" fill="black"/>
<path d="M276.066 52.87H266.941V61.9954H276.066V52.87Z" fill="black"/>
<path d="M294.317 52.87H285.192V61.9954H294.317V52.87Z" fill="black"/>
<path d="M38.8051 61.9954H29.6797V71.1208H38.8051V61.9954Z" fill="black"/>
<path d="M57.056 61.9954H47.9306V71.1208H57.056V61.9954Z" fill="black"/>
<path d="M66.1814 61.9954H57.056V71.1208H66.1814V61.9954Z" fill="black"/>
<path d="M75.3069 61.9954H66.1814V71.1208H75.3069V61.9954Z" fill="black"/>
<path d="M93.5577 61.9954H84.4323V71.1208H93.5577V61.9954Z" fill="black"/>
<path d="M148.31 61.9954H139.185V71.1208H148.31V61.9954Z" fill="black"/>
<path d="M166.561 61.9954H157.436V71.1208H166.561V61.9954Z" fill="black"/>
<path d="M184.812 61.9954H175.687V71.1208H184.812V61.9954Z" fill="black"/>
<path d="M193.937 61.9954H184.812V71.1208H193.937V61.9954Z" fill="black"/>
<path d="M221.314 61.9954H212.188V71.1208H221.314V61.9954Z" fill="black"/>
<path d="M239.565 61.9954H230.439V71.1208H239.565V61.9954Z" fill="black"/>
<path d="M257.816 61.9954H248.69V71.1208H257.816V61.9954Z" fill="black"/>
<path d="M266.941 61.9954H257.816V71.1208H266.941V61.9954Z" fill="black"/>
<path d="M276.066 61.9954H266.941V71.1208H276.066V61.9954Z" fill="black"/>
<path d="M294.317 61.9954H285.192V71.1208H294.317V61.9954Z" fill="black"/>
<path d="M38.8051 71.1208H29.6797V80.2463H38.8051V71.1208Z" fill="black"/>
<path d="M93.5577 71.1208H84.4323V80.2463H93.5577V71.1208Z" fill="black"/>
<path d="M111.809 71.1208H102.683V80.2463H111.809V71.1208Z" fill="black"/>
<path d="M120.934 71.1208H111.809V80.2463H120.934V71.1208Z" fill="black"/>
<path d="M130.059 71.1208H120.934V80.2463H130.059V71.1208Z" fill="black"/>
<path d="M139.185 71.1208H130.059V80.2463H139.185V71.1208Z" fill="black"/>
<path d="M148.31 71.1208H139.185V80.2463H148.31V71.1208Z" fill="black"/>
<path d="M175.687 71.1208H166.561V80.2463H175.687V71.1208Z" fill="black"/>
<path d="M184.812 71.1208H175.687V80.2463H184.812V71.1208Z" fill="black"/>
<path d="M193.937 71.1208H184.812V80.2463H193.937V71.1208Z" fill="black"/>
<path d="M203.063 71.1208H193.937V80.2463H203.063V71.1208Z" fill="black"/>
<path d="M212.188 71.1208H203.063V80.2463H212.188V71.1208Z" fill="black"/>
<path d="M221.314 71.1208H212.188V80.2463H221.314V71.1208Z" fill="black"/>
<path d="M239.565 71.1208H230.439V80.2463H239.565V71.1208Z" fill="black"/>
<path d="M294.317 71.1208H285.192V80.2463H294.317V71.1208Z" fill="black"/>
<path d="M38.8051 80.2463H29.6797V89.3717H38.8051V80.2463Z" fill="black"/>
<path d="M47.9306 80.2463H38.8051V89.3717H47.9306V80.2463Z" fill="black"/>
<path d="M57.056 80.2463H47.9306V89.3717H57.056V80.2463Z" fill="black"/>
<path d="M66.1814 80.2463H57.056V89.3717H66.1814V80.2463Z" fill="black"/>
<path d="M75.3069 80.2463H66.1814V89.3717H75.3069V80.2463Z" fill="black"/>
<path d="M84.4323 80.2463H75.3069V89.3717H84.4323V80.2463Z" fill="black"/>
<path d="M93.5577 80.2463H84.4323V89.3717H93.5577V80.2463Z" fill="black"/>
<path d="M111.809 80.2463H102.683V89.3717H111.809V80.2463Z" fill="black"/>
<path d="M130.059 80.2463H120.934V89.3717H130.059V80.2463Z" fill="black"/>
<path d="M148.31 80.2463H139.185V89.3717H148.31V80.2463Z" fill="black"/>
<path d="M166.561 80.2463H157.436V89.3717H166.561V80.2463Z" fill="black"/>
<path d="M184.812 80.2463H175.687V89.3717H184.812V80.2463Z" fill="black"/>
<path d="M203.063 80.2463H193.937V89.3717H203.063V80.2463Z" fill="black"/>
<path d="M221.314 80.2463H212.188V89.3717H221.314V80.2463Z" fill="black"/>
<path d="M239.565 80.2463H230.439V89.3717H239.565V80.2463Z" fill="black"/>
<path d="M248.69 80.2463H239.565V89.3717H248.69V80.2463Z" fill="black"/>
<path d="M257.816 80.2463H248.69V89.3717H257.816V80.2463Z" fill="black"/>
<path d="M266.941 80.2463H257.816V89.3717H266.941V80.2463Z" fill="black"/>
<path d="M276.066 80.2463H266.941V89.3717H276.066V80.2463Z" fill="black"/>
<path d="M285.192 80.2463H276.066V89.3717H285.192V80.2463Z" fill="black"/>
<path d="M294.317 80.2463H285.192V89.3717H294.317V80.2463Z" fill="black"/>
<path d="M130.059 89.3717H120.934V98.4971H130.059V89.3717Z" fill="black"/>
<path d="M148.31 89.3717H139.185V98.4971H148.31V89.3717Z" fill="black"/>
<path d="M175.687 89.3717H166.561V98.4971H175.687V89.3717Z" fill="black"/>
<path d="M184.812 89.3717H175.687V98.4971H184.812V89.3717Z" fill="black"/>
<path d="M203.063 89.3717H193.937V98.4971H203.063V89.3717Z" fill="black"/>
<path d="M84.4323 98.4971H75.3069V107.623H84.4323V98.4971Z" fill="black"/>
<path d="M93.5577 98.4971H84.4323V107.623H93.5577V98.4971Z" fill="black"/>
<path d="M111.809 98.4971H102.683V107.623H111.809V98.4971Z" fill="black"/>
<path d="M120.934 98.4971H111.809V107.623H120.934V98.4971Z" fill="black"/>
<path d="M139.185 98.4971H130.059V107.623H139.185V98.4971Z" fill="black"/>
<path d="M166.561 98.4971H157.436V107.623H166.561V98.4971Z" fill="black"/>
<path d="M175.687 98.4971H166.561V107.623H175.687V98.4971Z" fill="black"/>
<path d="M184.812 98.4971H175.687V107.623H184.812V98.4971Z" fill="black"/>
<path d="M193.937 98.4971H184.812V107.623H193.937V98.4971Z" fill="black"/>
<path d="M203.063 98.4971H193.937V107.623H203.063V98.4971Z" fill="black"/>
<path d="M221.314 98.4971H212.188V107.623H221.314V98.4971Z" fill="black"/>
<path d="M230.439 98.4971H221.314V107.623H230.439V98.4971Z" fill="black"/>
<path d="M248.69 98.4971H239.565V107.623H248.69V98.4971Z" fill="black"/>
<path d="M266.941 98.4971H257.816V107.623H266.941V98.4971Z" fill="black"/>
<path d="M294.317 98.4971H285.192V107.623H294.317V98.4971Z" fill="black"/>
<path d="M38.8051 107.623H29.6797V116.748H38.8051V107.623Z" fill="black"/>
<path d="M47.9306 107.623H38.8051V116.748H47.9306V107.623Z" fill="black"/>
<path d="M57.056 107.623H47.9306V116.748H57.056V107.623Z" fill="black"/>
<path d="M75.3069 107.623H66.1814V116.748H75.3069V107.623Z" fill="black"/>
<path d="M102.683 107.623H93.5577V116.748H102.683V107.623Z" fill="black"/>
<path d="M111.809 107.623H102.683V116.748H111.809V107.623Z" fill="black"/>
<path d="M120.934 107.623H111.809V116.748H120.934V107.623Z" fill="black"/>
<path d="M139.185 107.623H130.059V116.748H139.185V107.623Z" fill="black"/>
<path d="M175.687 107.623H166.561V116.748H175.687V107.623Z" fill="black"/>
<path d="M193.937 107.623H184.812V116.748H193.937V107.623Z" fill="black"/>
<path d="M212.188 107.623H203.063V116.748H212.188V107.623Z" fill="black"/>
<path d="M230.439 107.623H221.314V116.748H230.439V107.623Z" fill="black"/>
<path d="M239.565 107.623H230.439V116.748H239.565V107.623Z" fill="black"/>
<path d="M66.1814 116.748H57.056V125.873H66.1814V116.748Z" fill="black"/>
<path d="M75.3069 116.748H66.1814V125.873H75.3069V116.748Z" fill="black"/>
<path d="M84.4323 116.748H75.3069V125.873H84.4323V116.748Z" fill="black"/>
<path d="M93.5577 116.748H84.4323V125.873H93.5577V116.748Z" fill="black"/>
<path d="M102.683 116.748H93.5577V125.873H102.683V116.748Z" fill="black"/>
<path d="M111.809 116.748H102.683V125.873H111.809V116.748Z" fill="black"/>
<path d="M130.059 116.748H120.934V125.873H130.059V116.748Z" fill="black"/>
<path d="M148.31 116.748H139.185V125.873H148.31V116.748Z" fill="black"/>
<path d="M157.436 116.748H148.31V125.873H157.436V116.748Z" fill="black"/>
<path d="M175.687 116.748H166.561V125.873H175.687V116.748Z" fill="black"/>
<path d="M184.812 116.748H175.687V125.873H184.812V116.748Z" fill="black"/>
<path d="M193.937 116.748H184.812V125.873H193.937V116.748Z" fill="black"/>
<path d="M203.063 116.748H193.937V125.873H203.063V116.748Z" fill="black"/>
<path d="M221.314 116.748H212.188V125.873H221.314V116.748Z" fill="black"/>
<path d="M239.565 116.748H230.439V125.873H239.565V116.748Z" fill="black"/>
<path d="M248.69 116.748H239.565V125.873H248.69V116.748Z" fill="black"/>
<path d="M276.066 116.748H266.941V125.873H276.066V116.748Z" fill="black"/>
<path d="M38.8051 125.873H29.6797V134.999H38.8051V125.873Z" fill="black"/>
<path d="M47.9306 125.873H38.8051V134.999H47.9306V125.873Z" fill="black"/>
<path d="M102.683 125.873H93.5577V134.999H102.683V125.873Z" fill="black"/>
<path d="M111.809 125.873H102.683V134.999H111.809V125.873Z" fill="black"/>
<path d="M139.185 125.873H130.059V134.999H139.185V125.873Z" fill="black"/>
<path d="M166.561 125.873H157.436V134.999H166.561V125.873Z" fill="black"/>
<path d="M184.812 125.873H175.687V134.999H184.812V125.873Z" fill="black"/>
<path d="M193.937 125.873H184.812V134.999H193.937V125.873Z" fill="black"/>
<path d="M257.816 125.873H248.69V134.999H257.816V125.873Z" fill="black"/>
<path d="M285.192 125.873H276.066V134.999H285.192V125.873Z" fill="black"/>
<path d="M38.8051 134.999H29.6797V144.124H38.8051V134.999Z" fill="black"/>
<path d="M93.5577 134.999H84.4323V144.124H93.5577V134.999Z" fill="black"/>
<path d="M102.683 134.999H93.5577V144.124H102.683V134.999Z" fill="black"/>
<path d="M111.809 134.999H102.683V144.124H111.809V134.999Z" fill="black"/>
<path d="M130.059 134.999H120.934V144.124H130.059V134.999Z" fill="black"/>
<path d="M184.812 134.999H175.687V144.124H184.812V134.999Z" fill="black"/>
<path d="M239.565 134.999H230.439V144.124H239.565V134.999Z" fill="black"/>
<path d="M248.69 134.999H239.565V144.124H248.69V134.999Z" fill="black"/>
<path d="M276.066 134.999H266.941V144.124H276.066V134.999Z" fill="black"/>
<path d="M285.192 134.999H276.066V144.124H285.192V134.999Z" fill="black"/>
<path d="M294.317 134.999H285.192V144.124H294.317V134.999Z" fill="black"/>
<path d="M38.8051 144.124H29.6797V153.25H38.8051V144.124Z" fill="black"/>
<path d="M47.9306 144.124H38.8051V153.25H47.9306V144.124Z" fill="black"/>
<path d="M57.056 144.124H47.9306V153.25H57.056V144.124Z" fill="black"/>
<path d="M66.1814 144.124H57.056V153.25H66.1814V144.124Z" fill="black"/>
<path d="M75.3069 144.124H66.1814V153.25H75.3069V144.124Z" fill="black"/>
<path d="M84.4323 144.124H75.3069V153.25H84.4323V144.124Z" fill="black"/>
<path d="M175.687 144.124H166.561V153.25H175.687V144.124Z" fill="black"/>
<path d="M184.812 144.124H175.687V153.25H184.812V144.124Z" fill="black"/>
<path d="M203.063 144.124H193.937V153.25H203.063V144.124Z" fill="black"/>
<path d="M212.188 144.124H203.063V153.25H212.188V144.124Z" fill="black"/>
<path d="M230.439 144.124H221.314V153.25H230.439V144.124Z" fill="black"/>
<path d="M239.565 144.124H230.439V153.25H239.565V144.124Z" fill="black"/>
<path d="M248.69 144.124H239.565V153.25H248.69V144.124Z" fill="black"/>
<path d="M294.317 144.124H285.192V153.25H294.317V144.124Z" fill="black"/>
<path d="M38.8051 153.25H29.6797V162.375H38.8051V153.25Z" fill="black"/>
<path d="M47.9306 153.25H38.8051V162.375H47.9306V153.25Z" fill="black"/>
<path d="M66.1814 153.25H57.056V162.375H66.1814V153.25Z" fill="black"/>
<path d="M75.3069 153.25H66.1814V162.375H75.3069V153.25Z" fill="black"/>
<path d="M84.4323 153.25H75.3069V162.375H84.4323V153.25Z" fill="black"/>
<path d="M93.5577 153.25H84.4323V162.375H93.5577V153.25Z" fill="black"/>
<path d="M102.683 153.25H93.5577V162.375H102.683V153.25Z" fill="black"/>
<path d="M120.934 153.25H111.809V162.375H120.934V153.25Z" fill="black"/>
<path d="M139.185 153.25H130.059V162.375H139.185V153.25Z" fill="black"/>
<path d="M175.687 153.25H166.561V162.375H175.687V153.25Z" fill="black"/>
<path d="M184.812 153.25H175.687V162.375H184.812V153.25Z" fill="black"/>
<path d="M221.314 153.25H212.188V162.375H221.314V153.25Z" fill="black"/>
<path d="M239.565 153.25H230.439V162.375H239.565V153.25Z" fill="black"/>
<path d="M257.816 153.25H248.69V162.375H257.816V153.25Z" fill="black"/>
<path d="M266.941 153.25H257.816V162.375H266.941V153.25Z" fill="black"/>
<path d="M294.317 153.25H285.192V162.375H294.317V153.25Z" fill="black"/>
<path d="M47.9306 162.375H38.8051V171.501H47.9306V162.375Z" fill="black"/>
<path d="M75.3069 162.375H66.1814V171.501H75.3069V162.375Z" fill="black"/>
<path d="M84.4323 162.375H75.3069V171.501H84.4323V162.375Z" fill="black"/>
<path d="M102.683 162.375H93.5577V171.501H102.683V162.375Z" fill="black"/>
<path d="M111.809 162.375H102.683V171.501H111.809V162.375Z" fill="black"/>
<path d="M139.185 162.375H130.059V171.501H139.185V162.375Z" fill="black"/>
<path d="M175.687 162.375H166.561V171.501H175.687V162.375Z" fill="black"/>
<path d="M184.812 162.375H175.687V171.501H184.812V162.375Z" fill="black"/>
<path d="M221.314 162.375H212.188V171.501H221.314V162.375Z" fill="black"/>
<path d="M248.69 162.375H239.565V171.501H248.69V162.375Z" fill="black"/>
<path d="M257.816 162.375H248.69V171.501H257.816V162.375Z" fill="black"/>
<path d="M285.192 162.375H276.066V171.501H285.192V162.375Z" fill="black"/>
<path d="M38.8051 171.501H29.6797V180.626H38.8051V171.501Z" fill="black"/>
<path d="M47.9306 171.501H38.8051V180.626H47.9306V171.501Z" fill="black"/>
<path d="M75.3069 171.501H66.1814V180.626H75.3069V171.501Z" fill="black"/>
<path d="M84.4323 171.501H75.3069V180.626H84.4323V171.501Z" fill="black"/>
<path d="M93.5577 171.501H84.4323V180.626H93.5577V171.501Z" fill="black"/>
<path d="M111.809 171.501H102.683V180.626H111.809V171.501Z" fill="black"/>
<path d="M120.934 171.501H111.809V180.626H120.934V171.501Z" fill="black"/>
<path d="M139.185 171.501H130.059V180.626H139.185V171.501Z" fill="black"/>
<path d="M166.561 171.501H157.436V180.626H166.561V171.501Z" fill="black"/>
<path d="M193.937 171.501H184.812V180.626H193.937V171.501Z" fill="black"/>
<path d="M203.063 171.501H193.937V180.626H203.063V171.501Z" fill="black"/>
<path d="M221.314 171.501H212.188V180.626H221.314V171.501Z" fill="black"/>
<path d="M285.192 171.501H276.066V180.626H285.192V171.501Z" fill="black"/>
<path d="M57.056 180.626H47.9306V189.751H57.056V180.626Z" fill="black"/>
<path d="M75.3069 180.626H66.1814V189.751H75.3069V180.626Z" fill="black"/>
<path d="M84.4323 180.626H75.3069V189.751H84.4323V180.626Z" fill="black"/>
<path d="M102.683 180.626H93.5577V189.751H102.683V180.626Z" fill="black"/>
<path d="M148.31 180.626H139.185V189.751H148.31V180.626Z" fill="black"/>
<path d="M175.687 180.626H166.561V189.751H175.687V180.626Z" fill="black"/>
<path d="M184.812 180.626H175.687V189.751H184.812V180.626Z" fill="black"/>
<path d="M193.937 180.626H184.812V189.751H193.937V180.626Z" fill="black"/>
<path d="M212.188 180.626H203.063V189.751H212.188V180.626Z" fill="black"/>
<path d="M239.565 180.626H230.439V189.751H239.565V180.626Z" fill="black"/>
<path d="M257.816 180.626H248.69V189.751H257.816V180.626Z" fill="black"/>
<path d="M266.941 180.626H257.816V189.751H266.941V180.626Z" fill="black"/>
<path d="M276.066 180.626H266.941V189.751H276.066V180.626Z" fill="black"/>
<path d="M285.192 180.626H276.066V189.751H285.192V180.626Z" fill="black"/>
<path d="M294.317 180.626H285.192V189.751H294.317V180.626Z" fill="black"/>
<path d="M38.8051 189.751H29.6797V198.877H38.8051V189.751Z" fill="black"/>
<path d="M66.1814 189.751H57.056V198.877H66.1814V189.751Z" fill="black"/>
<path d="M75.3069 189.751H66.1814V198.877H75.3069V189.751Z" fill="black"/>
<path d="M84.4323 189.751H75.3069V198.877H84.4323V189.751Z" fill="black"/>
<path d="M93.5577 189.751H84.4323V198.877H93.5577V189.751Z" fill="black"/>
<path d="M102.683 189.751H93.5577V198.877H102.683V189.751Z" fill="black"/>
<path d="M139.185 189.751H130.059V198.877H139.185V189.751Z" fill="black"/>
<path d="M148.31 189.751H139.185V198.877H148.31V189.751Z" fill="black"/>
<path d="M175.687 189.751H166.561V198.877H175.687V189.751Z" fill="black"/>
<path d="M203.063 189.751H193.937V198.877H203.063V189.751Z" fill="black"/>
<path d="M212.188 189.751H203.063V198.877H212.188V189.751Z" fill="black"/>
<path d="M38.8051 198.877H29.6797V208.002H38.8051V198.877Z" fill="black"/>
<path d="M57.056 198.877H47.9306V208.002H57.056V198.877Z" fill="black"/>
<path d="M84.4323 198.877H75.3069V208.002H84.4323V198.877Z" fill="black"/>
<path d="M102.683 198.877H93.5577V208.002H102.683V198.877Z" fill="black"/>
<path d="M130.059 198.877H120.934V208.002H130.059V198.877Z" fill="black"/>
<path d="M139.185 198.877H130.059V208.002H139.185V198.877Z" fill="black"/>
<path d="M157.436 198.877H148.31V208.002H157.436V198.877Z" fill="black"/>
<path d="M230.439 198.877H221.314V208.002H230.439V198.877Z" fill="black"/>
<path d="M266.941 198.877H257.816V208.002H266.941V198.877Z" fill="black"/>
<path d="M276.066 198.877H266.941V208.002H276.066V198.877Z" fill="black"/>
<path d="M285.192 198.877H276.066V208.002H285.192V198.877Z" fill="black"/>
<path d="M57.056 208.002H47.9306V217.128H57.056V208.002Z" fill="black"/>
<path d="M75.3069 208.002H66.1814V217.128H75.3069V208.002Z" fill="black"/>
<path d="M93.5577 208.002H84.4323V217.128H93.5577V208.002Z" fill="black"/>
<path d="M111.809 208.002H102.683V217.128H111.809V208.002Z" fill="black"/>
<path d="M120.934 208.002H111.809V217.128H120.934V208.002Z" fill="black"/>
<path d="M130.059 208.002H120.934V217.128H130.059V208.002Z" fill="black"/>
<path d="M157.436 208.002H148.31V217.128H157.436V208.002Z" fill="black"/>
<path d="M175.687 208.002H166.561V217.128H175.687V208.002Z" fill="black"/>
<path d="M184.812 208.002H175.687V217.128H184.812V208.002Z" fill="black"/>
<path d="M212.188 208.002H203.063V217.128H212.188V208.002Z" fill="black"/>
<path d="M221.314 208.002H212.188V217.128H221.314V208.002Z" fill="black"/>
<path d="M230.439 208.002H221.314V217.128H230.439V208.002Z" fill="black"/>
<path d="M239.565 208.002H230.439V217.128H239.565V208.002Z" fill="black"/>
<path d="M248.69 208.002H239.565V217.128H248.69V208.002Z" fill="black"/>
<path d="M257.816 208.002H248.69V217.128H257.816V208.002Z" fill="black"/>
<path d="M276.066 208.002H266.941V217.128H276.066V208.002Z" fill="black"/>
<path d="M285.192 208.002H276.066V217.128H285.192V208.002Z" fill="black"/>
<path d="M294.317 208.002H285.192V217.128H294.317V208.002Z" fill="black"/>
<path d="M111.809 217.128H102.683V226.253H111.809V217.128Z" fill="black"/>
<path d="M139.185 217.128H130.059V226.253H139.185V217.128Z" fill="black"/>
<path d="M148.31 217.128H139.185V226.253H148.31V217.128Z" fill="black"/>
<path d="M175.687 217.128H166.561V226.253H175.687V217.128Z" fill="black"/>
<path d="M184.812 217.128H175.687V226.253H184.812V217.128Z" fill="black"/>
<path d="M193.937 217.128H184.812V226.253H193.937V217.128Z" fill="black"/>
<path d="M221.314 217.128H212.188V226.253H221.314V217.128Z" fill="black"/>
<path d="M257.816 217.128H248.69V226.253H257.816V217.128Z" fill="black"/>
<path d="M276.066 217.128H266.941V226.253H276.066V217.128Z" fill="black"/>
<path d="M285.192 217.128H276.066V226.253H285.192V217.128Z" fill="black"/>
<path d="M294.317 217.128H285.192V226.253H294.317V217.128Z" fill="black"/>
<path d="M38.8051 226.253H29.6797V235.379H38.8051V226.253Z" fill="black"/>
<path d="M47.9306 226.253H38.8051V235.379H47.9306V226.253Z" fill="black"/>
<path d="M57.056 226.253H47.9306V235.379H57.056V226.253Z" fill="black"/>
<path d="M66.1814 226.253H57.056V235.379H66.1814V226.253Z" fill="black"/>
<path d="M75.3069 226.253H66.1814V235.379H75.3069V226.253Z" fill="black"/>
<path d="M84.4323 226.253H75.3069V235.379H84.4323V226.253Z" fill="black"/>
<path d="M93.5577 226.253H84.4323V235.379H93.5577V226.253Z" fill="black"/>
<path d="M120.934 226.253H111.809V235.379H120.934V226.253Z" fill="black"/>
<path d="M130.059 226.253H120.934V235.379H130.059V226.253Z" fill="black"/>
<path d="M148.31 226.253H139.185V235.379H148.31V226.253Z" fill="black"/>
<path d="M166.561 226.253H157.436V235.379H166.561V226.253Z" fill="black"/>
<path d="M193.937 226.253H184.812V235.379H193.937V226.253Z" fill="black"/>
<path d="M203.063 226.253H193.937V235.379H203.063V226.253Z" fill="black"/>
<path d="M212.188 226.253H203.063V235.379H212.188V226.253Z" fill="black"/>
<path d="M221.314 226.253H212.188V235.379H221.314V226.253Z" fill="black"/>
<path d="M239.565 226.253H230.439V235.379H239.565V226.253Z" fill="black"/>
<path d="M257.816 226.253H248.69V235.379H257.816V226.253Z" fill="black"/>
<path d="M266.941 226.253H257.816V235.379H266.941V226.253Z" fill="black"/>
<path d="M285.192 226.253H276.066V235.379H285.192V226.253Z" fill="black"/>
<path d="M38.8051 235.379H29.6797V244.504H38.8051V235.379Z" fill="black"/>
<path d="M93.5577 235.379H84.4323V244.504H93.5577V235.379Z" fill="black"/>
<path d="M111.809 235.379H102.683V244.504H111.809V235.379Z" fill="black"/>
<path d="M130.059 235.379H120.934V244.504H130.059V235.379Z" fill="black"/>
<path d="M139.185 235.379H130.059V244.504H139.185V235.379Z" fill="black"/>
<path d="M166.561 235.379H157.436V244.504H166.561V235.379Z" fill="black"/>
<path d="M193.937 235.379H184.812V244.504H193.937V235.379Z" fill="black"/>
<path d="M203.063 235.379H193.937V244.504H203.063V235.379Z" fill="black"/>
<path d="M221.314 235.379H212.188V244.504H221.314V235.379Z" fill="black"/>
<path d="M257.816 235.379H248.69V244.504H257.816V235.379Z" fill="black"/>
<path d="M266.941 235.379H257.816V244.504H266.941V235.379Z" fill="black"/>
<path d="M285.192 235.379H276.066V244.504H285.192V235.379Z" fill="black"/>
<path d="M294.317 235.379H285.192V244.504H294.317V235.379Z" fill="black"/>
<path d="M38.8051 244.504H29.6797V253.629H38.8051V244.504Z" fill="black"/>
<path d="M57.056 244.504H47.9306V253.629H57.056V244.504Z" fill="black"/>
<path d="M66.1814 244.504H57.056V253.629H66.1814V244.504Z" fill="black"/>
<path d="M75.3069 244.504H66.1814V253.629H75.3069V244.504Z" fill="black"/>
<path d="M93.5577 244.504H84.4323V253.629H93.5577V244.504Z" fill="black"/>
<path d="M139.185 244.504H130.059V253.629H139.185V244.504Z" fill="black"/>
<path d="M166.561 244.504H157.436V253.629H166.561V244.504Z" fill="black"/>
<path d="M175.687 244.504H166.561V253.629H175.687V244.504Z" fill="black"/>
<path d="M203.063 244.504H193.937V253.629H203.063V244.504Z" fill="black"/>
<path d="M221.314 244.504H212.188V253.629H221.314V244.504Z" fill="black"/>
<path d="M230.439 244.504H221.314V253.629H230.439V244.504Z" fill="black"/>
<path d="M239.565 244.504H230.439V253.629H239.565V244.504Z" fill="black"/>
<path d="M248.69 244.504H239.565V253.629H248.69V244.504Z" fill="black"/>
<path d="M257.816 244.504H248.69V253.629H257.816V244.504Z" fill="black"/>
<path d="M266.941 244.504H257.816V253.629H266.941V244.504Z" fill="black"/>
<path d="M276.066 244.504H266.941V253.629H276.066V244.504Z" fill="black"/>
<path d="M285.192 244.504H276.066V253.629H285.192V244.504Z" fill="black"/>
<path d="M294.317 244.504H285.192V253.629H294.317V244.504Z" fill="black"/>
<path d="M38.8051 253.629H29.6797V262.755H38.8051V253.629Z" fill="black"/>
<path d="M57.056 253.629H47.9306V262.755H57.056V253.629Z" fill="black"/>
<path d="M66.1814 253.629H57.056V262.755H66.1814V253.629Z" fill="black"/>
<path d="M75.3069 253.629H66.1814V262.755H75.3069V253.629Z" fill="black"/>
<path d="M93.5577 253.629H84.4323V262.755H93.5577V253.629Z" fill="black"/>
<path d="M120.934 253.629H111.809V262.755H120.934V253.629Z" fill="black"/>
<path d="M130.059 253.629H120.934V262.755H130.059V253.629Z" fill="black"/>
<path d="M148.31 253.629H139.185V262.755H148.31V253.629Z" fill="black"/>
<path d="M166.561 253.629H157.436V262.755H166.561V253.629Z" fill="black"/>
<path d="M175.687 253.629H166.561V262.755H175.687V253.629Z" fill="black"/>
<path d="M193.937 253.629H184.812V262.755H193.937V253.629Z" fill="black"/>
<path d="M248.69 253.629H239.565V262.755H248.69V253.629Z" fill="black"/>
<path d="M266.941 253.629H257.816V262.755H266.941V253.629Z" fill="black"/>
<path d="M276.066 253.629H266.941V262.755H276.066V253.629Z" fill="black"/>
<path d="M38.8051 262.755H29.6797V271.88H38.8051V262.755Z" fill="black"/>
<path d="M57.056 262.755H47.9306V271.88H57.056V262.755Z" fill="black"/>
<path d="M66.1814 262.755H57.056V271.88H66.1814V262.755Z" fill="black"/>
<path d="M75.3069 262.755H66.1814V271.88H75.3069V262.755Z" fill="black"/>
<path d="M93.5577 262.755H84.4323V271.88H93.5577V262.755Z" fill="black"/>
<path d="M130.059 262.755H120.934V271.88H130.059V262.755Z" fill="black"/>
<path d="M139.185 262.755H130.059V271.88H139.185V262.755Z" fill="black"/>
<path d="M166.561 262.755H157.436V271.88H166.561V262.755Z" fill="black"/>
<path d="M221.314 262.755H212.188V271.88H221.314V262.755Z" fill="black"/>
<path d="M230.439 262.755H221.314V271.88H230.439V262.755Z" fill="black"/>
<path d="M248.69 262.755H239.565V271.88H248.69V262.755Z" fill="black"/>
<path d="M266.941 262.755H257.816V271.88H266.941V262.755Z" fill="black"/>
<path d="M276.066 262.755H266.941V271.88H276.066V262.755Z" fill="black"/>
<path d="M38.8051 271.88H29.6797V281.006H38.8051V271.88Z" fill="black"/>
<path d="M93.5577 271.88H84.4323V281.006H93.5577V271.88Z" fill="black"/>
<path d="M130.059 271.88H120.934V281.006H130.059V271.88Z" fill="black"/>
<path d="M139.185 271.88H130.059V281.006H139.185V271.88Z" fill="black"/>
<path d="M148.31 271.88H139.185V281.006H148.31V271.88Z" fill="black"/>
<path d="M166.561 271.88H157.436V281.006H166.561V271.88Z" fill="black"/>
<path d="M175.687 271.88H166.561V281.006H175.687V271.88Z" fill="black"/>
<path d="M184.812 271.88H175.687V281.006H184.812V271.88Z" fill="black"/>
<path d="M203.063 271.88H193.937V281.006H203.063V271.88Z" fill="black"/>
<path d="M212.188 271.88H203.063V281.006H212.188V271.88Z" fill="black"/>
<path d="M230.439 271.88H221.314V281.006H230.439V271.88Z" fill="black"/>
<path d="M239.565 271.88H230.439V281.006H239.565V271.88Z" fill="black"/>
<path d="M248.69 271.88H239.565V281.006H248.69V271.88Z" fill="black"/>
<path d="M257.816 271.88H248.69V281.006H257.816V271.88Z" fill="black"/>
<path d="M266.941 271.88H257.816V281.006H266.941V271.88Z" fill="black"/>
<path d="M285.192 271.88H276.066V281.006H285.192V271.88Z" fill="black"/>
<path d="M294.317 271.88H285.192V281.006H294.317V271.88Z" fill="black"/>
<path d="M38.8051 281.006H29.6797V290.131H38.8051V281.006Z" fill="black"/>
<path d="M47.9306 281.006H38.8051V290.131H47.9306V281.006Z" fill="black"/>
<path d="M57.056 281.006H47.9306V290.131H57.056V281.006Z" fill="black"/>
<path d="M66.1814 281.006H57.056V290.131H66.1814V281.006Z" fill="black"/>
<path d="M75.3069 281.006H66.1814V290.131H75.3069V281.006Z" fill="black"/>
<path d="M84.4323 281.006H75.3069V290.131H84.4323V281.006Z" fill="black"/>
<path d="M93.5577 281.006H84.4323V290.131H93.5577V281.006Z" fill="black"/>
<path d="M120.934 281.006H111.809V290.131H120.934V281.006Z" fill="black"/>
<path d="M148.31 281.006H139.185V290.131H148.31V281.006Z" fill="black"/>
<path d="M166.561 281.006H157.436V290.131H166.561V281.006Z" fill="black"/>
<path d="M193.937 281.006H184.812V290.131H193.937V281.006Z" fill="black"/>
<path d="M203.063 281.006H193.937V290.131H203.063V281.006Z" fill="black"/>
<path d="M212.188 281.006H203.063V290.131H212.188V281.006Z" fill="black"/>
<path d="M230.439 281.006H221.314V290.131H230.439V281.006Z" fill="black"/>
<path d="M257.816 281.006H248.69V290.131H257.816V281.006Z" fill="black"/>
<path d="M276.066 281.006H266.941V290.131H276.066V281.006Z" fill="black"/>
<rect x="125.818" y="121.634" width="72.3608" height="72.3608" rx="36.1804" fill="white"/>
<path d="M166.115 140.852L163.827 148.104H147.106L145.451 144.794C145.243 144.379 145.144 143.917 145.165 143.454C145.185 142.99 145.325 142.539 145.569 142.144C145.813 141.749 146.154 141.423 146.56 141.197C146.965 140.972 147.422 140.853 147.887 140.854L166.115 140.852Z" fill="#FCDE2F"/>
<path d="M157.41 168.725L159.226 162.969H169.197L164.302 172.756C164.076 173.208 163.728 173.589 163.297 173.855C162.867 174.12 162.371 174.261 161.865 174.261C161.359 174.261 160.863 174.12 160.433 173.855C160.002 173.589 159.654 173.208 159.428 172.756L157.41 168.725Z" fill="#FCDE2F"/>
<path d="M161.572 155.533L159.227 162.962H154.534L150.818 155.533H161.487L163.827 148.104H176.626L172.911 155.533H161.572Z" fill="#6584DB"/>
</g>
</g>
<defs>
<filter id="filter0_dd_10116_107349" x="0.559758" y="0.106671" width="322.877" height="322.877" filterUnits="userSpaceOnUse" color-interpolation-filters="sRGB">
<feFlood flood-opacity="0" result="BackgroundImageFix"/>
<feColorMatrix in="SourceAlpha" type="matrix" values="0 0 0 0 0 0 0 0 0 0 0 0 0 0 0 0 0 0 127 0" result="hardAlpha"/>
<feMorphology radius="1.8655" operator="erode" in="SourceAlpha" result="effect1_dropShadow_10116_107349"/>
<feOffset dy="1.8655"/>
<feGaussianBlur stdDeviation="1.8655"/>
<feColorMatrix type="matrix" values="0 0 0 0 0.0627451 0 0 0 0 0.0941176 0 0 0 0 0.156863 0 0 0 0.06 0"/>
<feBlend mode="normal" in2="BackgroundImageFix" result="effect1_dropShadow_10116_107349"/>
<feColorMatrix in="SourceAlpha" type="matrix" values="0 0 0 0 0 0 0 0 0 0 0 0 0 0 0 0 0 0 127 0" result="hardAlpha"/>
<feMorphology radius="1.8655" operator="erode" in="SourceAlpha" result="effect2_dropShadow_10116_107349"/>
<feOffset dy="3.73099"/>
<feGaussianBlur stdDeviation="3.73099"/>
<feColorMatrix type="matrix" values="0 0 0 0 0.0627451 0 0 0 0 0.0941176 0 0 0 0 0.156863 0 0 0 0.1 0"/>
<feBlend mode="normal" in2="effect1_dropShadow_10116_107349" result="effect2_dropShadow_10116_107349"/>
<feBlend mode="normal" in="SourceGraphic" in2="effect2_dropShadow_10116_107349" result="shape"/>
</filter>
<clipPath id="clip0_10116_107349">
<rect x="6.15625" y="1.97217" width="311.684" height="311.684" rx="22.386" fill="white"/>
</clipPath>
</defs>
</svg>
