<svg width="301" height="301" viewBox="0 0 301 301" fill="none" xmlns="http://www.w3.org/2000/svg">
<g clip-path="url(#clip0_7138_16191)">
<path d="M300.5 0.565186H0.5V300.565H300.5V0.565186Z" fill="white"/>
<path d="M31.9253 23.2051H23.142V31.9885H31.9253V23.2051Z" fill="black"/>
<path d="M40.7087 23.2051H31.9253V31.9885H40.7087V23.2051Z" fill="black"/>
<path d="M49.492 23.2051H40.7087V31.9885H49.492V23.2051Z" fill="black"/>
<path d="M58.2754 23.2051H49.492V31.9885H58.2754V23.2051Z" fill="black"/>
<path d="M67.0587 23.2051H58.2754V31.9885H67.0587V23.2051Z" fill="black"/>
<path d="M75.842 23.2051H67.0587V31.9885H75.842V23.2051Z" fill="black"/>
<path d="M84.6254 23.2051H75.842V31.9885H84.6254V23.2051Z" fill="black"/>
<path d="M102.192 23.2051H93.4087V31.9885H102.192V23.2051Z" fill="black"/>
<path d="M110.975 23.2051H102.192V31.9885H110.975V23.2051Z" fill="black"/>
<path d="M119.759 23.2051H110.975V31.9885H119.759V23.2051Z" fill="black"/>
<path d="M137.325 23.2051H128.542V31.9885H137.325V23.2051Z" fill="black"/>
<path d="M154.892 23.2051H146.109V31.9885H154.892V23.2051Z" fill="black"/>
<path d="M163.675 23.2051H154.892V31.9885H163.675V23.2051Z" fill="black"/>
<path d="M190.026 23.2051H181.242V31.9885H190.026V23.2051Z" fill="black"/>
<path d="M207.592 23.2051H198.809V31.9885H207.592V23.2051Z" fill="black"/>
<path d="M225.159 23.2051H216.376V31.9885H225.159V23.2051Z" fill="black"/>
<path d="M233.942 23.2051H225.159V31.9885H233.942V23.2051Z" fill="black"/>
<path d="M242.726 23.2051H233.942V31.9885H242.726V23.2051Z" fill="black"/>
<path d="M251.509 23.2051H242.726V31.9885H251.509V23.2051Z" fill="black"/>
<path d="M260.292 23.2051H251.509V31.9885H260.292V23.2051Z" fill="black"/>
<path d="M269.076 23.2051H260.292V31.9885H269.076V23.2051Z" fill="black"/>
<path d="M277.859 23.2051H269.076V31.9885H277.859V23.2051Z" fill="black"/>
<path d="M31.9253 31.9885H23.142V40.7718H31.9253V31.9885Z" fill="black"/>
<path d="M84.6254 31.9885H75.842V40.7718H84.6254V31.9885Z" fill="black"/>
<path d="M110.975 31.9885H102.192V40.7718H110.975V31.9885Z" fill="black"/>
<path d="M119.759 31.9885H110.975V40.7718H119.759V31.9885Z" fill="black"/>
<path d="M146.109 31.9885H137.325V40.7718H146.109V31.9885Z" fill="black"/>
<path d="M163.675 31.9885H154.892V40.7718H163.675V31.9885Z" fill="black"/>
<path d="M172.459 31.9885H163.675V40.7718H172.459V31.9885Z" fill="black"/>
<path d="M225.159 31.9885H216.376V40.7718H225.159V31.9885Z" fill="black"/>
<path d="M277.859 31.9885H269.076V40.7718H277.859V31.9885Z" fill="black"/>
<path d="M31.9253 40.7718H23.142V49.5552H31.9253V40.7718Z" fill="black"/>
<path d="M49.492 40.7718H40.7087V49.5552H49.492V40.7718Z" fill="black"/>
<path d="M58.2754 40.7718H49.492V49.5552H58.2754V40.7718Z" fill="black"/>
<path d="M67.0587 40.7718H58.2754V49.5552H67.0587V40.7718Z" fill="black"/>
<path d="M84.6254 40.7718H75.842V49.5552H84.6254V40.7718Z" fill="black"/>
<path d="M128.542 40.7718H119.759V49.5552H128.542V40.7718Z" fill="black"/>
<path d="M146.109 40.7718H137.325V49.5552H146.109V40.7718Z" fill="black"/>
<path d="M154.892 40.7718H146.109V49.5552H154.892V40.7718Z" fill="black"/>
<path d="M181.242 40.7718H172.459V49.5552H181.242V40.7718Z" fill="black"/>
<path d="M198.809 40.7718H190.026V49.5552H198.809V40.7718Z" fill="black"/>
<path d="M225.159 40.7718H216.376V49.5552H225.159V40.7718Z" fill="black"/>
<path d="M242.726 40.7718H233.942V49.5552H242.726V40.7718Z" fill="black"/>
<path d="M251.509 40.7718H242.726V49.5552H251.509V40.7718Z" fill="black"/>
<path d="M260.292 40.7718H251.509V49.5552H260.292V40.7718Z" fill="black"/>
<path d="M277.859 40.7718H269.076V49.5552H277.859V40.7718Z" fill="black"/>
<path d="M31.9253 49.5552H23.142V58.3385H31.9253V49.5552Z" fill="black"/>
<path d="M49.492 49.5552H40.7087V58.3385H49.492V49.5552Z" fill="black"/>
<path d="M58.2754 49.5552H49.492V58.3385H58.2754V49.5552Z" fill="black"/>
<path d="M67.0587 49.5552H58.2754V58.3385H67.0587V49.5552Z" fill="black"/>
<path d="M84.6254 49.5552H75.842V58.3385H84.6254V49.5552Z" fill="black"/>
<path d="M102.192 49.5552H93.4087V58.3385H102.192V49.5552Z" fill="black"/>
<path d="M110.975 49.5552H102.192V58.3385H110.975V49.5552Z" fill="black"/>
<path d="M128.542 49.5552H119.759V58.3385H128.542V49.5552Z" fill="black"/>
<path d="M137.325 49.5552H128.542V58.3385H137.325V49.5552Z" fill="black"/>
<path d="M146.109 49.5552H137.325V58.3385H146.109V49.5552Z" fill="black"/>
<path d="M181.242 49.5552H172.459V58.3385H181.242V49.5552Z" fill="black"/>
<path d="M198.809 49.5552H190.026V58.3385H198.809V49.5552Z" fill="black"/>
<path d="M225.159 49.5552H216.376V58.3385H225.159V49.5552Z" fill="black"/>
<path d="M242.726 49.5552H233.942V58.3385H242.726V49.5552Z" fill="black"/>
<path d="M251.509 49.5552H242.726V58.3385H251.509V49.5552Z" fill="black"/>
<path d="M260.292 49.5552H251.509V58.3385H260.292V49.5552Z" fill="black"/>
<path d="M277.859 49.5552H269.076V58.3385H277.859V49.5552Z" fill="black"/>
<path d="M31.9253 58.3385H23.142V67.1219H31.9253V58.3385Z" fill="black"/>
<path d="M49.492 58.3385H40.7087V67.1219H49.492V58.3385Z" fill="black"/>
<path d="M58.2754 58.3385H49.492V67.1219H58.2754V58.3385Z" fill="black"/>
<path d="M67.0587 58.3385H58.2754V67.1219H67.0587V58.3385Z" fill="black"/>
<path d="M84.6254 58.3385H75.842V67.1219H84.6254V58.3385Z" fill="black"/>
<path d="M137.325 58.3385H128.542V67.1219H137.325V58.3385Z" fill="black"/>
<path d="M154.892 58.3385H146.109V67.1219H154.892V58.3385Z" fill="black"/>
<path d="M172.459 58.3385H163.675V67.1219H172.459V58.3385Z" fill="black"/>
<path d="M181.242 58.3385H172.459V67.1219H181.242V58.3385Z" fill="black"/>
<path d="M207.592 58.3385H198.809V67.1219H207.592V58.3385Z" fill="black"/>
<path d="M225.159 58.3385H216.376V67.1219H225.159V58.3385Z" fill="black"/>
<path d="M242.726 58.3385H233.942V67.1219H242.726V58.3385Z" fill="black"/>
<path d="M251.509 58.3385H242.726V67.1219H251.509V58.3385Z" fill="black"/>
<path d="M260.292 58.3385H251.509V67.1219H260.292V58.3385Z" fill="black"/>
<path d="M277.859 58.3385H269.076V67.1219H277.859V58.3385Z" fill="black"/>
<path d="M31.9253 67.1219H23.142V75.9052H31.9253V67.1219Z" fill="black"/>
<path d="M84.6254 67.1219H75.842V75.9052H84.6254V67.1219Z" fill="black"/>
<path d="M102.192 67.1219H93.4087V75.9052H102.192V67.1219Z" fill="black"/>
<path d="M110.975 67.1219H102.192V75.9052H110.975V67.1219Z" fill="black"/>
<path d="M119.759 67.1219H110.975V75.9052H119.759V67.1219Z" fill="black"/>
<path d="M128.542 67.1219H119.759V75.9052H128.542V67.1219Z" fill="black"/>
<path d="M137.325 67.1219H128.542V75.9052H137.325V67.1219Z" fill="black"/>
<path d="M163.675 67.1219H154.892V75.9052H163.675V67.1219Z" fill="black"/>
<path d="M172.459 67.1219H163.675V75.9052H172.459V67.1219Z" fill="black"/>
<path d="M181.242 67.1219H172.459V75.9052H181.242V67.1219Z" fill="black"/>
<path d="M190.026 67.1219H181.242V75.9052H190.026V67.1219Z" fill="black"/>
<path d="M198.809 67.1219H190.026V75.9052H198.809V67.1219Z" fill="black"/>
<path d="M207.592 67.1219H198.809V75.9052H207.592V67.1219Z" fill="black"/>
<path d="M225.159 67.1219H216.376V75.9052H225.159V67.1219Z" fill="black"/>
<path d="M277.859 67.1219H269.076V75.9052H277.859V67.1219Z" fill="black"/>
<path d="M31.9253 75.9052H23.142V84.6885H31.9253V75.9052Z" fill="black"/>
<path d="M40.7087 75.9052H31.9253V84.6885H40.7087V75.9052Z" fill="black"/>
<path d="M49.492 75.9052H40.7087V84.6885H49.492V75.9052Z" fill="black"/>
<path d="M58.2754 75.9052H49.492V84.6885H58.2754V75.9052Z" fill="black"/>
<path d="M67.0587 75.9052H58.2754V84.6885H67.0587V75.9052Z" fill="black"/>
<path d="M75.842 75.9052H67.0587V84.6885H75.842V75.9052Z" fill="black"/>
<path d="M84.6254 75.9052H75.842V84.6885H84.6254V75.9052Z" fill="black"/>
<path d="M102.192 75.9052H93.4087V84.6885H102.192V75.9052Z" fill="black"/>
<path d="M119.759 75.9052H110.975V84.6885H119.759V75.9052Z" fill="black"/>
<path d="M137.325 75.9052H128.542V84.6885H137.325V75.9052Z" fill="black"/>
<path d="M154.892 75.9052H146.109V84.6885H154.892V75.9052Z" fill="black"/>
<path d="M172.459 75.9052H163.675V84.6885H172.459V75.9052Z" fill="black"/>
<path d="M190.026 75.9052H181.242V84.6885H190.026V75.9052Z" fill="black"/>
<path d="M207.592 75.9052H198.809V84.6885H207.592V75.9052Z" fill="black"/>
<path d="M225.159 75.9052H216.376V84.6885H225.159V75.9052Z" fill="black"/>
<path d="M233.942 75.9052H225.159V84.6885H233.942V75.9052Z" fill="black"/>
<path d="M242.726 75.9052H233.942V84.6885H242.726V75.9052Z" fill="black"/>
<path d="M251.509 75.9052H242.726V84.6885H251.509V75.9052Z" fill="black"/>
<path d="M260.292 75.9052H251.509V84.6885H260.292V75.9052Z" fill="black"/>
<path d="M269.076 75.9052H260.292V84.6885H269.076V75.9052Z" fill="black"/>
<path d="M277.859 75.9052H269.076V84.6885H277.859V75.9052Z" fill="black"/>
<path d="M119.759 84.6885H110.975V93.4719H119.759V84.6885Z" fill="black"/>
<path d="M137.325 84.6885H128.542V93.4719H137.325V84.6885Z" fill="black"/>
<path d="M163.675 84.6885H154.892V93.4719H163.675V84.6885Z" fill="black"/>
<path d="M172.459 84.6885H163.675V93.4719H172.459V84.6885Z" fill="black"/>
<path d="M190.026 84.6885H181.242V93.4719H190.026V84.6885Z" fill="black"/>
<path d="M75.842 93.4719H67.0587V102.255H75.842V93.4719Z" fill="black"/>
<path d="M84.6254 93.4719H75.842V102.255H84.6254V93.4719Z" fill="black"/>
<path d="M102.192 93.4719H93.4087V102.255H102.192V93.4719Z" fill="black"/>
<path d="M110.975 93.4719H102.192V102.255H110.975V93.4719Z" fill="black"/>
<path d="M128.542 93.4719H119.759V102.255H128.542V93.4719Z" fill="black"/>
<path d="M154.892 93.4719H146.109V102.255H154.892V93.4719Z" fill="black"/>
<path d="M163.675 93.4719H154.892V102.255H163.675V93.4719Z" fill="black"/>
<path d="M172.459 93.4719H163.675V102.255H172.459V93.4719Z" fill="black"/>
<path d="M181.242 93.4719H172.459V102.255H181.242V93.4719Z" fill="black"/>
<path d="M190.026 93.4719H181.242V102.255H190.026V93.4719Z" fill="black"/>
<path d="M207.592 93.4719H198.809V102.255H207.592V93.4719Z" fill="black"/>
<path d="M216.376 93.4719H207.592V102.255H216.376V93.4719Z" fill="black"/>
<path d="M233.942 93.4719H225.159V102.255H233.942V93.4719Z" fill="black"/>
<path d="M251.509 93.4719H242.726V102.255H251.509V93.4719Z" fill="black"/>
<path d="M277.859 93.4719H269.076V102.255H277.859V93.4719Z" fill="black"/>
<path d="M31.9253 102.255H23.142V111.039H31.9253V102.255Z" fill="black"/>
<path d="M40.7087 102.255H31.9253V111.039H40.7087V102.255Z" fill="black"/>
<path d="M49.492 102.255H40.7087V111.039H49.492V102.255Z" fill="black"/>
<path d="M67.0587 102.255H58.2754V111.039H67.0587V102.255Z" fill="black"/>
<path d="M93.4087 102.255H84.6254V111.039H93.4087V102.255Z" fill="black"/>
<path d="M102.192 102.255H93.4087V111.039H102.192V102.255Z" fill="black"/>
<path d="M110.975 102.255H102.192V111.039H110.975V102.255Z" fill="black"/>
<path d="M128.542 102.255H119.759V111.039H128.542V102.255Z" fill="black"/>
<path d="M163.675 102.255H154.892V111.039H163.675V102.255Z" fill="black"/>
<path d="M181.242 102.255H172.459V111.039H181.242V102.255Z" fill="black"/>
<path d="M198.809 102.255H190.026V111.039H198.809V102.255Z" fill="black"/>
<path d="M216.376 102.255H207.592V111.039H216.376V102.255Z" fill="black"/>
<path d="M225.159 102.255H216.376V111.039H225.159V102.255Z" fill="black"/>
<path d="M58.2754 111.039H49.492V119.822H58.2754V111.039Z" fill="black"/>
<path d="M67.0587 111.039H58.2754V119.822H67.0587V111.039Z" fill="black"/>
<path d="M75.842 111.039H67.0587V119.822H75.842V111.039Z" fill="black"/>
<path d="M84.6254 111.039H75.842V119.822H84.6254V111.039Z" fill="black"/>
<path d="M93.4087 111.039H84.6254V119.822H93.4087V111.039Z" fill="black"/>
<path d="M102.192 111.039H93.4087V119.822H102.192V111.039Z" fill="black"/>
<path d="M119.759 111.039H110.975V119.822H119.759V111.039Z" fill="black"/>
<path d="M137.325 111.039H128.542V119.822H137.325V111.039Z" fill="black"/>
<path d="M146.109 111.039H137.325V119.822H146.109V111.039Z" fill="black"/>
<path d="M163.675 111.039H154.892V119.822H163.675V111.039Z" fill="black"/>
<path d="M172.459 111.039H163.675V119.822H172.459V111.039Z" fill="black"/>
<path d="M181.242 111.039H172.459V119.822H181.242V111.039Z" fill="black"/>
<path d="M190.026 111.039H181.242V119.822H190.026V111.039Z" fill="black"/>
<path d="M207.592 111.039H198.809V119.822H207.592V111.039Z" fill="black"/>
<path d="M225.159 111.039H216.376V119.822H225.159V111.039Z" fill="black"/>
<path d="M233.942 111.039H225.159V119.822H233.942V111.039Z" fill="black"/>
<path d="M260.292 111.039H251.509V119.822H260.292V111.039Z" fill="black"/>
<path d="M31.9253 119.822H23.142V128.605H31.9253V119.822Z" fill="black"/>
<path d="M40.7087 119.822H31.9253V128.605H40.7087V119.822Z" fill="black"/>
<path d="M93.4087 119.822H84.6254V128.605H93.4087V119.822Z" fill="black"/>
<path d="M102.192 119.822H93.4087V128.605H102.192V119.822Z" fill="black"/>
<path d="M128.542 119.822H119.759V128.605H128.542V119.822Z" fill="black"/>
<path d="M154.892 119.822H146.109V128.605H154.892V119.822Z" fill="black"/>
<path d="M172.459 119.822H163.675V128.605H172.459V119.822Z" fill="black"/>
<path d="M181.242 119.822H172.459V128.605H181.242V119.822Z" fill="black"/>
<path d="M242.726 119.822H233.942V128.605H242.726V119.822Z" fill="black"/>
<path d="M269.076 119.822H260.292V128.605H269.076V119.822Z" fill="black"/>
<path d="M31.9253 128.605H23.142V137.389H31.9253V128.605Z" fill="black"/>
<path d="M84.6254 128.605H75.842V137.389H84.6254V128.605Z" fill="black"/>
<path d="M93.4087 128.605H84.6254V137.389H93.4087V128.605Z" fill="black"/>
<path d="M102.192 128.605H93.4087V137.389H102.192V128.605Z" fill="black"/>
<path d="M119.759 128.605H110.975V137.389H119.759V128.605Z" fill="black"/>
<path d="M172.459 128.605H163.675V137.389H172.459V128.605Z" fill="black"/>
<path d="M225.159 128.605H216.376V137.389H225.159V128.605Z" fill="black"/>
<path d="M233.942 128.605H225.159V137.389H233.942V128.605Z" fill="black"/>
<path d="M260.292 128.605H251.509V137.389H260.292V128.605Z" fill="black"/>
<path d="M269.076 128.605H260.292V137.389H269.076V128.605Z" fill="black"/>
<path d="M277.859 128.605H269.076V137.389H277.859V128.605Z" fill="black"/>
<path d="M31.9253 137.389H23.142V146.172H31.9253V137.389Z" fill="black"/>
<path d="M40.7087 137.389H31.9253V146.172H40.7087V137.389Z" fill="black"/>
<path d="M49.492 137.389H40.7087V146.172H49.492V137.389Z" fill="black"/>
<path d="M58.2754 137.389H49.492V146.172H58.2754V137.389Z" fill="black"/>
<path d="M67.0587 137.389H58.2754V146.172H67.0587V137.389Z" fill="black"/>
<path d="M75.842 137.389H67.0587V146.172H75.842V137.389Z" fill="black"/>
<path d="M163.675 137.389H154.892V146.172H163.675V137.389Z" fill="black"/>
<path d="M172.459 137.389H163.675V146.172H172.459V137.389Z" fill="black"/>
<path d="M190.026 137.389H181.242V146.172H190.026V137.389Z" fill="black"/>
<path d="M198.809 137.389H190.026V146.172H198.809V137.389Z" fill="black"/>
<path d="M216.376 137.389H207.592V146.172H216.376V137.389Z" fill="black"/>
<path d="M225.159 137.389H216.376V146.172H225.159V137.389Z" fill="black"/>
<path d="M233.942 137.389H225.159V146.172H233.942V137.389Z" fill="black"/>
<path d="M277.859 137.389H269.076V146.172H277.859V137.389Z" fill="black"/>
<path d="M31.9253 146.172H23.142V154.955H31.9253V146.172Z" fill="black"/>
<path d="M40.7087 146.172H31.9253V154.955H40.7087V146.172Z" fill="black"/>
<path d="M58.2754 146.172H49.492V154.955H58.2754V146.172Z" fill="black"/>
<path d="M67.0587 146.172H58.2754V154.955H67.0587V146.172Z" fill="black"/>
<path d="M75.842 146.172H67.0587V154.955H75.842V146.172Z" fill="black"/>
<path d="M84.6254 146.172H75.842V154.955H84.6254V146.172Z" fill="black"/>
<path d="M93.4087 146.172H84.6254V154.955H93.4087V146.172Z" fill="black"/>
<path d="M110.975 146.172H102.192V154.955H110.975V146.172Z" fill="black"/>
<path d="M128.542 146.172H119.759V154.955H128.542V146.172Z" fill="black"/>
<path d="M163.675 146.172H154.892V154.955H163.675V146.172Z" fill="black"/>
<path d="M172.459 146.172H163.675V154.955H172.459V146.172Z" fill="black"/>
<path d="M207.592 146.172H198.809V154.955H207.592V146.172Z" fill="black"/>
<path d="M225.159 146.172H216.376V154.955H225.159V146.172Z" fill="black"/>
<path d="M242.726 146.172H233.942V154.955H242.726V146.172Z" fill="black"/>
<path d="M251.509 146.172H242.726V154.955H251.509V146.172Z" fill="black"/>
<path d="M277.859 146.172H269.076V154.955H277.859V146.172Z" fill="black"/>
<path d="M40.7087 154.955H31.9253V163.739H40.7087V154.955Z" fill="black"/>
<path d="M67.0587 154.955H58.2754V163.739H67.0587V154.955Z" fill="black"/>
<path d="M75.842 154.955H67.0587V163.739H75.842V154.955Z" fill="black"/>
<path d="M93.4087 154.955H84.6254V163.739H93.4087V154.955Z" fill="black"/>
<path d="M102.192 154.955H93.4087V163.739H102.192V154.955Z" fill="black"/>
<path d="M128.542 154.955H119.759V163.739H128.542V154.955Z" fill="black"/>
<path d="M163.675 154.955H154.892V163.739H163.675V154.955Z" fill="black"/>
<path d="M172.459 154.955H163.675V163.739H172.459V154.955Z" fill="black"/>
<path d="M207.592 154.955H198.809V163.739H207.592V154.955Z" fill="black"/>
<path d="M233.942 154.955H225.159V163.739H233.942V154.955Z" fill="black"/>
<path d="M242.726 154.955H233.942V163.739H242.726V154.955Z" fill="black"/>
<path d="M269.076 154.955H260.292V163.739H269.076V154.955Z" fill="black"/>
<path d="M31.9253 163.739H23.142V172.522H31.9253V163.739Z" fill="black"/>
<path d="M40.7087 163.739H31.9253V172.522H40.7087V163.739Z" fill="black"/>
<path d="M67.0587 163.739H58.2754V172.522H67.0587V163.739Z" fill="black"/>
<path d="M75.842 163.739H67.0587V172.522H75.842V163.739Z" fill="black"/>
<path d="M84.6254 163.739H75.842V172.522H84.6254V163.739Z" fill="black"/>
<path d="M102.192 163.739H93.4087V172.522H102.192V163.739Z" fill="black"/>
<path d="M110.975 163.739H102.192V172.522H110.975V163.739Z" fill="black"/>
<path d="M128.542 163.739H119.759V172.522H128.542V163.739Z" fill="black"/>
<path d="M154.892 163.739H146.109V172.522H154.892V163.739Z" fill="black"/>
<path d="M181.242 163.739H172.459V172.522H181.242V163.739Z" fill="black"/>
<path d="M190.026 163.739H181.242V172.522H190.026V163.739Z" fill="black"/>
<path d="M207.592 163.739H198.809V172.522H207.592V163.739Z" fill="black"/>
<path d="M269.076 163.739H260.292V172.522H269.076V163.739Z" fill="black"/>
<path d="M49.492 172.522H40.7087V181.305H49.492V172.522Z" fill="black"/>
<path d="M67.0587 172.522H58.2754V181.305H67.0587V172.522Z" fill="black"/>
<path d="M75.842 172.522H67.0587V181.305H75.842V172.522Z" fill="black"/>
<path d="M93.4087 172.522H84.6254V181.305H93.4087V172.522Z" fill="black"/>
<path d="M137.325 172.522H128.542V181.305H137.325V172.522Z" fill="black"/>
<path d="M163.675 172.522H154.892V181.305H163.675V172.522Z" fill="black"/>
<path d="M172.459 172.522H163.675V181.305H172.459V172.522Z" fill="black"/>
<path d="M181.242 172.522H172.459V181.305H181.242V172.522Z" fill="black"/>
<path d="M198.809 172.522H190.026V181.305H198.809V172.522Z" fill="black"/>
<path d="M225.159 172.522H216.376V181.305H225.159V172.522Z" fill="black"/>
<path d="M242.726 172.522H233.942V181.305H242.726V172.522Z" fill="black"/>
<path d="M251.509 172.522H242.726V181.305H251.509V172.522Z" fill="black"/>
<path d="M260.292 172.522H251.509V181.305H260.292V172.522Z" fill="black"/>
<path d="M269.076 172.522H260.292V181.305H269.076V172.522Z" fill="black"/>
<path d="M277.859 172.522H269.076V181.305H277.859V172.522Z" fill="black"/>
<path d="M31.9253 181.305H23.142V190.089H31.9253V181.305Z" fill="black"/>
<path d="M58.2754 181.305H49.492V190.089H58.2754V181.305Z" fill="black"/>
<path d="M67.0587 181.305H58.2754V190.089H67.0587V181.305Z" fill="black"/>
<path d="M75.842 181.305H67.0587V190.089H75.842V181.305Z" fill="black"/>
<path d="M84.6254 181.305H75.842V190.089H84.6254V181.305Z" fill="black"/>
<path d="M93.4087 181.305H84.6254V190.089H93.4087V181.305Z" fill="black"/>
<path d="M128.542 181.305H119.759V190.089H128.542V181.305Z" fill="black"/>
<path d="M137.325 181.305H128.542V190.089H137.325V181.305Z" fill="black"/>
<path d="M163.675 181.305H154.892V190.089H163.675V181.305Z" fill="black"/>
<path d="M190.026 181.305H181.242V190.089H190.026V181.305Z" fill="black"/>
<path d="M198.809 181.305H190.026V190.089H198.809V181.305Z" fill="black"/>
<path d="M31.9253 190.089H23.142V198.872H31.9253V190.089Z" fill="black"/>
<path d="M49.492 190.089H40.7087V198.872H49.492V190.089Z" fill="black"/>
<path d="M75.842 190.089H67.0587V198.872H75.842V190.089Z" fill="black"/>
<path d="M93.4087 190.089H84.6254V198.872H93.4087V190.089Z" fill="black"/>
<path d="M119.759 190.089H110.975V198.872H119.759V190.089Z" fill="black"/>
<path d="M128.542 190.089H119.759V198.872H128.542V190.089Z" fill="black"/>
<path d="M146.109 190.089H137.325V198.872H146.109V190.089Z" fill="black"/>
<path d="M216.376 190.089H207.592V198.872H216.376V190.089Z" fill="black"/>
<path d="M251.509 190.089H242.726V198.872H251.509V190.089Z" fill="black"/>
<path d="M260.292 190.089H251.509V198.872H260.292V190.089Z" fill="black"/>
<path d="M269.076 190.089H260.292V198.872H269.076V190.089Z" fill="black"/>
<path d="M49.492 198.872H40.7087V207.655H49.492V198.872Z" fill="black"/>
<path d="M67.0587 198.872H58.2754V207.655H67.0587V198.872Z" fill="black"/>
<path d="M84.6254 198.872H75.842V207.655H84.6254V198.872Z" fill="black"/>
<path d="M102.192 198.872H93.4087V207.655H102.192V198.872Z" fill="black"/>
<path d="M110.975 198.872H102.192V207.655H110.975V198.872Z" fill="black"/>
<path d="M119.759 198.872H110.975V207.655H119.759V198.872Z" fill="black"/>
<path d="M146.109 198.872H137.325V207.655H146.109V198.872Z" fill="black"/>
<path d="M163.675 198.872H154.892V207.655H163.675V198.872Z" fill="black"/>
<path d="M172.459 198.872H163.675V207.655H172.459V198.872Z" fill="black"/>
<path d="M198.809 198.872H190.026V207.655H198.809V198.872Z" fill="black"/>
<path d="M207.592 198.872H198.809V207.655H207.592V198.872Z" fill="black"/>
<path d="M216.376 198.872H207.592V207.655H216.376V198.872Z" fill="black"/>
<path d="M225.159 198.872H216.376V207.655H225.159V198.872Z" fill="black"/>
<path d="M233.942 198.872H225.159V207.655H233.942V198.872Z" fill="black"/>
<path d="M242.726 198.872H233.942V207.655H242.726V198.872Z" fill="black"/>
<path d="M260.292 198.872H251.509V207.655H260.292V198.872Z" fill="black"/>
<path d="M269.076 198.872H260.292V207.655H269.076V198.872Z" fill="black"/>
<path d="M277.859 198.872H269.076V207.655H277.859V198.872Z" fill="black"/>
<path d="M102.192 207.655H93.4087V216.439H102.192V207.655Z" fill="black"/>
<path d="M128.542 207.655H119.759V216.439H128.542V207.655Z" fill="black"/>
<path d="M137.325 207.655H128.542V216.439H137.325V207.655Z" fill="black"/>
<path d="M163.675 207.655H154.892V216.439H163.675V207.655Z" fill="black"/>
<path d="M172.459 207.655H163.675V216.439H172.459V207.655Z" fill="black"/>
<path d="M181.242 207.655H172.459V216.439H181.242V207.655Z" fill="black"/>
<path d="M207.592 207.655H198.809V216.439H207.592V207.655Z" fill="black"/>
<path d="M242.726 207.655H233.942V216.439H242.726V207.655Z" fill="black"/>
<path d="M260.292 207.655H251.509V216.439H260.292V207.655Z" fill="black"/>
<path d="M269.076 207.655H260.292V216.439H269.076V207.655Z" fill="black"/>
<path d="M277.859 207.655H269.076V216.439H277.859V207.655Z" fill="black"/>
<path d="M31.9253 216.439H23.142V225.222H31.9253V216.439Z" fill="black"/>
<path d="M40.7087 216.439H31.9253V225.222H40.7087V216.439Z" fill="black"/>
<path d="M49.492 216.439H40.7087V225.222H49.492V216.439Z" fill="black"/>
<path d="M58.2754 216.439H49.492V225.222H58.2754V216.439Z" fill="black"/>
<path d="M67.0587 216.439H58.2754V225.222H67.0587V216.439Z" fill="black"/>
<path d="M75.842 216.439H67.0587V225.222H75.842V216.439Z" fill="black"/>
<path d="M84.6254 216.439H75.842V225.222H84.6254V216.439Z" fill="black"/>
<path d="M110.975 216.439H102.192V225.222H110.975V216.439Z" fill="black"/>
<path d="M119.759 216.439H110.975V225.222H119.759V216.439Z" fill="black"/>
<path d="M137.325 216.439H128.542V225.222H137.325V216.439Z" fill="black"/>
<path d="M154.892 216.439H146.109V225.222H154.892V216.439Z" fill="black"/>
<path d="M181.242 216.439H172.459V225.222H181.242V216.439Z" fill="black"/>
<path d="M190.026 216.439H181.242V225.222H190.026V216.439Z" fill="black"/>
<path d="M198.809 216.439H190.026V225.222H198.809V216.439Z" fill="black"/>
<path d="M207.592 216.439H198.809V225.222H207.592V216.439Z" fill="black"/>
<path d="M225.159 216.439H216.376V225.222H225.159V216.439Z" fill="black"/>
<path d="M242.726 216.439H233.942V225.222H242.726V216.439Z" fill="black"/>
<path d="M251.509 216.439H242.726V225.222H251.509V216.439Z" fill="black"/>
<path d="M269.076 216.439H260.292V225.222H269.076V216.439Z" fill="black"/>
<path d="M31.9253 225.222H23.142V234.005H31.9253V225.222Z" fill="black"/>
<path d="M84.6254 225.222H75.842V234.005H84.6254V225.222Z" fill="black"/>
<path d="M102.192 225.222H93.4087V234.005H102.192V225.222Z" fill="black"/>
<path d="M119.759 225.222H110.975V234.005H119.759V225.222Z" fill="black"/>
<path d="M128.542 225.222H119.759V234.005H128.542V225.222Z" fill="black"/>
<path d="M154.892 225.222H146.109V234.005H154.892V225.222Z" fill="black"/>
<path d="M181.242 225.222H172.459V234.005H181.242V225.222Z" fill="black"/>
<path d="M190.026 225.222H181.242V234.005H190.026V225.222Z" fill="black"/>
<path d="M207.592 225.222H198.809V234.005H207.592V225.222Z" fill="black"/>
<path d="M242.726 225.222H233.942V234.005H242.726V225.222Z" fill="black"/>
<path d="M251.509 225.222H242.726V234.005H251.509V225.222Z" fill="black"/>
<path d="M269.076 225.222H260.292V234.005H269.076V225.222Z" fill="black"/>
<path d="M277.859 225.222H269.076V234.005H277.859V225.222Z" fill="black"/>
<path d="M31.9253 234.005H23.142V242.789H31.9253V234.005Z" fill="black"/>
<path d="M49.492 234.005H40.7087V242.789H49.492V234.005Z" fill="black"/>
<path d="M58.2754 234.005H49.492V242.789H58.2754V234.005Z" fill="black"/>
<path d="M67.0587 234.005H58.2754V242.789H67.0587V234.005Z" fill="black"/>
<path d="M84.6254 234.005H75.842V242.789H84.6254V234.005Z" fill="black"/>
<path d="M128.542 234.005H119.759V242.789H128.542V234.005Z" fill="black"/>
<path d="M154.892 234.005H146.109V242.789H154.892V234.005Z" fill="black"/>
<path d="M163.675 234.005H154.892V242.789H163.675V234.005Z" fill="black"/>
<path d="M190.026 234.005H181.242V242.789H190.026V234.005Z" fill="black"/>
<path d="M207.592 234.005H198.809V242.789H207.592V234.005Z" fill="black"/>
<path d="M216.376 234.005H207.592V242.789H216.376V234.005Z" fill="black"/>
<path d="M225.159 234.005H216.376V242.789H225.159V234.005Z" fill="black"/>
<path d="M233.942 234.005H225.159V242.789H233.942V234.005Z" fill="black"/>
<path d="M242.726 234.005H233.942V242.789H242.726V234.005Z" fill="black"/>
<path d="M251.509 234.005H242.726V242.789H251.509V234.005Z" fill="black"/>
<path d="M260.292 234.005H251.509V242.789H260.292V234.005Z" fill="black"/>
<path d="M269.076 234.005H260.292V242.789H269.076V234.005Z" fill="black"/>
<path d="M277.859 234.005H269.076V242.789H277.859V234.005Z" fill="black"/>
<path d="M31.9253 242.789H23.142V251.572H31.9253V242.789Z" fill="black"/>
<path d="M49.492 242.789H40.7087V251.572H49.492V242.789Z" fill="black"/>
<path d="M58.2754 242.789H49.492V251.572H58.2754V242.789Z" fill="black"/>
<path d="M67.0587 242.789H58.2754V251.572H67.0587V242.789Z" fill="black"/>
<path d="M84.6254 242.789H75.842V251.572H84.6254V242.789Z" fill="black"/>
<path d="M110.975 242.789H102.192V251.572H110.975V242.789Z" fill="black"/>
<path d="M119.759 242.789H110.975V251.572H119.759V242.789Z" fill="black"/>
<path d="M137.325 242.789H128.542V251.572H137.325V242.789Z" fill="black"/>
<path d="M154.892 242.789H146.109V251.572H154.892V242.789Z" fill="black"/>
<path d="M163.675 242.789H154.892V251.572H163.675V242.789Z" fill="black"/>
<path d="M181.242 242.789H172.459V251.572H181.242V242.789Z" fill="black"/>
<path d="M233.942 242.789H225.159V251.572H233.942V242.789Z" fill="black"/>
<path d="M251.509 242.789H242.726V251.572H251.509V242.789Z" fill="black"/>
<path d="M260.292 242.789H251.509V251.572H260.292V242.789Z" fill="black"/>
<path d="M31.9253 251.572H23.142V260.355H31.9253V251.572Z" fill="black"/>
<path d="M49.492 251.572H40.7087V260.355H49.492V251.572Z" fill="black"/>
<path d="M58.2754 251.572H49.492V260.355H58.2754V251.572Z" fill="black"/>
<path d="M67.0587 251.572H58.2754V260.355H67.0587V251.572Z" fill="black"/>
<path d="M84.6254 251.572H75.842V260.355H84.6254V251.572Z" fill="black"/>
<path d="M119.759 251.572H110.975V260.355H119.759V251.572Z" fill="black"/>
<path d="M128.542 251.572H119.759V260.355H128.542V251.572Z" fill="black"/>
<path d="M154.892 251.572H146.109V260.355H154.892V251.572Z" fill="black"/>
<path d="M207.592 251.572H198.809V260.355H207.592V251.572Z" fill="black"/>
<path d="M216.376 251.572H207.592V260.355H216.376V251.572Z" fill="black"/>
<path d="M233.942 251.572H225.159V260.355H233.942V251.572Z" fill="black"/>
<path d="M251.509 251.572H242.726V260.355H251.509V251.572Z" fill="black"/>
<path d="M260.292 251.572H251.509V260.355H260.292V251.572Z" fill="black"/>
<path d="M31.9253 260.355H23.142V269.139H31.9253V260.355Z" fill="black"/>
<path d="M84.6254 260.355H75.842V269.139H84.6254V260.355Z" fill="black"/>
<path d="M119.759 260.355H110.975V269.139H119.759V260.355Z" fill="black"/>
<path d="M128.542 260.355H119.759V269.139H128.542V260.355Z" fill="black"/>
<path d="M137.325 260.355H128.542V269.139H137.325V260.355Z" fill="black"/>
<path d="M154.892 260.355H146.109V269.139H154.892V260.355Z" fill="black"/>
<path d="M163.675 260.355H154.892V269.139H163.675V260.355Z" fill="black"/>
<path d="M172.459 260.355H163.675V269.139H172.459V260.355Z" fill="black"/>
<path d="M190.026 260.355H181.242V269.139H190.026V260.355Z" fill="black"/>
<path d="M198.809 260.355H190.026V269.139H198.809V260.355Z" fill="black"/>
<path d="M216.376 260.355H207.592V269.139H216.376V260.355Z" fill="black"/>
<path d="M225.159 260.355H216.376V269.139H225.159V260.355Z" fill="black"/>
<path d="M233.942 260.355H225.159V269.139H233.942V260.355Z" fill="black"/>
<path d="M242.726 260.355H233.942V269.139H242.726V260.355Z" fill="black"/>
<path d="M251.509 260.355H242.726V269.139H251.509V260.355Z" fill="black"/>
<path d="M269.076 260.355H260.292V269.139H269.076V260.355Z" fill="black"/>
<path d="M277.859 260.355H269.076V269.139H277.859V260.355Z" fill="black"/>
<path d="M31.9253 269.139H23.142V277.922H31.9253V269.139Z" fill="black"/>
<path d="M40.7087 269.139H31.9253V277.922H40.7087V269.139Z" fill="black"/>
<path d="M49.492 269.139H40.7087V277.922H49.492V269.139Z" fill="black"/>
<path d="M58.2754 269.139H49.492V277.922H58.2754V269.139Z" fill="black"/>
<path d="M67.0587 269.139H58.2754V277.922H67.0587V269.139Z" fill="black"/>
<path d="M75.842 269.139H67.0587V277.922H75.842V269.139Z" fill="black"/>
<path d="M84.6254 269.139H75.842V277.922H84.6254V269.139Z" fill="black"/>
<path d="M110.975 269.139H102.192V277.922H110.975V269.139Z" fill="black"/>
<path d="M137.325 269.139H128.542V277.922H137.325V269.139Z" fill="black"/>
<path d="M154.892 269.139H146.109V277.922H154.892V269.139Z" fill="black"/>
<path d="M181.242 269.139H172.459V277.922H181.242V269.139Z" fill="black"/>
<path d="M190.026 269.139H181.242V277.922H190.026V269.139Z" fill="black"/>
<path d="M198.809 269.139H190.026V277.922H198.809V269.139Z" fill="black"/>
<path d="M216.376 269.139H207.592V277.922H216.376V269.139Z" fill="black"/>
<path d="M242.726 269.139H233.942V277.922H242.726V269.139Z" fill="black"/>
<path d="M260.292 269.139H251.509V277.922H260.292V269.139Z" fill="black"/>
<rect x="115.676" y="115.741" width="69.6482" height="69.6482" rx="34.8241" fill="white"/>
<path d="M154.667 134.487L152.465 141.467H136.371L134.778 138.281C134.577 137.882 134.483 137.438 134.503 136.991C134.522 136.545 134.656 136.111 134.891 135.731C135.126 135.35 135.455 135.037 135.845 134.819C136.236 134.602 136.675 134.488 137.122 134.489L154.667 134.487Z" fill="#FCDE2F"/>
<path d="M146.29 161.316L148.038 155.775H157.635L152.924 165.195C152.706 165.63 152.371 165.997 151.956 166.252C151.542 166.508 151.065 166.644 150.578 166.644C150.091 166.644 149.614 166.508 149.199 166.252C148.785 165.997 148.45 165.63 148.232 165.195L146.29 161.316Z" fill="#FCDE2F"/>
<path d="M150.295 148.617L148.038 155.768H143.521L139.945 148.617H150.213L152.465 141.467H164.785L161.209 148.617H150.295Z" fill="#6584DB"/>
</g>
<defs>
<clipPath id="clip0_7138_16191">
<rect x="0.5" y="0.565186" width="300" height="300" rx="14" fill="white"/>
</clipPath>
</defs>
</svg>
