<svg preserveAspectRatio="none" width="100%" height="100%" overflow="visible" style="display: block;" viewBox="0 0 52 52" fill="none" xmlns="http://www.w3.org/2000/svg">
<g id="Group">
<g id="Vector">
</g>
<path id="Vector_2" d="M26 4.33333C37.9665 4.33333 47.6667 14.0335 47.6667 26C47.6667 37.9665 37.9665 47.6667 26 47.6667C14.0335 47.6667 4.33333 37.9665 4.33333 26C4.33333 14.0335 14.0335 4.33333 26 4.33333ZM26 8.66667C21.4029 8.66667 16.9941 10.4929 13.7435 13.7435C10.4929 16.9941 8.66667 21.4029 8.66667 26C8.66667 30.5971 10.4929 35.0059 13.7435 38.2565C16.9941 41.5072 21.4029 43.3333 26 43.3333C30.5971 43.3333 35.0059 41.5072 38.2565 38.2565C41.5072 35.0059 43.3333 30.5971 43.3333 26C43.3333 21.4029 41.5072 16.9941 38.2565 13.7435C35.0059 10.4929 30.5971 8.66667 26 8.66667ZM26 34.6667C26.5746 34.6667 27.1257 34.8949 27.5321 35.3013C27.9384 35.7076 28.1667 36.2587 28.1667 36.8333C28.1667 37.408 27.9384 37.9591 27.5321 38.3654C27.1257 38.7717 26.5746 39 26 39C25.4254 39 24.8743 38.7717 24.4679 38.3654C24.0616 37.9591 23.8333 37.408 23.8333 36.8333C23.8333 36.2587 24.0616 35.7076 24.4679 35.3013C24.8743 34.8949 25.4254 34.6667 26 34.6667ZM26 14.0833C27.8249 14.0834 29.5929 14.7189 31.0002 15.8808C32.4075 17.0427 33.3663 18.6583 33.7118 20.4503C34.0574 22.2422 33.7682 24.0985 32.8939 25.7004C32.0196 27.3022 30.6147 28.5497 28.9207 29.2283C28.671 29.3231 28.4454 29.4718 28.2598 29.6638C28.1645 29.7722 28.1493 29.9108 28.1515 30.0538L28.1667 30.3333C28.1661 30.8856 27.9546 31.4167 27.5755 31.8183C27.1964 32.2199 26.6783 32.4615 26.127 32.4939C25.5757 32.5262 25.0328 32.3469 24.6094 31.9924C24.1859 31.638 23.9137 31.1352 23.8485 30.5868L23.8333 30.3333V29.7917C23.8333 27.2935 25.8483 25.7942 27.3087 25.207C27.903 24.9697 28.4215 24.5749 28.8084 24.0651C29.1953 23.5554 29.4361 22.9498 29.5048 22.3135C29.5735 21.6773 29.4676 21.0343 29.1985 20.4536C28.9293 19.873 28.5071 19.3766 27.9772 19.0179C27.4472 18.6591 26.8295 18.4515 26.1905 18.4173C25.5514 18.383 24.9151 18.5236 24.3499 18.8237C23.7846 19.1239 23.3118 19.5723 22.9823 20.1209C22.6527 20.6695 22.4788 21.2975 22.4792 21.9375C22.4792 22.5121 22.2509 23.0632 21.8446 23.4696C21.4382 23.8759 20.8871 24.1042 20.3125 24.1042C19.7379 24.1042 19.1868 23.8759 18.7804 23.4696C18.3741 23.0632 18.1458 22.5121 18.1458 21.9375C18.1458 19.8544 18.9733 17.8567 20.4463 16.3838C21.9192 14.9108 23.9169 14.0833 26 14.0833Z" fill="var(--fill-0, white)"/>
</g>
</svg>
