<svg width="30" height="31" viewBox="0 0 30 31" fill="none" xmlns="http://www.w3.org/2000/svg">
<path d="M1.53627 10.2144C1.53627 9.49995 1.69865 8.86667 2.02341 8.31457C2.3157 7.79496 2.70541 7.35653 3.19255 6.99929C3.6797 6.64205 4.21555 6.366 4.80012 6.17115C5.35222 6.00877 5.87184 5.92758 6.35898 5.92758C7.10593 5.92758 7.86912 6.08996 8.64855 6.41472C9.3955 6.77196 10.0775 7.27534 10.6945 7.92486C11.3116 8.57438 11.815 9.35381 12.2047 10.2631C12.5944 11.1725 12.7893 12.1792 12.7893 13.2834C12.7893 15.1995 12.432 16.8396 11.7175 18.2036C10.9706 19.5676 10.0937 20.7042 9.08698 21.6136C8.04774 22.5554 6.99226 23.2861 5.92055 23.8057C4.81636 24.3578 3.90703 24.7475 3.19255 24.9748V23.416C3.84208 23.0263 4.54032 22.6041 5.28727 22.1494C6.00174 21.6947 6.6675 21.1589 7.28455 20.5418C7.86912 19.9248 8.35626 19.2266 8.74598 18.4471C9.13569 17.6677 9.33055 16.7908 9.33055 15.8166C9.33055 15.3294 9.28183 14.9397 9.1844 14.6474C9.08697 14.3551 8.97331 14.1278 8.8434 13.9654C8.68102 13.803 8.53488 13.6894 8.40498 13.6244C8.24259 13.5595 8.11269 13.527 8.01526 13.527C7.65802 13.527 7.21959 13.6244 6.69998 13.8193C6.18036 14.0466 5.69322 14.1603 5.23855 14.1603C4.81636 14.1603 4.39417 14.0629 3.97198 13.868C3.51731 13.7056 3.11136 13.4458 2.75413 13.0886C2.39689 12.7638 2.1046 12.3579 1.87727 11.8707C1.64994 11.3836 1.53627 10.8315 1.53627 10.2144ZM16.729 10.3119C16.729 9.59738 16.8914 8.9641 17.2162 8.412C17.5084 7.85991 17.8982 7.40524 18.3853 7.048C18.8724 6.72324 19.4083 6.46343 19.9929 6.26858C20.545 6.1062 21.0808 6.02501 21.6004 6.02501C22.3474 6.02501 23.0943 6.18739 23.8413 6.51215C24.5882 6.86939 25.2702 7.35653 25.8873 7.97358C26.5043 8.6231 27.0077 9.40252 27.3974 10.3119C27.7547 11.2212 27.9333 12.228 27.9333 13.3321C27.9333 15.2482 27.5761 16.8883 26.8616 18.2523C26.1146 19.6487 25.2378 20.8017 24.231 21.711C23.1918 22.6528 22.1363 23.3835 21.0646 23.9031C19.9929 24.4552 19.0998 24.8449 18.3853 25.0723V23.4647C19.0348 23.075 19.7331 22.6528 20.48 22.1981C21.1945 21.7435 21.8602 21.2076 22.4773 20.5906C23.0619 19.9735 23.5652 19.2753 23.9874 18.4958C24.3772 17.7489 24.572 16.872 24.572 15.8653C24.572 14.9559 24.3934 14.3551 24.0362 14.0629C23.6464 13.7706 23.3542 13.6244 23.1593 13.6244C22.8345 13.6244 22.4123 13.7219 21.8927 13.9167C21.3731 14.1116 20.886 14.209 20.4313 14.209C20.0091 14.209 19.5869 14.1116 19.1647 13.9167C18.7101 13.7543 18.3041 13.4945 17.9469 13.1373C17.5896 12.8125 17.2974 12.4066 17.07 11.9194C16.8427 11.4648 16.729 10.9289 16.729 10.3119Z" fill="#B9B9BB"/>
</svg>
