<svg width="46" height="42" viewBox="0 0 46 42" fill="none" xmlns="http://www.w3.org/2000/svg">
<path fill-rule="evenodd" clip-rule="evenodd" d="M22.8351 6.22556C22.862 6.16585 22.9003 6.10999 22.9483 6.06569C23.4681 5.31643 23.8651 4.54789 23.8651 3.95267C23.8651 2.29039 22.5225 0.942062 20.8671 0.942062C19.2118 0.942062 17.8691 2.28846 17.8691 3.95267C17.8691 4.68078 18.4637 5.66889 19.1485 6.56263C19.1945 6.60308 19.2329 6.65124 19.2598 6.70709C19.8524 7.46212 20.4912 8.13821 20.8652 8.51577C21.3179 8.05927 22.158 7.16742 22.8351 6.22556ZM24.0934 5.97323C25.2193 6.04257 26.3184 6.21785 27.3791 6.49138C27.4002 6.49523 27.4232 6.50101 27.4443 6.50871C29.9436 7.16167 32.228 8.35014 34.167 9.94693C36.3038 10.0567 38.243 10.3996 39.9023 10.9601L42.7124 10.571C43.0749 10.519 43.353 10.885 43.211 11.2201L42.743 12.3181C46.0518 14.5119 46.8746 17.9985 45.0505 21.7619C44.0799 23.7651 42.3939 25.7991 40.1497 27.7096C39.3863 30.9571 37.7329 33.858 35.46 36.1406C32.2721 39.3419 27.8661 41.322 23.002 41.322C18.763 41.322 14.8749 39.8177 11.8349 37.3137C10.7147 37.2559 9.64825 37.1346 8.64698 36.9516C7.63422 36.7647 6.69051 36.5163 5.82928 36.2081L2.99052 36.4527V36.4508C2.63375 36.4797 2.37098 36.106 2.53209 35.7766L3.01929 34.7789C1.77442 33.8967 0.811557 32.7564 0.328183 31.3176C-0.745953 28.1221 0.872936 24.3817 4.36001 20.9182C4.82419 20.4559 5.32288 19.9994 5.85423 19.5487C6.4469 17.035 7.57284 14.7275 9.10541 12.7533C11.3822 9.82555 14.5146 7.67984 18.0668 6.64138C17.4338 5.72644 16.9274 4.74798 16.9274 3.95247C16.9274 1.77012 18.6901 0 20.8634 0C23.0366 0 24.7993 1.77012 24.7993 3.95247C24.8031 4.55538 24.5115 5.26633 24.0934 5.97323ZM18.8398 7.65864C19.7049 8.71801 20.5373 9.5116 20.545 9.51737C20.7253 9.6888 21.0092 9.69072 21.1914 9.51737C21.1972 9.51159 22.4612 8.30775 23.4931 6.88433C24.5539 6.91515 25.5915 7.0442 26.5947 7.26571C25.8582 8.41946 25.6836 9.5309 25.7431 10.5671C24.176 10.8561 22.5686 11.2413 20.944 11.7248C20.5642 11.5225 20.171 11.3781 19.8008 11.2413C18.6615 10.8233 17.7715 10.4959 18.836 7.67983C18.8341 7.67405 18.8379 7.66634 18.8398 7.65864ZM20.8653 4.91386H20.8557V4.91579C20.0098 4.91579 19.1889 4.34951 19.2023 3.53857H19.2004C19.2004 2.8471 19.7701 2.34818 20.4261 2.20183L20.428 2.04774C20.4357 1.42944 21.3698 1.44098 21.3621 2.05929L21.3602 2.21532C21.9835 2.37711 22.5225 2.86635 22.5283 3.5309C22.534 4.14919 21.598 4.15689 21.5942 3.5386C21.5904 3.17841 20.7809 2.90295 20.3014 3.26702C20.1978 3.34599 20.1384 3.44037 20.1384 3.5386H20.1364C20.1403 3.80056 20.5373 3.97391 20.8557 3.97391V3.97584H20.8749L20.8768 3.97199C21.7208 3.97199 22.5436 4.53826 22.5302 5.34921H22.5321C22.5321 6.04068 21.9624 6.5396 21.3065 6.68595L21.3046 6.84004C21.2969 7.45833 20.3628 7.4468 20.3705 6.82848L20.3724 6.67246C19.749 6.51067 19.21 6.02143 19.2043 5.35688C19.1985 4.73858 20.1345 4.73089 20.1384 5.34917C20.1422 5.70937 20.9516 5.98483 21.4311 5.62076C21.5347 5.54179 21.5942 5.44741 21.5942 5.34917H21.5961C21.5923 5.08722 21.1952 4.91386 20.8768 4.91386V4.91194L20.8653 4.91386ZM19.5591 24.8478C17.3859 24.8478 15.6232 26.6179 15.6232 28.8003C15.6232 29.3107 15.8322 29.8982 16.1487 30.4953C14.4608 30.8073 13.5209 31.337 13.1219 31.9226C11.9768 33.6061 14.7389 35.5129 17.4626 35.0487C18.6269 36.1235 20.2879 37.2715 21.7073 36.9229C22.9694 36.6128 23.4604 35.2991 23.5947 33.9662C23.7098 32.8355 23.3972 31.8108 22.6222 31.0885C23.1248 30.295 23.495 29.4802 23.495 28.7984C23.4969 26.6179 21.7342 24.8478 19.5591 24.8478ZM22.0814 31.8744C21.0705 33.2343 19.889 34.3611 19.8832 34.3669C19.701 34.5403 19.4171 34.5383 19.2368 34.3669C19.2311 34.3611 17.7369 32.9396 16.6723 31.3601C14.8961 31.6317 12.9109 32.3348 14.244 33.4231C14.9518 34.0028 16.2542 34.363 17.4932 34.0857C17.6448 34.0472 17.8097 34.0857 17.9306 34.2013C18.9529 35.1778 21.3083 37.0597 22.2578 35.3724C22.4573 35.018 22.5973 34.521 22.6625 33.8719C22.7431 33.0937 22.5686 32.3926 22.0814 31.8744ZM21.6786 26.6718C20.5085 25.4968 18.6096 25.4968 17.4396 26.6718C16.8967 27.2169 16.5611 27.97 16.5611 28.8002C16.5611 29.2914 16.8315 29.9 17.217 30.5183C17.265 30.5665 17.3034 30.6243 17.3283 30.6917C18.0341 31.7684 19.0469 32.8451 19.5591 33.3633C20.3244 32.587 22.5571 30.2102 22.5571 28.7983C22.5571 27.97 22.2214 27.2169 21.6786 26.6718ZM19.5591 29.7613H19.5687V29.7633C19.8871 29.7633 20.2841 29.9366 20.2879 30.1986H20.286C20.286 30.2987 20.2266 30.3912 20.123 30.4702C19.6435 30.8342 18.834 30.5607 18.8302 30.1986C18.8244 29.5803 17.8903 29.588 17.8961 30.2063C17.9018 30.8708 18.4408 31.36 19.0642 31.5219L19.0623 31.6779C19.0546 32.2962 19.9906 32.3077 19.9964 31.6894L19.9983 31.5353C20.6562 31.387 21.224 30.8901 21.224 30.1986H21.2221C21.2336 29.3877 20.4126 28.8214 19.5686 28.8214V28.8233H19.5495V28.8214C19.2311 28.8214 18.834 28.648 18.8302 28.3861H18.8321C18.8321 28.2859 18.8916 28.1935 18.9952 28.1145C19.4747 27.7504 20.2841 28.024 20.2879 28.3861C20.2937 29.0044 21.2278 28.9967 21.222 28.3784C21.2163 27.7138 20.6773 27.2246 20.0539 27.0628L20.0558 26.9068C20.0635 26.2885 19.1294 26.2769 19.1217 26.8952L19.1198 27.0493C18.4619 27.1976 17.8942 27.6946 17.8942 28.386H17.8961C17.8846 29.1969 18.7055 29.7633 19.5495 29.7633V29.7613H19.5591ZM32.6711 21.4847C32.8035 21.4847 32.9339 21.4905 33.0624 21.504C34.4531 19.9284 37.1077 19.2215 39.1277 19.3351C38.3758 16.4767 36.8912 13.9189 34.8868 11.875C34.5434 11.5245 34.1828 11.1874 33.8088 10.8676C32.7654 10.8253 31.672 10.8388 30.5404 10.91C29.3262 10.9871 28.0679 11.1296 26.779 11.3396C26.8576 11.8018 26.9708 12.2448 27.0782 12.6609C27.3832 13.8513 27.6402 14.8567 27.0629 15.6869C26.194 16.935 25.0259 17.2394 23.8059 16.3803C22.9255 15.762 22.1717 14.6332 21.721 13.7665C21.4812 13.3061 21.1628 12.9845 20.8098 12.7456C18.5638 13.4352 16.3618 14.2942 14.3228 15.2708C14.5779 16.2589 15.3586 16.3784 16.2179 16.5093C17.5932 16.7193 19.1142 16.9504 19.7587 19.335C19.8488 19.674 21.1455 20.9395 21.2836 22.0721C21.3872 22.9216 20.9613 23.6207 19.3693 23.8172C18.7536 23.8924 18.6577 23.9347 18.3681 24.0888C17.9634 24.3026 17.5913 24.4991 15.9609 24.4143C13.8836 24.3065 14.6086 26.9704 14.085 28.4265C13.7551 29.3453 13.0761 29.8191 11.4745 29.2393C11.461 29.2355 11.4476 29.2297 11.4361 29.2239V29.2259C10.2354 28.6673 8.46686 29.2316 7.66127 27.3363C7.51549 26.9915 6.97078 26.8702 6.63123 26.8432C8.13885 34.6208 14.9538 40.3743 23.0023 40.3743C25.3558 40.3743 27.5962 39.8851 29.6273 39.0009C28.2271 37.7913 24.5309 36.6433 26.7118 33.569C27.2393 32.8255 25.1562 30.4409 24.7841 28.8653C24.5424 27.8483 24.8206 27.0412 26.2419 26.7003C27.3505 26.4345 28.2022 26.3112 28.8735 26.2303C28.7853 25.951 28.7354 25.6832 28.7354 25.4329C28.7354 23.2543 30.4962 21.4842 32.6714 21.4842L32.6711 21.4847ZM34.1289 21.7659C35.602 22.3572 36.6052 23.7961 36.6052 25.4391C36.6052 27.5636 33.0011 30.9943 32.9915 31.0037C32.8093 31.177 32.5254 31.1751 32.3451 31.0037C32.3374 30.996 30.2601 29.0198 29.2589 27.1379C28.5741 27.2169 27.6783 27.3305 26.4527 27.6233C25.7276 27.7967 25.5781 28.18 25.6912 28.6538C26.0633 30.2255 28.4897 32.6814 27.4693 34.1183C25.8312 36.4297 29.2761 37.1848 30.5268 38.5793C37.1425 35.2124 40.8517 27.7928 39.3462 20.2982C37.7254 20.1248 35.4467 20.6314 34.1289 21.7659ZM34.7907 23.3088C33.6207 22.1338 31.7217 22.1338 30.5517 23.3088C30.0089 23.8539 29.6732 24.607 29.6732 25.4372C29.6732 25.7107 29.7576 26.0208 29.8995 26.3502C29.9379 26.4022 29.9667 26.4638 29.982 26.5293C30.6092 27.8314 32.0325 29.3531 32.6712 30.0003C33.5056 29.1547 35.6692 26.826 35.6692 25.4353C35.6692 24.607 35.3335 23.8539 34.7907 23.3088ZM32.6712 26.3983H32.6808V26.4002C32.9992 26.4002 33.3962 26.5736 33.4001 26.8355H33.3981C33.3981 26.9357 33.3387 27.0282 33.2351 27.1071C32.7556 27.4712 31.9461 27.1977 31.9423 26.8355C31.9366 26.2173 31.0024 26.2249 31.0082 26.8433C31.014 27.5078 31.553 27.997 32.1763 28.1588L32.1744 28.3149C32.1667 28.9332 33.1028 28.9447 33.1085 28.3264L33.1104 28.1723C33.7683 28.024 34.3361 27.5271 34.3361 26.8356H34.3342C34.3457 26.0247 33.5248 25.4584 32.6808 25.4584V25.4603H32.6616V25.4584C32.3432 25.4584 31.9461 25.285 31.9423 25.0231H31.9442C31.9442 24.9229 32.0037 24.8304 32.1073 24.7515C32.5868 24.3874 33.3962 24.6629 33.4001 25.0231C33.4058 25.6413 34.34 25.6337 34.3342 25.0153C34.3284 24.3508 33.7894 23.8616 33.166 23.6998L33.168 23.5437C33.1756 22.9254 32.2396 22.9139 32.2339 23.5322L32.2319 23.6863C31.5741 23.8346 31.0063 24.3315 31.0063 25.023H31.0082C30.9967 25.8339 31.8176 26.4002 32.6616 26.4002V26.3983L32.6712 26.3983ZM6.19957 35.3396C7.60555 35.8404 9.14386 36.1371 10.6917 36.2873C6.73853 32.4119 4.73403 26.8105 5.5683 21.0629C5.38224 21.2363 5.1981 21.4116 5.02163 21.5888C1.78965 24.7978 0.266657 28.1953 1.21612 31.0193C1.617 32.2097 2.41684 33.1708 3.43918 33.922L3.86116 33.0591C4.02995 32.6815 4.49798 32.6854 4.68786 32.9839L6.19957 35.3396ZM4.05321 34.7945L3.73673 35.4417L5.07558 35.3261L4.3486 34.1916L4.05321 34.7945ZM39.5648 11.8364C38.3065 11.4146 36.8737 11.1237 35.3085 10.9716C39.2655 14.8528 41.2662 20.4504 40.4354 26.1979C43.1859 23.6342 45.9767 19.7817 44.7876 16.2398C44.3598 14.9705 43.4833 13.9689 42.3688 13.1965L42.014 14.0286C41.8739 14.3579 41.4194 14.4196 41.2045 14.1191L39.5648 11.8364ZM41.715 12.3372L42.0238 11.6149L40.6926 11.7998L41.4772 12.8958L41.715 12.3372ZM21.8973 12.4277C22.1371 12.6723 22.3577 12.969 22.5476 13.3349C22.9561 14.1189 24.3832 16.4591 25.6069 15.8178C25.8314 15.7003 26.0615 15.4865 26.2955 15.1513C26.6273 14.6755 26.4183 13.8588 26.1708 12.8939C26.0577 12.4547 25.9387 11.9886 25.8524 11.5012C24.5596 11.7439 23.2362 12.0502 21.8973 12.4277ZM13.4349 15.7099C10.8569 17.0177 8.58207 18.4989 6.70033 20.0649C6.45289 21.2129 6.32246 22.4052 6.32246 23.6283C6.32246 24.3988 6.37425 25.1577 6.47399 25.8993C7.2374 25.9128 8.18303 26.1709 8.52062 26.9702C8.86204 27.7735 9.58135 27.8813 10.3351 27.993C10.8242 28.0662 11.3268 28.1413 11.8159 28.3667C12.7116 28.6845 13.0608 28.5035 13.2008 28.1105C13.6995 26.7218 12.7845 23.3086 16.005 23.4743C18.4161 23.5995 17.4014 23.089 19.2255 22.8849C20.1059 22.7751 20.3879 22.5131 20.3476 22.1837C20.244 21.3324 19.0145 20.194 18.8476 19.5757C18.3643 17.7863 17.1616 17.6052 16.0741 17.4396C14.8906 17.2643 13.8089 17.0986 13.4349 15.7099ZM7.10494 18.5413C8.90026 17.1719 10.9852 15.8794 13.3003 14.7256C13.2984 14.6486 13.2965 14.5677 13.2965 14.4848C13.2965 12.3218 13.5823 11.4319 13.8757 10.5208C13.9851 10.1779 14.0963 9.83316 14.1922 9.4017C10.8375 11.5012 8.30994 14.741 7.10494 18.5413ZM14.2362 14.2749C14.265 11.1333 14.9363 11.1102 15.2509 8.79316C16.0719 8.35977 16.9331 7.9938 17.8269 7.70104C16.6396 11.0853 17.8921 11.5438 19.4784 12.1274L19.5647 12.1582C17.7099 12.7707 15.9129 13.4871 14.2362 14.2749ZM26.679 10.4052C28.6489 10.0855 30.6303 9.9083 32.5675 9.90637C31.0599 8.84508 29.3719 8.02836 27.5555 7.51022C27.5478 7.5237 27.5382 7.53718 27.5287 7.55066C26.8401 8.5234 26.6502 9.4903 26.679 10.4052Z" fill="white"/>
</svg>
