<svg width="453" height="429" viewBox="0 0 453 429" fill="none" xmlns="http://www.w3.org/2000/svg">
<rect x="0.695312" y="0.684082" width="451.442" height="427.081" rx="213.54" transform="rotate(0.093357 0.695312 0.684082)" fill="#ECF4F5"/>
<g filter="url(#filter0_dd_10976_9244)">
<rect x="26.3535" y="52.8989" width="399.428" height="323.386" rx="13.37" fill="white"/>
<path d="M56.2262 93.1816L54.2608 93.1816L54.2608 78.6819L59.7358 78.6819C62.8443 78.6819 64.6894 80.3264 64.6894 83.0338C64.6894 85.0393 63.6866 86.4833 61.8817 87.0649L64.8297 93.1816L62.6438 93.1816L59.9363 87.4459L56.2262 87.4459L56.2262 93.1816ZM56.2262 80.4467L56.2262 85.7011L59.7558 85.7011C61.5808 85.7011 62.6237 84.7185 62.6237 83.0539C62.6237 81.3693 61.5407 80.4467 59.7358 80.4467L56.2262 80.4467ZM70.5883 93.4223C67.7004 93.4223 65.715 91.3366 65.715 88.2882C65.715 85.2198 67.6603 83.094 70.5081 83.094C73.2958 83.094 75.1208 85.0193 75.1208 87.9272L75.1208 88.6292L67.54 88.6492C67.6804 90.7149 68.7633 91.858 70.6284 91.858C72.0925 91.858 73.0551 91.2564 73.376 90.1333L75.1408 90.1333C74.6595 92.2391 73.015 93.4223 70.5883 93.4223ZM70.5081 84.6783C68.8636 84.6783 67.8208 85.661 67.5801 87.3858L73.2356 87.3858C73.2356 85.7613 72.1727 84.6783 70.5081 84.6783ZM76.5846 88.2882C76.5846 85.2198 78.5299 83.094 81.3978 83.094C83.8646 83.094 85.5893 84.4978 85.9302 86.6838L84.0451 86.6838C83.7242 85.4404 82.7214 84.7786 81.458 84.7786C79.6731 84.7786 78.4497 86.1424 78.4497 88.2682C78.4497 90.3739 79.5929 91.7377 81.3777 91.7377C82.7214 91.7377 83.7242 91.0358 84.0651 89.8726L85.9503 89.8726C85.5692 91.9984 83.7442 93.4223 81.3777 93.4223C78.4898 93.4223 76.5846 91.3767 76.5846 88.2882ZM94.7179 83.3748L96.583 83.3748L96.583 93.1816L94.8984 93.1816L94.6978 91.6976C94.1363 92.7204 92.8327 93.4223 91.3888 93.4223C89.1025 93.4223 87.819 91.8781 87.819 89.4715L87.819 83.3748L89.7042 83.3748L89.7042 88.8498C89.7042 90.9555 90.6066 91.7577 92.0506 91.7577C93.7753 91.7577 94.7179 90.6547 94.7179 88.5489L94.7179 83.3748ZM104.934 83.2945L104.934 85.0193L104.091 85.0193C102.306 85.0193 101.203 86.1022 101.203 87.9874L101.203 93.1816L99.3182 93.1816L99.3182 83.3948L101.083 83.3948L101.203 84.8789C101.604 83.8561 102.587 83.1742 103.931 83.1742C104.272 83.1742 104.552 83.2143 104.934 83.2945ZM112.317 83.2945L112.317 85.0193L111.475 85.0193C109.69 85.0193 108.587 86.1022 108.587 87.9874L108.587 93.1816L106.702 93.1816L106.702 83.3948L108.467 83.3948L108.587 84.8789C108.988 83.8561 109.971 83.1742 111.314 83.1742C111.655 83.1742 111.936 83.2143 112.317 83.2945ZM115.008 81.0484C114.326 81.0484 113.764 80.4869 113.764 79.805C113.764 79.1031 114.326 78.5616 115.008 78.5616C115.69 78.5616 116.251 79.1031 116.251 79.805C116.251 80.4869 115.69 81.0484 115.008 81.0484ZM114.085 93.1816L114.085 83.3748L115.97 83.3748L115.97 93.1816L114.085 93.1816ZM120.592 93.1816L118.707 93.1816L118.707 83.3748L120.412 83.3748L120.612 84.8789C121.234 83.7558 122.478 83.094 123.861 83.094C126.448 83.094 127.632 84.6783 127.632 87.1852L127.632 93.1816L125.747 93.1816L125.747 87.6064C125.747 85.6209 124.824 84.8187 123.38 84.8187C121.615 84.8187 120.592 86.0822 120.592 87.9874L120.592 93.1816ZM129.621 88.0275C129.621 85.2599 131.406 83.094 134.254 83.094C135.838 83.094 137.061 83.816 137.683 85.0393L137.823 83.3748L139.508 83.3748L139.508 92.7805C139.508 95.869 137.603 97.8344 134.595 97.8344C131.927 97.8344 130.102 96.3303 129.741 93.8435L131.627 93.8435C131.867 95.2874 132.95 96.1297 134.595 96.1297C136.44 96.1297 137.643 94.9264 137.643 93.0613L137.643 91.0959C137.001 92.2391 135.718 92.9209 134.173 92.9209C131.386 92.9209 129.621 90.775 129.621 88.0275ZM131.506 87.9874C131.506 89.8325 132.649 91.2764 134.494 91.2764C136.4 91.2764 137.563 89.9127 137.563 87.9874C137.563 86.1022 136.44 84.7385 134.514 84.7385C132.629 84.7385 131.506 86.1825 131.506 87.9874ZM150.48 93.1816L148.595 93.1816L148.595 84.9591L146.67 84.9591L146.67 83.3748L148.595 83.3748L148.595 80.3064L150.48 80.3064L150.48 83.3748L152.405 83.3748L152.405 84.9591L150.48 84.9591L150.48 93.1816ZM159.713 83.2945L159.713 85.0193L158.87 85.0193C157.085 85.0193 155.982 86.1022 155.982 87.9874L155.982 93.1816L154.097 93.1816L154.097 83.3948L155.862 83.3948L155.982 84.8789C156.383 83.8561 157.366 83.1742 158.71 83.1742C159.051 83.1742 159.331 83.2143 159.713 83.2945ZM163.957 93.4223C161.851 93.4223 160.608 92.2391 160.608 90.4542C160.608 88.6492 161.951 87.5261 164.258 87.3456L167.346 87.105L167.346 86.8242C167.346 85.1797 166.363 84.5981 165.04 84.5981C163.455 84.5981 162.553 85.3 162.553 86.4833L160.908 86.4833C160.908 84.4377 162.593 83.094 165.12 83.094C167.547 83.094 169.191 84.3775 169.191 87.0248L169.191 93.1816L167.587 93.1816L167.386 91.5973C166.885 92.7204 165.541 93.4223 163.957 93.4223ZM164.498 91.9583C166.283 91.9583 167.366 90.7951 167.366 88.95L167.366 88.4286L164.859 88.6292C163.195 88.7896 162.513 89.4314 162.513 90.394C162.513 91.4369 163.275 91.9583 164.498 91.9583ZM173.687 93.1816L171.802 93.1816L171.802 83.3748L173.507 83.3748L173.707 84.8789C174.329 83.7558 175.572 83.094 176.956 83.094C179.543 83.094 180.726 84.6783 180.726 87.1852L180.726 93.1816L178.841 93.1816L178.841 87.6064C178.841 85.6209 177.919 84.8187 176.475 84.8187C174.71 84.8187 173.687 86.0822 173.687 87.9874L173.687 93.1816ZM182.418 90.3338L184.223 90.3338C184.223 91.3366 184.985 91.9382 186.228 91.9382C187.552 91.9382 188.314 91.3967 188.314 90.4943C188.314 89.8325 187.993 89.4314 186.97 89.1707L185.245 88.7696C183.501 88.3484 182.678 87.486 182.678 86.0421C182.678 84.2371 184.203 83.094 186.369 83.094C188.514 83.094 189.918 84.2973 189.958 86.1624L188.153 86.1624C188.113 85.1797 187.452 84.558 186.308 84.558C185.125 84.558 184.463 85.0794 184.463 85.9819C184.463 86.6437 184.945 87.0849 185.907 87.3256L187.632 87.7467C189.297 88.1478 190.119 88.9099 190.119 90.3739C190.119 92.2391 188.514 93.4223 186.188 93.4223C183.882 93.4223 182.418 92.1989 182.418 90.3338ZM191.167 83.3748L192.61 83.3748L192.61 81.8105C192.61 79.4039 193.934 78.4212 195.719 78.4212C196.08 78.4212 196.501 78.4413 196.882 78.5014L196.882 80.1259L196.04 80.1259C194.817 80.1259 194.496 80.7476 194.496 81.8105L194.496 83.3748L196.822 83.3748L196.822 84.9591L194.496 84.9591L194.496 93.1816L192.61 93.1816L192.61 84.9591L191.167 84.9591L191.167 83.3748ZM202.512 93.4223C199.624 93.4223 197.639 91.3366 197.639 88.2882C197.639 85.2198 199.584 83.094 202.432 83.094C205.22 83.094 207.045 85.0193 207.045 87.9272L207.045 88.6292L199.464 88.6492C199.604 90.7149 200.687 91.858 202.552 91.858C204.016 91.858 204.979 91.2564 205.3 90.1333L207.065 90.1333C206.583 92.2391 204.939 93.4223 202.512 93.4223ZM202.432 84.6783C200.788 84.6783 199.745 85.661 199.504 87.3858L205.16 87.3858C205.16 85.7613 204.097 84.6783 202.432 84.6783ZM214.766 83.2945L214.766 85.0193L213.923 85.0193C212.139 85.0193 211.036 86.1022 211.036 87.9874L211.036 93.1816L209.15 93.1816L209.15 83.3948L210.915 83.3948L211.036 84.8789C211.437 83.8561 212.419 83.1742 213.763 83.1742C214.104 83.1742 214.385 83.2143 214.766 83.2945Z" fill="#050506"/>
<rect x="341.658" y="72.168" width="62.3974" height="26.0275" rx="13.0137" fill="#D6E3FB"/>
<path d="M355.283 90.1816L353.504 90.1816L357.034 80.4082L358.786 80.4082L362.315 90.1816L360.51 90.1816L359.722 87.9221L356.072 87.9221L355.283 90.1816ZM357.689 83.3228L356.58 86.4782L359.227 86.4782L358.104 83.3228C358.024 83.0688 357.93 82.7747 357.903 82.5741C357.863 82.7613 357.783 83.0554 357.689 83.3228ZM362.612 86.8659C362.612 84.8203 363.963 83.3763 365.915 83.3763C367.719 83.3763 368.95 84.3791 369.123 85.9701L367.492 85.9701C367.305 85.2214 366.757 84.8337 365.981 84.8337C364.939 84.8337 364.243 85.6225 364.243 86.8659C364.243 88.1093 364.885 88.8848 365.928 88.8848C366.743 88.8848 367.318 88.4837 367.492 87.7617L369.137 87.7617C368.936 89.2992 367.653 90.3555 365.928 90.3555C363.922 90.3555 362.612 88.965 362.612 86.8659ZM372.597 90.1816L370.966 90.1816L370.966 84.9406L369.696 84.9406L369.696 83.5769L370.966 83.5769L370.966 81.5179L372.597 81.5179L372.597 83.5769L373.88 83.5769L373.88 84.9406L372.597 84.9406L372.597 90.1816ZM375.71 82.2532C375.148 82.2532 374.707 81.812 374.707 81.2639C374.707 80.7157 375.148 80.2879 375.71 80.2879C376.245 80.2879 376.686 80.7157 376.686 81.2639C376.686 81.812 376.245 82.2532 375.71 82.2532ZM374.894 90.1816L374.894 83.5769L376.526 83.5769L376.526 90.1816L374.894 90.1816ZM380.083 90.1816L377.462 83.5769L379.2 83.5769L380.35 86.6119C380.631 87.4007 380.858 88.0826 380.938 88.4435C381.032 88.0291 381.273 87.3338 381.553 86.6119L382.757 83.5769L384.441 83.5769L381.687 90.1816L380.083 90.1816ZM388.007 90.3555C386.042 90.3555 384.665 88.9249 384.665 86.8793C384.665 84.8069 386.015 83.3763 387.954 83.3763C389.933 83.3763 391.189 84.7 391.189 86.7589L391.189 87.2536L386.216 87.267C386.336 88.4302 386.951 89.0185 388.034 89.0185C388.93 89.0185 389.518 88.6708 389.705 88.0424L391.216 88.0424C390.935 89.4864 389.732 90.3555 388.007 90.3555ZM387.967 84.7133C387.005 84.7133 386.416 85.2348 386.256 86.2241L389.572 86.2241C389.572 85.315 388.943 84.7133 387.967 84.7133Z" fill="#6584DB"/>
<path d="M66.8826 135.208C67.0873 135.208 67.2848 135.283 67.4378 135.419C67.5907 135.555 67.6885 135.742 67.7124 135.945L67.7183 136.043L67.7183 136.879L69.3895 136.879C69.8111 136.879 70.2172 137.038 70.5264 137.325C70.8356 137.611 71.0249 138.004 71.0566 138.425L71.0607 138.55L71.0607 148.577C71.0609 148.999 70.9016 149.405 70.6149 149.714C70.3282 150.024 69.9353 150.213 69.5148 150.245L69.3895 150.249L57.6908 150.249C57.2691 150.249 56.863 150.09 56.5539 149.803C56.2447 149.516 56.0553 149.123 56.0237 148.703L56.0195 148.577L56.0195 138.55C56.0194 138.128 56.1786 137.722 56.4653 137.413C56.752 137.104 57.145 136.915 57.5654 136.883L57.6908 136.879L59.362 136.879L59.362 136.043C59.3623 135.83 59.4438 135.625 59.59 135.47C59.7362 135.316 59.9361 135.222 60.1487 135.21C60.3613 135.197 60.5707 135.267 60.734 135.403C60.8973 135.54 61.0023 135.734 61.0274 135.945L61.0333 136.043L61.0333 136.879L66.047 136.879L66.047 136.043C66.047 135.822 66.135 135.609 66.2918 135.452C66.4485 135.296 66.661 135.208 66.8826 135.208ZM69.3895 142.728L57.6908 142.728L57.6908 148.577L69.3895 148.577L69.3895 142.728ZM69.3895 138.55L57.6908 138.55L57.6908 141.057L69.3895 141.057L69.3895 138.55Z" fill="#6584DB"/>
<path d="M83.7068 143.99L79.2998 143.99L79.2998 148.728L78.2168 148.728L78.2168 137.959L84.5642 137.959L84.5642 138.951L79.2998 138.951L79.2998 143.012L83.7068 143.012L83.7068 143.99ZM89.5082 141.358L89.5082 142.29L88.9366 142.29C87.5979 142.29 86.7406 143.193 86.7406 144.577L86.7406 148.728L85.7027 148.728L85.7027 141.448L86.6804 141.448L86.7556 142.576C87.0414 141.794 87.8085 141.283 88.8313 141.283C89.0569 141.283 89.2525 141.298 89.5082 141.358ZM93.6621 148.909C91.5263 148.909 90.0973 147.374 90.0973 145.088C90.0973 142.817 91.5112 141.253 93.5869 141.253C95.5573 141.253 96.896 142.651 96.896 144.712L96.896 145.223L91.1051 145.223C91.1803 146.998 92.1129 148.021 93.6772 148.021C94.8654 148.021 95.6325 147.51 95.9033 146.547L96.896 146.547C96.5049 148.081 95.3768 148.909 93.6621 148.909ZM93.5869 142.14C92.2182 142.14 91.3157 143.042 91.1352 144.471L95.8581 144.471C95.8581 143.073 94.9557 142.14 93.5869 142.14ZM98.0439 145.058C98.0439 142.862 99.3074 141.253 101.413 141.253C102.631 141.253 103.639 141.794 104.166 142.922L104.271 141.448L105.173 141.448L105.173 151.902L104.136 151.902L104.136 147.329C103.624 148.382 102.647 148.909 101.413 148.909C99.2623 148.909 98.0439 147.254 98.0439 145.058ZM99.0968 145.088C99.0968 146.758 100.014 147.976 101.594 147.976C103.188 147.976 104.121 146.758 104.121 145.088C104.121 143.403 103.188 142.2 101.594 142.2C100.014 142.2 99.0968 143.403 99.0968 145.088ZM112.453 141.448L113.491 141.448L113.491 148.728L112.589 148.728L112.453 147.495C112.047 148.337 111.039 148.909 109.896 148.909C108.181 148.909 107.249 147.735 107.249 145.96L107.249 141.433L108.302 141.433L108.302 145.63C108.302 147.359 109.069 147.976 110.227 147.976C111.626 147.976 112.453 147.043 112.453 145.314L112.453 141.448ZM118.559 148.909C116.424 148.909 114.995 147.374 114.995 145.088C114.995 142.817 116.409 141.253 118.484 141.253C120.455 141.253 121.793 142.651 121.793 144.712L121.793 145.223L116.002 145.223C116.078 146.998 117.01 148.021 118.574 148.021C119.763 148.021 120.53 147.51 120.801 146.547L121.793 146.547C121.402 148.081 120.274 148.909 118.559 148.909ZM118.484 142.14C117.115 142.14 116.213 143.042 116.033 144.471L120.755 144.471C120.755 143.073 119.853 142.14 118.484 142.14ZM124.49 148.728L123.453 148.728L123.453 141.448L124.355 141.448L124.506 142.712C124.987 141.779 125.949 141.253 127.002 141.253C129.003 141.253 129.83 142.441 129.83 144.276L129.83 148.728L128.792 148.728L128.792 144.501C128.792 142.802 128.025 142.2 126.822 142.2C125.333 142.2 124.49 143.283 124.49 144.923L124.49 148.728ZM131.387 145.103C131.387 142.817 132.786 141.253 134.907 141.253C136.591 141.253 137.825 142.23 138.111 143.734L137.073 143.734C136.802 142.727 135.93 142.17 134.922 142.17C133.448 142.17 132.41 143.298 132.41 145.088C132.41 146.818 133.373 147.976 134.847 147.976C135.93 147.976 136.802 147.374 137.088 146.442L138.141 146.442C137.795 147.931 136.501 148.909 134.847 148.909C132.786 148.909 131.387 147.389 131.387 145.103ZM138.829 151.902L138.829 151.044L139.626 151.044C140.258 151.044 140.89 150.999 141.251 150.022L141.567 149.164L138.619 141.448L139.717 141.448L142.063 147.795L144.364 141.448L145.432 141.448L142.093 150.398C141.672 151.541 140.965 152.007 139.927 152.007C139.491 152.007 139.16 151.977 138.829 151.902Z" fill="black"/>
<path d="M354.59 148.728L351.356 137.853L352.891 137.853L354.876 144.501C355.027 145.073 355.177 145.645 355.327 146.472C355.508 145.599 355.673 145.073 355.839 144.501L357.899 137.853L359.494 137.853L361.539 144.501C361.72 145.088 361.87 145.66 362.036 146.472C362.216 145.554 362.367 144.998 362.517 144.516L364.518 137.853L366.022 137.853L362.743 148.728L361.329 148.728L358.697 140.124L356.034 148.728L354.59 148.728ZM369.487 148.909C367.321 148.909 365.832 147.344 365.832 145.058C365.832 142.757 367.291 141.162 369.427 141.162C371.518 141.162 372.887 142.606 372.887 144.787L372.887 145.314L367.201 145.329C367.306 146.878 368.118 147.735 369.517 147.735C370.615 147.735 371.337 147.284 371.578 146.442L372.902 146.442C372.541 148.021 371.307 148.909 369.487 148.909ZM369.427 142.351C368.194 142.351 367.412 143.088 367.231 144.381L371.473 144.381C371.473 143.163 370.676 142.351 369.427 142.351ZM377.639 148.909C375.474 148.909 373.984 147.344 373.984 145.058C373.984 142.757 375.443 141.162 377.579 141.162C379.67 141.162 381.039 142.606 381.039 144.787L381.039 145.314L375.353 145.329C375.458 146.878 376.271 147.735 377.67 147.735C378.768 147.735 379.49 147.284 379.73 146.442L381.054 146.442C380.693 148.021 379.459 148.909 377.639 148.909ZM377.579 142.351C376.346 142.351 375.564 143.088 375.383 144.381L379.625 144.381C379.625 143.163 378.828 142.351 377.579 142.351ZM384.062 148.728L382.648 148.728L382.648 137.658L384.062 137.658L384.062 144.832L387.326 141.373L389.101 141.373L386.288 144.306L389.086 148.728L387.461 148.728L385.31 145.329L384.062 146.637L384.062 148.728ZM391.7 148.728L390.286 148.728L390.286 137.658L391.7 137.658L391.7 148.728ZM393.074 152.022L393.074 150.864L394.022 150.864C394.699 150.864 395.24 150.759 395.586 149.826L395.842 149.119L392.879 141.373L394.368 141.373L396.504 147.299L398.685 141.373L400.144 141.373L396.669 150.383C396.173 151.646 395.436 152.172 394.308 152.172C393.842 152.172 393.45 152.112 393.074 152.022Z" fill="black"/>
<line x1="51.4217" y1="165.708" x2="400.712" y2="165.708" stroke="#D8D8D8" stroke-width="0.835623" stroke-linecap="round"/>
<g clip-path="url(#clip0_10976_9244)">
<path d="M65.8022 184.205L70.5293 188.932C70.6859 189.089 70.7739 189.301 70.7739 189.523C70.7739 189.744 70.6859 189.957 70.5293 190.114L65.8022 194.841C65.6446 194.993 65.4335 195.077 65.2144 195.075C64.9953 195.073 64.7857 194.985 64.6308 194.83C64.4758 194.676 64.388 194.466 64.3861 194.247C64.3842 194.028 64.4684 193.817 64.6206 193.659L67.9213 190.358L56.8552 190.358C56.6335 190.358 56.421 190.27 56.2643 190.114C56.1076 189.957 56.0195 189.744 56.0195 189.523C56.0195 189.301 56.1076 189.089 56.2643 188.932C56.421 188.775 56.6335 188.687 56.8552 188.687L67.9213 188.687L64.6206 185.386C64.5408 185.309 64.4771 185.217 64.4333 185.115C64.3895 185.013 64.3665 184.904 64.3655 184.793C64.3646 184.682 64.3857 184.572 64.4277 184.469C64.4697 184.366 64.5318 184.273 64.6102 184.194C64.6887 184.116 64.782 184.054 64.8847 184.012C64.9874 183.97 65.0974 183.949 65.2084 183.95C65.3193 183.951 65.429 183.974 65.5309 184.018C65.6329 184.061 65.7251 184.125 65.8022 184.205Z" fill="#6584DB"/>
</g>
<path d="M79.2998 195.523L78.2168 195.523L78.2168 184.753L82.2328 184.753C84.4138 184.753 85.7374 185.957 85.7374 187.867C85.7374 189.416 84.9252 190.499 83.5414 190.875L85.8427 195.523L84.6394 195.523L82.4434 191.056L79.2998 191.056L79.2998 195.523ZM79.2998 185.731L79.2998 190.078L82.2629 190.078C83.752 190.078 84.6243 189.266 84.6243 187.897C84.6243 186.498 83.7068 185.731 82.2328 185.731L79.2998 185.731ZM90.1368 195.703C88.001 195.703 86.5721 194.169 86.5721 191.883C86.5721 189.612 87.9859 188.047 90.0616 188.047C92.032 188.047 93.3707 189.446 93.3707 191.507L93.3707 192.018L87.5798 192.018C87.655 193.793 88.5876 194.816 90.1519 194.816C91.3401 194.816 92.1072 194.305 92.378 193.342L93.3707 193.342C92.9796 194.876 91.8515 195.703 90.1368 195.703ZM90.0616 188.935C88.6929 188.935 87.7904 189.837 87.6099 191.266L92.3328 191.266C92.3328 189.867 91.4304 188.935 90.0616 188.935ZM94.5186 191.898C94.5186 189.612 95.9175 188.047 98.0383 188.047C99.7229 188.047 100.956 189.025 101.242 190.529L100.204 190.529C99.9335 189.522 99.0611 188.965 98.0533 188.965C96.5793 188.965 95.5414 190.093 95.5414 191.883C95.5414 193.613 96.5041 194.771 97.9781 194.771C99.0611 194.771 99.9335 194.169 100.219 193.237L101.272 193.237C100.926 194.726 99.6327 195.703 97.9781 195.703C95.9175 195.703 94.5186 194.184 94.5186 191.898ZM103.356 186.243C102.935 186.243 102.589 185.897 102.589 185.475C102.589 185.054 102.935 184.693 103.356 184.693C103.777 184.693 104.138 185.054 104.138 185.475C104.138 185.897 103.777 186.243 103.356 186.243ZM102.844 195.523L102.844 188.243L103.882 188.243L103.882 195.523L102.844 195.523ZM106.047 198.697L106.047 188.243L106.949 188.243L107.054 189.717C107.566 188.589 108.589 188.047 109.807 188.047C111.913 188.047 113.176 189.657 113.176 191.853C113.176 194.049 111.958 195.703 109.807 195.703C108.573 195.703 107.596 195.177 107.084 194.124L107.084 198.697L106.047 198.697ZM107.099 191.883C107.099 193.553 108.032 194.771 109.626 194.771C111.206 194.771 112.123 193.553 112.123 191.883C112.123 190.198 111.206 188.995 109.626 188.995C108.032 188.995 107.099 190.198 107.099 191.883ZM115.342 186.243C114.921 186.243 114.575 185.897 114.575 185.475C114.575 185.054 114.921 184.693 115.342 184.693C115.763 184.693 116.124 185.054 116.124 185.475C116.124 185.897 115.763 186.243 115.342 186.243ZM114.83 195.523L114.83 188.243L115.868 188.243L115.868 195.523L114.83 195.523ZM121.086 195.703C118.95 195.703 117.521 194.169 117.521 191.883C117.521 189.612 118.935 188.047 121.011 188.047C122.981 188.047 124.32 189.446 124.32 191.507L124.32 192.018L118.529 192.018C118.604 193.793 119.537 194.816 121.101 194.816C122.289 194.816 123.056 194.305 123.327 193.342L124.32 193.342C123.929 194.876 122.801 195.703 121.086 195.703ZM121.011 188.935C119.642 188.935 118.739 189.837 118.559 191.266L123.282 191.266C123.282 189.867 122.379 188.935 121.011 188.935ZM127.017 195.523L125.979 195.523L125.979 188.243L126.882 188.243L127.032 189.506C127.513 188.574 128.476 188.047 129.529 188.047C131.529 188.047 132.357 189.236 132.357 191.071L132.357 195.523L131.319 195.523L131.319 191.296C131.319 189.597 130.552 188.995 129.348 188.995C127.859 188.995 127.017 190.078 127.017 191.718L127.017 195.523ZM136.095 195.523L135.072 195.523L135.072 189.115L133.613 189.115L133.613 188.243L135.072 188.243L135.072 185.942L136.095 185.942L136.095 188.243L137.554 188.243L137.554 189.115L136.095 189.115L136.095 195.523Z" fill="black"/>
<path d="M315.868 195.523L314.394 195.523L314.394 184.648L318.501 184.648C320.832 184.648 322.216 185.882 322.216 187.912C322.216 189.416 321.464 190.499 320.11 190.935L322.321 195.523L320.682 195.523L318.651 191.221L315.868 191.221L315.868 195.523ZM315.868 185.972L315.868 189.913L318.516 189.913C319.884 189.913 320.667 189.176 320.667 187.927C320.667 186.664 319.854 185.972 318.501 185.972L315.868 185.972ZM325.852 195.703C324.273 195.703 323.34 194.816 323.34 193.477C323.34 192.124 324.348 191.281 326.078 191.146L328.394 190.965L328.394 190.755C328.394 189.522 327.657 189.085 326.664 189.085C325.476 189.085 324.799 189.612 324.799 190.499L323.566 190.499C323.566 188.965 324.829 187.957 326.725 187.957C328.545 187.957 329.778 188.92 329.778 190.905L329.778 195.523L328.575 195.523L328.424 194.335C328.048 195.177 327.04 195.703 325.852 195.703ZM326.258 194.605C327.597 194.605 328.409 193.733 328.409 192.349L328.409 191.958L326.529 192.109C325.281 192.229 324.769 192.71 324.769 193.432C324.769 194.214 325.341 194.605 326.258 194.605ZM333.15 195.508L331.736 195.508L331.736 184.453L333.15 184.453L333.15 189.296C333.616 188.499 334.504 187.957 335.647 187.957C337.527 187.957 338.429 189.145 338.429 191.026L338.429 195.523L337.015 195.523L337.015 191.341C337.015 189.852 336.309 189.251 335.256 189.251C333.887 189.251 333.15 190.243 333.15 191.507L333.15 195.508ZM341.802 195.523L340.388 195.523L340.388 188.168L341.651 188.168L341.786 189.13C342.163 188.439 342.945 187.957 343.983 187.957C345.126 187.957 345.938 188.529 346.314 189.446C346.66 188.529 347.547 187.957 348.69 187.957C350.375 187.957 351.398 189.01 351.398 190.71L351.398 195.523L350.014 195.523L350.014 191.056C350.014 189.898 349.367 189.236 348.375 189.236C347.307 189.236 346.6 189.988 346.6 191.161L346.6 195.523L345.201 195.523L345.201 191.041C345.201 189.882 344.569 189.251 343.576 189.251C342.508 189.251 341.802 189.988 341.802 191.161L341.802 195.523ZM355.509 195.703C353.929 195.703 352.997 194.816 352.997 193.477C352.997 192.124 354.005 191.281 355.734 191.146L358.051 190.965L358.051 190.755C358.051 189.522 357.314 189.085 356.321 189.085C355.133 189.085 354.456 189.612 354.456 190.499L353.222 190.499C353.222 188.965 354.486 187.957 356.381 187.957C358.201 187.957 359.434 188.92 359.434 190.905L359.434 195.523L358.231 195.523L358.081 194.335C357.705 195.177 356.697 195.703 355.509 195.703ZM355.915 194.605C357.253 194.605 358.066 193.733 358.066 192.349L358.066 191.958L356.186 192.109C354.937 192.229 354.426 192.71 354.426 193.432C354.426 194.214 354.997 194.605 355.915 194.605ZM362.806 195.523L361.392 195.523L361.392 188.168L362.671 188.168L362.821 189.296C363.288 188.454 364.22 187.957 365.258 187.957C367.198 187.957 368.086 189.145 368.086 191.026L368.086 195.523L366.672 195.523L366.672 191.341C366.672 189.852 365.98 189.251 364.897 189.251C363.573 189.251 362.806 190.198 362.806 191.627L362.806 195.523ZM374.849 195.523L373.315 195.523L377.286 184.648L378.925 184.648L382.911 195.523L381.362 195.523L380.384 192.816L375.811 192.816L374.849 195.523ZM377.917 186.995L376.263 191.537L379.948 191.537L378.278 186.995C378.203 186.784 378.128 186.528 378.098 186.363C378.068 186.513 377.992 186.769 377.917 186.995ZM386.059 195.523L384.645 195.523L384.645 189.356L383.202 189.356L383.202 188.168L384.645 188.168L384.645 185.866L386.059 185.866L386.059 188.168L387.503 188.168L387.503 189.356L386.059 189.356L386.059 195.523ZM390.98 195.523L389.566 195.523L389.566 189.356L388.122 189.356L388.122 188.168L389.566 188.168L389.566 185.866L390.98 185.866L390.98 188.168L392.424 188.168L392.424 189.356L390.98 189.356L390.98 195.523ZM395.756 195.703C394.176 195.703 393.244 194.816 393.244 193.477C393.244 192.124 394.252 191.281 395.981 191.146L398.298 190.965L398.298 190.755C398.298 189.522 397.561 189.085 396.568 189.085C395.38 189.085 394.703 189.612 394.703 190.499L393.469 190.499C393.469 188.965 394.733 187.957 396.628 187.957C398.448 187.957 399.681 188.92 399.681 190.905L399.681 195.523L398.478 195.523L398.328 194.335C397.952 195.177 396.944 195.703 395.756 195.703ZM396.162 194.605C397.5 194.605 398.313 193.733 398.313 192.349L398.313 191.958L396.432 192.109C395.184 192.229 394.673 192.71 394.673 193.432C394.673 194.214 395.244 194.605 396.162 194.605Z" fill="black"/>
<line x1="51.4217" y1="212.503" x2="400.712" y2="212.503" stroke="#D8D8D8" stroke-width="0.835623" stroke-linecap="round"/>
<path d="M54.8203 259.126L53.7223 259.126L57.6781 248.356L59.0168 248.356L63.0178 259.126L61.8897 259.126L60.8368 256.268L55.8732 256.268L54.8203 259.126ZM58.2046 249.876L56.2041 255.321L60.4908 255.321L58.4753 249.876C58.4302 249.725 58.355 249.545 58.3399 249.439C58.3249 249.53 58.2647 249.725 58.2046 249.876ZM65.3271 259.126L64.2892 259.126L64.2892 251.846L65.1917 251.846L65.312 252.884C65.673 252.117 66.4852 251.65 67.508 251.65C68.6512 251.65 69.5085 252.252 69.8545 253.2C70.1854 252.252 71.0728 251.65 72.246 251.65C73.8253 251.65 74.8632 252.673 74.8632 254.358L74.8632 259.126L73.8554 259.126L73.8554 254.568C73.8554 253.32 73.1635 252.583 72.0505 252.583C70.8321 252.583 70.1102 253.501 70.1102 254.629L70.1102 259.126L69.0874 259.126L69.0874 254.553C69.0874 253.32 68.3804 252.598 67.2824 252.598C66.0641 252.598 65.3271 253.501 65.3271 254.614L65.3271 259.126ZM76.4395 255.486C76.4395 253.26 78.0037 251.65 80.1396 251.65C82.2755 251.65 83.8397 253.26 83.8397 255.486C83.8397 257.697 82.2755 259.306 80.1396 259.306C78.0037 259.306 76.4395 257.697 76.4395 255.486ZM77.4923 255.471C77.4923 257.186 78.5753 258.374 80.1396 258.374C81.6888 258.374 82.7869 257.186 82.7869 255.471C82.7869 253.786 81.6888 252.583 80.1396 252.583C78.5753 252.583 77.4923 253.786 77.4923 255.471ZM90.4374 251.846L91.4753 251.846L91.4753 259.126L90.5728 259.126L90.4374 257.893C90.0313 258.735 89.0235 259.306 87.8804 259.306C86.1657 259.306 85.2332 258.133 85.2332 256.358L85.2332 251.831L86.286 251.831L86.286 256.027C86.286 257.757 87.0532 258.374 88.2113 258.374C89.6102 258.374 90.4374 257.441 90.4374 255.712L90.4374 251.846ZM94.6751 259.126L93.6372 259.126L93.6372 251.846L94.5397 251.846L94.6901 253.109C95.1714 252.177 96.134 251.65 97.1869 251.65C99.1874 251.65 100.015 252.839 100.015 254.674L100.015 259.126L98.9768 259.126L98.9768 254.899C98.9768 253.2 98.2097 252.598 97.0064 252.598C95.5174 252.598 94.6751 253.681 94.6751 255.321L94.6751 259.126ZM103.753 259.126L102.73 259.126L102.73 252.718L101.271 252.718L101.271 251.846L102.73 251.846L102.73 249.545L103.753 249.545L103.753 251.846L105.212 251.846L105.212 252.718L103.753 252.718L103.753 259.126Z" fill="black"/>
<path d="M355.907 244.456C352.808 244.456 350.748 242.23 350.748 238.861C350.748 235.506 352.868 233.235 355.982 233.235C358.434 233.235 360.314 234.694 360.72 236.92L359.141 236.92C358.734 235.506 357.516 234.649 355.937 234.649C353.741 234.649 352.297 236.304 352.297 238.846C352.297 241.388 353.741 243.042 355.937 243.042C357.531 243.042 358.795 242.185 359.201 240.846L360.765 240.846C360.299 243.012 358.358 244.456 355.907 244.456ZM365.175 245.75L365.175 244.456C363.189 244.336 361.881 243.208 361.79 241.448L363.294 241.448C363.324 242.41 364.031 243.042 365.175 243.162L365.175 239.417L364.633 239.297C362.858 238.891 361.941 237.898 361.941 236.349C361.941 234.634 363.219 233.416 365.175 233.25L365.175 231.942L366.137 231.942L366.137 233.235C367.957 233.401 369.115 234.514 369.221 236.259L367.762 236.259C367.701 235.296 367.115 234.679 366.137 234.544L366.137 238.274L366.724 238.409C368.529 238.816 369.401 239.763 369.401 241.267C369.401 243.057 368.123 244.26 366.137 244.441L366.137 245.75L365.175 245.75ZM364.934 237.988L365.175 238.048L365.175 234.544C364.061 234.694 363.385 235.341 363.385 236.304C363.385 237.176 363.881 237.733 364.934 237.988ZM366.423 239.718L366.137 239.658L366.137 243.132C367.265 242.982 367.957 242.335 367.957 241.388C367.957 240.515 367.461 239.959 366.423 239.718ZM378.834 242.095L377.541 242.095L377.541 244.291L376.127 244.291L376.127 242.095L370.501 242.095L370.501 240.786L375.63 233.416L377.541 233.416L377.541 240.786L378.834 240.786L378.834 242.095ZM372.096 240.786L376.127 240.786L376.127 234.98L372.096 240.786ZM380.289 238.861C380.289 235.491 382.034 233.205 384.772 233.205C387.494 233.205 389.239 235.491 389.239 238.861C389.239 242.245 387.569 244.486 384.772 244.486C381.959 244.486 380.289 242.245 380.289 238.861ZM381.748 238.861C381.748 241.538 382.861 243.162 384.772 243.162C386.682 243.162 387.78 241.538 387.78 238.861C387.78 236.153 386.682 234.529 384.772 234.529C382.861 234.529 381.748 236.153 381.748 238.861ZM390.718 238.861C390.718 235.491 392.463 233.205 395.201 233.205C397.923 233.205 399.668 235.491 399.668 238.861C399.668 242.245 397.998 244.486 395.201 244.486C392.388 244.486 390.718 242.245 390.718 238.861ZM392.177 238.861C392.177 241.538 393.29 243.162 395.201 243.162C397.111 243.162 398.209 241.538 398.209 238.861C398.209 236.153 397.111 234.529 395.201 234.529C393.29 234.529 392.177 236.153 392.177 238.861Z" fill="#050506"/>
<path d="M333.291 263.271L333.291 262.389L340.15 262.389L340.15 263.271L337.195 263.271L337.195 271.962L336.233 271.962L336.233 263.271L333.291 263.271ZM340.9 264.876C340.9 263.271 342.184 262.215 344.109 262.215C345.834 262.215 346.97 263.178 347.117 264.782L346.141 264.782C346.034 263.699 345.299 263.084 344.096 263.084C342.745 263.084 341.863 263.779 341.863 264.862C341.863 265.705 342.358 266.24 343.36 266.494L345.005 266.895C346.502 267.256 347.278 268.111 347.278 269.408C347.278 271.066 345.994 272.122 344.015 272.122C342.157 272.122 340.9 271.146 340.78 269.582L341.769 269.582C341.823 270.585 342.705 271.24 344.015 271.24C345.419 271.24 346.315 270.558 346.315 269.462C346.315 268.606 345.834 268.045 344.804 267.804L343.187 267.403C341.689 267.042 340.9 266.186 340.9 264.876ZM349.731 271.949L348.808 271.949L348.808 262.215L349.731 262.215L349.731 266.614C350.145 265.838 350.934 265.317 352.017 265.317C353.715 265.317 354.477 266.373 354.477 268.004L354.477 271.962L353.555 271.962L353.555 268.205C353.555 266.694 352.846 266.159 351.843 266.159C350.453 266.159 349.731 267.189 349.731 268.432L349.731 271.949ZM362.974 269.93L361.851 269.93L361.851 271.962L360.915 271.962L360.915 269.93L355.888 269.93L355.888 269.074L360.567 262.389L361.851 262.389L361.851 269.074L362.974 269.074L362.974 269.93ZM356.931 269.074L360.915 269.074L360.915 263.378L356.931 269.074ZM364.471 267.175C364.471 264.207 365.928 262.202 368.308 262.202C370.675 262.202 372.132 264.207 372.132 267.175C372.132 270.157 370.701 272.136 368.308 272.136C365.901 272.136 364.471 270.157 364.471 267.175ZM365.42 267.175C365.42 269.662 366.476 271.267 368.308 271.267C370.14 271.267 371.196 269.662 371.196 267.175C371.196 264.675 370.14 263.084 368.308 263.084C366.476 263.084 365.42 264.675 365.42 267.175ZM373.597 267.175C373.597 264.207 375.055 262.202 377.435 262.202C379.801 262.202 381.258 264.207 381.258 267.175C381.258 270.157 379.828 272.136 377.435 272.136C375.028 272.136 373.597 270.157 373.597 267.175ZM374.547 267.175C374.547 269.662 375.603 271.267 377.435 271.267C379.266 271.267 380.323 269.662 380.323 267.175C380.323 264.675 379.266 263.084 377.435 263.084C375.603 263.084 374.547 264.675 374.547 267.175ZM382.724 267.175C382.724 264.207 384.181 262.202 386.561 262.202C388.928 262.202 390.385 264.207 390.385 267.175C390.385 270.157 388.954 272.136 386.561 272.136C384.155 272.136 382.724 270.157 382.724 267.175ZM383.673 267.175C383.673 269.662 384.73 271.267 386.561 271.267C388.393 271.267 389.449 269.662 389.449 267.175C389.449 264.675 388.393 263.084 386.561 263.084C384.73 263.084 383.673 264.675 383.673 267.175ZM391.851 267.175C391.851 264.207 393.308 262.202 395.688 262.202C398.054 262.202 399.512 264.207 399.512 267.175C399.512 270.157 398.081 272.136 395.688 272.136C393.281 272.136 391.851 270.157 391.851 267.175ZM392.8 267.175C392.8 269.662 393.856 271.267 395.688 271.267C397.519 271.267 398.576 269.662 398.576 267.175C398.576 264.675 397.519 263.084 395.688 263.084C393.856 263.084 392.8 264.675 392.8 267.175Z" fill="#737373"/>
<line x1="51.4217" y1="292.914" x2="400.712" y2="292.914" stroke="#D8D8D8" stroke-width="0.835623" stroke-linecap="round"/>
<path d="M55.6375 324.701L54.6749 324.701L54.6749 315.128L55.6509 315.128L60.9187 323.097L60.9187 315.128L61.8679 315.128L61.8679 324.701L60.9187 324.701L55.6375 316.733L55.6375 324.701ZM66.7198 324.862C64.8212 324.862 63.5511 323.498 63.5511 321.466C63.5511 319.447 64.8079 318.056 66.6529 318.056C68.4044 318.056 69.5943 319.3 69.5943 321.131L69.5943 321.586L64.4469 321.586C64.5137 323.164 65.3427 324.073 66.7332 324.073C67.7894 324.073 68.4712 323.618 68.7119 322.763L69.5943 322.763C69.2467 324.126 68.244 324.862 66.7198 324.862ZM66.6529 318.845C65.4363 318.845 64.6341 319.647 64.4736 320.917L68.6718 320.917C68.6718 319.674 67.8696 318.845 66.6529 318.845ZM71.1014 324.701L70.0184 324.701L72.3314 321.466L70.0318 318.23L71.1147 318.23L72.9464 320.824L74.7647 318.23L75.8343 318.23L73.5347 321.479L75.821 324.701L74.7246 324.701L72.9063 322.107L71.1014 324.701ZM78.6769 324.701L77.7678 324.701L77.7678 319.006L76.4709 319.006L76.4709 318.23L77.7678 318.23L77.7678 316.185L78.6769 316.185L78.6769 318.23L79.9738 318.23L79.9738 319.006L78.6769 319.006L78.6769 324.701ZM84.081 316.011L84.081 315.128L90.9398 315.128L90.9398 316.011L87.985 316.011L87.985 324.701L87.0224 324.701L87.0224 316.011L84.081 316.011ZM94.6505 318.15L94.6505 318.979L94.1424 318.979C92.9525 318.979 92.1904 319.781 92.1904 321.011L92.1904 324.701L91.2679 324.701L91.2679 318.23L92.1369 318.23L92.2038 319.233C92.4578 318.538 93.1397 318.083 94.0488 318.083C94.2494 318.083 94.4232 318.096 94.6505 318.15ZM97.4742 324.862C96.097 324.862 95.2815 324.086 95.2815 322.95C95.2815 321.76 96.1906 321.011 97.7014 320.891L99.8406 320.717L99.8406 320.503C99.8406 319.233 99.0786 318.832 98.1293 318.832C97.0062 318.832 96.3377 319.34 96.3377 320.209L95.4954 320.209C95.4954 318.899 96.565 318.056 98.156 318.056C99.6535 318.056 100.75 318.805 100.75 320.516L100.75 324.701L99.9743 324.701L99.854 323.565C99.4529 324.38 98.5705 324.862 97.4742 324.862ZM97.6881 324.113C99.0518 324.113 99.8406 323.164 99.8406 321.76L99.8406 321.412L97.9287 321.559C96.7121 321.666 96.2174 322.201 96.2174 322.923C96.2174 323.712 96.8057 324.113 97.6881 324.113ZM103.524 324.701L102.601 324.701L102.601 318.23L103.403 318.23L103.537 319.353C103.965 318.524 104.82 318.056 105.756 318.056C107.535 318.056 108.27 319.113 108.27 320.744L108.27 324.701L107.347 324.701L107.347 320.944C107.347 319.433 106.665 318.899 105.596 318.899C104.272 318.899 103.524 319.861 103.524 321.319L103.524 324.701ZM109.482 322.883L110.364 322.883C110.364 323.632 110.926 324.1 111.835 324.1C112.838 324.1 113.426 323.672 113.426 322.976C113.426 322.442 113.159 322.134 112.397 321.947L111.287 321.666C110.164 321.385 109.616 320.797 109.616 319.915C109.616 318.778 110.565 318.056 111.955 318.056C113.319 318.056 114.202 318.805 114.242 320.008L113.346 320.008C113.319 319.26 112.798 318.818 111.929 318.818C111.02 318.818 110.512 319.206 110.512 319.901C110.512 320.396 110.859 320.744 111.568 320.917L112.677 321.198C113.801 321.479 114.309 322 114.309 322.936C114.309 324.1 113.319 324.862 111.849 324.862C110.391 324.862 109.482 324.086 109.482 322.883ZM115.105 318.23L116.095 318.23L116.095 316.973C116.095 315.516 116.897 314.954 117.886 314.954C118.114 314.954 118.381 314.968 118.595 315.008L118.595 315.797L118.047 315.797C117.231 315.797 117.017 316.211 117.017 316.973L117.017 318.23L118.541 318.23L118.541 319.006L117.017 319.006L117.017 324.701L116.095 324.701L116.095 319.006L115.105 319.006L115.105 318.23ZM122.315 324.862C120.416 324.862 119.146 323.498 119.146 321.466C119.146 319.447 120.403 318.056 122.248 318.056C123.999 318.056 125.189 319.3 125.189 321.131L125.189 321.586L120.042 321.586C120.109 323.164 120.938 324.073 122.328 324.073C123.384 324.073 124.066 323.618 124.307 322.763L125.189 322.763C124.842 324.126 123.839 324.862 122.315 324.862ZM122.248 318.845C121.031 318.845 120.229 319.647 120.069 320.917L124.267 320.917C124.267 319.674 123.465 318.845 122.248 318.845ZM130.047 318.15L130.047 318.979L129.539 318.979C128.349 318.979 127.587 319.781 127.587 321.011L127.587 324.701L126.664 324.701L126.664 318.23L127.533 318.23L127.6 319.233C127.854 318.538 128.536 318.083 129.445 318.083C129.646 318.083 129.82 318.096 130.047 318.15Z" fill="#737373"/>
<path d="M53.8125 347.678L53.8125 347.136L55.2415 347.136L55.2415 347.678C55.2415 348.746 55.8281 349.513 57.0314 349.513C58.2647 349.513 58.8062 348.761 58.8062 347.633L58.8062 339.826L60.2803 339.826L60.2803 347.693C60.2803 349.648 58.9717 350.882 57.0314 350.882C54.9557 350.882 53.8125 349.558 53.8125 347.678ZM67.5797 343.346L68.9786 343.346L68.9786 350.701L67.7151 350.701L67.5647 349.588C67.1435 350.355 66.1658 350.882 65.0829 350.882C63.3682 350.882 62.4055 349.723 62.4055 347.919L62.4055 343.346L63.8194 343.346L63.8194 347.452C63.8194 349.032 64.4963 349.633 65.5792 349.633C66.8728 349.633 67.5797 348.806 67.5797 347.227L67.5797 343.346ZM72.4438 350.701L71.0299 350.701L71.0299 343.346L72.3084 343.346L72.4588 344.474C72.9251 343.632 73.8577 343.135 74.8955 343.135C76.8358 343.135 77.7233 344.324 77.7233 346.204L77.7233 350.701L76.3094 350.701L76.3094 346.52C76.3094 345.031 75.6175 344.429 74.5345 344.429C73.2109 344.429 72.4438 345.377 72.4438 346.805L72.4438 350.701ZM82.8552 350.882C80.6893 350.882 79.2002 349.317 79.2002 347.031C79.2002 344.73 80.6592 343.135 82.7951 343.135C84.8858 343.135 86.2546 344.579 86.2546 346.76L86.2546 347.287L80.569 347.302C80.6743 348.851 81.4865 349.708 82.8853 349.708C83.9833 349.708 84.7053 349.257 84.946 348.415L86.2696 348.415C85.9086 349.994 84.6752 350.882 82.8552 350.882ZM82.7951 344.324C81.5617 344.324 80.7796 345.061 80.5991 346.354L84.8407 346.354C84.8407 345.136 84.0435 344.324 82.7951 344.324ZM93.7365 341.15L91.4502 341.15L91.4502 339.826L95.1504 339.826L95.1504 350.701L93.7365 350.701L93.7365 341.15ZM99.5463 350.115C99.5463 351.198 98.7341 352.1 97.6661 352.235L97.6661 351.604C98.2828 351.498 98.719 351.092 98.719 350.626C98.6137 350.686 98.4934 350.716 98.3129 350.716C97.8165 350.716 97.3954 350.355 97.3954 349.799C97.3954 349.197 97.8015 348.761 98.4032 348.761C99.0349 348.761 99.5463 349.287 99.5463 350.115ZM112.704 350.686L105.364 350.701L105.364 349.573L108.869 346.55C110.629 345.031 111.125 344.294 111.125 343.135C111.125 341.767 110.343 340.954 109.034 340.954C107.696 340.954 106.823 341.932 106.793 343.481L105.319 343.481C105.364 341.15 106.838 339.631 109.049 339.631C111.23 339.631 112.629 340.954 112.629 343.045C112.629 344.594 111.862 345.692 109.937 347.362L107.681 349.317L112.704 349.317L112.704 350.686ZM114.061 345.271C114.061 341.902 115.806 339.616 118.543 339.616C121.266 339.616 123.011 341.902 123.011 345.271C123.011 348.656 121.341 350.897 118.543 350.897C115.731 350.897 114.061 348.656 114.061 345.271ZM115.52 345.271C115.52 347.949 116.633 349.573 118.543 349.573C120.454 349.573 121.552 347.949 121.552 345.271C121.552 342.564 120.454 340.939 118.543 340.939C116.633 340.939 115.52 342.564 115.52 345.271ZM131.785 350.686L124.445 350.701L124.445 349.573L127.95 346.55C129.709 345.031 130.206 344.294 130.206 343.135C130.206 341.767 129.424 340.954 128.115 340.954C126.776 340.954 125.904 341.932 125.874 343.481L124.4 343.481C124.445 341.15 125.919 339.631 128.13 339.631C130.311 339.631 131.71 340.954 131.71 343.045C131.71 344.594 130.943 345.692 129.017 347.362L126.761 349.317L131.785 349.317L131.785 350.686ZM140.955 348.505L139.662 348.505L139.662 350.701L138.248 350.701L138.248 348.505L132.622 348.505L132.622 347.197L137.751 339.826L139.662 339.826L139.662 347.197L140.955 347.197L140.955 348.505ZM134.217 347.197L138.248 347.197L138.248 341.391L134.217 347.197Z" fill="#050506"/>
<rect x="301.691" y="315.153" width="98.6035" height="35.0962" rx="17.5481" stroke="#6584DB" stroke-width="1.67125"/>
<path d="M331.598 337.701L330.475 337.701L330.475 329.243L331.598 329.243L334.511 336.356L337.424 329.243L338.57 329.243L338.57 337.701L337.447 337.701L337.447 334.355C337.447 332.776 337.459 332.203 337.518 331.606L335.049 337.701L333.973 337.701L331.516 331.63C331.575 332.039 331.598 332.905 331.598 334.086L331.598 337.701ZM342.026 337.842C340.797 337.842 340.072 337.151 340.072 336.11C340.072 335.057 340.856 334.402 342.201 334.297L344.003 334.156L344.003 333.993C344.003 333.033 343.429 332.694 342.657 332.694C341.733 332.694 341.207 333.104 341.207 333.794L340.247 333.794C340.247 332.601 341.23 331.817 342.704 331.817C344.12 331.817 345.079 332.565 345.079 334.11L345.079 337.701L344.143 337.701L344.026 336.777C343.734 337.432 342.95 337.842 342.026 337.842ZM342.341 336.988C343.383 336.988 344.014 336.309 344.014 335.233L344.014 334.929L342.552 335.046C341.581 335.139 341.183 335.514 341.183 336.075C341.183 336.683 341.628 336.988 342.341 336.988ZM347.702 337.701L346.602 337.701L346.602 331.98L347.596 331.98L347.713 332.858C348.076 332.203 348.801 331.817 349.609 331.817C351.118 331.817 351.808 332.741 351.808 334.203L351.808 337.701L350.708 337.701L350.708 334.449C350.708 333.291 350.17 332.823 349.328 332.823C348.298 332.823 347.702 333.56 347.702 334.671L347.702 337.701ZM355.004 337.842C353.776 337.842 353.05 337.151 353.05 336.11C353.05 335.057 353.834 334.402 355.179 334.297L356.981 334.156L356.981 333.993C356.981 333.033 356.408 332.694 355.636 332.694C354.711 332.694 354.185 333.104 354.185 333.794L353.226 333.794C353.226 332.601 354.208 331.817 355.682 331.817C357.098 331.817 358.057 332.565 358.057 334.11L358.057 337.701L357.121 337.701L357.004 336.777C356.712 337.432 355.928 337.842 355.004 337.842ZM355.32 336.988C356.361 336.988 356.993 336.309 356.993 335.233L356.993 334.929L355.53 335.046C354.559 335.139 354.162 335.514 354.162 336.075C354.162 336.683 354.606 336.988 355.32 336.988ZM359.218 334.695C359.218 333.08 360.259 331.817 361.92 331.817C362.844 331.817 363.558 332.238 363.92 332.951L364.002 331.98L364.985 331.98L364.985 337.467C364.985 339.269 363.874 340.415 362.119 340.415C360.563 340.415 359.498 339.538 359.288 338.087L360.387 338.087C360.528 338.93 361.16 339.421 362.119 339.421C363.195 339.421 363.897 338.719 363.897 337.631L363.897 336.485C363.523 337.151 362.774 337.549 361.873 337.549C360.247 337.549 359.218 336.297 359.218 334.695ZM360.317 334.671C360.317 335.747 360.984 336.59 362.06 336.59C363.172 336.59 363.85 335.794 363.85 334.671C363.85 333.572 363.195 332.776 362.072 332.776C360.972 332.776 360.317 333.618 360.317 334.671ZM369.04 337.842C367.356 337.842 366.198 336.625 366.198 334.847C366.198 333.057 367.332 331.817 368.994 331.817C370.62 331.817 371.684 332.94 371.684 334.636L371.684 335.046L367.262 335.057C367.344 336.262 367.976 336.929 369.064 336.929C369.918 336.929 370.479 336.578 370.667 335.923L371.696 335.923C371.415 337.151 370.456 337.842 369.04 337.842ZM368.994 332.741C368.034 332.741 367.426 333.314 367.286 334.32L370.585 334.32C370.585 333.373 369.965 332.741 368.994 332.741Z" fill="#6584DB"/>
</g>
<defs>
<filter id="filter0_dd_10976_9244" x="21.3398" y="51.2277" width="409.455" height="333.414" filterUnits="userSpaceOnUse" color-interpolation-filters="sRGB">
<feFlood flood-opacity="0" result="BackgroundImageFix"/>
<feColorMatrix in="SourceAlpha" type="matrix" values="0 0 0 0 0 0 0 0 0 0 0 0 0 0 0 0 0 0 127 0" result="hardAlpha"/>
<feMorphology radius="1.67125" operator="erode" in="SourceAlpha" result="effect1_dropShadow_10976_9244"/>
<feOffset dy="1.67125"/>
<feGaussianBlur stdDeviation="1.67125"/>
<feColorMatrix type="matrix" values="0 0 0 0 0.0627451 0 0 0 0 0.0941176 0 0 0 0 0.156863 0 0 0 0.06 0"/>
<feBlend mode="normal" in2="BackgroundImageFix" result="effect1_dropShadow_10976_9244"/>
<feColorMatrix in="SourceAlpha" type="matrix" values="0 0 0 0 0 0 0 0 0 0 0 0 0 0 0 0 0 0 127 0" result="hardAlpha"/>
<feMorphology radius="1.67125" operator="erode" in="SourceAlpha" result="effect2_dropShadow_10976_9244"/>
<feOffset dy="3.34249"/>
<feGaussianBlur stdDeviation="3.34249"/>
<feColorMatrix type="matrix" values="0 0 0 0 0.0627451 0 0 0 0 0.0941176 0 0 0 0 0.156863 0 0 0 0.1 0"/>
<feBlend mode="normal" in2="effect1_dropShadow_10976_9244" result="effect2_dropShadow_10976_9244"/>
<feBlend mode="normal" in="SourceGraphic" in2="effect2_dropShadow_10976_9244" result="shape"/>
</filter>
<clipPath id="clip0_10976_9244">
<rect width="20.055" height="20.055" fill="white" transform="translate(53.5117 179.496)"/>
</clipPath>
</defs>
</svg>
