<svg width="278" height="249" viewBox="0 0 278 249" fill="none" xmlns="http://www.w3.org/2000/svg">
<path d="M45.0903 208.052C48.3827 208.052 51.0518 205.383 51.0518 202.09C51.0518 198.798 48.3827 196.129 45.0903 196.129C41.7978 196.129 39.1288 198.798 39.1288 202.09C39.1288 205.383 41.7978 208.052 45.0903 208.052Z" fill="#E6E6E6"/>
<path d="M75.1029 43.417C78.3954 43.417 81.0645 40.7479 81.0645 37.4554C81.0645 34.163 78.3954 31.4939 75.1029 31.4939C71.8105 31.4939 69.1414 34.163 69.1414 37.4554C69.1414 40.7479 71.8105 43.417 75.1029 43.417Z" fill="#E6E6E6"/>
<path d="M250.669 95.2701C253.961 95.2701 256.63 92.601 256.63 89.3085C256.63 86.0161 253.961 83.347 250.669 83.347C247.376 83.347 244.707 86.0161 244.707 89.3085C244.707 92.601 247.376 95.2701 250.669 95.2701Z" fill="#E6E6E6"/>
<path d="M254.043 204.877C257.336 204.877 260.005 202.208 260.005 198.915C260.005 195.623 257.336 192.954 254.043 192.954C250.751 192.954 248.082 195.623 248.082 198.915C248.082 202.208 250.751 204.877 254.043 204.877Z" fill="#E6E6E6"/>
<path d="M185.203 90.5829C187.085 90.5829 188.61 89.0573 188.61 87.1755C188.61 85.2936 187.085 83.7681 185.203 83.7681C183.321 83.7681 181.796 85.2936 181.796 87.1755C181.796 89.0573 183.321 90.5829 185.203 90.5829Z" fill="#E6E6E6"/>
<path d="M81.1808 153.079C83.0627 153.079 84.5882 151.554 84.5882 149.672C84.5882 147.79 83.0627 146.264 81.1808 146.264C79.299 146.264 77.7734 147.79 77.7734 149.672C77.7734 151.554 79.299 153.079 81.1808 153.079Z" fill="#E6E6E6"/>
<path d="M23.9202 107.659C25.802 107.659 27.3276 106.133 27.3276 104.251C27.3276 102.369 25.802 100.844 23.9202 100.844C22.0384 100.844 20.5128 102.369 20.5128 104.251C20.5128 106.133 22.0384 107.659 23.9202 107.659Z" fill="#E6E6E6"/>
<path d="M176.765 34.9013C178.647 34.9013 180.172 33.3757 180.172 31.4939C180.172 29.612 178.647 28.0865 176.765 28.0865C174.883 28.0865 173.357 29.612 173.357 31.4939C173.357 33.3757 174.883 34.9013 176.765 34.9013Z" fill="#E6E6E6"/>
<g opacity="0.51">
<path d="M29.5881 249.941C29.5881 249.941 27.9647 231.949 37.3447 229.347C46.7247 226.746 46.2095 247.339 54.8747 239.64C63.54 231.941 58.0051 223.272 68.6539 216.047C79.3026 208.822 80.9204 224.009 88.2505 227.032C95.5805 230.054 96.7717 197.784 127.034 210.243C157.296 222.701 158.542 230.039 168.343 217.694C178.144 205.348 196.112 207.378 202.356 230.212C208.6 253.046 221.615 208.814 235.239 219.799C248.863 230.783 243.095 247.55 243.095 247.55L209.442 257.956L138.081 251.595C138.081 251.595 53.9495 250.287 52.4591 249.933C50.9687 249.58 29.5881 249.933 29.5881 249.933V249.941Z" fill="#E6E6E6"/>
</g>
<path d="M122.635 168.432L127.2 231.055C127.2 231.055 109.072 212.147 97.3922 230.203C93.2757 236.608 89.2976 239.926 74.8149 233.585C60.3321 227.244 47.1126 230.229 44.5695 244.743C42.0264 259.257 32.2143 233.899 21.5655 246.824C10.9168 259.75 22.4188 265.169 54.365 260.73C86.3113 256.291 105.055 274.027 131.255 264.176C157.456 254.325 170.659 264.669 191.092 263.683C211.526 262.696 218.357 265.162 246.469 255.804C274.582 246.446 257.971 232.105 248.176 230.184C238.38 228.262 237.765 246.466 226.568 242.033C215.371 237.601 214.523 221.902 200.467 224.829C186.411 227.756 192.383 245.921 182.15 239.055C174.299 233.777 177.457 225.367 166.991 221.761C163.369 220.555 159.546 220.392 155.856 221.285C152.166 222.178 148.721 224.1 145.821 226.885L141.472 230.991L146.508 170.866L122.623 168.483L122.635 168.432Z" fill="#E6E6E6"/>
<path d="M112.285 92.9597L95.6968 133.604H115.537L112.285 92.9597Z" fill="#FCDE2F"/>
<path d="M156.769 92.9597L171.723 133.604H153.517L156.769 92.9597Z" fill="#FCDE2F"/>
<path d="M133.743 27.9147V27.682L133.621 27.7984L133.494 27.682V27.9258C130.33 31.1116 98.5889 65.95 116.872 164.808H152.032C170.316 65.8391 136.984 31.034 133.749 27.9147H133.743Z" fill="#68E1FD"/>
<g opacity="0.11">
<path d="M155.002 78.1113L156.01 85.1144C146.508 89.0563 136.212 90.7075 125.953 89.9346C123.215 89.6875 120.46 90.1358 117.941 91.2381C115.423 92.3403 113.224 94.0607 111.548 96.2396C111.548 96.2396 112.579 81.8345 113.277 78.5102L155.002 78.1113Z" fill="#24285B"/>
</g>
<path d="M133.743 27.9147V27.682L133.621 27.7984L133.494 27.682V27.9258C130.33 31.1116 98.5889 65.95 116.872 164.808H152.032C170.316 65.8391 136.984 31.034 133.749 27.9147H133.743Z" fill="#FFD200"/>
<g opacity="0.5">
<path d="M133.743 27.9147V27.682L133.621 27.7984L133.494 27.682V27.9258C130.33 31.1116 98.5889 65.95 116.872 164.808H152.032C170.316 65.8391 136.984 31.034 133.749 27.9147H133.743Z" fill="#FCDE2F"/>
</g>
<g opacity="0.08">
<path d="M121.388 110.556L111.576 121.565C111.576 121.565 111.576 133.588 114.54 150.796L139.278 132.424L121.388 110.556Z" fill="#000001"/>
</g>
<path d="M115.537 157.196L116.872 164.803H152.348L153.75 157.196H115.537Z" fill="#FFD200"/>
<path d="M115.039 69.4737L114.961 69.6843C113.965 72.2994 113.438 75.0695 113.404 77.8675L113.304 78.5213C113.304 78.5213 133.034 89.7296 155.018 78.1113C155.127 77.7258 155.175 77.3259 155.163 76.9256C155.081 74.3593 154.518 71.8312 153.5 69.4737H115.039Z" fill="#FCDE2F"/>
<g opacity="0.13">
<path d="M115.537 157.196L116.872 164.803H152.348L153.75 157.196H115.537Z" fill="#FCDE2F"/>
</g>
<g opacity="0.13">
<path d="M115.039 69.7784L114.961 69.9889C113.965 72.6058 113.438 75.3779 113.404 78.1777L113.304 78.8315C113.304 78.8315 133.034 90.0399 155.018 78.4215C155.127 78.036 155.175 77.6361 155.163 77.2359C155.081 74.6695 154.518 72.1415 153.5 69.7839H115.039V69.7784Z" fill="#000001"/>
</g>
<path d="M115.039 69.4737C115.039 69.4737 133.688 78.1501 153.517 69.4737C153.517 69.4737 150.287 37.9485 134.281 23.2608C134.281 23.2608 120.839 33.8541 115.044 69.4737H115.039Z" fill="#FCDE2F"/>
<path d="M149.851 120.739C151.207 112.385 145.534 104.513 137.179 103.157C128.825 101.801 120.953 107.474 119.597 115.828C118.241 124.183 123.914 132.055 132.268 133.411C140.623 134.767 148.495 129.094 149.851 120.739Z" fill="#6584DB"/>
<path d="M135.278 110.019C135.732 110.019 135.871 110.174 135.871 110.628V111.592C136.667 111.679 137.425 111.98 138.064 112.462C138.703 112.945 139.199 113.592 139.5 114.335C139.738 114.806 139.638 115.066 139.106 115.299L138.142 115.731C137.688 115.947 137.472 115.847 137.217 115.376C137.015 114.886 136.661 114.474 136.207 114.201C135.753 113.928 135.224 113.808 134.696 113.858C133.034 113.858 132.253 114.351 132.253 115.476C132.291 115.82 132.447 116.141 132.696 116.381C132.945 116.622 133.27 116.768 133.616 116.795C134.084 116.896 134.557 116.968 135.034 117.011C135.927 117.055 136.81 117.226 137.655 117.521C138.078 117.657 138.473 117.871 138.818 118.152C139.17 118.52 139.443 118.955 139.623 119.431C139.803 119.907 139.885 120.414 139.865 120.922C139.865 123.072 138.425 124.529 135.882 124.906V125.931C135.882 126.385 135.743 126.54 135.289 126.54H134.181C133.727 126.54 133.571 126.385 133.571 125.931V124.928C132.688 124.868 131.841 124.547 131.139 124.007C130.437 123.467 129.911 122.731 129.627 121.892C129.584 121.804 129.562 121.707 129.563 121.609C129.564 121.511 129.587 121.414 129.631 121.326C129.675 121.239 129.738 121.162 129.816 121.103C129.894 121.043 129.985 121.002 130.081 120.983L131.045 120.629C131.538 120.451 131.754 120.568 131.97 121.061C132.402 122.169 133.289 122.723 134.63 122.723C136.441 122.723 137.35 122.169 137.35 120.989C137.365 120.72 137.29 120.453 137.136 120.231C136.983 120.01 136.76 119.845 136.502 119.764C135.874 119.545 135.217 119.418 134.552 119.388C133.648 119.34 132.756 119.153 131.909 118.834C131.493 118.687 131.107 118.467 130.768 118.185C130.415 117.836 130.138 117.418 129.955 116.956C129.772 116.495 129.686 116 129.704 115.504C129.704 113.376 131.045 111.958 133.582 111.625V110.661C133.582 110.207 133.738 110.052 134.192 110.052H135.3L135.278 110.019Z" fill="white"/>
<path d="M116.872 164.803L95.6968 190.394L140.048 175.147V164.803H116.872Z" fill="#FCDE2F"/>
<path d="M152.187 164.803L173.357 190.394L129.012 175.147V164.803H152.187Z" fill="#FCDE2F"/>
</svg>
