<svg width="453" height="375" viewBox="0 0 453 375" fill="none" xmlns="http://www.w3.org/2000/svg">
<rect x="0.695312" y="0.5" width="451.442" height="427.081" rx="213.54" transform="rotate(0.093357 0.695312 0.5)" fill="#ECF4F5"/>
<g filter="url(#filter0_dd_10218_8660)">
<rect x="26.3535" y="52.7148" width="399.428" height="323.386" rx="13.37" fill="white"/>
<path d="M56.2262 92.9976L54.2608 92.9976L54.2608 78.4978L59.7358 78.4978C62.8443 78.4978 64.6894 80.1423 64.6894 82.8498C64.6894 84.8552 63.6866 86.2992 61.8817 86.8808L64.8297 92.9976L62.6438 92.9976L59.9363 87.2618L56.2262 87.2618L56.2262 92.9976ZM56.2262 80.2627L56.2262 85.5171L59.7558 85.5171C61.5808 85.5171 62.6237 84.5344 62.6237 82.8698C62.6237 81.1852 61.5407 80.2627 59.7358 80.2627L56.2262 80.2627ZM70.5883 93.2382C67.7004 93.2382 65.715 91.1525 65.715 88.1042C65.715 85.0357 67.6603 82.9099 70.5081 82.9099C73.2958 82.9099 75.1208 84.8352 75.1208 87.7432L75.1208 88.4451L67.54 88.4651C67.6804 90.5308 68.7633 91.6739 70.6284 91.6739C72.0925 91.6739 73.0551 91.0723 73.376 89.9492L75.1408 89.9492C74.6595 92.055 73.015 93.2382 70.5883 93.2382ZM70.5081 84.4943C68.8636 84.4943 67.8208 85.477 67.5801 87.2017L73.2356 87.2017C73.2356 85.5772 72.1727 84.4943 70.5081 84.4943ZM76.5846 88.1042C76.5846 85.0357 78.5299 82.9099 81.3978 82.9099C83.8646 82.9099 85.5893 84.3138 85.9302 86.4998L84.0451 86.4998C83.7242 85.2563 82.7214 84.5945 81.458 84.5945C79.6731 84.5945 78.4497 85.9583 78.4497 88.0841C78.4497 90.1899 79.5929 91.5536 81.3777 91.5536C82.7214 91.5536 83.7242 90.8517 84.0651 89.6885L85.9503 89.6885C85.5692 91.8143 83.7442 93.2382 81.3777 93.2382C78.4898 93.2382 76.5846 91.1926 76.5846 88.1042ZM94.7179 83.1907L96.583 83.1907L96.583 92.9976L94.8984 92.9976L94.6978 91.5135C94.1363 92.5363 92.8327 93.2382 91.3888 93.2382C89.1025 93.2382 87.819 91.694 87.819 89.2874L87.819 83.1907L89.7042 83.1907L89.7042 88.6657C89.7042 90.7715 90.6066 91.5737 92.0506 91.5737C93.7753 91.5737 94.7179 90.4706 94.7179 88.3649L94.7179 83.1907ZM104.934 83.1105L104.934 84.8352L104.091 84.8352C102.306 84.8352 101.203 85.9182 101.203 87.8033L101.203 92.9976L99.3182 92.9976L99.3182 83.2107L101.083 83.2107L101.203 84.6948C101.604 83.672 102.587 82.9901 103.931 82.9901C104.272 82.9901 104.552 83.0302 104.934 83.1105ZM112.317 83.1105L112.317 84.8352L111.475 84.8352C109.69 84.8352 108.587 85.9182 108.587 87.8033L108.587 92.9976L106.702 92.9976L106.702 83.2107L108.467 83.2107L108.587 84.6948C108.988 83.672 109.971 82.9901 111.314 82.9901C111.655 82.9901 111.936 83.0302 112.317 83.1105ZM115.008 80.8643C114.326 80.8643 113.764 80.3028 113.764 79.6209C113.764 78.919 114.326 78.3775 115.008 78.3775C115.69 78.3775 116.251 78.919 116.251 79.6209C116.251 80.3028 115.69 80.8643 115.008 80.8643ZM114.085 92.9976L114.085 83.1907L115.97 83.1907L115.97 92.9976L114.085 92.9976ZM120.592 92.9976L118.707 92.9976L118.707 83.1907L120.412 83.1907L120.612 84.6948C121.234 83.5717 122.478 82.9099 123.861 82.9099C126.448 82.9099 127.632 84.4943 127.632 87.0011L127.632 92.9976L125.747 92.9976L125.747 87.4223C125.747 85.4368 124.824 84.6346 123.38 84.6346C121.615 84.6346 120.592 85.8981 120.592 87.8033L120.592 92.9976ZM129.621 87.8434C129.621 85.0759 131.406 82.9099 134.254 82.9099C135.838 82.9099 137.061 83.6319 137.683 84.8552L137.823 83.1907L139.508 83.1907L139.508 92.5965C139.508 95.6849 137.603 97.6503 134.595 97.6503C131.927 97.6503 130.102 96.1462 129.741 93.6594L131.627 93.6594C131.867 95.1033 132.95 95.9456 134.595 95.9456C136.44 95.9456 137.643 94.7423 137.643 92.8772L137.643 90.9118C137.001 92.055 135.718 92.7368 134.173 92.7368C131.386 92.7368 129.621 90.591 129.621 87.8434ZM131.506 87.8033C131.506 89.6484 132.649 91.0923 134.494 91.0923C136.4 91.0923 137.563 89.7286 137.563 87.8033C137.563 85.9182 136.44 84.5544 134.514 84.5544C132.629 84.5544 131.506 85.9984 131.506 87.8033ZM150.48 92.9976L148.595 92.9976L148.595 84.775L146.67 84.775L146.67 83.1907L148.595 83.1907L148.595 80.1223L150.48 80.1223L150.48 83.1907L152.405 83.1907L152.405 84.775L150.48 84.775L150.48 92.9976ZM159.713 83.1105L159.713 84.8352L158.87 84.8352C157.085 84.8352 155.982 85.9182 155.982 87.8033L155.982 92.9976L154.097 92.9976L154.097 83.2107L155.862 83.2107L155.982 84.6948C156.383 83.672 157.366 82.9901 158.71 82.9901C159.051 82.9901 159.331 83.0302 159.713 83.1105ZM163.957 93.2382C161.851 93.2382 160.608 92.055 160.608 90.2701C160.608 88.4651 161.951 87.3421 164.258 87.1616L167.346 86.9209L167.346 86.6401C167.346 84.9956 166.363 84.414 165.04 84.414C163.455 84.414 162.553 85.116 162.553 86.2992L160.908 86.2992C160.908 84.2536 162.593 82.9099 165.12 82.9099C167.547 82.9099 169.191 84.1934 169.191 86.8407L169.191 92.9976L167.587 92.9976L167.386 91.4132C166.885 92.5363 165.541 93.2382 163.957 93.2382ZM164.498 91.7742C166.283 91.7742 167.366 90.611 167.366 88.766L167.366 88.2445L164.859 88.4451C163.195 88.6055 162.513 89.2473 162.513 90.2099C162.513 91.2528 163.275 91.7742 164.498 91.7742ZM173.687 92.9976L171.802 92.9976L171.802 83.1907L173.507 83.1907L173.707 84.6948C174.329 83.5717 175.572 82.9099 176.956 82.9099C179.543 82.9099 180.726 84.4943 180.726 87.0011L180.726 92.9976L178.841 92.9976L178.841 87.4223C178.841 85.4368 177.919 84.6346 176.475 84.6346C174.71 84.6346 173.687 85.8981 173.687 87.8033L173.687 92.9976ZM182.418 90.1498L184.223 90.1498C184.223 91.1525 184.985 91.7542 186.228 91.7542C187.552 91.7542 188.314 91.2127 188.314 90.3102C188.314 89.6484 187.993 89.2473 186.97 88.9866L185.245 88.5855C183.501 88.1643 182.678 87.302 182.678 85.858C182.678 84.0531 184.203 82.9099 186.369 82.9099C188.514 82.9099 189.918 84.1132 189.958 85.9783L188.153 85.9783C188.113 84.9956 187.452 84.3739 186.308 84.3739C185.125 84.3739 184.463 84.8954 184.463 85.7978C184.463 86.4596 184.945 86.9009 185.907 87.1415L187.632 87.5627C189.297 87.9638 190.119 88.7259 190.119 90.1899C190.119 92.055 188.514 93.2382 186.188 93.2382C183.882 93.2382 182.418 92.0149 182.418 90.1498ZM191.167 83.1907L192.61 83.1907L192.61 81.6264C192.61 79.2198 193.934 78.2371 195.719 78.2371C196.08 78.2371 196.501 78.2572 196.882 78.3173L196.882 79.9418L196.04 79.9418C194.817 79.9418 194.496 80.5635 194.496 81.6264L194.496 83.1907L196.822 83.1907L196.822 84.775L194.496 84.775L194.496 92.9976L192.61 92.9976L192.61 84.775L191.167 84.775L191.167 83.1907ZM202.512 93.2382C199.624 93.2382 197.639 91.1525 197.639 88.1042C197.639 85.0357 199.584 82.9099 202.432 82.9099C205.22 82.9099 207.045 84.8352 207.045 87.7432L207.045 88.4451L199.464 88.4651C199.604 90.5308 200.687 91.6739 202.552 91.6739C204.016 91.6739 204.979 91.0723 205.3 89.9492L207.065 89.9492C206.583 92.055 204.939 93.2382 202.512 93.2382ZM202.432 84.4943C200.788 84.4943 199.745 85.477 199.504 87.2017L205.16 87.2017C205.16 85.5772 204.097 84.4943 202.432 84.4943ZM214.766 83.1105L214.766 84.8352L213.923 84.8352C212.139 84.8352 211.036 85.9182 211.036 87.8033L211.036 92.9976L209.15 92.9976L209.15 83.2107L210.915 83.2107L211.036 84.6948C211.437 83.672 212.419 82.9901 213.763 82.9901C214.104 82.9901 214.385 83.0302 214.766 83.1105Z" fill="#050506"/>
<rect x="341.658" y="71.9839" width="62.3974" height="26.0275" rx="13.0137" fill="#D6E3FB"/>
<path d="M355.283 89.9976L353.504 89.9976L357.034 80.2241L358.786 80.2241L362.315 89.9976L360.51 89.9976L359.722 87.738L356.072 87.738L355.283 89.9976ZM357.689 83.1388L356.58 86.2941L359.227 86.2941L358.104 83.1388C358.024 82.8847 357.93 82.5906 357.903 82.39C357.863 82.5772 357.783 82.8714 357.689 83.1388ZM362.612 86.6818C362.612 84.6362 363.963 83.1922 365.915 83.1922C367.719 83.1922 368.95 84.195 369.123 85.786L367.492 85.786C367.305 85.0373 366.757 84.6496 365.981 84.6496C364.939 84.6496 364.243 85.4384 364.243 86.6818C364.243 87.9252 364.885 88.7007 365.928 88.7007C366.743 88.7007 367.318 88.2996 367.492 87.5776L369.137 87.5776C368.936 89.1151 367.653 90.1714 365.928 90.1714C363.922 90.1714 362.612 88.7809 362.612 86.6818ZM372.597 89.9976L370.966 89.9976L370.966 84.7565L369.696 84.7565L369.696 83.3928L370.966 83.3928L370.966 81.3338L372.597 81.3338L372.597 83.3928L373.88 83.3928L373.88 84.7565L372.597 84.7565L372.597 89.9976ZM375.71 82.0692C375.148 82.0692 374.707 81.628 374.707 81.0798C374.707 80.5316 375.148 80.1038 375.71 80.1038C376.245 80.1038 376.686 80.5316 376.686 81.0798C376.686 81.628 376.245 82.0692 375.71 82.0692ZM374.894 89.9976L374.894 83.3928L376.526 83.3928L376.526 89.9976L374.894 89.9976ZM380.083 89.9976L377.462 83.3928L379.2 83.3928L380.35 86.4278C380.631 87.2166 380.858 87.8985 380.938 88.2595C381.032 87.845 381.273 87.1498 381.553 86.4278L382.757 83.3928L384.441 83.3928L381.687 89.9976L380.083 89.9976ZM388.007 90.1714C386.042 90.1714 384.665 88.7408 384.665 86.6952C384.665 84.6228 386.015 83.1922 387.954 83.1922C389.933 83.1922 391.189 84.5159 391.189 86.5748L391.189 87.0695L386.216 87.0829C386.336 88.2461 386.951 88.8344 388.034 88.8344C388.93 88.8344 389.518 88.4868 389.705 87.8584L391.216 87.8584C390.935 89.3023 389.732 90.1714 388.007 90.1714ZM387.967 84.5292C387.005 84.5292 386.416 85.0507 386.256 86.04L389.572 86.04C389.572 85.1309 388.943 84.5292 387.967 84.5292Z" fill="#6584DB"/>
<path d="M66.8826 135.023C67.0873 135.023 67.2848 135.099 67.4378 135.235C67.5907 135.371 67.6885 135.558 67.7124 135.761L67.7183 135.859L67.7183 136.695L69.3895 136.695C69.8111 136.695 70.2172 136.854 70.5264 137.14C70.8356 137.427 71.0249 137.82 71.0566 138.241L71.0607 138.366L71.0607 148.393C71.0609 148.815 70.9016 149.221 70.6149 149.53C70.3282 149.839 69.9353 150.029 69.5148 150.06L69.3895 150.065L57.6908 150.065C57.2691 150.065 56.863 149.906 56.5539 149.619C56.2447 149.332 56.0553 148.939 56.0237 148.519L56.0195 148.393L56.0195 138.366C56.0194 137.944 56.1786 137.538 56.4653 137.229C56.752 136.92 57.145 136.73 57.5654 136.699L57.6908 136.695L59.362 136.695L59.362 135.859C59.3623 135.646 59.4438 135.441 59.59 135.286C59.7362 135.131 59.9361 135.038 60.1487 135.026C60.3613 135.013 60.5707 135.082 60.734 135.219C60.8973 135.356 61.0023 135.55 61.0274 135.761L61.0333 135.859L61.0333 136.695L66.047 136.695L66.047 135.859C66.047 135.637 66.135 135.425 66.2918 135.268C66.4485 135.111 66.661 135.023 66.8826 135.023ZM69.3895 142.544L57.6908 142.544L57.6908 148.393L69.3895 148.393L69.3895 142.544ZM69.3895 138.366L57.6908 138.366L57.6908 140.873L69.3895 140.873L69.3895 138.366Z" fill="#6584DB"/>
<path d="M83.7068 143.806L79.2998 143.806L79.2998 148.544L78.2168 148.544L78.2168 137.774L84.5642 137.774L84.5642 138.767L79.2998 138.767L79.2998 142.828L83.7068 142.828L83.7068 143.806ZM89.5082 141.174L89.5082 142.106L88.9366 142.106C87.5979 142.106 86.7406 143.009 86.7406 144.393L86.7406 148.544L85.7027 148.544L85.7027 141.264L86.6804 141.264L86.7556 142.392C87.0414 141.61 87.8085 141.099 88.8313 141.099C89.0569 141.099 89.2525 141.114 89.5082 141.174ZM93.6621 148.724C91.5263 148.724 90.0973 147.19 90.0973 144.904C90.0973 142.633 91.5112 141.068 93.5869 141.068C95.5573 141.068 96.896 142.467 96.896 144.528L96.896 145.039L91.1051 145.039C91.1803 146.814 92.1129 147.837 93.6772 147.837C94.8654 147.837 95.6325 147.326 95.9033 146.363L96.896 146.363C96.5049 147.897 95.3768 148.724 93.6621 148.724ZM93.5869 141.956C92.2182 141.956 91.3157 142.858 91.1352 144.287L95.8581 144.287C95.8581 142.888 94.9557 141.956 93.5869 141.956ZM98.0439 144.874C98.0439 142.678 99.3074 141.068 101.413 141.068C102.631 141.068 103.639 141.61 104.166 142.738L104.271 141.264L105.173 141.264L105.173 151.718L104.136 151.718L104.136 147.145C103.624 148.198 102.647 148.724 101.413 148.724C99.2623 148.724 98.0439 147.07 98.0439 144.874ZM99.0968 144.904C99.0968 146.574 100.014 147.792 101.594 147.792C103.188 147.792 104.121 146.574 104.121 144.904C104.121 143.219 103.188 142.016 101.594 142.016C100.014 142.016 99.0968 143.219 99.0968 144.904ZM112.453 141.264L113.491 141.264L113.491 148.544L112.589 148.544L112.453 147.311C112.047 148.153 111.039 148.724 109.896 148.724C108.181 148.724 107.249 147.551 107.249 145.776L107.249 141.249L108.302 141.249L108.302 145.445C108.302 147.175 109.069 147.792 110.227 147.792C111.626 147.792 112.453 146.859 112.453 145.13L112.453 141.264ZM118.559 148.724C116.424 148.724 114.995 147.19 114.995 144.904C114.995 142.633 116.409 141.068 118.484 141.068C120.455 141.068 121.793 142.467 121.793 144.528L121.793 145.039L116.002 145.039C116.078 146.814 117.01 147.837 118.574 147.837C119.763 147.837 120.53 147.326 120.801 146.363L121.793 146.363C121.402 147.897 120.274 148.724 118.559 148.724ZM118.484 141.956C117.115 141.956 116.213 142.858 116.033 144.287L120.755 144.287C120.755 142.888 119.853 141.956 118.484 141.956ZM124.49 148.544L123.453 148.544L123.453 141.264L124.355 141.264L124.506 142.527C124.987 141.595 125.949 141.068 127.002 141.068C129.003 141.068 129.83 142.257 129.83 144.092L129.83 148.544L128.792 148.544L128.792 144.317C128.792 142.618 128.025 142.016 126.822 142.016C125.333 142.016 124.49 143.099 124.49 144.739L124.49 148.544ZM131.387 144.919C131.387 142.633 132.786 141.068 134.907 141.068C136.591 141.068 137.825 142.046 138.111 143.55L137.073 143.55C136.802 142.543 135.93 141.986 134.922 141.986C133.448 141.986 132.41 143.114 132.41 144.904C132.41 146.634 133.373 147.792 134.847 147.792C135.93 147.792 136.802 147.19 137.088 146.258L138.141 146.258C137.795 147.747 136.501 148.724 134.847 148.724C132.786 148.724 131.387 147.205 131.387 144.919ZM138.829 151.718L138.829 150.86L139.626 150.86C140.258 150.86 140.89 150.815 141.251 149.837L141.567 148.98L138.619 141.264L139.717 141.264L142.063 147.611L144.364 141.264L145.432 141.264L142.093 150.214C141.672 151.357 140.965 151.823 139.927 151.823C139.491 151.823 139.16 151.793 138.829 151.718Z" fill="black"/>
<path d="M354.59 148.544L351.356 137.669L352.891 137.669L354.876 144.317C355.027 144.889 355.177 145.46 355.327 146.288C355.508 145.415 355.673 144.889 355.839 144.317L357.899 137.669L359.494 137.669L361.539 144.317C361.72 144.904 361.87 145.476 362.036 146.288C362.216 145.37 362.367 144.814 362.517 144.332L364.518 137.669L366.022 137.669L362.743 148.544L361.329 148.544L358.697 139.94L356.034 148.544L354.59 148.544ZM369.487 148.724C367.321 148.724 365.832 147.16 365.832 144.874C365.832 142.573 367.291 140.978 369.427 140.978C371.518 140.978 372.887 142.422 372.887 144.603L372.887 145.13L367.201 145.145C367.306 146.694 368.118 147.551 369.517 147.551C370.615 147.551 371.337 147.1 371.578 146.258L372.902 146.258C372.541 147.837 371.307 148.724 369.487 148.724ZM369.427 142.166C368.194 142.166 367.412 142.903 367.231 144.197L371.473 144.197C371.473 142.979 370.676 142.166 369.427 142.166ZM377.639 148.724C375.474 148.724 373.984 147.16 373.984 144.874C373.984 142.573 375.443 140.978 377.579 140.978C379.67 140.978 381.039 142.422 381.039 144.603L381.039 145.13L375.353 145.145C375.458 146.694 376.271 147.551 377.67 147.551C378.768 147.551 379.49 147.1 379.73 146.258L381.054 146.258C380.693 147.837 379.459 148.724 377.639 148.724ZM377.579 142.166C376.346 142.166 375.564 142.903 375.383 144.197L379.625 144.197C379.625 142.979 378.828 142.166 377.579 142.166ZM384.062 148.544L382.648 148.544L382.648 137.474L384.062 137.474L384.062 144.648L387.326 141.189L389.101 141.189L386.288 144.122L389.086 148.544L387.461 148.544L385.31 145.145L384.062 146.453L384.062 148.544ZM391.7 148.544L390.286 148.544L390.286 137.474L391.7 137.474L391.7 148.544ZM393.074 151.838L393.074 150.68L394.022 150.68C394.699 150.68 395.24 150.575 395.586 149.642L395.842 148.935L392.879 141.189L394.368 141.189L396.504 147.115L398.685 141.189L400.144 141.189L396.669 150.198C396.173 151.462 395.436 151.988 394.308 151.988C393.842 151.988 393.45 151.928 393.074 151.838Z" fill="black"/>
<line x1="51.4217" y1="165.524" x2="400.712" y2="165.524" stroke="#D8D8D8" stroke-width="0.835623" stroke-linecap="round"/>
<path d="M65.8022 184.022L70.5293 188.749C70.6859 188.906 70.7739 189.118 70.7739 189.34C70.7739 189.561 70.6859 189.774 70.5293 189.93L65.8022 194.658C65.6446 194.81 65.4335 194.894 65.2144 194.892C64.9953 194.89 64.7857 194.802 64.6308 194.647C64.4758 194.492 64.388 194.283 64.3861 194.064C64.3842 193.845 64.4684 193.634 64.6206 193.476L67.9213 190.175L56.8552 190.175C56.6335 190.175 56.421 190.087 56.2643 189.93C56.1076 189.774 56.0195 189.561 56.0195 189.34C56.0195 189.118 56.1076 188.905 56.2643 188.749C56.421 188.592 56.6335 188.504 56.8552 188.504L67.9213 188.504L64.6206 185.203C64.5408 185.126 64.4771 185.034 64.4333 184.932C64.3895 184.83 64.3665 184.72 64.3655 184.609C64.3646 184.499 64.3857 184.388 64.4277 184.286C64.4697 184.183 64.5318 184.09 64.6102 184.011C64.6887 183.933 64.782 183.871 64.8847 183.829C64.9874 183.787 65.0974 183.766 65.2084 183.767C65.3193 183.768 65.429 183.791 65.5309 183.834C65.6329 183.878 65.7251 183.942 65.8022 184.022Z" fill="#6584DB"/>
<path d="M79.2998 195.339L78.2168 195.339L78.2168 184.569L82.2328 184.569C84.4138 184.569 85.7374 185.773 85.7374 187.683C85.7374 189.232 84.9252 190.315 83.5414 190.691L85.8427 195.339L84.6394 195.339L82.4434 190.872L79.2998 190.872L79.2998 195.339ZM79.2998 185.547L79.2998 189.894L82.2629 189.894C83.752 189.894 84.6243 189.082 84.6243 187.713C84.6243 186.314 83.7068 185.547 82.2328 185.547L79.2998 185.547ZM90.1368 195.519C88.001 195.519 86.5721 193.985 86.5721 191.699C86.5721 189.428 87.9859 187.863 90.0616 187.863C92.032 187.863 93.3707 189.262 93.3707 191.323L93.3707 191.834L87.5798 191.834C87.655 193.609 88.5876 194.632 90.1519 194.632C91.3401 194.632 92.1072 194.121 92.378 193.158L93.3707 193.158C92.9796 194.692 91.8515 195.519 90.1368 195.519ZM90.0616 188.751C88.6929 188.751 87.7904 189.653 87.6099 191.082L92.3328 191.082C92.3328 189.683 91.4304 188.751 90.0616 188.751ZM94.5186 191.714C94.5186 189.428 95.9175 187.863 98.0383 187.863C99.7229 187.863 100.956 188.841 101.242 190.345L100.204 190.345C99.9335 189.337 99.0611 188.781 98.0533 188.781C96.5793 188.781 95.5414 189.909 95.5414 191.699C95.5414 193.429 96.5041 194.587 97.9781 194.587C99.0611 194.587 99.9335 193.985 100.219 193.053L101.272 193.053C100.926 194.542 99.6327 195.519 97.9781 195.519C95.9175 195.519 94.5186 194 94.5186 191.714ZM103.356 186.058C102.935 186.058 102.589 185.712 102.589 185.291C102.589 184.87 102.935 184.509 103.356 184.509C103.777 184.509 104.138 184.87 104.138 185.291C104.138 185.712 103.777 186.058 103.356 186.058ZM102.844 195.339L102.844 188.059L103.882 188.059L103.882 195.339L102.844 195.339ZM106.047 198.513L106.047 188.059L106.949 188.059L107.054 189.533C107.566 188.405 108.589 187.863 109.807 187.863C111.913 187.863 113.176 189.473 113.176 191.669C113.176 193.865 111.958 195.519 109.807 195.519C108.573 195.519 107.596 194.993 107.084 193.94L107.084 198.513L106.047 198.513ZM107.099 191.699C107.099 193.368 108.032 194.587 109.626 194.587C111.206 194.587 112.123 193.368 112.123 191.699C112.123 190.014 111.206 188.811 109.626 188.811C108.032 188.811 107.099 190.014 107.099 191.699ZM115.342 186.058C114.921 186.058 114.575 185.712 114.575 185.291C114.575 184.87 114.921 184.509 115.342 184.509C115.763 184.509 116.124 184.87 116.124 185.291C116.124 185.712 115.763 186.058 115.342 186.058ZM114.83 195.339L114.83 188.059L115.868 188.059L115.868 195.339L114.83 195.339ZM121.086 195.519C118.95 195.519 117.521 193.985 117.521 191.699C117.521 189.428 118.935 187.863 121.011 187.863C122.981 187.863 124.32 189.262 124.32 191.323L124.32 191.834L118.529 191.834C118.604 193.609 119.537 194.632 121.101 194.632C122.289 194.632 123.056 194.121 123.327 193.158L124.32 193.158C123.929 194.692 122.801 195.519 121.086 195.519ZM121.011 188.751C119.642 188.751 118.739 189.653 118.559 191.082L123.282 191.082C123.282 189.683 122.379 188.751 121.011 188.751ZM127.017 195.339L125.979 195.339L125.979 188.059L126.882 188.059L127.032 189.322C127.513 188.39 128.476 187.863 129.529 187.863C131.529 187.863 132.357 189.052 132.357 190.887L132.357 195.339L131.319 195.339L131.319 191.112C131.319 189.413 130.552 188.811 129.348 188.811C127.859 188.811 127.017 189.894 127.017 191.533L127.017 195.339ZM136.095 195.339L135.072 195.339L135.072 188.931L133.613 188.931L133.613 188.059L135.072 188.059L135.072 185.758L136.095 185.758L136.095 188.059L137.554 188.059L137.554 188.931L136.095 188.931L136.095 195.339Z" fill="black"/>
<path d="M315.868 195.339L314.394 195.339L314.394 184.464L318.501 184.464C320.832 184.464 322.216 185.697 322.216 187.728C322.216 189.232 321.464 190.315 320.11 190.751L322.321 195.339L320.682 195.339L318.651 191.037L315.868 191.037L315.868 195.339ZM315.868 185.788L315.868 189.728L318.516 189.728C319.884 189.728 320.667 188.991 320.667 187.743C320.667 186.48 319.854 185.788 318.501 185.788L315.868 185.788ZM325.852 195.519C324.273 195.519 323.34 194.632 323.34 193.293C323.34 191.94 324.348 191.097 326.078 190.962L328.394 190.781L328.394 190.571C328.394 189.337 327.657 188.901 326.664 188.901C325.476 188.901 324.799 189.428 324.799 190.315L323.566 190.315C323.566 188.781 324.829 187.773 326.725 187.773C328.545 187.773 329.778 188.736 329.778 190.721L329.778 195.339L328.575 195.339L328.424 194.151C328.048 194.993 327.04 195.519 325.852 195.519ZM326.258 194.421C327.597 194.421 328.409 193.549 328.409 192.165L328.409 191.774L326.529 191.925C325.281 192.045 324.769 192.526 324.769 193.248C324.769 194.03 325.341 194.421 326.258 194.421ZM333.15 195.324L331.736 195.324L331.736 184.269L333.15 184.269L333.15 189.112C333.616 188.315 334.504 187.773 335.647 187.773C337.527 187.773 338.429 188.961 338.429 190.842L338.429 195.339L337.015 195.339L337.015 191.157C337.015 189.668 336.309 189.067 335.256 189.067C333.887 189.067 333.15 190.059 333.15 191.323L333.15 195.324ZM341.802 195.339L340.388 195.339L340.388 187.984L341.651 187.984L341.786 188.946C342.163 188.254 342.945 187.773 343.983 187.773C345.126 187.773 345.938 188.345 346.314 189.262C346.66 188.345 347.547 187.773 348.69 187.773C350.375 187.773 351.398 188.826 351.398 190.526L351.398 195.339L350.014 195.339L350.014 190.872C350.014 189.713 349.367 189.052 348.375 189.052C347.307 189.052 346.6 189.804 346.6 190.977L346.6 195.339L345.201 195.339L345.201 190.857C345.201 189.698 344.569 189.067 343.576 189.067C342.508 189.067 341.802 189.804 341.802 190.977L341.802 195.339ZM355.509 195.519C353.929 195.519 352.997 194.632 352.997 193.293C352.997 191.94 354.005 191.097 355.734 190.962L358.051 190.781L358.051 190.571C358.051 189.337 357.314 188.901 356.321 188.901C355.133 188.901 354.456 189.428 354.456 190.315L353.222 190.315C353.222 188.781 354.486 187.773 356.381 187.773C358.201 187.773 359.434 188.736 359.434 190.721L359.434 195.339L358.231 195.339L358.081 194.151C357.705 194.993 356.697 195.519 355.509 195.519ZM355.915 194.421C357.253 194.421 358.066 193.549 358.066 192.165L358.066 191.774L356.186 191.925C354.937 192.045 354.426 192.526 354.426 193.248C354.426 194.03 354.997 194.421 355.915 194.421ZM362.806 195.339L361.392 195.339L361.392 187.984L362.671 187.984L362.821 189.112C363.288 188.269 364.22 187.773 365.258 187.773C367.198 187.773 368.086 188.961 368.086 190.842L368.086 195.339L366.672 195.339L366.672 191.157C366.672 189.668 365.98 189.067 364.897 189.067C363.573 189.067 362.806 190.014 362.806 191.443L362.806 195.339ZM374.849 195.339L373.315 195.339L377.286 184.464L378.925 184.464L382.911 195.339L381.362 195.339L380.384 192.631L375.811 192.631L374.849 195.339ZM377.917 186.81L376.263 191.353L379.948 191.353L378.278 186.81C378.203 186.6 378.128 186.344 378.098 186.179C378.068 186.329 377.992 186.585 377.917 186.81ZM386.059 195.339L384.645 195.339L384.645 189.172L383.202 189.172L383.202 187.984L384.645 187.984L384.645 185.682L386.059 185.682L386.059 187.984L387.503 187.984L387.503 189.172L386.059 189.172L386.059 195.339ZM390.98 195.339L389.566 195.339L389.566 189.172L388.122 189.172L388.122 187.984L389.566 187.984L389.566 185.682L390.98 185.682L390.98 187.984L392.424 187.984L392.424 189.172L390.98 189.172L390.98 195.339ZM395.756 195.519C394.176 195.519 393.244 194.632 393.244 193.293C393.244 191.94 394.252 191.097 395.981 190.962L398.298 190.781L398.298 190.571C398.298 189.337 397.561 188.901 396.568 188.901C395.38 188.901 394.703 189.428 394.703 190.315L393.469 190.315C393.469 188.781 394.733 187.773 396.628 187.773C398.448 187.773 399.681 188.736 399.681 190.721L399.681 195.339L398.478 195.339L398.328 194.151C397.952 194.993 396.944 195.519 395.756 195.519ZM396.162 194.421C397.5 194.421 398.313 193.549 398.313 192.165L398.313 191.774L396.432 191.925C395.184 192.045 394.673 192.526 394.673 193.248C394.673 194.03 395.244 194.421 396.162 194.421Z" fill="black"/>
<line x1="51.4217" y1="212.319" x2="400.712" y2="212.319" stroke="#D8D8D8" stroke-width="0.835623" stroke-linecap="round"/>
<path d="M54.8203 258.942L53.7223 258.942L57.6781 248.173L59.0168 248.173L63.0178 258.942L61.8897 258.942L60.8368 256.085L55.8732 256.085L54.8203 258.942ZM58.2046 249.692L56.2041 255.137L60.4908 255.137L58.4753 249.692C58.4302 249.542 58.355 249.361 58.3399 249.256C58.3249 249.346 58.2647 249.542 58.2046 249.692ZM65.3271 258.942L64.2892 258.942L64.2892 251.662L65.1917 251.662L65.312 252.7C65.673 251.933 66.4852 251.467 67.508 251.467C68.6512 251.467 69.5085 252.069 69.8545 253.016C70.1854 252.069 71.0728 251.467 72.246 251.467C73.8253 251.467 74.8632 252.49 74.8632 254.174L74.8632 258.942L73.8554 258.942L73.8554 254.385C73.8554 253.136 73.1635 252.399 72.0505 252.399C70.8321 252.399 70.1102 253.317 70.1102 254.445L70.1102 258.942L69.0874 258.942L69.0874 254.37C69.0874 253.136 68.3804 252.414 67.2824 252.414C66.0641 252.414 65.3271 253.317 65.3271 254.43L65.3271 258.942ZM76.4395 255.302C76.4395 253.076 78.0037 251.467 80.1396 251.467C82.2755 251.467 83.8397 253.076 83.8397 255.302C83.8397 257.513 82.2755 259.123 80.1396 259.123C78.0037 259.123 76.4395 257.513 76.4395 255.302ZM77.4923 255.287C77.4923 257.002 78.5753 258.19 80.1396 258.19C81.6888 258.19 82.7869 257.002 82.7869 255.287C82.7869 253.603 81.6888 252.399 80.1396 252.399C78.5753 252.399 77.4923 253.603 77.4923 255.287ZM90.4374 251.662L91.4753 251.662L91.4753 258.942L90.5728 258.942L90.4374 257.709C90.0313 258.551 89.0235 259.123 87.8804 259.123C86.1657 259.123 85.2332 257.95 85.2332 256.175L85.2332 251.647L86.286 251.647L86.286 255.844C86.286 257.574 87.0532 258.19 88.2113 258.19C89.6102 258.19 90.4374 257.258 90.4374 255.528L90.4374 251.662ZM94.6751 258.942L93.6372 258.942L93.6372 251.662L94.5397 251.662L94.6901 252.926C95.1714 251.993 96.134 251.467 97.1869 251.467C99.1874 251.467 100.015 252.655 100.015 254.49L100.015 258.942L98.9768 258.942L98.9768 254.716C98.9768 253.016 98.2097 252.414 97.0064 252.414C95.5174 252.414 94.6751 253.497 94.6751 255.137L94.6751 258.942ZM103.753 258.942L102.73 258.942L102.73 252.535L101.271 252.535L101.271 251.662L102.73 251.662L102.73 249.361L103.753 249.361L103.753 251.662L105.212 251.662L105.212 252.535L103.753 252.535L103.753 258.942Z" fill="black"/>
<path d="M355.907 244.272C352.808 244.272 350.748 242.046 350.748 238.677C350.748 235.322 352.868 233.051 355.982 233.051C358.434 233.051 360.314 234.51 360.72 236.736L359.141 236.736C358.734 235.322 357.516 234.465 355.937 234.465C353.741 234.465 352.297 236.12 352.297 238.662C352.297 241.203 353.741 242.858 355.937 242.858C357.531 242.858 358.795 242.001 359.201 240.662L360.765 240.662C360.299 242.828 358.358 244.272 355.907 244.272ZM365.175 245.565L365.175 244.272C363.189 244.152 361.881 243.023 361.79 241.264L363.294 241.264C363.324 242.226 364.031 242.858 365.175 242.978L365.175 239.233L364.633 239.113C362.858 238.707 361.941 237.714 361.941 236.165C361.941 234.45 363.219 233.232 365.175 233.066L365.175 231.758L366.137 231.758L366.137 233.051C367.957 233.217 369.115 234.33 369.221 236.074L367.762 236.074C367.701 235.112 367.115 234.495 366.137 234.36L366.137 238.09L366.724 238.225C368.529 238.631 369.401 239.579 369.401 241.083C369.401 242.873 368.123 244.076 366.137 244.257L366.137 245.565L365.175 245.565ZM364.934 237.804L365.175 237.864L365.175 234.36C364.061 234.51 363.385 235.157 363.385 236.12C363.385 236.992 363.881 237.548 364.934 237.804ZM366.423 239.534L366.137 239.474L366.137 242.948C367.265 242.798 367.957 242.151 367.957 241.203C367.957 240.331 367.461 239.775 366.423 239.534ZM378.834 241.91L377.541 241.91L377.541 244.106L376.127 244.106L376.127 241.91L370.501 241.91L370.501 240.602L375.63 233.232L377.541 233.232L377.541 240.602L378.834 240.602L378.834 241.91ZM372.096 240.602L376.127 240.602L376.127 234.796L372.096 240.602ZM380.289 238.677C380.289 235.307 382.034 233.021 384.772 233.021C387.494 233.021 389.239 235.307 389.239 238.677C389.239 242.061 387.569 244.302 384.772 244.302C381.959 244.302 380.289 242.061 380.289 238.677ZM381.748 238.677C381.748 241.354 382.861 242.978 384.772 242.978C386.682 242.978 387.78 241.354 387.78 238.677C387.78 235.969 386.682 234.345 384.772 234.345C382.861 234.345 381.748 235.969 381.748 238.677ZM390.718 238.677C390.718 235.307 392.463 233.021 395.201 233.021C397.923 233.021 399.668 235.307 399.668 238.677C399.668 242.061 397.998 244.302 395.201 244.302C392.388 244.302 390.718 242.061 390.718 238.677ZM392.177 238.677C392.177 241.354 393.29 242.978 395.201 242.978C397.111 242.978 398.209 241.354 398.209 238.677C398.209 235.969 397.111 234.345 395.201 234.345C393.29 234.345 392.177 235.969 392.177 238.677Z" fill="#050506"/>
<path d="M333.291 263.087L333.291 262.204L340.15 262.204L340.15 263.087L337.195 263.087L337.195 271.777L336.233 271.777L336.233 263.087L333.291 263.087ZM340.9 264.691C340.9 263.087 342.184 262.031 344.109 262.031C345.834 262.031 346.97 262.993 347.117 264.598L346.141 264.598C346.034 263.515 345.299 262.9 344.096 262.9C342.745 262.9 341.863 263.595 341.863 264.678C341.863 265.52 342.358 266.055 343.36 266.309L345.005 266.71C346.502 267.071 347.278 267.927 347.278 269.224C347.278 270.882 345.994 271.938 344.015 271.938C342.157 271.938 340.9 270.962 340.78 269.397L341.769 269.397C341.823 270.4 342.705 271.055 344.015 271.055C345.419 271.055 346.315 270.373 346.315 269.277C346.315 268.421 345.834 267.86 344.804 267.619L343.187 267.218C341.689 266.857 340.9 266.002 340.9 264.691ZM349.731 271.764L348.808 271.764L348.808 262.031L349.731 262.031L349.731 266.429C350.145 265.654 350.934 265.132 352.017 265.132C353.715 265.132 354.477 266.189 354.477 267.82L354.477 271.777L353.555 271.777L353.555 268.02C353.555 266.51 352.846 265.975 351.843 265.975C350.453 265.975 349.731 267.004 349.731 268.248L349.731 271.764ZM362.974 269.745L361.851 269.745L361.851 271.777L360.915 271.777L360.915 269.745L355.888 269.745L355.888 268.889L360.567 262.204L361.851 262.204L361.851 268.889L362.974 268.889L362.974 269.745ZM356.931 268.889L360.915 268.889L360.915 263.194L356.931 268.889ZM364.471 266.991C364.471 264.023 365.928 262.017 368.308 262.017C370.675 262.017 372.132 264.023 372.132 266.991C372.132 269.972 370.701 271.951 368.308 271.951C365.901 271.951 364.471 269.972 364.471 266.991ZM365.42 266.991C365.42 269.478 366.476 271.082 368.308 271.082C370.14 271.082 371.196 269.478 371.196 266.991C371.196 264.491 370.14 262.9 368.308 262.9C366.476 262.9 365.42 264.491 365.42 266.991ZM373.597 266.991C373.597 264.023 375.055 262.017 377.435 262.017C379.801 262.017 381.258 264.023 381.258 266.991C381.258 269.972 379.828 271.951 377.435 271.951C375.028 271.951 373.597 269.972 373.597 266.991ZM374.547 266.991C374.547 269.478 375.603 271.082 377.435 271.082C379.266 271.082 380.323 269.478 380.323 266.991C380.323 264.491 379.266 262.9 377.435 262.9C375.603 262.9 374.547 264.491 374.547 266.991ZM382.724 266.991C382.724 264.023 384.181 262.017 386.561 262.017C388.928 262.017 390.385 264.023 390.385 266.991C390.385 269.972 388.954 271.951 386.561 271.951C384.155 271.951 382.724 269.972 382.724 266.991ZM383.673 266.991C383.673 269.478 384.73 271.082 386.561 271.082C388.393 271.082 389.449 269.478 389.449 266.991C389.449 264.491 388.393 262.9 386.561 262.9C384.73 262.9 383.673 264.491 383.673 266.991ZM391.851 266.991C391.851 264.023 393.308 262.017 395.688 262.017C398.054 262.017 399.512 264.023 399.512 266.991C399.512 269.972 398.081 271.951 395.688 271.951C393.281 271.951 391.851 269.972 391.851 266.991ZM392.8 266.991C392.8 269.478 393.856 271.082 395.688 271.082C397.519 271.082 398.576 269.478 398.576 266.991C398.576 264.491 397.519 262.9 395.688 262.9C393.856 262.9 392.8 264.491 392.8 266.991Z" fill="#737373"/>
<line x1="51.4217" y1="292.73" x2="400.712" y2="292.73" stroke="#D8D8D8" stroke-width="0.835623" stroke-linecap="round"/>
<path d="M55.6375 324.518L54.6749 324.518L54.6749 314.945L55.6509 314.945L60.9187 322.913L60.9187 314.945L61.8679 314.945L61.8679 324.518L60.9187 324.518L55.6375 316.549L55.6375 324.518ZM66.7198 324.678C64.8212 324.678 63.5511 323.314 63.5511 321.282C63.5511 319.263 64.8079 317.873 66.6529 317.873C68.4044 317.873 69.5943 319.116 69.5943 320.948L69.5943 321.402L64.4469 321.402C64.5137 322.98 65.3427 323.889 66.7332 323.889C67.7894 323.889 68.4712 323.435 68.7119 322.579L69.5943 322.579C69.2467 323.943 68.244 324.678 66.7198 324.678ZM66.6529 318.662C65.4363 318.662 64.6341 319.464 64.4736 320.734L68.6718 320.734C68.6718 319.49 67.8696 318.662 66.6529 318.662ZM71.1014 324.518L70.0184 324.518L72.3314 321.282L70.0318 318.047L71.1147 318.047L72.9464 320.64L74.7647 318.047L75.8343 318.047L73.5347 321.295L75.821 324.518L74.7246 324.518L72.9063 321.924L71.1014 324.518ZM78.6769 324.518L77.7678 324.518L77.7678 318.822L76.4709 318.822L76.4709 318.047L77.7678 318.047L77.7678 316.001L78.6769 316.001L78.6769 318.047L79.9738 318.047L79.9738 318.822L78.6769 318.822L78.6769 324.518ZM84.081 315.827L84.081 314.945L90.9398 314.945L90.9398 315.827L87.985 315.827L87.985 324.518L87.0224 324.518L87.0224 315.827L84.081 315.827ZM94.6505 317.966L94.6505 318.795L94.1424 318.795C92.9525 318.795 92.1904 319.597 92.1904 320.827L92.1904 324.518L91.2679 324.518L91.2679 318.047L92.1369 318.047L92.2038 319.049C92.4578 318.354 93.1397 317.899 94.0488 317.899C94.2494 317.899 94.4232 317.913 94.6505 317.966ZM97.4742 324.678C96.097 324.678 95.2815 323.903 95.2815 322.766C95.2815 321.576 96.1906 320.827 97.7014 320.707L99.8406 320.533L99.8406 320.319C99.8406 319.049 99.0786 318.648 98.1293 318.648C97.0062 318.648 96.3377 319.156 96.3377 320.025L95.4954 320.025C95.4954 318.715 96.565 317.873 98.156 317.873C99.6535 317.873 100.75 318.621 100.75 320.333L100.75 324.518L99.9743 324.518L99.854 323.381C99.4529 324.197 98.5705 324.678 97.4742 324.678ZM97.6881 323.929C99.0518 323.929 99.8406 322.98 99.8406 321.576L99.8406 321.229L97.9287 321.376C96.7121 321.483 96.2174 322.017 96.2174 322.739C96.2174 323.528 96.8057 323.929 97.6881 323.929ZM103.524 324.518L102.601 324.518L102.601 318.047L103.403 318.047L103.537 319.17C103.965 318.341 104.82 317.873 105.756 317.873C107.535 317.873 108.27 318.929 108.27 320.56L108.27 324.518L107.347 324.518L107.347 320.761C107.347 319.25 106.665 318.715 105.596 318.715C104.272 318.715 103.524 319.678 103.524 321.135L103.524 324.518ZM109.482 322.699L110.364 322.699C110.364 323.448 110.926 323.916 111.835 323.916C112.838 323.916 113.426 323.488 113.426 322.793C113.426 322.258 113.159 321.951 112.397 321.763L111.287 321.483C110.164 321.202 109.616 320.614 109.616 319.731C109.616 318.595 110.565 317.873 111.955 317.873C113.319 317.873 114.202 318.621 114.242 319.825L113.346 319.825C113.319 319.076 112.798 318.635 111.929 318.635C111.02 318.635 110.512 319.023 110.512 319.718C110.512 320.212 110.859 320.56 111.568 320.734L112.677 321.015C113.801 321.295 114.309 321.817 114.309 322.753C114.309 323.916 113.319 324.678 111.849 324.678C110.391 324.678 109.482 323.903 109.482 322.699ZM115.105 318.047L116.095 318.047L116.095 316.79C116.095 315.332 116.897 314.771 117.886 314.771C118.114 314.771 118.381 314.784 118.595 314.824L118.595 315.613L118.047 315.613C117.231 315.613 117.017 316.028 117.017 316.79L117.017 318.047L118.541 318.047L118.541 318.822L117.017 318.822L117.017 324.518L116.095 324.518L116.095 318.822L115.105 318.822L115.105 318.047ZM122.315 324.678C120.416 324.678 119.146 323.314 119.146 321.282C119.146 319.263 120.403 317.873 122.248 317.873C123.999 317.873 125.189 319.116 125.189 320.948L125.189 321.402L120.042 321.402C120.109 322.98 120.938 323.889 122.328 323.889C123.384 323.889 124.066 323.435 124.307 322.579L125.189 322.579C124.842 323.943 123.839 324.678 122.315 324.678ZM122.248 318.662C121.031 318.662 120.229 319.464 120.069 320.734L124.267 320.734C124.267 319.49 123.465 318.662 122.248 318.662ZM130.047 317.966L130.047 318.795L129.539 318.795C128.349 318.795 127.587 319.597 127.587 320.827L127.587 324.518L126.664 324.518L126.664 318.047L127.533 318.047L127.6 319.049C127.854 318.354 128.536 317.899 129.445 317.899C129.646 317.899 129.82 317.913 130.047 317.966Z" fill="#737373"/>
<path d="M53.8125 347.494L53.8125 346.953L55.2415 346.953L55.2415 347.494C55.2415 348.562 55.8281 349.329 57.0314 349.329C58.2647 349.329 58.8062 348.577 58.8062 347.449L58.8062 339.643L60.2803 339.643L60.2803 347.509C60.2803 349.465 58.9717 350.698 57.0314 350.698C54.9557 350.698 53.8125 349.374 53.8125 347.494ZM67.5797 343.162L68.9786 343.162L68.9786 350.518L67.7151 350.518L67.5647 349.405C67.1435 350.172 66.1658 350.698 65.0829 350.698C63.3682 350.698 62.4055 349.54 62.4055 347.735L62.4055 343.162L63.8194 343.162L63.8194 347.269C63.8194 348.848 64.4963 349.45 65.5792 349.45C66.8728 349.45 67.5797 348.622 67.5797 347.043L67.5797 343.162ZM72.4438 350.518L71.0299 350.518L71.0299 343.162L72.3084 343.162L72.4588 344.291C72.9251 343.448 73.8577 342.952 74.8955 342.952C76.8358 342.952 77.7233 344.14 77.7233 346.02L77.7233 350.518L76.3094 350.518L76.3094 346.336C76.3094 344.847 75.6175 344.245 74.5345 344.245C73.2109 344.245 72.4438 345.193 72.4438 346.622L72.4438 350.518ZM82.8552 350.698C80.6893 350.698 79.2002 349.134 79.2002 346.848C79.2002 344.546 80.6592 342.952 82.7951 342.952C84.8858 342.952 86.2546 344.396 86.2546 346.577L86.2546 347.103L80.569 347.118C80.6743 348.668 81.4865 349.525 82.8853 349.525C83.9833 349.525 84.7053 349.074 84.946 348.231L86.2696 348.231C85.9086 349.811 84.6752 350.698 82.8552 350.698ZM82.7951 344.14C81.5617 344.14 80.7796 344.877 80.5991 346.171L84.8407 346.171C84.8407 344.952 84.0435 344.14 82.7951 344.14ZM93.7365 340.966L91.4502 340.966L91.4502 339.643L95.1504 339.643L95.1504 350.518L93.7365 350.518L93.7365 340.966ZM99.5463 349.931C99.5463 351.014 98.7341 351.916 97.6661 352.052L97.6661 351.42C98.2828 351.315 98.719 350.909 98.719 350.442C98.6137 350.503 98.4934 350.533 98.3129 350.533C97.8165 350.533 97.3954 350.172 97.3954 349.615C97.3954 349.013 97.8015 348.577 98.4032 348.577C99.0349 348.577 99.5463 349.104 99.5463 349.931ZM112.704 350.503L105.364 350.518L105.364 349.389L108.869 346.366C110.629 344.847 111.125 344.11 111.125 342.952C111.125 341.583 110.343 340.771 109.034 340.771C107.696 340.771 106.823 341.749 106.793 343.298L105.319 343.298C105.364 340.966 106.838 339.447 109.049 339.447C111.23 339.447 112.629 340.771 112.629 342.862C112.629 344.411 111.862 345.509 109.937 347.178L107.681 349.134L112.704 349.134L112.704 350.503ZM114.061 345.088C114.061 341.718 115.806 339.432 118.543 339.432C121.266 339.432 123.011 341.718 123.011 345.088C123.011 348.472 121.341 350.713 118.543 350.713C115.731 350.713 114.061 348.472 114.061 345.088ZM115.52 345.088C115.52 347.765 116.633 349.389 118.543 349.389C120.454 349.389 121.552 347.765 121.552 345.088C121.552 342.38 120.454 340.756 118.543 340.756C116.633 340.756 115.52 342.38 115.52 345.088ZM131.785 350.503L124.445 350.518L124.445 349.389L127.95 346.366C129.709 344.847 130.206 344.11 130.206 342.952C130.206 341.583 129.424 340.771 128.115 340.771C126.776 340.771 125.904 341.749 125.874 343.298L124.4 343.298C124.445 340.966 125.919 339.447 128.13 339.447C130.311 339.447 131.71 340.771 131.71 342.862C131.71 344.411 130.943 345.509 129.017 347.178L126.761 349.134L131.785 349.134L131.785 350.503ZM140.955 348.322L139.662 348.322L139.662 350.518L138.248 350.518L138.248 348.322L132.622 348.322L132.622 347.013L137.751 339.643L139.662 339.643L139.662 347.013L140.955 347.013L140.955 348.322ZM134.217 347.013L138.248 347.013L138.248 341.207L134.217 347.013Z" fill="#050506"/>
<rect x="301.691" y="314.969" width="98.6035" height="35.0962" rx="17.5481" stroke="#6584DB" stroke-width="1.67125"/>
<path d="M331.598 337.518L330.475 337.518L330.475 329.059L331.598 329.059L334.511 336.172L337.424 329.059L338.57 329.059L338.57 337.518L337.447 337.518L337.447 334.172C337.447 332.592 337.459 332.019 337.518 331.423L335.049 337.518L333.973 337.518L331.516 331.446C331.575 331.855 331.598 332.721 331.598 333.903L331.598 337.518ZM342.026 337.658C340.797 337.658 340.072 336.968 340.072 335.927C340.072 334.874 340.856 334.219 342.201 334.113L344.003 333.973L344.003 333.809C344.003 332.85 343.429 332.511 342.657 332.511C341.733 332.511 341.207 332.92 341.207 333.61L340.247 333.61C340.247 332.417 341.23 331.633 342.704 331.633C344.12 331.633 345.079 332.382 345.079 333.926L345.079 337.518L344.143 337.518L344.026 336.593C343.734 337.249 342.95 337.658 342.026 337.658ZM342.341 336.804C343.383 336.804 344.014 336.125 344.014 335.049L344.014 334.745L342.552 334.862C341.581 334.956 341.183 335.33 341.183 335.891C341.183 336.5 341.628 336.804 342.341 336.804ZM347.702 337.518L346.602 337.518L346.602 331.797L347.596 331.797L347.713 332.674C348.076 332.019 348.801 331.633 349.609 331.633C351.118 331.633 351.808 332.557 351.808 334.02L351.808 337.518L350.708 337.518L350.708 334.265C350.708 333.107 350.17 332.639 349.328 332.639C348.298 332.639 347.702 333.376 347.702 334.488L347.702 337.518ZM355.004 337.658C353.776 337.658 353.05 336.968 353.05 335.927C353.05 334.874 353.834 334.219 355.179 334.113L356.981 333.973L356.981 333.809C356.981 332.85 356.408 332.511 355.636 332.511C354.711 332.511 354.185 332.92 354.185 333.61L353.226 333.61C353.226 332.417 354.208 331.633 355.682 331.633C357.098 331.633 358.057 332.382 358.057 333.926L358.057 337.518L357.121 337.518L357.004 336.593C356.712 337.249 355.928 337.658 355.004 337.658ZM355.32 336.804C356.361 336.804 356.993 336.125 356.993 335.049L356.993 334.745L355.53 334.862C354.559 334.956 354.162 335.33 354.162 335.891C354.162 336.5 354.606 336.804 355.32 336.804ZM359.218 334.511C359.218 332.897 360.259 331.633 361.92 331.633C362.844 331.633 363.558 332.054 363.92 332.768L364.002 331.797L364.985 331.797L364.985 337.284C364.985 339.085 363.874 340.232 362.119 340.232C360.563 340.232 359.498 339.354 359.288 337.904L360.387 337.904C360.528 338.746 361.16 339.237 362.119 339.237C363.195 339.237 363.897 338.535 363.897 337.447L363.897 336.301C363.523 336.968 362.774 337.365 361.873 337.365C360.247 337.365 359.218 336.114 359.218 334.511ZM360.317 334.488C360.317 335.564 360.984 336.406 362.06 336.406C363.172 336.406 363.85 335.611 363.85 334.488C363.85 333.388 363.195 332.592 362.072 332.592C360.972 332.592 360.317 333.435 360.317 334.488ZM369.04 337.658C367.356 337.658 366.198 336.441 366.198 334.663C366.198 332.873 367.332 331.633 368.994 331.633C370.62 331.633 371.684 332.756 371.684 334.453L371.684 334.862L367.262 334.874C367.344 336.079 367.976 336.745 369.064 336.745C369.918 336.745 370.479 336.395 370.667 335.739L371.696 335.739C371.415 336.968 370.456 337.658 369.04 337.658ZM368.994 332.557C368.034 332.557 367.426 333.131 367.286 334.137L370.585 334.137C370.585 333.189 369.965 332.557 368.994 332.557Z" fill="#6584DB"/>
</g>
<defs>
<filter id="filter0_dd_10218_8660" x="21.3398" y="51.0436" width="409.455" height="333.413" filterUnits="userSpaceOnUse" color-interpolation-filters="sRGB">
<feFlood flood-opacity="0" result="BackgroundImageFix"/>
<feColorMatrix in="SourceAlpha" type="matrix" values="0 0 0 0 0 0 0 0 0 0 0 0 0 0 0 0 0 0 127 0" result="hardAlpha"/>
<feMorphology radius="1.67125" operator="erode" in="SourceAlpha" result="effect1_dropShadow_10218_8660"/>
<feOffset dy="1.67125"/>
<feGaussianBlur stdDeviation="1.67125"/>
<feColorMatrix type="matrix" values="0 0 0 0 0.0627451 0 0 0 0 0.0941176 0 0 0 0 0.156863 0 0 0 0.06 0"/>
<feBlend mode="normal" in2="BackgroundImageFix" result="effect1_dropShadow_10218_8660"/>
<feColorMatrix in="SourceAlpha" type="matrix" values="0 0 0 0 0 0 0 0 0 0 0 0 0 0 0 0 0 0 127 0" result="hardAlpha"/>
<feMorphology radius="1.67125" operator="erode" in="SourceAlpha" result="effect2_dropShadow_10218_8660"/>
<feOffset dy="3.34249"/>
<feGaussianBlur stdDeviation="3.34249"/>
<feColorMatrix type="matrix" values="0 0 0 0 0.0627451 0 0 0 0 0.0941176 0 0 0 0 0.156863 0 0 0 0.1 0"/>
<feBlend mode="normal" in2="effect1_dropShadow_10218_8660" result="effect2_dropShadow_10218_8660"/>
<feBlend mode="normal" in="SourceGraphic" in2="effect2_dropShadow_10218_8660" result="shape"/>
</filter>
</defs>
</svg>
