<svg preserveAspectRatio="none" width="100%" height="100%" overflow="visible" style="display: block;" viewBox="0 0 14 14" fill="none" xmlns="http://www.w3.org/2000/svg">
<g id="Group">
<g id="Vector">
</g>
<path id="Vector_2" d="M8.57908 3.28767L11.879 6.58758C11.9884 6.69697 12.0498 6.84532 12.0498 7C12.0498 7.15468 11.9884 7.30303 11.879 7.41242L8.57908 10.7123C8.46907 10.8186 8.32171 10.8774 8.16877 10.8761C8.01582 10.8747 7.86951 10.8134 7.76136 10.7052C7.6532 10.5971 7.59185 10.4508 7.59052 10.2978C7.58919 10.1449 7.64799 9.99752 7.75425 9.8875L10.0584 7.58333H2.33333C2.17862 7.58333 2.03025 7.52188 1.92085 7.41248C1.81146 7.30308 1.75 7.15471 1.75 7C1.75 6.84529 1.81146 6.69692 1.92085 6.58752C2.03025 6.47813 2.17862 6.41667 2.33333 6.41667H10.0584L7.75425 4.1125C7.69854 4.05869 7.6541 3.99432 7.62352 3.92315C7.59295 3.85198 7.57686 3.77544 7.57619 3.69798C7.57551 3.62053 7.59027 3.54372 7.6196 3.47203C7.64893 3.40034 7.69225 3.33521 7.74702 3.28044C7.80179 3.22567 7.86692 3.18235 7.93861 3.15302C8.0103 3.12369 8.08711 3.10893 8.16457 3.1096C8.24202 3.11028 8.31857 3.12637 8.38974 3.15694C8.4609 3.18751 8.52527 3.23195 8.57908 3.28767Z" fill="var(--fill-0, #2D4893)"/>
</g>
</svg>
