<svg preserveAspectRatio="none" width="100%" height="100%" overflow="visible" style="display: block;" viewBox="0 0 32 32" fill="none" xmlns="http://www.w3.org/2000/svg">
<g id="Group">
<g id="Vector">
</g>
<path id="Vector_2" fill-rule="evenodd" clip-rule="evenodd" d="M14.5623 3.82505C14.7091 3.57326 14.9192 3.36435 15.1719 3.21915C15.4246 3.07395 15.7109 2.99754 16.0023 2.99754C16.2937 2.99754 16.5801 3.07395 16.8327 3.21915C17.0854 3.36435 17.2956 3.57326 17.4423 3.82505L21.169 10.2224L28.4063 11.7904C28.691 11.8522 28.9545 11.9876 29.1705 12.1831C29.3866 12.3785 29.5476 12.6272 29.6376 12.9043C29.7276 13.1814 29.7434 13.4772 29.6834 13.7623C29.6234 14.0474 29.4897 14.3117 29.2957 14.529L24.3623 20.0504L25.109 27.4171C25.1384 27.7071 25.0913 27.9999 24.9722 28.266C24.8532 28.5322 24.6664 28.7624 24.4305 28.9338C24.1946 29.1052 23.9179 29.2117 23.628 29.2427C23.3381 29.2736 23.0451 29.228 22.7783 29.1104L16.0023 26.1237L9.22633 29.1104C8.95955 29.228 8.66658 29.2736 8.37666 29.2427C8.08675 29.2117 7.81004 29.1052 7.57415 28.9338C7.33827 28.7624 7.15148 28.5322 7.03242 28.266C6.91336 27.9999 6.8662 27.7071 6.89566 27.4171L7.64233 20.0504L2.70899 14.5304C2.51463 14.3131 2.38067 14.0486 2.32048 13.7633C2.26029 13.4781 2.27598 13.182 2.36598 12.9047C2.45599 12.6274 2.61716 12.3786 2.8334 12.183C3.04964 11.9875 3.3134 11.8521 3.59833 11.7904L10.8357 10.2224L14.5623 3.82505ZM16.0023 6.65038L12.9183 11.9464C12.8017 12.1463 12.6447 12.3197 12.4574 12.4556C12.2701 12.5915 12.0565 12.6869 11.8303 12.7357L5.84099 14.033L9.92366 18.6024C10.2357 18.9517 10.3863 19.4157 10.3397 19.881L9.72233 25.9784L15.3303 23.5064C15.5421 23.4131 15.7709 23.3649 16.0023 23.3649C16.2337 23.3649 16.4626 23.4131 16.6743 23.5064L22.2823 25.9784L21.665 19.881C21.6415 19.6508 21.6663 19.4182 21.7377 19.1981C21.8091 18.9779 21.9256 18.775 22.0797 18.6024L26.1637 14.033L20.1743 12.7357C19.9481 12.6869 19.7345 12.5915 19.5472 12.4556C19.3599 12.3197 19.2029 12.1463 19.0863 11.9464L16.0023 6.65038Z" fill="var(--fill-0, white)"/>
</g>
</svg>
