<svg preserveAspectRatio="none" width="100%" height="100%" overflow="visible" style="display: block;" viewBox="0 0 32 32" fill="none" xmlns="http://www.w3.org/2000/svg">
<g id="Group">
<g id="Vector">
</g>
<path id="Vector_2" d="M18.6705 3.99993C19.7313 3.99993 20.7488 4.42136 21.4989 5.1715C22.2491 5.92165 22.6705 6.93907 22.6705 7.99993H26.6705C27.3777 7.99993 28.056 8.28088 28.5561 8.78098C29.0562 9.28108 29.3371 9.95935 29.3371 10.6666V25.3333C29.3371 26.0405 29.0562 26.7188 28.5561 27.2189C28.056 27.719 27.3777 27.9999 26.6705 27.9999H5.33715C4.6299 27.9999 3.95163 27.719 3.45153 27.2189C2.95143 26.7188 2.67048 26.0405 2.67048 25.3333V10.6666C2.67048 9.95935 2.95143 9.28108 3.45153 8.78098C3.95163 8.28088 4.6299 7.99993 5.33715 7.99993H9.33715C9.33715 6.93907 9.75857 5.92165 10.5087 5.1715C11.2589 4.42136 12.2763 3.99993 13.3371 3.99993H18.6705ZM14.6705 15.9999H5.33715V25.3333H26.6705V15.9999H17.3371V17.3333C17.3368 17.6731 17.2066 18 16.9733 18.2471C16.7401 18.4942 16.4212 18.6429 16.082 18.6628C15.7427 18.6827 15.4086 18.5724 15.148 18.3542C14.8874 18.1361 14.72 17.8267 14.6798 17.4893L14.6705 17.3333V15.9999ZM26.6705 10.6666H5.33715V13.3333H26.6705V10.6666ZM18.6705 6.6666H13.3371C13.0106 6.66664 12.6954 6.78654 12.4513 7.00355C12.2073 7.22056 12.0514 7.5196 12.0131 7.84393L12.0038 7.99993H20.0038C20.0038 7.67335 19.8839 7.35815 19.6669 7.1141C19.4498 6.87006 19.1508 6.71414 18.8265 6.67593L18.6705 6.6666Z" fill="var(--fill-0, white)"/>
</g>
</svg>
