<svg preserveAspectRatio="none" width="100%" height="100%" overflow="visible" style="display: block;" viewBox="0 0 20 20" fill="none" xmlns="http://www.w3.org/2000/svg">
<g id="Group">
<g id="Vector">
</g>
<path id="Vector_2" fill-rule="evenodd" clip-rule="evenodd" d="M17.1197 4.41532C17.2712 4.56683 17.3562 4.7723 17.3562 4.98653C17.3562 5.20077 17.2712 5.40623 17.1197 5.55775L8.03683 14.6414C7.9543 14.724 7.85631 14.7895 7.74845 14.8342C7.6406 14.8789 7.525 14.9019 7.40825 14.9019C7.29151 14.9019 7.17591 14.8789 7.06805 14.8342C6.9602 14.7895 6.86221 14.724 6.77968 14.6414L2.26652 10.1283C2.19146 10.0532 2.13191 9.96408 2.09129 9.866C2.05066 9.76792 2.02975 9.6628 2.02975 9.55664C2.02975 9.45048 2.05066 9.34536 2.09129 9.24729C2.13191 9.14921 2.19146 9.06009 2.26652 8.98503C2.34159 8.90996 2.43071 8.85041 2.52878 8.80979C2.62686 8.76916 2.73198 8.74825 2.83814 8.74825C2.9443 8.74825 3.04942 8.76916 3.1475 8.80979C3.24558 8.85041 3.33469 8.90996 3.40976 8.98503L7.40906 12.9843L15.9765 4.41532C16.128 4.26385 16.3334 4.17877 16.5477 4.17877C16.7619 4.17877 16.9682 4.26385 17.1197 4.41532Z" fill="var(--fill-0, #1A2238)"/>
</g>
</svg>
