<svg preserveAspectRatio="none" width="100%" height="100%" overflow="visible" style="display: block;" viewBox="0 0 20 20" fill="none" xmlns="http://www.w3.org/2000/svg">
<g id="tiktok-fill">
<path id="Vector" d="M13.3333 6.87114V12.9167C13.3333 15.9082 10.9082 18.3333 7.91667 18.3333C4.92512 18.3333 2.5 15.9082 2.5 12.9167C2.5 9.92508 4.92512 7.5 7.91667 7.5C8.34692 7.5 8.76542 7.55016 9.16667 7.64494V10.2807C8.78783 10.1007 8.364 10 7.91667 10C6.30583 10 5 11.3058 5 12.9167C5 14.5275 6.30583 15.8333 7.91667 15.8333C9.5275 15.8333 10.8333 14.5275 10.8333 12.9167V1.66667H13.3333C13.3333 3.96785 15.1988 5.83333 17.5 5.83333V8.33333C15.9234 8.33333 14.4747 7.78607 13.3333 6.87114Z" fill="var(--fill-0, black)"/>
</g>
</svg>
