<svg width="28" height="24" viewBox="0 0 28 24" fill="none" xmlns="http://www.w3.org/2000/svg">
<path d="M0 0H27.0344V24H0V0Z" fill="#012169"/>
<path d="M27.0344 0V3L17.0021 12L27.0344 20.7656V24H23.4968L13.4117 15.1875L3.59052 24H0V20.8125L9.82111 12.0469L0 3.46875V0H3.27371L13.4117 8.8125L23.2327 0H27.0344Z" fill="white"/>
<path d="M9.71548 15.1875L10.2963 16.7812L2.21768 24H0V23.8594L9.71548 15.1875ZM16.2629 14.625L19.1142 15L27.0344 21.8906V24L16.2629 14.625ZM27.0344 0L16.8965 9.1875L16.6854 7.125L24.6056 0H27.0344ZM0 0.046875L10.1907 8.90625L7.07543 8.53125L0 2.29688V0.046875Z" fill="#C8102E"/>
<path d="M9.29306 0V24H17.7413V0H9.29306ZM0 8.25V15.75H27.0344V8.25H0Z" fill="white"/>
<path d="M0 9.75V14.25H27.0344V9.75H0ZM10.9827 0V24H16.0517V0H10.9827Z" fill="#C8102E"/>
</svg>
