<svg preserveAspectRatio="none" width="100%" height="100%" overflow="visible" style="display: block;" viewBox="0 0 59 19" fill="none" xmlns="http://www.w3.org/2000/svg">
<g id="TEXT">
<path id="Vector" d="M0.000810809 6.11028H3.17867L5.27928 11.6581C5.79197 13.1004 6.2089 14.3452 6.35453 15.0055C6.65838 13.867 7.03417 12.749 7.47965 11.6581L9.67402 6.11028H12.7541L7.71904 18.1833H4.78655L0.000810809 6.11028Z" fill="var(--fill-0, #414042)"/>
<path id="Vector_2" d="M13.1749 12.1468C13.1749 8.35656 15.6425 5.74326 19.1855 5.74326C22.8042 5.74326 25.1003 8.16306 25.1003 11.9274V12.8311L16.0096 12.855C16.229 14.9816 17.3542 16.0568 19.3331 16.0568C20.9709 16.0568 22.0461 15.4205 22.3873 14.2734H25.1502C24.6355 16.9126 22.4371 18.5006 19.2832 18.5006C15.6904 18.4966 13.1749 15.8853 13.1749 12.1468ZM16.0814 10.9499H22.1439C22.1439 9.28817 20.9948 8.18899 19.2114 8.18899C17.428 8.18899 16.3747 9.14055 16.0814 10.9479V10.9499Z" fill="var(--fill-0, #414042)"/>
<path id="Vector_3" d="M27.5443 18.1834V-3.72347e-05H30.5027V18.1834H27.5443Z" fill="var(--fill-0, #414042)"/>
<path id="Vector_4" d="M39.3679 5.76722C43.1064 5.76722 45.8194 8.36057 45.8194 12.1229C45.8194 15.8853 43.1124 18.4767 39.3679 18.4767C35.6235 18.4767 32.9165 15.8833 32.9165 12.1229C32.9165 8.36257 35.6335 5.76722 39.3679 5.76722ZM39.3679 15.8115C41.4207 15.8115 42.8391 14.3213 42.8391 12.1229C42.8391 9.92457 41.4207 8.43239 39.3679 8.43239C37.3152 8.43239 35.8968 9.92257 35.8968 12.1229C35.8968 14.3233 37.3212 15.8115 39.3679 15.8115Z" fill="var(--fill-0, #414042)"/>
<path id="Vector_5" d="M46.3641 18.1833L50.5194 12.2685L46.3641 6.11028H49.8352L52.4983 10.2158L55.0638 6.11028H58.4132L54.3077 12.2206L58.2975 18.1833H54.8683L52.3028 14.1936L49.7613 18.1833H46.3641Z" fill="var(--fill-0, #414042)"/>
</g>
</svg>
