<svg preserveAspectRatio="none" width="100%" height="100%" overflow="visible" style="display: block;" viewBox="0 0 25 27" fill="none" xmlns="http://www.w3.org/2000/svg">
<g id="ICON">
<path id="Vector" d="M16.5925 0L14.7812 5.74328H1.53911L0.228464 3.122C0.063682 2.7933 -0.0142324 2.42789 0.0021362 2.06056C0.0185048 1.69323 0.128612 1.3362 0.321977 1.02346C0.515342 0.710717 0.785531 0.452666 1.10683 0.273868C1.42812 0.0950702 1.78983 0.00147629 2.15752 0.00199531L16.5925 0Z" fill="var(--fill-0, #FCDE2F)"/>
<path id="Vector_2" d="M9.70015 22.0736L11.1385 17.5153H19.0342L15.1582 25.2654C14.9788 25.6237 14.7032 25.9249 14.3624 26.1355C14.0215 26.346 13.6288 26.4575 13.2281 26.4575C12.8275 26.4575 12.4347 26.346 12.0938 26.1355C11.753 25.9249 11.4774 25.6237 11.2981 25.2654L9.70015 22.0736Z" fill="var(--fill-0, #FCDE2F)"/>
<path id="Vector_3" d="M12.9961 11.6262L11.1389 17.5091H7.42239L4.47993 11.6262H12.9283L14.7815 5.74329H24.9176L21.9751 11.6262H12.9961Z" fill="var(--fill-0, #6584DB)"/>
</g>
</svg>
