<svg width="32" height="33" viewBox="0 0 32 33" fill="none" xmlns="http://www.w3.org/2000/svg">
<path d="M23.0253 20.8585C22.6213 21.2611 22.4 21.7971 22.4 22.3665C22.4 23.5425 23.3573 24.4998 24.5333 24.4998C25.1026 24.4998 25.6386 24.2785 26.0413 23.8745C26.4453 23.4718 26.6666 22.9358 26.6666 22.3665C26.6666 21.7971 26.4453 21.2611 26.0413 20.8585C25.2346 20.0518 23.8319 20.0518 23.0253 20.8585ZM25.2866 23.1198C25.0853 23.3224 24.8173 23.4331 24.5333 23.4331C23.9453 23.4331 23.4666 22.9545 23.4666 22.3665C23.4666 22.0825 23.5773 21.8144 23.78 21.6131C23.9813 21.4105 24.2493 21.2998 24.5333 21.2998C24.8173 21.2998 25.0853 21.4105 25.2866 21.6131C25.4893 21.8145 25.5999 22.0825 25.5999 22.3665C25.5999 22.6504 25.4893 22.9185 25.2866 23.1198ZM9.06646 17.0331C6.12646 17.0331 3.73313 19.4265 3.73313 22.3665C3.73313 25.3065 6.12646 27.6998 9.06646 27.6998C12.0065 27.6998 14.3998 25.3065 14.3998 22.3665C14.3998 19.4265 12.0065 17.0331 9.06646 17.0331ZM9.06646 26.6331C6.71447 26.6331 4.7998 24.7184 4.7998 22.3665C4.7998 20.0145 6.71447 18.0998 9.06646 18.0998C11.4185 18.0998 13.3331 20.0145 13.3331 22.3665C13.3331 24.7184 11.4185 26.6331 9.06646 26.6331ZM7.9998 21.0332C7.9998 21.4746 8.35847 21.8332 8.79981 21.8332H9.33315C10.3625 21.8332 11.1998 22.6706 11.1998 23.6999C11.1998 24.6372 10.5025 25.4092 9.59983 25.5399V25.5666C9.59983 25.8612 9.36116 26.0999 9.0665 26.0999C8.77183 26.0999 8.53316 25.8612 8.53316 25.5666V25.5399C7.63051 25.4092 6.93316 24.6386 6.93316 23.6999C6.93316 23.4052 7.17183 23.1666 7.4665 23.1666C7.76116 23.1666 7.99983 23.4052 7.99983 23.6999C7.99983 24.1413 8.3585 24.4999 8.79985 24.4999H9.33318C9.77452 24.4999 10.1332 24.1413 10.1332 23.6999C10.1332 23.2586 9.77452 22.8999 9.33318 22.8999H8.79985C7.77052 22.8999 6.93316 22.0626 6.93316 21.0332C6.93316 20.0959 7.63051 19.3239 8.53316 19.1932V19.1666C8.53316 18.8719 8.77183 18.6332 9.0665 18.6332C9.36116 18.6332 9.59983 18.8719 9.59983 19.1666V19.1932C10.5025 19.3239 11.1998 20.0946 11.1998 21.0332C11.1998 21.3279 10.9612 21.5665 10.6665 21.5665C10.3718 21.5665 10.1332 21.3279 10.1332 21.0332C10.1332 20.5919 9.77449 20.2332 9.33315 20.2332H8.79981C8.35847 20.2332 7.9998 20.5919 7.9998 21.0332ZM30.9333 18.6332H29.8666V13.8334C29.8666 12.9508 29.1493 12.2334 28.2666 12.2334H27.7333V9.56677C27.7333 8.68412 27.016 7.96678 26.1333 7.96678H20.2398C20.1132 6.03614 19.3065 4.23226 17.9225 2.84133C16.4065 1.332 14.3972 0.5 12.2666 0.5C10.136 0.5 8.12657 1.332 6.60797 2.84267C5.2253 4.23199 4.41996 6.036 4.29332 7.96675H2.66667C1.96134 7.96675 1.29201 8.24274 0.777318 8.74942C0.275968 9.25876 0 9.92807 0 10.6334V30.9C0 31.7827 0.717346 32.5 1.6 32.5H28.2667C29.1493 32.5 29.8667 31.7827 29.8667 30.9V26.1002H30.9333C31.5213 26.1002 32 25.6215 32 25.0335V19.7002C32 19.1122 31.5213 18.6332 30.9333 18.6332ZM26.6666 9.56677V12.2334H19.3399C19.3532 12.2081 19.3626 12.1814 19.3759 12.1561C19.6079 11.7094 19.7946 11.2428 19.9372 10.7628C19.9572 10.6974 19.9732 10.6308 19.9919 10.5655C20.0426 10.3761 20.0866 10.1854 20.1226 9.99212C20.1346 9.93212 20.1479 9.87212 20.1572 9.81212C20.1986 9.56545 20.2279 9.31613 20.2466 9.06545C20.2466 9.05345 20.2479 9.04412 20.2492 9.03345H26.1331C26.4278 9.03345 26.6666 9.27211 26.6666 9.56677ZM7.36253 3.59756C8.67854 2.28824 10.4198 1.5669 12.2665 1.5669C14.1131 1.5669 15.8546 2.28824 17.169 3.59623C18.4784 4.91223 19.1997 6.65354 19.1997 8.50014C19.1997 8.67348 19.193 8.84414 19.1797 9.01614C19.1757 9.07347 19.1677 9.12947 19.161 9.1868C19.1504 9.30014 19.1384 9.41347 19.1224 9.52547C19.113 9.59214 19.0984 9.6588 19.0864 9.72547C19.069 9.82547 19.0504 9.9268 19.029 10.0255C19.013 10.0961 18.993 10.1655 18.9757 10.2361C18.9517 10.3295 18.9277 10.4241 18.8997 10.5161C18.8784 10.5868 18.853 10.6575 18.829 10.7268C18.7984 10.8175 18.7677 10.9068 18.733 10.9961C18.7064 11.0655 18.677 11.1335 18.6477 11.2015C18.6104 11.2895 18.5717 11.3775 18.5304 11.4655C18.4984 11.5321 18.465 11.5975 18.4317 11.6628C18.3864 11.7495 18.3397 11.8361 18.2904 11.9228C18.2544 11.9841 18.2184 12.0455 18.181 12.1068C18.1544 12.1495 18.1264 12.1908 18.0984 12.2335H15.2384C15.385 11.9001 15.4664 11.5388 15.4664 11.1668C15.4664 9.69613 14.2704 8.50014 12.7997 8.50014V5.30015C13.6824 5.30015 14.3997 6.01749 14.3997 6.90014C14.3997 7.19481 14.6384 7.43348 14.933 7.43348C15.2277 7.43348 15.4664 7.19481 15.4664 6.90014C15.4664 5.42948 14.2704 4.23349 12.7997 4.23349V3.16682C12.7997 2.87216 12.561 2.63349 12.2664 2.63349C11.9717 2.63349 11.733 2.87216 11.733 3.16682V4.23349C10.2624 4.23349 9.06636 5.42948 9.06636 6.90014C9.06636 8.37081 10.2624 9.5668 11.733 9.5668V12.2335H10.5557C10.2904 11.9401 10.133 11.5641 10.133 11.1668C10.133 10.8721 9.89436 10.6335 9.5997 10.6335C9.30503 10.6335 9.06636 10.8721 9.06636 11.1668C9.06636 11.5374 9.14503 11.9001 9.2917 12.2335H6.43303C6.39837 12.1788 6.3637 12.1255 6.33036 12.0708C6.29303 12.0095 6.2557 11.9481 6.2197 11.8855C6.17303 11.8015 6.12903 11.7161 6.08503 11.6308C6.0517 11.5655 6.01837 11.5001 5.98637 11.4348C5.94636 11.3495 5.90903 11.2615 5.87303 11.1748C5.84503 11.1068 5.8157 11.0401 5.78903 10.9721C5.75437 10.8828 5.72503 10.7935 5.69437 10.7028C5.6717 10.6348 5.64637 10.5655 5.62637 10.4961C5.59837 10.4028 5.5757 10.3081 5.55037 10.2135C5.53303 10.1455 5.51303 10.0775 5.49837 10.0095C5.4757 9.9108 5.4597 9.80947 5.44237 9.70947C5.43037 9.64413 5.41704 9.5788 5.4077 9.51347C5.3917 9.40147 5.38104 9.28813 5.37037 9.1748C5.36503 9.12013 5.35703 9.06547 5.35303 9.00947C5.3397 8.84147 5.33303 8.6708 5.33303 8.50013C5.33303 6.65346 6.05454 4.91203 7.36253 3.59756ZM12.8 12.2336V9.56695C13.6826 9.56695 14.4 10.2843 14.4 11.1669C14.4 11.5643 14.2493 11.9389 13.9866 12.2336H12.8ZM10.1333 6.90029C10.1333 6.01764 10.8506 5.30029 11.7333 5.30029V8.50028C10.8506 8.50028 10.1333 7.78294 10.1333 6.90029ZM1.53204 9.50428C1.84004 9.20028 2.2427 9.03361 2.6667 9.03361H4.28404C4.28537 9.04428 4.28671 9.05361 4.28804 9.06428C4.30537 9.31495 4.33604 9.56426 4.37737 9.81094C4.38804 9.87228 4.40137 9.93094 4.41204 9.99094C4.44804 10.1843 4.49204 10.3749 4.54271 10.5643C4.56004 10.6309 4.57737 10.6963 4.59737 10.7616C4.73871 11.2416 4.92671 11.7083 5.1587 12.1549C5.17203 12.1803 5.18136 12.2069 5.1947 12.2323L2.66671 12.2336C1.78406 12.2336 1.06671 11.5162 1.06671 10.6336C1.06671 10.2096 1.23337 9.80694 1.53204 9.50428ZM28.8001 30.9003C28.8001 31.195 28.5615 31.4337 28.2668 31.4337H1.60014C1.30547 31.4337 1.0668 31.195 1.0668 30.9003V12.7657C1.08814 12.7817 1.11214 12.7924 1.13347 12.8084C1.17614 12.839 1.22147 12.8644 1.2668 12.8924C1.35747 12.9497 1.45214 13.0004 1.54947 13.0457C1.60014 13.0697 1.6508 13.0924 1.70414 13.1124C1.80814 13.1524 1.9148 13.1844 2.02414 13.2124C2.07347 13.2244 2.12147 13.2404 2.17214 13.2497C2.33214 13.2804 2.49747 13.3004 2.6668 13.3004H28.2668C28.5615 13.3004 28.8001 13.539 28.8001 13.8337V18.6335H24.5335C23.5308 18.6335 22.5935 19.0228 21.8948 19.7282C21.5228 20.1002 21.2308 20.5495 21.0561 21.0122C21.0228 21.0895 20.9975 21.1668 20.9681 21.2522C20.9308 21.3708 20.9001 21.4882 20.8748 21.6055C20.8708 21.6215 20.8681 21.6428 20.8668 21.6642C20.8455 21.7668 20.8281 21.8735 20.8175 21.9802C20.8175 21.9882 20.8161 22.0002 20.8161 22.0135C20.8055 22.1028 20.8001 22.1935 20.8001 22.2815V22.3668C20.8001 22.4975 20.8068 22.6215 20.8188 22.7468C21.0148 24.6588 22.6108 26.1002 24.5335 26.1002H28.8002L28.8001 30.9003ZM30.9335 25.0335H24.5335C23.1602 25.0335 22.0201 24.0042 21.8801 22.6389C21.8708 22.5495 21.8668 22.4602 21.8668 22.3669V22.2815C21.8668 22.2322 21.8695 22.1842 21.8775 22.1349C21.8801 22.1189 21.8815 22.0949 21.8828 22.0722C21.8908 21.9989 21.9028 21.9242 21.9188 21.8535C21.9228 21.8362 21.9255 21.8135 21.9282 21.7895C21.9441 21.7162 21.9641 21.6455 21.9841 21.5802C22.0001 21.5295 22.0161 21.4789 22.0455 21.4095C22.1748 21.0695 22.3842 20.7482 22.6508 20.4815C23.1495 19.9775 23.8188 19.7002 24.5335 19.7002H30.9335L30.9335 25.0335Z" fill="white"/>
</svg>
