<svg width="156" height="168" viewBox="0 0 156 168" fill="none" xmlns="http://www.w3.org/2000/svg">
<g clip-path="url(#clip0_10077_7712)">
<path d="M132.685 144.911C162.803 114.948 162.803 66.3685 132.685 36.4056C102.567 6.44267 53.7356 6.44267 23.6176 36.4056C-6.5005 66.3685 -6.50049 114.948 23.6176 144.911C53.7356 174.874 102.567 174.874 132.685 144.911Z" fill="#EAEAEB"/>
<mask id="mask0_10077_7712" style="mask-type:luminance" maskUnits="userSpaceOnUse" x="1" y="13" width="155" height="155">
<path d="M132.685 144.911C162.803 114.948 162.803 66.3685 132.685 36.4056C102.567 6.44266 53.7356 6.44266 23.6176 36.4056C-6.50049 66.3685 -6.50049 114.948 23.6176 144.911C53.7357 174.874 102.567 174.874 132.685 144.911Z" fill="white"/>
</mask>
<g mask="url(#mask0_10077_7712)">
<path fill-rule="evenodd" clip-rule="evenodd" d="M35.5742 26.6758L116.95 140.057L87.7239 187.447L-24.8516 156.016L35.5742 26.6758Z" fill="#DDDDDF"/>
</g>
<path fill-rule="evenodd" clip-rule="evenodd" d="M114.598 43.0166C114.581 39.7038 111.892 37.0533 108.579 37.0545L47.3595 37.0775C44.0465 37.0788 41.3615 39.7649 41.3617 43.0779L41.368 138.634C41.3682 141.689 43.6414 144.119 46.6956 144.163C61.4819 144.377 101.401 144.212 111.901 144.036C113.556 144.008 114.614 143.053 114.685 141.399C115.258 127.996 114.713 66.5336 114.598 43.0166Z" fill="white"/>
<path fill-rule="evenodd" clip-rule="evenodd" d="M102.022 87.1005C102.112 86.7323 101.528 81.8161 101.443 80.9885C101.2 78.6136 101.378 77.4904 99.9766 75.9334C98.7781 74.6014 96.7641 74.8904 95.1004 75.0592L58.0917 78.8142C55.8212 79.0447 54.4683 78.9896 53.0978 80.3305C51.8155 81.5845 52.1431 83.6016 52.3139 85.268L54.7791 109.318C56.038 107.941 57.7922 107.004 59.7996 106.8C64.1243 106.361 67.988 109.493 68.4287 113.796C68.4728 114.227 68.481 114.653 68.4556 115.071L98.096 112.064C100.413 111.829 101.678 111.971 103.148 110.584C103.545 110.209 104.019 109.322 104.139 108.508C104.284 107.522 103.471 100.771 103.341 99.4809C103.215 98.225 102.778 98.1435 101.556 98.2712C100.534 98.3779 99.5097 98.4791 98.486 98.5831C96.8316 98.7511 94.1184 99.2885 92.7319 98.7177C90.7172 97.8882 90.5901 96.1892 90.4208 94.5371C90.1728 92.1157 89.9259 91.0266 91.3299 89.6469C92.5498 88.4484 94.7459 88.5357 96.639 88.3436C97.6619 88.2397 98.6853 88.1353 99.7086 88.0321C100.805 87.9211 101.794 88.0402 102.022 87.1005Z" fill="#6484C2"/>
<path fill-rule="evenodd" clip-rule="evenodd" d="M62.6387 75.6234L93.8129 72.4694C93.7205 71.4315 93.4296 67.6082 93.1842 66.9351C92.4171 64.8287 90.3025 65.7595 89.2897 66.1168C86.3195 67.1648 83.373 68.1937 80.4149 69.2498C77.5105 70.2869 74.4876 71.3248 71.5513 72.3782L62.6387 75.6234Z" fill="#6484C2"/>
<path fill-rule="evenodd" clip-rule="evenodd" d="M58.3633 75.9665L86.29 66.1398C86.1675 65.5446 84.9082 62.0264 84.6376 61.5681C84.2874 60.9749 83.6782 60.5008 82.7515 60.5454C81.9388 60.5842 81.2785 61.1429 80.6717 61.5332L58.3633 75.9665Z" fill="#6484C2"/>
<path fill-rule="evenodd" clip-rule="evenodd" d="M95.7022 92.5741C96.3184 92.3231 96.9397 92.7293 97.1238 93.1806C97.3796 93.8087 97.0013 94.4342 96.5388 94.6258C95.1621 95.1977 94.2581 93.1623 95.7022 92.5741ZM93.4831 95.2947C93.6181 95.8461 93.9956 96.2038 94.3244 96.3947C94.877 96.7152 95.2105 96.6736 95.9105 96.6015C97.1663 96.4715 98.4233 96.3462 99.6795 96.2185C101.092 96.0754 102.394 96.2131 102.66 95.195C102.767 94.7837 102.426 92.1889 102.362 91.5363C102.2 89.8803 101.449 90.0848 99.94 90.238C98.6838 90.3657 97.4276 90.493 96.171 90.6202C94.7811 90.7611 93.9032 90.7789 93.372 91.783C93.0639 92.3666 93.2991 94.5397 93.4831 95.2947Z" fill="#FBDD09"/>
<path fill-rule="evenodd" clip-rule="evenodd" d="M95.7029 92.5739C94.2587 93.1621 95.1631 95.1975 96.5394 94.6256C97.0016 94.4336 97.3803 93.8081 97.1244 93.1804C96.9404 92.7291 96.3191 92.3229 95.7029 92.5739Z" fill="white"/>
<path fill-rule="evenodd" clip-rule="evenodd" d="M60.2497 120.774C63.3135 120.774 65.8119 118.288 65.8119 115.241C65.8119 112.193 63.3131 109.707 60.2497 109.707C57.1862 109.707 54.6875 112.193 54.6875 115.241C54.6879 118.289 57.1862 120.774 60.2497 120.774Z" stroke="#000001" stroke-width="1.0001" stroke-miterlimit="22.9256"/>
<path d="M60.1177 115.105V113.214H61.4257V115.105H63.3262V116.406H61.4257V118.307H60.1177V116.406H58.2168V115.105H60.1177Z" fill="#000001"/>
</g>
<defs>
<clipPath id="clip0_10077_7712">
<rect width="156" height="168" fill="white"/>
</clipPath>
</defs>
</svg>
