<svg preserveAspectRatio="none" width="100%" height="100%" overflow="visible" style="display: block;" viewBox="0 0 24 24" fill="none" xmlns="http://www.w3.org/2000/svg">
<g id="Group">
<g id="Vector">
</g>
<path id="Vector_2" fill-rule="evenodd" clip-rule="evenodd" d="M12 2C17.523 2 22 6.477 22 12C22 16.3 19.286 19.966 15.478 21.378C15.4136 21.4134 15.3455 21.4415 15.275 21.462L15.18 21.484C14.1549 21.8269 13.0809 22.0012 12 22C6.477 22 2 17.523 2 12C2 6.477 6.477 2 12 2ZM14.91 4.546L14.734 5.427C14.6206 5.99402 14.3457 6.51617 13.9424 6.93061C13.5391 7.34504 13.0247 7.63411 12.461 7.763L12.06 7.855C11.8113 7.91171 11.5936 8.06134 11.4516 8.27326C11.3096 8.48519 11.2539 8.74338 11.296 8.995L11.471 10.043C11.5268 10.3789 11.4958 10.7235 11.3811 11.0441C11.2664 11.3648 11.0718 11.6508 10.8156 11.8751C10.5594 12.0994 10.2502 12.2546 9.91724 12.326C9.58429 12.3974 9.23863 12.3826 8.913 12.283L7.623 11.889C7.00855 11.7012 6.47064 11.321 6.08845 10.8045C5.70626 10.2881 5.49999 9.66252 5.5 9.02V7.335C4.55315 8.65325 4.02967 10.2283 3.99906 11.8511C3.96844 13.4738 4.43214 15.0675 5.32859 16.4206C6.22503 17.7736 7.51182 18.8219 9.01811 19.4264C10.5244 20.0309 12.1789 20.163 13.762 19.805L13.181 17.773C13.1341 17.6097 13.0463 17.461 12.926 17.341L11.688 16.102C11.5388 15.9529 11.4227 15.7739 11.3473 15.5769C11.272 15.3799 11.239 15.1691 11.2506 14.9585C11.2622 14.7479 11.3182 14.542 11.4147 14.3545C11.5113 14.1669 11.6463 14.0018 11.811 13.87L13.376 12.619C13.6744 12.3803 14.0348 12.2321 14.4148 12.1919C14.7947 12.1516 15.1783 12.2211 15.52 12.392L16.99 13.127C17.4317 13.3479 17.812 13.6744 18.0972 14.0775C18.3824 14.4807 18.5637 14.948 18.625 15.438L18.735 16.319C19.374 15.3221 19.7839 14.1958 19.935 13.0213C20.086 11.8468 19.9746 10.6535 19.6087 9.52727C19.2428 8.40107 18.6316 7.3701 17.819 6.5087C17.0065 5.64731 16.0129 4.97696 14.91 4.546ZM14.625 14.181L13.497 15.083L14.341 15.926C14.6491 16.2345 14.8863 16.6065 15.036 17.016L15.104 17.224L15.647 19.122C15.997 18.942 16.333 18.737 16.651 18.51L16.964 18.274L16.641 15.686C16.6231 15.5435 16.5748 15.4064 16.4992 15.2843C16.4236 15.1621 16.3226 15.0576 16.203 14.978L16.095 14.916L14.625 14.181ZM12 4C10.3922 3.99749 8.82133 4.48172 7.494 5.389C7.498 5.425 7.5 5.462 7.5 5.5V9.02C7.49981 9.2342 7.5684 9.4428 7.69568 9.61509C7.82296 9.78738 8.0022 9.91424 8.207 9.977L9.498 10.371L9.323 9.323C9.19723 8.56859 9.36433 7.79464 9.79016 7.15933C10.216 6.52402 10.8684 6.07534 11.614 5.905L12.015 5.814C12.2031 5.771 12.3748 5.67447 12.5093 5.53606C12.6438 5.39766 12.7354 5.22329 12.773 5.034L12.969 4.058C12.6475 4.01927 12.3239 3.9999 12 4Z" fill="var(--fill-0, #6584DB)"/>
</g>
</svg>
