<svg width="148" height="44" viewBox="0 0 148 44" fill="none" xmlns="http://www.w3.org/2000/svg">
<path d="M27.1121 0.384338L24.1523 9.76881H2.51488L0.373307 5.48566C0.104056 4.94856 -0.0232556 4.35149 0.00349054 3.75128C0.0302366 3.15107 0.210151 2.56768 0.526108 2.05666C0.842065 1.54564 1.28355 1.12399 1.80854 0.831836C2.33353 0.539682 2.92456 0.386751 3.52537 0.387599L27.1121 0.384338Z" fill="#FCDE2F"/>
<path d="M15.85 36.4524L18.2002 29.0042H31.1018L24.7684 41.6678C24.4753 42.2532 24.025 42.7454 23.4681 43.0895C22.9111 43.4335 22.2693 43.6157 21.6147 43.6157C20.96 43.6157 20.3183 43.4335 19.7613 43.0895C19.2043 42.7454 18.7541 42.2532 18.461 41.6678L15.85 36.4524Z" fill="#FCDE2F"/>
<path d="M21.2349 19.3815L18.2002 28.9941H12.1275L7.31958 19.3815H21.1241L24.1523 9.76883H40.7145L35.9065 19.3815H21.2349Z" fill="#FCDE2F"/>
<path d="M51.7972 16.8693H56.9898L60.4222 25.9344C61.2599 28.2911 61.9412 30.3251 62.1792 31.404C62.6756 29.5437 63.2897 27.7168 64.0176 25.9344L67.6032 16.8693H72.6361L64.4088 36.5966H59.6171L51.7972 16.8693Z" fill="#FCDE2F"/>
<path d="M73.3239 26.733C73.3239 20.5397 77.3561 16.2696 83.1452 16.2696C89.0581 16.2696 92.81 20.2236 92.81 26.3745V27.8511L77.9558 27.8902C78.3144 31.365 80.1528 33.1219 83.3864 33.1219C86.0626 33.1219 87.8195 32.0821 88.3769 30.2078H92.8915C92.0505 34.5203 88.4584 37.115 83.3049 37.115C77.4343 37.1084 73.3239 32.8416 73.3239 26.733ZM78.0732 24.7773H87.9792C87.9792 22.062 86.1017 20.2659 83.1876 20.2659C80.2734 20.2659 78.5524 21.8208 78.0732 24.774V24.7773Z" fill="#FCDE2F"/>
<path d="M96.803 36.5967V6.88513H101.637V36.5967H96.803Z" fill="#FCDE2F"/>
<path d="M116.123 16.3088C122.231 16.3088 126.664 20.5463 126.664 26.694C126.664 32.8416 122.241 37.0759 116.123 37.0759C110.005 37.0759 105.581 32.8384 105.581 26.694C105.581 20.5496 110.021 16.3088 116.123 16.3088ZM116.123 32.721C119.477 32.721 121.795 30.2861 121.795 26.694C121.795 23.1018 119.477 20.6636 116.123 20.6636C112.769 20.6636 110.451 23.0986 110.451 26.694C110.451 30.2893 112.778 32.721 116.123 32.721Z" fill="#FCDE2F"/>
<path d="M127.554 36.5966L134.344 26.9318L127.554 16.8693H133.226L137.578 23.5776L141.77 16.8693H147.242L140.534 26.8536L147.053 36.5966H141.45L137.258 30.0773L133.105 36.5966H127.554Z" fill="#FCDE2F"/>
</svg>
