<svg width="37" height="37" viewBox="0 0 37 37" fill="none" xmlns="http://www.w3.org/2000/svg">
<path d="M36.8373 16.0387C36.2264 11.4878 33.9448 7.32677 30.4363 4.36456C26.9277 1.40235 22.4428 -0.14929 17.8537 0.0113319C13.2646 0.171954 8.89923 2.03336 5.60636 5.23363C2.31349 8.43389 0.328475 12.7443 0.0372654 17.3267C-0.253945 21.9092 1.16947 26.4362 4.03074 30.0275C6.89201 33.6188 10.9866 36.0178 15.5185 36.758C20.0504 37.4982 24.6956 36.5267 28.5509 34.0324C32.4062 31.5381 35.1962 27.6993 36.3783 23.2624C37.0028 20.9078 37.1588 18.4534 36.8373 16.0387ZM27.1189 33.4752C25.1133 34.6385 22.8936 35.385 20.5926 35.6701C18.3724 35.9405 16.1209 35.7837 13.9596 35.2079C11.7607 34.6201 9.70019 33.602 7.89736 32.2127C6.09453 30.8233 4.58517 29.0901 3.45665 27.1136C2.02424 24.6381 1.22699 21.8465 1.13604 18.9879C1.0451 16.1294 1.6633 13.2928 2.93546 10.7312C4.20762 8.1697 6.09417 5.96295 8.42676 4.3079C10.7594 2.65284 13.4654 1.60098 16.3035 1.24617C17.0026 1.1596 17.7063 1.1162 18.4107 1.1162C19.9385 1.11606 21.4598 1.31526 22.9361 1.70876C25.135 2.29649 27.1955 3.31451 28.9984 4.70391C30.8012 6.0933 32.3106 7.82646 33.439 9.80306C34.5832 11.7712 35.3274 13.9458 35.629 16.2023C35.9305 18.4587 35.7834 20.7525 35.1961 22.9519C34.6088 25.1513 33.5929 27.2131 32.2066 29.019C30.8204 30.8248 29.0911 32.339 27.1181 33.4749L27.1189 33.4752ZM32.9464 11.7174C32.915 11.6345 32.866 11.5595 32.8028 11.4974C32.7395 11.4354 32.6636 11.3878 32.5801 11.358C32.4967 11.3282 32.4077 11.3169 32.3195 11.3249C32.2312 11.3328 32.1457 11.3599 32.069 11.4041L5.52951 26.7253C5.45276 26.7696 5.38657 26.8301 5.33553 26.9025C5.28449 26.975 5.24982 27.0577 5.23392 27.1448C5.21802 27.232 5.22128 27.3216 5.24346 27.4074C5.26565 27.4932 5.30623 27.5732 5.3624 27.6417L6.12802 28.576C8.23573 31.1541 11.1031 33.0015 14.3219 33.8553C16.3445 34.3931 18.4528 34.5305 20.5282 34.2598C23.6542 33.8497 26.5882 32.5214 28.9588 30.4431C31.3295 28.3647 33.0301 25.6298 33.8456 22.5845C34.7013 19.3684 34.5356 15.9658 33.3715 12.848L32.9464 11.7174ZM30.0186 18.4583C30.0187 20.8403 29.2835 23.1643 27.9135 25.1129C26.5434 27.0616 24.6053 28.5399 22.3638 29.346C20.1222 30.1522 17.6865 30.2469 15.3891 29.6172C13.0917 28.9875 11.0447 27.6641 9.52747 25.8277L17.8367 21.0308V23.9395C17.2757 23.7982 16.7918 23.4439 16.4876 22.9519C16.3999 22.8197 16.2642 22.7267 16.1092 22.6927C15.9542 22.6588 15.7921 22.6864 15.6571 22.7697C15.5221 22.8531 15.4249 22.9857 15.3859 23.1395C15.3469 23.2933 15.3692 23.4562 15.4482 23.5938C15.7109 24.0129 16.0597 24.3714 16.4715 24.6455C16.8833 24.9197 17.3486 25.1031 17.8367 25.1838V26.9951C17.8367 27.1571 17.9011 27.3126 18.0157 27.4272C18.1303 27.5418 18.2858 27.6062 18.4478 27.6062C18.6099 27.6062 18.7654 27.5418 18.88 27.4272C18.9946 27.3126 19.059 27.1571 19.059 26.9951V25.1739C19.8681 25.026 20.6002 24.6005 21.1293 23.9708C21.6584 23.341 21.9513 22.5465 21.9575 21.7241V21.3571C22.005 20.5321 21.7358 19.7201 21.2049 19.0868L29.2929 14.4171C29.7755 15.7097 30.0213 17.0786 30.0186 18.4583ZM20.1027 19.7224C20.4464 19.9887 20.7348 20.4335 20.7348 21.3563V21.7233C20.7306 22.2214 20.5649 22.7047 20.2627 23.1006C19.9605 23.4966 19.538 23.7839 19.0586 23.9193V20.3245L20.1027 19.7224ZM32.6655 22.2673C31.9127 25.0793 30.3424 27.6047 28.1533 29.5238C25.9643 31.4429 23.2551 32.6693 20.3686 33.0478C18.4524 33.2975 16.506 33.1708 14.6383 32.6749C11.6663 31.8871 9.01871 30.1816 7.0726 27.8013L6.76327 27.4237L8.45648 26.4464C10.1119 28.5172 12.3699 30.0225 14.9182 30.7542C17.4665 31.4858 20.1792 31.4077 22.6811 30.5305C25.1831 29.6533 27.3506 28.0205 28.8841 25.8578C30.4176 23.6951 31.2411 21.1094 31.2409 18.4583C31.244 16.8633 30.9468 15.2819 30.3647 13.7969L32.0548 12.8211L32.227 13.2778C33.3023 16.1564 33.4554 19.2982 32.6651 22.2677L32.6655 22.2673ZM31.6625 9.77185C31.6785 9.68467 31.6753 9.59504 31.6531 9.50921C31.6309 9.42339 31.5903 9.34343 31.5341 9.2749L30.7685 8.34064C28.6606 5.76219 25.7927 3.91469 22.5734 3.06136C20.5508 2.52395 18.4427 2.38654 16.3675 2.65685C13.2414 3.06671 10.3072 4.39496 7.93651 6.47342C5.56582 8.55187 3.86525 11.287 3.05013 14.3326C2.19437 17.5487 2.36004 20.9513 3.5242 24.069L3.95047 25.1988C3.9818 25.2817 4.03077 25.3568 4.094 25.4189C4.15723 25.481 4.23321 25.5287 4.31666 25.5585C4.40012 25.5883 4.48906 25.5997 4.57733 25.5917C4.66561 25.5838 4.7511 25.5567 4.82789 25.5125L31.3662 10.1914C31.4431 10.1472 31.5094 10.0868 31.5606 10.0143C31.6118 9.94185 31.6465 9.85911 31.6625 9.77185ZM6.87704 18.4583C6.87714 16.0764 7.6124 13.7525 8.98243 11.804C10.3525 9.85545 12.2905 8.37719 14.532 7.57103C16.7735 6.76486 19.2091 6.67008 21.5065 7.29962C23.8038 7.92916 25.8509 9.25233 27.3682 11.0885L19.059 15.8858V12.9914C19.628 13.1527 20.1136 13.5257 20.416 14.0339C20.4571 14.1029 20.5113 14.1631 20.5756 14.2111C20.6399 14.2591 20.713 14.294 20.7908 14.3138C20.8686 14.3335 20.9495 14.3378 21.0289 14.3262C21.1084 14.3147 21.1848 14.2877 21.2537 14.2466C21.3227 14.2056 21.3829 14.1514 21.4309 14.0871C21.479 14.0228 21.5138 13.9496 21.5336 13.8719C21.5534 13.7941 21.5576 13.7132 21.5461 13.6337C21.5346 13.5543 21.5075 13.4779 21.4665 13.409C21.2074 12.9754 20.8585 12.6023 20.4433 12.3147C20.028 12.0272 19.556 11.8319 19.059 11.7419V9.92473C19.059 9.76265 18.9946 9.60721 18.88 9.49261C18.7654 9.378 18.6099 9.31361 18.4478 9.31361C18.2858 9.31361 18.1303 9.378 18.0157 9.49261C17.9011 9.60721 17.8367 9.76265 17.8367 9.92473V11.7419C17.0252 11.8867 16.2903 12.312 15.7605 12.9435C15.2307 13.575 14.9396 14.3726 14.9382 15.1969V15.5639C14.8907 16.3889 15.1598 17.2009 15.6907 17.8342L7.60276 22.4995C7.12024 21.2069 6.87441 19.838 6.87704 18.4583ZM16.793 17.1942C16.4493 16.9279 16.1609 16.4831 16.1609 15.5603V15.1933C16.1616 14.6934 16.3258 14.2075 16.6284 13.8096C16.931 13.4116 17.3555 13.1236 17.8371 12.9894V16.5918L16.793 17.1942ZM28.4392 10.4707C26.7838 8.39989 24.5258 6.89458 21.9776 6.16291C19.4293 5.43124 16.7167 5.50936 14.2147 6.38647C11.7128 7.26358 9.54525 8.89634 8.01176 11.059C6.47827 13.2216 5.65463 15.8072 5.65474 18.4583C5.65158 20.0534 5.94884 21.6347 6.53097 23.1198L4.84092 24.0959L4.66868 23.6392C3.59365 20.761 3.44054 17.6197 4.23056 14.6506C5.06786 11.522 6.91465 8.75742 9.4842 6.78593C12.0538 4.81445 15.2023 3.74638 18.4411 3.74754C19.7294 3.74658 21.0124 3.91378 22.2574 4.24489C25.229 5.03187 27.8765 6.73623 29.8231 9.1153L30.1324 9.49296L28.4392 10.4707Z" fill="white"/>
</svg>
