<svg width="41" height="40" viewBox="0 0 41 40" fill="none" xmlns="http://www.w3.org/2000/svg">
<circle cx="20.1328" cy="20" r="20" fill="#E7ECFA"/>
<g clip-path="url(#clip0_11877_10974)">
<path fill-rule="evenodd" clip-rule="evenodd" d="M21.9027 26.6433C21.7177 26.78 21.5168 26.8933 21.296 26.9516C20.6743 27.1183 19.9952 26.87 19.4018 26.7033C15.4243 25.5841 12.7602 23.8316 11.996 21.2166C11.386 19.1283 11.9727 17.0366 13.2627 15.7366C14.4577 14.5325 16.2293 14.0441 18.0468 14.8266C19.2302 13.24 21.0093 12.7766 22.646 13.2225C24.4127 13.7033 25.966 15.2216 26.4818 17.335C26.5835 17.7491 26.6335 18.1716 26.6343 18.6008C26.8468 18.7091 27.0485 18.8441 27.2343 19.0008C28.1985 19.8166 28.7135 21.2025 28.426 22.6433C28.0593 24.4816 26.3552 25.7725 23.9177 26.6941C23.5002 26.8525 23.0435 27.0483 22.5877 26.9683C22.3343 26.9233 22.1077 26.7933 21.9027 26.6433ZM13.596 20.7491C13.1502 19.2216 13.5985 17.765 14.446 16.9108C15.2593 16.0908 16.4652 15.7858 17.7985 16.5658C18.2643 16.8383 18.8652 16.6766 19.1318 16.2091C19.8968 14.8666 21.0935 14.5275 22.2077 14.8308C23.3693 15.1475 24.486 16.1841 24.8627 17.73C24.9085 17.9158 24.9393 18.1058 24.9543 18.3008C24.649 18.3397 24.3512 18.4242 24.071 18.5516C23.176 17.6791 21.991 17.5075 20.946 17.8925C19.761 18.3283 18.8027 19.455 18.5793 20.9075C18.3518 22.395 19.0543 23.845 20.3618 25.2391C20.1968 25.1975 20.026 25.1475 19.8535 25.0991C15.9943 24.0133 14.1035 22.4866 13.596 20.7491ZM20.2277 21.16C20.361 20.285 20.9268 19.6758 21.5218 19.4558C22.0718 19.2541 22.6827 19.36 23.1468 20.0308C23.216 20.1308 23.3044 20.216 23.4067 20.2816C23.5091 20.3472 23.6234 20.3919 23.7431 20.4131C23.8629 20.4342 23.9856 20.4314 24.1042 20.4049C24.2229 20.3783 24.3351 20.3285 24.4343 20.2583C25.101 19.7858 25.711 19.8958 26.1577 20.2733C26.6427 20.6833 26.9643 21.45 26.791 22.3175C26.6035 23.2591 25.651 24.2575 23.3285 25.135C23.181 25.1908 23.0343 25.2508 22.8827 25.295C22.7552 25.2008 22.6377 25.095 22.5177 24.9925C20.636 23.3733 20.0818 22.1091 20.2277 21.1591V21.16Z" fill="#6584DB"/>
</g>
<defs>
<clipPath id="clip0_11877_10974">
<rect width="20" height="20" fill="white" transform="translate(10.1328 10)"/>
</clipPath>
</defs>
</svg>
