<svg width="41" height="40" viewBox="0 0 41 40" fill="none" xmlns="http://www.w3.org/2000/svg">
<circle cx="20.1328" cy="20" r="20" fill="#E7ECFA"/>
<g clip-path="url(#clip0_11877_11761)">
<path fill-rule="evenodd" clip-rule="evenodd" d="M19.9485 13.6428C20.0173 13.728 20.0687 13.8259 20.0997 13.9309C20.1307 14.036 20.1406 14.1461 20.129 14.255C20.1174 14.3639 20.0844 14.4694 20.032 14.5656C19.9796 14.6617 19.9087 14.7466 19.8235 14.8153C19.3577 15.192 19.0535 15.5537 18.8543 15.8787C19.164 15.9528 19.4459 16.1141 19.6667 16.3435C19.8876 16.5728 20.0381 16.8607 20.1005 17.1729C20.1629 17.4851 20.1345 17.8087 20.0188 18.1053C19.9031 18.4019 19.7048 18.6591 19.4474 18.8466C19.1901 19.0341 18.8844 19.1439 18.5666 19.1631C18.2488 19.1823 17.9321 19.1101 17.6541 18.9549C17.376 18.7998 17.1482 18.5683 16.9977 18.2878C16.8471 18.0072 16.78 17.6894 16.8043 17.372C16.7843 16.962 16.821 16.4137 17.0485 15.7953C17.3202 15.0587 17.8452 14.2712 18.776 13.5187C18.8612 13.4498 18.9591 13.3984 19.0641 13.3675C19.1691 13.3365 19.2793 13.3265 19.3882 13.3381C19.497 13.3497 19.6026 13.3827 19.6987 13.4351C19.7949 13.4876 19.8798 13.5584 19.9485 13.6437V13.6428ZM22.6335 14.167C22.4125 14.167 22.2005 14.2548 22.0442 14.4111C21.888 14.5673 21.8002 14.7793 21.8002 15.0003C21.8002 15.2213 21.888 15.4333 22.0442 15.5896C22.2005 15.7459 22.4125 15.8337 22.6335 15.8337H26.8002C27.0212 15.8337 27.2331 15.7459 27.3894 15.5896C27.5457 15.4333 27.6335 15.2213 27.6335 15.0003C27.6335 14.7793 27.5457 14.5673 27.3894 14.4111C27.2331 14.2548 27.0212 14.167 26.8002 14.167H22.6335ZM22.6335 17.5003C22.4125 17.5003 22.2005 17.5881 22.0442 17.7444C21.888 17.9007 21.8002 18.1126 21.8002 18.3337C21.8002 18.5547 21.888 18.7666 22.0442 18.9229C22.2005 19.0792 22.4125 19.167 22.6335 19.167H26.8002C27.0212 19.167 27.2331 19.0792 27.3894 18.9229C27.5457 18.7666 27.6335 18.5547 27.6335 18.3337C27.6335 18.1126 27.5457 17.9007 27.3894 17.7444C27.2331 17.5881 27.0212 17.5003 26.8002 17.5003H22.6335ZM13.4668 21.667C13.4668 21.446 13.5546 21.234 13.7109 21.0777C13.8672 20.9215 14.0791 20.8337 14.3002 20.8337H26.8002C27.0212 20.8337 27.2331 20.9215 27.3894 21.0777C27.5457 21.234 27.6335 21.446 27.6335 21.667C27.6335 21.888 27.5457 22.1 27.3894 22.2562C27.2331 22.4125 27.0212 22.5003 26.8002 22.5003H14.3002C14.0791 22.5003 13.8672 22.4125 13.7109 22.2562C13.5546 22.1 13.4668 21.888 13.4668 21.667ZM14.3002 24.167C14.0791 24.167 13.8672 24.2548 13.7109 24.4111C13.5546 24.5673 13.4668 24.7793 13.4668 25.0003C13.4668 25.2213 13.5546 25.4333 13.7109 25.5896C13.8672 25.7459 14.0791 25.8337 14.3002 25.8337H26.8002C27.0212 25.8337 27.2331 25.7459 27.3894 25.5896C27.5457 25.4333 27.6335 25.2213 27.6335 25.0003C27.6335 24.7793 27.5457 24.5673 27.3894 24.4111C27.2331 24.2548 27.0212 24.167 26.8002 24.167H14.3002ZM12.6385 17.372C12.6141 17.6895 12.6812 18.0073 12.8318 18.2879C12.9824 18.5685 13.2102 18.8 13.4883 18.9552C13.7664 19.1103 14.0831 19.1825 14.401 19.1633C14.7188 19.1441 15.0245 19.0342 15.2819 18.8466C15.5392 18.6591 15.7374 18.4017 15.8531 18.105C15.9688 17.8084 15.997 17.4847 15.9345 17.1725C15.872 16.8603 15.7213 16.5725 15.5004 16.3432C15.2794 16.1139 14.9974 15.9527 14.6877 15.8787C14.8868 15.5537 15.191 15.192 15.6577 14.8153C15.7428 14.7464 15.8135 14.6614 15.8658 14.5652C15.9181 14.469 15.951 14.3634 15.9625 14.2545C15.9739 14.1456 15.9639 14.0355 15.9328 13.9304C15.9017 13.8254 15.8503 13.7275 15.7814 13.6424C15.7125 13.5573 15.6275 13.4865 15.5313 13.4342C15.4351 13.3819 15.3295 13.3491 15.2206 13.3376C15.1117 13.3261 15.0016 13.3362 14.8965 13.3673C14.7915 13.3983 14.6936 13.4498 14.6085 13.5187C13.6777 14.2712 13.1527 15.0587 12.881 15.7953C12.6939 16.299 12.6119 16.8354 12.6385 17.372Z" fill="#6584DB"/>
</g>
<defs>
<clipPath id="clip0_11877_11761">
<rect width="20" height="20" fill="white" transform="translate(10.1328 10)"/>
</clipPath>
</defs>
</svg>
