<svg width="41" height="40" viewBox="0 0 41 40" fill="none" xmlns="http://www.w3.org/2000/svg">
<circle cx="20.1328" cy="20" r="20" fill="#E7ECFA"/>
<g clip-path="url(#clip0_11877_9604)">
<path fill-rule="evenodd" clip-rule="evenodd" d="M19.2322 12.3902C19.3239 12.2329 19.4553 12.1023 19.6132 12.0116C19.7711 11.9208 19.9501 11.873 20.1322 11.873C20.3143 11.873 20.4933 11.9208 20.6512 12.0116C20.8091 12.1023 20.9405 12.2329 21.0322 12.3902L23.3614 16.3886L27.8847 17.3686C28.0626 17.4072 28.2273 17.4919 28.3623 17.614C28.4973 17.7362 28.598 17.8916 28.6542 18.0648C28.7105 18.2379 28.7203 18.4228 28.6828 18.601C28.6453 18.7792 28.5618 18.9444 28.4405 19.0802L25.3572 22.5311L25.8239 27.1352C25.8423 27.3165 25.8128 27.4995 25.7384 27.6658C25.664 27.8322 25.5472 27.9761 25.3998 28.0832C25.2524 28.1903 25.0794 28.2569 24.8982 28.2762C24.717 28.2956 24.5339 28.2671 24.3672 28.1936L20.1322 26.3269L15.8972 28.1936C15.7305 28.2671 15.5473 28.2956 15.3662 28.2762C15.185 28.2569 15.012 28.1903 14.8646 28.0832C14.7172 27.9761 14.6004 27.8322 14.526 27.6658C14.4516 27.4995 14.4221 27.3165 14.4405 27.1352L14.9072 22.5311L11.8239 19.0811C11.7024 18.9453 11.6187 18.78 11.581 18.6017C11.5434 18.4234 11.5532 18.2384 11.6095 18.065C11.6657 17.8917 11.7665 17.7362 11.9016 17.614C12.0368 17.4918 12.2016 17.4072 12.3797 17.3686L16.903 16.3886L19.2322 12.3902ZM20.1322 14.1561L18.2047 17.4661C18.1318 17.591 18.0337 17.6994 17.9166 17.7843C17.7996 17.8693 17.6661 17.9289 17.5247 17.9594L13.7814 18.7702L16.333 21.6261C16.528 21.8444 16.6222 22.1344 16.593 22.4252L16.2072 26.2361L19.7122 24.6911C19.8445 24.6328 19.9876 24.6027 20.1322 24.6027C20.2768 24.6027 20.4198 24.6328 20.5522 24.6911L24.0572 26.2361L23.6714 22.4252C23.6567 22.2813 23.6722 22.136 23.7168 21.9984C23.7614 21.8608 23.8342 21.734 23.9305 21.6261L26.483 18.7702L22.7397 17.9594C22.5983 17.9289 22.4648 17.8693 22.3477 17.7843C22.2307 17.6994 22.1326 17.591 22.0597 17.4661L20.1322 14.1561Z" fill="#6584DB"/>
</g>
<defs>
<clipPath id="clip0_11877_9604">
<rect width="20" height="20" fill="white" transform="translate(10.1328 10)"/>
</clipPath>
</defs>
</svg>
