<svg width="41" height="40" viewBox="0 0 41 40" fill="none" xmlns="http://www.w3.org/2000/svg">
<circle cx="20.1328" cy="20" r="20" fill="#E7ECFA"/>
<g clip-path="url(#clip0_11877_3272)">
<path d="M21.8008 12.5C22.4638 12.5 23.0997 12.7634 23.5685 13.2322C24.0374 13.7011 24.3008 14.337 24.3008 15H26.8008C27.2428 15 27.6667 15.1756 27.9793 15.4882C28.2919 15.8007 28.4674 16.2246 28.4674 16.6667V25.8333C28.4674 26.2754 28.2919 26.6993 27.9793 27.0118C27.6667 27.3244 27.2428 27.5 26.8008 27.5H13.4674C13.0254 27.5 12.6015 27.3244 12.2889 27.0118C11.9764 26.6993 11.8008 26.2754 11.8008 25.8333V16.6667C11.8008 16.2246 11.9764 15.8007 12.2889 15.4882C12.6015 15.1756 13.0254 15 13.4674 15H15.9674C15.9674 14.337 16.2308 13.7011 16.6997 13.2322C17.1685 12.7634 17.8044 12.5 18.4674 12.5H21.8008ZM19.3008 20H13.4674V25.8333H26.8008V20H20.9674V20.8333C20.9672 21.0457 20.8859 21.25 20.7401 21.4045C20.5943 21.5589 20.395 21.6519 20.183 21.6643C19.9709 21.6768 19.7621 21.6078 19.5993 21.4714C19.4364 21.3351 19.3317 21.1417 19.3066 20.9308L19.3008 20.8333V20ZM26.8008 16.6667H13.4674V18.3333H26.8008V16.6667ZM21.8008 14.1667H18.4674C18.2633 14.1667 18.0663 14.2416 17.9138 14.3773C17.7613 14.5129 17.6638 14.6998 17.6399 14.9025L17.6341 15H22.6341C22.6341 14.7959 22.5592 14.5989 22.4235 14.4464C22.2879 14.2938 22.101 14.1964 21.8983 14.1725L21.8008 14.1667Z" fill="#6584DB"/>
</g>
<defs>
<clipPath id="clip0_11877_3272">
<rect width="20" height="20" fill="white" transform="translate(10.1328 10)"/>
</clipPath>
</defs>
</svg>
