<svg width="41" height="40" viewBox="0 0 41 40" fill="none" xmlns="http://www.w3.org/2000/svg">
<circle cx="20.1328" cy="20" r="20" fill="#E7ECFA"/>
<g clip-path="url(#clip0_11877_8435)">
<path d="M20.1341 11.667C24.7366 11.667 28.4674 15.3978 28.4674 20.0003C28.4674 24.6028 24.7366 28.3337 20.1341 28.3337C15.5316 28.3337 11.8008 24.6028 11.8008 20.0003C11.8008 15.3978 15.5316 11.667 20.1341 11.667ZM20.1341 13.3337C18.366 13.3337 16.6703 14.036 15.4201 15.2863C14.1698 16.5365 13.4674 18.2322 13.4674 20.0003C13.4674 21.7684 14.1698 23.4641 15.4201 24.7144C16.6703 25.9646 18.366 26.667 20.1341 26.667C21.9022 26.667 23.5979 25.9646 24.8482 24.7144C26.0984 23.4641 26.8008 21.7684 26.8008 20.0003C26.8008 18.2322 26.0984 16.5365 24.8482 15.2863C23.5979 14.036 21.9022 13.3337 20.1341 13.3337ZM20.1341 23.3337C20.3551 23.3337 20.5671 23.4215 20.7234 23.5777C20.8797 23.734 20.9674 23.946 20.9674 24.167C20.9674 24.388 20.8797 24.6 20.7234 24.7562C20.5671 24.9125 20.3551 25.0003 20.1341 25.0003C19.9131 25.0003 19.7011 24.9125 19.5449 24.7562C19.3886 24.6 19.3008 24.388 19.3008 24.167C19.3008 23.946 19.3886 23.734 19.5449 23.5777C19.7011 23.4215 19.9131 23.3337 20.1341 23.3337ZM20.1341 15.417C20.836 15.417 21.516 15.6615 22.0573 16.1083C22.5985 16.5552 22.9673 17.1766 23.1002 17.8658C23.2331 18.555 23.1219 19.269 22.7856 19.8851C22.4493 20.5012 21.909 20.981 21.2574 21.242C21.1614 21.2784 21.0746 21.3356 21.0033 21.4095C20.9666 21.4512 20.9608 21.5045 20.9616 21.5595L20.9674 21.667C20.9672 21.8794 20.8859 22.0837 20.7401 22.2381C20.5943 22.3926 20.395 22.4855 20.183 22.498C19.9709 22.5104 19.7621 22.4414 19.5993 22.3051C19.4364 22.1688 19.3317 21.9754 19.3066 21.7645L19.3008 21.667V21.4587C19.3008 20.4978 20.0758 19.9212 20.6374 19.6953C20.866 19.604 21.0655 19.4522 21.2143 19.2561C21.3631 19.0601 21.4557 18.8272 21.4821 18.5825C21.5085 18.3377 21.4678 18.0904 21.3643 17.8671C21.2608 17.6438 21.0984 17.4529 20.8946 17.3149C20.6907 17.1769 20.4532 17.097 20.2074 17.0839C19.9616 17.0707 19.7168 17.1248 19.4994 17.2402C19.282 17.3557 19.1002 17.5281 18.9734 17.7391C18.8467 17.9501 18.7798 18.1917 18.7799 18.4378C18.7799 18.6588 18.6922 18.8708 18.5359 19.0271C18.3796 19.1834 18.1676 19.2712 17.9466 19.2712C17.7256 19.2712 17.5136 19.1834 17.3574 19.0271C17.2011 18.8708 17.1133 18.6588 17.1133 18.4378C17.1133 17.6367 17.4315 16.8683 17.9981 16.3018C18.5646 15.7353 19.3329 15.417 20.1341 15.417Z" fill="#6584DB"/>
</g>
<defs>
<clipPath id="clip0_11877_8435">
<rect width="20" height="20" fill="white" transform="translate(10.1328 10)"/>
</clipPath>
</defs>
</svg>
