<svg width="41" height="40" viewBox="0 0 41 40" fill="none" xmlns="http://www.w3.org/2000/svg">
<circle cx="20.1328" cy="20" r="20" fill="#E7ECFA"/>
<g clip-path="url(#clip0_11877_8270)">
<path fill-rule="evenodd" clip-rule="evenodd" d="M25.1247 15.0088L14.6313 18.803L18.1272 20.8263L21.2097 17.743C21.366 17.5867 21.5781 17.499 21.7991 17.4991C22.0202 17.4991 22.2321 17.587 22.3884 17.7434C22.5447 17.8998 22.6324 18.1118 22.6323 18.3329C22.6322 18.5539 22.5444 18.7659 22.388 18.9221L19.3047 22.0055L21.3297 25.5005L25.1247 15.0088ZM25.3938 13.1388C26.3897 12.778 27.3547 13.743 26.9938 14.7388L22.5922 26.9096C22.2305 27.908 20.8672 28.0296 20.3347 27.1105L17.6538 22.4788L13.0222 19.798C12.103 19.2655 12.2247 17.9021 13.223 17.5405L25.3938 13.1388Z" fill="#6584DB"/>
</g>
<defs>
<clipPath id="clip0_11877_8270">
<rect width="20" height="20" fill="white" transform="translate(10.1328 10)"/>
</clipPath>
</defs>
</svg>
