<svg width="41" height="40" viewBox="0 0 41 40" fill="none" xmlns="http://www.w3.org/2000/svg">
<circle cx="20.1328" cy="20" r="20" fill="#E7ECFA"/>
<g clip-path="url(#clip0_11877_10996)">
<path d="M21.4532 11.667C21.8952 11.6671 22.319 11.8427 22.6315 12.1553L26.3098 15.8337C26.6224 16.1461 26.7981 16.57 26.7982 17.012V26.667C26.7982 27.109 26.6226 27.5329 26.31 27.8455C25.9975 28.1581 25.5735 28.3337 25.1315 28.3337H15.1315C14.6895 28.3337 14.2656 28.1581 13.953 27.8455C13.6404 27.5329 13.4648 27.109 13.4648 26.667V13.3337C13.4648 12.8916 13.6404 12.4677 13.953 12.1551C14.2656 11.8426 14.6895 11.667 15.1315 11.667H21.4532ZM20.1315 13.3337H15.1315V26.667H25.1315V18.3337H21.3815C21.05 18.3337 20.732 18.202 20.4976 17.9675C20.2632 17.7331 20.1315 17.4152 20.1315 17.0837V13.3337ZM22.6315 21.667C22.8525 21.667 23.0645 21.7548 23.2208 21.9111C23.377 22.0674 23.4648 22.2793 23.4648 22.5003C23.4648 22.7213 23.377 22.9333 23.2208 23.0896C23.0645 23.2459 22.8525 23.3337 22.6315 23.3337H17.6315C17.4105 23.3337 17.1985 23.2459 17.0423 23.0896C16.886 22.9333 16.7982 22.7213 16.7982 22.5003C16.7982 22.2793 16.886 22.0674 17.0423 21.9111C17.1985 21.7548 17.4105 21.667 17.6315 21.667H22.6315ZM18.4648 18.3337C18.6859 18.3337 18.8978 18.4215 19.0541 18.5777C19.2104 18.734 19.2982 18.946 19.2982 19.167C19.2982 19.388 19.2104 19.6 19.0541 19.7562C18.8978 19.9125 18.6859 20.0003 18.4648 20.0003H17.6315C17.4105 20.0003 17.1985 19.9125 17.0423 19.7562C16.886 19.6 16.7982 19.388 16.7982 19.167C16.7982 18.946 16.886 18.734 17.0423 18.5777C17.1985 18.4215 17.4105 18.3337 17.6315 18.3337H18.4648ZM21.7982 13.6787V16.667H24.7865L21.7982 13.6787Z" fill="#6584DB"/>
</g>
<defs>
<clipPath id="clip0_11877_10996">
<rect width="20" height="20" fill="white" transform="translate(10.1328 10)"/>
</clipPath>
</defs>
</svg>
