<svg width="41" height="40" viewBox="0 0 41 40" fill="none" xmlns="http://www.w3.org/2000/svg">
<circle cx="20.1328" cy="20" r="20" fill="#E7ECFA"/>
<g clip-path="url(#clip0_11877_2435)">
<path d="M11.8008 20.0669C11.7958 19.3486 12.5591 18.9369 13.1491 19.2544L13.2283 19.3028L15.46 20.8061C16.27 21.3519 15.7741 22.5919 14.8483 22.4786L14.7508 22.462L13.865 22.2669C14.3152 23.5127 15.1263 24.5961 16.1947 25.379C17.2631 26.1619 18.5405 26.6089 19.864 26.663C21.1874 26.7171 22.497 26.3758 23.6258 25.6827C24.7545 24.9895 25.6512 23.9759 26.2016 22.7711C26.2962 22.575 26.4639 22.4236 26.6687 22.3495C26.8734 22.2754 27.0991 22.2844 27.2973 22.3746C27.4955 22.4648 27.6506 22.629 27.7293 22.8321C27.8079 23.0351 27.804 23.2609 27.7183 23.4611C26.0625 27.1028 21.9716 29.122 17.9791 28.0519C16.2177 27.58 14.6595 26.5435 13.5436 25.1012C12.4276 23.6589 11.8154 21.8905 11.8008 20.0669ZM12.5533 16.5436C14.2091 12.9019 18.3 10.8836 22.2925 11.9528C24.0539 12.4245 25.612 13.4609 26.7279 14.9031C27.8439 16.3452 28.4561 18.1135 28.4708 19.9369C28.4766 20.6561 27.7125 21.0686 27.1233 20.7503L27.0433 20.702L24.8116 19.1986C24.0016 18.6528 24.4975 17.4128 25.4233 17.5261L25.5208 17.5428L26.4066 17.7378C25.9564 16.4921 25.1454 15.4087 24.0769 14.6257C23.0085 13.8428 21.7311 13.3958 20.4077 13.3417C19.0842 13.2876 17.7746 13.6289 16.6458 14.322C15.5171 15.0152 14.6204 16.0288 14.07 17.2336C14.0263 17.3357 13.9626 17.428 13.8828 17.5051C13.8029 17.5822 13.7085 17.6426 13.605 17.6827C13.5015 17.7228 13.391 17.7418 13.28 17.7386C13.1691 17.7355 13.0598 17.7101 12.9588 17.6642C12.8578 17.6182 12.7669 17.5525 12.6916 17.4709C12.6163 17.3894 12.5581 17.2936 12.5203 17.1892C12.4825 17.0848 12.466 16.9739 12.4716 16.8631C12.4773 16.7522 12.5051 16.6436 12.5533 16.5436Z" fill="#6584DB"/>
</g>
<defs>
<clipPath id="clip0_11877_2435">
<rect width="20" height="20" fill="white" transform="translate(10.1328 10)"/>
</clipPath>
</defs>
</svg>
