<svg width="41" height="40" viewBox="0 0 41 40" fill="none" xmlns="http://www.w3.org/2000/svg">
<circle cx="20.1328" cy="20" r="20" fill="#E7ECFA"/>
<g clip-path="url(#clip0_11877_2278)">
<path fill-rule="evenodd" clip-rule="evenodd" d="M19.3008 20.8337C19.6733 20.8337 20.0399 20.8537 20.3974 20.892C20.6172 20.9153 20.8188 21.025 20.9577 21.1969C21.0966 21.3688 21.1616 21.5889 21.1383 21.8087C21.115 22.0285 21.0053 22.23 20.8334 22.3689C20.6615 22.5079 20.4414 22.5728 20.2216 22.5495C19.9216 22.517 19.6133 22.5003 19.3008 22.5003C17.6149 22.5003 16.0983 22.992 15.0208 23.6495C14.4816 23.9778 14.0749 24.3345 13.8124 24.6678C13.5424 25.0095 13.4674 25.2678 13.4674 25.417C13.4674 25.5187 13.4983 25.6262 13.6799 25.772C13.8874 25.9387 14.2483 26.1112 14.7999 26.257C15.8983 26.5487 17.4766 26.667 19.3008 26.667L19.8491 26.6628C20.0701 26.6598 20.2833 26.7448 20.4417 26.8989C20.6001 27.0531 20.6907 27.2639 20.6937 27.4849C20.6967 27.7059 20.6117 27.9191 20.4576 28.0775C20.3034 28.2358 20.0926 28.3265 19.8716 28.3295L19.3008 28.3337C17.4433 28.3337 15.6883 28.217 14.3733 27.8687C13.7191 27.6953 13.1033 27.447 12.6366 27.072C12.1424 26.6753 11.8008 26.1212 11.8008 25.417C11.8008 24.7612 12.0991 24.1478 12.5041 23.6345C12.9158 23.1137 13.4849 22.6345 14.1524 22.2262C15.4883 21.4128 17.3049 20.8337 19.3008 20.8337ZM27.2174 22.2428C27.9808 22.6878 28.4891 23.5678 28.4674 24.5662C28.4374 25.8745 27.4274 26.8978 26.0624 27.7087C25.7774 27.8787 25.4758 28.0562 25.1341 28.0562C24.7924 28.0562 24.4908 27.8787 24.2058 27.7087C22.8408 26.8978 21.8308 25.8737 21.8016 24.567C21.7791 23.5687 22.2874 22.6878 23.0508 22.2428C23.6783 21.877 24.4499 21.8295 25.1341 22.2045C25.8183 21.8295 26.5899 21.877 27.2174 22.2428ZM26.1566 23.612L26.0916 23.6145C25.9937 23.6294 25.9024 23.6729 25.8291 23.7395L25.7624 23.7995C25.4416 24.1245 24.9308 24.1478 24.5824 23.8695L24.5049 23.7995C24.3691 23.662 24.2549 23.6237 24.1766 23.6145C24.0762 23.6052 23.9754 23.6292 23.8899 23.6828C23.6691 23.8112 23.4583 24.1162 23.4674 24.5287C23.4758 24.9037 23.7674 25.4703 24.8841 26.1703L25.1341 26.322L25.2108 26.2762C26.4708 25.5278 26.7916 24.922 26.8008 24.5295C26.8091 24.1153 26.5991 23.8112 26.3783 23.6828C26.3111 23.6418 26.2351 23.6175 26.1566 23.612ZM19.3008 11.667C20.4059 11.667 21.4657 12.106 22.2471 12.8874C23.0285 13.6688 23.4674 14.7286 23.4674 15.8337C23.4674 16.9387 23.0285 17.9985 22.2471 18.7799C21.4657 19.5613 20.4059 20.0003 19.3008 20.0003C18.1957 20.0003 17.1359 19.5613 16.3545 18.7799C15.5731 17.9985 15.1341 16.9387 15.1341 15.8337C15.1341 14.7286 15.5731 13.6688 16.3545 12.8874C17.1359 12.106 18.1957 11.667 19.3008 11.667ZM19.3008 13.3337C18.9725 13.3337 18.6474 13.3983 18.3441 13.524C18.0408 13.6496 17.7652 13.8337 17.533 14.0659C17.3009 14.298 17.1167 14.5736 16.9911 14.877C16.8654 15.1803 16.8008 15.5054 16.8008 15.8337C16.8008 16.162 16.8654 16.4871 16.9911 16.7904C17.1167 17.0937 17.3009 17.3693 17.533 17.6014C17.7652 17.8336 18.0408 18.0177 18.3441 18.1434C18.6474 18.269 18.9725 18.3337 19.3008 18.3337C19.9638 18.3337 20.5997 18.0703 21.0685 17.6014C21.5374 17.1326 21.8008 16.4967 21.8008 15.8337C21.8008 15.1706 21.5374 14.5347 21.0685 14.0659C20.5997 13.5971 19.9638 13.3337 19.3008 13.3337Z" fill="#6584DB"/>
</g>
<defs>
<clipPath id="clip0_11877_2278">
<rect width="20" height="20" fill="white" transform="translate(10.1328 10)"/>
</clipPath>
</defs>
</svg>
