<svg width="41" height="40" viewBox="0 0 41 40" fill="none" xmlns="http://www.w3.org/2000/svg">
<circle cx="20.1328" cy="20" r="20" fill="#E7ECFA"/>
<g clip-path="url(#clip0_11877_8990)">
<path fill-rule="evenodd" clip-rule="evenodd" d="M14.3008 17.5003C14.3008 15.9532 14.9154 14.4695 16.0093 13.3755C17.1033 12.2816 18.587 11.667 20.1341 11.667C21.6812 11.667 23.1649 12.2816 24.2589 13.3755C25.3529 14.4695 25.9674 15.9532 25.9674 17.5003V18.3628C27.3808 18.5653 28.4674 19.7812 28.4674 21.2503V21.4587C28.4673 21.82 28.3949 22.1777 28.2545 22.5106C28.114 22.8435 27.9083 23.145 27.6496 23.3972C27.3908 23.6495 27.0842 23.8474 26.7478 23.9793C26.4114 24.1112 26.052 24.1744 25.6908 24.1653C25.0741 25.932 23.5058 27.1228 21.8133 27.4245C21.4216 27.5678 20.9583 27.5003 20.5508 27.5003C20.2193 27.5003 19.9013 27.3686 19.6669 27.1342C19.4325 26.8998 19.3008 26.5818 19.3008 26.2503C19.3008 25.9188 19.4325 25.6009 19.6669 25.3664C19.9013 25.132 20.2193 25.0003 20.5508 25.0003H21.3841C21.7966 25.0003 22.1616 25.2003 22.3899 25.5078C23.4699 24.9937 24.3008 23.9078 24.3008 22.5003V17.5003C24.3008 16.3953 23.8618 15.3354 23.0804 14.554C22.299 13.7726 21.2392 13.3337 20.1341 13.3337C19.029 13.3337 17.9692 13.7726 17.1878 14.554C16.4064 15.3354 15.9674 16.3953 15.9674 17.5003V22.7087C15.9674 23.0954 15.8138 23.4664 15.5403 23.7399C15.2668 24.0133 14.8959 24.167 14.5091 24.167C13.7908 24.167 13.1019 23.8817 12.594 23.3737C12.0861 22.8658 11.8008 22.177 11.8008 21.4587V21.2503C11.8006 20.5488 12.0532 19.8708 12.5124 19.3405C12.9716 18.8101 13.6065 18.463 14.3008 18.3628V17.5003ZM14.3008 20.0712C14.057 20.1574 13.8459 20.3171 13.6966 20.5282C13.5474 20.7394 13.4673 20.9917 13.4674 21.2503V21.4587C13.4674 21.9628 13.8258 22.3837 14.3008 22.4795V20.0712ZM25.9674 20.0712V22.4795C26.4424 22.3828 26.8008 21.9628 26.8008 21.4587V21.2503C26.8009 20.9917 26.7208 20.7394 26.5716 20.5282C26.4223 20.3171 26.2113 20.1574 25.9674 20.0712Z" fill="#6584DB"/>
</g>
<defs>
<clipPath id="clip0_11877_8990">
<rect width="20" height="20" fill="white" transform="translate(10.1328 10)"/>
</clipPath>
</defs>
</svg>
