<svg width="87" height="87" viewBox="0 0 87 87" fill="none" xmlns="http://www.w3.org/2000/svg">
<rect x="1.9375" y="2.13672" width="83" height="83" rx="41.5" fill="url(#paint0_linear_11053_12785)"/>
<rect x="1.9375" y="2.13672" width="83" height="83" rx="41.5" stroke="white" stroke-width="3"/>
<path d="M45.2834 68.5639H25.9001C23.6342 68.5639 22.2256 67.1615 22.2256 64.8894C22.2256 62.4795 22.2256 60.0696 22.2256 57.6597C22.2256 57.0656 22.2256 57.0656 21.6499 57.0473C19.8126 56.9799 18.4438 55.5162 18.4102 53.5534C18.4102 52.6347 18.4102 51.6885 18.4102 50.7576C18.4102 41.2956 18.4102 31.8326 18.4102 22.3686C18.4102 21.1437 18.796 20.1057 19.8095 19.3585C20.4994 18.8879 21.3242 18.6557 22.1582 18.6971H60.8758C61.7089 18.6568 62.5327 18.8866 63.2245 19.3524C64.2717 20.1026 64.6331 21.1713 64.6361 22.4145C64.6361 24.8091 64.6361 27.2037 64.6361 29.5983C64.6361 30.1862 64.6361 30.1862 65.2486 30.2383C67.1899 30.4006 68.4515 31.803 68.4607 33.8516C68.476 36.1727 68.4607 38.4938 68.4607 40.8149V64.8557C68.4607 66.1969 68.0229 67.3054 66.8501 68.0679C66.2652 68.4234 65.5896 68.601 64.9056 68.5793L45.2834 68.5639ZM45.3294 39.2226H23.9955C23.3831 39.2226 23.3831 39.2226 23.3831 39.835C23.3831 48.2161 23.4045 56.6002 23.3647 64.9843C23.3511 65.3068 23.4041 65.6286 23.5202 65.9297C23.6364 66.2308 23.8133 66.5048 24.0399 66.7346C24.2666 66.9644 24.5381 67.1451 24.8376 67.2654C25.137 67.3857 25.4581 67.4431 25.7807 67.434C38.8193 67.4075 51.8589 67.4014 64.8995 67.4156C65.1804 67.4315 65.4621 67.4057 65.7354 67.3391C66.7368 67.0329 67.2941 66.2184 67.2941 64.9904C67.2941 56.6206 67.2941 48.2508 67.2941 39.8809C67.2941 39.2379 67.2941 39.2348 66.6296 39.2348L45.3294 39.2226ZM45.3018 38.111H62.2905C63.8002 38.111 65.3067 38.111 66.8164 38.111C67.1226 38.111 67.2941 38.0559 67.291 37.7007C67.2757 36.2676 67.291 34.8315 67.2726 33.4137C67.2683 33.0788 67.1793 32.7503 67.0139 32.4591C66.8484 32.1678 66.6119 31.9231 66.3264 31.7479C65.8031 31.4347 65.1951 31.2923 64.5871 31.3406H25.7715C24.1302 31.3651 23.3065 32.4736 23.3647 33.7904C23.4167 34.9999 23.3647 36.2156 23.3647 37.4282C23.3647 38.111 23.3647 38.1141 24.0414 38.1141L45.3018 38.111ZM41.4833 26.5882H59.7061C60.8023 26.5882 61.8955 26.5882 62.9887 26.5882C63.3133 26.5882 63.4786 26.5025 63.4725 26.1381C63.4725 24.7479 63.4725 23.3607 63.4725 21.9705C63.4744 21.4932 63.3086 21.0305 63.004 20.663C62.4743 20.0016 61.7638 19.8423 60.9493 19.8423C48.0026 19.8423 35.0549 19.8423 22.1061 19.8423H21.7418C21.4485 19.833 21.1564 19.8847 20.8842 19.9943C20.612 20.1038 20.3655 20.2688 20.1604 20.4788C19.9554 20.6887 19.7963 20.939 19.6932 21.2137C19.5901 21.4885 19.5452 21.7816 19.5615 22.0746C19.5615 23.3454 19.5615 24.6162 19.5615 25.887C19.5615 26.5729 19.5615 26.5729 20.2444 26.5729L41.4833 26.5882ZM41.5109 27.7518H20.177C19.5646 27.7518 19.5646 27.7518 19.5646 28.3643C19.5646 36.7463 19.5646 45.1294 19.5646 53.5136C19.5646 54.9405 20.3271 55.7642 21.7448 55.9173C22.0878 55.9541 22.2562 55.85 22.2225 55.4886C22.2225 55.357 22.2225 55.2222 22.2225 55.0906C22.2225 48.0354 22.2225 40.9823 22.2225 33.9312C22.1831 33.1736 22.3719 32.4216 22.7645 31.7724C23.4994 30.6578 24.565 30.2077 25.8634 30.2077H62.5814C62.7293 30.2 62.8775 30.2 63.0254 30.2077C63.347 30.2322 63.4848 30.1035 63.4725 29.7728C63.4572 29.3319 63.4725 28.8879 63.4725 28.4439C63.4725 27.7426 63.4725 27.7426 62.759 27.7426L41.5109 27.7518Z" fill="white"/>
<path d="M27.8557 35.1622C27.8524 35.0106 27.8798 34.8599 27.9364 34.7193C27.9929 34.5786 28.0774 34.4509 28.1848 34.3438C28.2921 34.2367 28.4201 34.1526 28.5609 34.0964C28.7017 34.0402 28.8525 34.0132 29.004 34.0169C29.1591 34.014 29.3132 34.0425 29.457 34.1006C29.6008 34.1587 29.7314 34.2452 29.8409 34.355C29.9505 34.4649 30.0367 34.5957 30.0944 34.7396C30.1521 34.8836 30.1802 35.0377 30.1768 35.1928C30.1669 35.4975 30.0414 35.7869 29.8259 36.0024C29.6104 36.2179 29.3209 36.3434 29.0163 36.3534C28.8615 36.3526 28.7084 36.321 28.566 36.2605C28.4235 36.2 28.2945 36.1117 28.1865 36.0008C28.0785 35.89 27.9936 35.7587 27.9369 35.6148C27.8801 35.4708 27.8525 35.3169 27.8557 35.1622Z" fill="white"/>
<path d="M38.3403 35.1837C38.3358 35.0323 38.3617 34.8816 38.4164 34.7405C38.4712 34.5993 38.5536 34.4705 38.659 34.3618C38.7643 34.253 38.8904 34.1665 39.0297 34.1073C39.1691 34.048 39.3189 34.0173 39.4703 34.017C39.6252 34.0129 39.7794 34.0395 39.924 34.0953C40.0686 34.151 40.2008 34.2348 40.3129 34.3418C40.4251 34.4488 40.5149 34.5769 40.5774 34.7188C40.6398 34.8606 40.6736 35.0134 40.6768 35.1684C40.6667 35.4729 40.5434 35.7628 40.3311 35.9813C40.1188 36.1999 39.8326 36.3315 39.5285 36.3504C39.3736 36.3528 39.2197 36.3244 39.0759 36.2669C38.932 36.2094 38.801 36.1239 38.6905 36.0154C38.58 35.9069 38.4921 35.7774 38.432 35.6347C38.3719 35.4919 38.3407 35.3386 38.3403 35.1837Z" fill="white"/>
<path d="M34.1334 34.0177C34.2844 34.0165 34.4342 34.0452 34.574 34.1023C34.7139 34.1593 34.841 34.2435 34.9481 34.35C35.0552 34.4565 35.1401 34.5832 35.1979 34.7228C35.2556 34.8623 35.2852 35.0119 35.2848 35.1629C35.2844 35.3218 35.2522 35.479 35.1901 35.6253C35.1279 35.7715 35.037 35.9038 34.9228 36.0143C34.8086 36.1248 34.6734 36.2113 34.5252 36.2686C34.377 36.3259 34.2188 36.3529 34.0599 36.348C33.7653 36.3217 33.4902 36.1897 33.2853 35.9764C33.0804 35.7631 32.9597 35.4828 32.9453 35.1874C32.9457 35.0324 32.9768 34.8789 33.0369 34.736C33.097 34.593 33.1848 34.4634 33.2953 34.3547C33.4058 34.2459 33.5368 34.1601 33.6806 34.1022C33.8245 34.0444 33.9784 34.0157 34.1334 34.0177Z" fill="white"/>
<path d="M24.355 24.3895C24.0545 24.3772 23.7701 24.2497 23.5608 24.0336C23.3515 23.8175 23.2333 23.5293 23.2305 23.2284C23.2278 22.9276 23.3407 22.6372 23.546 22.4173C23.7513 22.1974 24.0333 22.0649 24.3336 22.047C24.4923 22.0376 24.6513 22.0605 24.8008 22.1144C24.9504 22.1683 25.0874 22.252 25.2036 22.3605C25.3198 22.469 25.4128 22.6 25.4768 22.7455C25.5408 22.891 25.5746 23.048 25.576 23.207C25.5775 23.366 25.5466 23.5236 25.4852 23.6702C25.4239 23.8169 25.3334 23.9496 25.2192 24.0602C25.105 24.1708 24.9695 24.257 24.821 24.3136C24.6724 24.3702 24.5139 24.3961 24.355 24.3895Z" fill="white"/>
<path d="M35.9915 23.2411C35.9888 23.3963 35.9552 23.5494 35.8927 23.6915C35.8301 23.8336 35.7399 23.9618 35.6274 24.0687C35.5148 24.1756 35.3821 24.259 35.2369 24.314C35.0918 24.3691 34.9372 24.3947 34.782 24.3894C34.4812 24.3693 34.1997 24.2341 33.996 24.0119C33.7922 23.7898 33.6818 23.4976 33.6877 23.1962C33.6936 22.8948 33.8154 22.6073 34.0277 22.3932C34.24 22.1792 34.5266 22.0552 34.8279 22.0469C34.9828 22.0489 35.1357 22.0813 35.2779 22.1424C35.4202 22.2035 35.5491 22.2921 35.6571 22.403C35.7652 22.5139 35.8503 22.645 35.9077 22.7888C35.9651 22.9326 35.9936 23.0863 35.9915 23.2411Z" fill="white"/>
<path d="M28.3055 23.1957C28.3087 22.8911 28.4315 22.6 28.6475 22.3851C28.8635 22.1703 29.1553 22.049 29.4599 22.0474C29.6188 22.0393 29.7776 22.0636 29.9268 22.1188C30.076 22.174 30.2123 22.2589 30.3277 22.3685C30.443 22.478 30.5348 22.6099 30.5975 22.7561C30.6603 22.9022 30.6926 23.0596 30.6926 23.2187C30.6926 23.3778 30.6603 23.5351 30.5975 23.6813C30.5348 23.8275 30.443 23.9593 30.3277 24.0689C30.2123 24.1785 30.076 24.2634 29.9268 24.3186C29.7776 24.3738 29.6188 24.3981 29.4599 24.39C29.3048 24.3905 29.1511 24.3596 29.0082 24.2993C28.8653 24.239 28.7361 24.1504 28.6282 24.0388C28.5204 23.9273 28.4362 23.7951 28.3808 23.6502C28.3253 23.5053 28.2997 23.3508 28.3055 23.1957Z" fill="white"/>
<path d="M51.2622 60.8633C51.1581 60.8324 51.0559 60.7956 50.956 60.7531C50.7192 60.6668 50.494 60.5516 50.2854 60.4101C49.529 59.7977 48.8064 60.0886 48.0715 60.4377C47.9938 60.4799 47.9263 60.5385 47.8734 60.6093C47.8206 60.6801 47.7837 60.7616 47.7652 60.848C47.6091 61.3257 47.4437 61.7973 47.2937 62.278C47.2573 62.4386 47.1642 62.5807 47.0314 62.678C46.8986 62.7753 46.7351 62.8214 46.571 62.8078H44.0876C43.9238 62.8222 43.7604 62.7768 43.6275 62.68C43.4946 62.5831 43.4014 62.4414 43.365 62.2811C43.2272 61.8279 43.0588 61.3839 42.9301 60.9307C42.8887 60.8076 42.822 60.6946 42.7345 60.5986C42.647 60.5027 42.5405 60.426 42.4218 60.3734C41.6594 59.9263 40.9979 60.0212 40.2508 60.4652C39.2341 61.0777 39.2035 61.0134 38.3767 60.1866L37.1519 58.9617C36.7293 58.5361 36.7048 58.3769 36.9804 57.8287C37.1733 57.446 37.3632 57.0601 37.5775 56.6896C37.6315 56.5723 37.6607 56.4452 37.6633 56.3161C37.6659 56.187 37.6419 56.0588 37.5928 55.9394C37.3785 55.0208 36.7477 54.6319 35.8934 54.4726C35.7056 54.4276 35.5222 54.3661 35.3452 54.2889C35.2025 54.2448 35.0785 54.1542 34.9931 54.0316C34.9077 53.909 34.8656 53.7614 34.8737 53.6122C34.8737 52.7548 34.8737 51.8974 34.8737 51.04C34.8599 50.8904 34.9016 50.7411 34.9908 50.6203C35.08 50.4994 35.2105 50.4156 35.3575 50.3847C35.8229 50.2377 36.2761 50.0785 36.7507 49.9376C36.8709 49.8981 36.9816 49.8342 37.076 49.7499C37.1703 49.6656 37.2462 49.5627 37.2989 49.4477C37.7704 48.6668 37.6357 47.9932 37.1917 47.2429C36.6099 46.2631 36.6589 46.2355 37.452 45.4455C37.9021 44.9953 38.3706 44.5544 38.8024 44.0981C38.909 43.9628 39.0625 43.8723 39.2325 43.8445C39.4026 43.8167 39.5769 43.8537 39.721 43.9481C40.162 44.1869 40.6182 44.3982 41.0622 44.6371C41.1527 44.6799 41.2509 44.7039 41.3509 44.7076C41.451 44.7113 41.5507 44.6946 41.644 44.6585C42.057 44.5779 42.4326 44.3652 42.7143 44.0527C42.9959 43.7401 43.1684 43.3444 43.2057 42.9253C43.2497 42.7535 43.305 42.5847 43.3711 42.4201C43.4049 42.2668 43.4944 42.1315 43.6223 42.0405C43.7501 41.9494 43.9072 41.909 44.0631 41.9271C44.9052 41.9271 45.7473 41.9271 46.5894 41.9271C46.7532 41.9129 46.9166 41.9588 47.0491 42.0563C47.1815 42.1538 47.2739 42.2962 47.309 42.4568C47.4529 42.907 47.6152 43.354 47.7438 43.8072C47.7849 43.9231 47.8493 44.0294 47.933 44.1194C48.0168 44.2095 48.1181 44.2815 48.2307 44.3309C48.9809 44.781 49.6393 44.6983 50.3926 44.2574C51.4582 43.6449 51.351 43.6051 52.288 44.5421C52.6616 44.9188 53.0413 45.2924 53.418 45.669C53.9569 46.2049 53.9691 46.2814 53.6354 46.9337C53.4455 47.3011 53.2679 47.6778 53.0689 48.0391C53.0188 48.1426 52.9907 48.2554 52.9865 48.3703C52.9823 48.4852 53.002 48.5997 53.0444 48.7066C53.2587 49.6253 53.8528 50.0264 54.7347 50.2377C55.7911 50.5041 55.7758 50.5623 55.7758 51.6769C55.7758 52.3108 55.7758 52.9477 55.7758 53.5846C55.7947 53.7478 55.7522 53.9123 55.6565 54.0458C55.5609 54.1794 55.4189 54.2726 55.2583 54.3073C55.0795 54.378 54.8964 54.4373 54.7102 54.4849C54.3065 54.5214 53.9255 54.6876 53.6242 54.9586C53.3228 55.2296 53.1173 55.5909 53.0382 55.9884C52.9935 56.1025 52.9733 56.2248 52.9791 56.3472C52.9849 56.4696 53.0166 56.5895 53.0719 56.6988C53.2985 57.1122 53.5068 57.5378 53.7242 57.9574C53.8182 58.1004 53.8565 58.273 53.8316 58.4423C53.8068 58.6117 53.7206 58.766 53.5894 58.876C53.0076 59.4456 52.4381 60.0243 51.8624 60.6C51.7884 60.6859 51.696 60.7542 51.5922 60.7997C51.4883 60.8453 51.3756 60.867 51.2622 60.8633ZM51.1244 59.565C51.1963 59.5659 51.2674 59.5498 51.3318 59.5178C51.3963 59.4859 51.4522 59.4391 51.4949 59.3812C51.8011 59.075 52.092 58.7688 52.4136 58.4626C52.4543 58.4317 52.4885 58.3929 52.5141 58.3487C52.5397 58.3044 52.5563 58.2555 52.5628 58.2048C52.5694 58.1541 52.5658 58.1026 52.5522 58.0533C52.5387 58.0039 52.5155 57.9578 52.484 57.9175C52.2727 57.5287 52.0859 57.1245 51.8716 56.7325C51.7958 56.6051 51.7558 56.4597 51.7558 56.3115C51.7558 56.1633 51.7958 56.0178 51.8716 55.8904C52.1332 55.4114 52.3387 54.9038 52.484 54.3777C52.5149 54.2477 52.5818 54.1289 52.6772 54.0352C52.7725 53.9415 52.8924 53.8766 53.0229 53.848C53.4608 53.7163 53.8926 53.5663 54.3335 53.4376C54.4366 53.4224 54.5296 53.3674 54.5926 53.2844C54.6556 53.2014 54.6835 53.097 54.6704 52.9936C54.6551 52.568 54.6551 52.1362 54.6704 51.7075C54.6835 51.5973 54.6531 51.4864 54.5856 51.3983C54.5181 51.3102 54.4188 51.252 54.309 51.236C53.8987 51.1135 53.4976 50.9573 53.0842 50.8379C52.9259 50.7984 52.7817 50.716 52.6671 50.5999C52.5526 50.4837 52.4723 50.3383 52.435 50.1795C52.3011 49.6951 52.1099 49.2284 51.8654 48.7893C51.7874 48.6628 51.7461 48.517 51.7461 48.3683C51.7461 48.2196 51.7874 48.0738 51.8654 47.9472C52.0798 47.543 52.2758 47.1266 52.4993 46.7224C52.5294 46.6811 52.551 46.6342 52.5628 46.5845C52.5746 46.5348 52.5765 46.4832 52.5682 46.4328C52.5599 46.3824 52.5417 46.3341 52.5147 46.2908C52.4876 46.2474 52.4522 46.2099 52.4105 46.1804C52.1043 45.8895 51.7981 45.5894 51.4919 45.2617C51.4591 45.218 51.4179 45.1813 51.3707 45.1537C51.3235 45.1261 51.2713 45.1082 51.2171 45.101C51.1629 45.0939 51.1078 45.0977 51.0551 45.1121C51.0023 45.1266 50.9531 45.1514 50.9101 45.1852C50.5059 45.4026 50.0894 45.5925 49.6852 45.7976C49.5696 45.8622 49.4394 45.8962 49.307 45.8962C49.1746 45.8962 49.0444 45.8622 48.9289 45.7976C48.5136 45.572 48.0778 45.3864 47.6275 45.2434C47.4268 45.1963 47.2428 45.0952 47.0955 44.9511C46.9481 44.807 46.843 44.6253 46.7915 44.4258C46.3138 42.8947 46.3015 42.8947 44.6939 43.0111C44.5913 43.0034 44.4894 43.033 44.4068 43.0942C44.3241 43.1555 44.2663 43.2445 44.2438 43.3449C44.1121 43.7858 43.956 44.2145 43.8182 44.6524C43.7864 44.782 43.72 44.9006 43.6262 44.9955C43.5324 45.0904 43.4146 45.1581 43.2853 45.1913C42.7596 45.3443 42.2531 45.5569 41.7757 45.8252C41.6552 45.8981 41.517 45.9367 41.3761 45.9367C41.2352 45.9367 41.097 45.8981 40.9765 45.8252C40.5723 45.6108 40.1558 45.421 39.7516 45.2128C39.6695 45.1497 39.5658 45.1217 39.4631 45.1349C39.3604 45.1481 39.2671 45.2014 39.2035 45.2832C38.8973 45.6078 38.5911 45.9232 38.2604 46.2233C38.2199 46.2541 38.186 46.2928 38.1607 46.337C38.1355 46.3812 38.1193 46.4301 38.1133 46.4806C38.1073 46.5312 38.1116 46.5824 38.1258 46.6313C38.14 46.6802 38.1639 46.7258 38.1961 46.7652C38.4196 47.1664 38.6217 47.5798 38.833 47.9901C38.9037 48.1125 38.9409 48.2514 38.9409 48.3928C38.9409 48.5341 38.9037 48.673 38.833 48.7954C38.5705 49.259 38.3648 49.7525 38.2206 50.2653C38.1834 50.4106 38.1063 50.5426 37.9981 50.6465C37.8899 50.7504 37.7549 50.822 37.6082 50.8532C37.1978 50.9726 36.7936 51.1165 36.3833 51.2298C36.3251 51.2377 36.2691 51.2571 36.2185 51.2869C36.168 51.3167 36.1238 51.3562 36.0888 51.4033C36.0537 51.4503 36.0283 51.5039 36.0142 51.5609C36.0002 51.6179 35.9976 51.6771 36.0067 51.7351C36.025 52.1485 36.025 52.5649 36.0067 52.9783C35.9976 53.0362 36.0005 53.0954 36.0151 53.1522C36.0296 53.209 36.0556 53.2622 36.0914 53.3086C36.1272 53.355 36.1721 53.3937 36.2234 53.4222C36.2746 53.4507 36.3311 53.4684 36.3894 53.4744C36.8151 53.5907 37.2315 53.7469 37.6571 53.8663C37.7941 53.9006 37.9188 53.9723 38.0172 54.0734C38.1156 54.1746 38.1839 54.3011 38.2144 54.439C38.3478 54.94 38.5433 55.4225 38.7963 55.8751C38.8813 56.0132 38.9264 56.1722 38.9264 56.3344C38.9264 56.4966 38.8813 56.6556 38.7963 56.7937C38.5911 57.1673 38.4196 57.5623 38.2053 57.9359C38.1728 57.9802 38.1496 58.0305 38.1371 58.0839C38.1246 58.1374 38.123 58.1928 38.1325 58.2468C38.1419 58.3009 38.1622 58.3525 38.1921 58.3985C38.2219 58.4445 38.2608 58.484 38.3063 58.5147C38.6125 58.7933 38.9034 59.0873 39.1882 59.3904C39.2537 59.48 39.3521 59.5399 39.4617 59.5571C39.5713 59.5744 39.6833 59.5474 39.7731 59.4823C40.1895 59.2588 40.6213 59.0597 41.0408 58.8423C41.1413 58.7793 41.2575 58.7458 41.3761 58.7458C41.4947 58.7458 41.6109 58.7793 41.7114 58.8423C42.1452 59.0968 42.612 59.2905 43.0986 59.418C43.2984 59.4701 43.4798 59.5768 43.6225 59.726C43.7652 59.8753 43.8637 60.0612 43.907 60.2631C44.0509 60.7378 44.0509 61.3686 44.4428 61.6319C44.8348 61.8953 45.4503 61.6901 45.9739 61.7146H46.0168C46.0646 61.7233 46.1136 61.7222 46.161 61.7114C46.2083 61.7005 46.253 61.6802 46.2922 61.6515C46.3315 61.6229 46.3645 61.5865 46.3892 61.5447C46.414 61.5029 46.43 61.4566 46.4363 61.4084C46.5802 60.9429 46.7425 60.4897 46.8895 60.0182C46.9229 59.8888 46.991 59.7711 47.0866 59.6777C47.1821 59.5843 47.3014 59.5188 47.4315 59.4884C47.9652 59.3485 48.4795 59.1428 48.9625 58.876C49.0842 58.8047 49.2227 58.7671 49.3637 58.7671C49.5047 58.7671 49.6432 58.8047 49.7648 58.876C50.1323 59.0689 50.4997 59.2557 50.8703 59.4425C50.9346 59.4884 51.0448 59.5313 51.1244 59.5527V59.565Z" fill="white"/>
<path d="M45.3154 46.8809C46.3999 46.8785 47.4606 47.1984 48.3629 47.7999C49.2653 48.4015 49.9685 49.2576 50.3833 50.2596C50.7982 51.2616 50.906 52.3643 50.693 53.4277C50.4799 54.491 49.9558 55.4671 49.187 56.232C48.4182 56.9969 47.4395 57.5161 46.3751 57.7237C45.3107 57.9313 44.2086 57.818 43.2087 57.3981C42.2088 56.9782 41.3563 56.2706 40.7593 55.3652C40.1623 54.4599 39.8477 53.3975 39.8556 52.3131C39.8669 50.8711 40.4466 49.4918 41.4689 48.4747C42.4911 47.4576 43.8734 46.8849 45.3154 46.8809ZM45.2603 56.6644C46.1183 56.6741 46.9599 56.4289 47.6785 55.96C48.3972 55.4911 48.9605 54.8195 49.2973 54.0303C49.634 53.2411 49.729 52.3696 49.5702 51.5264C49.4114 50.6831 49.006 49.9059 48.4053 49.2932C47.8046 48.6805 47.0356 48.2597 46.1956 48.0843C45.3557 47.9089 44.4826 47.9866 43.6868 48.3076C42.891 48.6287 42.2084 49.1786 41.7254 49.8878C41.2424 50.597 40.9806 51.4336 40.9733 52.2917C40.9664 52.8606 41.072 53.4253 41.2839 53.9533C41.4959 54.4814 41.81 54.9623 42.2084 55.3686C42.6067 55.7749 43.0814 56.0985 43.6051 56.3209C44.1288 56.5433 44.6913 56.66 45.2603 56.6644Z" fill="white"/>
<defs>
<linearGradient id="paint0_linear_11053_12785" x1="21.4796" y1="3.63672" x2="65.3954" y2="83.6367" gradientUnits="userSpaceOnUse">
<stop stop-color="#5199A8"/>
<stop offset="1" stop-color="#3E8E9E"/>
</linearGradient>
</defs>
</svg>
