<svg width="55" height="56" viewBox="0 0 55 56" fill="none" xmlns="http://www.w3.org/2000/svg">
<rect y="0.5" width="55" height="55" rx="27.5" fill="#6584DB"/>
<g clip-path="url(#clip0_11053_12739)">
<path fill-rule="evenodd" clip-rule="evenodd" d="M27.165 27.6688C29.5602 27.6688 31.7314 28.4612 33.3222 29.5705C34.8357 30.6259 36.117 32.1935 36.117 33.8803C36.117 34.8067 35.7223 35.5735 35.0996 36.1448C34.5138 36.6823 33.7489 37.0308 32.9611 37.2692C31.3865 37.7458 29.3139 37.8996 27.165 37.8996C25.0162 37.8996 22.9436 37.7458 21.3689 37.2692C20.5811 37.0308 19.8162 36.6823 19.2303 36.1448C18.6077 35.5735 18.2131 34.8067 18.2131 33.8803C18.2131 32.1935 19.4943 30.6259 21.0078 29.5705C22.5986 28.4612 24.7698 27.6688 27.165 27.6688ZM27.165 30.2265C25.3224 30.2265 23.6572 30.8411 22.4708 31.6684C21.2072 32.5497 20.7708 33.4485 20.7708 33.8803C20.7708 34.2689 21.221 34.5124 21.6306 34.6656L21.8924 34.755L22.1098 34.8212C23.3122 35.185 25.0761 35.3419 27.165 35.3419C29.0932 35.3419 30.7445 35.2082 31.9329 34.9015L32.3214 34.7907L32.565 34.7134C33.0034 34.5647 33.5593 34.3121 33.5593 33.8803C33.5593 33.4485 33.1229 32.5497 31.8592 31.6684C30.6729 30.8411 29.0076 30.2265 27.165 30.2265ZM36.117 28.9477C37.4527 28.9477 38.6648 29.3882 39.5613 30.0135C40.3805 30.5847 41.2324 31.5357 41.2324 32.6929C41.2324 34.4011 39.574 35.0118 38.0828 35.2252L37.6987 35.2724L37.3295 35.3043C37.2696 35.3084 37.2106 35.3121 37.1527 35.3153C37.3091 34.8744 37.3958 34.3944 37.3958 33.8803C37.3958 33.4896 37.3472 33.1106 37.2586 32.7451C37.753 32.7072 38.1583 32.6424 38.4594 32.5512C38.5922 32.511 38.4714 32.3856 38.332 32.2768L38.1952 32.1773L38.0983 32.1114C37.7603 31.8757 37.3214 31.6779 36.8258 31.5771C36.3388 30.6053 35.5925 29.7633 34.7971 29.0922C35.2174 28.9992 35.6599 28.9477 36.117 28.9477ZM18.2131 28.9477C18.6701 28.9477 19.1126 28.9992 19.533 29.0922C18.7375 29.7633 17.9911 30.6053 17.5042 31.5771C17.0086 31.6779 16.5697 31.8757 16.2317 32.1114L16.0681 32.2243C15.906 32.3415 15.7157 32.5043 15.8707 32.5512C16.1717 32.6424 16.577 32.7072 17.0714 32.7451C16.9828 33.1106 16.9342 33.4896 16.9342 33.8803C16.9342 34.3944 17.021 34.8744 17.1773 35.3153L16.8182 35.29L16.4406 35.2509C14.9034 35.0628 13.0977 34.4754 13.0977 32.6929C13.0977 31.5357 13.9495 30.5847 14.7687 30.0135C15.6652 29.3882 16.8773 28.9477 18.2131 28.9477ZM35.4775 21.2746C37.2432 21.2746 38.6747 22.706 38.6747 24.4717C38.6747 26.2374 37.2432 27.6688 35.4775 27.6688C33.7118 27.6688 32.2804 26.2374 32.2804 24.4717C32.2804 22.706 33.7118 21.2746 35.4775 21.2746ZM18.8525 21.2746C20.6182 21.2746 22.0496 22.706 22.0496 24.4717C22.0496 26.2374 20.6182 27.6688 18.8525 27.6688C17.0868 27.6688 15.6554 26.2374 15.6554 24.4717C15.6554 22.706 17.0868 21.2746 18.8525 21.2746ZM27.165 16.1592C29.9901 16.1592 32.2804 18.4494 32.2804 21.2746C32.2804 24.0997 29.9901 26.39 27.165 26.39C24.3398 26.39 22.0496 24.0997 22.0496 21.2746C22.0496 18.4494 24.3398 16.1592 27.165 16.1592ZM35.4775 23.8323C35.1244 23.8323 34.8381 24.1186 34.8381 24.4717C34.8381 24.8248 35.1244 25.1111 35.4775 25.1111C35.8306 25.1111 36.117 24.8248 36.117 24.4717C36.117 24.1186 35.8306 23.8323 35.4775 23.8323ZM18.8525 23.8323C18.4993 23.8323 18.2131 24.1186 18.2131 24.4717C18.2131 24.8248 18.4993 25.1111 18.8525 25.1111C19.2056 25.1111 19.4919 24.8248 19.4919 24.4717C19.4919 24.1186 19.2056 23.8323 18.8525 23.8323ZM27.165 18.7169C25.7524 18.7169 24.6073 19.862 24.6073 21.2746C24.6073 22.6872 25.7524 23.8323 27.165 23.8323C28.5776 23.8323 29.7227 22.6872 29.7227 21.2746C29.7227 19.862 28.5776 18.7169 27.165 18.7169Z" fill="white"/>
</g>
<defs>
<clipPath id="clip0_11053_12739">
<rect width="30.6924" height="30.6924" fill="white" transform="translate(11.8203 12.3223)"/>
</clipPath>
</defs>
</svg>
