<svg preserveAspectRatio="none" width="100%" height="100%" overflow="visible" style="display: block;" viewBox="0 0 32 32" fill="none" xmlns="http://www.w3.org/2000/svg">
<g id="Group">
<g id="Vector">
</g>
<path id="Vector_2" d="M17.3322 5.33326C17.3322 4.97964 17.1918 4.6405 16.9417 4.39046C16.6917 4.14041 16.3525 3.99993 15.9989 3.99993C15.6453 3.99993 15.3061 4.14041 15.0561 4.39046C14.8061 4.6405 14.6656 4.97964 14.6656 5.33326V6.6666H12.6656C11.2511 6.6666 9.89453 7.2285 8.89434 8.2287C7.89415 9.22889 7.33224 10.5854 7.33224 11.9999C7.33224 13.4144 7.89415 14.771 8.89434 15.7712C9.89453 16.7714 11.2511 17.3333 12.6656 17.3333H19.3322C20.0395 17.3333 20.7178 17.6142 21.2179 18.1143C21.718 18.6144 21.9989 19.2927 21.9989 19.9999C21.9989 20.7072 21.718 21.3855 21.2179 21.8855C20.7178 22.3856 20.0395 22.6666 19.3322 22.6666H9.33224C8.97862 22.6666 8.63948 22.8071 8.38943 23.0571C8.13939 23.3072 7.99891 23.6463 7.99891 23.9999C7.99891 24.3536 8.13939 24.6927 8.38943 24.9427C8.63948 25.1928 8.97862 25.3333 9.33224 25.3333H14.6656V26.6666C14.6656 27.0202 14.8061 27.3594 15.0561 27.6094C15.3061 27.8595 15.6453 27.9999 15.9989 27.9999C16.3525 27.9999 16.6917 27.8595 16.9417 27.6094C17.1918 27.3594 17.3322 27.0202 17.3322 26.6666V25.3333H19.3322C20.7467 25.3333 22.1033 24.7714 23.1035 23.7712C24.1037 22.771 24.6656 21.4144 24.6656 19.9999C24.6656 18.5854 24.1037 17.2289 23.1035 16.2287C22.1033 15.2285 20.7467 14.6666 19.3322 14.6666H12.6656C11.9583 14.6666 11.2801 14.3856 10.78 13.8855C10.2799 13.3855 9.99891 12.7072 9.99891 11.9999C9.99891 11.2927 10.2799 10.6144 10.78 10.1143C11.2801 9.61422 11.9583 9.33327 12.6656 9.33327H22.6656C23.0192 9.33327 23.3583 9.19279 23.6084 8.94274C23.8584 8.69269 23.9989 8.35355 23.9989 7.99993C23.9989 7.64631 23.8584 7.30717 23.6084 7.05712C23.3583 6.80707 23.0192 6.6666 22.6656 6.6666H17.3322V5.33326Z" fill="var(--fill-0, #CC7D2E)"/>
</g>
</svg>
