<svg width="55" height="56" viewBox="0 0 55 56" fill="none" xmlns="http://www.w3.org/2000/svg">
<rect y="0.5" width="55" height="55" rx="27.5" fill="#FCDE2F"/>
<g clip-path="url(#clip0_11053_12761)">
<path fill-rule="evenodd" clip-rule="evenodd" d="M24.1605 17.4376L20.182 26.3895H24.5902C25.4726 26.3895 26.0941 27.2528 25.8153 28.0904L23.6975 34.4425L33.0306 25.1107H29.7439C28.7848 25.1107 28.1594 24.1004 28.5891 23.241L31.4908 17.4376H24.1605ZM22.1578 15.6472C22.365 15.1804 22.8266 14.8799 23.3382 14.8799H33.5396C34.4987 14.8799 35.124 15.8902 34.6944 16.7496L31.7926 22.553H36.087C37.238 22.553 37.8135 23.9444 37.0001 24.7577L21.714 40.0438C20.7498 41.0081 19.1435 40.0157 19.5758 38.7228L22.8343 28.9472H18.233C18.0178 28.9472 17.8061 28.8935 17.6169 28.7908C17.4278 28.6882 17.2673 28.5399 17.1501 28.3595C17.0328 28.1791 16.9625 27.9723 16.9455 27.7578C16.9284 27.5433 16.9653 27.3279 17.0526 27.1313L22.1578 15.6472Z" fill="white"/>
</g>
<defs>
<clipPath id="clip0_11053_12761">
<rect width="30.6924" height="30.6924" fill="white" transform="translate(11.8203 12.3223)"/>
</clipPath>
</defs>
</svg>
