<svg width="203" height="203" viewBox="0 0 203 203" fill="none" xmlns="http://www.w3.org/2000/svg">
<path d="M161.949 0.184998C162.726 0.521341 163.456 0.958424 164.119 1.485C165.279 2.745 166.409 2.485 167.839 2.035C178.029 -0.964996 187.229 0.955 194.889 8.375C205.889 19.055 205.319 36.775 193.769 47.295C193.28 47.6536 192.903 48.1438 192.681 48.7086C192.46 49.2734 192.404 49.8895 192.519 50.485C192.989 53.975 191.519 56.605 188.439 58.365C185.009 60.365 181.569 62.265 178.169 64.285C174.769 66.305 171.429 66.425 168.329 63.725C167.269 62.815 166.529 63.445 165.679 63.925L133.679 82.365C131.829 83.425 129.999 84.415 127.739 84.185C126.143 84.1457 124.617 83.5231 123.449 82.435C122.449 81.435 121.729 81.625 120.709 82.275C119.539 83.015 120.089 83.785 120.439 84.645C123.559 92.305 122.029 99.775 116.019 105.385C114.809 106.525 114.769 107.385 115.459 108.765C121.519 121.315 127.609 133.895 133.719 146.485C141.499 162.485 149.273 178.485 157.039 194.485C157.289 195.182 157.766 195.774 158.394 196.166C159.022 196.558 159.764 196.727 160.499 196.645C173.089 196.565 185.669 196.595 198.259 196.645C198.981 196.598 199.705 196.631 200.419 196.745C201.09 196.911 201.686 197.296 202.112 197.84C202.537 198.383 202.769 199.054 202.769 199.745C202.769 200.436 202.537 201.107 202.112 201.65C201.686 202.194 201.09 202.58 200.419 202.745C199.639 202.867 198.848 202.904 198.059 202.855C133.619 202.855 69.1792 202.855 4.73923 202.855C2.95923 202.855 1.28922 202.855 0.199219 201.115V198.285C0.638738 197.667 1.23638 197.178 1.92955 196.87C2.62272 196.562 3.38591 196.447 4.13922 196.535C18.4392 196.535 32.7392 196.535 47.0392 196.595C47.7399 196.676 48.4473 196.516 49.0451 196.141C49.6429 195.767 50.0957 195.201 50.3292 194.535C57.0692 180.535 63.8992 166.535 70.7092 152.535C71.7092 150.535 73.0892 149.635 74.7092 150.065C76.8992 150.645 77.7092 152.735 76.5392 155.185C74.4792 159.525 72.3492 163.845 70.2492 168.185C66.0292 176.852 61.8092 185.495 57.5892 194.115C56.4192 196.525 56.4492 196.535 59.0392 196.535H148.199C150.979 196.535 151.009 196.535 149.799 194.015L116.129 124.895C113.999 120.515 111.819 116.155 109.769 111.725C109.049 110.165 108.209 109.515 106.419 109.955C104.556 110.435 102.602 110.435 100.739 109.955C99.2592 109.565 98.5192 109.955 97.8492 111.375C93.1892 121.115 88.4292 130.825 83.6992 140.535C83.3892 141.243 83.0001 141.914 82.5392 142.535C82.3234 142.852 82.0471 143.124 81.7262 143.335C81.4052 143.545 81.0459 143.69 80.6689 143.762C80.2918 143.833 79.9043 143.83 79.5286 143.751C79.1528 143.673 78.7963 143.521 78.4792 143.305C77.8145 142.983 77.3022 142.413 77.0518 141.718C76.8014 141.023 76.8328 140.257 77.1392 139.585C77.5692 138.485 78.0792 137.405 78.5992 136.345C83.1192 127.035 87.5992 117.725 92.1992 108.455C92.8292 107.175 92.7792 106.385 91.5692 105.455C90.5416 104.632 89.6565 103.645 88.9492 102.535C88.2292 101.485 87.6392 101.215 86.3992 101.815C82.9492 103.475 79.4692 102.815 77.1792 99.815C76.0492 98.355 75.2392 98.605 73.9492 99.365C66.7792 103.545 59.5792 107.675 52.3892 111.815C48.9592 113.815 45.5392 115.815 42.0892 117.695C41.562 117.885 41.1299 118.274 40.8852 118.779C40.6405 119.283 40.6025 119.863 40.7792 120.395C41.0116 121.298 41.0305 122.242 40.8344 123.153C40.6382 124.065 40.2325 124.918 39.6492 125.645C37.3478 128.577 34.0212 130.527 30.3392 131.105C28.9215 131.36 27.4593 131.152 26.1684 130.513C24.8774 129.874 23.826 128.837 23.1692 127.555C19.4892 121.385 15.8692 115.185 12.3792 108.915C11.4961 107.263 11.2819 105.335 11.7807 103.529C12.2795 101.724 13.4533 100.179 15.0592 99.215C16.3892 98.365 17.7692 97.585 19.1592 96.845C20.5021 96.0386 22.0724 95.6949 23.6294 95.8665C25.1864 96.0381 26.6441 96.7155 27.7792 97.795C28.0735 98.1344 28.4876 98.3468 28.935 98.3878C29.3823 98.4288 29.8281 98.2952 30.1792 98.015C41.1326 91.6883 52.0992 85.3817 63.0792 79.095C63.8792 78.635 64.3692 78.275 63.9692 77.095C62.5092 72.865 63.7492 69.655 67.6592 67.395C78.2726 61.2683 88.8959 55.1617 99.5292 49.075C101.269 48.075 102.529 47.375 101.879 44.805C101.169 41.805 102.669 39.115 105.429 37.475C109.739 34.925 114.089 32.475 118.429 29.985C118.779 29.7363 119.177 29.5621 119.597 29.4731C120.017 29.3841 120.451 29.3822 120.871 29.4675C121.292 29.5527 121.691 29.7234 122.043 29.969C122.395 30.2145 122.694 30.5297 122.919 30.895C123.919 32.445 123.449 34.325 121.589 35.445C117.809 37.715 113.959 39.875 110.129 42.075C107.899 43.365 107.759 43.755 109.019 45.935C114.819 55.975 120.629 66.0083 126.449 76.035C127.649 78.105 127.979 78.185 130.009 77.035C140.909 70.755 151.816 64.4817 162.729 58.215C163.849 57.575 164.039 57.075 163.369 55.925C157.203 45.345 151.063 34.7417 144.949 24.115C144.279 22.935 143.659 22.705 142.459 23.445C139.879 25.025 137.239 26.515 134.599 27.995C132.539 29.155 130.689 28.815 129.759 27.185C128.829 25.555 129.399 23.715 131.369 22.535C134.029 20.945 136.719 19.405 139.419 17.885C139.848 17.7403 140.205 17.4369 140.417 17.037C140.629 16.6371 140.68 16.1712 140.559 15.735C139.919 11.915 141.439 9.105 144.839 7.215C148.979 4.905 153.059 2.495 157.169 0.125L161.949 0.184998ZM186.219 51.265C185.989 50.795 185.709 50.195 185.389 49.635L178.449 37.635C172.743 27.7883 167.033 17.9383 161.319 8.08501C160.119 6.01501 159.879 5.975 157.769 7.185C154.629 8.985 151.529 10.855 148.339 12.565C146.739 13.435 146.579 14.335 147.489 15.855C150.029 20.085 152.489 24.385 154.929 28.665L171.759 57.665C172.379 58.745 172.969 59.815 174.489 58.945L185.269 52.725C185.549 52.5964 185.787 52.391 185.956 52.1325C186.124 51.8741 186.215 51.5733 186.219 51.265ZM83.2692 96.185C84.8392 96.105 85.5492 95.095 85.5292 92.975C85.4192 83.585 91.2392 75.975 100.139 74.265C102.565 73.7386 105.074 73.7339 107.502 74.2511C109.929 74.7683 112.219 75.7956 114.219 77.265C115.969 78.535 116.899 76.995 118.039 76.385C119.179 75.775 118.309 74.745 117.899 74.045C114.109 67.415 110.249 60.825 106.459 54.205C105.919 53.265 105.459 53.045 104.459 53.625C93.4126 60.025 82.3459 66.395 71.2592 72.735C69.8892 73.525 69.5792 74.425 70.3792 75.805C74.1325 82.225 77.8659 88.6583 81.5792 95.105C81.9592 95.745 82.3992 96.285 83.2692 96.185ZM196.339 25.405C196.399 13.935 183.659 4.155 170.809 7.785C169.389 8.185 168.959 8.65501 169.809 10.085C175.923 20.5583 181.996 31.0483 188.029 41.555C188.859 42.995 189.389 42.905 190.449 41.825C194.359 37.805 196.359 33.035 196.339 25.405ZM103.739 103.755C105.289 103.774 106.826 103.484 108.263 102.903C109.699 102.322 111.006 101.461 112.107 100.37C113.207 99.2799 114.08 97.9813 114.675 96.5504C115.269 95.1194 115.573 93.5845 115.569 92.035C115.525 88.906 114.26 85.9181 112.045 83.7082C109.829 81.4983 106.838 80.2412 103.709 80.205C102.159 80.2076 100.624 80.517 99.1933 81.1156C97.7628 81.7141 96.465 82.5899 95.3745 83.6924C94.2841 84.7949 93.4227 86.1023 92.84 87.5393C92.2573 88.9763 91.9647 90.5144 91.9792 92.065C91.9461 93.6151 92.2283 95.1559 92.8084 96.5938C93.3886 98.0316 94.2548 99.3367 95.3545 100.43C96.4541 101.523 97.7643 102.381 99.2056 102.953C100.647 103.524 102.189 103.797 103.739 103.755ZM72.5192 92.355C72.425 92.1259 72.3182 91.9023 72.1992 91.685C70.8792 89.395 69.5392 87.135 68.2592 84.835C67.7592 83.945 67.2592 84.075 66.4892 84.495C55.4226 90.875 44.3426 97.2417 33.2492 103.595C32.4192 104.065 32.1092 104.515 32.6892 105.455C33.9892 107.582 35.2392 109.748 36.4392 111.955C37.0392 113.065 37.6592 112.955 38.6392 112.425C42.2092 110.315 45.8192 108.265 49.4192 106.195C56.6726 102.035 63.9259 97.8683 71.1792 93.695C71.7492 93.385 72.5192 93.245 72.5192 92.355ZM22.5192 102.405C21.9992 102.675 21.2992 103.025 20.6192 103.405C17.6192 105.125 17.5492 105.255 19.2592 108.195C21.8392 112.622 24.4126 117.062 26.9792 121.515C29.3392 125.605 29.7592 125.695 33.6092 122.875C33.8162 122.774 33.9982 122.629 34.142 122.449C34.2857 122.269 34.3876 122.06 34.4403 121.836C34.493 121.612 34.4951 121.379 34.4465 121.154C34.3978 120.929 34.2997 120.717 34.1592 120.535C30.8259 114.842 27.5226 109.152 24.2492 103.465C24.1172 103.123 23.8763 102.834 23.5637 102.642C23.251 102.451 22.884 102.367 22.5192 102.405Z" fill="#6584DB"/>
<path d="M103.381 100.404C108.031 100.404 111.801 96.6347 111.801 91.9845C111.801 87.3342 108.031 83.5645 103.381 83.5645C98.7307 83.5645 94.9609 87.3342 94.9609 91.9845C94.9609 96.6347 98.7307 100.404 103.381 100.404Z" fill="#FCDE2F"/>
</svg>
