<svg width="55" height="56" viewBox="0 0 55 56" fill="none" xmlns="http://www.w3.org/2000/svg">
<rect y="0.5" width="55" height="55" rx="27.5" fill="#FCDE2F"/>
<g clip-path="url(#clip0_11053_12746)">
<path fill-rule="evenodd" clip-rule="evenodd" d="M29.8831 37.8634C29.5992 38.0731 29.291 38.247 28.9521 38.3365C27.9981 38.5923 26.9558 38.2112 26.0453 37.9555C19.9413 36.238 15.8528 33.5485 14.6801 29.5355C13.744 26.3307 14.6443 23.1208 16.624 21.1258C18.4578 19.2778 21.1767 18.5284 23.9659 19.7293C25.7818 17.2943 28.5122 16.5833 31.0238 17.2675C33.735 18.0054 36.1188 20.3355 36.9104 23.5786C37.0664 24.2142 37.1431 24.8626 37.1444 25.5212C37.4705 25.6874 37.78 25.8946 38.0652 26.135C39.5448 27.387 40.3351 29.5138 39.8939 31.7249C39.3312 34.546 36.716 36.527 32.9754 37.9414C32.3346 38.1844 31.6338 38.4849 30.9343 38.3621C30.5455 38.2931 30.1977 38.0936 29.8831 37.8634ZM17.1355 28.8181C16.4513 26.4739 17.1394 24.2385 18.4399 22.9277C19.6881 21.6693 21.5386 21.2012 23.5848 22.3982C24.2996 22.8164 25.2217 22.5683 25.6309 21.8509C26.8049 19.7907 28.6413 19.2702 30.3512 19.7357C32.1339 20.2216 33.8475 21.8125 34.4256 24.1848C34.4959 24.47 34.5432 24.7616 34.5662 25.0608C34.0977 25.1205 33.6407 25.2502 33.2107 25.4457C31.8372 24.1068 30.0187 23.8433 28.415 24.4342C26.5964 25.103 25.1258 26.832 24.783 29.061C24.4339 31.3438 25.512 33.569 27.5185 35.7085C27.2653 35.6446 27.0031 35.5678 26.7384 35.4937C20.816 33.8273 17.9143 31.4845 17.1355 28.8181ZM27.3126 29.4485C27.5172 28.1057 28.3856 27.1709 29.2987 26.8333C30.1427 26.5238 31.0801 26.6862 31.7924 27.7157C31.8986 27.8691 32.0342 27.9999 32.1913 28.1006C32.3483 28.2013 32.5238 28.2698 32.7075 28.3023C32.8912 28.3348 33.0796 28.3305 33.2617 28.2897C33.4437 28.249 33.6159 28.1725 33.7682 28.0648C34.7913 27.3397 35.7274 27.5085 36.4129 28.0878C37.1572 28.717 37.6508 29.8936 37.3848 31.2249C37.0971 32.67 35.6354 34.202 32.0712 35.5487C31.8449 35.6343 31.6198 35.7264 31.387 35.7942C31.1914 35.6497 31.011 35.4873 30.8269 35.33C27.9392 32.8452 27.0888 30.9051 27.3126 29.4473V29.4485Z" fill="white"/>
</g>
<defs>
<clipPath id="clip0_11053_12746">
<rect width="30.6924" height="30.6924" fill="white" transform="translate(11.8203 12.3223)"/>
</clipPath>
</defs>
</svg>
