<svg preserveAspectRatio="none" width="100%" height="100%" overflow="visible" style="display: block;" viewBox="0 0 54 54" fill="none" xmlns="http://www.w3.org/2000/svg">
<g id="Group">
<g id="Vector">
</g>
<path id="Vector_2" d="M38.0192 4.47241C39.1476 4.47206 40.2343 4.89821 41.0617 5.66544C41.8891 6.43268 42.3959 7.48429 42.4805 8.60946L42.4917 8.9449V44.7248C42.492 45.8532 42.0659 46.94 41.2987 47.7673C40.5314 48.5947 39.4798 49.1015 38.3546 49.1861L38.0192 49.1973H15.6568C14.5284 49.1977 13.4416 48.7715 12.6142 48.0043C11.7869 47.237 11.2801 46.1854 11.1954 45.0602L11.1843 44.7248V8.9449C11.1839 7.81654 11.6101 6.72975 12.3773 5.90238C13.1445 5.07501 14.1961 4.56822 15.3213 4.48359L15.6568 4.47241H38.0192ZM38.0192 8.9449H15.6568V44.7248H38.0192V8.9449ZM27.9561 35.7798C28.2178 35.7797 28.4712 35.8715 28.6723 36.039C28.8733 36.2065 29.0092 36.4393 29.0563 36.6967L29.0742 36.898V39.1342C29.0743 39.3959 28.9826 39.6493 28.8151 39.8504C28.6475 40.0514 28.4148 40.1873 28.1574 40.2344L27.9561 40.2523H25.7199C25.4582 40.2524 25.2047 40.1607 25.0037 39.9932C24.8026 39.8256 24.6667 39.5929 24.6196 39.3355L24.6017 39.1342V36.898C24.6016 36.6363 24.6934 36.3828 24.8609 36.1818C25.0284 35.9807 25.2612 35.8448 25.5186 35.7977L25.7199 35.7798H27.9561Z" fill="var(--fill-0, #6584DB)"/>
</g>
</svg>
