<svg width="55" height="56" viewBox="0 0 55 56" fill="none" xmlns="http://www.w3.org/2000/svg">
<rect y="0.5" width="55" height="55" rx="27.5" fill="#6584DB"/>
<g clip-path="url(#clip0_11053_12754)">
<path fill-rule="evenodd" clip-rule="evenodd" d="M27.9769 15.0176C28.9872 14.9409 29.8313 15.5151 30.2571 16.2837L31.8173 19.1099C34.0451 18.9667 35.7587 19.7903 36.9941 20.8978C38.3484 22.1127 39.1068 23.6396 39.4623 24.5092C39.8459 25.4466 39.562 26.4275 38.9635 27.0695L36.7562 29.4277C37.5824 31.502 37.3279 33.3857 36.6565 34.9037C35.9199 36.5662 34.7011 37.7594 33.9837 38.3669C33.2113 39.0216 32.1907 39.0549 31.3953 38.6827L28.4706 37.3131C26.7531 38.739 24.8821 39.0792 23.2324 38.9091C21.4228 38.7237 19.9112 37.9333 19.1119 37.4384C18.25 36.9051 17.9034 35.9447 18.0121 35.0738L18.4111 31.869C16.5235 30.6759 15.622 29.0018 15.2728 27.3803C14.8917 25.6027 15.1756 23.921 15.3994 23.0066C15.6399 22.0232 16.4455 21.3952 17.3075 21.2303L20.479 20.619C21.0302 18.4564 22.3436 17.0804 23.7785 16.2492C25.3514 15.3361 27.0395 15.0867 27.9769 15.0176ZM28.0498 17.5766C27.2825 17.6457 26.1034 17.8579 25.0624 18.4603C24.0214 19.0652 23.0892 20.0691 22.8334 21.8902C22.7963 22.1542 22.6777 22.4001 22.494 22.5934C22.3104 22.7867 22.0709 22.9178 21.809 22.9682L17.8574 23.7291C17.6847 24.4798 17.521 25.6666 17.7743 26.8431C18.0262 28.0197 18.695 29.2167 20.3473 30.0224C20.5871 30.1393 20.7843 30.3283 20.9114 30.5629C21.0384 30.7975 21.0889 31.0659 21.0558 31.3306L20.557 35.3245C21.2182 35.7209 22.2963 36.2414 23.4933 36.3655C24.6916 36.4882 26.0356 36.2248 27.3132 34.9012C27.4984 34.7095 27.7388 34.5805 28.0008 34.5321C28.2629 34.4837 28.5335 34.5184 28.7749 34.6313L32.4196 36.3386C33.0015 35.8322 33.8302 34.969 34.3175 33.8679C34.8047 32.7681 34.9684 31.4061 34.1052 29.7832C33.98 29.5477 33.9315 29.279 33.9666 29.0146C34.0017 28.7502 34.1185 28.5034 34.3008 28.3087L37.0504 25.3699C36.7486 24.6614 36.1833 23.6051 35.2855 22.802C34.3904 21.9989 33.1473 21.4234 31.3365 21.7418C31.0738 21.7884 30.8031 21.7517 30.5623 21.6368C30.3215 21.5219 30.1227 21.3346 29.9937 21.1011L28.0498 17.5766Z" fill="white"/>
</g>
<defs>
<clipPath id="clip0_11053_12754">
<rect width="30.6924" height="30.6924" fill="white" transform="translate(11.8203 12.3223)"/>
</clipPath>
</defs>
</svg>
