<svg width="87" height="87" viewBox="0 0 87 87" fill="none" xmlns="http://www.w3.org/2000/svg">
<rect x="2.06641" y="2.13672" width="83" height="83" rx="41.5" fill="url(#paint0_linear_11053_12802)"/>
<rect x="2.06641" y="2.13672" width="83" height="83" rx="41.5" stroke="white" stroke-width="3"/>
<path d="M43.435 16.9882C47.5252 16.9543 51.4982 18.3534 54.6646 20.9428C57.831 23.5322 59.9909 27.1484 60.7695 31.164C61.6358 35.4323 60.8361 39.8703 58.5345 43.5678C58.4029 43.7379 58.329 43.9455 58.3235 44.1605C58.318 44.3755 58.3811 44.5866 58.5038 44.7633C61.7579 50.3973 64.9955 56.0401 68.2165 61.6915C68.2969 61.8333 68.3772 61.975 68.4528 62.1215C68.5403 62.2766 68.5787 62.4546 68.563 62.6319C68.5473 62.8093 68.4782 62.9777 68.3649 63.1151C68.2516 63.2524 68.0994 63.3522 67.9282 63.4014C67.7571 63.4505 67.5751 63.4466 67.4062 63.3902C66.5769 63.1256 65.7523 62.8681 64.9112 62.6058C63.0211 62.0057 61.131 61.4245 59.2527 60.7961C58.8464 60.6637 58.7141 60.7583 58.6266 61.1623C58.0384 63.9076 57.4312 66.6483 56.824 69.3889C56.6751 70.0575 56.3136 70.3552 55.7702 70.2796C55.3851 70.2277 55.1961 69.9512 55.0213 69.6488L51.742 63.9124C49.5368 60.0644 47.3317 56.2141 45.1266 52.3615C45.068 52.2352 44.9706 52.131 44.8487 52.0638C44.7267 51.9967 44.5866 51.9702 44.4485 51.9882C43.8724 52.0177 43.2952 52.0177 42.7191 51.9882C42.5605 51.9666 42.3993 51.9976 42.2601 52.0766C42.121 52.1556 42.0116 52.2781 41.9489 52.4253C39.9233 55.985 37.8907 59.5407 35.8509 63.0925L32.1723 69.5236C32.1369 69.5874 32.0944 69.6488 32.0589 69.7126C31.8463 70.093 31.5439 70.3387 31.0879 70.2584C30.6319 70.178 30.4122 69.8402 30.3177 69.396C30.1168 68.451 29.9018 67.4894 29.6916 66.5372C29.2923 64.7204 28.8812 62.9035 28.5102 61.0819C28.4323 60.7039 28.3094 60.6401 27.9479 60.7583C25.3727 61.5899 22.7927 62.4121 20.2151 63.2225C20.1017 63.2579 19.9906 63.291 19.8772 63.3312C19.4472 63.4776 19.0527 63.4469 18.7573 63.0665C18.462 62.6862 18.5471 62.3294 18.7573 61.9537C19.3385 60.9567 19.9032 59.9502 20.4773 58.9485C23.218 54.165 25.961 49.3806 28.7063 44.5955C28.7975 44.4657 28.8446 44.31 28.8408 44.1514C28.837 43.9928 28.7824 43.8396 28.6851 43.7143C26.6564 40.455 25.7582 36.6182 26.1293 32.7971C26.5004 28.9761 28.1203 25.3838 30.7382 22.5759C33.3512 19.7255 36.8456 17.8351 40.6612 17.208C41.575 17.0338 42.5051 16.9601 43.435 16.9882ZM43.5885 18.7295C40.4716 18.7253 37.4235 19.6456 34.8297 21.3741C32.236 23.1025 30.2131 25.5615 29.0171 28.4398C27.8211 31.3181 27.5056 34.4865 28.1106 37.5441C28.7155 40.6017 30.2138 43.4113 32.4158 45.6172C34.6178 47.8232 37.4246 49.3265 40.4812 49.937C43.5377 50.5475 46.7067 50.2377 49.5871 49.0469C52.4676 47.856 54.9301 45.8376 56.6633 43.247C58.3964 40.6563 59.3222 37.6099 59.3236 34.4929C59.3273 32.4242 58.9231 30.375 58.134 28.4627C57.3449 26.5503 56.1865 24.8124 54.725 23.3482C53.2634 21.8841 51.5276 20.7225 49.6166 19.93C47.7057 19.1374 45.6573 18.7295 43.5885 18.7295ZM65.6578 60.9851C65.7145 60.789 65.6058 60.6897 65.5444 60.5811C62.7849 55.7597 60.0277 50.9368 57.2729 46.1123C57.1075 45.8217 57.0224 45.7201 56.7389 46.0415C54.2798 48.8615 50.9775 50.8143 47.3215 51.6102C46.8041 51.7259 46.8017 51.7283 47.0852 52.2126C49.8227 56.9977 52.5618 61.7821 55.3024 66.5656C55.3615 66.6695 55.3875 66.8208 55.5859 66.8515C55.6308 66.6506 55.6781 66.4522 55.723 66.2561C56.216 64.0037 56.7121 61.7537 57.2114 59.5061C57.3792 58.7524 57.8068 58.5043 58.544 58.7358C60.3348 59.2981 62.121 59.8699 63.9095 60.4369C64.4789 60.6236 65.0695 60.8031 65.6578 60.9851ZM21.342 60.9992L21.8595 60.8457C24.0992 60.1353 26.339 59.4265 28.5788 58.7193C29.3561 58.483 29.7601 58.7193 29.9467 59.4966C30.3602 61.3418 30.7642 63.1894 31.1729 65.0346C31.3076 65.6418 31.4446 66.2466 31.6077 66.9696C32.3424 65.6843 33.0087 64.5172 33.6773 63.3524L40.0564 52.2315C40.3446 51.7283 40.3423 51.7236 39.7587 51.5913C36.1334 50.7888 32.8604 48.8463 30.4193 46.0485C30.131 45.7225 30.0412 45.7981 29.8593 46.1218C28.1708 49.0892 26.4752 52.0543 24.7726 55.0171C23.6432 56.9757 22.521 58.939 21.342 60.9992Z" fill="white"/>
<path d="M43.5812 21.1418C51.0235 21.1063 57.008 27.3058 56.9253 34.6229C56.8842 38.1588 55.4442 41.5345 52.9204 44.0114C50.3966 46.4883 46.9945 47.8647 43.4584 47.8394C36.0728 47.8111 30.1332 41.6281 30.2277 34.3323C30.2761 30.8208 31.7036 27.4692 34.2021 25.0012C36.7005 22.5333 40.0694 21.147 43.5812 21.1418ZM43.5931 22.8972C41.3 22.8935 39.0574 23.5696 37.1486 24.8403C35.2398 26.1109 33.7506 27.9189 32.8692 30.0358C31.9879 32.1527 31.7539 34.4833 32.1969 36.7332C32.6399 38.983 33.74 41.051 35.3581 42.6757C36.9762 44.3004 39.0396 45.4089 41.2876 45.861C43.5356 46.3132 45.8672 46.0887 47.9877 45.216C50.1081 44.3432 51.9222 42.8614 53.2006 40.9578C54.479 39.0542 55.1643 36.8143 55.1699 34.5213C55.1733 32.9978 54.8766 31.4886 54.2966 30.0798C53.7166 28.6711 52.8647 27.3904 51.7896 26.3109C50.7145 25.2314 49.4373 24.3744 48.0309 23.7886C46.6245 23.2029 45.1165 22.9 43.5931 22.8972Z" fill="white"/>
<path d="M40.2365 40.3611C40.0815 40.3555 39.9304 40.311 39.7971 40.2317C39.6637 40.1525 39.5525 40.041 39.4734 39.9075C38.1102 37.6607 36.7399 35.4185 35.3837 33.1599C35.0506 32.6046 35.1616 32.1817 35.6979 31.8321C36.5627 31.2674 37.4345 30.7075 38.311 30.1617C38.8993 29.7931 39.3624 29.9254 39.7286 30.5208C40.1798 31.2674 40.624 32.0187 41.0705 32.7653C41.3753 33.2756 41.3777 33.2756 41.8998 32.959L48.6522 28.8741C49.3894 28.4299 49.8335 28.5575 50.2328 29.3253C50.7384 30.2704 51.2464 31.2296 51.7449 32.1865C52.0827 32.8385 51.9812 33.2284 51.3716 33.604C47.8702 35.7824 44.3664 37.956 40.8603 40.1249C40.6758 40.2552 40.4611 40.3365 40.2365 40.3611ZM38.4882 32.1439C38.2047 32.3211 37.8975 32.5267 37.5786 32.711C37.3541 32.8409 37.3116 32.9708 37.4557 33.2071C38.4244 34.7822 39.3836 36.362 40.3334 37.9465C40.487 38.2017 40.6287 38.2135 40.8674 38.0599C41.5005 37.6512 42.1455 37.2614 42.7858 36.8645C45.0232 35.4776 47.2583 34.086 49.5004 32.711C49.8052 32.5267 49.8879 32.3589 49.6847 32.0471C49.5069 31.7749 49.3542 31.487 49.2287 31.1871C49.068 30.7996 48.8838 30.7736 48.5199 30.991C46.266 32.3755 43.9978 33.7411 41.7321 35.109C41.0233 35.539 40.6146 35.4398 40.1846 34.7334C39.712 33.975 39.2773 33.2095 38.819 32.4487C38.7552 32.3282 38.7103 32.1699 38.4882 32.1439Z" fill="white"/>
<defs>
<linearGradient id="paint0_linear_11053_12802" x1="21.6086" y1="3.63672" x2="65.5243" y2="83.6367" gradientUnits="userSpaceOnUse">
<stop stop-color="#31384C"/>
<stop offset="1" stop-color="#1A2238"/>
</linearGradient>
</defs>
</svg>
