<svg width="87" height="87" viewBox="0 0 87 87" fill="none" xmlns="http://www.w3.org/2000/svg">
<rect x="2.19922" y="2.13672" width="83" height="83" rx="41.5" fill="url(#paint0_linear_11053_12813)"/>
<rect x="2.19922" y="2.13672" width="83" height="83" rx="41.5" stroke="white" stroke-width="3"/>
<path d="M58.4504 52.0631C58.1859 52.072 57.9231 52.0174 57.684 51.904C57.4449 51.7906 57.2364 51.6216 57.076 51.4111C56.9095 51.1765 56.8227 51.2117 56.6444 51.4111C56.3067 51.7957 56.1238 52.1311 56.2481 52.7198C56.5295 54.0661 55.521 55.1848 54.1231 55.1895C53.8487 55.1895 53.7784 55.2411 53.7338 55.5132C53.6717 56.0058 53.4307 56.4584 53.0566 56.7849C52.6826 57.1114 52.2015 57.289 51.705 57.2839C51.3392 57.2839 51.2242 57.4317 51.1422 57.753C50.8748 58.8038 50.1688 59.3666 49.0993 59.3737C48.7569 59.3737 48.6654 59.5332 48.6068 59.8193C48.4027 60.788 47.7695 61.3133 46.8243 61.508C46.3732 61.5827 45.9103 61.4902 45.5226 61.2477C45.0535 60.999 44.6032 60.734 44.1505 60.4596C44.1102 60.4224 44.0619 60.3947 44.0094 60.3787C43.9568 60.3627 43.9013 60.3587 43.847 60.367C43.7927 60.3753 43.741 60.3958 43.6957 60.4268C43.6504 60.4579 43.6127 60.4987 43.5853 60.5464C42.6049 61.6769 41.1273 61.6065 40.215 60.401C40.0789 60.218 39.9804 60.1524 39.7459 60.2462C38.5474 60.7153 37.4732 60.2814 36.9314 59.1345C36.9065 59.0423 36.847 58.9633 36.7653 58.9139C36.6836 58.8645 36.586 58.8486 36.4928 58.8694C36.0256 58.9371 35.5492 58.8439 35.1418 58.6053C34.7344 58.3667 34.4202 57.9967 34.2507 57.556C34.2232 57.4588 34.1587 57.3762 34.0709 57.3262C33.9831 57.2762 33.8792 57.2627 33.7816 57.2886C33.3834 57.3538 32.9749 57.2968 32.6098 57.1252C32.2447 56.9535 31.9402 56.6752 31.7364 56.327C31.2673 55.5624 31.3166 54.7861 31.7669 54.0168C32.236 53.203 32.236 53.2077 31.6473 52.4993C31.3447 52.1264 31.0773 51.723 30.81 51.3267C30.6739 51.1203 30.5989 51.0382 30.3925 51.2821C29.6443 52.1663 28.8844 52.3 27.8782 51.7394C27.0362 51.2704 26.1989 50.7896 25.3733 50.2923C24.4704 49.7482 24.1702 48.7796 24.6838 47.8766C26.5445 44.6165 28.4208 41.3666 30.3127 38.1268C30.5271 37.7453 30.883 37.4636 31.3035 37.3424C31.7239 37.2213 32.1752 37.2705 32.5596 37.4795C33.5728 38.0119 34.5673 38.5841 35.5312 39.201C36.331 39.7099 36.5163 40.6364 36.0402 41.5088C35.8432 41.8724 35.9018 42.0155 36.2747 42.1632C37.7251 42.7183 39.2345 43.1047 40.7732 43.3148C40.9058 43.3428 41.0436 43.3337 41.1714 43.2886C41.2992 43.2435 41.4122 43.1641 41.4979 43.0591C41.6879 42.8457 41.906 42.6557 42.1077 42.454C42.8606 41.6965 43.7659 41.5159 44.8073 41.6378C46.2778 41.7997 47.7085 42.1702 49.1673 42.3813C49.8866 42.5149 50.6298 42.4034 51.2782 42.0647C51.4846 41.9521 51.5245 41.8677 51.4213 41.6496C50.8255 40.4018 51.0671 39.6443 52.2679 38.9406C53.0232 38.4966 53.7792 38.058 54.5359 37.6249C55.6265 36.9987 56.5882 37.2496 57.2214 38.3426C59.0352 41.4698 60.8427 44.6032 62.644 47.7429C63.2162 48.742 62.9747 49.7083 61.9896 50.3064C61.1007 50.8482 60.193 51.3525 59.29 51.8708C59.0362 52.0186 58.7433 52.0857 58.4504 52.0631ZM41.0288 48.4442C40.3921 48.4427 39.7695 48.2561 39.2369 47.9071C38.2988 47.3348 38.1745 46.4435 38.9227 45.6414C39.2416 45.299 39.5935 44.9918 39.9218 44.6587C39.9992 44.5813 40.1563 44.5227 40.093 44.382C40.0485 44.2858 39.9124 44.2952 39.8069 44.2788C38.3458 44.0599 36.9195 43.6515 35.5641 43.0638C35.2897 42.9395 35.163 43.0193 35.027 43.2538C33.8418 45.3209 32.6511 47.3825 31.4549 49.4386C31.3853 49.5452 31.3469 49.6691 31.344 49.7963C31.3411 49.9235 31.3739 50.049 31.4385 50.1587C31.7342 50.7359 32.0929 51.2786 32.508 51.777C32.8129 52.1499 32.8434 52.1428 33.0967 51.723L33.2093 51.5284C34.0396 50.1516 35.6626 50.0039 36.7274 51.2188C36.8681 51.3759 36.9619 51.4369 37.173 51.3196C38.3457 50.6793 39.3589 50.9209 40.154 52.0232C40.1886 52.0951 40.2499 52.1506 40.3249 52.1778C40.3998 52.2049 40.4825 52.2017 40.5551 52.1687C42.0373 51.7488 43.135 52.4243 43.3953 53.9394C43.4469 54.2326 43.5361 54.3827 43.8644 54.439C44.2053 54.4901 44.5282 54.6248 44.8043 54.8311C45.0805 55.0375 45.3012 55.3089 45.4468 55.6214C45.5925 55.9338 45.6585 56.2774 45.6389 56.6215C45.6194 56.9657 45.515 57.2996 45.335 57.5935C45.084 58.0415 44.8213 58.4801 44.561 58.9234C44.4508 59.111 44.3945 59.2799 44.636 59.4159C45.1473 59.7044 45.6446 60.021 46.1676 60.286C46.3561 60.3881 46.5751 60.4185 46.7843 60.3715C46.9934 60.3245 47.1784 60.2033 47.3051 60.0304C47.7015 59.5824 47.6405 59.0922 47.1034 58.5739C46.8431 58.3253 46.7164 58.0532 46.9462 57.739C47.1761 57.4247 47.4669 57.4903 47.7554 57.6522C48.0439 57.814 48.3253 57.9923 48.6209 58.1424C48.7467 58.2115 48.8859 58.2529 49.0291 58.2638C49.1723 58.2747 49.3161 58.2548 49.451 58.2055C49.5858 58.1562 49.7086 58.0786 49.811 57.9779C49.9133 57.8772 49.993 57.7557 50.0445 57.6217C50.1208 57.4139 50.1251 57.1864 50.0566 56.9758C49.9881 56.7653 49.8509 56.5839 49.6669 56.4607C49.3831 56.2449 49.2447 55.9588 49.4652 55.6375C49.6857 55.3162 50.0023 55.3678 50.3095 55.5343C50.6168 55.7008 50.9334 55.9049 51.2594 56.055C51.4147 56.135 51.589 56.1708 51.7633 56.1584C51.9376 56.146 52.1051 56.0859 52.2475 55.9847C52.3899 55.8835 52.5017 55.745 52.5707 55.5845C52.6396 55.424 52.6631 55.2476 52.6385 55.0746C52.5991 54.7885 52.4493 54.5292 52.221 54.3522C52.1585 54.3085 52.1055 54.2525 52.0652 54.1876C52.025 54.1228 51.9983 54.0504 51.9869 53.975C51.9755 53.8995 51.9796 53.8225 51.9989 53.7487C52.0181 53.6748 52.0522 53.6057 52.0991 53.5454C52.3148 53.2499 52.6151 53.2804 52.9082 53.4445C53.1568 53.5829 53.4008 53.733 53.6541 53.8691C53.8386 54.0024 54.0653 54.0641 54.292 54.0426C54.5068 54.0223 54.7097 53.9348 54.8719 53.7924C55.034 53.6501 55.1471 53.4602 55.195 53.2499C55.2888 52.8441 55.0637 52.4149 54.5899 52.1405C52.8574 51.1335 51.1218 50.1313 49.3831 49.1337C49.2426 49.0443 49.0805 48.9949 48.914 48.9906C47.0119 48.9906 45.5226 48.158 44.3264 46.7438C44.113 46.4928 44.0004 46.5233 43.8058 46.732C43.4891 47.0745 43.1538 47.4005 42.816 47.7265C42.5803 47.9582 42.301 48.1409 41.9942 48.2641C41.6875 48.3873 41.3594 48.4485 41.0288 48.4442ZM44.0614 42.7144C43.8569 42.7048 43.6529 42.7407 43.4639 42.8193C43.2749 42.898 43.1057 43.0175 42.9685 43.1694C41.8825 44.2389 40.8084 45.3178 39.7295 46.3896C39.4738 46.6406 39.5419 46.8188 39.821 46.9947C40.1763 47.2397 40.6072 47.3506 41.0367 47.3077C41.4662 47.2647 41.8665 47.0707 42.1663 46.7602C42.6354 46.3075 43.081 45.8408 43.5431 45.3881C44.0051 44.9355 44.3006 44.9542 44.69 45.4702C44.8424 45.6766 44.9925 45.883 45.1591 46.0753C46.1488 47.2035 47.3309 47.9329 48.8953 47.8484C49.2579 47.8516 49.6115 47.9626 49.9108 48.1674C51.415 49.0336 52.9168 49.8983 54.4163 50.7614C55.3545 51.3102 55.3545 51.3102 55.9995 50.4073C56.0857 50.316 56.1377 50.1977 56.1467 50.0725C56.1557 49.9472 56.1211 49.8227 56.0487 49.7201C54.7978 47.5717 53.5571 45.4171 52.3266 43.2562C52.1647 42.9724 52.0123 42.902 51.7191 43.0615C51.1288 43.4039 50.4546 43.5745 49.7724 43.554C49.1719 43.5182 48.5747 43.4398 47.9853 43.3195C46.6906 43.0396 45.3803 42.8375 44.0614 42.7144ZM61.8324 48.6811C61.7808 48.5661 61.7269 48.409 61.6472 48.2659C61.3821 47.7968 61.1124 47.3278 60.8403 46.8587C59.3237 44.2225 57.8038 41.5855 56.2809 38.9477C55.9314 38.3426 55.6594 38.2722 55.0683 38.6123C54.3108 39.0485 53.5532 39.4824 52.8003 39.9257C52.1507 40.308 52.0756 40.559 52.4462 41.2086C53.1099 42.3813 53.7854 43.5329 54.4562 44.6939C55.5507 46.5983 56.6523 48.502 57.7608 50.4049C58.0728 50.942 58.3707 51.071 58.8257 50.8201C59.7216 50.3228 60.6035 49.7998 61.49 49.2862C61.5946 49.2236 61.6812 49.1349 61.7412 49.0289C61.8012 48.9228 61.8327 48.8029 61.8324 48.6811ZM28.882 50.9256C29.2573 50.942 29.4449 50.6911 29.6091 50.4096C30.5051 48.8585 31.4018 47.3082 32.2993 45.7587C33.1968 44.2092 34.0912 42.6573 34.9824 41.1031C35.285 40.5707 35.2029 40.2799 34.6892 39.9797C33.873 39.5106 33.0475 39.0274 32.2266 38.5583C31.7575 38.2886 31.4573 38.3684 31.1688 38.8351C30.9882 39.1306 30.824 39.4355 30.6505 39.7357C29.0525 42.4986 27.456 45.2615 25.8612 48.0243C25.378 48.8616 25.4179 49.0047 26.2364 49.4879C26.9401 49.91 27.6671 50.3252 28.3801 50.7427C28.5254 50.8525 28.7002 50.9162 28.882 50.9256ZM37.9118 58.3488C37.9004 58.5541 37.9589 58.7572 38.0778 58.925C38.1966 59.0928 38.3687 59.2154 38.5662 59.2728C38.7573 59.3538 38.9709 59.3645 39.1692 59.3032C39.3675 59.2418 39.5378 59.1122 39.6497 58.9374C40.5551 57.4833 41.4088 55.9963 42.2297 54.4812C42.2775 54.3865 42.3043 54.2826 42.3084 54.1765C42.3124 54.0705 42.2936 53.9648 42.2531 53.8667C42.1983 53.6726 42.0855 53.4998 41.9298 53.3716C41.7741 53.2433 41.583 53.1657 41.3819 53.1491C41.1809 53.1326 40.9796 53.1778 40.805 53.2788C40.6304 53.3798 40.4908 53.5317 40.405 53.7143C39.6232 55.0683 38.8414 56.4232 38.0596 57.7788C37.9566 57.9507 37.9053 58.1485 37.9118 58.3488ZM35.2123 56.768C35.2056 56.9837 35.2712 57.1955 35.3987 57.3698C35.5262 57.544 35.7082 57.6706 35.9159 57.7296C36.1286 57.7886 36.355 57.7744 36.5587 57.6894C36.7625 57.6043 36.9317 57.4533 37.0393 57.2605C37.7664 56.0339 38.477 54.7931 39.19 53.5548C39.2724 53.4122 39.3157 53.2504 39.3157 53.0857C39.3157 52.921 39.2724 52.7592 39.19 52.6166C38.8077 51.913 37.8696 51.913 37.4357 52.6401C36.7321 53.8292 36.0496 55.0371 35.3624 56.2356C35.26 56.3939 35.2076 56.5794 35.2123 56.768ZM44.4836 56.5029C44.4856 56.2926 44.4188 56.0875 44.2934 55.9187C44.168 55.7499 43.9908 55.6267 43.7888 55.568C43.5869 55.5093 43.3713 55.5182 43.1749 55.5934C42.9785 55.6687 42.8121 55.806 42.7011 55.9846C42.1452 56.8946 41.5988 57.814 41.0922 58.7498C41.0156 58.8895 40.9739 59.0456 40.9707 59.2049C40.9674 59.3641 41.0025 59.5218 41.0732 59.6645C41.1439 59.8073 41.248 59.9308 41.3766 60.0248C41.5053 60.1187 41.6547 60.1801 41.8122 60.204C42.3164 60.2884 42.6425 59.9952 42.877 59.6012C43.3625 58.7873 43.8339 57.9594 44.3077 57.1479C44.4277 56.9545 44.4888 56.7304 44.4836 56.5029ZM33.4485 56.1793C33.6149 56.1968 33.7829 56.1688 33.9345 56.0981C34.0862 56.0275 34.2157 55.9169 34.3093 55.7782C34.8745 54.84 35.4327 53.9019 35.9511 52.9239C36.0643 52.7068 36.0882 52.4541 36.0176 52.2196C35.9471 51.9852 35.7877 51.7876 35.5734 51.6691C35.3731 51.5419 35.132 51.4954 34.8987 51.539C34.6655 51.5825 34.4574 51.7128 34.3163 51.9036C33.6551 52.8702 33.0754 53.89 32.5831 54.9526C32.3321 55.5273 32.8223 56.1722 33.4485 56.1793Z" fill="white"/>
<path d="M25.9 61.3043C25.9 62.0782 25.9 62.8405 25.9 63.6028C25.9059 63.7686 25.9012 63.9347 25.8859 64.1C25.878 64.2147 25.8283 64.3224 25.7461 64.4029C25.664 64.4833 25.5551 64.5307 25.4403 64.5362C25.3214 64.565 25.196 64.5482 25.0888 64.4891C24.9816 64.4301 24.9003 64.3331 24.861 64.2172C24.8076 64.061 24.7807 63.8969 24.7813 63.7317C24.7813 62.5403 24.7813 61.3496 24.7813 60.1597C24.7813 59.5007 24.9665 59.3271 25.6162 59.3248H29.2281C29.7676 59.3248 30.0467 59.5265 30.0349 59.8923C30.0232 60.2582 29.7347 60.4552 29.2047 60.4576C28.4401 60.4576 27.6731 60.4576 26.8991 60.4576C26.8991 60.6921 27.0633 60.7812 27.1736 60.8844C30.7761 64.2712 34.9907 66.4548 39.8879 67.1935C46.5559 68.2021 52.6727 66.755 58.053 62.6693C63.1566 58.7947 66.2853 53.6466 67.2727 47.2859C68.1616 41.5467 67.078 36.1687 64.09 31.1824C63.9962 31.0276 63.8953 30.8752 63.818 30.7133C63.7756 30.6498 63.7472 30.578 63.7347 30.5026C63.7222 30.4273 63.7258 30.3502 63.7453 30.2764C63.7648 30.2025 63.7998 30.1337 63.8479 30.0744C63.896 30.0151 63.9561 29.9666 64.0243 29.9323C64.3339 29.7517 64.5802 29.8901 64.7561 30.1551C65.2594 30.9251 65.713 31.7266 66.1141 32.5545C68.2878 36.9535 69.1169 41.8956 68.4979 46.7631C67.8789 51.6307 65.8391 56.2079 62.6335 59.9228C59.5078 63.6236 55.3486 66.3072 50.6884 67.6298C44.8695 69.2927 39.1609 68.9244 33.6046 66.4946C30.8861 65.3142 28.4074 63.6448 26.2917 61.5693C26.2073 61.4849 26.1181 61.4028 26.029 61.323C26.0102 61.316 25.9751 61.3183 25.9 61.3043Z" fill="white"/>
<path d="M61.4721 25.9991C61.4721 25.1594 61.4721 24.3972 61.4721 23.6349C61.4658 23.469 61.4713 23.3028 61.4885 23.1377C61.5015 23.0237 61.5543 22.918 61.6375 22.8391C61.7207 22.7602 61.8291 22.7131 61.9435 22.7061C62.056 22.6844 62.1725 22.7022 62.2733 22.7565C62.3742 22.8108 62.4532 22.8982 62.497 23.004C62.5741 23.1853 62.6078 23.382 62.5955 23.5786C62.5955 24.7396 62.5955 25.9006 62.5955 27.0615C62.5955 27.737 62.4103 27.9106 61.7277 27.9106H58.1065C57.5999 27.9106 57.3301 27.7112 57.3325 27.3547C57.3348 26.9982 57.621 26.7824 58.1041 26.7801C58.8875 26.7801 59.6708 26.7801 60.4777 26.7801C60.4777 26.5455 60.2947 26.4447 60.1751 26.3321C57.0792 23.391 53.4743 21.327 49.3019 20.4288C39.7491 18.3695 31.695 21.0667 25.271 28.4172C22.6676 31.402 20.9303 35.042 20.2472 38.9433C19.1378 45.0413 20.0783 50.7875 23.3196 56.1139C23.4115 56.2516 23.4945 56.3949 23.5682 56.5431C23.6062 56.6047 23.6312 56.6735 23.6416 56.7451C23.652 56.8167 23.6476 56.8898 23.6287 56.9596C23.6098 57.0295 23.5768 57.0948 23.5317 57.1514C23.4866 57.2081 23.4304 57.2548 23.3665 57.2889C23.3102 57.328 23.2462 57.3546 23.1788 57.367C23.1114 57.3794 23.0421 57.3774 22.9755 57.361C22.909 57.3445 22.8467 57.3141 22.7928 57.2718C22.7389 57.2295 22.6946 57.1761 22.6629 57.1154C22.351 56.6463 22.0508 56.1772 21.7834 55.6941C20.2218 52.9146 19.2322 49.8508 18.8728 46.6831C17.9604 38.1224 20.6435 30.8704 26.9667 25.0328C30.5622 21.6898 35.1076 19.5466 39.9742 18.8996C47.3646 17.8582 53.9434 19.7814 59.7342 24.4511C60.3158 24.9108 60.8482 25.4385 61.4721 25.9991Z" fill="white"/>
<path d="M37.3281 32.0364C37.3393 30.7809 37.7218 29.5568 38.4276 28.5184C39.1334 27.48 40.1309 26.6738 41.2942 26.2015C42.4575 25.7291 43.7346 25.6118 44.9645 25.8642C46.1945 26.1166 47.3221 26.7275 48.2054 27.6199C49.0886 28.5123 49.6879 29.6461 49.9276 30.8786C50.1674 32.111 50.0369 33.3869 49.5526 34.5453C49.0683 35.7037 48.2519 36.6928 47.2063 37.3878C46.1607 38.0829 44.9327 38.4529 43.6771 38.4511C41.9863 38.4368 40.3697 37.7544 39.1803 36.5526C37.9908 35.3508 37.325 33.7273 37.3281 32.0364ZM38.4563 32.0646C38.4544 33.0988 38.7592 34.1104 39.3322 34.9714C39.9052 35.8325 40.7205 36.5043 41.6752 36.902C42.6299 37.2997 43.6811 37.4054 44.6959 37.2058C45.7107 37.0062 46.6436 36.5102 47.3765 35.7805C48.1095 35.0509 48.6096 34.1203 48.8138 33.1064C49.018 32.0925 48.9169 31.0408 48.5235 30.0844C48.1301 29.1279 47.4619 28.3095 46.6034 27.7327C45.745 27.1559 44.7348 26.8465 43.7006 26.8437C40.417 26.8766 38.3625 29.562 38.4563 32.0646Z" fill="white"/>
<path d="M58.0081 48.0551C58.0079 47.927 58.0339 47.8002 58.0845 47.6826C58.1351 47.5649 58.2093 47.4589 58.3025 47.371C58.3956 47.2831 58.5058 47.2152 58.6262 47.1715C58.7466 47.1278 58.8747 47.1092 59.0025 47.1169C59.2512 47.1276 59.4864 47.2324 59.6607 47.4101C59.8349 47.5878 59.935 47.8251 59.9407 48.0738C59.9302 48.3315 59.8225 48.5755 59.6393 48.757C59.4561 48.9384 59.211 49.0438 58.9533 49.0519C58.696 49.0445 58.452 48.9355 58.2749 48.7487C58.0977 48.5618 58.0018 48.3125 58.0081 48.0551Z" fill="white"/>
<path d="M29.3623 48.1069C29.3499 48.3565 29.2433 48.5922 29.0639 48.7663C28.8846 48.9404 28.6459 49.04 28.396 49.0451C28.1379 49.0376 27.8922 48.9325 27.7085 48.751C27.5248 48.5694 27.4168 48.325 27.4062 48.067C27.4136 47.8084 27.5227 47.5632 27.7097 47.3845C27.8968 47.2058 28.1467 47.108 28.4054 47.1124C28.5341 47.113 28.6614 47.1394 28.7797 47.19C28.898 47.2407 29.0049 47.3146 29.0942 47.4073C29.1834 47.5 29.2531 47.6097 29.2992 47.7299C29.3452 47.8501 29.3667 47.9783 29.3623 48.1069Z" fill="white"/>
<path d="M42.1484 34.4169C42.0499 34.4226 41.9516 34.4022 41.8634 34.3577C41.7753 34.3132 41.7005 34.2462 41.6465 34.1636C41.1024 33.4599 40.5583 32.7563 40.0258 32.0527C39.8124 31.7689 39.7632 31.4523 40.0915 31.2201C40.4199 30.9879 40.6919 31.1099 40.9171 31.4007C41.2736 31.8698 41.6418 32.3248 41.9843 32.8079C42.1461 33.0425 42.2587 33.0542 42.4791 32.8665C43.4994 31.9964 44.5337 31.1427 45.5633 30.2866L46.016 29.9137C46.3045 29.6792 46.6141 29.6487 46.8533 29.9465C47.0925 30.2444 46.987 30.547 46.7149 30.7838C46.4428 31.0207 46.1145 31.2858 45.8143 31.5367L42.6973 34.1471C42.5539 34.3017 42.3584 34.3978 42.1484 34.4169Z" fill="white"/>
<defs>
<linearGradient id="paint0_linear_11053_12813" x1="21.7414" y1="3.63672" x2="65.6571" y2="83.6367" gradientUnits="userSpaceOnUse">
<stop stop-color="#536AB5"/>
<stop offset="1" stop-color="#4059AD"/>
</linearGradient>
</defs>
</svg>
