<svg width="87" height="87" viewBox="0 0 87 87" fill="none" xmlns="http://www.w3.org/2000/svg">
<rect x="1.80469" y="2.13672" width="83" height="83" rx="41.5" fill="url(#paint0_linear_11053_12775)"/>
<rect x="1.80469" y="2.13672" width="83" height="83" rx="41.5" stroke="white" stroke-width="3"/>
<path d="M66.85 46.6699C66.7845 48.0577 66.4265 49.4144 65.8009 50.6463C65.6903 50.8246 65.6333 51.0323 65.6371 51.2437C65.6409 51.455 65.7052 51.6605 65.8221 51.8345C66.4006 52.7969 66.9445 53.783 67.4863 54.7672C67.6599 55.0821 67.8585 55.2663 68.2404 55.2504C69.058 55.2148 69.6578 55.6187 70.084 56.3138C70.3752 56.8049 70.6741 57.3 70.9537 57.7951C71.7579 59.1812 71.4802 60.3239 70.1264 61.1318C68.4988 62.1061 66.8615 63.0626 65.2262 64.023C63.5214 65.025 61.816 66.025 60.11 67.0231C58.5518 67.9399 57.5181 67.6469 56.6214 66.033C56.3726 65.5854 56.1142 65.1438 55.8693 64.6963C55.6708 64.3707 55.5669 63.9938 55.5696 63.6098C55.5723 63.2257 55.6816 62.8504 55.8847 62.5279C55.9805 62.3988 56.0332 62.2413 56.0349 62.079C56.0366 61.9167 55.9873 61.7581 55.8943 61.6269C55.2444 60.5159 54.6138 59.3931 53.9929 58.2604C53.9185 58.1179 53.809 57.998 53.6753 57.9125C53.5416 57.827 53.3885 57.779 53.2311 57.7733C50.9459 57.4505 48.8786 56.6386 47.3686 54.7435C46.6551 53.8484 46.1807 52.789 45.6233 51.7909C44.7131 50.1671 43.7296 48.5908 42.7576 47.0066C42.4259 46.466 42.3719 46.4699 42.0422 47.0066C40.6922 49.1294 39.4002 51.2839 38.2277 53.5098C37.1304 55.591 35.3986 56.7574 33.2657 57.4129C32.7717 57.5825 32.2606 57.6948 31.7422 57.7475C31.5154 57.7511 31.2943 57.8217 31.1055 57.9509C30.9167 58.0802 30.7682 58.2626 30.6777 58.4763C30.1088 59.5397 29.5014 60.5833 28.8958 61.6249C28.8065 61.7476 28.7571 61.8962 28.7546 62.0494C28.7522 62.2026 28.7969 62.3527 28.8823 62.4784C29.0905 62.8098 29.2012 63.1959 29.2012 63.5903C29.2012 63.9847 29.0905 64.3708 28.8823 64.7022C28.6143 65.1834 28.3597 65.6745 28.0994 66.1617C27.355 67.5479 26.2268 67.9122 24.873 67.1261C22.2388 65.5973 19.618 64.0428 16.9914 62.5002C16.22 62.0506 15.4583 61.6051 14.6965 61.1516C13.3466 60.3437 13.0458 59.201 13.8268 57.8208L14.6792 56.3297C14.86 55.9699 15.1411 55.6735 15.4866 55.4785C15.8322 55.2835 16.2265 55.1985 16.6192 55.2346C16.7566 55.2533 16.8962 55.2245 17.0159 55.1528C17.1357 55.0811 17.2288 54.9705 17.2807 54.8385C17.8418 53.8187 18.4088 52.7989 19.0028 51.7968C19.1072 51.6386 19.1648 51.4526 19.1686 51.2614C19.1724 51.0703 19.1221 50.8821 19.024 50.7196C16.8545 46.2283 18.1138 41.9529 21.7778 39.0479C23.1008 37.9984 24.6011 37.5845 26.2287 38.3489C26.27 38.3775 26.3171 38.3958 26.3664 38.4026C26.4157 38.4093 26.4659 38.4043 26.513 38.3878C26.56 38.3713 26.6028 38.3438 26.6378 38.3075C26.6728 38.2712 26.6991 38.2271 26.7147 38.1786C26.9076 37.8399 27.0831 37.4934 27.2933 37.1726C27.5557 36.7532 27.9257 36.4163 28.3626 36.199C28.7995 35.9817 29.2863 35.8924 29.7694 35.9409C30.2556 35.9623 30.7237 36.1366 31.1104 36.4401C31.497 36.7437 31.7835 37.1618 31.9312 37.638C32.0624 38.0003 32.2282 38.0796 32.6023 38.0142C33.2413 37.8952 33.9004 38.0301 34.4462 38.3915C34.9919 38.753 35.3834 39.314 35.5413 39.9608C35.6532 40.3925 35.7862 40.5549 36.2645 40.5232C37.194 40.4598 37.9114 40.9292 38.4706 41.6797C38.569 41.8104 38.5979 42.1906 38.8563 41.9787C39.0685 41.8084 39.3307 41.5411 39.1302 41.1866C38.9103 40.7905 38.6654 40.4163 38.4398 40.0281C37.7494 38.8519 37.8613 37.529 38.7426 36.6221C39.5853 35.7488 40.8639 35.6023 42.0075 36.2874C42.1193 36.3717 42.2544 36.4172 42.3931 36.4172C42.5319 36.4172 42.667 36.3717 42.7788 36.2874C43.9051 35.6082 45.2106 35.7587 46.0437 36.632C46.9173 37.5469 47.033 38.8519 46.3407 40.04C46.1344 40.3925 45.9165 40.7391 45.7063 41.0896C45.6079 41.25 45.5134 41.4163 45.6484 41.6024C45.7525 41.751 45.8413 41.9767 45.9762 42.0223C46.1961 42.0975 46.2231 41.8084 46.3156 41.6718C46.5575 41.289 46.8961 40.9809 47.2952 40.7804C47.6942 40.5798 48.1389 40.4944 48.5816 40.5331C48.9576 40.5509 49.1139 40.4579 49.2141 40.0856C49.6365 38.5132 50.6856 37.8162 52.2881 38.0439C52.3442 38.0624 52.4035 38.0683 52.4621 38.0613C52.5206 38.0544 52.5771 38.0347 52.6276 38.0036C52.6782 37.9725 52.7217 37.9307 52.7552 37.881C52.7888 37.8312 52.8117 37.7747 52.8223 37.7152C52.9781 37.1975 53.2902 36.7441 53.7135 36.4205C54.1368 36.0969 54.6493 35.9199 55.177 35.9151C56.28 35.8518 57.0784 36.4379 57.6357 37.3924L57.6975 37.4993C58.2201 38.3924 58.2181 38.3845 59.1689 38.1073C60.5863 37.6934 61.8051 38.2083 62.9641 38.9885C65.1317 40.4341 66.8577 43.7352 66.85 46.6699ZM24.6705 39.1509V39.137C24.5506 39.1386 24.4308 39.1472 24.3119 39.1628C24.1736 39.1867 24.0374 39.2225 23.9049 39.2697C21.4307 40.1371 20.129 42.1312 19.3788 44.5134C18.6846 46.7214 19.3094 48.8225 20.3566 50.7948C20.4558 50.9448 20.5078 51.1224 20.5057 51.3036C20.5037 51.4849 20.4476 51.6612 20.345 51.8087C19.6585 52.9692 19.0221 54.1613 18.3413 55.3257C18.135 55.6762 18.1909 55.8465 18.5342 56.0465C21.4423 57.7469 24.344 59.4598 27.2393 61.1853C27.625 61.409 27.7812 61.314 27.9779 60.9516C28.5564 59.8902 29.1928 58.8664 29.7443 57.7931C30.13 57.0287 30.5678 56.4505 31.5185 56.5792C31.7393 56.5807 31.9588 56.5452 32.1684 56.4742C34.3765 55.9831 36.1796 54.9435 37.3136 52.8068C38.4919 50.5849 39.7781 48.4245 41.1204 46.2996C42.5821 43.9847 43.9996 41.642 45.4401 39.3152C45.7738 38.7746 45.8123 38.232 45.4613 37.6974C45.1104 37.1627 44.5607 36.9667 43.9379 37.0538C43.3921 37.131 43.0681 37.5132 42.7808 37.9627C41.4553 40.0948 40.1233 42.2242 38.785 44.351C38.6926 44.5101 38.5867 44.6605 38.4687 44.8006C38.3864 44.9073 38.2683 44.9788 38.1375 45.0011C38.0067 45.0235 37.8725 44.995 37.761 44.9214C37.6314 44.8588 37.5305 44.7471 37.4794 44.6097C37.4283 44.4724 37.4311 44.32 37.4871 44.1847C37.5469 44.0104 37.6453 43.85 37.705 43.6778C37.7818 43.4598 37.807 43.2261 37.7786 42.9962C37.7502 42.7662 37.669 42.5464 37.5417 42.355C37.4144 42.1636 37.2447 42.0059 37.0464 41.895C36.8481 41.7842 36.6271 41.7233 36.4014 41.7173C35.7322 41.6856 35.3157 42.044 34.9763 42.5728C34.7834 42.8619 34.5289 43.0124 34.2049 42.8322C33.8809 42.652 33.8462 42.3153 34.012 41.9767C34.0969 41.7925 34.2049 41.6163 34.2955 41.4341C34.6928 40.6202 34.5019 39.8004 33.823 39.3865C33.1018 38.9449 32.2957 39.1548 31.7808 39.9232C31.6458 40.1212 31.5397 40.3509 31.3951 40.547C31.2023 40.8024 30.9516 40.9153 30.6604 40.7252C30.5972 40.692 30.5412 40.6462 30.4956 40.5904C30.45 40.5347 30.4157 40.4701 30.3949 40.4005C30.374 40.3308 30.367 40.2576 30.3741 40.1852C30.3813 40.1127 30.4026 40.0425 30.4367 39.9786C30.5543 39.7172 30.7124 39.4756 30.8224 39.2123C30.9166 39.0124 30.9666 38.7936 30.9688 38.5715C30.9709 38.3494 30.9252 38.1296 30.8349 37.9279C30.7446 37.7261 30.6119 37.5473 30.4463 37.4044C30.2808 37.2615 30.0865 37.158 29.8774 37.1013C29.2622 36.9211 28.6239 37.2082 28.2209 37.9093C27.2335 39.6281 26.2654 41.3589 25.2877 43.0837C25.0948 43.4322 24.8287 43.7075 24.4141 43.4619C23.9994 43.2164 24.0824 42.8579 24.2849 42.5015C24.7091 41.7529 25.1308 41.0044 25.5499 40.2559C25.978 39.4935 25.8488 39.2439 24.9714 39.1529C24.8712 39.1462 24.7708 39.1455 24.6705 39.1509ZM57.4333 45.7293C57.3159 45.7424 57.1994 45.7622 57.0842 45.7887C55.8519 46.2105 54.6023 46.4481 53.3063 46.1848C52.9014 46.1016 52.9091 46.361 52.857 46.6343C52.6025 47.9492 51.7771 48.8126 50.6296 48.9948C49.5786 49.1611 48.5083 48.5868 47.8951 47.4779C47.0427 45.965 46.1845 44.456 45.2299 43.0045C44.8635 42.448 44.8674 42.446 44.5067 43.0322C44.1461 43.6184 43.799 44.2303 43.4075 44.8006C43.1433 45.1828 43.1742 45.4818 43.4172 45.858C44.9927 48.2938 46.4121 50.8245 47.8334 53.3553C48.2122 54.012 48.7159 54.5838 49.3144 55.0366C50.6046 56.0405 52.0933 56.492 53.6747 56.599C53.911 56.5951 54.1434 56.6615 54.3439 56.7901C54.5444 56.9186 54.7044 57.104 54.8048 57.3238C55.4643 58.5476 56.1817 59.7377 56.847 60.9575C57.0399 61.3259 57.2153 61.4051 57.5875 61.1833C60.4802 59.4605 63.3806 57.7489 66.2888 56.0485C66.6282 55.8504 66.686 55.6782 66.4816 55.3277C65.8202 54.1989 65.2069 53.0424 64.5377 51.9196C64.4108 51.742 64.34 51.5287 64.3349 51.3084C64.3297 51.0882 64.3904 50.8716 64.5088 50.6879C65.7912 48.2046 66.256 45.6541 64.8636 43.0362C64.0537 41.5133 63.0451 40.1707 61.4406 39.442C61.0175 39.2267 60.5474 39.1277 60.076 39.1544C59.6045 39.1811 59.1478 39.3327 58.7504 39.5945C57.1903 40.5608 55.5896 41.4599 54.0083 42.3906C53.5378 42.6678 53.0634 42.9371 52.6102 43.2362C51.8812 43.7193 51.8812 44.1332 52.6102 44.6223C53.1054 44.9408 53.6766 45.1128 54.2609 45.1194C55.8943 45.1907 57.3021 44.4936 58.6868 43.7332C59.1631 43.4718 59.6182 43.1688 60.0868 42.8916C60.1447 42.8495 60.2103 42.82 60.2796 42.8048C60.3489 42.7897 60.4205 42.7892 60.4901 42.8035C60.5596 42.8178 60.6255 42.8465 60.6838 42.8878C60.7422 42.9292 60.7917 42.9824 60.8293 43.0441C61.0356 43.3273 60.9566 43.5946 60.7213 43.8104C60.5574 43.9609 60.3645 44.0758 60.191 44.2164C58.9105 45.2501 58.0253 46.5313 57.9038 48.2482C57.8112 49.5156 58.1699 50.6839 58.762 51.7869C58.9548 52.1473 59.0879 52.5493 58.6482 52.8147C58.2085 53.0801 57.9597 52.7236 57.7553 52.3771C57.684 52.2523 57.6165 52.1256 57.5625 51.9968C56.5828 49.979 56.3591 47.9254 57.4313 45.7293H57.4333ZM58.7523 66.3617C58.956 66.2953 59.154 66.2118 59.3444 66.1122C62.786 64.0936 66.2251 62.0698 69.6617 60.0407C70.2961 59.6644 70.408 59.205 70.0474 58.5357C69.7986 58.0664 69.5209 57.6129 69.249 57.1495C68.7379 56.298 68.3638 56.1811 67.5134 56.6643C66.3948 57.304 65.2898 57.9693 64.1771 58.6248C61.9375 59.945 59.6979 61.2651 57.4583 62.5853C56.6696 63.0527 56.5481 63.5042 56.9859 64.3141C57.2578 64.8151 57.5432 65.3042 57.8402 65.8013C57.9274 65.9713 58.0584 66.1135 58.2189 66.2123C58.3794 66.3111 58.5633 66.3628 58.7504 66.3617H58.7523ZM28.0589 63.5893C28.0357 63.1259 27.7734 62.8388 27.4051 62.6229L24.3832 60.8407C22.0048 59.4387 19.6263 58.038 17.2479 56.6386C16.5054 56.2029 16.0329 56.3376 15.5875 57.0841C15.3252 57.5218 15.0745 57.9673 14.8277 58.4129C14.3725 59.2407 14.4767 59.6466 15.2905 60.1258C18.4493 61.9893 21.6159 63.8408 24.7728 65.7082C26.412 66.6765 26.5604 66.6468 27.4726 64.9161C27.6886 64.4943 28.001 64.1002 28.0569 63.5873L28.0589 63.5893ZM48.5237 41.7173C47.3435 41.7292 46.6628 42.8599 47.2027 43.8956C47.7601 44.963 48.3598 46.0065 48.9827 47.0383C49.4725 47.8581 50.2651 48.0284 51.0539 47.5571C51.371 47.3525 51.5968 47.0278 51.6824 46.6534C51.768 46.279 51.7063 45.8851 51.5109 45.557C50.9517 44.5134 50.3539 43.4877 49.758 42.4698C49.4745 41.9906 49.0541 41.6836 48.5237 41.7173ZM53.8579 38.8459C53.8791 39.3034 54.2436 39.9529 54.7218 40.3905C55.0767 40.7173 55.4836 40.0519 55.9078 39.9331C55.9443 39.9168 55.9792 39.8969 56.012 39.8737C57.3947 39.0816 57.4448 38.7489 56.3379 37.5469C55.9175 37.0934 55.4122 36.9191 54.8163 37.1508C54.2204 37.3825 53.856 37.8994 53.8579 38.8459ZM50.2883 40.6796C50.3616 41.349 50.7974 41.9034 51.1407 42.5015C51.2332 42.6599 51.3798 42.5985 51.5109 42.5193C52.1493 42.1371 52.7914 41.7589 53.4298 41.3747C53.4775 41.357 53.5203 41.3278 53.5548 41.2896C53.5893 41.2513 53.6144 41.2052 53.6279 41.155C53.6415 41.1048 53.6432 41.052 53.6329 41.001C53.6226 40.95 53.6005 40.9023 53.5686 40.8618C53.3218 40.4658 53.1559 40.0143 52.8358 39.6737C52.645 39.4465 52.3903 39.2855 52.1069 39.2128C51.8234 39.1401 51.525 39.1593 51.2525 39.2677C50.9721 39.3761 50.7301 39.5688 50.558 39.8207C50.386 40.0726 50.292 40.372 50.2883 40.6796ZM39.1803 38.4816C39.1514 39.0756 39.5024 39.5212 39.7955 39.9806C39.9575 40.2341 40.0886 40.0875 40.1966 39.9133C40.6286 39.2242 41.049 38.5271 41.4906 37.8459C41.7105 37.5033 41.5678 37.329 41.2708 37.1766C41.0527 37.0596 40.8088 37.0025 40.5629 37.0107C40.317 37.0189 40.0773 37.0921 39.867 37.2234C39.6567 37.3547 39.483 37.5395 39.3627 37.7599C39.2424 37.9803 39.1796 38.2289 39.1803 38.4816Z" fill="#FAF9F2"/>
<path d="M39.4738 19.5559C40.546 19.5559 41.3155 19.7539 42.0058 20.2093C42.1162 20.296 42.2507 20.3439 42.3896 20.346C42.5285 20.3482 42.6644 20.3044 42.7772 20.2212C44.7828 19.0786 46.827 19.3836 48.3698 21.0292C49.793 22.5421 50.0206 24.8867 48.929 26.7937C48.5633 27.4569 48.1089 28.0641 47.5791 28.5977C45.9939 30.1443 44.401 31.679 42.8235 33.2316C42.5362 33.5147 42.3337 33.5543 42.0251 33.2494C40.3956 31.6355 38.7275 30.0612 37.1172 28.4274C36.1799 27.4749 35.4722 26.3581 35.2562 24.9758C34.803 22.15 36.9455 19.5479 39.4738 19.5559ZM48.4315 24.4491C48.4315 22.7619 47.7469 21.6431 46.395 21.0292C45.103 20.4351 43.863 20.6648 42.8389 21.6648C42.4532 22.0431 42.2758 21.9738 41.9403 21.647C41.4543 21.1637 40.8314 20.8515 40.1613 20.7554C39.4913 20.6593 38.8089 20.7843 38.2125 21.1123C37.6036 21.4337 37.1023 21.935 36.7733 22.5516C36.4444 23.1682 36.3029 23.8719 36.367 24.5719C36.4789 25.8432 37.1519 26.8056 37.9734 27.6591C39.0572 28.7839 40.1912 29.8552 41.327 30.9246C41.6761 31.2533 41.9538 31.8315 42.4166 31.8196C42.8794 31.8078 43.1648 31.2493 43.5023 30.9107C44.8349 29.58 46.3256 28.4096 47.475 26.8927C48.0497 26.1343 48.5009 25.3184 48.4315 24.4491Z" fill="#FAF9F0"/>
<defs>
<linearGradient id="paint0_linear_11053_12775" x1="21.3468" y1="3.63672" x2="65.2625" y2="83.6367" gradientUnits="userSpaceOnUse">
<stop stop-color="#5936B4"/>
<stop offset="1" stop-color="#321972"/>
</linearGradient>
</defs>
</svg>
