<svg width="215" height="215" viewBox="0 0 215 215" fill="none" xmlns="http://www.w3.org/2000/svg">
<path d="M97.1797 214.345C92.6097 213.405 88.1197 212.225 84.0597 209.765C82.9336 209.211 81.9434 208.415 81.1597 207.435C79.8197 205.365 77.9397 205.215 75.7497 205.235C67.1497 205.315 62.1397 200.235 62.0797 191.695C62.0797 191.205 62.0797 190.695 62.0797 190.235C62.2197 188.725 61.6097 188.175 60.0797 188.135C53.1697 187.965 48.7597 184.135 47.6497 177.325C47.4182 175.841 47.4978 174.325 47.8835 172.874C48.2691 171.423 48.9523 170.068 49.8897 168.895C50.2355 168.524 50.4279 168.036 50.4279 167.53C50.4279 167.023 50.2355 166.535 49.8897 166.165C48.8908 164.818 48.1851 163.278 47.8181 161.642C47.451 160.006 47.4308 158.312 47.7587 156.668C48.0865 155.024 48.7552 153.467 49.7217 152.097C50.6881 150.727 51.9308 149.575 53.3697 148.715C53.7594 148.506 54.069 148.174 54.2499 147.77C54.4309 147.367 54.473 146.915 54.3697 146.485C53.602 137.576 49.4982 129.287 42.8797 123.275C33.9767 115.123 28.0029 104.268 25.8797 92.3847C20.7097 63.6247 39.0697 31.3846 72.1197 25.6446C85.0614 23.4008 98.3809 25.6953 109.826 32.1403C121.271 38.5852 130.138 48.7849 134.93 61.0147C135.85 63.3547 135.85 63.3447 138.2 62.1247C161.533 49.9847 184.85 37.838 208.15 25.6847C209.8 24.8247 211.4 24.3447 213 25.6847C214.6 27.0247 214.42 28.8347 213.86 30.6847C207.94 49.8247 202.03 68.958 196.13 88.0846C192.45 99.9713 188.783 111.861 185.13 123.755C183.94 127.575 182.82 128.205 178.81 127.415C173.29 126.325 167.76 125.275 162.25 124.105C161.555 123.908 160.82 123.909 160.126 124.107C159.432 124.305 158.806 124.692 158.32 125.225C151.71 131.595 145.02 137.895 138.32 144.225C137.718 144.7 137.272 145.344 137.04 146.075C135.04 153.945 136.14 160.985 142.61 166.565C143.51 167.335 144.349 168.174 145.12 169.075C149.35 173.965 149.37 178.955 145.22 183.925C144.69 184.565 144.12 185.175 143.61 185.835C143.029 186.496 142.721 187.354 142.749 188.234C142.776 189.114 143.138 189.951 143.76 190.575C145.149 192.04 146.726 193.314 148.45 194.365C150.425 195.54 152.26 196.936 153.92 198.525C157.26 202.135 156.02 206.525 151.31 207.915C147.92 208.915 144.4 208.855 140.96 208.915C130.254 209.255 119.617 210.764 109.24 213.415C107.49 213.845 105.7 214.085 103.92 214.415L97.1797 214.345ZM59.4897 103.845V103.185C61.9897 101.855 64.4897 100.505 66.9897 99.1847C87.1164 88.7047 107.283 78.2113 127.49 67.7046C128.95 66.9546 129.33 66.2446 128.73 64.6446C120.37 42.1446 98.7297 29.3247 74.9297 32.7747C45.0897 37.0947 26.2997 65.2847 33.8397 94.4647C36.2997 103.945 41.3897 111.825 48.4297 118.605C55.7932 125.459 60.4136 134.756 61.4297 144.765C61.5897 146.325 62.3497 146.765 63.7497 146.765C75.8497 146.765 87.9597 146.765 100.07 146.765C100.376 146.817 100.691 146.799 100.989 146.712C101.288 146.625 101.563 146.471 101.793 146.262C102.023 146.053 102.203 145.794 102.319 145.505C102.434 145.216 102.482 144.905 102.46 144.595C103.234 136.43 106.474 128.694 111.75 122.415C111.927 122.252 112.068 122.054 112.165 121.833C112.261 121.613 112.311 121.375 112.311 121.135C112.311 120.894 112.261 120.656 112.165 120.436C112.068 120.215 111.927 120.018 111.75 119.855C110.44 118.235 109.15 116.585 107.99 114.855C107.612 114.278 107.114 113.79 106.531 113.422C105.948 113.055 105.293 112.817 104.61 112.725C92.8697 110.478 81.1364 108.198 69.4097 105.885C66.0897 105.225 62.7797 104.525 59.4897 103.845ZM79.9097 100.565C89.0697 102.355 97.7097 104.005 106.33 105.765C106.896 105.894 107.484 105.898 108.052 105.777C108.62 105.656 109.155 105.413 109.62 105.065C129.993 91.3647 150.38 77.698 170.78 64.0647C171.35 63.6747 171.93 63.2747 172.53 62.9347C173.227 62.4519 174.079 62.2441 174.921 62.3512C175.762 62.4583 176.535 62.8726 177.09 63.5146C177.673 64.0811 178.032 64.8388 178.102 65.6488C178.172 66.4588 177.947 67.2668 177.47 67.9246C177.12 68.5246 176.7 69.0847 176.3 69.6547C166.466 83.6547 156.63 97.6547 146.79 111.655C145.72 113.175 145.98 113.655 147.72 114.025C157.28 115.845 166.83 117.655 176.36 119.625C178.24 120.015 178.89 119.545 179.43 117.775C186.83 93.6546 194.273 69.548 201.76 45.4547C202.76 42.3547 203.63 39.2546 204.76 35.6146L79.9097 100.565ZM91.2597 205.295C91.9797 205.605 92.3397 205.785 92.7197 205.915C97.368 207.475 102.368 207.663 107.12 206.455C119 203.745 130.93 201.605 143.17 201.645C143.521 201.694 143.879 201.663 144.217 201.553C144.555 201.444 144.863 201.26 145.12 201.015C142.698 199.434 140.472 197.571 138.49 195.465C134.41 190.905 134.28 185.915 138.13 181.155C138.74 180.395 139.39 179.665 139.99 178.905C140.312 178.581 140.564 178.196 140.732 177.772C140.899 177.347 140.979 176.893 140.965 176.437C140.951 175.981 140.844 175.533 140.65 175.12C140.457 174.707 140.181 174.337 139.84 174.035C138.39 172.535 136.79 171.185 135.42 169.615C129.64 162.975 127.82 155.275 129.5 146.695C129.76 145.365 130.19 144.145 129.11 142.785C125.44 138.145 121.89 133.425 118.4 128.655C117.31 127.165 116.74 127.545 115.86 128.795C112.307 133.881 110.114 139.792 109.49 145.965C109.379 146.57 109.462 147.195 109.726 147.751C109.989 148.307 110.421 148.767 110.96 149.065C112.307 149.995 113.452 151.187 114.327 152.571C115.202 153.954 115.788 155.5 116.051 157.116C116.313 158.732 116.246 160.384 115.854 161.973C115.462 163.562 114.753 165.056 113.77 166.365C113.596 166.52 113.458 166.711 113.363 166.924C113.268 167.136 113.219 167.367 113.219 167.6C113.219 167.833 113.268 168.063 113.363 168.276C113.458 168.489 113.596 168.679 113.77 168.835C115.445 171.081 116.292 173.837 116.168 176.636C116.044 179.435 114.957 182.105 113.09 184.195C111.955 185.573 110.504 186.656 108.86 187.352C107.217 188.049 105.429 188.338 103.65 188.195C102 188.085 101.32 188.705 101.52 190.335C101.545 190.751 101.545 191.168 101.52 191.585C101.49 199.095 98.7797 202.855 91.2397 205.295H91.2597ZM132.01 134.735C132.82 130.605 133.71 126.945 134.23 123.245C134.965 117.721 137.103 112.478 140.44 108.015C145.87 100.625 151.06 93.0146 156.35 85.5446C157.53 83.8646 158.7 82.1747 159.87 80.4947C157.392 81.7755 155.003 83.2221 152.72 84.8246L115.82 109.585C114.94 110.175 113.69 110.585 114.82 112.075C120.49 119.465 126.08 126.915 131.99 134.735H132.01ZM81.8797 180.895C89.2597 180.895 96.6297 180.895 104 180.895C107.17 180.895 108.94 178.965 108.86 175.895C108.78 172.825 106.86 171.125 103.04 171.095C96.2197 171.035 89.3997 171.095 82.5897 171.095C75.3497 171.095 68.1197 171.095 60.8797 171.095C58.8797 171.095 56.9497 171.385 55.7097 173.215C55.1675 173.948 54.844 174.82 54.7768 175.73C54.7095 176.639 54.9012 177.549 55.3297 178.355C55.7256 179.176 56.3603 179.859 57.1507 180.314C57.9411 180.769 58.8504 180.975 59.7597 180.905L81.8797 180.895ZM81.9697 163.805H96.5697C99.1497 163.805 101.73 163.855 104.3 163.755C107.37 163.635 108.97 161.815 108.86 158.755C108.889 158.177 108.802 157.6 108.602 157.058C108.402 156.515 108.094 156.019 107.696 155.599C107.299 155.179 106.821 154.845 106.29 154.615C105.759 154.386 105.188 154.267 104.61 154.265C103.09 154.145 101.56 154.195 100.03 154.195H60.7697C59.3897 154.195 57.9797 154.105 56.7697 155.005C55.9512 155.605 55.3348 156.44 55.0026 157.4C54.6703 158.359 54.6379 159.397 54.9097 160.375C55.1893 161.396 55.8102 162.29 56.6691 162.908C57.5279 163.527 58.5728 163.833 59.6297 163.775C67.0597 163.835 74.4897 163.805 81.9497 163.805H81.9697ZM81.8697 188.175C79.1597 188.175 76.4497 188.175 73.7397 188.175C68.8797 188.265 69.3097 187.175 69.4097 192.835C69.4597 196.045 71.5097 197.945 74.7197 197.975C79.0297 198.025 83.3397 197.975 87.6497 197.975C92.9397 197.975 94.2797 196.625 94.2797 191.295C94.2797 190.885 94.2797 190.465 94.2797 190.045C94.3897 188.595 93.6997 188.095 92.2797 188.125C88.7997 188.215 85.3197 188.175 81.8497 188.175H81.8697ZM139.87 132.175L140.33 132.335L150.12 123.075C150.67 122.545 151.2 121.965 149.89 121.705L143.33 120.465C142.63 120.325 142.13 120.465 141.97 121.285C141.27 124.915 140.54 128.555 139.82 132.195L139.87 132.175Z" fill="#6584DB"/>
<path d="M82.988 0.584961C83.8205 0.948185 84.5166 1.56571 84.9765 2.34897C85.4364 3.13223 85.6364 4.04099 85.548 4.94496C85.548 7.94496 85.548 10.945 85.548 13.875C85.498 16.605 84.038 18.215 81.798 18.185C79.558 18.155 78.338 16.575 78.308 13.905C78.308 10.995 78.368 8.08497 78.308 5.17497C78.2059 4.27824 78.3603 3.37094 78.7532 2.55846C79.1462 1.74597 79.7616 1.06165 80.528 0.584961H82.988Z" fill="#FCDE2F"/>
<path d="M0.738281 81.1656C1.29828 79.5856 2.08828 78.2156 3.96828 78.0356C7.76977 77.6105 11.6068 77.6105 15.4083 78.0356C16.04 78.0745 16.6483 78.2885 17.1653 78.6535C17.6823 79.0186 18.0875 79.5203 18.3355 80.1026C18.5836 80.6848 18.6647 81.3246 18.5698 81.9503C18.4749 82.5761 18.2078 83.163 17.7983 83.6455C17.4607 84.091 17.0211 84.4488 16.5164 84.6889C16.0118 84.9291 15.4568 85.0445 14.8983 85.0256C11.4183 85.0256 7.89828 85.0256 4.46828 85.0256C2.35828 85.0256 1.38828 83.7156 0.738281 81.9656V81.1656Z" fill="#FCDE2F"/>
<path d="M129.42 37.8549C128.686 37.8371 127.971 37.6177 127.354 37.2208C126.737 36.824 126.241 36.265 125.92 35.6049C125.6 35.0554 125.471 34.4162 125.55 33.7856C125.63 33.1551 125.914 32.5681 126.36 32.1149C129.05 29.3149 131.77 26.5449 134.61 23.9049C135.97 22.6449 137.61 22.9049 138.94 24.1449C140.27 25.3849 140.88 26.9549 139.72 28.4249C137.087 31.7329 134.088 34.732 130.78 37.3649C130.358 37.6062 129.898 37.772 129.42 37.8549Z" fill="#FCDE2F"/>
<path d="M34.7378 37.8155C34.1683 37.8123 33.6061 37.6875 33.0887 37.4495C32.5714 37.2115 32.1108 36.8658 31.7378 36.4355C29.4678 34.1755 27.1778 31.9455 24.9578 29.6355C23.2078 27.8155 23.1478 25.8155 24.6878 24.2955C26.2278 22.7755 28.1578 22.7655 30.0178 24.5655C32.4178 26.8988 34.7711 29.2655 37.0778 31.6655C37.6074 32.1336 37.9722 32.7599 38.118 33.4515C38.2639 34.1431 38.1832 34.8633 37.8878 35.5055C37.6295 36.1454 37.1979 36.7006 36.6414 37.1086C36.085 37.5167 35.4257 37.7615 34.7378 37.8155Z" fill="#FCDE2F"/>
<path d="M38.0982 128.125C38.169 128.772 38.0925 129.426 37.8743 130.04C37.6561 130.653 37.3018 131.208 36.8382 131.665C34.5882 133.935 32.3582 136.225 30.0582 138.435C28.2982 140.135 26.0582 140.235 24.6782 138.805C23.1182 137.225 23.2382 135.145 25.0582 133.305C27.3482 130.975 29.6482 128.665 31.9982 126.395C32.4933 125.854 33.148 125.484 33.8673 125.34C34.5866 125.197 35.333 125.286 35.9982 125.595C36.5444 125.787 37.0281 126.124 37.398 126.57C37.7678 127.015 38.0098 127.553 38.0982 128.125Z" fill="#FCDE2F"/>
</svg>
