<svg width="156" height="168" viewBox="0 0 156 168" fill="none" xmlns="http://www.w3.org/2000/svg">
<g clip-path="url(#clip0_10077_7639)">
<path d="M131.397 144.537C161.168 114.648 161.168 66.1865 131.397 36.2965C101.626 6.40666 53.3578 6.40665 23.5868 36.2965C-6.1842 66.1864 -6.1842 114.648 23.5868 144.537C53.3578 174.427 101.626 174.427 131.397 144.537Z" fill="#C2D7EA"/>
<mask id="mask0_10077_7639" style="mask-type:luminance" maskUnits="userSpaceOnUse" x="1" y="13" width="153" height="154">
<path d="M131.397 144.537C161.168 114.647 161.168 66.186 131.397 36.2961C101.626 6.40617 53.3578 6.40617 23.5868 36.2961C-6.1842 66.186 -6.1842 114.647 23.5868 144.537C53.3578 174.427 101.626 174.427 131.397 144.537Z" fill="white"/>
</mask>
<g mask="url(#mask0_10077_7639)">
<path fill-rule="evenodd" clip-rule="evenodd" d="M35.4053 26.5908L115.843 139.695L86.9533 186.97L-24.3242 155.616L35.4053 26.5908Z" fill="#DEEAF5"/>
</g>
<rect x="45" y="39.5" width="67" height="106" rx="6" fill="white"/>
<path fill-rule="evenodd" clip-rule="evenodd" d="M78.4999 76.9219C86.7697 76.9219 93.5149 70.1498 93.5149 61.8465C93.5149 53.5431 86.7697 46.771 78.4999 46.771C70.2301 46.771 63.4844 53.5426 63.4844 61.8465C63.4844 70.1493 70.2296 76.9219 78.4999 76.9219Z" fill="#6484C2"/>
<path fill-rule="evenodd" clip-rule="evenodd" d="M78.4988 61.7017C80.8248 61.7017 82.7217 59.7973 82.7217 57.4615C82.7217 55.1262 80.8248 53.2217 78.4988 53.2217C76.1728 53.2217 74.2754 55.1262 74.2754 57.4615C74.2754 59.7973 76.1723 61.7017 78.4988 61.7017Z" fill="white"/>
<path fill-rule="evenodd" clip-rule="evenodd" d="M88.8156 70.472H68.1855C72.8044 59.1102 86.319 61.4961 88.8156 70.472Z" fill="white"/>
<path fill-rule="evenodd" clip-rule="evenodd" d="M54.2556 115.312V108.998C54.2556 107.455 55.2493 106.146 56.589 106.146H100.411C101.748 106.146 102.744 107.443 102.744 108.998V115.312C102.744 116.203 102.504 116.738 102.14 117.252C101.85 117.662 101.104 118.164 100.411 118.164H56.589C55.2523 118.164 54.2556 116.868 54.2556 115.312ZM52.5312 108.387V115.923C52.5312 116.94 53.1388 118.151 53.8354 118.79C54.5784 119.472 55.6863 119.997 56.7912 119.997H100.208C102.465 119.997 104.469 118.043 104.469 115.923V108.387C104.469 107.082 103.646 105.804 102.599 105.07C102.39 104.923 102.173 104.809 101.947 104.706C101.473 104.489 100.927 104.313 100.208 104.313H56.7912C55.933 104.313 55.1049 104.622 54.4608 105.028C53.4058 105.694 52.5312 107.093 52.5312 108.387Z" fill="#6484C2"/>
<path fill-rule="evenodd" clip-rule="evenodd" d="M62.0647 130.386C62.0647 127.989 63.4667 126.03 65.3423 125.02C65.815 124.765 66.9708 124.377 67.6436 124.377H89.3519C93.4606 124.377 97.4057 130.4 93.031 134.792C91.9642 135.863 90.438 136.497 88.3375 136.497H68.6581C64.7916 136.497 62.0647 133.885 62.0647 130.386ZM60.3403 129.775C60.3403 131.544 60.2943 132.23 61.117 133.884C61.5574 134.77 61.993 135.353 62.6475 136.014C63.7144 137.091 65.6503 138.228 67.7455 138.228H89.2511C93.1937 138.228 96.6562 134.398 96.6562 131.099C96.6562 128.954 96.5222 127.499 95.136 125.7C94.5087 124.885 94.0652 124.435 93.209 123.866C91.9834 123.054 90.4904 122.544 88.8452 122.544H68.1514C66.5521 122.544 65.0497 123.036 63.8484 123.826C63.4113 124.112 63.1483 124.358 62.7593 124.667C62.2397 125.08 61.465 126.218 61.1501 126.819C60.7971 127.494 60.3403 128.757 60.3403 129.775Z" fill="#6484C2"/>
<path fill-rule="evenodd" clip-rule="evenodd" d="M65.7152 114.702H58.4113C57.6297 114.702 57.8023 113.401 57.8028 112.971C57.8038 112.156 57.8028 111.342 57.8028 110.527C60.9524 112.644 61.3607 114.238 64.3383 111.996C65.024 111.48 65.638 110.988 66.3237 110.527L66.3039 114.071C66.2565 114.309 66.0246 114.702 65.7152 114.702ZM59.6285 109.61C59.7926 109.835 60.4121 110.251 60.7013 110.469C62.2219 111.613 61.9683 111.53 63.9334 110.062L64.498 109.61L59.6285 109.61ZM55.9766 110.221V114.091C55.9766 115.381 57.2763 116.535 58.614 116.535H65.6133C66.9046 116.535 68.1494 115.344 68.1494 113.786V110.527C68.1494 109.014 67.0079 107.777 65.512 107.777H58.614C57.2768 107.777 55.9766 108.931 55.9766 110.221Z" fill="#000001"/>
<path fill-rule="evenodd" clip-rule="evenodd" d="M70.6855 95.658C70.6855 96.2834 71.1685 96.5747 71.8013 96.5747H98.1765C99.7807 96.5747 99.487 94.7412 98.3792 94.7412H71.5986C71.0974 94.7412 70.6855 95.1547 70.6855 95.658Z" fill="#000001"/>
<path fill-rule="evenodd" clip-rule="evenodd" d="M70.6855 113.889C70.6855 114.392 71.0974 114.806 71.5986 114.806H98.3792C99.487 114.806 99.7807 112.973 98.1765 112.973H71.8013C71.1685 112.973 70.6855 113.264 70.6855 113.889Z" fill="#000001"/>
<path fill-rule="evenodd" clip-rule="evenodd" d="M61.9651 94.8414C62.55 94.8414 62.9445 94.9312 63.3024 95.3318C63.5847 95.648 63.6821 95.9994 63.7908 96.4709H60.3421C60.4158 95.581 60.9942 94.8414 61.9651 94.8414ZM61.2547 92.1934C61.2547 91.021 62.8777 91.1258 62.8777 92.1934C62.8782 93.2561 61.2547 93.3137 61.2547 92.1934ZM59.429 92.1934C59.429 93.138 59.8072 93.269 59.9357 93.8229C59.1927 94.0219 58.6252 95.445 58.5589 96.4069C58.4902 97.409 59.2659 98.3039 60.5448 98.3039H63.689C64.5245 98.3039 65.5152 97.5733 65.5152 96.7766C65.5152 95.9195 65.5112 95.5725 65.0796 94.7689C64.8127 94.2721 64.481 94.1475 64.1962 93.7212C65.6408 90.9798 63.3691 89.5454 62.2687 89.5454C60.5344 89.5454 59.429 90.7034 59.429 92.1934Z" fill="#000001"/>
<path fill-rule="evenodd" clip-rule="evenodd" d="M75.9617 131.814C74.9794 130.342 73.3242 129.678 73.3242 131.509C73.3242 131.807 75.3867 133.785 75.6418 133.877C76.1965 134.077 76.5851 133.611 77.1353 133.196C77.6168 132.834 77.9921 132.551 78.4686 132.192L82.4681 129.181C83.3812 128.493 83.6709 128.475 83.6709 127.74C83.6709 127.165 83.3016 126.925 82.7578 126.925C82.2456 126.925 79.7733 128.969 79.3377 129.297C78.747 129.742 78.2481 130.118 77.6569 130.563C77.0715 131.004 76.551 131.418 75.9617 131.814Z" fill="#000001"/>
<path fill-rule="evenodd" clip-rule="evenodd" d="M70.6855 110.426C70.6855 111.051 71.1685 111.342 71.8013 111.342H75.6559C77.2607 111.342 76.967 109.509 75.8591 109.509H71.5986C71.0974 109.509 70.6855 109.922 70.6855 110.426Z" fill="#000001"/>
<path fill-rule="evenodd" clip-rule="evenodd" d="M70.6855 92.1936C70.6855 92.8393 71.2649 93.1103 71.9027 93.1103H75.5546C77.1994 93.1103 77.0822 91.2773 75.8591 91.2773H71.5986C71.0974 91.2773 70.6855 91.6908 70.6855 92.1936Z" fill="#000001"/>
<path fill-rule="evenodd" clip-rule="evenodd" d="M54.2556 97.0967V90.7822C54.2556 89.24 55.2493 87.9307 56.589 87.9307H100.411C101.748 87.9307 102.744 89.2266 102.744 90.7822V97.0971C102.744 97.9881 102.504 98.5226 102.14 99.0369C101.85 99.4468 101.104 99.9491 100.411 99.9491H56.589C55.2523 99.9486 54.2556 98.6517 54.2556 97.0967ZM52.5312 90.1712V97.7077C52.5312 98.7247 53.1388 99.9352 53.8354 100.574C54.5784 101.256 55.6863 101.782 56.7912 101.782H100.208C102.465 101.782 104.469 99.827 104.469 97.7077V90.1712C104.469 88.8658 103.646 87.5887 102.599 86.8541C102.39 86.7077 102.173 86.5935 101.947 86.4898C101.473 86.2734 100.927 86.0972 100.208 86.0972H56.7912C55.933 86.0972 55.1049 86.4064 54.4608 86.8129C53.4058 87.478 52.5312 88.8767 52.5312 90.1712Z" fill="#6484C2"/>
</g>
<defs>
<clipPath id="clip0_10077_7639">
<rect width="156" height="168" fill="white"/>
</clipPath>
</defs>
</svg>
