<svg width="43" height="21" viewBox="0 0 43 21" fill="none" xmlns="http://www.w3.org/2000/svg">
<path fill-rule="evenodd" clip-rule="evenodd" d="M24.0696 18.9495L24.1384 18.9279C24.3138 18.7478 24.447 18.5526 24.5335 18.3574C24.6512 18.0927 24.6734 17.8433 24.5757 17.674C24.5713 17.6675 24.5646 17.6567 24.5557 17.6458L24.5579 17.6437C24.4714 17.5244 24.3093 17.4593 24.1073 17.4528C23.8454 17.4419 23.5324 17.5244 23.2172 17.7001C23.1484 17.7391 23.084 17.7782 23.0218 17.8194C22.6556 18.0688 22.3847 18.392 22.2427 18.7088C22.125 18.9734 22.1028 19.2229 22.2005 19.3921C22.2072 19.4051 22.2138 19.416 22.2205 19.4225C22.307 19.5418 22.4691 19.6069 22.6711 19.6134C22.933 19.6242 23.246 19.5418 23.5612 19.3661C23.6301 19.327 23.6944 19.288 23.7566 19.2468C23.8742 19.1665 23.983 19.0776 24.0807 18.9843L24.0696 18.9495ZM20.7709 0.5C21.0218 0.5 21.2238 0.697402 21.2238 0.942522C21.2238 1.18765 21.0218 1.38505 20.7709 1.38505L11.6854 1.38722C11.4345 1.38722 11.2303 1.18982 11.2303 0.944689C11.2303 0.699563 11.4345 0.502163 11.6854 0.502163L20.7709 0.5ZM14.5841 3.89487C14.835 3.89487 15.037 4.09227 15.037 4.33739C15.037 4.58252 14.8327 4.77992 14.5841 4.77992H0.452846C0.202004 4.77992 0 4.58252 0 4.33739C0 4.09227 0.202004 3.89487 0.452846 3.89487H14.5841ZM9.94916 7.77347C10.2 7.77347 10.402 7.97088 10.402 8.216C10.402 8.46113 10.1978 8.65853 9.94916 8.65853H6.69045C6.43961 8.65853 6.23761 8.46113 6.23761 8.216C6.23761 7.97088 6.43961 7.77347 6.69045 7.77347H9.94916ZM6.53952 11.6521C6.79036 11.6521 6.99236 11.8495 6.99236 12.0946C6.99236 12.3397 6.79036 12.5371 6.53952 12.5371H0.592528C0.341686 12.5371 0.139682 12.3376 0.139682 12.0946C0.139682 11.8495 0.341686 11.6521 0.592528 11.6521H6.53952ZM30.3048 1.81673C25.8607 1.98593 21.126 3.7452 16.9412 6.52399L19.6716 11.2291C22.0557 9.69329 24.7439 8.7323 27.2723 8.66072L30.3048 1.81673ZM16.1956 7.03373C12.0779 9.93402 8.56826 13.8126 6.51508 18.0925H13.4452C14.6017 15.6347 16.5884 13.4069 18.9259 11.7368L16.1956 7.03373ZM28.247 8.68015L31.2926 1.80579C33.2261 1.83833 34.9309 2.1854 36.3827 2.79932C38.2007 3.56939 39.6258 4.75812 40.5959 6.2636L33.3038 11.2376C32.7022 10.3851 31.8587 9.7105 30.8065 9.26363C30.0518 8.94475 29.1949 8.74524 28.247 8.68015ZM33.7544 12.0034C34.1562 12.8256 34.3648 13.7649 34.3648 14.7887C34.3648 14.9731 34.3582 15.1597 34.3449 15.3484L35.5902 15.164C35.6634 15.1531 35.7389 15.1553 35.8099 15.1683C35.932 15.19 36.0386 15.2443 36.1207 15.3223C36.2095 15.4069 36.2672 15.5176 36.2872 15.6412H36.285C36.2939 15.6976 36.2939 15.7584 36.285 15.8169L36.2806 15.843C36.2539 15.9861 36.1762 16.1228 36.0697 16.2291C35.972 16.3267 35.8432 16.407 35.7056 16.4482L34.0785 16.9276C33.9808 17.3094 33.8587 17.6976 33.7078 18.0925H40.6623C41.6279 15.8278 42.0874 13.6759 42.0874 11.719C42.0874 9.97931 41.7234 8.39791 41.033 7.03781L33.7544 12.0034ZM16.0845 6.02703C20.715 2.86863 26.0537 0.916326 30.9994 0.916326C33.1748 0.916326 35.0994 1.29594 36.7401 1.98794C38.7379 2.83392 40.3029 4.14415 41.3706 5.81012C42.4339 7.47177 43 9.47832 43 11.7149C43 13.8494 42.485 16.1987 41.3973 18.6676C41.3396 18.8454 41.1664 18.9756 40.9644 18.9756L33.0438 18.9778V18.9756C32.9839 18.9756 32.924 18.9647 32.864 18.9387C32.6354 18.8411 32.5288 18.583 32.6287 18.3595C32.7996 17.9755 32.9417 17.5981 33.0571 17.2293L24.6041 19.7174C24.5019 19.8085 24.391 19.8932 24.2733 19.9734C24.1823 20.0363 24.0935 20.0906 24.0069 20.1383C23.5452 20.3942 23.0635 20.5157 22.6395 20.4984C22.1556 20.481 21.7383 20.2901 21.4808 19.9301C21.4564 19.8953 21.4342 19.8628 21.4164 19.8303C21.17 19.4051 21.1878 18.8736 21.4164 18.3595C21.6206 17.8975 22.0002 17.4398 22.5064 17.0949C22.5974 17.032 22.6862 16.9778 22.7705 16.93C23.2322 16.6741 23.714 16.5548 24.1379 16.5699C24.4065 16.5808 24.6551 16.6437 24.866 16.7587L33.4213 15.4875C33.4458 15.251 33.4569 15.0167 33.4569 14.789C33.4569 13.687 33.1838 12.7087 32.671 11.9082C32.1605 11.1121 31.4079 10.4809 30.4445 10.0731C29.6343 9.73032 28.6709 9.54377 27.5699 9.54377C24.9971 9.54377 22.2068 10.5698 19.7783 12.2249C17.352 13.8801 15.292 16.1577 14.1688 18.6717C14.1088 18.8496 13.9379 18.9776 13.7381 18.9776L5.81582 18.9797V18.9776C5.75588 18.9776 5.69594 18.9667 5.63601 18.9407C5.40737 18.8431 5.30082 18.5849 5.40071 18.3615C7.53617 13.5393 11.4627 9.17906 16.0845 6.02703ZM25.4275 18.5502L32.1445 16.574L25.4962 17.561C25.5762 17.869 25.5473 18.2096 25.4275 18.5502Z" fill="white"/>
</svg>
