<svg width="121" height="36" viewBox="0 0 121 36" fill="none" xmlns="http://www.w3.org/2000/svg">
<path d="M22.2598 0.363281L19.8298 8.06823H2.0648L0.306497 4.55162C0.085433 4.11065 -0.0190935 3.62044 0.00286584 3.12764C0.0248252 2.63485 0.17254 2.15588 0.431951 1.73631C0.691361 1.31675 1.05383 0.970558 1.48487 0.730691C1.9159 0.490823 2.40116 0.365262 2.89444 0.365958L22.2598 0.363281Z" fill="#FCDE2F"/>
<path d="M13.0137 29.9761L14.9433 23.8608H25.5359L20.3359 34.2581C20.0953 34.7387 19.7256 35.1429 19.2683 35.4253C18.811 35.7078 18.2841 35.8574 17.7466 35.8574C17.2091 35.8574 16.6823 35.7078 16.225 35.4253C15.7677 35.1429 15.398 34.7387 15.1574 34.2581L13.0137 29.9761Z" fill="#FCDE2F"/>
<path d="M17.4347 15.9606L14.9431 23.8529H9.95725L6.00977 15.9606H17.3437L19.83 8.06836H33.428L29.4805 15.9606H17.4347Z" fill="#6584DB"/>
<path d="M42.5273 13.8979H46.7906L49.6087 21.3406C50.2965 23.2756 50.8559 24.9455 51.0512 25.8314C51.4589 24.304 51.963 22.8041 52.5606 21.3406L55.5045 13.8979H59.6367L52.8818 30.0947H48.9477L42.5273 13.8979Z" fill="#414042"/>
<path d="M60.2012 21.9965C60.2012 16.9117 63.5117 13.4058 68.2647 13.4058C73.1195 13.4058 76.1998 16.6521 76.1998 21.7022V22.9145L64.0041 22.9466C64.2985 25.7995 65.8079 27.242 68.4628 27.242C70.66 27.242 72.1025 26.3883 72.5601 24.8494H76.2667C75.5763 28.3901 72.627 30.5204 68.3959 30.5204C63.5759 30.5151 60.2012 27.0119 60.2012 21.9965ZM64.1005 20.3908H72.2336C72.2336 18.1615 70.6921 16.6869 68.2995 16.6869C65.907 16.6869 64.4939 17.9634 64.1005 20.3881V20.3908Z" fill="#414042"/>
<path d="M79.4785 30.0948V5.70068H83.4474V30.0948H79.4785Z" fill="#414042"/>
<path d="M95.3406 13.4375C100.356 13.4375 103.996 16.9166 103.996 21.9641C103.996 27.0115 100.364 30.4879 95.3406 30.4879C90.3172 30.4879 86.6855 27.0088 86.6855 21.9641C86.6855 16.9193 90.3306 13.4375 95.3406 13.4375ZM95.3406 26.9125C98.0944 26.9125 99.9972 24.9133 99.9972 21.9641C99.9972 19.0148 98.0944 17.013 95.3406 17.013C92.5867 17.013 90.6839 19.0121 90.6839 21.9641C90.6839 24.916 92.5947 26.9125 95.3406 26.9125Z" fill="#414042"/>
<path d="M104.727 30.0947L110.301 22.1596L104.727 13.8979H109.383L112.956 19.4057L116.398 13.8979H120.891L115.383 22.0953L120.736 30.0947H116.135L112.694 24.7421L109.284 30.0947H104.727Z" fill="#414042"/>
</svg>
